<?xml version="1.0" encoding="utf-8" standalone="no"?>
<!DOCTYPE svg PUBLIC "-//W3C//DTD SVG 1.1//EN"
  "http://www.w3.org/Graphics/SVG/1.1/DTD/svg11.dtd">
<svg xmlns:xlink="http://www.w3.org/1999/xlink" width="432pt" height="576pt" viewBox="0 0 432 576" xmlns="http://www.w3.org/2000/svg" version="1.1">
 <metadata>
  <rdf:RDF xmlns:dc="http://purl.org/dc/elements/1.1/" xmlns:cc="http://creativecommons.org/ns#" xmlns:rdf="http://www.w3.org/1999/02/22-rdf-syntax-ns#">
   <cc:Work>
    <dc:type rdf:resource="http://purl.org/dc/dcmitype/StillImage"/>
    <dc:date>2025-10-08T19:13:50.313718</dc:date>
    <dc:format>image/svg+xml</dc:format>
    <dc:creator>
     <cc:Agent>
      <dc:title>Matplotlib v3.10.3, https://matplotlib.org/</dc:title>
     </cc:Agent>
    </dc:creator>
   </cc:Work>
  </rdf:RDF>
 </metadata>
 <defs>
  <style type="text/css">*{stroke-linejoin: round; stroke-linecap: butt}</style>
 </defs>
 <g id="figure_1">
  <g id="patch_1">
   <path d="M 0 576 
L 432 576 
L 432 0 
L 0 0 
z
" style="fill: #ffffff"/>
  </g>
  <g id="axes_1">
   <g id="patch_2">
    <path d="M 64.8 460.8 
L 410.4 460.8 
L 410.4 86.4 
L 64.8 86.4 
z
" style="fill: #ffffff"/>
   </g>
   <g id="matplotlib.axis_1">
    <g id="xtick_1">
     <g id="line2d_1">
      <path d="M 80.509091 460.8 
L 80.509091 86.4 
" clip-path="url(#pc4ee99fd03)" style="fill: none; stroke: #cccccc; stroke-linecap: round"/>
     </g>
     <g id="text_1">
      <!-- 0.0 -->
      <g style="fill: #262626" transform="translate(71.762372 478.658281) scale(0.11 -0.11)">
       <defs>
        <path id="DejaVuSans-30" d="M 2034 4250 
Q 1547 4250 1301 3770 
Q 1056 3291 1056 2328 
Q 1056 1369 1301 889 
Q 1547 409 2034 409 
Q 2525 409 2770 889 
Q 3016 1369 3016 2328 
Q 3016 3291 2770 3770 
Q 2525 4250 2034 4250 
z
M 2034 4750 
Q 2819 4750 3233 4129 
Q 3647 3509 3647 2328 
Q 3647 1150 3233 529 
Q 2819 -91 2034 -91 
Q 1250 -91 836 529 
Q 422 1150 422 2328 
Q 422 3509 836 4129 
Q 1250 4750 2034 4750 
z
" transform="scale(0.015625)"/>
        <path id="DejaVuSans-2e" d="M 684 794 
L 1344 794 
L 1344 0 
L 684 0 
L 684 794 
z
" transform="scale(0.015625)"/>
       </defs>
       <use xlink:href="#DejaVuSans-30"/>
       <use xlink:href="#DejaVuSans-2e" transform="translate(63.623047 0)"/>
       <use xlink:href="#DejaVuSans-30" transform="translate(95.410156 0)"/>
      </g>
     </g>
    </g>
    <g id="xtick_2">
     <g id="line2d_2">
      <path d="M 121.848804 460.8 
L 121.848804 86.4 
" clip-path="url(#pc4ee99fd03)" style="fill: none; stroke: #cccccc; stroke-linecap: round"/>
     </g>
     <g id="text_2">
      <!-- 2.5 -->
      <g style="fill: #262626" transform="translate(113.102085 478.658281) scale(0.11 -0.11)">
       <defs>
        <path id="DejaVuSans-32" d="M 1228 531 
L 3431 531 
L 3431 0 
L 469 0 
L 469 531 
Q 828 903 1448 1529 
Q 2069 2156 2228 2338 
Q 2531 2678 2651 2914 
Q 2772 3150 2772 3378 
Q 2772 3750 2511 3984 
Q 2250 4219 1831 4219 
Q 1534 4219 1204 4116 
Q 875 4013 500 3803 
L 500 4441 
Q 881 4594 1212 4672 
Q 1544 4750 1819 4750 
Q 2544 4750 2975 4387 
Q 3406 4025 3406 3419 
Q 3406 3131 3298 2873 
Q 3191 2616 2906 2266 
Q 2828 2175 2409 1742 
Q 1991 1309 1228 531 
z
" transform="scale(0.015625)"/>
        <path id="DejaVuSans-35" d="M 691 4666 
L 3169 4666 
L 3169 4134 
L 1269 4134 
L 1269 2991 
Q 1406 3038 1543 3061 
Q 1681 3084 1819 3084 
Q 2600 3084 3056 2656 
Q 3513 2228 3513 1497 
Q 3513 744 3044 326 
Q 2575 -91 1722 -91 
Q 1428 -91 1123 -41 
Q 819 9 494 109 
L 494 744 
Q 775 591 1075 516 
Q 1375 441 1709 441 
Q 2250 441 2565 725 
Q 2881 1009 2881 1497 
Q 2881 1984 2565 2268 
Q 2250 2553 1709 2553 
Q 1456 2553 1204 2497 
Q 953 2441 691 2322 
L 691 4666 
z
" transform="scale(0.015625)"/>
       </defs>
       <use xlink:href="#DejaVuSans-32"/>
       <use xlink:href="#DejaVuSans-2e" transform="translate(63.623047 0)"/>
       <use xlink:href="#DejaVuSans-35" transform="translate(95.410156 0)"/>
      </g>
     </g>
    </g>
    <g id="xtick_3">
     <g id="line2d_3">
      <path d="M 163.188517 460.8 
L 163.188517 86.4 
" clip-path="url(#pc4ee99fd03)" style="fill: none; stroke: #cccccc; stroke-linecap: round"/>
     </g>
     <g id="text_3">
      <!-- 5.0 -->
      <g style="fill: #262626" transform="translate(154.441798 478.658281) scale(0.11 -0.11)">
       <use xlink:href="#DejaVuSans-35"/>
       <use xlink:href="#DejaVuSans-2e" transform="translate(63.623047 0)"/>
       <use xlink:href="#DejaVuSans-30" transform="translate(95.410156 0)"/>
      </g>
     </g>
    </g>
    <g id="xtick_4">
     <g id="line2d_4">
      <path d="M 204.52823 460.8 
L 204.52823 86.4 
" clip-path="url(#pc4ee99fd03)" style="fill: none; stroke: #cccccc; stroke-linecap: round"/>
     </g>
     <g id="text_4">
      <!-- 7.5 -->
      <g style="fill: #262626" transform="translate(195.781511 478.658281) scale(0.11 -0.11)">
       <defs>
        <path id="DejaVuSans-37" d="M 525 4666 
L 3525 4666 
L 3525 4397 
L 1831 0 
L 1172 0 
L 2766 4134 
L 525 4134 
L 525 4666 
z
" transform="scale(0.015625)"/>
       </defs>
       <use xlink:href="#DejaVuSans-37"/>
       <use xlink:href="#DejaVuSans-2e" transform="translate(63.623047 0)"/>
       <use xlink:href="#DejaVuSans-35" transform="translate(95.410156 0)"/>
      </g>
     </g>
    </g>
    <g id="xtick_5">
     <g id="line2d_5">
      <path d="M 245.867943 460.8 
L 245.867943 86.4 
" clip-path="url(#pc4ee99fd03)" style="fill: none; stroke: #cccccc; stroke-linecap: round"/>
     </g>
     <g id="text_5">
      <!-- 10.0 -->
      <g style="fill: #262626" transform="translate(233.621849 478.658281) scale(0.11 -0.11)">
       <defs>
        <path id="DejaVuSans-31" d="M 794 531 
L 1825 531 
L 1825 4091 
L 703 3866 
L 703 4441 
L 1819 4666 
L 2450 4666 
L 2450 531 
L 3481 531 
L 3481 0 
L 794 0 
L 794 531 
z
" transform="scale(0.015625)"/>
       </defs>
       <use xlink:href="#DejaVuSans-31"/>
       <use xlink:href="#DejaVuSans-30" transform="translate(63.623047 0)"/>
       <use xlink:href="#DejaVuSans-2e" transform="translate(127.246094 0)"/>
       <use xlink:href="#DejaVuSans-30" transform="translate(159.033203 0)"/>
      </g>
     </g>
    </g>
    <g id="xtick_6">
     <g id="line2d_6">
      <path d="M 287.207656 460.8 
L 287.207656 86.4 
" clip-path="url(#pc4ee99fd03)" style="fill: none; stroke: #cccccc; stroke-linecap: round"/>
     </g>
     <g id="text_6">
      <!-- 12.5 -->
      <g style="fill: #262626" transform="translate(274.961562 478.658281) scale(0.11 -0.11)">
       <use xlink:href="#DejaVuSans-31"/>
       <use xlink:href="#DejaVuSans-32" transform="translate(63.623047 0)"/>
       <use xlink:href="#DejaVuSans-2e" transform="translate(127.246094 0)"/>
       <use xlink:href="#DejaVuSans-35" transform="translate(159.033203 0)"/>
      </g>
     </g>
    </g>
    <g id="xtick_7">
     <g id="line2d_7">
      <path d="M 328.547368 460.8 
L 328.547368 86.4 
" clip-path="url(#pc4ee99fd03)" style="fill: none; stroke: #cccccc; stroke-linecap: round"/>
     </g>
     <g id="text_7">
      <!-- 15.0 -->
      <g style="fill: #262626" transform="translate(316.301275 478.658281) scale(0.11 -0.11)">
       <use xlink:href="#DejaVuSans-31"/>
       <use xlink:href="#DejaVuSans-35" transform="translate(63.623047 0)"/>
       <use xlink:href="#DejaVuSans-2e" transform="translate(127.246094 0)"/>
       <use xlink:href="#DejaVuSans-30" transform="translate(159.033203 0)"/>
      </g>
     </g>
    </g>
    <g id="xtick_8">
     <g id="line2d_8">
      <path d="M 369.887081 460.8 
L 369.887081 86.4 
" clip-path="url(#pc4ee99fd03)" style="fill: none; stroke: #cccccc; stroke-linecap: round"/>
     </g>
     <g id="text_8">
      <!-- 17.5 -->
      <g style="fill: #262626" transform="translate(357.640988 478.658281) scale(0.11 -0.11)">
       <use xlink:href="#DejaVuSans-31"/>
       <use xlink:href="#DejaVuSans-37" transform="translate(63.623047 0)"/>
       <use xlink:href="#DejaVuSans-2e" transform="translate(127.246094 0)"/>
       <use xlink:href="#DejaVuSans-35" transform="translate(159.033203 0)"/>
      </g>
     </g>
    </g>
   </g>
   <g id="matplotlib.axis_2">
    <g id="ytick_1">
     <g id="line2d_9">
      <path d="M 64.8 418.935222 
L 410.4 418.935222 
" clip-path="url(#pc4ee99fd03)" style="fill: none; stroke: #cccccc; stroke-linecap: round"/>
     </g>
     <g id="text_9">
      <!-- −30 -->
      <g style="fill: #262626" transform="translate(32.084844 423.114363) scale(0.11 -0.11)">
       <defs>
        <path id="DejaVuSans-2212" d="M 678 2272 
L 4684 2272 
L 4684 1741 
L 678 1741 
L 678 2272 
z
" transform="scale(0.015625)"/>
        <path id="DejaVuSans-33" d="M 2597 2516 
Q 3050 2419 3304 2112 
Q 3559 1806 3559 1356 
Q 3559 666 3084 287 
Q 2609 -91 1734 -91 
Q 1441 -91 1130 -33 
Q 819 25 488 141 
L 488 750 
Q 750 597 1062 519 
Q 1375 441 1716 441 
Q 2309 441 2620 675 
Q 2931 909 2931 1356 
Q 2931 1769 2642 2001 
Q 2353 2234 1838 2234 
L 1294 2234 
L 1294 2753 
L 1863 2753 
Q 2328 2753 2575 2939 
Q 2822 3125 2822 3475 
Q 2822 3834 2567 4026 
Q 2313 4219 1838 4219 
Q 1578 4219 1281 4162 
Q 984 4106 628 3988 
L 628 4550 
Q 988 4650 1302 4700 
Q 1616 4750 1894 4750 
Q 2613 4750 3031 4423 
Q 3450 4097 3450 3541 
Q 3450 3153 3228 2886 
Q 3006 2619 2597 2516 
z
" transform="scale(0.015625)"/>
       </defs>
       <use xlink:href="#DejaVuSans-2212"/>
       <use xlink:href="#DejaVuSans-33" transform="translate(83.789062 0)"/>
       <use xlink:href="#DejaVuSans-30" transform="translate(147.412109 0)"/>
      </g>
     </g>
    </g>
    <g id="ytick_2">
     <g id="line2d_10">
      <path d="M 64.8 351.690919 
L 410.4 351.690919 
" clip-path="url(#pc4ee99fd03)" style="fill: none; stroke: #cccccc; stroke-linecap: round"/>
     </g>
     <g id="text_10">
      <!-- −20 -->
      <g style="fill: #262626" transform="translate(32.084844 355.87006) scale(0.11 -0.11)">
       <use xlink:href="#DejaVuSans-2212"/>
       <use xlink:href="#DejaVuSans-32" transform="translate(83.789062 0)"/>
       <use xlink:href="#DejaVuSans-30" transform="translate(147.412109 0)"/>
      </g>
     </g>
    </g>
    <g id="ytick_3">
     <g id="line2d_11">
      <path d="M 64.8 284.446615 
L 410.4 284.446615 
" clip-path="url(#pc4ee99fd03)" style="fill: none; stroke: #cccccc; stroke-linecap: round"/>
     </g>
     <g id="text_11">
      <!-- −10 -->
      <g style="fill: #262626" transform="translate(32.084844 288.625756) scale(0.11 -0.11)">
       <use xlink:href="#DejaVuSans-2212"/>
       <use xlink:href="#DejaVuSans-31" transform="translate(83.789062 0)"/>
       <use xlink:href="#DejaVuSans-30" transform="translate(147.412109 0)"/>
      </g>
     </g>
    </g>
    <g id="ytick_4">
     <g id="line2d_12">
      <path d="M 64.8 217.202312 
L 410.4 217.202312 
" clip-path="url(#pc4ee99fd03)" style="fill: none; stroke: #cccccc; stroke-linecap: round"/>
     </g>
     <g id="text_12">
      <!-- 0 -->
      <g style="fill: #262626" transform="translate(48.30125 221.381452) scale(0.11 -0.11)">
       <use xlink:href="#DejaVuSans-30"/>
      </g>
     </g>
    </g>
    <g id="ytick_5">
     <g id="line2d_13">
      <path d="M 64.8 149.958008 
L 410.4 149.958008 
" clip-path="url(#pc4ee99fd03)" style="fill: none; stroke: #cccccc; stroke-linecap: round"/>
     </g>
     <g id="text_13">
      <!-- 10 -->
      <g style="fill: #262626" transform="translate(41.3025 154.137149) scale(0.11 -0.11)">
       <use xlink:href="#DejaVuSans-31"/>
       <use xlink:href="#DejaVuSans-30" transform="translate(63.623047 0)"/>
      </g>
     </g>
    </g>
   </g>
   <g id="line2d_14">
    <path d="M 80.509091 443.781818 
L 97.044976 428.619816 
L 113.580861 376.230845 
L 130.116746 312.603545 
L 146.652632 255.669211 
L 163.188517 225.481494 
L 179.724402 199.063639 
L 196.260287 187.49584 
L 212.796172 187.397305 
L 229.332057 183.99797 
L 245.867943 177.662647 
L 262.403828 177.24858 
L 278.939713 178.034642 
L 295.475598 176.229068 
L 312.011483 179.903294 
L 328.547368 175.258515 
L 345.083254 181.712008 
L 361.619139 177.67396 
L 378.155024 223.758646 
L 394.690909 264.389845 
" clip-path="url(#pc4ee99fd03)" style="fill: none; stroke: #fc8d62; stroke-width: 1.5; stroke-linecap: round"/>
   </g>
   <g id="line2d_15">
    <path d="M 80.509091 443.781818 
L 97.044976 428.619816 
L 113.580861 376.230845 
L 130.116746 312.603545 
L 146.652632 255.669211 
L 163.188517 225.481494 
L 179.724402 199.063639 
L 196.260287 187.49584 
L 212.796172 187.397305 
L 229.332057 183.99797 
L 245.867943 177.662647 
L 262.403828 177.24858 
L 278.939713 178.034642 
L 295.475598 176.229068 
L 312.011483 179.903294 
L 328.547368 175.258515 
L 345.083254 181.712008 
L 361.619139 177.67396 
L 378.155024 223.758646 
L 394.690909 264.389845 
" clip-path="url(#pc4ee99fd03)" style="fill: none; stroke: #fc8d62; stroke-width: 1.5; stroke-linecap: round"/>
    <defs>
     <path id="mc5b8ca358f" d="M 0 3 
C 0.795609 3 1.55874 2.683901 2.12132 2.12132 
C 2.683901 1.55874 3 0.795609 3 0 
C 3 -0.795609 2.683901 -1.55874 2.12132 -2.12132 
C 1.55874 -2.683901 0.795609 -3 0 -3 
C -0.795609 -3 -1.55874 -2.683901 -2.12132 -2.12132 
C -2.683901 -1.55874 -3 -0.795609 -3 0 
C -3 0.795609 -2.683901 1.55874 -2.12132 2.12132 
C -1.55874 2.683901 -0.795609 3 0 3 
z
" style="stroke: #fc8d62"/>
    </defs>
    <g clip-path="url(#pc4ee99fd03)">
     <use xlink:href="#mc5b8ca358f" x="80.509091" y="443.781818" style="fill: #fc8d62; stroke: #fc8d62"/>
     <use xlink:href="#mc5b8ca358f" x="97.044976" y="428.619816" style="fill: #fc8d62; stroke: #fc8d62"/>
     <use xlink:href="#mc5b8ca358f" x="113.580861" y="376.230845" style="fill: #fc8d62; stroke: #fc8d62"/>
     <use xlink:href="#mc5b8ca358f" x="130.116746" y="312.603545" style="fill: #fc8d62; stroke: #fc8d62"/>
     <use xlink:href="#mc5b8ca358f" x="146.652632" y="255.669211" style="fill: #fc8d62; stroke: #fc8d62"/>
     <use xlink:href="#mc5b8ca358f" x="163.188517" y="225.481494" style="fill: #fc8d62; stroke: #fc8d62"/>
     <use xlink:href="#mc5b8ca358f" x="179.724402" y="199.063639" style="fill: #fc8d62; stroke: #fc8d62"/>
     <use xlink:href="#mc5b8ca358f" x="196.260287" y="187.49584" style="fill: #fc8d62; stroke: #fc8d62"/>
     <use xlink:href="#mc5b8ca358f" x="212.796172" y="187.397305" style="fill: #fc8d62; stroke: #fc8d62"/>
     <use xlink:href="#mc5b8ca358f" x="229.332057" y="183.99797" style="fill: #fc8d62; stroke: #fc8d62"/>
     <use xlink:href="#mc5b8ca358f" x="245.867943" y="177.662647" style="fill: #fc8d62; stroke: #fc8d62"/>
     <use xlink:href="#mc5b8ca358f" x="262.403828" y="177.24858" style="fill: #fc8d62; stroke: #fc8d62"/>
     <use xlink:href="#mc5b8ca358f" x="278.939713" y="178.034642" style="fill: #fc8d62; stroke: #fc8d62"/>
     <use xlink:href="#mc5b8ca358f" x="295.475598" y="176.229068" style="fill: #fc8d62; stroke: #fc8d62"/>
     <use xlink:href="#mc5b8ca358f" x="312.011483" y="179.903294" style="fill: #fc8d62; stroke: #fc8d62"/>
     <use xlink:href="#mc5b8ca358f" x="328.547368" y="175.258515" style="fill: #fc8d62; stroke: #fc8d62"/>
     <use xlink:href="#mc5b8ca358f" x="345.083254" y="181.712008" style="fill: #fc8d62; stroke: #fc8d62"/>
     <use xlink:href="#mc5b8ca358f" x="361.619139" y="177.67396" style="fill: #fc8d62; stroke: #fc8d62"/>
     <use xlink:href="#mc5b8ca358f" x="378.155024" y="223.758646" style="fill: #fc8d62; stroke: #fc8d62"/>
     <use xlink:href="#mc5b8ca358f" x="394.690909" y="264.389845" style="fill: #fc8d62; stroke: #fc8d62"/>
    </g>
   </g>
   <g id="line2d_16">
    <path d="M 80.509091 314.301267 
L 97.044976 311.715656 
L 113.580861 303.508333 
L 130.116746 263.272518 
L 146.652632 218.934941 
L 163.188517 194.246449 
L 179.724402 187.214196 
L 196.260287 181.646282 
L 212.796172 175.662 
L 229.332057 179.712284 
L 245.867943 175.197353 
L 262.403828 173.726934 
L 278.939713 174.988459 
L 295.475598 175.125513 
L 312.011483 218.357155 
L 328.547368 256.375882 
L 345.083254 295.090446 
L 361.619139 307.902991 
L 378.155024 312.243339 
L 394.690909 309.847615 
" clip-path="url(#pc4ee99fd03)" style="fill: none; stroke: #fc8d62; stroke-width: 1.5; stroke-linecap: round"/>
   </g>
   <g id="line2d_17">
    <path d="M 80.509091 314.301267 
L 97.044976 311.715656 
L 113.580861 303.508333 
L 130.116746 263.272518 
L 146.652632 218.934941 
L 163.188517 194.246449 
L 179.724402 187.214196 
L 196.260287 181.646282 
L 212.796172 175.662 
L 229.332057 179.712284 
L 245.867943 175.197353 
L 262.403828 173.726934 
L 278.939713 174.988459 
L 295.475598 175.125513 
L 312.011483 218.357155 
L 328.547368 256.375882 
L 345.083254 295.090446 
L 361.619139 307.902991 
L 378.155024 312.243339 
L 394.690909 309.847615 
" clip-path="url(#pc4ee99fd03)" style="fill: none; stroke: #fc8d62; stroke-width: 1.5; stroke-linecap: round"/>
    <g clip-path="url(#pc4ee99fd03)">
     <use xlink:href="#mc5b8ca358f" x="80.509091" y="314.301267" style="fill: #fc8d62; stroke: #fc8d62"/>
     <use xlink:href="#mc5b8ca358f" x="97.044976" y="311.715656" style="fill: #fc8d62; stroke: #fc8d62"/>
     <use xlink:href="#mc5b8ca358f" x="113.580861" y="303.508333" style="fill: #fc8d62; stroke: #fc8d62"/>
     <use xlink:href="#mc5b8ca358f" x="130.116746" y="263.272518" style="fill: #fc8d62; stroke: #fc8d62"/>
     <use xlink:href="#mc5b8ca358f" x="146.652632" y="218.934941" style="fill: #fc8d62; stroke: #fc8d62"/>
     <use xlink:href="#mc5b8ca358f" x="163.188517" y="194.246449" style="fill: #fc8d62; stroke: #fc8d62"/>
     <use xlink:href="#mc5b8ca358f" x="179.724402" y="187.214196" style="fill: #fc8d62; stroke: #fc8d62"/>
     <use xlink:href="#mc5b8ca358f" x="196.260287" y="181.646282" style="fill: #fc8d62; stroke: #fc8d62"/>
     <use xlink:href="#mc5b8ca358f" x="212.796172" y="175.662" style="fill: #fc8d62; stroke: #fc8d62"/>
     <use xlink:href="#mc5b8ca358f" x="229.332057" y="179.712284" style="fill: #fc8d62; stroke: #fc8d62"/>
     <use xlink:href="#mc5b8ca358f" x="245.867943" y="175.197353" style="fill: #fc8d62; stroke: #fc8d62"/>
     <use xlink:href="#mc5b8ca358f" x="262.403828" y="173.726934" style="fill: #fc8d62; stroke: #fc8d62"/>
     <use xlink:href="#mc5b8ca358f" x="278.939713" y="174.988459" style="fill: #fc8d62; stroke: #fc8d62"/>
     <use xlink:href="#mc5b8ca358f" x="295.475598" y="175.125513" style="fill: #fc8d62; stroke: #fc8d62"/>
     <use xlink:href="#mc5b8ca358f" x="312.011483" y="218.357155" style="fill: #fc8d62; stroke: #fc8d62"/>
     <use xlink:href="#mc5b8ca358f" x="328.547368" y="256.375882" style="fill: #fc8d62; stroke: #fc8d62"/>
     <use xlink:href="#mc5b8ca358f" x="345.083254" y="295.090446" style="fill: #fc8d62; stroke: #fc8d62"/>
     <use xlink:href="#mc5b8ca358f" x="361.619139" y="307.902991" style="fill: #fc8d62; stroke: #fc8d62"/>
     <use xlink:href="#mc5b8ca358f" x="378.155024" y="312.243339" style="fill: #fc8d62; stroke: #fc8d62"/>
     <use xlink:href="#mc5b8ca358f" x="394.690909" y="309.847615" style="fill: #fc8d62; stroke: #fc8d62"/>
    </g>
   </g>
   <g id="line2d_18">
    <path d="M 80.509091 314.814813 
L 97.044976 317.916293 
L 113.580861 318.786104 
L 130.116746 305.249323 
L 146.652632 251.849418 
L 163.188517 203.939597 
L 179.724402 190.160775 
L 196.260287 182.132057 
L 212.796172 180.411049 
L 229.332057 178.872768 
L 245.867943 178.841444 
L 262.403828 181.990403 
L 278.939713 179.901065 
L 295.475598 183.436551 
L 312.011483 184.386995 
L 328.547368 183.464172 
L 345.083254 182.429435 
L 361.619139 183.029918 
L 378.155024 225.378166 
L 394.690909 278.24121 
" clip-path="url(#pc4ee99fd03)" style="fill: none; stroke: #fc8d62; stroke-width: 1.5; stroke-linecap: round"/>
   </g>
   <g id="line2d_19">
    <path d="M 80.509091 314.814813 
L 97.044976 317.916293 
L 113.580861 318.786104 
L 130.116746 305.249323 
L 146.652632 251.849418 
L 163.188517 203.939597 
L 179.724402 190.160775 
L 196.260287 182.132057 
L 212.796172 180.411049 
L 229.332057 178.872768 
L 245.867943 178.841444 
L 262.403828 181.990403 
L 278.939713 179.901065 
L 295.475598 183.436551 
L 312.011483 184.386995 
L 328.547368 183.464172 
L 345.083254 182.429435 
L 361.619139 183.029918 
L 378.155024 225.378166 
L 394.690909 278.24121 
" clip-path="url(#pc4ee99fd03)" style="fill: none; stroke: #fc8d62; stroke-width: 1.5; stroke-linecap: round"/>
    <g clip-path="url(#pc4ee99fd03)">
     <use xlink:href="#mc5b8ca358f" x="80.509091" y="314.814813" style="fill: #fc8d62; stroke: #fc8d62"/>
     <use xlink:href="#mc5b8ca358f" x="97.044976" y="317.916293" style="fill: #fc8d62; stroke: #fc8d62"/>
     <use xlink:href="#mc5b8ca358f" x="113.580861" y="318.786104" style="fill: #fc8d62; stroke: #fc8d62"/>
     <use xlink:href="#mc5b8ca358f" x="130.116746" y="305.249323" style="fill: #fc8d62; stroke: #fc8d62"/>
     <use xlink:href="#mc5b8ca358f" x="146.652632" y="251.849418" style="fill: #fc8d62; stroke: #fc8d62"/>
     <use xlink:href="#mc5b8ca358f" x="163.188517" y="203.939597" style="fill: #fc8d62; stroke: #fc8d62"/>
     <use xlink:href="#mc5b8ca358f" x="179.724402" y="190.160775" style="fill: #fc8d62; stroke: #fc8d62"/>
     <use xlink:href="#mc5b8ca358f" x="196.260287" y="182.132057" style="fill: #fc8d62; stroke: #fc8d62"/>
     <use xlink:href="#mc5b8ca358f" x="212.796172" y="180.411049" style="fill: #fc8d62; stroke: #fc8d62"/>
     <use xlink:href="#mc5b8ca358f" x="229.332057" y="178.872768" style="fill: #fc8d62; stroke: #fc8d62"/>
     <use xlink:href="#mc5b8ca358f" x="245.867943" y="178.841444" style="fill: #fc8d62; stroke: #fc8d62"/>
     <use xlink:href="#mc5b8ca358f" x="262.403828" y="181.990403" style="fill: #fc8d62; stroke: #fc8d62"/>
     <use xlink:href="#mc5b8ca358f" x="278.939713" y="179.901065" style="fill: #fc8d62; stroke: #fc8d62"/>
     <use xlink:href="#mc5b8ca358f" x="295.475598" y="183.436551" style="fill: #fc8d62; stroke: #fc8d62"/>
     <use xlink:href="#mc5b8ca358f" x="312.011483" y="184.386995" style="fill: #fc8d62; stroke: #fc8d62"/>
     <use xlink:href="#mc5b8ca358f" x="328.547368" y="183.464172" style="fill: #fc8d62; stroke: #fc8d62"/>
     <use xlink:href="#mc5b8ca358f" x="345.083254" y="182.429435" style="fill: #fc8d62; stroke: #fc8d62"/>
     <use xlink:href="#mc5b8ca358f" x="361.619139" y="183.029918" style="fill: #fc8d62; stroke: #fc8d62"/>
     <use xlink:href="#mc5b8ca358f" x="378.155024" y="225.378166" style="fill: #fc8d62; stroke: #fc8d62"/>
     <use xlink:href="#mc5b8ca358f" x="394.690909" y="278.24121" style="fill: #fc8d62; stroke: #fc8d62"/>
    </g>
   </g>
   <g id="line2d_20">
    <path d="M 80.509091 325.707444 
L 97.044976 324.584904 
L 113.580861 321.959395 
L 130.116746 315.974111 
L 146.652632 285.738337 
L 163.188517 246.635587 
L 179.724402 221.189239 
L 196.260287 202.199038 
L 212.796172 198.773723 
L 229.332057 195.544196 
L 245.867943 189.079657 
L 262.403828 191.235237 
L 278.939713 188.864288 
L 295.475598 191.667188 
L 312.011483 191.846224 
L 328.547368 189.640749 
L 345.083254 188.047387 
L 361.619139 227.446328 
L 378.155024 261.060469 
L 394.690909 291.895166 
" clip-path="url(#pc4ee99fd03)" style="fill: none; stroke: #fc8d62; stroke-width: 1.5; stroke-linecap: round"/>
   </g>
   <g id="line2d_21">
    <path d="M 80.509091 325.707444 
L 97.044976 324.584904 
L 113.580861 321.959395 
L 130.116746 315.974111 
L 146.652632 285.738337 
L 163.188517 246.635587 
L 179.724402 221.189239 
L 196.260287 202.199038 
L 212.796172 198.773723 
L 229.332057 195.544196 
L 245.867943 189.079657 
L 262.403828 191.235237 
L 278.939713 188.864288 
L 295.475598 191.667188 
L 312.011483 191.846224 
L 328.547368 189.640749 
L 345.083254 188.047387 
L 361.619139 227.446328 
L 378.155024 261.060469 
L 394.690909 291.895166 
" clip-path="url(#pc4ee99fd03)" style="fill: none; stroke: #fc8d62; stroke-width: 1.5; stroke-linecap: round"/>
    <g clip-path="url(#pc4ee99fd03)">
     <use xlink:href="#mc5b8ca358f" x="80.509091" y="325.707444" style="fill: #fc8d62; stroke: #fc8d62"/>
     <use xlink:href="#mc5b8ca358f" x="97.044976" y="324.584904" style="fill: #fc8d62; stroke: #fc8d62"/>
     <use xlink:href="#mc5b8ca358f" x="113.580861" y="321.959395" style="fill: #fc8d62; stroke: #fc8d62"/>
     <use xlink:href="#mc5b8ca358f" x="130.116746" y="315.974111" style="fill: #fc8d62; stroke: #fc8d62"/>
     <use xlink:href="#mc5b8ca358f" x="146.652632" y="285.738337" style="fill: #fc8d62; stroke: #fc8d62"/>
     <use xlink:href="#mc5b8ca358f" x="163.188517" y="246.635587" style="fill: #fc8d62; stroke: #fc8d62"/>
     <use xlink:href="#mc5b8ca358f" x="179.724402" y="221.189239" style="fill: #fc8d62; stroke: #fc8d62"/>
     <use xlink:href="#mc5b8ca358f" x="196.260287" y="202.199038" style="fill: #fc8d62; stroke: #fc8d62"/>
     <use xlink:href="#mc5b8ca358f" x="212.796172" y="198.773723" style="fill: #fc8d62; stroke: #fc8d62"/>
     <use xlink:href="#mc5b8ca358f" x="229.332057" y="195.544196" style="fill: #fc8d62; stroke: #fc8d62"/>
     <use xlink:href="#mc5b8ca358f" x="245.867943" y="189.079657" style="fill: #fc8d62; stroke: #fc8d62"/>
     <use xlink:href="#mc5b8ca358f" x="262.403828" y="191.235237" style="fill: #fc8d62; stroke: #fc8d62"/>
     <use xlink:href="#mc5b8ca358f" x="278.939713" y="188.864288" style="fill: #fc8d62; stroke: #fc8d62"/>
     <use xlink:href="#mc5b8ca358f" x="295.475598" y="191.667188" style="fill: #fc8d62; stroke: #fc8d62"/>
     <use xlink:href="#mc5b8ca358f" x="312.011483" y="191.846224" style="fill: #fc8d62; stroke: #fc8d62"/>
     <use xlink:href="#mc5b8ca358f" x="328.547368" y="189.640749" style="fill: #fc8d62; stroke: #fc8d62"/>
     <use xlink:href="#mc5b8ca358f" x="345.083254" y="188.047387" style="fill: #fc8d62; stroke: #fc8d62"/>
     <use xlink:href="#mc5b8ca358f" x="361.619139" y="227.446328" style="fill: #fc8d62; stroke: #fc8d62"/>
     <use xlink:href="#mc5b8ca358f" x="378.155024" y="261.060469" style="fill: #fc8d62; stroke: #fc8d62"/>
     <use xlink:href="#mc5b8ca358f" x="394.690909" y="291.895166" style="fill: #fc8d62; stroke: #fc8d62"/>
    </g>
   </g>
   <g id="line2d_22">
    <path d="M 80.509091 326.290965 
L 97.044976 330.212051 
L 113.580861 327.301135 
L 130.116746 329.649029 
L 146.652632 321.618067 
L 163.188517 284.721806 
L 179.724402 236.996654 
L 196.260287 216.304533 
L 212.796172 201.060818 
L 229.332057 195.749973 
L 245.867943 195.920471 
L 262.403828 198.390487 
L 278.939713 196.553968 
L 295.475598 195.81338 
L 312.011483 194.777244 
L 328.547368 195.868895 
L 345.083254 196.234842 
L 361.619139 193.536781 
L 378.155024 238.64624 
L 394.690909 290.495784 
" clip-path="url(#pc4ee99fd03)" style="fill: none; stroke: #fc8d62; stroke-width: 1.5; stroke-linecap: round"/>
   </g>
   <g id="line2d_23">
    <path d="M 80.509091 326.290965 
L 97.044976 330.212051 
L 113.580861 327.301135 
L 130.116746 329.649029 
L 146.652632 321.618067 
L 163.188517 284.721806 
L 179.724402 236.996654 
L 196.260287 216.304533 
L 212.796172 201.060818 
L 229.332057 195.749973 
L 245.867943 195.920471 
L 262.403828 198.390487 
L 278.939713 196.553968 
L 295.475598 195.81338 
L 312.011483 194.777244 
L 328.547368 195.868895 
L 345.083254 196.234842 
L 361.619139 193.536781 
L 378.155024 238.64624 
L 394.690909 290.495784 
" clip-path="url(#pc4ee99fd03)" style="fill: none; stroke: #fc8d62; stroke-width: 1.5; stroke-linecap: round"/>
    <g clip-path="url(#pc4ee99fd03)">
     <use xlink:href="#mc5b8ca358f" x="80.509091" y="326.290965" style="fill: #fc8d62; stroke: #fc8d62"/>
     <use xlink:href="#mc5b8ca358f" x="97.044976" y="330.212051" style="fill: #fc8d62; stroke: #fc8d62"/>
     <use xlink:href="#mc5b8ca358f" x="113.580861" y="327.301135" style="fill: #fc8d62; stroke: #fc8d62"/>
     <use xlink:href="#mc5b8ca358f" x="130.116746" y="329.649029" style="fill: #fc8d62; stroke: #fc8d62"/>
     <use xlink:href="#mc5b8ca358f" x="146.652632" y="321.618067" style="fill: #fc8d62; stroke: #fc8d62"/>
     <use xlink:href="#mc5b8ca358f" x="163.188517" y="284.721806" style="fill: #fc8d62; stroke: #fc8d62"/>
     <use xlink:href="#mc5b8ca358f" x="179.724402" y="236.996654" style="fill: #fc8d62; stroke: #fc8d62"/>
     <use xlink:href="#mc5b8ca358f" x="196.260287" y="216.304533" style="fill: #fc8d62; stroke: #fc8d62"/>
     <use xlink:href="#mc5b8ca358f" x="212.796172" y="201.060818" style="fill: #fc8d62; stroke: #fc8d62"/>
     <use xlink:href="#mc5b8ca358f" x="229.332057" y="195.749973" style="fill: #fc8d62; stroke: #fc8d62"/>
     <use xlink:href="#mc5b8ca358f" x="245.867943" y="195.920471" style="fill: #fc8d62; stroke: #fc8d62"/>
     <use xlink:href="#mc5b8ca358f" x="262.403828" y="198.390487" style="fill: #fc8d62; stroke: #fc8d62"/>
     <use xlink:href="#mc5b8ca358f" x="278.939713" y="196.553968" style="fill: #fc8d62; stroke: #fc8d62"/>
     <use xlink:href="#mc5b8ca358f" x="295.475598" y="195.81338" style="fill: #fc8d62; stroke: #fc8d62"/>
     <use xlink:href="#mc5b8ca358f" x="312.011483" y="194.777244" style="fill: #fc8d62; stroke: #fc8d62"/>
     <use xlink:href="#mc5b8ca358f" x="328.547368" y="195.868895" style="fill: #fc8d62; stroke: #fc8d62"/>
     <use xlink:href="#mc5b8ca358f" x="345.083254" y="196.234842" style="fill: #fc8d62; stroke: #fc8d62"/>
     <use xlink:href="#mc5b8ca358f" x="361.619139" y="193.536781" style="fill: #fc8d62; stroke: #fc8d62"/>
     <use xlink:href="#mc5b8ca358f" x="378.155024" y="238.64624" style="fill: #fc8d62; stroke: #fc8d62"/>
     <use xlink:href="#mc5b8ca358f" x="394.690909" y="290.495784" style="fill: #fc8d62; stroke: #fc8d62"/>
    </g>
   </g>
   <g id="line2d_24">
    <path d="M 80.509091 236.588823 
L 97.044976 236.757549 
L 113.580861 227.708416 
L 130.116746 192.7786 
L 146.652632 174.354406 
L 163.188517 166.205992 
L 179.724402 169.908584 
L 196.260287 168.276016 
L 212.796172 167.068811 
L 229.332057 166.858452 
L 245.867943 170.302114 
L 262.403828 165.535811 
L 278.939713 169.342425 
L 295.475598 216.791017 
L 312.011483 233.339448 
L 328.547368 234.273202 
L 345.083254 234.334835 
L 361.619139 234.180545 
L 378.155024 234.318083 
L 394.690909 232.006238 
" clip-path="url(#pc4ee99fd03)" style="fill: none; stroke: #fc8d62; stroke-width: 1.5; stroke-linecap: round"/>
   </g>
   <g id="line2d_25">
    <path d="M 80.509091 236.588823 
L 97.044976 236.757549 
L 113.580861 227.708416 
L 130.116746 192.7786 
L 146.652632 174.354406 
L 163.188517 166.205992 
L 179.724402 169.908584 
L 196.260287 168.276016 
L 212.796172 167.068811 
L 229.332057 166.858452 
L 245.867943 170.302114 
L 262.403828 165.535811 
L 278.939713 169.342425 
L 295.475598 216.791017 
L 312.011483 233.339448 
L 328.547368 234.273202 
L 345.083254 234.334835 
L 361.619139 234.180545 
L 378.155024 234.318083 
L 394.690909 232.006238 
" clip-path="url(#pc4ee99fd03)" style="fill: none; stroke: #fc8d62; stroke-width: 1.5; stroke-linecap: round"/>
    <g clip-path="url(#pc4ee99fd03)">
     <use xlink:href="#mc5b8ca358f" x="80.509091" y="236.588823" style="fill: #fc8d62; stroke: #fc8d62"/>
     <use xlink:href="#mc5b8ca358f" x="97.044976" y="236.757549" style="fill: #fc8d62; stroke: #fc8d62"/>
     <use xlink:href="#mc5b8ca358f" x="113.580861" y="227.708416" style="fill: #fc8d62; stroke: #fc8d62"/>
     <use xlink:href="#mc5b8ca358f" x="130.116746" y="192.7786" style="fill: #fc8d62; stroke: #fc8d62"/>
     <use xlink:href="#mc5b8ca358f" x="146.652632" y="174.354406" style="fill: #fc8d62; stroke: #fc8d62"/>
     <use xlink:href="#mc5b8ca358f" x="163.188517" y="166.205992" style="fill: #fc8d62; stroke: #fc8d62"/>
     <use xlink:href="#mc5b8ca358f" x="179.724402" y="169.908584" style="fill: #fc8d62; stroke: #fc8d62"/>
     <use xlink:href="#mc5b8ca358f" x="196.260287" y="168.276016" style="fill: #fc8d62; stroke: #fc8d62"/>
     <use xlink:href="#mc5b8ca358f" x="212.796172" y="167.068811" style="fill: #fc8d62; stroke: #fc8d62"/>
     <use xlink:href="#mc5b8ca358f" x="229.332057" y="166.858452" style="fill: #fc8d62; stroke: #fc8d62"/>
     <use xlink:href="#mc5b8ca358f" x="245.867943" y="170.302114" style="fill: #fc8d62; stroke: #fc8d62"/>
     <use xlink:href="#mc5b8ca358f" x="262.403828" y="165.535811" style="fill: #fc8d62; stroke: #fc8d62"/>
     <use xlink:href="#mc5b8ca358f" x="278.939713" y="169.342425" style="fill: #fc8d62; stroke: #fc8d62"/>
     <use xlink:href="#mc5b8ca358f" x="295.475598" y="216.791017" style="fill: #fc8d62; stroke: #fc8d62"/>
     <use xlink:href="#mc5b8ca358f" x="312.011483" y="233.339448" style="fill: #fc8d62; stroke: #fc8d62"/>
     <use xlink:href="#mc5b8ca358f" x="328.547368" y="234.273202" style="fill: #fc8d62; stroke: #fc8d62"/>
     <use xlink:href="#mc5b8ca358f" x="345.083254" y="234.334835" style="fill: #fc8d62; stroke: #fc8d62"/>
     <use xlink:href="#mc5b8ca358f" x="361.619139" y="234.180545" style="fill: #fc8d62; stroke: #fc8d62"/>
     <use xlink:href="#mc5b8ca358f" x="378.155024" y="234.318083" style="fill: #fc8d62; stroke: #fc8d62"/>
     <use xlink:href="#mc5b8ca358f" x="394.690909" y="232.006238" style="fill: #fc8d62; stroke: #fc8d62"/>
    </g>
   </g>
   <g id="line2d_26">
    <path d="M 80.509091 254.109257 
L 97.044976 249.912732 
L 113.580861 250.792548 
L 130.116746 247.60142 
L 146.652632 248.723408 
L 163.188517 248.393409 
L 179.724402 209.564944 
L 196.260287 188.682629 
L 212.796172 186.756424 
L 229.332057 182.555543 
L 245.867943 183.310532 
L 262.403828 183.98801 
L 278.939713 182.737247 
L 295.475598 183.736743 
L 312.011483 181.636611 
L 328.547368 181.997732 
L 345.083254 181.780312 
L 361.619139 184.430536 
L 378.155024 240.754531 
L 394.690909 247.601639 
" clip-path="url(#pc4ee99fd03)" style="fill: none; stroke: #fc8d62; stroke-width: 1.5; stroke-linecap: round"/>
   </g>
   <g id="line2d_27">
    <path d="M 80.509091 254.109257 
L 97.044976 249.912732 
L 113.580861 250.792548 
L 130.116746 247.60142 
L 146.652632 248.723408 
L 163.188517 248.393409 
L 179.724402 209.564944 
L 196.260287 188.682629 
L 212.796172 186.756424 
L 229.332057 182.555543 
L 245.867943 183.310532 
L 262.403828 183.98801 
L 278.939713 182.737247 
L 295.475598 183.736743 
L 312.011483 181.636611 
L 328.547368 181.997732 
L 345.083254 181.780312 
L 361.619139 184.430536 
L 378.155024 240.754531 
L 394.690909 247.601639 
" clip-path="url(#pc4ee99fd03)" style="fill: none; stroke: #fc8d62; stroke-width: 1.5; stroke-linecap: round"/>
    <g clip-path="url(#pc4ee99fd03)">
     <use xlink:href="#mc5b8ca358f" x="80.509091" y="254.109257" style="fill: #fc8d62; stroke: #fc8d62"/>
     <use xlink:href="#mc5b8ca358f" x="97.044976" y="249.912732" style="fill: #fc8d62; stroke: #fc8d62"/>
     <use xlink:href="#mc5b8ca358f" x="113.580861" y="250.792548" style="fill: #fc8d62; stroke: #fc8d62"/>
     <use xlink:href="#mc5b8ca358f" x="130.116746" y="247.60142" style="fill: #fc8d62; stroke: #fc8d62"/>
     <use xlink:href="#mc5b8ca358f" x="146.652632" y="248.723408" style="fill: #fc8d62; stroke: #fc8d62"/>
     <use xlink:href="#mc5b8ca358f" x="163.188517" y="248.393409" style="fill: #fc8d62; stroke: #fc8d62"/>
     <use xlink:href="#mc5b8ca358f" x="179.724402" y="209.564944" style="fill: #fc8d62; stroke: #fc8d62"/>
     <use xlink:href="#mc5b8ca358f" x="196.260287" y="188.682629" style="fill: #fc8d62; stroke: #fc8d62"/>
     <use xlink:href="#mc5b8ca358f" x="212.796172" y="186.756424" style="fill: #fc8d62; stroke: #fc8d62"/>
     <use xlink:href="#mc5b8ca358f" x="229.332057" y="182.555543" style="fill: #fc8d62; stroke: #fc8d62"/>
     <use xlink:href="#mc5b8ca358f" x="245.867943" y="183.310532" style="fill: #fc8d62; stroke: #fc8d62"/>
     <use xlink:href="#mc5b8ca358f" x="262.403828" y="183.98801" style="fill: #fc8d62; stroke: #fc8d62"/>
     <use xlink:href="#mc5b8ca358f" x="278.939713" y="182.737247" style="fill: #fc8d62; stroke: #fc8d62"/>
     <use xlink:href="#mc5b8ca358f" x="295.475598" y="183.736743" style="fill: #fc8d62; stroke: #fc8d62"/>
     <use xlink:href="#mc5b8ca358f" x="312.011483" y="181.636611" style="fill: #fc8d62; stroke: #fc8d62"/>
     <use xlink:href="#mc5b8ca358f" x="328.547368" y="181.997732" style="fill: #fc8d62; stroke: #fc8d62"/>
     <use xlink:href="#mc5b8ca358f" x="345.083254" y="181.780312" style="fill: #fc8d62; stroke: #fc8d62"/>
     <use xlink:href="#mc5b8ca358f" x="361.619139" y="184.430536" style="fill: #fc8d62; stroke: #fc8d62"/>
     <use xlink:href="#mc5b8ca358f" x="378.155024" y="240.754531" style="fill: #fc8d62; stroke: #fc8d62"/>
     <use xlink:href="#mc5b8ca358f" x="394.690909" y="247.601639" style="fill: #fc8d62; stroke: #fc8d62"/>
    </g>
   </g>
   <g id="line2d_28">
    <path d="M 80.509091 286.469277 
L 97.044976 276.290502 
L 113.580861 226.516758 
L 130.116746 173.617832 
L 146.652632 142.717313 
L 163.188517 127.964499 
L 179.724402 121.217141 
L 196.260287 125.537165 
L 212.796172 121.318605 
L 229.332057 123.973281 
L 245.867943 121.407395 
L 262.403828 124.019828 
L 278.939713 119.813236 
L 295.475598 118.169029 
L 312.011483 120.698654 
L 328.547368 189.74632 
L 345.083254 256.742687 
L 361.619139 291.181534 
L 378.155024 286.262787 
L 394.690909 289.507228 
" clip-path="url(#pc4ee99fd03)" style="fill: none; stroke: #fc8d62; stroke-width: 1.5; stroke-linecap: round"/>
   </g>
   <g id="line2d_29">
    <path d="M 80.509091 286.469277 
L 97.044976 276.290502 
L 113.580861 226.516758 
L 130.116746 173.617832 
L 146.652632 142.717313 
L 163.188517 127.964499 
L 179.724402 121.217141 
L 196.260287 125.537165 
L 212.796172 121.318605 
L 229.332057 123.973281 
L 245.867943 121.407395 
L 262.403828 124.019828 
L 278.939713 119.813236 
L 295.475598 118.169029 
L 312.011483 120.698654 
L 328.547368 189.74632 
L 345.083254 256.742687 
L 361.619139 291.181534 
L 378.155024 286.262787 
L 394.690909 289.507228 
" clip-path="url(#pc4ee99fd03)" style="fill: none; stroke: #fc8d62; stroke-width: 1.5; stroke-linecap: round"/>
    <g clip-path="url(#pc4ee99fd03)">
     <use xlink:href="#mc5b8ca358f" x="80.509091" y="286.469277" style="fill: #fc8d62; stroke: #fc8d62"/>
     <use xlink:href="#mc5b8ca358f" x="97.044976" y="276.290502" style="fill: #fc8d62; stroke: #fc8d62"/>
     <use xlink:href="#mc5b8ca358f" x="113.580861" y="226.516758" style="fill: #fc8d62; stroke: #fc8d62"/>
     <use xlink:href="#mc5b8ca358f" x="130.116746" y="173.617832" style="fill: #fc8d62; stroke: #fc8d62"/>
     <use xlink:href="#mc5b8ca358f" x="146.652632" y="142.717313" style="fill: #fc8d62; stroke: #fc8d62"/>
     <use xlink:href="#mc5b8ca358f" x="163.188517" y="127.964499" style="fill: #fc8d62; stroke: #fc8d62"/>
     <use xlink:href="#mc5b8ca358f" x="179.724402" y="121.217141" style="fill: #fc8d62; stroke: #fc8d62"/>
     <use xlink:href="#mc5b8ca358f" x="196.260287" y="125.537165" style="fill: #fc8d62; stroke: #fc8d62"/>
     <use xlink:href="#mc5b8ca358f" x="212.796172" y="121.318605" style="fill: #fc8d62; stroke: #fc8d62"/>
     <use xlink:href="#mc5b8ca358f" x="229.332057" y="123.973281" style="fill: #fc8d62; stroke: #fc8d62"/>
     <use xlink:href="#mc5b8ca358f" x="245.867943" y="121.407395" style="fill: #fc8d62; stroke: #fc8d62"/>
     <use xlink:href="#mc5b8ca358f" x="262.403828" y="124.019828" style="fill: #fc8d62; stroke: #fc8d62"/>
     <use xlink:href="#mc5b8ca358f" x="278.939713" y="119.813236" style="fill: #fc8d62; stroke: #fc8d62"/>
     <use xlink:href="#mc5b8ca358f" x="295.475598" y="118.169029" style="fill: #fc8d62; stroke: #fc8d62"/>
     <use xlink:href="#mc5b8ca358f" x="312.011483" y="120.698654" style="fill: #fc8d62; stroke: #fc8d62"/>
     <use xlink:href="#mc5b8ca358f" x="328.547368" y="189.74632" style="fill: #fc8d62; stroke: #fc8d62"/>
     <use xlink:href="#mc5b8ca358f" x="345.083254" y="256.742687" style="fill: #fc8d62; stroke: #fc8d62"/>
     <use xlink:href="#mc5b8ca358f" x="361.619139" y="291.181534" style="fill: #fc8d62; stroke: #fc8d62"/>
     <use xlink:href="#mc5b8ca358f" x="378.155024" y="286.262787" style="fill: #fc8d62; stroke: #fc8d62"/>
     <use xlink:href="#mc5b8ca358f" x="394.690909" y="289.507228" style="fill: #fc8d62; stroke: #fc8d62"/>
    </g>
   </g>
   <g id="line2d_30">
    <path d="M 80.509091 282.941493 
L 97.044976 284.895836 
L 113.580861 284.100953 
L 130.116746 275.018475 
L 146.652632 242.238444 
L 163.188517 203.730405 
L 179.724402 168.90855 
L 196.260287 148.628857 
L 212.796172 132.759568 
L 229.332057 122.787673 
L 245.867943 124.694632 
L 262.403828 120.544374 
L 278.939713 120.799877 
L 295.475598 117.494399 
L 312.011483 152.394689 
L 328.547368 186.240624 
L 345.083254 216.458603 
L 361.619139 254.585081 
L 378.155024 285.005806 
L 394.690909 287.542262 
" clip-path="url(#pc4ee99fd03)" style="fill: none; stroke: #fc8d62; stroke-width: 1.5; stroke-linecap: round"/>
   </g>
   <g id="line2d_31">
    <path d="M 80.509091 282.941493 
L 97.044976 284.895836 
L 113.580861 284.100953 
L 130.116746 275.018475 
L 146.652632 242.238444 
L 163.188517 203.730405 
L 179.724402 168.90855 
L 196.260287 148.628857 
L 212.796172 132.759568 
L 229.332057 122.787673 
L 245.867943 124.694632 
L 262.403828 120.544374 
L 278.939713 120.799877 
L 295.475598 117.494399 
L 312.011483 152.394689 
L 328.547368 186.240624 
L 345.083254 216.458603 
L 361.619139 254.585081 
L 378.155024 285.005806 
L 394.690909 287.542262 
" clip-path="url(#pc4ee99fd03)" style="fill: none; stroke: #fc8d62; stroke-width: 1.5; stroke-linecap: round"/>
    <g clip-path="url(#pc4ee99fd03)">
     <use xlink:href="#mc5b8ca358f" x="80.509091" y="282.941493" style="fill: #fc8d62; stroke: #fc8d62"/>
     <use xlink:href="#mc5b8ca358f" x="97.044976" y="284.895836" style="fill: #fc8d62; stroke: #fc8d62"/>
     <use xlink:href="#mc5b8ca358f" x="113.580861" y="284.100953" style="fill: #fc8d62; stroke: #fc8d62"/>
     <use xlink:href="#mc5b8ca358f" x="130.116746" y="275.018475" style="fill: #fc8d62; stroke: #fc8d62"/>
     <use xlink:href="#mc5b8ca358f" x="146.652632" y="242.238444" style="fill: #fc8d62; stroke: #fc8d62"/>
     <use xlink:href="#mc5b8ca358f" x="163.188517" y="203.730405" style="fill: #fc8d62; stroke: #fc8d62"/>
     <use xlink:href="#mc5b8ca358f" x="179.724402" y="168.90855" style="fill: #fc8d62; stroke: #fc8d62"/>
     <use xlink:href="#mc5b8ca358f" x="196.260287" y="148.628857" style="fill: #fc8d62; stroke: #fc8d62"/>
     <use xlink:href="#mc5b8ca358f" x="212.796172" y="132.759568" style="fill: #fc8d62; stroke: #fc8d62"/>
     <use xlink:href="#mc5b8ca358f" x="229.332057" y="122.787673" style="fill: #fc8d62; stroke: #fc8d62"/>
     <use xlink:href="#mc5b8ca358f" x="245.867943" y="124.694632" style="fill: #fc8d62; stroke: #fc8d62"/>
     <use xlink:href="#mc5b8ca358f" x="262.403828" y="120.544374" style="fill: #fc8d62; stroke: #fc8d62"/>
     <use xlink:href="#mc5b8ca358f" x="278.939713" y="120.799877" style="fill: #fc8d62; stroke: #fc8d62"/>
     <use xlink:href="#mc5b8ca358f" x="295.475598" y="117.494399" style="fill: #fc8d62; stroke: #fc8d62"/>
     <use xlink:href="#mc5b8ca358f" x="312.011483" y="152.394689" style="fill: #fc8d62; stroke: #fc8d62"/>
     <use xlink:href="#mc5b8ca358f" x="328.547368" y="186.240624" style="fill: #fc8d62; stroke: #fc8d62"/>
     <use xlink:href="#mc5b8ca358f" x="345.083254" y="216.458603" style="fill: #fc8d62; stroke: #fc8d62"/>
     <use xlink:href="#mc5b8ca358f" x="361.619139" y="254.585081" style="fill: #fc8d62; stroke: #fc8d62"/>
     <use xlink:href="#mc5b8ca358f" x="378.155024" y="285.005806" style="fill: #fc8d62; stroke: #fc8d62"/>
     <use xlink:href="#mc5b8ca358f" x="394.690909" y="287.542262" style="fill: #fc8d62; stroke: #fc8d62"/>
    </g>
   </g>
   <g id="line2d_32">
    <path d="M 80.509091 337.302609 
L 97.044976 341.627131 
L 113.580861 339.751303 
L 130.116746 322.107413 
L 146.652632 279.115246 
L 163.188517 217.175706 
L 179.724402 165.929558 
L 196.260287 139.904896 
L 212.796172 121.643889 
L 229.332057 110.301801 
L 245.867943 103.418182 
L 262.403828 104.002566 
L 278.939713 103.88304 
L 295.475598 105.525065 
L 312.011483 106.992156 
L 328.547368 156.918744 
L 345.083254 208.94661 
L 361.619139 260.580067 
L 378.155024 316.86851 
L 394.690909 337.266882 
" clip-path="url(#pc4ee99fd03)" style="fill: none; stroke: #fc8d62; stroke-width: 1.5; stroke-linecap: round"/>
   </g>
   <g id="line2d_33">
    <path d="M 80.509091 337.302609 
L 97.044976 341.627131 
L 113.580861 339.751303 
L 130.116746 322.107413 
L 146.652632 279.115246 
L 163.188517 217.175706 
L 179.724402 165.929558 
L 196.260287 139.904896 
L 212.796172 121.643889 
L 229.332057 110.301801 
L 245.867943 103.418182 
L 262.403828 104.002566 
L 278.939713 103.88304 
L 295.475598 105.525065 
L 312.011483 106.992156 
L 328.547368 156.918744 
L 345.083254 208.94661 
L 361.619139 260.580067 
L 378.155024 316.86851 
L 394.690909 337.266882 
" clip-path="url(#pc4ee99fd03)" style="fill: none; stroke: #fc8d62; stroke-width: 1.5; stroke-linecap: round"/>
    <g clip-path="url(#pc4ee99fd03)">
     <use xlink:href="#mc5b8ca358f" x="80.509091" y="337.302609" style="fill: #fc8d62; stroke: #fc8d62"/>
     <use xlink:href="#mc5b8ca358f" x="97.044976" y="341.627131" style="fill: #fc8d62; stroke: #fc8d62"/>
     <use xlink:href="#mc5b8ca358f" x="113.580861" y="339.751303" style="fill: #fc8d62; stroke: #fc8d62"/>
     <use xlink:href="#mc5b8ca358f" x="130.116746" y="322.107413" style="fill: #fc8d62; stroke: #fc8d62"/>
     <use xlink:href="#mc5b8ca358f" x="146.652632" y="279.115246" style="fill: #fc8d62; stroke: #fc8d62"/>
     <use xlink:href="#mc5b8ca358f" x="163.188517" y="217.175706" style="fill: #fc8d62; stroke: #fc8d62"/>
     <use xlink:href="#mc5b8ca358f" x="179.724402" y="165.929558" style="fill: #fc8d62; stroke: #fc8d62"/>
     <use xlink:href="#mc5b8ca358f" x="196.260287" y="139.904896" style="fill: #fc8d62; stroke: #fc8d62"/>
     <use xlink:href="#mc5b8ca358f" x="212.796172" y="121.643889" style="fill: #fc8d62; stroke: #fc8d62"/>
     <use xlink:href="#mc5b8ca358f" x="229.332057" y="110.301801" style="fill: #fc8d62; stroke: #fc8d62"/>
     <use xlink:href="#mc5b8ca358f" x="245.867943" y="103.418182" style="fill: #fc8d62; stroke: #fc8d62"/>
     <use xlink:href="#mc5b8ca358f" x="262.403828" y="104.002566" style="fill: #fc8d62; stroke: #fc8d62"/>
     <use xlink:href="#mc5b8ca358f" x="278.939713" y="103.88304" style="fill: #fc8d62; stroke: #fc8d62"/>
     <use xlink:href="#mc5b8ca358f" x="295.475598" y="105.525065" style="fill: #fc8d62; stroke: #fc8d62"/>
     <use xlink:href="#mc5b8ca358f" x="312.011483" y="106.992156" style="fill: #fc8d62; stroke: #fc8d62"/>
     <use xlink:href="#mc5b8ca358f" x="328.547368" y="156.918744" style="fill: #fc8d62; stroke: #fc8d62"/>
     <use xlink:href="#mc5b8ca358f" x="345.083254" y="208.94661" style="fill: #fc8d62; stroke: #fc8d62"/>
     <use xlink:href="#mc5b8ca358f" x="361.619139" y="260.580067" style="fill: #fc8d62; stroke: #fc8d62"/>
     <use xlink:href="#mc5b8ca358f" x="378.155024" y="316.86851" style="fill: #fc8d62; stroke: #fc8d62"/>
     <use xlink:href="#mc5b8ca358f" x="394.690909" y="337.266882" style="fill: #fc8d62; stroke: #fc8d62"/>
    </g>
   </g>
   <g id="line2d_34">
    <path d="M 80.509091 269.371789 
L 97.044976 261.031161 
L 113.580861 204.082819 
L 130.116746 161.359999 
L 146.652632 140.985201 
L 163.188517 136.708816 
L 179.724402 141.145406 
L 196.260287 137.421945 
L 212.796172 138.330669 
L 229.332057 140.419056 
L 245.867943 138.126154 
L 262.403828 135.670912 
L 278.939713 135.626994 
L 295.475598 138.869287 
L 312.011483 171.768694 
L 328.547368 206.73834 
L 345.083254 237.919413 
L 361.619139 273.024929 
L 378.155024 273.155727 
L 394.690909 272.752173 
" clip-path="url(#pc4ee99fd03)" style="fill: none; stroke: #fc8d62; stroke-width: 1.5; stroke-linecap: round"/>
   </g>
   <g id="line2d_35">
    <path d="M 80.509091 269.371789 
L 97.044976 261.031161 
L 113.580861 204.082819 
L 130.116746 161.359999 
L 146.652632 140.985201 
L 163.188517 136.708816 
L 179.724402 141.145406 
L 196.260287 137.421945 
L 212.796172 138.330669 
L 229.332057 140.419056 
L 245.867943 138.126154 
L 262.403828 135.670912 
L 278.939713 135.626994 
L 295.475598 138.869287 
L 312.011483 171.768694 
L 328.547368 206.73834 
L 345.083254 237.919413 
L 361.619139 273.024929 
L 378.155024 273.155727 
L 394.690909 272.752173 
" clip-path="url(#pc4ee99fd03)" style="fill: none; stroke: #fc8d62; stroke-width: 1.5; stroke-linecap: round"/>
    <g clip-path="url(#pc4ee99fd03)">
     <use xlink:href="#mc5b8ca358f" x="80.509091" y="269.371789" style="fill: #fc8d62; stroke: #fc8d62"/>
     <use xlink:href="#mc5b8ca358f" x="97.044976" y="261.031161" style="fill: #fc8d62; stroke: #fc8d62"/>
     <use xlink:href="#mc5b8ca358f" x="113.580861" y="204.082819" style="fill: #fc8d62; stroke: #fc8d62"/>
     <use xlink:href="#mc5b8ca358f" x="130.116746" y="161.359999" style="fill: #fc8d62; stroke: #fc8d62"/>
     <use xlink:href="#mc5b8ca358f" x="146.652632" y="140.985201" style="fill: #fc8d62; stroke: #fc8d62"/>
     <use xlink:href="#mc5b8ca358f" x="163.188517" y="136.708816" style="fill: #fc8d62; stroke: #fc8d62"/>
     <use xlink:href="#mc5b8ca358f" x="179.724402" y="141.145406" style="fill: #fc8d62; stroke: #fc8d62"/>
     <use xlink:href="#mc5b8ca358f" x="196.260287" y="137.421945" style="fill: #fc8d62; stroke: #fc8d62"/>
     <use xlink:href="#mc5b8ca358f" x="212.796172" y="138.330669" style="fill: #fc8d62; stroke: #fc8d62"/>
     <use xlink:href="#mc5b8ca358f" x="229.332057" y="140.419056" style="fill: #fc8d62; stroke: #fc8d62"/>
     <use xlink:href="#mc5b8ca358f" x="245.867943" y="138.126154" style="fill: #fc8d62; stroke: #fc8d62"/>
     <use xlink:href="#mc5b8ca358f" x="262.403828" y="135.670912" style="fill: #fc8d62; stroke: #fc8d62"/>
     <use xlink:href="#mc5b8ca358f" x="278.939713" y="135.626994" style="fill: #fc8d62; stroke: #fc8d62"/>
     <use xlink:href="#mc5b8ca358f" x="295.475598" y="138.869287" style="fill: #fc8d62; stroke: #fc8d62"/>
     <use xlink:href="#mc5b8ca358f" x="312.011483" y="171.768694" style="fill: #fc8d62; stroke: #fc8d62"/>
     <use xlink:href="#mc5b8ca358f" x="328.547368" y="206.73834" style="fill: #fc8d62; stroke: #fc8d62"/>
     <use xlink:href="#mc5b8ca358f" x="345.083254" y="237.919413" style="fill: #fc8d62; stroke: #fc8d62"/>
     <use xlink:href="#mc5b8ca358f" x="361.619139" y="273.024929" style="fill: #fc8d62; stroke: #fc8d62"/>
     <use xlink:href="#mc5b8ca358f" x="378.155024" y="273.155727" style="fill: #fc8d62; stroke: #fc8d62"/>
     <use xlink:href="#mc5b8ca358f" x="394.690909" y="272.752173" style="fill: #fc8d62; stroke: #fc8d62"/>
    </g>
   </g>
   <g id="line2d_36">
    <path d="M 80.509091 308.334505 
L 97.044976 305.778512 
L 113.580861 289.158055 
L 130.116746 263.566569 
L 146.652632 232.903999 
L 163.188517 205.018523 
L 179.724402 182.845335 
L 196.260287 170.748114 
L 212.796172 164.652987 
L 229.332057 161.888454 
L 245.867943 159.814598 
L 262.403828 159.668467 
L 278.939713 159.140476 
L 295.475598 163.896113 
L 312.011483 176.009197 
L 328.547368 196.047561 
L 345.083254 216.336053 
L 361.619139 235.233879 
L 378.155024 263.404755 
L 394.690909 281.958731 
" clip-path="url(#pc4ee99fd03)" style="fill: none; stroke-dasharray: 24,6; stroke-dashoffset: 0; stroke: #000000; stroke-width: 3"/>
   </g>
   <g id="patch_3">
    <path d="M 64.8 460.8 
L 64.8 86.4 
" style="fill: none; stroke: #cccccc; stroke-width: 1.25; stroke-linejoin: miter; stroke-linecap: square"/>
   </g>
   <g id="patch_4">
    <path d="M 410.4 460.8 
L 410.4 86.4 
" style="fill: none; stroke: #cccccc; stroke-width: 1.25; stroke-linejoin: miter; stroke-linecap: square"/>
   </g>
   <g id="patch_5">
    <path d="M 64.8 460.8 
L 410.4 460.8 
" style="fill: none; stroke: #cccccc; stroke-width: 1.25; stroke-linejoin: miter; stroke-linecap: square"/>
   </g>
   <g id="patch_6">
    <path d="M 64.8 86.4 
L 410.4 86.4 
" style="fill: none; stroke: #cccccc; stroke-width: 1.25; stroke-linejoin: miter; stroke-linecap: square"/>
   </g>
   <g id="text_14">
    <!-- Cluster 4 -->
    <g style="fill: #262626" transform="translate(210.580313 53.52525) scale(0.12 -0.12)">
     <defs>
      <path id="DejaVuSans-43" d="M 4122 4306 
L 4122 3641 
Q 3803 3938 3442 4084 
Q 3081 4231 2675 4231 
Q 1875 4231 1450 3742 
Q 1025 3253 1025 2328 
Q 1025 1406 1450 917 
Q 1875 428 2675 428 
Q 3081 428 3442 575 
Q 3803 722 4122 1019 
L 4122 359 
Q 3791 134 3420 21 
Q 3050 -91 2638 -91 
Q 1578 -91 968 557 
Q 359 1206 359 2328 
Q 359 3453 968 4101 
Q 1578 4750 2638 4750 
Q 3056 4750 3426 4639 
Q 3797 4528 4122 4306 
z
" transform="scale(0.015625)"/>
      <path id="DejaVuSans-6c" d="M 603 4863 
L 1178 4863 
L 1178 0 
L 603 0 
L 603 4863 
z
" transform="scale(0.015625)"/>
      <path id="DejaVuSans-75" d="M 544 1381 
L 544 3500 
L 1119 3500 
L 1119 1403 
Q 1119 906 1312 657 
Q 1506 409 1894 409 
Q 2359 409 2629 706 
Q 2900 1003 2900 1516 
L 2900 3500 
L 3475 3500 
L 3475 0 
L 2900 0 
L 2900 538 
Q 2691 219 2414 64 
Q 2138 -91 1772 -91 
Q 1169 -91 856 284 
Q 544 659 544 1381 
z
M 1991 3584 
L 1991 3584 
z
" transform="scale(0.015625)"/>
      <path id="DejaVuSans-73" d="M 2834 3397 
L 2834 2853 
Q 2591 2978 2328 3040 
Q 2066 3103 1784 3103 
Q 1356 3103 1142 2972 
Q 928 2841 928 2578 
Q 928 2378 1081 2264 
Q 1234 2150 1697 2047 
L 1894 2003 
Q 2506 1872 2764 1633 
Q 3022 1394 3022 966 
Q 3022 478 2636 193 
Q 2250 -91 1575 -91 
Q 1294 -91 989 -36 
Q 684 19 347 128 
L 347 722 
Q 666 556 975 473 
Q 1284 391 1588 391 
Q 1994 391 2212 530 
Q 2431 669 2431 922 
Q 2431 1156 2273 1281 
Q 2116 1406 1581 1522 
L 1381 1569 
Q 847 1681 609 1914 
Q 372 2147 372 2553 
Q 372 3047 722 3315 
Q 1072 3584 1716 3584 
Q 2034 3584 2315 3537 
Q 2597 3491 2834 3397 
z
" transform="scale(0.015625)"/>
      <path id="DejaVuSans-74" d="M 1172 4494 
L 1172 3500 
L 2356 3500 
L 2356 3053 
L 1172 3053 
L 1172 1153 
Q 1172 725 1289 603 
Q 1406 481 1766 481 
L 2356 481 
L 2356 0 
L 1766 0 
Q 1100 0 847 248 
Q 594 497 594 1153 
L 594 3053 
L 172 3053 
L 172 3500 
L 594 3500 
L 594 4494 
L 1172 4494 
z
" transform="scale(0.015625)"/>
      <path id="DejaVuSans-65" d="M 3597 1894 
L 3597 1613 
L 953 1613 
Q 991 1019 1311 708 
Q 1631 397 2203 397 
Q 2534 397 2845 478 
Q 3156 559 3463 722 
L 3463 178 
Q 3153 47 2828 -22 
Q 2503 -91 2169 -91 
Q 1331 -91 842 396 
Q 353 884 353 1716 
Q 353 2575 817 3079 
Q 1281 3584 2069 3584 
Q 2775 3584 3186 3129 
Q 3597 2675 3597 1894 
z
M 3022 2063 
Q 3016 2534 2758 2815 
Q 2500 3097 2075 3097 
Q 1594 3097 1305 2825 
Q 1016 2553 972 2059 
L 3022 2063 
z
" transform="scale(0.015625)"/>
      <path id="DejaVuSans-72" d="M 2631 2963 
Q 2534 3019 2420 3045 
Q 2306 3072 2169 3072 
Q 1681 3072 1420 2755 
Q 1159 2438 1159 1844 
L 1159 0 
L 581 0 
L 581 3500 
L 1159 3500 
L 1159 2956 
Q 1341 3275 1631 3429 
Q 1922 3584 2338 3584 
Q 2397 3584 2469 3576 
Q 2541 3569 2628 3553 
L 2631 2963 
z
" transform="scale(0.015625)"/>
      <path id="DejaVuSans-20" transform="scale(0.015625)"/>
      <path id="DejaVuSans-34" d="M 2419 4116 
L 825 1625 
L 2419 1625 
L 2419 4116 
z
M 2253 4666 
L 3047 4666 
L 3047 1625 
L 3713 1625 
L 3713 1100 
L 3047 1100 
L 3047 0 
L 2419 0 
L 2419 1100 
L 313 1100 
L 313 1709 
L 2253 4666 
z
" transform="scale(0.015625)"/>
     </defs>
     <use xlink:href="#DejaVuSans-43"/>
     <use xlink:href="#DejaVuSans-6c" transform="translate(69.824219 0)"/>
     <use xlink:href="#DejaVuSans-75" transform="translate(97.607422 0)"/>
     <use xlink:href="#DejaVuSans-73" transform="translate(160.986328 0)"/>
     <use xlink:href="#DejaVuSans-74" transform="translate(213.085938 0)"/>
     <use xlink:href="#DejaVuSans-65" transform="translate(252.294922 0)"/>
     <use xlink:href="#DejaVuSans-72" transform="translate(313.818359 0)"/>
     <use xlink:href="#DejaVuSans-20" transform="translate(354.931641 0)"/>
     <use xlink:href="#DejaVuSans-34" transform="translate(386.71875 0)"/>
    </g>
    <!-- 11 Trajectories  -->
    <g style="fill: #262626" transform="translate(191.595938 66.962625) scale(0.12 -0.12)">
     <defs>
      <path id="DejaVuSans-54" d="M -19 4666 
L 3928 4666 
L 3928 4134 
L 2272 4134 
L 2272 0 
L 1638 0 
L 1638 4134 
L -19 4134 
L -19 4666 
z
" transform="scale(0.015625)"/>
      <path id="DejaVuSans-61" d="M 2194 1759 
Q 1497 1759 1228 1600 
Q 959 1441 959 1056 
Q 959 750 1161 570 
Q 1363 391 1709 391 
Q 2188 391 2477 730 
Q 2766 1069 2766 1631 
L 2766 1759 
L 2194 1759 
z
M 3341 1997 
L 3341 0 
L 2766 0 
L 2766 531 
Q 2569 213 2275 61 
Q 1981 -91 1556 -91 
Q 1019 -91 701 211 
Q 384 513 384 1019 
Q 384 1609 779 1909 
Q 1175 2209 1959 2209 
L 2766 2209 
L 2766 2266 
Q 2766 2663 2505 2880 
Q 2244 3097 1772 3097 
Q 1472 3097 1187 3025 
Q 903 2953 641 2809 
L 641 3341 
Q 956 3463 1253 3523 
Q 1550 3584 1831 3584 
Q 2591 3584 2966 3190 
Q 3341 2797 3341 1997 
z
" transform="scale(0.015625)"/>
      <path id="DejaVuSans-6a" d="M 603 3500 
L 1178 3500 
L 1178 -63 
Q 1178 -731 923 -1031 
Q 669 -1331 103 -1331 
L -116 -1331 
L -116 -844 
L 38 -844 
Q 366 -844 484 -692 
Q 603 -541 603 -63 
L 603 3500 
z
M 603 4863 
L 1178 4863 
L 1178 4134 
L 603 4134 
L 603 4863 
z
" transform="scale(0.015625)"/>
      <path id="DejaVuSans-63" d="M 3122 3366 
L 3122 2828 
Q 2878 2963 2633 3030 
Q 2388 3097 2138 3097 
Q 1578 3097 1268 2742 
Q 959 2388 959 1747 
Q 959 1106 1268 751 
Q 1578 397 2138 397 
Q 2388 397 2633 464 
Q 2878 531 3122 666 
L 3122 134 
Q 2881 22 2623 -34 
Q 2366 -91 2075 -91 
Q 1284 -91 818 406 
Q 353 903 353 1747 
Q 353 2603 823 3093 
Q 1294 3584 2113 3584 
Q 2378 3584 2631 3529 
Q 2884 3475 3122 3366 
z
" transform="scale(0.015625)"/>
      <path id="DejaVuSans-6f" d="M 1959 3097 
Q 1497 3097 1228 2736 
Q 959 2375 959 1747 
Q 959 1119 1226 758 
Q 1494 397 1959 397 
Q 2419 397 2687 759 
Q 2956 1122 2956 1747 
Q 2956 2369 2687 2733 
Q 2419 3097 1959 3097 
z
M 1959 3584 
Q 2709 3584 3137 3096 
Q 3566 2609 3566 1747 
Q 3566 888 3137 398 
Q 2709 -91 1959 -91 
Q 1206 -91 779 398 
Q 353 888 353 1747 
Q 353 2609 779 3096 
Q 1206 3584 1959 3584 
z
" transform="scale(0.015625)"/>
      <path id="DejaVuSans-69" d="M 603 3500 
L 1178 3500 
L 1178 0 
L 603 0 
L 603 3500 
z
M 603 4863 
L 1178 4863 
L 1178 4134 
L 603 4134 
L 603 4863 
z
" transform="scale(0.015625)"/>
     </defs>
     <use xlink:href="#DejaVuSans-31"/>
     <use xlink:href="#DejaVuSans-31" transform="translate(63.623047 0)"/>
     <use xlink:href="#DejaVuSans-20" transform="translate(127.246094 0)"/>
     <use xlink:href="#DejaVuSans-54" transform="translate(159.033203 0)"/>
     <use xlink:href="#DejaVuSans-72" transform="translate(205.367188 0)"/>
     <use xlink:href="#DejaVuSans-61" transform="translate(246.480469 0)"/>
     <use xlink:href="#DejaVuSans-6a" transform="translate(307.759766 0)"/>
     <use xlink:href="#DejaVuSans-65" transform="translate(335.542969 0)"/>
     <use xlink:href="#DejaVuSans-63" transform="translate(397.066406 0)"/>
     <use xlink:href="#DejaVuSans-74" transform="translate(452.046875 0)"/>
     <use xlink:href="#DejaVuSans-6f" transform="translate(491.255859 0)"/>
     <use xlink:href="#DejaVuSans-72" transform="translate(552.4375 0)"/>
     <use xlink:href="#DejaVuSans-69" transform="translate(593.550781 0)"/>
     <use xlink:href="#DejaVuSans-65" transform="translate(621.333984 0)"/>
     <use xlink:href="#DejaVuSans-73" transform="translate(682.857422 0)"/>
     <use xlink:href="#DejaVuSans-20" transform="translate(734.957031 0)"/>
    </g>
    <!--  Colored by: func_old -->
    <g style="fill: #262626" transform="translate(174.737813 80.4) scale(0.12 -0.12)">
     <defs>
      <path id="DejaVuSans-64" d="M 2906 2969 
L 2906 4863 
L 3481 4863 
L 3481 0 
L 2906 0 
L 2906 525 
Q 2725 213 2448 61 
Q 2172 -91 1784 -91 
Q 1150 -91 751 415 
Q 353 922 353 1747 
Q 353 2572 751 3078 
Q 1150 3584 1784 3584 
Q 2172 3584 2448 3432 
Q 2725 3281 2906 2969 
z
M 947 1747 
Q 947 1113 1208 752 
Q 1469 391 1925 391 
Q 2381 391 2643 752 
Q 2906 1113 2906 1747 
Q 2906 2381 2643 2742 
Q 2381 3103 1925 3103 
Q 1469 3103 1208 2742 
Q 947 2381 947 1747 
z
" transform="scale(0.015625)"/>
      <path id="DejaVuSans-62" d="M 3116 1747 
Q 3116 2381 2855 2742 
Q 2594 3103 2138 3103 
Q 1681 3103 1420 2742 
Q 1159 2381 1159 1747 
Q 1159 1113 1420 752 
Q 1681 391 2138 391 
Q 2594 391 2855 752 
Q 3116 1113 3116 1747 
z
M 1159 2969 
Q 1341 3281 1617 3432 
Q 1894 3584 2278 3584 
Q 2916 3584 3314 3078 
Q 3713 2572 3713 1747 
Q 3713 922 3314 415 
Q 2916 -91 2278 -91 
Q 1894 -91 1617 61 
Q 1341 213 1159 525 
L 1159 0 
L 581 0 
L 581 4863 
L 1159 4863 
L 1159 2969 
z
" transform="scale(0.015625)"/>
      <path id="DejaVuSans-79" d="M 2059 -325 
Q 1816 -950 1584 -1140 
Q 1353 -1331 966 -1331 
L 506 -1331 
L 506 -850 
L 844 -850 
Q 1081 -850 1212 -737 
Q 1344 -625 1503 -206 
L 1606 56 
L 191 3500 
L 800 3500 
L 1894 763 
L 2988 3500 
L 3597 3500 
L 2059 -325 
z
" transform="scale(0.015625)"/>
      <path id="DejaVuSans-3a" d="M 750 794 
L 1409 794 
L 1409 0 
L 750 0 
L 750 794 
z
M 750 3309 
L 1409 3309 
L 1409 2516 
L 750 2516 
L 750 3309 
z
" transform="scale(0.015625)"/>
      <path id="DejaVuSans-66" d="M 2375 4863 
L 2375 4384 
L 1825 4384 
Q 1516 4384 1395 4259 
Q 1275 4134 1275 3809 
L 1275 3500 
L 2222 3500 
L 2222 3053 
L 1275 3053 
L 1275 0 
L 697 0 
L 697 3053 
L 147 3053 
L 147 3500 
L 697 3500 
L 697 3744 
Q 697 4328 969 4595 
Q 1241 4863 1831 4863 
L 2375 4863 
z
" transform="scale(0.015625)"/>
      <path id="DejaVuSans-6e" d="M 3513 2113 
L 3513 0 
L 2938 0 
L 2938 2094 
Q 2938 2591 2744 2837 
Q 2550 3084 2163 3084 
Q 1697 3084 1428 2787 
Q 1159 2491 1159 1978 
L 1159 0 
L 581 0 
L 581 3500 
L 1159 3500 
L 1159 2956 
Q 1366 3272 1645 3428 
Q 1925 3584 2291 3584 
Q 2894 3584 3203 3211 
Q 3513 2838 3513 2113 
z
" transform="scale(0.015625)"/>
      <path id="DejaVuSans-5f" d="M 3263 -1063 
L 3263 -1509 
L -63 -1509 
L -63 -1063 
L 3263 -1063 
z
" transform="scale(0.015625)"/>
     </defs>
     <use xlink:href="#DejaVuSans-20"/>
     <use xlink:href="#DejaVuSans-43" transform="translate(31.787109 0)"/>
     <use xlink:href="#DejaVuSans-6f" transform="translate(101.611328 0)"/>
     <use xlink:href="#DejaVuSans-6c" transform="translate(162.792969 0)"/>
     <use xlink:href="#DejaVuSans-6f" transform="translate(190.576172 0)"/>
     <use xlink:href="#DejaVuSans-72" transform="translate(251.757812 0)"/>
     <use xlink:href="#DejaVuSans-65" transform="translate(290.621094 0)"/>
     <use xlink:href="#DejaVuSans-64" transform="translate(352.144531 0)"/>
     <use xlink:href="#DejaVuSans-20" transform="translate(415.621094 0)"/>
     <use xlink:href="#DejaVuSans-62" transform="translate(447.408203 0)"/>
     <use xlink:href="#DejaVuSans-79" transform="translate(510.884766 0)"/>
     <use xlink:href="#DejaVuSans-3a" transform="translate(562.814453 0)"/>
     <use xlink:href="#DejaVuSans-20" transform="translate(596.505859 0)"/>
     <use xlink:href="#DejaVuSans-66" transform="translate(628.292969 0)"/>
     <use xlink:href="#DejaVuSans-75" transform="translate(663.498047 0)"/>
     <use xlink:href="#DejaVuSans-6e" transform="translate(726.876953 0)"/>
     <use xlink:href="#DejaVuSans-63" transform="translate(790.255859 0)"/>
     <use xlink:href="#DejaVuSans-5f" transform="translate(845.236328 0)"/>
     <use xlink:href="#DejaVuSans-6f" transform="translate(895.236328 0)"/>
     <use xlink:href="#DejaVuSans-6c" transform="translate(956.417969 0)"/>
     <use xlink:href="#DejaVuSans-64" transform="translate(984.201172 0)"/>
    </g>
   </g>
   <g id="legend_1">
    <g id="patch_7">
     <path d="M 329.232031 127.491875 
L 402.7 127.491875 
Q 404.9 127.491875 404.9 125.291875 
L 404.9 94.1 
Q 404.9 91.9 402.7 91.9 
L 329.232031 91.9 
Q 327.032031 91.9 327.032031 94.1 
L 327.032031 125.291875 
Q 327.032031 127.491875 329.232031 127.491875 
z
" style="fill: #ffffff; opacity: 0.8; stroke: #cccccc; stroke-linejoin: miter"/>
    </g>
    <g id="line2d_37">
     <path d="M 331.432031 100.808281 
L 342.432031 100.808281 
L 353.432031 100.808281 
" style="fill: none; stroke: #fc8d62; stroke-width: 1.5; stroke-linecap: round"/>
    </g>
    <g id="text_15">
     <!-- growth -->
     <g style="fill: #262626" transform="translate(362.232031 104.658281) scale(0.11 -0.11)">
      <defs>
       <path id="DejaVuSans-67" d="M 2906 1791 
Q 2906 2416 2648 2759 
Q 2391 3103 1925 3103 
Q 1463 3103 1205 2759 
Q 947 2416 947 1791 
Q 947 1169 1205 825 
Q 1463 481 1925 481 
Q 2391 481 2648 825 
Q 2906 1169 2906 1791 
z
M 3481 434 
Q 3481 -459 3084 -895 
Q 2688 -1331 1869 -1331 
Q 1566 -1331 1297 -1286 
Q 1028 -1241 775 -1147 
L 775 -588 
Q 1028 -725 1275 -790 
Q 1522 -856 1778 -856 
Q 2344 -856 2625 -561 
Q 2906 -266 2906 331 
L 2906 616 
Q 2728 306 2450 153 
Q 2172 0 1784 0 
Q 1141 0 747 490 
Q 353 981 353 1791 
Q 353 2603 747 3093 
Q 1141 3584 1784 3584 
Q 2172 3584 2450 3431 
Q 2728 3278 2906 2969 
L 2906 3500 
L 3481 3500 
L 3481 434 
z
" transform="scale(0.015625)"/>
       <path id="DejaVuSans-77" d="M 269 3500 
L 844 3500 
L 1563 769 
L 2278 3500 
L 2956 3500 
L 3675 769 
L 4391 3500 
L 4966 3500 
L 4050 0 
L 3372 0 
L 2619 2869 
L 1863 0 
L 1184 0 
L 269 3500 
z
" transform="scale(0.015625)"/>
       <path id="DejaVuSans-68" d="M 3513 2113 
L 3513 0 
L 2938 0 
L 2938 2094 
Q 2938 2591 2744 2837 
Q 2550 3084 2163 3084 
Q 1697 3084 1428 2787 
Q 1159 2491 1159 1978 
L 1159 0 
L 581 0 
L 581 4863 
L 1159 4863 
L 1159 2956 
Q 1366 3272 1645 3428 
Q 1925 3584 2291 3584 
Q 2894 3584 3203 3211 
Q 3513 2838 3513 2113 
z
" transform="scale(0.015625)"/>
      </defs>
      <use xlink:href="#DejaVuSans-67"/>
      <use xlink:href="#DejaVuSans-72" transform="translate(63.476562 0)"/>
      <use xlink:href="#DejaVuSans-6f" transform="translate(102.339844 0)"/>
      <use xlink:href="#DejaVuSans-77" transform="translate(163.521484 0)"/>
      <use xlink:href="#DejaVuSans-74" transform="translate(245.308594 0)"/>
      <use xlink:href="#DejaVuSans-68" transform="translate(284.517578 0)"/>
     </g>
    </g>
    <g id="line2d_38">
     <path d="M 331.432031 116.954219 
L 342.432031 116.954219 
L 353.432031 116.954219 
" style="fill: none; stroke-dasharray: 24,6; stroke-dashoffset: 0; stroke: #000000; stroke-width: 3"/>
    </g>
    <g id="text_16">
     <!-- Mean -->
     <g style="fill: #262626" transform="translate(362.232031 120.804219) scale(0.11 -0.11)">
      <defs>
       <path id="DejaVuSans-4d" d="M 628 4666 
L 1569 4666 
L 2759 1491 
L 3956 4666 
L 4897 4666 
L 4897 0 
L 4281 0 
L 4281 4097 
L 3078 897 
L 2444 897 
L 1241 4097 
L 1241 0 
L 628 0 
L 628 4666 
z
" transform="scale(0.015625)"/>
      </defs>
      <use xlink:href="#DejaVuSans-4d"/>
      <use xlink:href="#DejaVuSans-65" transform="translate(86.279297 0)"/>
      <use xlink:href="#DejaVuSans-61" transform="translate(147.802734 0)"/>
      <use xlink:href="#DejaVuSans-6e" transform="translate(209.082031 0)"/>
     </g>
    </g>
   </g>
  </g>
 </g>
 <defs>
  <clipPath id="pc4ee99fd03">
   <rect x="64.8" y="86.4" width="345.6" height="374.4"/>
  </clipPath>
 </defs>
</svg>
