<?xml version="1.0" encoding="utf-8" standalone="no"?>
<!DOCTYPE svg PUBLIC "-//W3C//DTD SVG 1.1//EN"
  "http://www.w3.org/Graphics/SVG/1.1/DTD/svg11.dtd">
<svg xmlns:xlink="http://www.w3.org/1999/xlink" width="432pt" height="576pt" viewBox="0 0 432 576" xmlns="http://www.w3.org/2000/svg" version="1.1">
 <metadata>
  <rdf:RDF xmlns:dc="http://purl.org/dc/elements/1.1/" xmlns:cc="http://creativecommons.org/ns#" xmlns:rdf="http://www.w3.org/1999/02/22-rdf-syntax-ns#">
   <cc:Work>
    <dc:type rdf:resource="http://purl.org/dc/dcmitype/StillImage"/>
    <dc:date>2025-10-08T19:09:05.568615</dc:date>
    <dc:format>image/svg+xml</dc:format>
    <dc:creator>
     <cc:Agent>
      <dc:title>Matplotlib v3.10.3, https://matplotlib.org/</dc:title>
     </cc:Agent>
    </dc:creator>
   </cc:Work>
  </rdf:RDF>
 </metadata>
 <defs>
  <style type="text/css">*{stroke-linejoin: round; stroke-linecap: butt}</style>
 </defs>
 <g id="figure_1">
  <g id="patch_1">
   <path d="M 0 576 
L 432 576 
L 432 0 
L 0 0 
z
" style="fill: #ffffff"/>
  </g>
  <g id="axes_1">
   <g id="patch_2">
    <path d="M 64.8 460.8 
L 410.4 460.8 
L 410.4 86.4 
L 64.8 86.4 
z
" style="fill: #ffffff"/>
   </g>
   <g id="matplotlib.axis_1">
    <g id="xtick_1">
     <g id="line2d_1">
      <path d="M 80.509091 460.8 
L 80.509091 86.4 
" clip-path="url(#p8b0dd95f0d)" style="fill: none; stroke: #cccccc; stroke-linecap: round"/>
     </g>
     <g id="text_1">
      <!-- 0.0 -->
      <g style="fill: #262626" transform="translate(71.762372 478.658281) scale(0.11 -0.11)">
       <defs>
        <path id="DejaVuSans-30" d="M 2034 4250 
Q 1547 4250 1301 3770 
Q 1056 3291 1056 2328 
Q 1056 1369 1301 889 
Q 1547 409 2034 409 
Q 2525 409 2770 889 
Q 3016 1369 3016 2328 
Q 3016 3291 2770 3770 
Q 2525 4250 2034 4250 
z
M 2034 4750 
Q 2819 4750 3233 4129 
Q 3647 3509 3647 2328 
Q 3647 1150 3233 529 
Q 2819 -91 2034 -91 
Q 1250 -91 836 529 
Q 422 1150 422 2328 
Q 422 3509 836 4129 
Q 1250 4750 2034 4750 
z
" transform="scale(0.015625)"/>
        <path id="DejaVuSans-2e" d="M 684 794 
L 1344 794 
L 1344 0 
L 684 0 
L 684 794 
z
" transform="scale(0.015625)"/>
       </defs>
       <use xlink:href="#DejaVuSans-30"/>
       <use xlink:href="#DejaVuSans-2e" transform="translate(63.623047 0)"/>
       <use xlink:href="#DejaVuSans-30" transform="translate(95.410156 0)"/>
      </g>
     </g>
    </g>
    <g id="xtick_2">
     <g id="line2d_2">
      <path d="M 121.848804 460.8 
L 121.848804 86.4 
" clip-path="url(#p8b0dd95f0d)" style="fill: none; stroke: #cccccc; stroke-linecap: round"/>
     </g>
     <g id="text_2">
      <!-- 2.5 -->
      <g style="fill: #262626" transform="translate(113.102085 478.658281) scale(0.11 -0.11)">
       <defs>
        <path id="DejaVuSans-32" d="M 1228 531 
L 3431 531 
L 3431 0 
L 469 0 
L 469 531 
Q 828 903 1448 1529 
Q 2069 2156 2228 2338 
Q 2531 2678 2651 2914 
Q 2772 3150 2772 3378 
Q 2772 3750 2511 3984 
Q 2250 4219 1831 4219 
Q 1534 4219 1204 4116 
Q 875 4013 500 3803 
L 500 4441 
Q 881 4594 1212 4672 
Q 1544 4750 1819 4750 
Q 2544 4750 2975 4387 
Q 3406 4025 3406 3419 
Q 3406 3131 3298 2873 
Q 3191 2616 2906 2266 
Q 2828 2175 2409 1742 
Q 1991 1309 1228 531 
z
" transform="scale(0.015625)"/>
        <path id="DejaVuSans-35" d="M 691 4666 
L 3169 4666 
L 3169 4134 
L 1269 4134 
L 1269 2991 
Q 1406 3038 1543 3061 
Q 1681 3084 1819 3084 
Q 2600 3084 3056 2656 
Q 3513 2228 3513 1497 
Q 3513 744 3044 326 
Q 2575 -91 1722 -91 
Q 1428 -91 1123 -41 
Q 819 9 494 109 
L 494 744 
Q 775 591 1075 516 
Q 1375 441 1709 441 
Q 2250 441 2565 725 
Q 2881 1009 2881 1497 
Q 2881 1984 2565 2268 
Q 2250 2553 1709 2553 
Q 1456 2553 1204 2497 
Q 953 2441 691 2322 
L 691 4666 
z
" transform="scale(0.015625)"/>
       </defs>
       <use xlink:href="#DejaVuSans-32"/>
       <use xlink:href="#DejaVuSans-2e" transform="translate(63.623047 0)"/>
       <use xlink:href="#DejaVuSans-35" transform="translate(95.410156 0)"/>
      </g>
     </g>
    </g>
    <g id="xtick_3">
     <g id="line2d_3">
      <path d="M 163.188517 460.8 
L 163.188517 86.4 
" clip-path="url(#p8b0dd95f0d)" style="fill: none; stroke: #cccccc; stroke-linecap: round"/>
     </g>
     <g id="text_3">
      <!-- 5.0 -->
      <g style="fill: #262626" transform="translate(154.441798 478.658281) scale(0.11 -0.11)">
       <use xlink:href="#DejaVuSans-35"/>
       <use xlink:href="#DejaVuSans-2e" transform="translate(63.623047 0)"/>
       <use xlink:href="#DejaVuSans-30" transform="translate(95.410156 0)"/>
      </g>
     </g>
    </g>
    <g id="xtick_4">
     <g id="line2d_4">
      <path d="M 204.52823 460.8 
L 204.52823 86.4 
" clip-path="url(#p8b0dd95f0d)" style="fill: none; stroke: #cccccc; stroke-linecap: round"/>
     </g>
     <g id="text_4">
      <!-- 7.5 -->
      <g style="fill: #262626" transform="translate(195.781511 478.658281) scale(0.11 -0.11)">
       <defs>
        <path id="DejaVuSans-37" d="M 525 4666 
L 3525 4666 
L 3525 4397 
L 1831 0 
L 1172 0 
L 2766 4134 
L 525 4134 
L 525 4666 
z
" transform="scale(0.015625)"/>
       </defs>
       <use xlink:href="#DejaVuSans-37"/>
       <use xlink:href="#DejaVuSans-2e" transform="translate(63.623047 0)"/>
       <use xlink:href="#DejaVuSans-35" transform="translate(95.410156 0)"/>
      </g>
     </g>
    </g>
    <g id="xtick_5">
     <g id="line2d_5">
      <path d="M 245.867943 460.8 
L 245.867943 86.4 
" clip-path="url(#p8b0dd95f0d)" style="fill: none; stroke: #cccccc; stroke-linecap: round"/>
     </g>
     <g id="text_5">
      <!-- 10.0 -->
      <g style="fill: #262626" transform="translate(233.621849 478.658281) scale(0.11 -0.11)">
       <defs>
        <path id="DejaVuSans-31" d="M 794 531 
L 1825 531 
L 1825 4091 
L 703 3866 
L 703 4441 
L 1819 4666 
L 2450 4666 
L 2450 531 
L 3481 531 
L 3481 0 
L 794 0 
L 794 531 
z
" transform="scale(0.015625)"/>
       </defs>
       <use xlink:href="#DejaVuSans-31"/>
       <use xlink:href="#DejaVuSans-30" transform="translate(63.623047 0)"/>
       <use xlink:href="#DejaVuSans-2e" transform="translate(127.246094 0)"/>
       <use xlink:href="#DejaVuSans-30" transform="translate(159.033203 0)"/>
      </g>
     </g>
    </g>
    <g id="xtick_6">
     <g id="line2d_6">
      <path d="M 287.207656 460.8 
L 287.207656 86.4 
" clip-path="url(#p8b0dd95f0d)" style="fill: none; stroke: #cccccc; stroke-linecap: round"/>
     </g>
     <g id="text_6">
      <!-- 12.5 -->
      <g style="fill: #262626" transform="translate(274.961562 478.658281) scale(0.11 -0.11)">
       <use xlink:href="#DejaVuSans-31"/>
       <use xlink:href="#DejaVuSans-32" transform="translate(63.623047 0)"/>
       <use xlink:href="#DejaVuSans-2e" transform="translate(127.246094 0)"/>
       <use xlink:href="#DejaVuSans-35" transform="translate(159.033203 0)"/>
      </g>
     </g>
    </g>
    <g id="xtick_7">
     <g id="line2d_7">
      <path d="M 328.547368 460.8 
L 328.547368 86.4 
" clip-path="url(#p8b0dd95f0d)" style="fill: none; stroke: #cccccc; stroke-linecap: round"/>
     </g>
     <g id="text_7">
      <!-- 15.0 -->
      <g style="fill: #262626" transform="translate(316.301275 478.658281) scale(0.11 -0.11)">
       <use xlink:href="#DejaVuSans-31"/>
       <use xlink:href="#DejaVuSans-35" transform="translate(63.623047 0)"/>
       <use xlink:href="#DejaVuSans-2e" transform="translate(127.246094 0)"/>
       <use xlink:href="#DejaVuSans-30" transform="translate(159.033203 0)"/>
      </g>
     </g>
    </g>
    <g id="xtick_8">
     <g id="line2d_8">
      <path d="M 369.887081 460.8 
L 369.887081 86.4 
" clip-path="url(#p8b0dd95f0d)" style="fill: none; stroke: #cccccc; stroke-linecap: round"/>
     </g>
     <g id="text_8">
      <!-- 17.5 -->
      <g style="fill: #262626" transform="translate(357.640988 478.658281) scale(0.11 -0.11)">
       <use xlink:href="#DejaVuSans-31"/>
       <use xlink:href="#DejaVuSans-37" transform="translate(63.623047 0)"/>
       <use xlink:href="#DejaVuSans-2e" transform="translate(127.246094 0)"/>
       <use xlink:href="#DejaVuSans-35" transform="translate(159.033203 0)"/>
      </g>
     </g>
    </g>
   </g>
   <g id="matplotlib.axis_2">
    <g id="ytick_1">
     <g id="line2d_9">
      <path d="M 64.8 423.867304 
L 410.4 423.867304 
" clip-path="url(#p8b0dd95f0d)" style="fill: none; stroke: #cccccc; stroke-linecap: round"/>
     </g>
     <g id="text_9">
      <!-- −150 -->
      <g style="fill: #262626" transform="translate(25.086094 428.046444) scale(0.11 -0.11)">
       <defs>
        <path id="DejaVuSans-2212" d="M 678 2272 
L 4684 2272 
L 4684 1741 
L 678 1741 
L 678 2272 
z
" transform="scale(0.015625)"/>
       </defs>
       <use xlink:href="#DejaVuSans-2212"/>
       <use xlink:href="#DejaVuSans-31" transform="translate(83.789062 0)"/>
       <use xlink:href="#DejaVuSans-35" transform="translate(147.412109 0)"/>
       <use xlink:href="#DejaVuSans-30" transform="translate(211.035156 0)"/>
      </g>
     </g>
    </g>
    <g id="ytick_2">
     <g id="line2d_10">
      <path d="M 64.8 352.744037 
L 410.4 352.744037 
" clip-path="url(#p8b0dd95f0d)" style="fill: none; stroke: #cccccc; stroke-linecap: round"/>
     </g>
     <g id="text_10">
      <!-- −100 -->
      <g style="fill: #262626" transform="translate(25.086094 356.923178) scale(0.11 -0.11)">
       <use xlink:href="#DejaVuSans-2212"/>
       <use xlink:href="#DejaVuSans-31" transform="translate(83.789062 0)"/>
       <use xlink:href="#DejaVuSans-30" transform="translate(147.412109 0)"/>
       <use xlink:href="#DejaVuSans-30" transform="translate(211.035156 0)"/>
      </g>
     </g>
    </g>
    <g id="ytick_3">
     <g id="line2d_11">
      <path d="M 64.8 281.620771 
L 410.4 281.620771 
" clip-path="url(#p8b0dd95f0d)" style="fill: none; stroke: #cccccc; stroke-linecap: round"/>
     </g>
     <g id="text_11">
      <!-- −50 -->
      <g style="fill: #262626" transform="translate(32.084844 285.799912) scale(0.11 -0.11)">
       <use xlink:href="#DejaVuSans-2212"/>
       <use xlink:href="#DejaVuSans-35" transform="translate(83.789062 0)"/>
       <use xlink:href="#DejaVuSans-30" transform="translate(147.412109 0)"/>
      </g>
     </g>
    </g>
    <g id="ytick_4">
     <g id="line2d_12">
      <path d="M 64.8 210.497505 
L 410.4 210.497505 
" clip-path="url(#p8b0dd95f0d)" style="fill: none; stroke: #cccccc; stroke-linecap: round"/>
     </g>
     <g id="text_12">
      <!-- 0 -->
      <g style="fill: #262626" transform="translate(48.30125 214.676645) scale(0.11 -0.11)">
       <use xlink:href="#DejaVuSans-30"/>
      </g>
     </g>
    </g>
    <g id="ytick_5">
     <g id="line2d_13">
      <path d="M 64.8 139.374239 
L 410.4 139.374239 
" clip-path="url(#p8b0dd95f0d)" style="fill: none; stroke: #cccccc; stroke-linecap: round"/>
     </g>
     <g id="text_13">
      <!-- 50 -->
      <g style="fill: #262626" transform="translate(41.3025 143.553379) scale(0.11 -0.11)">
       <use xlink:href="#DejaVuSans-35"/>
       <use xlink:href="#DejaVuSans-30" transform="translate(63.623047 0)"/>
      </g>
     </g>
    </g>
   </g>
   <g id="line2d_14">
    <path d="M 80.509091 103.418182 
L 97.044976 103.418182 
L 113.580861 103.418182 
L 130.116746 103.418182 
L 146.652632 103.418182 
L 163.188517 103.418182 
L 179.724402 182.162744 
L 196.260287 202.999711 
L 212.796172 208.513479 
L 229.332057 209.972502 
L 245.867943 210.358581 
L 262.403828 210.460744 
L 278.939713 210.487777 
L 295.475598 210.494931 
L 312.011483 210.496824 
L 328.547368 210.497325 
L 345.083254 210.497457 
L 361.619139 210.497492 
L 378.155024 210.497501 
L 394.690909 210.497504 
" clip-path="url(#p8b0dd95f0d)" style="fill: none; stroke: #66c2a5; stroke-width: 1.5; stroke-linecap: round"/>
   </g>
   <g id="line2d_15">
    <path d="M 80.509091 103.418182 
L 97.044976 103.418182 
L 113.580861 103.418182 
L 130.116746 103.418182 
L 146.652632 103.418182 
L 163.188517 103.418182 
L 179.724402 182.162744 
L 196.260287 202.999711 
L 212.796172 208.513479 
L 229.332057 209.972502 
L 245.867943 210.358581 
L 262.403828 210.460744 
L 278.939713 210.487777 
L 295.475598 210.494931 
L 312.011483 210.496824 
L 328.547368 210.497325 
L 345.083254 210.497457 
L 361.619139 210.497492 
L 378.155024 210.497501 
L 394.690909 210.497504 
" clip-path="url(#p8b0dd95f0d)" style="fill: none; stroke: #66c2a5; stroke-width: 1.5; stroke-linecap: round"/>
    <defs>
     <path id="m5790224bf7" d="M 0 3 
C 0.795609 3 1.55874 2.683901 2.12132 2.12132 
C 2.683901 1.55874 3 0.795609 3 0 
C 3 -0.795609 2.683901 -1.55874 2.12132 -2.12132 
C 1.55874 -2.683901 0.795609 -3 0 -3 
C -0.795609 -3 -1.55874 -2.683901 -2.12132 -2.12132 
C -2.683901 -1.55874 -3 -0.795609 -3 0 
C -3 0.795609 -2.683901 1.55874 -2.12132 2.12132 
C -1.55874 2.683901 -0.795609 3 0 3 
z
" style="stroke: #66c2a5"/>
    </defs>
    <g clip-path="url(#p8b0dd95f0d)">
     <use xlink:href="#m5790224bf7" x="80.509091" y="103.418182" style="fill: #66c2a5; stroke: #66c2a5"/>
     <use xlink:href="#m5790224bf7" x="97.044976" y="103.418182" style="fill: #66c2a5; stroke: #66c2a5"/>
     <use xlink:href="#m5790224bf7" x="113.580861" y="103.418182" style="fill: #66c2a5; stroke: #66c2a5"/>
     <use xlink:href="#m5790224bf7" x="130.116746" y="103.418182" style="fill: #66c2a5; stroke: #66c2a5"/>
     <use xlink:href="#m5790224bf7" x="146.652632" y="103.418182" style="fill: #66c2a5; stroke: #66c2a5"/>
     <use xlink:href="#m5790224bf7" x="163.188517" y="103.418182" style="fill: #66c2a5; stroke: #66c2a5"/>
     <use xlink:href="#m5790224bf7" x="179.724402" y="182.162744" style="fill: #66c2a5; stroke: #66c2a5"/>
     <use xlink:href="#m5790224bf7" x="196.260287" y="202.999711" style="fill: #66c2a5; stroke: #66c2a5"/>
     <use xlink:href="#m5790224bf7" x="212.796172" y="208.513479" style="fill: #66c2a5; stroke: #66c2a5"/>
     <use xlink:href="#m5790224bf7" x="229.332057" y="209.972502" style="fill: #66c2a5; stroke: #66c2a5"/>
     <use xlink:href="#m5790224bf7" x="245.867943" y="210.358581" style="fill: #66c2a5; stroke: #66c2a5"/>
     <use xlink:href="#m5790224bf7" x="262.403828" y="210.460744" style="fill: #66c2a5; stroke: #66c2a5"/>
     <use xlink:href="#m5790224bf7" x="278.939713" y="210.487777" style="fill: #66c2a5; stroke: #66c2a5"/>
     <use xlink:href="#m5790224bf7" x="295.475598" y="210.494931" style="fill: #66c2a5; stroke: #66c2a5"/>
     <use xlink:href="#m5790224bf7" x="312.011483" y="210.496824" style="fill: #66c2a5; stroke: #66c2a5"/>
     <use xlink:href="#m5790224bf7" x="328.547368" y="210.497325" style="fill: #66c2a5; stroke: #66c2a5"/>
     <use xlink:href="#m5790224bf7" x="345.083254" y="210.497457" style="fill: #66c2a5; stroke: #66c2a5"/>
     <use xlink:href="#m5790224bf7" x="361.619139" y="210.497492" style="fill: #66c2a5; stroke: #66c2a5"/>
     <use xlink:href="#m5790224bf7" x="378.155024" y="210.497501" style="fill: #66c2a5; stroke: #66c2a5"/>
     <use xlink:href="#m5790224bf7" x="394.690909" y="210.497504" style="fill: #66c2a5; stroke: #66c2a5"/>
    </g>
   </g>
   <g id="line2d_16">
    <path d="M 80.509091 164.222945 
L 97.044976 164.222945 
L 113.580861 164.222945 
L 130.116746 164.222945 
L 146.652632 164.222945 
L 163.188517 164.222945 
L 179.724402 198.99944 
L 196.260287 207.640525 
L 212.796172 209.787617 
L 229.332057 210.321116 
L 245.867943 210.453677 
L 262.403828 210.486615 
L 278.939713 210.494799 
L 295.475598 210.496832 
L 312.011483 210.497338 
L 328.547368 210.497463 
L 345.083254 210.497494 
L 361.619139 210.497502 
L 378.155024 210.497504 
L 394.690909 210.497505 
" clip-path="url(#p8b0dd95f0d)" style="fill: none; stroke: #66c2a5; stroke-width: 1.5; stroke-linecap: round"/>
   </g>
   <g id="line2d_17">
    <path d="M 80.509091 164.222945 
L 97.044976 164.222945 
L 113.580861 164.222945 
L 130.116746 164.222945 
L 146.652632 164.222945 
L 163.188517 164.222945 
L 179.724402 198.99944 
L 196.260287 207.640525 
L 212.796172 209.787617 
L 229.332057 210.321116 
L 245.867943 210.453677 
L 262.403828 210.486615 
L 278.939713 210.494799 
L 295.475598 210.496832 
L 312.011483 210.497338 
L 328.547368 210.497463 
L 345.083254 210.497494 
L 361.619139 210.497502 
L 378.155024 210.497504 
L 394.690909 210.497505 
" clip-path="url(#p8b0dd95f0d)" style="fill: none; stroke: #66c2a5; stroke-width: 1.5; stroke-linecap: round"/>
    <g clip-path="url(#p8b0dd95f0d)">
     <use xlink:href="#m5790224bf7" x="80.509091" y="164.222945" style="fill: #66c2a5; stroke: #66c2a5"/>
     <use xlink:href="#m5790224bf7" x="97.044976" y="164.222945" style="fill: #66c2a5; stroke: #66c2a5"/>
     <use xlink:href="#m5790224bf7" x="113.580861" y="164.222945" style="fill: #66c2a5; stroke: #66c2a5"/>
     <use xlink:href="#m5790224bf7" x="130.116746" y="164.222945" style="fill: #66c2a5; stroke: #66c2a5"/>
     <use xlink:href="#m5790224bf7" x="146.652632" y="164.222945" style="fill: #66c2a5; stroke: #66c2a5"/>
     <use xlink:href="#m5790224bf7" x="163.188517" y="164.222945" style="fill: #66c2a5; stroke: #66c2a5"/>
     <use xlink:href="#m5790224bf7" x="179.724402" y="198.99944" style="fill: #66c2a5; stroke: #66c2a5"/>
     <use xlink:href="#m5790224bf7" x="196.260287" y="207.640525" style="fill: #66c2a5; stroke: #66c2a5"/>
     <use xlink:href="#m5790224bf7" x="212.796172" y="209.787617" style="fill: #66c2a5; stroke: #66c2a5"/>
     <use xlink:href="#m5790224bf7" x="229.332057" y="210.321116" style="fill: #66c2a5; stroke: #66c2a5"/>
     <use xlink:href="#m5790224bf7" x="245.867943" y="210.453677" style="fill: #66c2a5; stroke: #66c2a5"/>
     <use xlink:href="#m5790224bf7" x="262.403828" y="210.486615" style="fill: #66c2a5; stroke: #66c2a5"/>
     <use xlink:href="#m5790224bf7" x="278.939713" y="210.494799" style="fill: #66c2a5; stroke: #66c2a5"/>
     <use xlink:href="#m5790224bf7" x="295.475598" y="210.496832" style="fill: #66c2a5; stroke: #66c2a5"/>
     <use xlink:href="#m5790224bf7" x="312.011483" y="210.497338" style="fill: #66c2a5; stroke: #66c2a5"/>
     <use xlink:href="#m5790224bf7" x="328.547368" y="210.497463" style="fill: #66c2a5; stroke: #66c2a5"/>
     <use xlink:href="#m5790224bf7" x="345.083254" y="210.497494" style="fill: #66c2a5; stroke: #66c2a5"/>
     <use xlink:href="#m5790224bf7" x="361.619139" y="210.497502" style="fill: #66c2a5; stroke: #66c2a5"/>
     <use xlink:href="#m5790224bf7" x="378.155024" y="210.497504" style="fill: #66c2a5; stroke: #66c2a5"/>
     <use xlink:href="#m5790224bf7" x="394.690909" y="210.497505" style="fill: #66c2a5; stroke: #66c2a5"/>
    </g>
   </g>
   <g id="line2d_18">
    <path d="M 80.509091 180.625733 
L 97.044976 180.625733 
L 113.580861 180.625733 
L 130.116746 180.625733 
L 146.652632 193.427921 
L 163.188517 206.230109 
L 179.724402 219.032297 
L 196.260287 231.834485 
L 212.796172 244.636673 
L 229.332057 257.438861 
L 245.867943 270.241048 
L 262.403828 283.043236 
L 278.939713 295.845424 
L 295.475598 308.647612 
L 312.011483 321.4498 
L 328.547368 334.251988 
L 345.083254 347.054176 
L 361.619139 359.856364 
L 378.155024 372.658552 
L 394.690909 385.46074 
" clip-path="url(#p8b0dd95f0d)" style="fill: none; stroke: #e78ac3; stroke-width: 1.5; stroke-linecap: round"/>
   </g>
   <g id="line2d_19">
    <path d="M 80.509091 180.625733 
L 97.044976 180.625733 
L 113.580861 180.625733 
L 130.116746 180.625733 
L 146.652632 193.427921 
L 163.188517 206.230109 
L 179.724402 219.032297 
L 196.260287 231.834485 
L 212.796172 244.636673 
L 229.332057 257.438861 
L 245.867943 270.241048 
L 262.403828 283.043236 
L 278.939713 295.845424 
L 295.475598 308.647612 
L 312.011483 321.4498 
L 328.547368 334.251988 
L 345.083254 347.054176 
L 361.619139 359.856364 
L 378.155024 372.658552 
L 394.690909 385.46074 
" clip-path="url(#p8b0dd95f0d)" style="fill: none; stroke: #e78ac3; stroke-width: 1.5; stroke-linecap: round"/>
    <defs>
     <path id="m0a091b2a71" d="M 0 3 
C 0.795609 3 1.55874 2.683901 2.12132 2.12132 
C 2.683901 1.55874 3 0.795609 3 0 
C 3 -0.795609 2.683901 -1.55874 2.12132 -2.12132 
C 1.55874 -2.683901 0.795609 -3 0 -3 
C -0.795609 -3 -1.55874 -2.683901 -2.12132 -2.12132 
C -2.683901 -1.55874 -3 -0.795609 -3 0 
C -3 0.795609 -2.683901 1.55874 -2.12132 2.12132 
C -1.55874 2.683901 -0.795609 3 0 3 
z
" style="stroke: #e78ac3"/>
    </defs>
    <g clip-path="url(#p8b0dd95f0d)">
     <use xlink:href="#m0a091b2a71" x="80.509091" y="180.625733" style="fill: #e78ac3; stroke: #e78ac3"/>
     <use xlink:href="#m0a091b2a71" x="97.044976" y="180.625733" style="fill: #e78ac3; stroke: #e78ac3"/>
     <use xlink:href="#m0a091b2a71" x="113.580861" y="180.625733" style="fill: #e78ac3; stroke: #e78ac3"/>
     <use xlink:href="#m0a091b2a71" x="130.116746" y="180.625733" style="fill: #e78ac3; stroke: #e78ac3"/>
     <use xlink:href="#m0a091b2a71" x="146.652632" y="193.427921" style="fill: #e78ac3; stroke: #e78ac3"/>
     <use xlink:href="#m0a091b2a71" x="163.188517" y="206.230109" style="fill: #e78ac3; stroke: #e78ac3"/>
     <use xlink:href="#m0a091b2a71" x="179.724402" y="219.032297" style="fill: #e78ac3; stroke: #e78ac3"/>
     <use xlink:href="#m0a091b2a71" x="196.260287" y="231.834485" style="fill: #e78ac3; stroke: #e78ac3"/>
     <use xlink:href="#m0a091b2a71" x="212.796172" y="244.636673" style="fill: #e78ac3; stroke: #e78ac3"/>
     <use xlink:href="#m0a091b2a71" x="229.332057" y="257.438861" style="fill: #e78ac3; stroke: #e78ac3"/>
     <use xlink:href="#m0a091b2a71" x="245.867943" y="270.241048" style="fill: #e78ac3; stroke: #e78ac3"/>
     <use xlink:href="#m0a091b2a71" x="262.403828" y="283.043236" style="fill: #e78ac3; stroke: #e78ac3"/>
     <use xlink:href="#m0a091b2a71" x="278.939713" y="295.845424" style="fill: #e78ac3; stroke: #e78ac3"/>
     <use xlink:href="#m0a091b2a71" x="295.475598" y="308.647612" style="fill: #e78ac3; stroke: #e78ac3"/>
     <use xlink:href="#m0a091b2a71" x="312.011483" y="321.4498" style="fill: #e78ac3; stroke: #e78ac3"/>
     <use xlink:href="#m0a091b2a71" x="328.547368" y="334.251988" style="fill: #e78ac3; stroke: #e78ac3"/>
     <use xlink:href="#m0a091b2a71" x="345.083254" y="347.054176" style="fill: #e78ac3; stroke: #e78ac3"/>
     <use xlink:href="#m0a091b2a71" x="361.619139" y="359.856364" style="fill: #e78ac3; stroke: #e78ac3"/>
     <use xlink:href="#m0a091b2a71" x="378.155024" y="372.658552" style="fill: #e78ac3; stroke: #e78ac3"/>
     <use xlink:href="#m0a091b2a71" x="394.690909" y="385.46074" style="fill: #e78ac3; stroke: #e78ac3"/>
    </g>
   </g>
   <g id="line2d_20">
    <path d="M 80.509091 162.133684 
L 97.044976 162.133684 
L 113.580861 173.513406 
L 130.116746 184.893129 
L 146.652632 196.272852 
L 163.188517 207.652574 
L 179.724402 219.032297 
L 196.260287 230.412019 
L 212.796172 241.791742 
L 229.332057 253.171465 
L 245.867943 264.551187 
L 262.403828 275.93091 
L 278.939713 287.310632 
L 295.475598 298.690355 
L 312.011483 310.070078 
L 328.547368 321.4498 
L 345.083254 332.829523 
L 361.619139 344.209245 
L 378.155024 355.588968 
L 394.690909 366.968691 
" clip-path="url(#p8b0dd95f0d)" style="fill: none; stroke: #e78ac3; stroke-width: 1.5; stroke-linecap: round"/>
   </g>
   <g id="line2d_21">
    <path d="M 80.509091 162.133684 
L 97.044976 162.133684 
L 113.580861 173.513406 
L 130.116746 184.893129 
L 146.652632 196.272852 
L 163.188517 207.652574 
L 179.724402 219.032297 
L 196.260287 230.412019 
L 212.796172 241.791742 
L 229.332057 253.171465 
L 245.867943 264.551187 
L 262.403828 275.93091 
L 278.939713 287.310632 
L 295.475598 298.690355 
L 312.011483 310.070078 
L 328.547368 321.4498 
L 345.083254 332.829523 
L 361.619139 344.209245 
L 378.155024 355.588968 
L 394.690909 366.968691 
" clip-path="url(#p8b0dd95f0d)" style="fill: none; stroke: #e78ac3; stroke-width: 1.5; stroke-linecap: round"/>
    <g clip-path="url(#p8b0dd95f0d)">
     <use xlink:href="#m0a091b2a71" x="80.509091" y="162.133684" style="fill: #e78ac3; stroke: #e78ac3"/>
     <use xlink:href="#m0a091b2a71" x="97.044976" y="162.133684" style="fill: #e78ac3; stroke: #e78ac3"/>
     <use xlink:href="#m0a091b2a71" x="113.580861" y="173.513406" style="fill: #e78ac3; stroke: #e78ac3"/>
     <use xlink:href="#m0a091b2a71" x="130.116746" y="184.893129" style="fill: #e78ac3; stroke: #e78ac3"/>
     <use xlink:href="#m0a091b2a71" x="146.652632" y="196.272852" style="fill: #e78ac3; stroke: #e78ac3"/>
     <use xlink:href="#m0a091b2a71" x="163.188517" y="207.652574" style="fill: #e78ac3; stroke: #e78ac3"/>
     <use xlink:href="#m0a091b2a71" x="179.724402" y="219.032297" style="fill: #e78ac3; stroke: #e78ac3"/>
     <use xlink:href="#m0a091b2a71" x="196.260287" y="230.412019" style="fill: #e78ac3; stroke: #e78ac3"/>
     <use xlink:href="#m0a091b2a71" x="212.796172" y="241.791742" style="fill: #e78ac3; stroke: #e78ac3"/>
     <use xlink:href="#m0a091b2a71" x="229.332057" y="253.171465" style="fill: #e78ac3; stroke: #e78ac3"/>
     <use xlink:href="#m0a091b2a71" x="245.867943" y="264.551187" style="fill: #e78ac3; stroke: #e78ac3"/>
     <use xlink:href="#m0a091b2a71" x="262.403828" y="275.93091" style="fill: #e78ac3; stroke: #e78ac3"/>
     <use xlink:href="#m0a091b2a71" x="278.939713" y="287.310632" style="fill: #e78ac3; stroke: #e78ac3"/>
     <use xlink:href="#m0a091b2a71" x="295.475598" y="298.690355" style="fill: #e78ac3; stroke: #e78ac3"/>
     <use xlink:href="#m0a091b2a71" x="312.011483" y="310.070078" style="fill: #e78ac3; stroke: #e78ac3"/>
     <use xlink:href="#m0a091b2a71" x="328.547368" y="321.4498" style="fill: #e78ac3; stroke: #e78ac3"/>
     <use xlink:href="#m0a091b2a71" x="345.083254" y="332.829523" style="fill: #e78ac3; stroke: #e78ac3"/>
     <use xlink:href="#m0a091b2a71" x="361.619139" y="344.209245" style="fill: #e78ac3; stroke: #e78ac3"/>
     <use xlink:href="#m0a091b2a71" x="378.155024" y="355.588968" style="fill: #e78ac3; stroke: #e78ac3"/>
     <use xlink:href="#m0a091b2a71" x="394.690909" y="366.968691" style="fill: #e78ac3; stroke: #e78ac3"/>
    </g>
   </g>
   <g id="line2d_22">
    <path d="M 80.509091 194.850386 
L 97.044976 194.850386 
L 113.580861 194.850386 
L 130.116746 206.230109 
L 146.652632 217.609831 
L 163.188517 228.989554 
L 179.724402 240.369277 
L 196.260287 251.748999 
L 212.796172 263.128722 
L 229.332057 274.508444 
L 245.867943 285.888167 
L 262.403828 297.26789 
L 278.939713 308.647612 
L 295.475598 320.027335 
L 312.011483 331.407057 
L 328.547368 342.78678 
L 345.083254 354.166503 
L 361.619139 365.546225 
L 378.155024 376.925948 
L 394.690909 388.30567 
" clip-path="url(#p8b0dd95f0d)" style="fill: none; stroke: #e78ac3; stroke-width: 1.5; stroke-linecap: round"/>
   </g>
   <g id="line2d_23">
    <path d="M 80.509091 194.850386 
L 97.044976 194.850386 
L 113.580861 194.850386 
L 130.116746 206.230109 
L 146.652632 217.609831 
L 163.188517 228.989554 
L 179.724402 240.369277 
L 196.260287 251.748999 
L 212.796172 263.128722 
L 229.332057 274.508444 
L 245.867943 285.888167 
L 262.403828 297.26789 
L 278.939713 308.647612 
L 295.475598 320.027335 
L 312.011483 331.407057 
L 328.547368 342.78678 
L 345.083254 354.166503 
L 361.619139 365.546225 
L 378.155024 376.925948 
L 394.690909 388.30567 
" clip-path="url(#p8b0dd95f0d)" style="fill: none; stroke: #e78ac3; stroke-width: 1.5; stroke-linecap: round"/>
    <g clip-path="url(#p8b0dd95f0d)">
     <use xlink:href="#m0a091b2a71" x="80.509091" y="194.850386" style="fill: #e78ac3; stroke: #e78ac3"/>
     <use xlink:href="#m0a091b2a71" x="97.044976" y="194.850386" style="fill: #e78ac3; stroke: #e78ac3"/>
     <use xlink:href="#m0a091b2a71" x="113.580861" y="194.850386" style="fill: #e78ac3; stroke: #e78ac3"/>
     <use xlink:href="#m0a091b2a71" x="130.116746" y="206.230109" style="fill: #e78ac3; stroke: #e78ac3"/>
     <use xlink:href="#m0a091b2a71" x="146.652632" y="217.609831" style="fill: #e78ac3; stroke: #e78ac3"/>
     <use xlink:href="#m0a091b2a71" x="163.188517" y="228.989554" style="fill: #e78ac3; stroke: #e78ac3"/>
     <use xlink:href="#m0a091b2a71" x="179.724402" y="240.369277" style="fill: #e78ac3; stroke: #e78ac3"/>
     <use xlink:href="#m0a091b2a71" x="196.260287" y="251.748999" style="fill: #e78ac3; stroke: #e78ac3"/>
     <use xlink:href="#m0a091b2a71" x="212.796172" y="263.128722" style="fill: #e78ac3; stroke: #e78ac3"/>
     <use xlink:href="#m0a091b2a71" x="229.332057" y="274.508444" style="fill: #e78ac3; stroke: #e78ac3"/>
     <use xlink:href="#m0a091b2a71" x="245.867943" y="285.888167" style="fill: #e78ac3; stroke: #e78ac3"/>
     <use xlink:href="#m0a091b2a71" x="262.403828" y="297.26789" style="fill: #e78ac3; stroke: #e78ac3"/>
     <use xlink:href="#m0a091b2a71" x="278.939713" y="308.647612" style="fill: #e78ac3; stroke: #e78ac3"/>
     <use xlink:href="#m0a091b2a71" x="295.475598" y="320.027335" style="fill: #e78ac3; stroke: #e78ac3"/>
     <use xlink:href="#m0a091b2a71" x="312.011483" y="331.407057" style="fill: #e78ac3; stroke: #e78ac3"/>
     <use xlink:href="#m0a091b2a71" x="328.547368" y="342.78678" style="fill: #e78ac3; stroke: #e78ac3"/>
     <use xlink:href="#m0a091b2a71" x="345.083254" y="354.166503" style="fill: #e78ac3; stroke: #e78ac3"/>
     <use xlink:href="#m0a091b2a71" x="361.619139" y="365.546225" style="fill: #e78ac3; stroke: #e78ac3"/>
     <use xlink:href="#m0a091b2a71" x="378.155024" y="376.925948" style="fill: #e78ac3; stroke: #e78ac3"/>
     <use xlink:href="#m0a091b2a71" x="394.690909" y="388.30567" style="fill: #e78ac3; stroke: #e78ac3"/>
    </g>
   </g>
   <g id="line2d_24">
    <path d="M 80.509091 196.272852 
L 97.044976 196.272852 
L 113.580861 196.272852 
L 130.116746 196.272852 
L 146.652632 201.962713 
L 163.188517 207.652574 
L 179.724402 213.342435 
L 196.260287 219.032297 
L 212.796172 224.722158 
L 229.332057 230.412019 
L 245.867943 236.101881 
L 262.403828 241.791742 
L 278.939713 247.481603 
L 295.475598 253.171465 
L 312.011483 258.861326 
L 328.547368 264.551187 
L 345.083254 270.241048 
L 361.619139 275.93091 
L 378.155024 281.620771 
L 394.690909 287.310632 
" clip-path="url(#p8b0dd95f0d)" style="fill: none; stroke: #e78ac3; stroke-width: 1.5; stroke-linecap: round"/>
   </g>
   <g id="line2d_25">
    <path d="M 80.509091 196.272852 
L 97.044976 196.272852 
L 113.580861 196.272852 
L 130.116746 196.272852 
L 146.652632 201.962713 
L 163.188517 207.652574 
L 179.724402 213.342435 
L 196.260287 219.032297 
L 212.796172 224.722158 
L 229.332057 230.412019 
L 245.867943 236.101881 
L 262.403828 241.791742 
L 278.939713 247.481603 
L 295.475598 253.171465 
L 312.011483 258.861326 
L 328.547368 264.551187 
L 345.083254 270.241048 
L 361.619139 275.93091 
L 378.155024 281.620771 
L 394.690909 287.310632 
" clip-path="url(#p8b0dd95f0d)" style="fill: none; stroke: #e78ac3; stroke-width: 1.5; stroke-linecap: round"/>
    <g clip-path="url(#p8b0dd95f0d)">
     <use xlink:href="#m0a091b2a71" x="80.509091" y="196.272852" style="fill: #e78ac3; stroke: #e78ac3"/>
     <use xlink:href="#m0a091b2a71" x="97.044976" y="196.272852" style="fill: #e78ac3; stroke: #e78ac3"/>
     <use xlink:href="#m0a091b2a71" x="113.580861" y="196.272852" style="fill: #e78ac3; stroke: #e78ac3"/>
     <use xlink:href="#m0a091b2a71" x="130.116746" y="196.272852" style="fill: #e78ac3; stroke: #e78ac3"/>
     <use xlink:href="#m0a091b2a71" x="146.652632" y="201.962713" style="fill: #e78ac3; stroke: #e78ac3"/>
     <use xlink:href="#m0a091b2a71" x="163.188517" y="207.652574" style="fill: #e78ac3; stroke: #e78ac3"/>
     <use xlink:href="#m0a091b2a71" x="179.724402" y="213.342435" style="fill: #e78ac3; stroke: #e78ac3"/>
     <use xlink:href="#m0a091b2a71" x="196.260287" y="219.032297" style="fill: #e78ac3; stroke: #e78ac3"/>
     <use xlink:href="#m0a091b2a71" x="212.796172" y="224.722158" style="fill: #e78ac3; stroke: #e78ac3"/>
     <use xlink:href="#m0a091b2a71" x="229.332057" y="230.412019" style="fill: #e78ac3; stroke: #e78ac3"/>
     <use xlink:href="#m0a091b2a71" x="245.867943" y="236.101881" style="fill: #e78ac3; stroke: #e78ac3"/>
     <use xlink:href="#m0a091b2a71" x="262.403828" y="241.791742" style="fill: #e78ac3; stroke: #e78ac3"/>
     <use xlink:href="#m0a091b2a71" x="278.939713" y="247.481603" style="fill: #e78ac3; stroke: #e78ac3"/>
     <use xlink:href="#m0a091b2a71" x="295.475598" y="253.171465" style="fill: #e78ac3; stroke: #e78ac3"/>
     <use xlink:href="#m0a091b2a71" x="312.011483" y="258.861326" style="fill: #e78ac3; stroke: #e78ac3"/>
     <use xlink:href="#m0a091b2a71" x="328.547368" y="264.551187" style="fill: #e78ac3; stroke: #e78ac3"/>
     <use xlink:href="#m0a091b2a71" x="345.083254" y="270.241048" style="fill: #e78ac3; stroke: #e78ac3"/>
     <use xlink:href="#m0a091b2a71" x="361.619139" y="275.93091" style="fill: #e78ac3; stroke: #e78ac3"/>
     <use xlink:href="#m0a091b2a71" x="378.155024" y="281.620771" style="fill: #e78ac3; stroke: #e78ac3"/>
     <use xlink:href="#m0a091b2a71" x="394.690909" y="287.310632" style="fill: #e78ac3; stroke: #e78ac3"/>
    </g>
   </g>
   <g id="line2d_26">
    <path d="M 80.509091 187.73806 
L 97.044976 187.73806 
L 113.580861 201.962713 
L 130.116746 216.187366 
L 146.652632 230.412019 
L 163.188517 244.636673 
L 179.724402 258.861326 
L 196.260287 273.085979 
L 212.796172 287.310632 
L 229.332057 301.535286 
L 245.867943 315.759939 
L 262.403828 329.984592 
L 278.939713 344.209245 
L 295.475598 358.433899 
L 312.011483 372.658552 
L 328.547368 386.883205 
L 345.083254 401.107858 
L 361.619139 415.332512 
L 378.155024 429.557165 
L 394.690909 443.781818 
" clip-path="url(#p8b0dd95f0d)" style="fill: none; stroke: #e78ac3; stroke-width: 1.5; stroke-linecap: round"/>
   </g>
   <g id="line2d_27">
    <path d="M 80.509091 187.73806 
L 97.044976 187.73806 
L 113.580861 201.962713 
L 130.116746 216.187366 
L 146.652632 230.412019 
L 163.188517 244.636673 
L 179.724402 258.861326 
L 196.260287 273.085979 
L 212.796172 287.310632 
L 229.332057 301.535286 
L 245.867943 315.759939 
L 262.403828 329.984592 
L 278.939713 344.209245 
L 295.475598 358.433899 
L 312.011483 372.658552 
L 328.547368 386.883205 
L 345.083254 401.107858 
L 361.619139 415.332512 
L 378.155024 429.557165 
L 394.690909 443.781818 
" clip-path="url(#p8b0dd95f0d)" style="fill: none; stroke: #e78ac3; stroke-width: 1.5; stroke-linecap: round"/>
    <g clip-path="url(#p8b0dd95f0d)">
     <use xlink:href="#m0a091b2a71" x="80.509091" y="187.73806" style="fill: #e78ac3; stroke: #e78ac3"/>
     <use xlink:href="#m0a091b2a71" x="97.044976" y="187.73806" style="fill: #e78ac3; stroke: #e78ac3"/>
     <use xlink:href="#m0a091b2a71" x="113.580861" y="201.962713" style="fill: #e78ac3; stroke: #e78ac3"/>
     <use xlink:href="#m0a091b2a71" x="130.116746" y="216.187366" style="fill: #e78ac3; stroke: #e78ac3"/>
     <use xlink:href="#m0a091b2a71" x="146.652632" y="230.412019" style="fill: #e78ac3; stroke: #e78ac3"/>
     <use xlink:href="#m0a091b2a71" x="163.188517" y="244.636673" style="fill: #e78ac3; stroke: #e78ac3"/>
     <use xlink:href="#m0a091b2a71" x="179.724402" y="258.861326" style="fill: #e78ac3; stroke: #e78ac3"/>
     <use xlink:href="#m0a091b2a71" x="196.260287" y="273.085979" style="fill: #e78ac3; stroke: #e78ac3"/>
     <use xlink:href="#m0a091b2a71" x="212.796172" y="287.310632" style="fill: #e78ac3; stroke: #e78ac3"/>
     <use xlink:href="#m0a091b2a71" x="229.332057" y="301.535286" style="fill: #e78ac3; stroke: #e78ac3"/>
     <use xlink:href="#m0a091b2a71" x="245.867943" y="315.759939" style="fill: #e78ac3; stroke: #e78ac3"/>
     <use xlink:href="#m0a091b2a71" x="262.403828" y="329.984592" style="fill: #e78ac3; stroke: #e78ac3"/>
     <use xlink:href="#m0a091b2a71" x="278.939713" y="344.209245" style="fill: #e78ac3; stroke: #e78ac3"/>
     <use xlink:href="#m0a091b2a71" x="295.475598" y="358.433899" style="fill: #e78ac3; stroke: #e78ac3"/>
     <use xlink:href="#m0a091b2a71" x="312.011483" y="372.658552" style="fill: #e78ac3; stroke: #e78ac3"/>
     <use xlink:href="#m0a091b2a71" x="328.547368" y="386.883205" style="fill: #e78ac3; stroke: #e78ac3"/>
     <use xlink:href="#m0a091b2a71" x="345.083254" y="401.107858" style="fill: #e78ac3; stroke: #e78ac3"/>
     <use xlink:href="#m0a091b2a71" x="361.619139" y="415.332512" style="fill: #e78ac3; stroke: #e78ac3"/>
     <use xlink:href="#m0a091b2a71" x="378.155024" y="429.557165" style="fill: #e78ac3; stroke: #e78ac3"/>
     <use xlink:href="#m0a091b2a71" x="394.690909" y="443.781818" style="fill: #e78ac3; stroke: #e78ac3"/>
    </g>
   </g>
   <g id="line2d_28">
    <path d="M 80.509091 179.203268 
L 97.044976 179.203268 
L 113.580861 179.203268 
L 130.116746 179.203268 
L 146.652632 186.315594 
L 163.188517 193.427921 
L 179.724402 200.540248 
L 196.260287 207.652574 
L 212.796172 214.764901 
L 229.332057 221.877227 
L 245.867943 228.989554 
L 262.403828 236.101881 
L 278.939713 243.214207 
L 295.475598 250.326534 
L 312.011483 257.438861 
L 328.547368 264.551187 
L 345.083254 271.663514 
L 361.619139 278.77584 
L 378.155024 285.888167 
L 394.690909 293.000494 
" clip-path="url(#p8b0dd95f0d)" style="fill: none; stroke: #e78ac3; stroke-width: 1.5; stroke-linecap: round"/>
   </g>
   <g id="line2d_29">
    <path d="M 80.509091 179.203268 
L 97.044976 179.203268 
L 113.580861 179.203268 
L 130.116746 179.203268 
L 146.652632 186.315594 
L 163.188517 193.427921 
L 179.724402 200.540248 
L 196.260287 207.652574 
L 212.796172 214.764901 
L 229.332057 221.877227 
L 245.867943 228.989554 
L 262.403828 236.101881 
L 278.939713 243.214207 
L 295.475598 250.326534 
L 312.011483 257.438861 
L 328.547368 264.551187 
L 345.083254 271.663514 
L 361.619139 278.77584 
L 378.155024 285.888167 
L 394.690909 293.000494 
" clip-path="url(#p8b0dd95f0d)" style="fill: none; stroke: #e78ac3; stroke-width: 1.5; stroke-linecap: round"/>
    <g clip-path="url(#p8b0dd95f0d)">
     <use xlink:href="#m0a091b2a71" x="80.509091" y="179.203268" style="fill: #e78ac3; stroke: #e78ac3"/>
     <use xlink:href="#m0a091b2a71" x="97.044976" y="179.203268" style="fill: #e78ac3; stroke: #e78ac3"/>
     <use xlink:href="#m0a091b2a71" x="113.580861" y="179.203268" style="fill: #e78ac3; stroke: #e78ac3"/>
     <use xlink:href="#m0a091b2a71" x="130.116746" y="179.203268" style="fill: #e78ac3; stroke: #e78ac3"/>
     <use xlink:href="#m0a091b2a71" x="146.652632" y="186.315594" style="fill: #e78ac3; stroke: #e78ac3"/>
     <use xlink:href="#m0a091b2a71" x="163.188517" y="193.427921" style="fill: #e78ac3; stroke: #e78ac3"/>
     <use xlink:href="#m0a091b2a71" x="179.724402" y="200.540248" style="fill: #e78ac3; stroke: #e78ac3"/>
     <use xlink:href="#m0a091b2a71" x="196.260287" y="207.652574" style="fill: #e78ac3; stroke: #e78ac3"/>
     <use xlink:href="#m0a091b2a71" x="212.796172" y="214.764901" style="fill: #e78ac3; stroke: #e78ac3"/>
     <use xlink:href="#m0a091b2a71" x="229.332057" y="221.877227" style="fill: #e78ac3; stroke: #e78ac3"/>
     <use xlink:href="#m0a091b2a71" x="245.867943" y="228.989554" style="fill: #e78ac3; stroke: #e78ac3"/>
     <use xlink:href="#m0a091b2a71" x="262.403828" y="236.101881" style="fill: #e78ac3; stroke: #e78ac3"/>
     <use xlink:href="#m0a091b2a71" x="278.939713" y="243.214207" style="fill: #e78ac3; stroke: #e78ac3"/>
     <use xlink:href="#m0a091b2a71" x="295.475598" y="250.326534" style="fill: #e78ac3; stroke: #e78ac3"/>
     <use xlink:href="#m0a091b2a71" x="312.011483" y="257.438861" style="fill: #e78ac3; stroke: #e78ac3"/>
     <use xlink:href="#m0a091b2a71" x="328.547368" y="264.551187" style="fill: #e78ac3; stroke: #e78ac3"/>
     <use xlink:href="#m0a091b2a71" x="345.083254" y="271.663514" style="fill: #e78ac3; stroke: #e78ac3"/>
     <use xlink:href="#m0a091b2a71" x="361.619139" y="278.77584" style="fill: #e78ac3; stroke: #e78ac3"/>
     <use xlink:href="#m0a091b2a71" x="378.155024" y="285.888167" style="fill: #e78ac3; stroke: #e78ac3"/>
     <use xlink:href="#m0a091b2a71" x="394.690909" y="293.000494" style="fill: #e78ac3; stroke: #e78ac3"/>
    </g>
   </g>
   <g id="line2d_30">
    <path d="M 80.509091 183.470664 
L 97.044976 183.470664 
L 113.580861 183.470664 
L 130.116746 183.470664 
L 146.652632 183.470664 
L 163.188517 190.58299 
L 179.724402 197.695317 
L 196.260287 204.807644 
L 212.796172 211.91997 
L 229.332057 219.032297 
L 245.867943 226.144623 
L 262.403828 233.25695 
L 278.939713 240.369277 
L 295.475598 247.481603 
L 312.011483 254.59393 
L 328.547368 261.706257 
L 345.083254 268.818583 
L 361.619139 275.93091 
L 378.155024 283.043236 
L 394.690909 290.155563 
" clip-path="url(#p8b0dd95f0d)" style="fill: none; stroke: #e78ac3; stroke-width: 1.5; stroke-linecap: round"/>
   </g>
   <g id="line2d_31">
    <path d="M 80.509091 183.470664 
L 97.044976 183.470664 
L 113.580861 183.470664 
L 130.116746 183.470664 
L 146.652632 183.470664 
L 163.188517 190.58299 
L 179.724402 197.695317 
L 196.260287 204.807644 
L 212.796172 211.91997 
L 229.332057 219.032297 
L 245.867943 226.144623 
L 262.403828 233.25695 
L 278.939713 240.369277 
L 295.475598 247.481603 
L 312.011483 254.59393 
L 328.547368 261.706257 
L 345.083254 268.818583 
L 361.619139 275.93091 
L 378.155024 283.043236 
L 394.690909 290.155563 
" clip-path="url(#p8b0dd95f0d)" style="fill: none; stroke: #e78ac3; stroke-width: 1.5; stroke-linecap: round"/>
    <g clip-path="url(#p8b0dd95f0d)">
     <use xlink:href="#m0a091b2a71" x="80.509091" y="183.470664" style="fill: #e78ac3; stroke: #e78ac3"/>
     <use xlink:href="#m0a091b2a71" x="97.044976" y="183.470664" style="fill: #e78ac3; stroke: #e78ac3"/>
     <use xlink:href="#m0a091b2a71" x="113.580861" y="183.470664" style="fill: #e78ac3; stroke: #e78ac3"/>
     <use xlink:href="#m0a091b2a71" x="130.116746" y="183.470664" style="fill: #e78ac3; stroke: #e78ac3"/>
     <use xlink:href="#m0a091b2a71" x="146.652632" y="183.470664" style="fill: #e78ac3; stroke: #e78ac3"/>
     <use xlink:href="#m0a091b2a71" x="163.188517" y="190.58299" style="fill: #e78ac3; stroke: #e78ac3"/>
     <use xlink:href="#m0a091b2a71" x="179.724402" y="197.695317" style="fill: #e78ac3; stroke: #e78ac3"/>
     <use xlink:href="#m0a091b2a71" x="196.260287" y="204.807644" style="fill: #e78ac3; stroke: #e78ac3"/>
     <use xlink:href="#m0a091b2a71" x="212.796172" y="211.91997" style="fill: #e78ac3; stroke: #e78ac3"/>
     <use xlink:href="#m0a091b2a71" x="229.332057" y="219.032297" style="fill: #e78ac3; stroke: #e78ac3"/>
     <use xlink:href="#m0a091b2a71" x="245.867943" y="226.144623" style="fill: #e78ac3; stroke: #e78ac3"/>
     <use xlink:href="#m0a091b2a71" x="262.403828" y="233.25695" style="fill: #e78ac3; stroke: #e78ac3"/>
     <use xlink:href="#m0a091b2a71" x="278.939713" y="240.369277" style="fill: #e78ac3; stroke: #e78ac3"/>
     <use xlink:href="#m0a091b2a71" x="295.475598" y="247.481603" style="fill: #e78ac3; stroke: #e78ac3"/>
     <use xlink:href="#m0a091b2a71" x="312.011483" y="254.59393" style="fill: #e78ac3; stroke: #e78ac3"/>
     <use xlink:href="#m0a091b2a71" x="328.547368" y="261.706257" style="fill: #e78ac3; stroke: #e78ac3"/>
     <use xlink:href="#m0a091b2a71" x="345.083254" y="268.818583" style="fill: #e78ac3; stroke: #e78ac3"/>
     <use xlink:href="#m0a091b2a71" x="361.619139" y="275.93091" style="fill: #e78ac3; stroke: #e78ac3"/>
     <use xlink:href="#m0a091b2a71" x="378.155024" y="283.043236" style="fill: #e78ac3; stroke: #e78ac3"/>
     <use xlink:href="#m0a091b2a71" x="394.690909" y="290.155563" style="fill: #e78ac3; stroke: #e78ac3"/>
    </g>
   </g>
   <g id="line2d_32">
    <path d="M 80.509091 147.90903 
L 97.044976 147.90903 
L 113.580861 162.133684 
L 130.116746 176.358337 
L 146.652632 190.58299 
L 163.188517 204.807644 
L 179.724402 219.032297 
L 196.260287 233.25695 
L 212.796172 247.481603 
L 229.332057 261.706257 
L 245.867943 275.93091 
L 262.403828 290.155563 
L 278.939713 304.380216 
L 295.475598 318.60487 
L 312.011483 332.829523 
L 328.547368 347.054176 
L 345.083254 361.278829 
L 361.619139 375.503483 
L 378.155024 389.728136 
L 394.690909 403.952789 
" clip-path="url(#p8b0dd95f0d)" style="fill: none; stroke: #e78ac3; stroke-width: 1.5; stroke-linecap: round"/>
   </g>
   <g id="line2d_33">
    <path d="M 80.509091 147.90903 
L 97.044976 147.90903 
L 113.580861 162.133684 
L 130.116746 176.358337 
L 146.652632 190.58299 
L 163.188517 204.807644 
L 179.724402 219.032297 
L 196.260287 233.25695 
L 212.796172 247.481603 
L 229.332057 261.706257 
L 245.867943 275.93091 
L 262.403828 290.155563 
L 278.939713 304.380216 
L 295.475598 318.60487 
L 312.011483 332.829523 
L 328.547368 347.054176 
L 345.083254 361.278829 
L 361.619139 375.503483 
L 378.155024 389.728136 
L 394.690909 403.952789 
" clip-path="url(#p8b0dd95f0d)" style="fill: none; stroke: #e78ac3; stroke-width: 1.5; stroke-linecap: round"/>
    <g clip-path="url(#p8b0dd95f0d)">
     <use xlink:href="#m0a091b2a71" x="80.509091" y="147.90903" style="fill: #e78ac3; stroke: #e78ac3"/>
     <use xlink:href="#m0a091b2a71" x="97.044976" y="147.90903" style="fill: #e78ac3; stroke: #e78ac3"/>
     <use xlink:href="#m0a091b2a71" x="113.580861" y="162.133684" style="fill: #e78ac3; stroke: #e78ac3"/>
     <use xlink:href="#m0a091b2a71" x="130.116746" y="176.358337" style="fill: #e78ac3; stroke: #e78ac3"/>
     <use xlink:href="#m0a091b2a71" x="146.652632" y="190.58299" style="fill: #e78ac3; stroke: #e78ac3"/>
     <use xlink:href="#m0a091b2a71" x="163.188517" y="204.807644" style="fill: #e78ac3; stroke: #e78ac3"/>
     <use xlink:href="#m0a091b2a71" x="179.724402" y="219.032297" style="fill: #e78ac3; stroke: #e78ac3"/>
     <use xlink:href="#m0a091b2a71" x="196.260287" y="233.25695" style="fill: #e78ac3; stroke: #e78ac3"/>
     <use xlink:href="#m0a091b2a71" x="212.796172" y="247.481603" style="fill: #e78ac3; stroke: #e78ac3"/>
     <use xlink:href="#m0a091b2a71" x="229.332057" y="261.706257" style="fill: #e78ac3; stroke: #e78ac3"/>
     <use xlink:href="#m0a091b2a71" x="245.867943" y="275.93091" style="fill: #e78ac3; stroke: #e78ac3"/>
     <use xlink:href="#m0a091b2a71" x="262.403828" y="290.155563" style="fill: #e78ac3; stroke: #e78ac3"/>
     <use xlink:href="#m0a091b2a71" x="278.939713" y="304.380216" style="fill: #e78ac3; stroke: #e78ac3"/>
     <use xlink:href="#m0a091b2a71" x="295.475598" y="318.60487" style="fill: #e78ac3; stroke: #e78ac3"/>
     <use xlink:href="#m0a091b2a71" x="312.011483" y="332.829523" style="fill: #e78ac3; stroke: #e78ac3"/>
     <use xlink:href="#m0a091b2a71" x="328.547368" y="347.054176" style="fill: #e78ac3; stroke: #e78ac3"/>
     <use xlink:href="#m0a091b2a71" x="345.083254" y="361.278829" style="fill: #e78ac3; stroke: #e78ac3"/>
     <use xlink:href="#m0a091b2a71" x="361.619139" y="375.503483" style="fill: #e78ac3; stroke: #e78ac3"/>
     <use xlink:href="#m0a091b2a71" x="378.155024" y="389.728136" style="fill: #e78ac3; stroke: #e78ac3"/>
     <use xlink:href="#m0a091b2a71" x="394.690909" y="403.952789" style="fill: #e78ac3; stroke: #e78ac3"/>
    </g>
   </g>
   <g id="line2d_34">
    <path d="M 80.509091 152.176426 
L 97.044976 152.176426 
L 113.580861 152.176426 
L 130.116746 152.176426 
L 146.652632 166.40108 
L 163.188517 180.625733 
L 179.724402 194.850386 
L 196.260287 209.075039 
L 212.796172 223.299693 
L 229.332057 237.524346 
L 245.867943 251.748999 
L 262.403828 265.973653 
L 278.939713 280.198306 
L 295.475598 294.422959 
L 312.011483 308.647612 
L 328.547368 322.872266 
L 345.083254 337.096919 
L 361.619139 351.321572 
L 378.155024 365.546225 
L 394.690909 379.770879 
" clip-path="url(#p8b0dd95f0d)" style="fill: none; stroke: #e78ac3; stroke-width: 1.5; stroke-linecap: round"/>
   </g>
   <g id="line2d_35">
    <path d="M 80.509091 152.176426 
L 97.044976 152.176426 
L 113.580861 152.176426 
L 130.116746 152.176426 
L 146.652632 166.40108 
L 163.188517 180.625733 
L 179.724402 194.850386 
L 196.260287 209.075039 
L 212.796172 223.299693 
L 229.332057 237.524346 
L 245.867943 251.748999 
L 262.403828 265.973653 
L 278.939713 280.198306 
L 295.475598 294.422959 
L 312.011483 308.647612 
L 328.547368 322.872266 
L 345.083254 337.096919 
L 361.619139 351.321572 
L 378.155024 365.546225 
L 394.690909 379.770879 
" clip-path="url(#p8b0dd95f0d)" style="fill: none; stroke: #e78ac3; stroke-width: 1.5; stroke-linecap: round"/>
    <g clip-path="url(#p8b0dd95f0d)">
     <use xlink:href="#m0a091b2a71" x="80.509091" y="152.176426" style="fill: #e78ac3; stroke: #e78ac3"/>
     <use xlink:href="#m0a091b2a71" x="97.044976" y="152.176426" style="fill: #e78ac3; stroke: #e78ac3"/>
     <use xlink:href="#m0a091b2a71" x="113.580861" y="152.176426" style="fill: #e78ac3; stroke: #e78ac3"/>
     <use xlink:href="#m0a091b2a71" x="130.116746" y="152.176426" style="fill: #e78ac3; stroke: #e78ac3"/>
     <use xlink:href="#m0a091b2a71" x="146.652632" y="166.40108" style="fill: #e78ac3; stroke: #e78ac3"/>
     <use xlink:href="#m0a091b2a71" x="163.188517" y="180.625733" style="fill: #e78ac3; stroke: #e78ac3"/>
     <use xlink:href="#m0a091b2a71" x="179.724402" y="194.850386" style="fill: #e78ac3; stroke: #e78ac3"/>
     <use xlink:href="#m0a091b2a71" x="196.260287" y="209.075039" style="fill: #e78ac3; stroke: #e78ac3"/>
     <use xlink:href="#m0a091b2a71" x="212.796172" y="223.299693" style="fill: #e78ac3; stroke: #e78ac3"/>
     <use xlink:href="#m0a091b2a71" x="229.332057" y="237.524346" style="fill: #e78ac3; stroke: #e78ac3"/>
     <use xlink:href="#m0a091b2a71" x="245.867943" y="251.748999" style="fill: #e78ac3; stroke: #e78ac3"/>
     <use xlink:href="#m0a091b2a71" x="262.403828" y="265.973653" style="fill: #e78ac3; stroke: #e78ac3"/>
     <use xlink:href="#m0a091b2a71" x="278.939713" y="280.198306" style="fill: #e78ac3; stroke: #e78ac3"/>
     <use xlink:href="#m0a091b2a71" x="295.475598" y="294.422959" style="fill: #e78ac3; stroke: #e78ac3"/>
     <use xlink:href="#m0a091b2a71" x="312.011483" y="308.647612" style="fill: #e78ac3; stroke: #e78ac3"/>
     <use xlink:href="#m0a091b2a71" x="328.547368" y="322.872266" style="fill: #e78ac3; stroke: #e78ac3"/>
     <use xlink:href="#m0a091b2a71" x="345.083254" y="337.096919" style="fill: #e78ac3; stroke: #e78ac3"/>
     <use xlink:href="#m0a091b2a71" x="361.619139" y="351.321572" style="fill: #e78ac3; stroke: #e78ac3"/>
     <use xlink:href="#m0a091b2a71" x="378.155024" y="365.546225" style="fill: #e78ac3; stroke: #e78ac3"/>
     <use xlink:href="#m0a091b2a71" x="394.690909" y="379.770879" style="fill: #e78ac3; stroke: #e78ac3"/>
    </g>
   </g>
   <g id="line2d_36">
    <path d="M 80.509091 164.978614 
L 97.044976 172.090941 
L 113.580861 179.203268 
L 130.116746 186.315594 
L 146.652632 193.427921 
L 163.188517 200.540248 
L 179.724402 207.652574 
L 196.260287 214.764901 
L 212.796172 221.877227 
L 229.332057 228.989554 
L 245.867943 236.101881 
L 262.403828 243.214207 
L 278.939713 250.326534 
L 295.475598 257.438861 
L 312.011483 264.551187 
L 328.547368 271.663514 
L 345.083254 278.77584 
L 361.619139 285.888167 
L 378.155024 293.000494 
L 394.690909 300.11282 
" clip-path="url(#p8b0dd95f0d)" style="fill: none; stroke: #e78ac3; stroke-width: 1.5; stroke-linecap: round"/>
   </g>
   <g id="line2d_37">
    <path d="M 80.509091 164.978614 
L 97.044976 172.090941 
L 113.580861 179.203268 
L 130.116746 186.315594 
L 146.652632 193.427921 
L 163.188517 200.540248 
L 179.724402 207.652574 
L 196.260287 214.764901 
L 212.796172 221.877227 
L 229.332057 228.989554 
L 245.867943 236.101881 
L 262.403828 243.214207 
L 278.939713 250.326534 
L 295.475598 257.438861 
L 312.011483 264.551187 
L 328.547368 271.663514 
L 345.083254 278.77584 
L 361.619139 285.888167 
L 378.155024 293.000494 
L 394.690909 300.11282 
" clip-path="url(#p8b0dd95f0d)" style="fill: none; stroke: #e78ac3; stroke-width: 1.5; stroke-linecap: round"/>
    <g clip-path="url(#p8b0dd95f0d)">
     <use xlink:href="#m0a091b2a71" x="80.509091" y="164.978614" style="fill: #e78ac3; stroke: #e78ac3"/>
     <use xlink:href="#m0a091b2a71" x="97.044976" y="172.090941" style="fill: #e78ac3; stroke: #e78ac3"/>
     <use xlink:href="#m0a091b2a71" x="113.580861" y="179.203268" style="fill: #e78ac3; stroke: #e78ac3"/>
     <use xlink:href="#m0a091b2a71" x="130.116746" y="186.315594" style="fill: #e78ac3; stroke: #e78ac3"/>
     <use xlink:href="#m0a091b2a71" x="146.652632" y="193.427921" style="fill: #e78ac3; stroke: #e78ac3"/>
     <use xlink:href="#m0a091b2a71" x="163.188517" y="200.540248" style="fill: #e78ac3; stroke: #e78ac3"/>
     <use xlink:href="#m0a091b2a71" x="179.724402" y="207.652574" style="fill: #e78ac3; stroke: #e78ac3"/>
     <use xlink:href="#m0a091b2a71" x="196.260287" y="214.764901" style="fill: #e78ac3; stroke: #e78ac3"/>
     <use xlink:href="#m0a091b2a71" x="212.796172" y="221.877227" style="fill: #e78ac3; stroke: #e78ac3"/>
     <use xlink:href="#m0a091b2a71" x="229.332057" y="228.989554" style="fill: #e78ac3; stroke: #e78ac3"/>
     <use xlink:href="#m0a091b2a71" x="245.867943" y="236.101881" style="fill: #e78ac3; stroke: #e78ac3"/>
     <use xlink:href="#m0a091b2a71" x="262.403828" y="243.214207" style="fill: #e78ac3; stroke: #e78ac3"/>
     <use xlink:href="#m0a091b2a71" x="278.939713" y="250.326534" style="fill: #e78ac3; stroke: #e78ac3"/>
     <use xlink:href="#m0a091b2a71" x="295.475598" y="257.438861" style="fill: #e78ac3; stroke: #e78ac3"/>
     <use xlink:href="#m0a091b2a71" x="312.011483" y="264.551187" style="fill: #e78ac3; stroke: #e78ac3"/>
     <use xlink:href="#m0a091b2a71" x="328.547368" y="271.663514" style="fill: #e78ac3; stroke: #e78ac3"/>
     <use xlink:href="#m0a091b2a71" x="345.083254" y="278.77584" style="fill: #e78ac3; stroke: #e78ac3"/>
     <use xlink:href="#m0a091b2a71" x="361.619139" y="285.888167" style="fill: #e78ac3; stroke: #e78ac3"/>
     <use xlink:href="#m0a091b2a71" x="378.155024" y="293.000494" style="fill: #e78ac3; stroke: #e78ac3"/>
     <use xlink:href="#m0a091b2a71" x="394.690909" y="300.11282" style="fill: #e78ac3; stroke: #e78ac3"/>
    </g>
   </g>
   <g id="line2d_38">
    <path d="M 80.509091 206.417078 
L 97.044976 206.417078 
L 113.580861 206.417078 
L 130.116746 206.417078 
L 146.652632 206.417078 
L 163.188517 207.736616 
L 179.724402 209.056153 
L 196.260287 210.37569 
L 212.796172 211.695227 
L 229.332057 213.014765 
L 245.867943 214.334302 
L 262.403828 215.653839 
L 278.939713 216.973376 
L 295.475598 218.292914 
L 312.011483 219.612451 
L 328.547368 220.931988 
L 345.083254 222.251525 
L 361.619139 223.571063 
L 378.155024 224.8906 
L 394.690909 226.210137 
" clip-path="url(#p8b0dd95f0d)" style="fill: none; stroke: #ffd92f; stroke-width: 1.5; stroke-linecap: round"/>
   </g>
   <g id="line2d_39">
    <path d="M 80.509091 206.417078 
L 97.044976 206.417078 
L 113.580861 206.417078 
L 130.116746 206.417078 
L 146.652632 206.417078 
L 163.188517 207.736616 
L 179.724402 209.056153 
L 196.260287 210.37569 
L 212.796172 211.695227 
L 229.332057 213.014765 
L 245.867943 214.334302 
L 262.403828 215.653839 
L 278.939713 216.973376 
L 295.475598 218.292914 
L 312.011483 219.612451 
L 328.547368 220.931988 
L 345.083254 222.251525 
L 361.619139 223.571063 
L 378.155024 224.8906 
L 394.690909 226.210137 
" clip-path="url(#p8b0dd95f0d)" style="fill: none; stroke: #ffd92f; stroke-width: 1.5; stroke-linecap: round"/>
    <defs>
     <path id="m2d659fcd41" d="M 0 3 
C 0.795609 3 1.55874 2.683901 2.12132 2.12132 
C 2.683901 1.55874 3 0.795609 3 0 
C 3 -0.795609 2.683901 -1.55874 2.12132 -2.12132 
C 1.55874 -2.683901 0.795609 -3 0 -3 
C -0.795609 -3 -1.55874 -2.683901 -2.12132 -2.12132 
C -2.683901 -1.55874 -3 -0.795609 -3 0 
C -3 0.795609 -2.683901 1.55874 -2.12132 2.12132 
C -1.55874 2.683901 -0.795609 3 0 3 
z
" style="stroke: #ffd92f"/>
    </defs>
    <g clip-path="url(#p8b0dd95f0d)">
     <use xlink:href="#m2d659fcd41" x="80.509091" y="206.417078" style="fill: #ffd92f; stroke: #ffd92f"/>
     <use xlink:href="#m2d659fcd41" x="97.044976" y="206.417078" style="fill: #ffd92f; stroke: #ffd92f"/>
     <use xlink:href="#m2d659fcd41" x="113.580861" y="206.417078" style="fill: #ffd92f; stroke: #ffd92f"/>
     <use xlink:href="#m2d659fcd41" x="130.116746" y="206.417078" style="fill: #ffd92f; stroke: #ffd92f"/>
     <use xlink:href="#m2d659fcd41" x="146.652632" y="206.417078" style="fill: #ffd92f; stroke: #ffd92f"/>
     <use xlink:href="#m2d659fcd41" x="163.188517" y="207.736616" style="fill: #ffd92f; stroke: #ffd92f"/>
     <use xlink:href="#m2d659fcd41" x="179.724402" y="209.056153" style="fill: #ffd92f; stroke: #ffd92f"/>
     <use xlink:href="#m2d659fcd41" x="196.260287" y="210.37569" style="fill: #ffd92f; stroke: #ffd92f"/>
     <use xlink:href="#m2d659fcd41" x="212.796172" y="211.695227" style="fill: #ffd92f; stroke: #ffd92f"/>
     <use xlink:href="#m2d659fcd41" x="229.332057" y="213.014765" style="fill: #ffd92f; stroke: #ffd92f"/>
     <use xlink:href="#m2d659fcd41" x="245.867943" y="214.334302" style="fill: #ffd92f; stroke: #ffd92f"/>
     <use xlink:href="#m2d659fcd41" x="262.403828" y="215.653839" style="fill: #ffd92f; stroke: #ffd92f"/>
     <use xlink:href="#m2d659fcd41" x="278.939713" y="216.973376" style="fill: #ffd92f; stroke: #ffd92f"/>
     <use xlink:href="#m2d659fcd41" x="295.475598" y="218.292914" style="fill: #ffd92f; stroke: #ffd92f"/>
     <use xlink:href="#m2d659fcd41" x="312.011483" y="219.612451" style="fill: #ffd92f; stroke: #ffd92f"/>
     <use xlink:href="#m2d659fcd41" x="328.547368" y="220.931988" style="fill: #ffd92f; stroke: #ffd92f"/>
     <use xlink:href="#m2d659fcd41" x="345.083254" y="222.251525" style="fill: #ffd92f; stroke: #ffd92f"/>
     <use xlink:href="#m2d659fcd41" x="361.619139" y="223.571063" style="fill: #ffd92f; stroke: #ffd92f"/>
     <use xlink:href="#m2d659fcd41" x="378.155024" y="224.8906" style="fill: #ffd92f; stroke: #ffd92f"/>
     <use xlink:href="#m2d659fcd41" x="394.690909" y="226.210137" style="fill: #ffd92f; stroke: #ffd92f"/>
    </g>
   </g>
   <g id="line2d_40">
    <path d="M 80.509091 210.256629 
L 97.044976 210.610408 
L 113.580861 210.964188 
L 130.116746 211.317968 
L 146.652632 211.671748 
L 163.188517 212.025528 
L 179.724402 212.379308 
L 196.260287 212.733088 
L 212.796172 213.086867 
L 229.332057 213.440647 
L 245.867943 213.794427 
L 262.403828 214.148207 
L 278.939713 214.501987 
L 295.475598 214.855767 
L 312.011483 215.209547 
L 328.547368 215.563327 
L 345.083254 215.917106 
L 361.619139 216.270886 
L 378.155024 216.624666 
L 394.690909 216.978446 
" clip-path="url(#p8b0dd95f0d)" style="fill: none; stroke: #ffd92f; stroke-width: 1.5; stroke-linecap: round"/>
   </g>
   <g id="line2d_41">
    <path d="M 80.509091 210.256629 
L 97.044976 210.610408 
L 113.580861 210.964188 
L 130.116746 211.317968 
L 146.652632 211.671748 
L 163.188517 212.025528 
L 179.724402 212.379308 
L 196.260287 212.733088 
L 212.796172 213.086867 
L 229.332057 213.440647 
L 245.867943 213.794427 
L 262.403828 214.148207 
L 278.939713 214.501987 
L 295.475598 214.855767 
L 312.011483 215.209547 
L 328.547368 215.563327 
L 345.083254 215.917106 
L 361.619139 216.270886 
L 378.155024 216.624666 
L 394.690909 216.978446 
" clip-path="url(#p8b0dd95f0d)" style="fill: none; stroke: #ffd92f; stroke-width: 1.5; stroke-linecap: round"/>
    <g clip-path="url(#p8b0dd95f0d)">
     <use xlink:href="#m2d659fcd41" x="80.509091" y="210.256629" style="fill: #ffd92f; stroke: #ffd92f"/>
     <use xlink:href="#m2d659fcd41" x="97.044976" y="210.610408" style="fill: #ffd92f; stroke: #ffd92f"/>
     <use xlink:href="#m2d659fcd41" x="113.580861" y="210.964188" style="fill: #ffd92f; stroke: #ffd92f"/>
     <use xlink:href="#m2d659fcd41" x="130.116746" y="211.317968" style="fill: #ffd92f; stroke: #ffd92f"/>
     <use xlink:href="#m2d659fcd41" x="146.652632" y="211.671748" style="fill: #ffd92f; stroke: #ffd92f"/>
     <use xlink:href="#m2d659fcd41" x="163.188517" y="212.025528" style="fill: #ffd92f; stroke: #ffd92f"/>
     <use xlink:href="#m2d659fcd41" x="179.724402" y="212.379308" style="fill: #ffd92f; stroke: #ffd92f"/>
     <use xlink:href="#m2d659fcd41" x="196.260287" y="212.733088" style="fill: #ffd92f; stroke: #ffd92f"/>
     <use xlink:href="#m2d659fcd41" x="212.796172" y="213.086867" style="fill: #ffd92f; stroke: #ffd92f"/>
     <use xlink:href="#m2d659fcd41" x="229.332057" y="213.440647" style="fill: #ffd92f; stroke: #ffd92f"/>
     <use xlink:href="#m2d659fcd41" x="245.867943" y="213.794427" style="fill: #ffd92f; stroke: #ffd92f"/>
     <use xlink:href="#m2d659fcd41" x="262.403828" y="214.148207" style="fill: #ffd92f; stroke: #ffd92f"/>
     <use xlink:href="#m2d659fcd41" x="278.939713" y="214.501987" style="fill: #ffd92f; stroke: #ffd92f"/>
     <use xlink:href="#m2d659fcd41" x="295.475598" y="214.855767" style="fill: #ffd92f; stroke: #ffd92f"/>
     <use xlink:href="#m2d659fcd41" x="312.011483" y="215.209547" style="fill: #ffd92f; stroke: #ffd92f"/>
     <use xlink:href="#m2d659fcd41" x="328.547368" y="215.563327" style="fill: #ffd92f; stroke: #ffd92f"/>
     <use xlink:href="#m2d659fcd41" x="345.083254" y="215.917106" style="fill: #ffd92f; stroke: #ffd92f"/>
     <use xlink:href="#m2d659fcd41" x="361.619139" y="216.270886" style="fill: #ffd92f; stroke: #ffd92f"/>
     <use xlink:href="#m2d659fcd41" x="378.155024" y="216.624666" style="fill: #ffd92f; stroke: #ffd92f"/>
     <use xlink:href="#m2d659fcd41" x="394.690909" y="216.978446" style="fill: #ffd92f; stroke: #ffd92f"/>
    </g>
   </g>
   <g id="line2d_42">
    <path d="M 80.509091 210.138611 
L 97.044976 210.138611 
L 113.580861 210.138611 
L 130.116746 211.271144 
L 146.652632 212.403677 
L 163.188517 213.53621 
L 179.724402 214.668742 
L 196.260287 215.801275 
L 212.796172 216.933808 
L 229.332057 218.066341 
L 245.867943 219.198874 
L 262.403828 220.331407 
L 278.939713 221.463939 
L 295.475598 222.596472 
L 312.011483 223.729005 
L 328.547368 224.861538 
L 345.083254 225.994071 
L 361.619139 227.126604 
L 378.155024 228.259136 
L 394.690909 229.391669 
" clip-path="url(#p8b0dd95f0d)" style="fill: none; stroke: #ffd92f; stroke-width: 1.5; stroke-linecap: round"/>
   </g>
   <g id="line2d_43">
    <path d="M 80.509091 210.138611 
L 97.044976 210.138611 
L 113.580861 210.138611 
L 130.116746 211.271144 
L 146.652632 212.403677 
L 163.188517 213.53621 
L 179.724402 214.668742 
L 196.260287 215.801275 
L 212.796172 216.933808 
L 229.332057 218.066341 
L 245.867943 219.198874 
L 262.403828 220.331407 
L 278.939713 221.463939 
L 295.475598 222.596472 
L 312.011483 223.729005 
L 328.547368 224.861538 
L 345.083254 225.994071 
L 361.619139 227.126604 
L 378.155024 228.259136 
L 394.690909 229.391669 
" clip-path="url(#p8b0dd95f0d)" style="fill: none; stroke: #ffd92f; stroke-width: 1.5; stroke-linecap: round"/>
    <g clip-path="url(#p8b0dd95f0d)">
     <use xlink:href="#m2d659fcd41" x="80.509091" y="210.138611" style="fill: #ffd92f; stroke: #ffd92f"/>
     <use xlink:href="#m2d659fcd41" x="97.044976" y="210.138611" style="fill: #ffd92f; stroke: #ffd92f"/>
     <use xlink:href="#m2d659fcd41" x="113.580861" y="210.138611" style="fill: #ffd92f; stroke: #ffd92f"/>
     <use xlink:href="#m2d659fcd41" x="130.116746" y="211.271144" style="fill: #ffd92f; stroke: #ffd92f"/>
     <use xlink:href="#m2d659fcd41" x="146.652632" y="212.403677" style="fill: #ffd92f; stroke: #ffd92f"/>
     <use xlink:href="#m2d659fcd41" x="163.188517" y="213.53621" style="fill: #ffd92f; stroke: #ffd92f"/>
     <use xlink:href="#m2d659fcd41" x="179.724402" y="214.668742" style="fill: #ffd92f; stroke: #ffd92f"/>
     <use xlink:href="#m2d659fcd41" x="196.260287" y="215.801275" style="fill: #ffd92f; stroke: #ffd92f"/>
     <use xlink:href="#m2d659fcd41" x="212.796172" y="216.933808" style="fill: #ffd92f; stroke: #ffd92f"/>
     <use xlink:href="#m2d659fcd41" x="229.332057" y="218.066341" style="fill: #ffd92f; stroke: #ffd92f"/>
     <use xlink:href="#m2d659fcd41" x="245.867943" y="219.198874" style="fill: #ffd92f; stroke: #ffd92f"/>
     <use xlink:href="#m2d659fcd41" x="262.403828" y="220.331407" style="fill: #ffd92f; stroke: #ffd92f"/>
     <use xlink:href="#m2d659fcd41" x="278.939713" y="221.463939" style="fill: #ffd92f; stroke: #ffd92f"/>
     <use xlink:href="#m2d659fcd41" x="295.475598" y="222.596472" style="fill: #ffd92f; stroke: #ffd92f"/>
     <use xlink:href="#m2d659fcd41" x="312.011483" y="223.729005" style="fill: #ffd92f; stroke: #ffd92f"/>
     <use xlink:href="#m2d659fcd41" x="328.547368" y="224.861538" style="fill: #ffd92f; stroke: #ffd92f"/>
     <use xlink:href="#m2d659fcd41" x="345.083254" y="225.994071" style="fill: #ffd92f; stroke: #ffd92f"/>
     <use xlink:href="#m2d659fcd41" x="361.619139" y="227.126604" style="fill: #ffd92f; stroke: #ffd92f"/>
     <use xlink:href="#m2d659fcd41" x="378.155024" y="228.259136" style="fill: #ffd92f; stroke: #ffd92f"/>
     <use xlink:href="#m2d659fcd41" x="394.690909" y="229.391669" style="fill: #ffd92f; stroke: #ffd92f"/>
    </g>
   </g>
   <g id="line2d_44">
    <path d="M 80.509091 210.119535 
L 97.044976 210.119535 
L 113.580861 210.119535 
L 130.116746 210.119535 
L 146.652632 211.478018 
L 163.188517 212.8365 
L 179.724402 214.194982 
L 196.260287 215.553464 
L 212.796172 216.911947 
L 229.332057 218.270429 
L 245.867943 219.628911 
L 262.403828 220.987393 
L 278.939713 222.345876 
L 295.475598 223.704358 
L 312.011483 225.06284 
L 328.547368 226.421322 
L 345.083254 227.779805 
L 361.619139 229.138287 
L 378.155024 230.496769 
L 394.690909 231.855252 
" clip-path="url(#p8b0dd95f0d)" style="fill: none; stroke: #ffd92f; stroke-width: 1.5; stroke-linecap: round"/>
   </g>
   <g id="line2d_45">
    <path d="M 80.509091 210.119535 
L 97.044976 210.119535 
L 113.580861 210.119535 
L 130.116746 210.119535 
L 146.652632 211.478018 
L 163.188517 212.8365 
L 179.724402 214.194982 
L 196.260287 215.553464 
L 212.796172 216.911947 
L 229.332057 218.270429 
L 245.867943 219.628911 
L 262.403828 220.987393 
L 278.939713 222.345876 
L 295.475598 223.704358 
L 312.011483 225.06284 
L 328.547368 226.421322 
L 345.083254 227.779805 
L 361.619139 229.138287 
L 378.155024 230.496769 
L 394.690909 231.855252 
" clip-path="url(#p8b0dd95f0d)" style="fill: none; stroke: #ffd92f; stroke-width: 1.5; stroke-linecap: round"/>
    <g clip-path="url(#p8b0dd95f0d)">
     <use xlink:href="#m2d659fcd41" x="80.509091" y="210.119535" style="fill: #ffd92f; stroke: #ffd92f"/>
     <use xlink:href="#m2d659fcd41" x="97.044976" y="210.119535" style="fill: #ffd92f; stroke: #ffd92f"/>
     <use xlink:href="#m2d659fcd41" x="113.580861" y="210.119535" style="fill: #ffd92f; stroke: #ffd92f"/>
     <use xlink:href="#m2d659fcd41" x="130.116746" y="210.119535" style="fill: #ffd92f; stroke: #ffd92f"/>
     <use xlink:href="#m2d659fcd41" x="146.652632" y="211.478018" style="fill: #ffd92f; stroke: #ffd92f"/>
     <use xlink:href="#m2d659fcd41" x="163.188517" y="212.8365" style="fill: #ffd92f; stroke: #ffd92f"/>
     <use xlink:href="#m2d659fcd41" x="179.724402" y="214.194982" style="fill: #ffd92f; stroke: #ffd92f"/>
     <use xlink:href="#m2d659fcd41" x="196.260287" y="215.553464" style="fill: #ffd92f; stroke: #ffd92f"/>
     <use xlink:href="#m2d659fcd41" x="212.796172" y="216.911947" style="fill: #ffd92f; stroke: #ffd92f"/>
     <use xlink:href="#m2d659fcd41" x="229.332057" y="218.270429" style="fill: #ffd92f; stroke: #ffd92f"/>
     <use xlink:href="#m2d659fcd41" x="245.867943" y="219.628911" style="fill: #ffd92f; stroke: #ffd92f"/>
     <use xlink:href="#m2d659fcd41" x="262.403828" y="220.987393" style="fill: #ffd92f; stroke: #ffd92f"/>
     <use xlink:href="#m2d659fcd41" x="278.939713" y="222.345876" style="fill: #ffd92f; stroke: #ffd92f"/>
     <use xlink:href="#m2d659fcd41" x="295.475598" y="223.704358" style="fill: #ffd92f; stroke: #ffd92f"/>
     <use xlink:href="#m2d659fcd41" x="312.011483" y="225.06284" style="fill: #ffd92f; stroke: #ffd92f"/>
     <use xlink:href="#m2d659fcd41" x="328.547368" y="226.421322" style="fill: #ffd92f; stroke: #ffd92f"/>
     <use xlink:href="#m2d659fcd41" x="345.083254" y="227.779805" style="fill: #ffd92f; stroke: #ffd92f"/>
     <use xlink:href="#m2d659fcd41" x="361.619139" y="229.138287" style="fill: #ffd92f; stroke: #ffd92f"/>
     <use xlink:href="#m2d659fcd41" x="378.155024" y="230.496769" style="fill: #ffd92f; stroke: #ffd92f"/>
     <use xlink:href="#m2d659fcd41" x="394.690909" y="231.855252" style="fill: #ffd92f; stroke: #ffd92f"/>
    </g>
   </g>
   <g id="line2d_46">
    <path d="M 80.509091 178.370731 
L 97.044976 178.837363 
L 113.580861 181.793309 
L 130.116746 185.531271 
L 146.652632 191.843452 
L 163.188517 198.682625 
L 179.724402 212.616864 
L 196.260287 221.298415 
L 212.796172 228.616392 
L 229.332057 235.580097 
L 245.867943 242.451685 
L 262.403828 249.299302 
L 278.939713 256.140676 
L 295.475598 262.980423 
L 312.011483 269.819746 
L 328.547368 276.658958 
L 345.083254 283.498141 
L 361.619139 290.337316 
L 378.155024 297.17649 
L 394.690909 304.015663 
" clip-path="url(#p8b0dd95f0d)" style="fill: none; stroke-dasharray: 24,6; stroke-dashoffset: 0; stroke: #000000; stroke-width: 3"/>
   </g>
   <g id="patch_3">
    <path d="M 64.8 460.8 
L 64.8 86.4 
" style="fill: none; stroke: #cccccc; stroke-width: 1.25; stroke-linejoin: miter; stroke-linecap: square"/>
   </g>
   <g id="patch_4">
    <path d="M 410.4 460.8 
L 410.4 86.4 
" style="fill: none; stroke: #cccccc; stroke-width: 1.25; stroke-linejoin: miter; stroke-linecap: square"/>
   </g>
   <g id="patch_5">
    <path d="M 64.8 460.8 
L 410.4 460.8 
" style="fill: none; stroke: #cccccc; stroke-width: 1.25; stroke-linejoin: miter; stroke-linecap: square"/>
   </g>
   <g id="patch_6">
    <path d="M 64.8 86.4 
L 410.4 86.4 
" style="fill: none; stroke: #cccccc; stroke-width: 1.25; stroke-linejoin: miter; stroke-linecap: square"/>
   </g>
   <g id="text_14">
    <!-- Cluster 2 -->
    <g style="fill: #262626" transform="translate(210.580313 53.52525) scale(0.12 -0.12)">
     <defs>
      <path id="DejaVuSans-43" d="M 4122 4306 
L 4122 3641 
Q 3803 3938 3442 4084 
Q 3081 4231 2675 4231 
Q 1875 4231 1450 3742 
Q 1025 3253 1025 2328 
Q 1025 1406 1450 917 
Q 1875 428 2675 428 
Q 3081 428 3442 575 
Q 3803 722 4122 1019 
L 4122 359 
Q 3791 134 3420 21 
Q 3050 -91 2638 -91 
Q 1578 -91 968 557 
Q 359 1206 359 2328 
Q 359 3453 968 4101 
Q 1578 4750 2638 4750 
Q 3056 4750 3426 4639 
Q 3797 4528 4122 4306 
z
" transform="scale(0.015625)"/>
      <path id="DejaVuSans-6c" d="M 603 4863 
L 1178 4863 
L 1178 0 
L 603 0 
L 603 4863 
z
" transform="scale(0.015625)"/>
      <path id="DejaVuSans-75" d="M 544 1381 
L 544 3500 
L 1119 3500 
L 1119 1403 
Q 1119 906 1312 657 
Q 1506 409 1894 409 
Q 2359 409 2629 706 
Q 2900 1003 2900 1516 
L 2900 3500 
L 3475 3500 
L 3475 0 
L 2900 0 
L 2900 538 
Q 2691 219 2414 64 
Q 2138 -91 1772 -91 
Q 1169 -91 856 284 
Q 544 659 544 1381 
z
M 1991 3584 
L 1991 3584 
z
" transform="scale(0.015625)"/>
      <path id="DejaVuSans-73" d="M 2834 3397 
L 2834 2853 
Q 2591 2978 2328 3040 
Q 2066 3103 1784 3103 
Q 1356 3103 1142 2972 
Q 928 2841 928 2578 
Q 928 2378 1081 2264 
Q 1234 2150 1697 2047 
L 1894 2003 
Q 2506 1872 2764 1633 
Q 3022 1394 3022 966 
Q 3022 478 2636 193 
Q 2250 -91 1575 -91 
Q 1294 -91 989 -36 
Q 684 19 347 128 
L 347 722 
Q 666 556 975 473 
Q 1284 391 1588 391 
Q 1994 391 2212 530 
Q 2431 669 2431 922 
Q 2431 1156 2273 1281 
Q 2116 1406 1581 1522 
L 1381 1569 
Q 847 1681 609 1914 
Q 372 2147 372 2553 
Q 372 3047 722 3315 
Q 1072 3584 1716 3584 
Q 2034 3584 2315 3537 
Q 2597 3491 2834 3397 
z
" transform="scale(0.015625)"/>
      <path id="DejaVuSans-74" d="M 1172 4494 
L 1172 3500 
L 2356 3500 
L 2356 3053 
L 1172 3053 
L 1172 1153 
Q 1172 725 1289 603 
Q 1406 481 1766 481 
L 2356 481 
L 2356 0 
L 1766 0 
Q 1100 0 847 248 
Q 594 497 594 1153 
L 594 3053 
L 172 3053 
L 172 3500 
L 594 3500 
L 594 4494 
L 1172 4494 
z
" transform="scale(0.015625)"/>
      <path id="DejaVuSans-65" d="M 3597 1894 
L 3597 1613 
L 953 1613 
Q 991 1019 1311 708 
Q 1631 397 2203 397 
Q 2534 397 2845 478 
Q 3156 559 3463 722 
L 3463 178 
Q 3153 47 2828 -22 
Q 2503 -91 2169 -91 
Q 1331 -91 842 396 
Q 353 884 353 1716 
Q 353 2575 817 3079 
Q 1281 3584 2069 3584 
Q 2775 3584 3186 3129 
Q 3597 2675 3597 1894 
z
M 3022 2063 
Q 3016 2534 2758 2815 
Q 2500 3097 2075 3097 
Q 1594 3097 1305 2825 
Q 1016 2553 972 2059 
L 3022 2063 
z
" transform="scale(0.015625)"/>
      <path id="DejaVuSans-72" d="M 2631 2963 
Q 2534 3019 2420 3045 
Q 2306 3072 2169 3072 
Q 1681 3072 1420 2755 
Q 1159 2438 1159 1844 
L 1159 0 
L 581 0 
L 581 3500 
L 1159 3500 
L 1159 2956 
Q 1341 3275 1631 3429 
Q 1922 3584 2338 3584 
Q 2397 3584 2469 3576 
Q 2541 3569 2628 3553 
L 2631 2963 
z
" transform="scale(0.015625)"/>
      <path id="DejaVuSans-20" transform="scale(0.015625)"/>
     </defs>
     <use xlink:href="#DejaVuSans-43"/>
     <use xlink:href="#DejaVuSans-6c" transform="translate(69.824219 0)"/>
     <use xlink:href="#DejaVuSans-75" transform="translate(97.607422 0)"/>
     <use xlink:href="#DejaVuSans-73" transform="translate(160.986328 0)"/>
     <use xlink:href="#DejaVuSans-74" transform="translate(213.085938 0)"/>
     <use xlink:href="#DejaVuSans-65" transform="translate(252.294922 0)"/>
     <use xlink:href="#DejaVuSans-72" transform="translate(313.818359 0)"/>
     <use xlink:href="#DejaVuSans-20" transform="translate(354.931641 0)"/>
     <use xlink:href="#DejaVuSans-32" transform="translate(386.71875 0)"/>
    </g>
    <!-- 16 Trajectories  -->
    <g style="fill: #262626" transform="translate(191.595938 66.962625) scale(0.12 -0.12)">
     <defs>
      <path id="DejaVuSans-36" d="M 2113 2584 
Q 1688 2584 1439 2293 
Q 1191 2003 1191 1497 
Q 1191 994 1439 701 
Q 1688 409 2113 409 
Q 2538 409 2786 701 
Q 3034 994 3034 1497 
Q 3034 2003 2786 2293 
Q 2538 2584 2113 2584 
z
M 3366 4563 
L 3366 3988 
Q 3128 4100 2886 4159 
Q 2644 4219 2406 4219 
Q 1781 4219 1451 3797 
Q 1122 3375 1075 2522 
Q 1259 2794 1537 2939 
Q 1816 3084 2150 3084 
Q 2853 3084 3261 2657 
Q 3669 2231 3669 1497 
Q 3669 778 3244 343 
Q 2819 -91 2113 -91 
Q 1303 -91 875 529 
Q 447 1150 447 2328 
Q 447 3434 972 4092 
Q 1497 4750 2381 4750 
Q 2619 4750 2861 4703 
Q 3103 4656 3366 4563 
z
" transform="scale(0.015625)"/>
      <path id="DejaVuSans-54" d="M -19 4666 
L 3928 4666 
L 3928 4134 
L 2272 4134 
L 2272 0 
L 1638 0 
L 1638 4134 
L -19 4134 
L -19 4666 
z
" transform="scale(0.015625)"/>
      <path id="DejaVuSans-61" d="M 2194 1759 
Q 1497 1759 1228 1600 
Q 959 1441 959 1056 
Q 959 750 1161 570 
Q 1363 391 1709 391 
Q 2188 391 2477 730 
Q 2766 1069 2766 1631 
L 2766 1759 
L 2194 1759 
z
M 3341 1997 
L 3341 0 
L 2766 0 
L 2766 531 
Q 2569 213 2275 61 
Q 1981 -91 1556 -91 
Q 1019 -91 701 211 
Q 384 513 384 1019 
Q 384 1609 779 1909 
Q 1175 2209 1959 2209 
L 2766 2209 
L 2766 2266 
Q 2766 2663 2505 2880 
Q 2244 3097 1772 3097 
Q 1472 3097 1187 3025 
Q 903 2953 641 2809 
L 641 3341 
Q 956 3463 1253 3523 
Q 1550 3584 1831 3584 
Q 2591 3584 2966 3190 
Q 3341 2797 3341 1997 
z
" transform="scale(0.015625)"/>
      <path id="DejaVuSans-6a" d="M 603 3500 
L 1178 3500 
L 1178 -63 
Q 1178 -731 923 -1031 
Q 669 -1331 103 -1331 
L -116 -1331 
L -116 -844 
L 38 -844 
Q 366 -844 484 -692 
Q 603 -541 603 -63 
L 603 3500 
z
M 603 4863 
L 1178 4863 
L 1178 4134 
L 603 4134 
L 603 4863 
z
" transform="scale(0.015625)"/>
      <path id="DejaVuSans-63" d="M 3122 3366 
L 3122 2828 
Q 2878 2963 2633 3030 
Q 2388 3097 2138 3097 
Q 1578 3097 1268 2742 
Q 959 2388 959 1747 
Q 959 1106 1268 751 
Q 1578 397 2138 397 
Q 2388 397 2633 464 
Q 2878 531 3122 666 
L 3122 134 
Q 2881 22 2623 -34 
Q 2366 -91 2075 -91 
Q 1284 -91 818 406 
Q 353 903 353 1747 
Q 353 2603 823 3093 
Q 1294 3584 2113 3584 
Q 2378 3584 2631 3529 
Q 2884 3475 3122 3366 
z
" transform="scale(0.015625)"/>
      <path id="DejaVuSans-6f" d="M 1959 3097 
Q 1497 3097 1228 2736 
Q 959 2375 959 1747 
Q 959 1119 1226 758 
Q 1494 397 1959 397 
Q 2419 397 2687 759 
Q 2956 1122 2956 1747 
Q 2956 2369 2687 2733 
Q 2419 3097 1959 3097 
z
M 1959 3584 
Q 2709 3584 3137 3096 
Q 3566 2609 3566 1747 
Q 3566 888 3137 398 
Q 2709 -91 1959 -91 
Q 1206 -91 779 398 
Q 353 888 353 1747 
Q 353 2609 779 3096 
Q 1206 3584 1959 3584 
z
" transform="scale(0.015625)"/>
      <path id="DejaVuSans-69" d="M 603 3500 
L 1178 3500 
L 1178 0 
L 603 0 
L 603 3500 
z
M 603 4863 
L 1178 4863 
L 1178 4134 
L 603 4134 
L 603 4863 
z
" transform="scale(0.015625)"/>
     </defs>
     <use xlink:href="#DejaVuSans-31"/>
     <use xlink:href="#DejaVuSans-36" transform="translate(63.623047 0)"/>
     <use xlink:href="#DejaVuSans-20" transform="translate(127.246094 0)"/>
     <use xlink:href="#DejaVuSans-54" transform="translate(159.033203 0)"/>
     <use xlink:href="#DejaVuSans-72" transform="translate(205.367188 0)"/>
     <use xlink:href="#DejaVuSans-61" transform="translate(246.480469 0)"/>
     <use xlink:href="#DejaVuSans-6a" transform="translate(307.759766 0)"/>
     <use xlink:href="#DejaVuSans-65" transform="translate(335.542969 0)"/>
     <use xlink:href="#DejaVuSans-63" transform="translate(397.066406 0)"/>
     <use xlink:href="#DejaVuSans-74" transform="translate(452.046875 0)"/>
     <use xlink:href="#DejaVuSans-6f" transform="translate(491.255859 0)"/>
     <use xlink:href="#DejaVuSans-72" transform="translate(552.4375 0)"/>
     <use xlink:href="#DejaVuSans-69" transform="translate(593.550781 0)"/>
     <use xlink:href="#DejaVuSans-65" transform="translate(621.333984 0)"/>
     <use xlink:href="#DejaVuSans-73" transform="translate(682.857422 0)"/>
     <use xlink:href="#DejaVuSans-20" transform="translate(734.957031 0)"/>
    </g>
    <!--  Colored by: func_old -->
    <g style="fill: #262626" transform="translate(174.737813 80.4) scale(0.12 -0.12)">
     <defs>
      <path id="DejaVuSans-64" d="M 2906 2969 
L 2906 4863 
L 3481 4863 
L 3481 0 
L 2906 0 
L 2906 525 
Q 2725 213 2448 61 
Q 2172 -91 1784 -91 
Q 1150 -91 751 415 
Q 353 922 353 1747 
Q 353 2572 751 3078 
Q 1150 3584 1784 3584 
Q 2172 3584 2448 3432 
Q 2725 3281 2906 2969 
z
M 947 1747 
Q 947 1113 1208 752 
Q 1469 391 1925 391 
Q 2381 391 2643 752 
Q 2906 1113 2906 1747 
Q 2906 2381 2643 2742 
Q 2381 3103 1925 3103 
Q 1469 3103 1208 2742 
Q 947 2381 947 1747 
z
" transform="scale(0.015625)"/>
      <path id="DejaVuSans-62" d="M 3116 1747 
Q 3116 2381 2855 2742 
Q 2594 3103 2138 3103 
Q 1681 3103 1420 2742 
Q 1159 2381 1159 1747 
Q 1159 1113 1420 752 
Q 1681 391 2138 391 
Q 2594 391 2855 752 
Q 3116 1113 3116 1747 
z
M 1159 2969 
Q 1341 3281 1617 3432 
Q 1894 3584 2278 3584 
Q 2916 3584 3314 3078 
Q 3713 2572 3713 1747 
Q 3713 922 3314 415 
Q 2916 -91 2278 -91 
Q 1894 -91 1617 61 
Q 1341 213 1159 525 
L 1159 0 
L 581 0 
L 581 4863 
L 1159 4863 
L 1159 2969 
z
" transform="scale(0.015625)"/>
      <path id="DejaVuSans-79" d="M 2059 -325 
Q 1816 -950 1584 -1140 
Q 1353 -1331 966 -1331 
L 506 -1331 
L 506 -850 
L 844 -850 
Q 1081 -850 1212 -737 
Q 1344 -625 1503 -206 
L 1606 56 
L 191 3500 
L 800 3500 
L 1894 763 
L 2988 3500 
L 3597 3500 
L 2059 -325 
z
" transform="scale(0.015625)"/>
      <path id="DejaVuSans-3a" d="M 750 794 
L 1409 794 
L 1409 0 
L 750 0 
L 750 794 
z
M 750 3309 
L 1409 3309 
L 1409 2516 
L 750 2516 
L 750 3309 
z
" transform="scale(0.015625)"/>
      <path id="DejaVuSans-66" d="M 2375 4863 
L 2375 4384 
L 1825 4384 
Q 1516 4384 1395 4259 
Q 1275 4134 1275 3809 
L 1275 3500 
L 2222 3500 
L 2222 3053 
L 1275 3053 
L 1275 0 
L 697 0 
L 697 3053 
L 147 3053 
L 147 3500 
L 697 3500 
L 697 3744 
Q 697 4328 969 4595 
Q 1241 4863 1831 4863 
L 2375 4863 
z
" transform="scale(0.015625)"/>
      <path id="DejaVuSans-6e" d="M 3513 2113 
L 3513 0 
L 2938 0 
L 2938 2094 
Q 2938 2591 2744 2837 
Q 2550 3084 2163 3084 
Q 1697 3084 1428 2787 
Q 1159 2491 1159 1978 
L 1159 0 
L 581 0 
L 581 3500 
L 1159 3500 
L 1159 2956 
Q 1366 3272 1645 3428 
Q 1925 3584 2291 3584 
Q 2894 3584 3203 3211 
Q 3513 2838 3513 2113 
z
" transform="scale(0.015625)"/>
      <path id="DejaVuSans-5f" d="M 3263 -1063 
L 3263 -1509 
L -63 -1509 
L -63 -1063 
L 3263 -1063 
z
" transform="scale(0.015625)"/>
     </defs>
     <use xlink:href="#DejaVuSans-20"/>
     <use xlink:href="#DejaVuSans-43" transform="translate(31.787109 0)"/>
     <use xlink:href="#DejaVuSans-6f" transform="translate(101.611328 0)"/>
     <use xlink:href="#DejaVuSans-6c" transform="translate(162.792969 0)"/>
     <use xlink:href="#DejaVuSans-6f" transform="translate(190.576172 0)"/>
     <use xlink:href="#DejaVuSans-72" transform="translate(251.757812 0)"/>
     <use xlink:href="#DejaVuSans-65" transform="translate(290.621094 0)"/>
     <use xlink:href="#DejaVuSans-64" transform="translate(352.144531 0)"/>
     <use xlink:href="#DejaVuSans-20" transform="translate(415.621094 0)"/>
     <use xlink:href="#DejaVuSans-62" transform="translate(447.408203 0)"/>
     <use xlink:href="#DejaVuSans-79" transform="translate(510.884766 0)"/>
     <use xlink:href="#DejaVuSans-3a" transform="translate(562.814453 0)"/>
     <use xlink:href="#DejaVuSans-20" transform="translate(596.505859 0)"/>
     <use xlink:href="#DejaVuSans-66" transform="translate(628.292969 0)"/>
     <use xlink:href="#DejaVuSans-75" transform="translate(663.498047 0)"/>
     <use xlink:href="#DejaVuSans-6e" transform="translate(726.876953 0)"/>
     <use xlink:href="#DejaVuSans-63" transform="translate(790.255859 0)"/>
     <use xlink:href="#DejaVuSans-5f" transform="translate(845.236328 0)"/>
     <use xlink:href="#DejaVuSans-6f" transform="translate(895.236328 0)"/>
     <use xlink:href="#DejaVuSans-6c" transform="translate(956.417969 0)"/>
     <use xlink:href="#DejaVuSans-64" transform="translate(984.201172 0)"/>
    </g>
   </g>
   <g id="legend_1">
    <g id="patch_7">
     <path d="M 302.823438 159.78375 
L 402.7 159.78375 
Q 404.9 159.78375 404.9 157.58375 
L 404.9 94.1 
Q 404.9 91.9 402.7 91.9 
L 302.823438 91.9 
Q 300.623438 91.9 300.623438 94.1 
L 300.623438 157.58375 
Q 300.623438 159.78375 302.823438 159.78375 
z
" style="fill: #ffffff; opacity: 0.8; stroke: #cccccc; stroke-linejoin: miter"/>
    </g>
    <g id="line2d_47">
     <path d="M 305.023438 100.808281 
L 316.023438 100.808281 
L 327.023438 100.808281 
" style="fill: none; stroke: #66c2a5; stroke-width: 1.5; stroke-linecap: round"/>
    </g>
    <g id="text_15">
     <!-- exponential -->
     <g style="fill: #262626" transform="translate(335.823438 104.658281) scale(0.11 -0.11)">
      <defs>
       <path id="DejaVuSans-78" d="M 3513 3500 
L 2247 1797 
L 3578 0 
L 2900 0 
L 1881 1375 
L 863 0 
L 184 0 
L 1544 1831 
L 300 3500 
L 978 3500 
L 1906 2253 
L 2834 3500 
L 3513 3500 
z
" transform="scale(0.015625)"/>
       <path id="DejaVuSans-70" d="M 1159 525 
L 1159 -1331 
L 581 -1331 
L 581 3500 
L 1159 3500 
L 1159 2969 
Q 1341 3281 1617 3432 
Q 1894 3584 2278 3584 
Q 2916 3584 3314 3078 
Q 3713 2572 3713 1747 
Q 3713 922 3314 415 
Q 2916 -91 2278 -91 
Q 1894 -91 1617 61 
Q 1341 213 1159 525 
z
M 3116 1747 
Q 3116 2381 2855 2742 
Q 2594 3103 2138 3103 
Q 1681 3103 1420 2742 
Q 1159 2381 1159 1747 
Q 1159 1113 1420 752 
Q 1681 391 2138 391 
Q 2594 391 2855 752 
Q 3116 1113 3116 1747 
z
" transform="scale(0.015625)"/>
      </defs>
      <use xlink:href="#DejaVuSans-65"/>
      <use xlink:href="#DejaVuSans-78" transform="translate(59.773438 0)"/>
      <use xlink:href="#DejaVuSans-70" transform="translate(118.953125 0)"/>
      <use xlink:href="#DejaVuSans-6f" transform="translate(182.429688 0)"/>
      <use xlink:href="#DejaVuSans-6e" transform="translate(243.611328 0)"/>
      <use xlink:href="#DejaVuSans-65" transform="translate(306.990234 0)"/>
      <use xlink:href="#DejaVuSans-6e" transform="translate(368.513672 0)"/>
      <use xlink:href="#DejaVuSans-74" transform="translate(431.892578 0)"/>
      <use xlink:href="#DejaVuSans-69" transform="translate(471.101562 0)"/>
      <use xlink:href="#DejaVuSans-61" transform="translate(498.884766 0)"/>
      <use xlink:href="#DejaVuSans-6c" transform="translate(560.164062 0)"/>
     </g>
    </g>
    <g id="line2d_48">
     <path d="M 305.023438 116.954219 
L 316.023438 116.954219 
L 327.023438 116.954219 
" style="fill: none; stroke: #e78ac3; stroke-width: 1.5; stroke-linecap: round"/>
    </g>
    <g id="text_16">
     <!-- linear -->
     <g style="fill: #262626" transform="translate(335.823438 120.804219) scale(0.11 -0.11)">
      <use xlink:href="#DejaVuSans-6c"/>
      <use xlink:href="#DejaVuSans-69" transform="translate(27.783203 0)"/>
      <use xlink:href="#DejaVuSans-6e" transform="translate(55.566406 0)"/>
      <use xlink:href="#DejaVuSans-65" transform="translate(118.945312 0)"/>
      <use xlink:href="#DejaVuSans-61" transform="translate(180.46875 0)"/>
      <use xlink:href="#DejaVuSans-72" transform="translate(241.748047 0)"/>
     </g>
    </g>
    <g id="line2d_49">
     <path d="M 305.023438 133.100156 
L 316.023438 133.100156 
L 327.023438 133.100156 
" style="fill: none; stroke: #ffd92f; stroke-width: 1.5; stroke-linecap: round"/>
    </g>
    <g id="text_17">
     <!-- poly -->
     <g style="fill: #262626" transform="translate(335.823438 136.950156) scale(0.11 -0.11)">
      <use xlink:href="#DejaVuSans-70"/>
      <use xlink:href="#DejaVuSans-6f" transform="translate(63.476562 0)"/>
      <use xlink:href="#DejaVuSans-6c" transform="translate(124.658203 0)"/>
      <use xlink:href="#DejaVuSans-79" transform="translate(152.441406 0)"/>
     </g>
    </g>
    <g id="line2d_50">
     <path d="M 305.023438 149.246094 
L 316.023438 149.246094 
L 327.023438 149.246094 
" style="fill: none; stroke-dasharray: 24,6; stroke-dashoffset: 0; stroke: #000000; stroke-width: 3"/>
    </g>
    <g id="text_18">
     <!-- Mean -->
     <g style="fill: #262626" transform="translate(335.823438 153.096094) scale(0.11 -0.11)">
      <defs>
       <path id="DejaVuSans-4d" d="M 628 4666 
L 1569 4666 
L 2759 1491 
L 3956 4666 
L 4897 4666 
L 4897 0 
L 4281 0 
L 4281 4097 
L 3078 897 
L 2444 897 
L 1241 4097 
L 1241 0 
L 628 0 
L 628 4666 
z
" transform="scale(0.015625)"/>
      </defs>
      <use xlink:href="#DejaVuSans-4d"/>
      <use xlink:href="#DejaVuSans-65" transform="translate(86.279297 0)"/>
      <use xlink:href="#DejaVuSans-61" transform="translate(147.802734 0)"/>
      <use xlink:href="#DejaVuSans-6e" transform="translate(209.082031 0)"/>
     </g>
    </g>
   </g>
  </g>
 </g>
 <defs>
  <clipPath id="p8b0dd95f0d">
   <rect x="64.8" y="86.4" width="345.6" height="374.4"/>
  </clipPath>
 </defs>
</svg>
