<?xml version="1.0" encoding="utf-8" standalone="no"?>
<!DOCTYPE svg PUBLIC "-//W3C//DTD SVG 1.1//EN"
  "http://www.w3.org/Graphics/SVG/1.1/DTD/svg11.dtd">
<svg xmlns:xlink="http://www.w3.org/1999/xlink" width="432pt" height="576pt" viewBox="0 0 432 576" xmlns="http://www.w3.org/2000/svg" version="1.1">
 <metadata>
  <rdf:RDF xmlns:dc="http://purl.org/dc/elements/1.1/" xmlns:cc="http://creativecommons.org/ns#" xmlns:rdf="http://www.w3.org/1999/02/22-rdf-syntax-ns#">
   <cc:Work>
    <dc:type rdf:resource="http://purl.org/dc/dcmitype/StillImage"/>
    <dc:date>2025-10-08T19:09:52.229404</dc:date>
    <dc:format>image/svg+xml</dc:format>
    <dc:creator>
     <cc:Agent>
      <dc:title>Matplotlib v3.10.3, https://matplotlib.org/</dc:title>
     </cc:Agent>
    </dc:creator>
   </cc:Work>
  </rdf:RDF>
 </metadata>
 <defs>
  <style type="text/css">*{stroke-linejoin: round; stroke-linecap: butt}</style>
 </defs>
 <g id="figure_1">
  <g id="patch_1">
   <path d="M 0 576 
L 432 576 
L 432 0 
L 0 0 
z
" style="fill: #ffffff"/>
  </g>
  <g id="axes_1">
   <g id="patch_2">
    <path d="M 64.8 460.8 
L 410.4 460.8 
L 410.4 86.4 
L 64.8 86.4 
z
" style="fill: #ffffff"/>
   </g>
   <g id="matplotlib.axis_1">
    <g id="xtick_1">
     <g id="line2d_1">
      <path d="M 102.26721 460.8 
L 102.26721 86.4 
" clip-path="url(#p5bd11c4e9d)" style="fill: none; stroke: #cccccc; stroke-linecap: round"/>
     </g>
     <g id="text_1">
      <!-- 0.0 -->
      <g style="fill: #262626" transform="translate(93.520491 478.658281) scale(0.11 -0.11)">
       <defs>
        <path id="DejaVuSans-30" d="M 2034 4250 
Q 1547 4250 1301 3770 
Q 1056 3291 1056 2328 
Q 1056 1369 1301 889 
Q 1547 409 2034 409 
Q 2525 409 2770 889 
Q 3016 1369 3016 2328 
Q 3016 3291 2770 3770 
Q 2525 4250 2034 4250 
z
M 2034 4750 
Q 2819 4750 3233 4129 
Q 3647 3509 3647 2328 
Q 3647 1150 3233 529 
Q 2819 -91 2034 -91 
Q 1250 -91 836 529 
Q 422 1150 422 2328 
Q 422 3509 836 4129 
Q 1250 4750 2034 4750 
z
" transform="scale(0.015625)"/>
        <path id="DejaVuSans-2e" d="M 684 794 
L 1344 794 
L 1344 0 
L 684 0 
L 684 794 
z
" transform="scale(0.015625)"/>
       </defs>
       <use xlink:href="#DejaVuSans-30"/>
       <use xlink:href="#DejaVuSans-2e" transform="translate(63.623047 0)"/>
       <use xlink:href="#DejaVuSans-30" transform="translate(95.410156 0)"/>
      </g>
     </g>
    </g>
    <g id="xtick_2">
     <g id="line2d_2">
      <path d="M 140.744013 460.8 
L 140.744013 86.4 
" clip-path="url(#p5bd11c4e9d)" style="fill: none; stroke: #cccccc; stroke-linecap: round"/>
     </g>
     <g id="text_2">
      <!-- 2.5 -->
      <g style="fill: #262626" transform="translate(131.997294 478.658281) scale(0.11 -0.11)">
       <defs>
        <path id="DejaVuSans-32" d="M 1228 531 
L 3431 531 
L 3431 0 
L 469 0 
L 469 531 
Q 828 903 1448 1529 
Q 2069 2156 2228 2338 
Q 2531 2678 2651 2914 
Q 2772 3150 2772 3378 
Q 2772 3750 2511 3984 
Q 2250 4219 1831 4219 
Q 1534 4219 1204 4116 
Q 875 4013 500 3803 
L 500 4441 
Q 881 4594 1212 4672 
Q 1544 4750 1819 4750 
Q 2544 4750 2975 4387 
Q 3406 4025 3406 3419 
Q 3406 3131 3298 2873 
Q 3191 2616 2906 2266 
Q 2828 2175 2409 1742 
Q 1991 1309 1228 531 
z
" transform="scale(0.015625)"/>
        <path id="DejaVuSans-35" d="M 691 4666 
L 3169 4666 
L 3169 4134 
L 1269 4134 
L 1269 2991 
Q 1406 3038 1543 3061 
Q 1681 3084 1819 3084 
Q 2600 3084 3056 2656 
Q 3513 2228 3513 1497 
Q 3513 744 3044 326 
Q 2575 -91 1722 -91 
Q 1428 -91 1123 -41 
Q 819 9 494 109 
L 494 744 
Q 775 591 1075 516 
Q 1375 441 1709 441 
Q 2250 441 2565 725 
Q 2881 1009 2881 1497 
Q 2881 1984 2565 2268 
Q 2250 2553 1709 2553 
Q 1456 2553 1204 2497 
Q 953 2441 691 2322 
L 691 4666 
z
" transform="scale(0.015625)"/>
       </defs>
       <use xlink:href="#DejaVuSans-32"/>
       <use xlink:href="#DejaVuSans-2e" transform="translate(63.623047 0)"/>
       <use xlink:href="#DejaVuSans-35" transform="translate(95.410156 0)"/>
      </g>
     </g>
    </g>
    <g id="xtick_3">
     <g id="line2d_3">
      <path d="M 179.220815 460.8 
L 179.220815 86.4 
" clip-path="url(#p5bd11c4e9d)" style="fill: none; stroke: #cccccc; stroke-linecap: round"/>
     </g>
     <g id="text_3">
      <!-- 5.0 -->
      <g style="fill: #262626" transform="translate(170.474096 478.658281) scale(0.11 -0.11)">
       <use xlink:href="#DejaVuSans-35"/>
       <use xlink:href="#DejaVuSans-2e" transform="translate(63.623047 0)"/>
       <use xlink:href="#DejaVuSans-30" transform="translate(95.410156 0)"/>
      </g>
     </g>
    </g>
    <g id="xtick_4">
     <g id="line2d_4">
      <path d="M 217.697618 460.8 
L 217.697618 86.4 
" clip-path="url(#p5bd11c4e9d)" style="fill: none; stroke: #cccccc; stroke-linecap: round"/>
     </g>
     <g id="text_4">
      <!-- 7.5 -->
      <g style="fill: #262626" transform="translate(208.950899 478.658281) scale(0.11 -0.11)">
       <defs>
        <path id="DejaVuSans-37" d="M 525 4666 
L 3525 4666 
L 3525 4397 
L 1831 0 
L 1172 0 
L 2766 4134 
L 525 4134 
L 525 4666 
z
" transform="scale(0.015625)"/>
       </defs>
       <use xlink:href="#DejaVuSans-37"/>
       <use xlink:href="#DejaVuSans-2e" transform="translate(63.623047 0)"/>
       <use xlink:href="#DejaVuSans-35" transform="translate(95.410156 0)"/>
      </g>
     </g>
    </g>
    <g id="xtick_5">
     <g id="line2d_5">
      <path d="M 256.17442 460.8 
L 256.17442 86.4 
" clip-path="url(#p5bd11c4e9d)" style="fill: none; stroke: #cccccc; stroke-linecap: round"/>
     </g>
     <g id="text_5">
      <!-- 10.0 -->
      <g style="fill: #262626" transform="translate(243.928326 478.658281) scale(0.11 -0.11)">
       <defs>
        <path id="DejaVuSans-31" d="M 794 531 
L 1825 531 
L 1825 4091 
L 703 3866 
L 703 4441 
L 1819 4666 
L 2450 4666 
L 2450 531 
L 3481 531 
L 3481 0 
L 794 0 
L 794 531 
z
" transform="scale(0.015625)"/>
       </defs>
       <use xlink:href="#DejaVuSans-31"/>
       <use xlink:href="#DejaVuSans-30" transform="translate(63.623047 0)"/>
       <use xlink:href="#DejaVuSans-2e" transform="translate(127.246094 0)"/>
       <use xlink:href="#DejaVuSans-30" transform="translate(159.033203 0)"/>
      </g>
     </g>
    </g>
    <g id="xtick_6">
     <g id="line2d_6">
      <path d="M 294.651223 460.8 
L 294.651223 86.4 
" clip-path="url(#p5bd11c4e9d)" style="fill: none; stroke: #cccccc; stroke-linecap: round"/>
     </g>
     <g id="text_6">
      <!-- 12.5 -->
      <g style="fill: #262626" transform="translate(282.405129 478.658281) scale(0.11 -0.11)">
       <use xlink:href="#DejaVuSans-31"/>
       <use xlink:href="#DejaVuSans-32" transform="translate(63.623047 0)"/>
       <use xlink:href="#DejaVuSans-2e" transform="translate(127.246094 0)"/>
       <use xlink:href="#DejaVuSans-35" transform="translate(159.033203 0)"/>
      </g>
     </g>
    </g>
    <g id="xtick_7">
     <g id="line2d_7">
      <path d="M 333.128025 460.8 
L 333.128025 86.4 
" clip-path="url(#p5bd11c4e9d)" style="fill: none; stroke: #cccccc; stroke-linecap: round"/>
     </g>
     <g id="text_7">
      <!-- 15.0 -->
      <g style="fill: #262626" transform="translate(320.881931 478.658281) scale(0.11 -0.11)">
       <use xlink:href="#DejaVuSans-31"/>
       <use xlink:href="#DejaVuSans-35" transform="translate(63.623047 0)"/>
       <use xlink:href="#DejaVuSans-2e" transform="translate(127.246094 0)"/>
       <use xlink:href="#DejaVuSans-30" transform="translate(159.033203 0)"/>
      </g>
     </g>
    </g>
    <g id="xtick_8">
     <g id="line2d_8">
      <path d="M 371.604828 460.8 
L 371.604828 86.4 
" clip-path="url(#p5bd11c4e9d)" style="fill: none; stroke: #cccccc; stroke-linecap: round"/>
     </g>
     <g id="text_8">
      <!-- 17.5 -->
      <g style="fill: #262626" transform="translate(359.358734 478.658281) scale(0.11 -0.11)">
       <use xlink:href="#DejaVuSans-31"/>
       <use xlink:href="#DejaVuSans-37" transform="translate(63.623047 0)"/>
       <use xlink:href="#DejaVuSans-2e" transform="translate(127.246094 0)"/>
       <use xlink:href="#DejaVuSans-35" transform="translate(159.033203 0)"/>
      </g>
     </g>
    </g>
    <g id="xtick_9">
     <g id="line2d_9">
      <path d="M 410.08163 460.8 
L 410.08163 86.4 
" clip-path="url(#p5bd11c4e9d)" style="fill: none; stroke: #cccccc; stroke-linecap: round"/>
     </g>
     <g id="text_9">
      <!-- 20.0 -->
      <g style="fill: #262626" transform="translate(397.835536 478.658281) scale(0.11 -0.11)">
       <use xlink:href="#DejaVuSans-32"/>
       <use xlink:href="#DejaVuSans-30" transform="translate(63.623047 0)"/>
       <use xlink:href="#DejaVuSans-2e" transform="translate(127.246094 0)"/>
       <use xlink:href="#DejaVuSans-30" transform="translate(159.033203 0)"/>
      </g>
     </g>
    </g>
   </g>
   <g id="matplotlib.axis_2">
    <g id="ytick_1">
     <g id="line2d_10">
      <path d="M 64.8 381.919474 
L 410.4 381.919474 
" clip-path="url(#p5bd11c4e9d)" style="fill: none; stroke: #cccccc; stroke-linecap: round"/>
     </g>
     <g id="text_10">
      <!-- −100 -->
      <g style="fill: #262626" transform="translate(25.086094 386.098614) scale(0.11 -0.11)">
       <defs>
        <path id="DejaVuSans-2212" d="M 678 2272 
L 4684 2272 
L 4684 1741 
L 678 1741 
L 678 2272 
z
" transform="scale(0.015625)"/>
       </defs>
       <use xlink:href="#DejaVuSans-2212"/>
       <use xlink:href="#DejaVuSans-31" transform="translate(83.789062 0)"/>
       <use xlink:href="#DejaVuSans-30" transform="translate(147.412109 0)"/>
       <use xlink:href="#DejaVuSans-30" transform="translate(211.035156 0)"/>
      </g>
     </g>
    </g>
    <g id="ytick_2">
     <g id="line2d_11">
      <path d="M 64.8 302.988672 
L 410.4 302.988672 
" clip-path="url(#p5bd11c4e9d)" style="fill: none; stroke: #cccccc; stroke-linecap: round"/>
     </g>
     <g id="text_11">
      <!-- −50 -->
      <g style="fill: #262626" transform="translate(32.084844 307.167813) scale(0.11 -0.11)">
       <use xlink:href="#DejaVuSans-2212"/>
       <use xlink:href="#DejaVuSans-35" transform="translate(83.789062 0)"/>
       <use xlink:href="#DejaVuSans-30" transform="translate(147.412109 0)"/>
      </g>
     </g>
    </g>
    <g id="ytick_3">
     <g id="line2d_12">
      <path d="M 64.8 224.057871 
L 410.4 224.057871 
" clip-path="url(#p5bd11c4e9d)" style="fill: none; stroke: #cccccc; stroke-linecap: round"/>
     </g>
     <g id="text_12">
      <!-- 0 -->
      <g style="fill: #262626" transform="translate(48.30125 228.237012) scale(0.11 -0.11)">
       <use xlink:href="#DejaVuSans-30"/>
      </g>
     </g>
    </g>
    <g id="ytick_4">
     <g id="line2d_13">
      <path d="M 64.8 145.12707 
L 410.4 145.12707 
" clip-path="url(#p5bd11c4e9d)" style="fill: none; stroke: #cccccc; stroke-linecap: round"/>
     </g>
     <g id="text_13">
      <!-- 50 -->
      <g style="fill: #262626" transform="translate(41.3025 149.306211) scale(0.11 -0.11)">
       <use xlink:href="#DejaVuSans-35"/>
       <use xlink:href="#DejaVuSans-30" transform="translate(63.623047 0)"/>
      </g>
     </g>
    </g>
   </g>
   <g id="line2d_14">
    <path d="M 102.26721 200.004343 
L 117.657931 200.174697 
L 133.048652 200.234594 
L 148.439373 217.519064 
L 163.830094 228.529985 
L 179.220815 234.702012 
L 194.611536 239.251947 
L 210.002257 241.281076 
L 225.392978 242.299657 
L 240.783699 242.428383 
L 256.17442 242.918213 
L 271.565141 242.915467 
L 286.955862 243.083757 
L 302.346583 243.62382 
L 317.737304 243.625091 
L 333.128025 243.930396 
L 348.518746 242.99139 
L 363.909467 243.179864 
L 379.300188 244.154398 
L 394.690909 243.732552 
" clip-path="url(#p5bd11c4e9d)" style="fill: none; stroke: #66c2a5; stroke-width: 1.5; stroke-linecap: round"/>
   </g>
   <g id="line2d_15">
    <path d="M 102.26721 200.004343 
L 117.657931 200.174697 
L 133.048652 200.234594 
L 148.439373 217.519064 
L 163.830094 228.529985 
L 179.220815 234.702012 
L 194.611536 239.251947 
L 210.002257 241.281076 
L 225.392978 242.299657 
L 240.783699 242.428383 
L 256.17442 242.918213 
L 271.565141 242.915467 
L 286.955862 243.083757 
L 302.346583 243.62382 
L 317.737304 243.625091 
L 333.128025 243.930396 
L 348.518746 242.99139 
L 363.909467 243.179864 
L 379.300188 244.154398 
L 394.690909 243.732552 
" clip-path="url(#p5bd11c4e9d)" style="fill: none; stroke: #66c2a5; stroke-width: 1.5; stroke-linecap: round"/>
    <defs>
     <path id="m3832bb8e53" d="M 0 3 
C 0.795609 3 1.55874 2.683901 2.12132 2.12132 
C 2.683901 1.55874 3 0.795609 3 0 
C 3 -0.795609 2.683901 -1.55874 2.12132 -2.12132 
C 1.55874 -2.683901 0.795609 -3 0 -3 
C -0.795609 -3 -1.55874 -2.683901 -2.12132 -2.12132 
C -2.683901 -1.55874 -3 -0.795609 -3 0 
C -3 0.795609 -2.683901 1.55874 -2.12132 2.12132 
C -1.55874 2.683901 -0.795609 3 0 3 
z
" style="stroke: #66c2a5"/>
    </defs>
    <g clip-path="url(#p5bd11c4e9d)">
     <use xlink:href="#m3832bb8e53" x="102.26721" y="200.004343" style="fill: #66c2a5; stroke: #66c2a5"/>
     <use xlink:href="#m3832bb8e53" x="117.657931" y="200.174697" style="fill: #66c2a5; stroke: #66c2a5"/>
     <use xlink:href="#m3832bb8e53" x="133.048652" y="200.234594" style="fill: #66c2a5; stroke: #66c2a5"/>
     <use xlink:href="#m3832bb8e53" x="148.439373" y="217.519064" style="fill: #66c2a5; stroke: #66c2a5"/>
     <use xlink:href="#m3832bb8e53" x="163.830094" y="228.529985" style="fill: #66c2a5; stroke: #66c2a5"/>
     <use xlink:href="#m3832bb8e53" x="179.220815" y="234.702012" style="fill: #66c2a5; stroke: #66c2a5"/>
     <use xlink:href="#m3832bb8e53" x="194.611536" y="239.251947" style="fill: #66c2a5; stroke: #66c2a5"/>
     <use xlink:href="#m3832bb8e53" x="210.002257" y="241.281076" style="fill: #66c2a5; stroke: #66c2a5"/>
     <use xlink:href="#m3832bb8e53" x="225.392978" y="242.299657" style="fill: #66c2a5; stroke: #66c2a5"/>
     <use xlink:href="#m3832bb8e53" x="240.783699" y="242.428383" style="fill: #66c2a5; stroke: #66c2a5"/>
     <use xlink:href="#m3832bb8e53" x="256.17442" y="242.918213" style="fill: #66c2a5; stroke: #66c2a5"/>
     <use xlink:href="#m3832bb8e53" x="271.565141" y="242.915467" style="fill: #66c2a5; stroke: #66c2a5"/>
     <use xlink:href="#m3832bb8e53" x="286.955862" y="243.083757" style="fill: #66c2a5; stroke: #66c2a5"/>
     <use xlink:href="#m3832bb8e53" x="302.346583" y="243.62382" style="fill: #66c2a5; stroke: #66c2a5"/>
     <use xlink:href="#m3832bb8e53" x="317.737304" y="243.625091" style="fill: #66c2a5; stroke: #66c2a5"/>
     <use xlink:href="#m3832bb8e53" x="333.128025" y="243.930396" style="fill: #66c2a5; stroke: #66c2a5"/>
     <use xlink:href="#m3832bb8e53" x="348.518746" y="242.99139" style="fill: #66c2a5; stroke: #66c2a5"/>
     <use xlink:href="#m3832bb8e53" x="363.909467" y="243.179864" style="fill: #66c2a5; stroke: #66c2a5"/>
     <use xlink:href="#m3832bb8e53" x="379.300188" y="244.154398" style="fill: #66c2a5; stroke: #66c2a5"/>
     <use xlink:href="#m3832bb8e53" x="394.690909" y="243.732552" style="fill: #66c2a5; stroke: #66c2a5"/>
    </g>
   </g>
   <g id="line2d_16">
    <path d="M 102.26721 115.05548 
L 117.657931 112.981589 
L 133.048652 114.562789 
L 148.439373 111.404637 
L 163.830094 114.178028 
L 179.220815 115.358552 
L 194.611536 225.270952 
L 210.002257 240.726215 
L 225.392978 245.291769 
L 240.783699 243.767759 
L 256.17442 241.93016 
L 271.565141 244.974469 
L 286.955862 246.072166 
L 302.346583 241.336165 
L 317.737304 244.306274 
L 333.128025 246.854008 
L 348.518746 247.120536 
L 363.909467 246.739958 
L 379.300188 243.588615 
L 394.690909 242.586647 
" clip-path="url(#p5bd11c4e9d)" style="fill: none; stroke: #66c2a5; stroke-width: 1.5; stroke-linecap: round"/>
   </g>
   <g id="line2d_17">
    <path d="M 102.26721 115.05548 
L 117.657931 112.981589 
L 133.048652 114.562789 
L 148.439373 111.404637 
L 163.830094 114.178028 
L 179.220815 115.358552 
L 194.611536 225.270952 
L 210.002257 240.726215 
L 225.392978 245.291769 
L 240.783699 243.767759 
L 256.17442 241.93016 
L 271.565141 244.974469 
L 286.955862 246.072166 
L 302.346583 241.336165 
L 317.737304 244.306274 
L 333.128025 246.854008 
L 348.518746 247.120536 
L 363.909467 246.739958 
L 379.300188 243.588615 
L 394.690909 242.586647 
" clip-path="url(#p5bd11c4e9d)" style="fill: none; stroke: #66c2a5; stroke-width: 1.5; stroke-linecap: round"/>
    <g clip-path="url(#p5bd11c4e9d)">
     <use xlink:href="#m3832bb8e53" x="102.26721" y="115.05548" style="fill: #66c2a5; stroke: #66c2a5"/>
     <use xlink:href="#m3832bb8e53" x="117.657931" y="112.981589" style="fill: #66c2a5; stroke: #66c2a5"/>
     <use xlink:href="#m3832bb8e53" x="133.048652" y="114.562789" style="fill: #66c2a5; stroke: #66c2a5"/>
     <use xlink:href="#m3832bb8e53" x="148.439373" y="111.404637" style="fill: #66c2a5; stroke: #66c2a5"/>
     <use xlink:href="#m3832bb8e53" x="163.830094" y="114.178028" style="fill: #66c2a5; stroke: #66c2a5"/>
     <use xlink:href="#m3832bb8e53" x="179.220815" y="115.358552" style="fill: #66c2a5; stroke: #66c2a5"/>
     <use xlink:href="#m3832bb8e53" x="194.611536" y="225.270952" style="fill: #66c2a5; stroke: #66c2a5"/>
     <use xlink:href="#m3832bb8e53" x="210.002257" y="240.726215" style="fill: #66c2a5; stroke: #66c2a5"/>
     <use xlink:href="#m3832bb8e53" x="225.392978" y="245.291769" style="fill: #66c2a5; stroke: #66c2a5"/>
     <use xlink:href="#m3832bb8e53" x="240.783699" y="243.767759" style="fill: #66c2a5; stroke: #66c2a5"/>
     <use xlink:href="#m3832bb8e53" x="256.17442" y="241.93016" style="fill: #66c2a5; stroke: #66c2a5"/>
     <use xlink:href="#m3832bb8e53" x="271.565141" y="244.974469" style="fill: #66c2a5; stroke: #66c2a5"/>
     <use xlink:href="#m3832bb8e53" x="286.955862" y="246.072166" style="fill: #66c2a5; stroke: #66c2a5"/>
     <use xlink:href="#m3832bb8e53" x="302.346583" y="241.336165" style="fill: #66c2a5; stroke: #66c2a5"/>
     <use xlink:href="#m3832bb8e53" x="317.737304" y="244.306274" style="fill: #66c2a5; stroke: #66c2a5"/>
     <use xlink:href="#m3832bb8e53" x="333.128025" y="246.854008" style="fill: #66c2a5; stroke: #66c2a5"/>
     <use xlink:href="#m3832bb8e53" x="348.518746" y="247.120536" style="fill: #66c2a5; stroke: #66c2a5"/>
     <use xlink:href="#m3832bb8e53" x="363.909467" y="246.739958" style="fill: #66c2a5; stroke: #66c2a5"/>
     <use xlink:href="#m3832bb8e53" x="379.300188" y="243.588615" style="fill: #66c2a5; stroke: #66c2a5"/>
     <use xlink:href="#m3832bb8e53" x="394.690909" y="242.586647" style="fill: #66c2a5; stroke: #66c2a5"/>
    </g>
   </g>
   <g id="line2d_18">
    <path d="M 102.26721 193.90238 
L 117.657931 193.674051 
L 133.048652 190.563892 
L 148.439373 191.06197 
L 163.830094 192.40712 
L 179.220815 281.63359 
L 194.611536 304.173969 
L 210.002257 312.984763 
L 225.392978 315.164719 
L 240.783699 316.426691 
L 256.17442 313.793538 
L 271.565141 314.852573 
L 286.955862 312.313889 
L 302.346583 312.28079 
L 317.737304 317.289261 
L 333.128025 313.982305 
L 348.518746 314.296777 
L 363.909467 316.799521 
L 379.300188 314.433876 
L 394.690909 314.605494 
" clip-path="url(#p5bd11c4e9d)" style="fill: none; stroke: #66c2a5; stroke-width: 1.5; stroke-linecap: round"/>
   </g>
   <g id="line2d_19">
    <path d="M 102.26721 193.90238 
L 117.657931 193.674051 
L 133.048652 190.563892 
L 148.439373 191.06197 
L 163.830094 192.40712 
L 179.220815 281.63359 
L 194.611536 304.173969 
L 210.002257 312.984763 
L 225.392978 315.164719 
L 240.783699 316.426691 
L 256.17442 313.793538 
L 271.565141 314.852573 
L 286.955862 312.313889 
L 302.346583 312.28079 
L 317.737304 317.289261 
L 333.128025 313.982305 
L 348.518746 314.296777 
L 363.909467 316.799521 
L 379.300188 314.433876 
L 394.690909 314.605494 
" clip-path="url(#p5bd11c4e9d)" style="fill: none; stroke: #66c2a5; stroke-width: 1.5; stroke-linecap: round"/>
    <g clip-path="url(#p5bd11c4e9d)">
     <use xlink:href="#m3832bb8e53" x="102.26721" y="193.90238" style="fill: #66c2a5; stroke: #66c2a5"/>
     <use xlink:href="#m3832bb8e53" x="117.657931" y="193.674051" style="fill: #66c2a5; stroke: #66c2a5"/>
     <use xlink:href="#m3832bb8e53" x="133.048652" y="190.563892" style="fill: #66c2a5; stroke: #66c2a5"/>
     <use xlink:href="#m3832bb8e53" x="148.439373" y="191.06197" style="fill: #66c2a5; stroke: #66c2a5"/>
     <use xlink:href="#m3832bb8e53" x="163.830094" y="192.40712" style="fill: #66c2a5; stroke: #66c2a5"/>
     <use xlink:href="#m3832bb8e53" x="179.220815" y="281.63359" style="fill: #66c2a5; stroke: #66c2a5"/>
     <use xlink:href="#m3832bb8e53" x="194.611536" y="304.173969" style="fill: #66c2a5; stroke: #66c2a5"/>
     <use xlink:href="#m3832bb8e53" x="210.002257" y="312.984763" style="fill: #66c2a5; stroke: #66c2a5"/>
     <use xlink:href="#m3832bb8e53" x="225.392978" y="315.164719" style="fill: #66c2a5; stroke: #66c2a5"/>
     <use xlink:href="#m3832bb8e53" x="240.783699" y="316.426691" style="fill: #66c2a5; stroke: #66c2a5"/>
     <use xlink:href="#m3832bb8e53" x="256.17442" y="313.793538" style="fill: #66c2a5; stroke: #66c2a5"/>
     <use xlink:href="#m3832bb8e53" x="271.565141" y="314.852573" style="fill: #66c2a5; stroke: #66c2a5"/>
     <use xlink:href="#m3832bb8e53" x="286.955862" y="312.313889" style="fill: #66c2a5; stroke: #66c2a5"/>
     <use xlink:href="#m3832bb8e53" x="302.346583" y="312.28079" style="fill: #66c2a5; stroke: #66c2a5"/>
     <use xlink:href="#m3832bb8e53" x="317.737304" y="317.289261" style="fill: #66c2a5; stroke: #66c2a5"/>
     <use xlink:href="#m3832bb8e53" x="333.128025" y="313.982305" style="fill: #66c2a5; stroke: #66c2a5"/>
     <use xlink:href="#m3832bb8e53" x="348.518746" y="314.296777" style="fill: #66c2a5; stroke: #66c2a5"/>
     <use xlink:href="#m3832bb8e53" x="363.909467" y="316.799521" style="fill: #66c2a5; stroke: #66c2a5"/>
     <use xlink:href="#m3832bb8e53" x="379.300188" y="314.433876" style="fill: #66c2a5; stroke: #66c2a5"/>
     <use xlink:href="#m3832bb8e53" x="394.690909" y="314.605494" style="fill: #66c2a5; stroke: #66c2a5"/>
    </g>
   </g>
   <g id="line2d_20">
    <path d="M 102.26721 186.05564 
L 117.657931 187.516789 
L 133.048652 297.375372 
L 148.439373 311.018292 
L 163.830094 314.696382 
L 179.220815 311.548579 
L 194.611536 314.366174 
L 210.002257 314.074733 
L 225.392978 312.142241 
L 240.783699 314.710383 
L 256.17442 315.104403 
L 271.565141 311.451291 
L 286.955862 312.903082 
L 302.346583 312.290614 
L 317.737304 313.510262 
L 333.128025 311.83229 
L 348.518746 313.041782 
L 363.909467 312.485959 
L 379.300188 313.788564 
L 394.690909 313.727501 
" clip-path="url(#p5bd11c4e9d)" style="fill: none; stroke: #66c2a5; stroke-width: 1.5; stroke-linecap: round"/>
   </g>
   <g id="line2d_21">
    <path d="M 102.26721 186.05564 
L 117.657931 187.516789 
L 133.048652 297.375372 
L 148.439373 311.018292 
L 163.830094 314.696382 
L 179.220815 311.548579 
L 194.611536 314.366174 
L 210.002257 314.074733 
L 225.392978 312.142241 
L 240.783699 314.710383 
L 256.17442 315.104403 
L 271.565141 311.451291 
L 286.955862 312.903082 
L 302.346583 312.290614 
L 317.737304 313.510262 
L 333.128025 311.83229 
L 348.518746 313.041782 
L 363.909467 312.485959 
L 379.300188 313.788564 
L 394.690909 313.727501 
" clip-path="url(#p5bd11c4e9d)" style="fill: none; stroke: #66c2a5; stroke-width: 1.5; stroke-linecap: round"/>
    <g clip-path="url(#p5bd11c4e9d)">
     <use xlink:href="#m3832bb8e53" x="102.26721" y="186.05564" style="fill: #66c2a5; stroke: #66c2a5"/>
     <use xlink:href="#m3832bb8e53" x="117.657931" y="187.516789" style="fill: #66c2a5; stroke: #66c2a5"/>
     <use xlink:href="#m3832bb8e53" x="133.048652" y="297.375372" style="fill: #66c2a5; stroke: #66c2a5"/>
     <use xlink:href="#m3832bb8e53" x="148.439373" y="311.018292" style="fill: #66c2a5; stroke: #66c2a5"/>
     <use xlink:href="#m3832bb8e53" x="163.830094" y="314.696382" style="fill: #66c2a5; stroke: #66c2a5"/>
     <use xlink:href="#m3832bb8e53" x="179.220815" y="311.548579" style="fill: #66c2a5; stroke: #66c2a5"/>
     <use xlink:href="#m3832bb8e53" x="194.611536" y="314.366174" style="fill: #66c2a5; stroke: #66c2a5"/>
     <use xlink:href="#m3832bb8e53" x="210.002257" y="314.074733" style="fill: #66c2a5; stroke: #66c2a5"/>
     <use xlink:href="#m3832bb8e53" x="225.392978" y="312.142241" style="fill: #66c2a5; stroke: #66c2a5"/>
     <use xlink:href="#m3832bb8e53" x="240.783699" y="314.710383" style="fill: #66c2a5; stroke: #66c2a5"/>
     <use xlink:href="#m3832bb8e53" x="256.17442" y="315.104403" style="fill: #66c2a5; stroke: #66c2a5"/>
     <use xlink:href="#m3832bb8e53" x="271.565141" y="311.451291" style="fill: #66c2a5; stroke: #66c2a5"/>
     <use xlink:href="#m3832bb8e53" x="286.955862" y="312.903082" style="fill: #66c2a5; stroke: #66c2a5"/>
     <use xlink:href="#m3832bb8e53" x="302.346583" y="312.290614" style="fill: #66c2a5; stroke: #66c2a5"/>
     <use xlink:href="#m3832bb8e53" x="317.737304" y="313.510262" style="fill: #66c2a5; stroke: #66c2a5"/>
     <use xlink:href="#m3832bb8e53" x="333.128025" y="311.83229" style="fill: #66c2a5; stroke: #66c2a5"/>
     <use xlink:href="#m3832bb8e53" x="348.518746" y="313.041782" style="fill: #66c2a5; stroke: #66c2a5"/>
     <use xlink:href="#m3832bb8e53" x="363.909467" y="312.485959" style="fill: #66c2a5; stroke: #66c2a5"/>
     <use xlink:href="#m3832bb8e53" x="379.300188" y="313.788564" style="fill: #66c2a5; stroke: #66c2a5"/>
     <use xlink:href="#m3832bb8e53" x="394.690909" y="313.727501" style="fill: #66c2a5; stroke: #66c2a5"/>
    </g>
   </g>
   <g id="line2d_22">
    <path d="M 102.26721 133.960619 
L 117.657931 135.936069 
L 133.048652 226.880414 
L 148.439373 245.316361 
L 163.830094 249.446448 
L 179.220815 249.355667 
L 194.611536 248.509885 
L 210.002257 250.213756 
L 225.392978 249.861906 
L 240.783699 247.906084 
L 256.17442 250.759215 
L 271.565141 250.512542 
L 286.955862 249.69714 
L 302.346583 250.505614 
L 317.737304 250.290889 
L 333.128025 249.585358 
L 348.518746 249.880284 
L 363.909467 249.406069 
L 379.300188 250.823552 
L 394.690909 248.117432 
" clip-path="url(#p5bd11c4e9d)" style="fill: none; stroke: #66c2a5; stroke-width: 1.5; stroke-linecap: round"/>
   </g>
   <g id="line2d_23">
    <path d="M 102.26721 133.960619 
L 117.657931 135.936069 
L 133.048652 226.880414 
L 148.439373 245.316361 
L 163.830094 249.446448 
L 179.220815 249.355667 
L 194.611536 248.509885 
L 210.002257 250.213756 
L 225.392978 249.861906 
L 240.783699 247.906084 
L 256.17442 250.759215 
L 271.565141 250.512542 
L 286.955862 249.69714 
L 302.346583 250.505614 
L 317.737304 250.290889 
L 333.128025 249.585358 
L 348.518746 249.880284 
L 363.909467 249.406069 
L 379.300188 250.823552 
L 394.690909 248.117432 
" clip-path="url(#p5bd11c4e9d)" style="fill: none; stroke: #66c2a5; stroke-width: 1.5; stroke-linecap: round"/>
    <g clip-path="url(#p5bd11c4e9d)">
     <use xlink:href="#m3832bb8e53" x="102.26721" y="133.960619" style="fill: #66c2a5; stroke: #66c2a5"/>
     <use xlink:href="#m3832bb8e53" x="117.657931" y="135.936069" style="fill: #66c2a5; stroke: #66c2a5"/>
     <use xlink:href="#m3832bb8e53" x="133.048652" y="226.880414" style="fill: #66c2a5; stroke: #66c2a5"/>
     <use xlink:href="#m3832bb8e53" x="148.439373" y="245.316361" style="fill: #66c2a5; stroke: #66c2a5"/>
     <use xlink:href="#m3832bb8e53" x="163.830094" y="249.446448" style="fill: #66c2a5; stroke: #66c2a5"/>
     <use xlink:href="#m3832bb8e53" x="179.220815" y="249.355667" style="fill: #66c2a5; stroke: #66c2a5"/>
     <use xlink:href="#m3832bb8e53" x="194.611536" y="248.509885" style="fill: #66c2a5; stroke: #66c2a5"/>
     <use xlink:href="#m3832bb8e53" x="210.002257" y="250.213756" style="fill: #66c2a5; stroke: #66c2a5"/>
     <use xlink:href="#m3832bb8e53" x="225.392978" y="249.861906" style="fill: #66c2a5; stroke: #66c2a5"/>
     <use xlink:href="#m3832bb8e53" x="240.783699" y="247.906084" style="fill: #66c2a5; stroke: #66c2a5"/>
     <use xlink:href="#m3832bb8e53" x="256.17442" y="250.759215" style="fill: #66c2a5; stroke: #66c2a5"/>
     <use xlink:href="#m3832bb8e53" x="271.565141" y="250.512542" style="fill: #66c2a5; stroke: #66c2a5"/>
     <use xlink:href="#m3832bb8e53" x="286.955862" y="249.69714" style="fill: #66c2a5; stroke: #66c2a5"/>
     <use xlink:href="#m3832bb8e53" x="302.346583" y="250.505614" style="fill: #66c2a5; stroke: #66c2a5"/>
     <use xlink:href="#m3832bb8e53" x="317.737304" y="250.290889" style="fill: #66c2a5; stroke: #66c2a5"/>
     <use xlink:href="#m3832bb8e53" x="333.128025" y="249.585358" style="fill: #66c2a5; stroke: #66c2a5"/>
     <use xlink:href="#m3832bb8e53" x="348.518746" y="249.880284" style="fill: #66c2a5; stroke: #66c2a5"/>
     <use xlink:href="#m3832bb8e53" x="363.909467" y="249.406069" style="fill: #66c2a5; stroke: #66c2a5"/>
     <use xlink:href="#m3832bb8e53" x="379.300188" y="250.823552" style="fill: #66c2a5; stroke: #66c2a5"/>
     <use xlink:href="#m3832bb8e53" x="394.690909" y="248.117432" style="fill: #66c2a5; stroke: #66c2a5"/>
    </g>
   </g>
   <g id="line2d_24">
    <path d="M 102.26721 218.088836 
L 117.657931 217.87573 
L 133.048652 218.756821 
L 148.439373 218.209479 
L 163.830094 222.574857 
L 179.220815 224.080966 
L 194.611536 223.776661 
L 210.002257 224.705884 
L 225.392978 223.359546 
L 240.783699 223.936707 
L 256.17442 224.521965 
L 271.565141 224.650105 
L 286.955862 224.028658 
L 302.346583 224.026422 
L 317.737304 224.753299 
L 333.128025 223.329688 
L 348.518746 223.4553 
L 363.909467 224.170206 
L 379.300188 224.714889 
L 394.690909 223.583223 
" clip-path="url(#p5bd11c4e9d)" style="fill: none; stroke: #66c2a5; stroke-width: 1.5; stroke-linecap: round"/>
   </g>
   <g id="line2d_25">
    <path d="M 102.26721 218.088836 
L 117.657931 217.87573 
L 133.048652 218.756821 
L 148.439373 218.209479 
L 163.830094 222.574857 
L 179.220815 224.080966 
L 194.611536 223.776661 
L 210.002257 224.705884 
L 225.392978 223.359546 
L 240.783699 223.936707 
L 256.17442 224.521965 
L 271.565141 224.650105 
L 286.955862 224.028658 
L 302.346583 224.026422 
L 317.737304 224.753299 
L 333.128025 223.329688 
L 348.518746 223.4553 
L 363.909467 224.170206 
L 379.300188 224.714889 
L 394.690909 223.583223 
" clip-path="url(#p5bd11c4e9d)" style="fill: none; stroke: #66c2a5; stroke-width: 1.5; stroke-linecap: round"/>
    <g clip-path="url(#p5bd11c4e9d)">
     <use xlink:href="#m3832bb8e53" x="102.26721" y="218.088836" style="fill: #66c2a5; stroke: #66c2a5"/>
     <use xlink:href="#m3832bb8e53" x="117.657931" y="217.87573" style="fill: #66c2a5; stroke: #66c2a5"/>
     <use xlink:href="#m3832bb8e53" x="133.048652" y="218.756821" style="fill: #66c2a5; stroke: #66c2a5"/>
     <use xlink:href="#m3832bb8e53" x="148.439373" y="218.209479" style="fill: #66c2a5; stroke: #66c2a5"/>
     <use xlink:href="#m3832bb8e53" x="163.830094" y="222.574857" style="fill: #66c2a5; stroke: #66c2a5"/>
     <use xlink:href="#m3832bb8e53" x="179.220815" y="224.080966" style="fill: #66c2a5; stroke: #66c2a5"/>
     <use xlink:href="#m3832bb8e53" x="194.611536" y="223.776661" style="fill: #66c2a5; stroke: #66c2a5"/>
     <use xlink:href="#m3832bb8e53" x="210.002257" y="224.705884" style="fill: #66c2a5; stroke: #66c2a5"/>
     <use xlink:href="#m3832bb8e53" x="225.392978" y="223.359546" style="fill: #66c2a5; stroke: #66c2a5"/>
     <use xlink:href="#m3832bb8e53" x="240.783699" y="223.936707" style="fill: #66c2a5; stroke: #66c2a5"/>
     <use xlink:href="#m3832bb8e53" x="256.17442" y="224.521965" style="fill: #66c2a5; stroke: #66c2a5"/>
     <use xlink:href="#m3832bb8e53" x="271.565141" y="224.650105" style="fill: #66c2a5; stroke: #66c2a5"/>
     <use xlink:href="#m3832bb8e53" x="286.955862" y="224.028658" style="fill: #66c2a5; stroke: #66c2a5"/>
     <use xlink:href="#m3832bb8e53" x="302.346583" y="224.026422" style="fill: #66c2a5; stroke: #66c2a5"/>
     <use xlink:href="#m3832bb8e53" x="317.737304" y="224.753299" style="fill: #66c2a5; stroke: #66c2a5"/>
     <use xlink:href="#m3832bb8e53" x="333.128025" y="223.329688" style="fill: #66c2a5; stroke: #66c2a5"/>
     <use xlink:href="#m3832bb8e53" x="348.518746" y="223.4553" style="fill: #66c2a5; stroke: #66c2a5"/>
     <use xlink:href="#m3832bb8e53" x="363.909467" y="224.170206" style="fill: #66c2a5; stroke: #66c2a5"/>
     <use xlink:href="#m3832bb8e53" x="379.300188" y="224.714889" style="fill: #66c2a5; stroke: #66c2a5"/>
     <use xlink:href="#m3832bb8e53" x="394.690909" y="223.583223" style="fill: #66c2a5; stroke: #66c2a5"/>
    </g>
   </g>
   <g id="line2d_26">
    <path d="M 102.26721 103.418182 
L 117.657931 106.93169 
L 133.048652 105.389521 
L 148.439373 215.628744 
L 163.830094 227.6153 
L 179.220815 232.558577 
L 194.611536 232.464607 
L 210.002257 233.50908 
L 225.392978 230.790762 
L 240.783699 230.373246 
L 256.17442 232.748774 
L 271.565141 232.116395 
L 286.955862 233.182981 
L 302.346583 233.685333 
L 317.737304 230.198535 
L 333.128025 230.058325 
L 348.518746 229.950413 
L 363.909467 233.077778 
L 379.300188 230.40161 
L 394.690909 230.709416 
" clip-path="url(#p5bd11c4e9d)" style="fill: none; stroke: #66c2a5; stroke-width: 1.5; stroke-linecap: round"/>
   </g>
   <g id="line2d_27">
    <path d="M 102.26721 103.418182 
L 117.657931 106.93169 
L 133.048652 105.389521 
L 148.439373 215.628744 
L 163.830094 227.6153 
L 179.220815 232.558577 
L 194.611536 232.464607 
L 210.002257 233.50908 
L 225.392978 230.790762 
L 240.783699 230.373246 
L 256.17442 232.748774 
L 271.565141 232.116395 
L 286.955862 233.182981 
L 302.346583 233.685333 
L 317.737304 230.198535 
L 333.128025 230.058325 
L 348.518746 229.950413 
L 363.909467 233.077778 
L 379.300188 230.40161 
L 394.690909 230.709416 
" clip-path="url(#p5bd11c4e9d)" style="fill: none; stroke: #66c2a5; stroke-width: 1.5; stroke-linecap: round"/>
    <g clip-path="url(#p5bd11c4e9d)">
     <use xlink:href="#m3832bb8e53" x="102.26721" y="103.418182" style="fill: #66c2a5; stroke: #66c2a5"/>
     <use xlink:href="#m3832bb8e53" x="117.657931" y="106.93169" style="fill: #66c2a5; stroke: #66c2a5"/>
     <use xlink:href="#m3832bb8e53" x="133.048652" y="105.389521" style="fill: #66c2a5; stroke: #66c2a5"/>
     <use xlink:href="#m3832bb8e53" x="148.439373" y="215.628744" style="fill: #66c2a5; stroke: #66c2a5"/>
     <use xlink:href="#m3832bb8e53" x="163.830094" y="227.6153" style="fill: #66c2a5; stroke: #66c2a5"/>
     <use xlink:href="#m3832bb8e53" x="179.220815" y="232.558577" style="fill: #66c2a5; stroke: #66c2a5"/>
     <use xlink:href="#m3832bb8e53" x="194.611536" y="232.464607" style="fill: #66c2a5; stroke: #66c2a5"/>
     <use xlink:href="#m3832bb8e53" x="210.002257" y="233.50908" style="fill: #66c2a5; stroke: #66c2a5"/>
     <use xlink:href="#m3832bb8e53" x="225.392978" y="230.790762" style="fill: #66c2a5; stroke: #66c2a5"/>
     <use xlink:href="#m3832bb8e53" x="240.783699" y="230.373246" style="fill: #66c2a5; stroke: #66c2a5"/>
     <use xlink:href="#m3832bb8e53" x="256.17442" y="232.748774" style="fill: #66c2a5; stroke: #66c2a5"/>
     <use xlink:href="#m3832bb8e53" x="271.565141" y="232.116395" style="fill: #66c2a5; stroke: #66c2a5"/>
     <use xlink:href="#m3832bb8e53" x="286.955862" y="233.182981" style="fill: #66c2a5; stroke: #66c2a5"/>
     <use xlink:href="#m3832bb8e53" x="302.346583" y="233.685333" style="fill: #66c2a5; stroke: #66c2a5"/>
     <use xlink:href="#m3832bb8e53" x="317.737304" y="230.198535" style="fill: #66c2a5; stroke: #66c2a5"/>
     <use xlink:href="#m3832bb8e53" x="333.128025" y="230.058325" style="fill: #66c2a5; stroke: #66c2a5"/>
     <use xlink:href="#m3832bb8e53" x="348.518746" y="229.950413" style="fill: #66c2a5; stroke: #66c2a5"/>
     <use xlink:href="#m3832bb8e53" x="363.909467" y="233.077778" style="fill: #66c2a5; stroke: #66c2a5"/>
     <use xlink:href="#m3832bb8e53" x="379.300188" y="230.40161" style="fill: #66c2a5; stroke: #66c2a5"/>
     <use xlink:href="#m3832bb8e53" x="394.690909" y="230.709416" style="fill: #66c2a5; stroke: #66c2a5"/>
    </g>
   </g>
   <g id="line2d_28">
    <path d="M 102.26721 211.566194 
L 117.657931 216.117586 
L 133.048652 229.328403 
L 148.439373 240.194522 
L 163.830094 252.933387 
L 179.220815 266.32598 
L 194.611536 273.890815 
L 210.002257 292.73168 
L 225.392978 301.955255 
L 240.783699 311.101385 
L 256.17442 330.364956 
L 271.565141 336.42478 
L 286.955862 351.50596 
L 302.346583 362.828141 
L 317.737304 376.553248 
L 333.128025 387.572414 
L 348.518746 404.207651 
L 363.909467 413.223756 
L 379.300188 427.624881 
L 394.690909 443.781818 
" clip-path="url(#p5bd11c4e9d)" style="fill: none; stroke: #e78ac3; stroke-width: 1.5; stroke-linecap: round"/>
   </g>
   <g id="line2d_29">
    <path d="M 102.26721 211.566194 
L 117.657931 216.117586 
L 133.048652 229.328403 
L 148.439373 240.194522 
L 163.830094 252.933387 
L 179.220815 266.32598 
L 194.611536 273.890815 
L 210.002257 292.73168 
L 225.392978 301.955255 
L 240.783699 311.101385 
L 256.17442 330.364956 
L 271.565141 336.42478 
L 286.955862 351.50596 
L 302.346583 362.828141 
L 317.737304 376.553248 
L 333.128025 387.572414 
L 348.518746 404.207651 
L 363.909467 413.223756 
L 379.300188 427.624881 
L 394.690909 443.781818 
" clip-path="url(#p5bd11c4e9d)" style="fill: none; stroke: #e78ac3; stroke-width: 1.5; stroke-linecap: round"/>
    <defs>
     <path id="m1029c78604" d="M 0 3 
C 0.795609 3 1.55874 2.683901 2.12132 2.12132 
C 2.683901 1.55874 3 0.795609 3 0 
C 3 -0.795609 2.683901 -1.55874 2.12132 -2.12132 
C 1.55874 -2.683901 0.795609 -3 0 -3 
C -0.795609 -3 -1.55874 -2.683901 -2.12132 -2.12132 
C -2.683901 -1.55874 -3 -0.795609 -3 0 
C -3 0.795609 -2.683901 1.55874 -2.12132 2.12132 
C -1.55874 2.683901 -0.795609 3 0 3 
z
" style="stroke: #e78ac3"/>
    </defs>
    <g clip-path="url(#p5bd11c4e9d)">
     <use xlink:href="#m1029c78604" x="102.26721" y="211.566194" style="fill: #e78ac3; stroke: #e78ac3"/>
     <use xlink:href="#m1029c78604" x="117.657931" y="216.117586" style="fill: #e78ac3; stroke: #e78ac3"/>
     <use xlink:href="#m1029c78604" x="133.048652" y="229.328403" style="fill: #e78ac3; stroke: #e78ac3"/>
     <use xlink:href="#m1029c78604" x="148.439373" y="240.194522" style="fill: #e78ac3; stroke: #e78ac3"/>
     <use xlink:href="#m1029c78604" x="163.830094" y="252.933387" style="fill: #e78ac3; stroke: #e78ac3"/>
     <use xlink:href="#m1029c78604" x="179.220815" y="266.32598" style="fill: #e78ac3; stroke: #e78ac3"/>
     <use xlink:href="#m1029c78604" x="194.611536" y="273.890815" style="fill: #e78ac3; stroke: #e78ac3"/>
     <use xlink:href="#m1029c78604" x="210.002257" y="292.73168" style="fill: #e78ac3; stroke: #e78ac3"/>
     <use xlink:href="#m1029c78604" x="225.392978" y="301.955255" style="fill: #e78ac3; stroke: #e78ac3"/>
     <use xlink:href="#m1029c78604" x="240.783699" y="311.101385" style="fill: #e78ac3; stroke: #e78ac3"/>
     <use xlink:href="#m1029c78604" x="256.17442" y="330.364956" style="fill: #e78ac3; stroke: #e78ac3"/>
     <use xlink:href="#m1029c78604" x="271.565141" y="336.42478" style="fill: #e78ac3; stroke: #e78ac3"/>
     <use xlink:href="#m1029c78604" x="286.955862" y="351.50596" style="fill: #e78ac3; stroke: #e78ac3"/>
     <use xlink:href="#m1029c78604" x="302.346583" y="362.828141" style="fill: #e78ac3; stroke: #e78ac3"/>
     <use xlink:href="#m1029c78604" x="317.737304" y="376.553248" style="fill: #e78ac3; stroke: #e78ac3"/>
     <use xlink:href="#m1029c78604" x="333.128025" y="387.572414" style="fill: #e78ac3; stroke: #e78ac3"/>
     <use xlink:href="#m1029c78604" x="348.518746" y="404.207651" style="fill: #e78ac3; stroke: #e78ac3"/>
     <use xlink:href="#m1029c78604" x="363.909467" y="413.223756" style="fill: #e78ac3; stroke: #e78ac3"/>
     <use xlink:href="#m1029c78604" x="379.300188" y="427.624881" style="fill: #e78ac3; stroke: #e78ac3"/>
     <use xlink:href="#m1029c78604" x="394.690909" y="443.781818" style="fill: #e78ac3; stroke: #e78ac3"/>
    </g>
   </g>
   <g id="line2d_30">
    <path d="M 102.26721 207.345418 
L 117.657931 207.083375 
L 133.048652 206.630419 
L 148.439373 206.389603 
L 163.830094 210.636573 
L 179.220815 214.04084 
L 194.611536 217.466684 
L 210.002257 220.778404 
L 225.392978 222.998068 
L 240.783699 225.798042 
L 256.17442 230.220763 
L 271.565141 233.015949 
L 286.955862 237.322996 
L 302.346583 239.801021 
L 317.737304 244.106535 
L 333.128025 247.482902 
L 348.518746 249.582773 
L 363.909467 252.893417 
L 379.300188 256.187167 
L 394.690909 260.612386 
" clip-path="url(#p5bd11c4e9d)" style="fill: none; stroke: #ffd92f; stroke-width: 1.5; stroke-linecap: round"/>
   </g>
   <g id="line2d_31">
    <path d="M 102.26721 207.345418 
L 117.657931 207.083375 
L 133.048652 206.630419 
L 148.439373 206.389603 
L 163.830094 210.636573 
L 179.220815 214.04084 
L 194.611536 217.466684 
L 210.002257 220.778404 
L 225.392978 222.998068 
L 240.783699 225.798042 
L 256.17442 230.220763 
L 271.565141 233.015949 
L 286.955862 237.322996 
L 302.346583 239.801021 
L 317.737304 244.106535 
L 333.128025 247.482902 
L 348.518746 249.582773 
L 363.909467 252.893417 
L 379.300188 256.187167 
L 394.690909 260.612386 
" clip-path="url(#p5bd11c4e9d)" style="fill: none; stroke: #ffd92f; stroke-width: 1.5; stroke-linecap: round"/>
    <defs>
     <path id="m72fd83df2a" d="M 0 3 
C 0.795609 3 1.55874 2.683901 2.12132 2.12132 
C 2.683901 1.55874 3 0.795609 3 0 
C 3 -0.795609 2.683901 -1.55874 2.12132 -2.12132 
C 1.55874 -2.683901 0.795609 -3 0 -3 
C -0.795609 -3 -1.55874 -2.683901 -2.12132 -2.12132 
C -2.683901 -1.55874 -3 -0.795609 -3 0 
C -3 0.795609 -2.683901 1.55874 -2.12132 2.12132 
C -1.55874 2.683901 -0.795609 3 0 3 
z
" style="stroke: #ffd92f"/>
    </defs>
    <g clip-path="url(#p5bd11c4e9d)">
     <use xlink:href="#m72fd83df2a" x="102.26721" y="207.345418" style="fill: #ffd92f; stroke: #ffd92f"/>
     <use xlink:href="#m72fd83df2a" x="117.657931" y="207.083375" style="fill: #ffd92f; stroke: #ffd92f"/>
     <use xlink:href="#m72fd83df2a" x="133.048652" y="206.630419" style="fill: #ffd92f; stroke: #ffd92f"/>
     <use xlink:href="#m72fd83df2a" x="148.439373" y="206.389603" style="fill: #ffd92f; stroke: #ffd92f"/>
     <use xlink:href="#m72fd83df2a" x="163.830094" y="210.636573" style="fill: #ffd92f; stroke: #ffd92f"/>
     <use xlink:href="#m72fd83df2a" x="179.220815" y="214.04084" style="fill: #ffd92f; stroke: #ffd92f"/>
     <use xlink:href="#m72fd83df2a" x="194.611536" y="217.466684" style="fill: #ffd92f; stroke: #ffd92f"/>
     <use xlink:href="#m72fd83df2a" x="210.002257" y="220.778404" style="fill: #ffd92f; stroke: #ffd92f"/>
     <use xlink:href="#m72fd83df2a" x="225.392978" y="222.998068" style="fill: #ffd92f; stroke: #ffd92f"/>
     <use xlink:href="#m72fd83df2a" x="240.783699" y="225.798042" style="fill: #ffd92f; stroke: #ffd92f"/>
     <use xlink:href="#m72fd83df2a" x="256.17442" y="230.220763" style="fill: #ffd92f; stroke: #ffd92f"/>
     <use xlink:href="#m72fd83df2a" x="271.565141" y="233.015949" style="fill: #ffd92f; stroke: #ffd92f"/>
     <use xlink:href="#m72fd83df2a" x="286.955862" y="237.322996" style="fill: #ffd92f; stroke: #ffd92f"/>
     <use xlink:href="#m72fd83df2a" x="302.346583" y="239.801021" style="fill: #ffd92f; stroke: #ffd92f"/>
     <use xlink:href="#m72fd83df2a" x="317.737304" y="244.106535" style="fill: #ffd92f; stroke: #ffd92f"/>
     <use xlink:href="#m72fd83df2a" x="333.128025" y="247.482902" style="fill: #ffd92f; stroke: #ffd92f"/>
     <use xlink:href="#m72fd83df2a" x="348.518746" y="249.582773" style="fill: #ffd92f; stroke: #ffd92f"/>
     <use xlink:href="#m72fd83df2a" x="363.909467" y="252.893417" style="fill: #ffd92f; stroke: #ffd92f"/>
     <use xlink:href="#m72fd83df2a" x="379.300188" y="256.187167" style="fill: #ffd92f; stroke: #ffd92f"/>
     <use xlink:href="#m72fd83df2a" x="394.690909" y="260.612386" style="fill: #ffd92f; stroke: #ffd92f"/>
    </g>
   </g>
   <g id="line2d_32">
    <path d="M 102.26721 218.375335 
L 117.657931 218.801212 
L 133.048652 219.629141 
L 148.439373 220.704843 
L 163.830094 222.603232 
L 179.220815 225.035775 
L 194.611536 228.498213 
L 210.002257 230.231549 
L 225.392978 231.851229 
L 240.783699 234.758388 
L 256.17442 237.659619 
L 271.565141 239.693962 
L 286.955862 241.187308 
L 302.346583 243.254771 
L 317.737304 245.345438 
L 333.128025 248.743848 
L 348.518746 250.57923 
L 363.909467 253.023864 
L 379.300188 255.159971 
L 394.690909 256.823716 
" clip-path="url(#p5bd11c4e9d)" style="fill: none; stroke: #ffd92f; stroke-width: 1.5; stroke-linecap: round"/>
   </g>
   <g id="line2d_33">
    <path d="M 102.26721 218.375335 
L 117.657931 218.801212 
L 133.048652 219.629141 
L 148.439373 220.704843 
L 163.830094 222.603232 
L 179.220815 225.035775 
L 194.611536 228.498213 
L 210.002257 230.231549 
L 225.392978 231.851229 
L 240.783699 234.758388 
L 256.17442 237.659619 
L 271.565141 239.693962 
L 286.955862 241.187308 
L 302.346583 243.254771 
L 317.737304 245.345438 
L 333.128025 248.743848 
L 348.518746 250.57923 
L 363.909467 253.023864 
L 379.300188 255.159971 
L 394.690909 256.823716 
" clip-path="url(#p5bd11c4e9d)" style="fill: none; stroke: #ffd92f; stroke-width: 1.5; stroke-linecap: round"/>
    <g clip-path="url(#p5bd11c4e9d)">
     <use xlink:href="#m72fd83df2a" x="102.26721" y="218.375335" style="fill: #ffd92f; stroke: #ffd92f"/>
     <use xlink:href="#m72fd83df2a" x="117.657931" y="218.801212" style="fill: #ffd92f; stroke: #ffd92f"/>
     <use xlink:href="#m72fd83df2a" x="133.048652" y="219.629141" style="fill: #ffd92f; stroke: #ffd92f"/>
     <use xlink:href="#m72fd83df2a" x="148.439373" y="220.704843" style="fill: #ffd92f; stroke: #ffd92f"/>
     <use xlink:href="#m72fd83df2a" x="163.830094" y="222.603232" style="fill: #ffd92f; stroke: #ffd92f"/>
     <use xlink:href="#m72fd83df2a" x="179.220815" y="225.035775" style="fill: #ffd92f; stroke: #ffd92f"/>
     <use xlink:href="#m72fd83df2a" x="194.611536" y="228.498213" style="fill: #ffd92f; stroke: #ffd92f"/>
     <use xlink:href="#m72fd83df2a" x="210.002257" y="230.231549" style="fill: #ffd92f; stroke: #ffd92f"/>
     <use xlink:href="#m72fd83df2a" x="225.392978" y="231.851229" style="fill: #ffd92f; stroke: #ffd92f"/>
     <use xlink:href="#m72fd83df2a" x="240.783699" y="234.758388" style="fill: #ffd92f; stroke: #ffd92f"/>
     <use xlink:href="#m72fd83df2a" x="256.17442" y="237.659619" style="fill: #ffd92f; stroke: #ffd92f"/>
     <use xlink:href="#m72fd83df2a" x="271.565141" y="239.693962" style="fill: #ffd92f; stroke: #ffd92f"/>
     <use xlink:href="#m72fd83df2a" x="286.955862" y="241.187308" style="fill: #ffd92f; stroke: #ffd92f"/>
     <use xlink:href="#m72fd83df2a" x="302.346583" y="243.254771" style="fill: #ffd92f; stroke: #ffd92f"/>
     <use xlink:href="#m72fd83df2a" x="317.737304" y="245.345438" style="fill: #ffd92f; stroke: #ffd92f"/>
     <use xlink:href="#m72fd83df2a" x="333.128025" y="248.743848" style="fill: #ffd92f; stroke: #ffd92f"/>
     <use xlink:href="#m72fd83df2a" x="348.518746" y="250.57923" style="fill: #ffd92f; stroke: #ffd92f"/>
     <use xlink:href="#m72fd83df2a" x="363.909467" y="253.023864" style="fill: #ffd92f; stroke: #ffd92f"/>
     <use xlink:href="#m72fd83df2a" x="379.300188" y="255.159971" style="fill: #ffd92f; stroke: #ffd92f"/>
     <use xlink:href="#m72fd83df2a" x="394.690909" y="256.823716" style="fill: #ffd92f; stroke: #ffd92f"/>
    </g>
   </g>
   <g id="line2d_34">
    <path d="M 102.26721 217.985137 
L 117.657931 217.900152 
L 133.048652 219.456147 
L 148.439373 222.50806 
L 163.830094 224.833583 
L 179.220815 227.506451 
L 194.611536 229.649679 
L 210.002257 233.092469 
L 225.392978 235.37573 
L 240.783699 237.889041 
L 256.17442 240.172917 
L 271.565141 241.78671 
L 286.955862 244.493109 
L 302.346583 247.73443 
L 317.737304 249.140165 
L 333.128025 251.440984 
L 348.518746 254.674799 
L 363.909467 257.889594 
L 379.300188 259.037003 
L 394.690909 262.74223 
" clip-path="url(#p5bd11c4e9d)" style="fill: none; stroke: #ffd92f; stroke-width: 1.5; stroke-linecap: round"/>
   </g>
   <g id="line2d_35">
    <path d="M 102.26721 217.985137 
L 117.657931 217.900152 
L 133.048652 219.456147 
L 148.439373 222.50806 
L 163.830094 224.833583 
L 179.220815 227.506451 
L 194.611536 229.649679 
L 210.002257 233.092469 
L 225.392978 235.37573 
L 240.783699 237.889041 
L 256.17442 240.172917 
L 271.565141 241.78671 
L 286.955862 244.493109 
L 302.346583 247.73443 
L 317.737304 249.140165 
L 333.128025 251.440984 
L 348.518746 254.674799 
L 363.909467 257.889594 
L 379.300188 259.037003 
L 394.690909 262.74223 
" clip-path="url(#p5bd11c4e9d)" style="fill: none; stroke: #ffd92f; stroke-width: 1.5; stroke-linecap: round"/>
    <g clip-path="url(#p5bd11c4e9d)">
     <use xlink:href="#m72fd83df2a" x="102.26721" y="217.985137" style="fill: #ffd92f; stroke: #ffd92f"/>
     <use xlink:href="#m72fd83df2a" x="117.657931" y="217.900152" style="fill: #ffd92f; stroke: #ffd92f"/>
     <use xlink:href="#m72fd83df2a" x="133.048652" y="219.456147" style="fill: #ffd92f; stroke: #ffd92f"/>
     <use xlink:href="#m72fd83df2a" x="148.439373" y="222.50806" style="fill: #ffd92f; stroke: #ffd92f"/>
     <use xlink:href="#m72fd83df2a" x="163.830094" y="224.833583" style="fill: #ffd92f; stroke: #ffd92f"/>
     <use xlink:href="#m72fd83df2a" x="179.220815" y="227.506451" style="fill: #ffd92f; stroke: #ffd92f"/>
     <use xlink:href="#m72fd83df2a" x="194.611536" y="229.649679" style="fill: #ffd92f; stroke: #ffd92f"/>
     <use xlink:href="#m72fd83df2a" x="210.002257" y="233.092469" style="fill: #ffd92f; stroke: #ffd92f"/>
     <use xlink:href="#m72fd83df2a" x="225.392978" y="235.37573" style="fill: #ffd92f; stroke: #ffd92f"/>
     <use xlink:href="#m72fd83df2a" x="240.783699" y="237.889041" style="fill: #ffd92f; stroke: #ffd92f"/>
     <use xlink:href="#m72fd83df2a" x="256.17442" y="240.172917" style="fill: #ffd92f; stroke: #ffd92f"/>
     <use xlink:href="#m72fd83df2a" x="271.565141" y="241.78671" style="fill: #ffd92f; stroke: #ffd92f"/>
     <use xlink:href="#m72fd83df2a" x="286.955862" y="244.493109" style="fill: #ffd92f; stroke: #ffd92f"/>
     <use xlink:href="#m72fd83df2a" x="302.346583" y="247.73443" style="fill: #ffd92f; stroke: #ffd92f"/>
     <use xlink:href="#m72fd83df2a" x="317.737304" y="249.140165" style="fill: #ffd92f; stroke: #ffd92f"/>
     <use xlink:href="#m72fd83df2a" x="333.128025" y="251.440984" style="fill: #ffd92f; stroke: #ffd92f"/>
     <use xlink:href="#m72fd83df2a" x="348.518746" y="254.674799" style="fill: #ffd92f; stroke: #ffd92f"/>
     <use xlink:href="#m72fd83df2a" x="363.909467" y="257.889594" style="fill: #ffd92f; stroke: #ffd92f"/>
     <use xlink:href="#m72fd83df2a" x="379.300188" y="259.037003" style="fill: #ffd92f; stroke: #ffd92f"/>
     <use xlink:href="#m72fd83df2a" x="394.690909" y="262.74223" style="fill: #ffd92f; stroke: #ffd92f"/>
    </g>
   </g>
   <g id="line2d_36">
    <path d="M 102.26721 212.729058 
L 117.657931 215.09623 
L 133.048652 217.064719 
L 148.439373 219.927669 
L 163.830094 221.72597 
L 179.220815 223.805649 
L 194.611536 225.020943 
L 210.002257 227.665723 
L 225.392978 230.320708 
L 240.783699 232.079269 
L 256.17442 233.849595 
L 271.565141 235.883389 
L 286.955862 237.551595 
L 302.346583 239.120846 
L 317.737304 242.443883 
L 333.128025 244.271006 
L 348.518746 245.531023 
L 363.909467 247.690076 
L 379.300188 249.451646 
L 394.690909 251.535887 
" clip-path="url(#p5bd11c4e9d)" style="fill: none; stroke: #ffd92f; stroke-width: 1.5; stroke-linecap: round"/>
   </g>
   <g id="line2d_37">
    <path d="M 102.26721 212.729058 
L 117.657931 215.09623 
L 133.048652 217.064719 
L 148.439373 219.927669 
L 163.830094 221.72597 
L 179.220815 223.805649 
L 194.611536 225.020943 
L 210.002257 227.665723 
L 225.392978 230.320708 
L 240.783699 232.079269 
L 256.17442 233.849595 
L 271.565141 235.883389 
L 286.955862 237.551595 
L 302.346583 239.120846 
L 317.737304 242.443883 
L 333.128025 244.271006 
L 348.518746 245.531023 
L 363.909467 247.690076 
L 379.300188 249.451646 
L 394.690909 251.535887 
" clip-path="url(#p5bd11c4e9d)" style="fill: none; stroke: #ffd92f; stroke-width: 1.5; stroke-linecap: round"/>
    <g clip-path="url(#p5bd11c4e9d)">
     <use xlink:href="#m72fd83df2a" x="102.26721" y="212.729058" style="fill: #ffd92f; stroke: #ffd92f"/>
     <use xlink:href="#m72fd83df2a" x="117.657931" y="215.09623" style="fill: #ffd92f; stroke: #ffd92f"/>
     <use xlink:href="#m72fd83df2a" x="133.048652" y="217.064719" style="fill: #ffd92f; stroke: #ffd92f"/>
     <use xlink:href="#m72fd83df2a" x="148.439373" y="219.927669" style="fill: #ffd92f; stroke: #ffd92f"/>
     <use xlink:href="#m72fd83df2a" x="163.830094" y="221.72597" style="fill: #ffd92f; stroke: #ffd92f"/>
     <use xlink:href="#m72fd83df2a" x="179.220815" y="223.805649" style="fill: #ffd92f; stroke: #ffd92f"/>
     <use xlink:href="#m72fd83df2a" x="194.611536" y="225.020943" style="fill: #ffd92f; stroke: #ffd92f"/>
     <use xlink:href="#m72fd83df2a" x="210.002257" y="227.665723" style="fill: #ffd92f; stroke: #ffd92f"/>
     <use xlink:href="#m72fd83df2a" x="225.392978" y="230.320708" style="fill: #ffd92f; stroke: #ffd92f"/>
     <use xlink:href="#m72fd83df2a" x="240.783699" y="232.079269" style="fill: #ffd92f; stroke: #ffd92f"/>
     <use xlink:href="#m72fd83df2a" x="256.17442" y="233.849595" style="fill: #ffd92f; stroke: #ffd92f"/>
     <use xlink:href="#m72fd83df2a" x="271.565141" y="235.883389" style="fill: #ffd92f; stroke: #ffd92f"/>
     <use xlink:href="#m72fd83df2a" x="286.955862" y="237.551595" style="fill: #ffd92f; stroke: #ffd92f"/>
     <use xlink:href="#m72fd83df2a" x="302.346583" y="239.120846" style="fill: #ffd92f; stroke: #ffd92f"/>
     <use xlink:href="#m72fd83df2a" x="317.737304" y="242.443883" style="fill: #ffd92f; stroke: #ffd92f"/>
     <use xlink:href="#m72fd83df2a" x="333.128025" y="244.271006" style="fill: #ffd92f; stroke: #ffd92f"/>
     <use xlink:href="#m72fd83df2a" x="348.518746" y="245.531023" style="fill: #ffd92f; stroke: #ffd92f"/>
     <use xlink:href="#m72fd83df2a" x="363.909467" y="247.690076" style="fill: #ffd92f; stroke: #ffd92f"/>
     <use xlink:href="#m72fd83df2a" x="379.300188" y="249.451646" style="fill: #ffd92f; stroke: #ffd92f"/>
     <use xlink:href="#m72fd83df2a" x="394.690909" y="251.535887" style="fill: #ffd92f; stroke: #ffd92f"/>
    </g>
   </g>
   <g id="line2d_38">
    <path d="M 102.26721 213.599122 
L 117.657931 213.165706 
L 133.048652 213.649329 
L 148.439373 212.404794 
L 163.830094 214.549549 
L 179.220815 216.899965 
L 194.611536 218.722619 
L 210.002257 221.345239 
L 225.392978 222.550171 
L 240.783699 224.763415 
L 256.17442 226.5664 
L 271.565141 227.605495 
L 286.955862 230.18425 
L 302.346583 232.161552 
L 317.737304 234.413273 
L 333.128025 235.119291 
L 348.518746 237.663407 
L 363.909467 239.57455 
L 379.300188 241.33349 
L 394.690909 243.087775 
" clip-path="url(#p5bd11c4e9d)" style="fill: none; stroke: #ffd92f; stroke-width: 1.5; stroke-linecap: round"/>
   </g>
   <g id="line2d_39">
    <path d="M 102.26721 213.599122 
L 117.657931 213.165706 
L 133.048652 213.649329 
L 148.439373 212.404794 
L 163.830094 214.549549 
L 179.220815 216.899965 
L 194.611536 218.722619 
L 210.002257 221.345239 
L 225.392978 222.550171 
L 240.783699 224.763415 
L 256.17442 226.5664 
L 271.565141 227.605495 
L 286.955862 230.18425 
L 302.346583 232.161552 
L 317.737304 234.413273 
L 333.128025 235.119291 
L 348.518746 237.663407 
L 363.909467 239.57455 
L 379.300188 241.33349 
L 394.690909 243.087775 
" clip-path="url(#p5bd11c4e9d)" style="fill: none; stroke: #ffd92f; stroke-width: 1.5; stroke-linecap: round"/>
    <g clip-path="url(#p5bd11c4e9d)">
     <use xlink:href="#m72fd83df2a" x="102.26721" y="213.599122" style="fill: #ffd92f; stroke: #ffd92f"/>
     <use xlink:href="#m72fd83df2a" x="117.657931" y="213.165706" style="fill: #ffd92f; stroke: #ffd92f"/>
     <use xlink:href="#m72fd83df2a" x="133.048652" y="213.649329" style="fill: #ffd92f; stroke: #ffd92f"/>
     <use xlink:href="#m72fd83df2a" x="148.439373" y="212.404794" style="fill: #ffd92f; stroke: #ffd92f"/>
     <use xlink:href="#m72fd83df2a" x="163.830094" y="214.549549" style="fill: #ffd92f; stroke: #ffd92f"/>
     <use xlink:href="#m72fd83df2a" x="179.220815" y="216.899965" style="fill: #ffd92f; stroke: #ffd92f"/>
     <use xlink:href="#m72fd83df2a" x="194.611536" y="218.722619" style="fill: #ffd92f; stroke: #ffd92f"/>
     <use xlink:href="#m72fd83df2a" x="210.002257" y="221.345239" style="fill: #ffd92f; stroke: #ffd92f"/>
     <use xlink:href="#m72fd83df2a" x="225.392978" y="222.550171" style="fill: #ffd92f; stroke: #ffd92f"/>
     <use xlink:href="#m72fd83df2a" x="240.783699" y="224.763415" style="fill: #ffd92f; stroke: #ffd92f"/>
     <use xlink:href="#m72fd83df2a" x="256.17442" y="226.5664" style="fill: #ffd92f; stroke: #ffd92f"/>
     <use xlink:href="#m72fd83df2a" x="271.565141" y="227.605495" style="fill: #ffd92f; stroke: #ffd92f"/>
     <use xlink:href="#m72fd83df2a" x="286.955862" y="230.18425" style="fill: #ffd92f; stroke: #ffd92f"/>
     <use xlink:href="#m72fd83df2a" x="302.346583" y="232.161552" style="fill: #ffd92f; stroke: #ffd92f"/>
     <use xlink:href="#m72fd83df2a" x="317.737304" y="234.413273" style="fill: #ffd92f; stroke: #ffd92f"/>
     <use xlink:href="#m72fd83df2a" x="333.128025" y="235.119291" style="fill: #ffd92f; stroke: #ffd92f"/>
     <use xlink:href="#m72fd83df2a" x="348.518746" y="237.663407" style="fill: #ffd92f; stroke: #ffd92f"/>
     <use xlink:href="#m72fd83df2a" x="363.909467" y="239.57455" style="fill: #ffd92f; stroke: #ffd92f"/>
     <use xlink:href="#m72fd83df2a" x="379.300188" y="241.33349" style="fill: #ffd92f; stroke: #ffd92f"/>
     <use xlink:href="#m72fd83df2a" x="394.690909" y="243.087775" style="fill: #ffd92f; stroke: #ffd92f"/>
    </g>
   </g>
   <g id="line2d_40">
    <path d="M 102.26721 211.711531 
L 117.657931 210.929585 
L 133.048652 211.152521 
L 148.439373 211.572453 
L 163.830094 211.86376 
L 179.220815 211.595901 
L 194.611536 214.680744 
L 210.002257 217.318282 
L 225.392978 220.755109 
L 240.783699 224.333786 
L 256.17442 227.806794 
L 271.565141 230.76899 
L 286.955862 234.35527 
L 302.346583 237.902779 
L 317.737304 240.858175 
L 333.128025 244.329147 
L 348.518746 247.895012 
L 363.909467 251.940179 
L 379.300188 254.547259 
L 394.690909 258.476539 
" clip-path="url(#p5bd11c4e9d)" style="fill: none; stroke: #ffd92f; stroke-width: 1.5; stroke-linecap: round"/>
   </g>
   <g id="line2d_41">
    <path d="M 102.26721 211.711531 
L 117.657931 210.929585 
L 133.048652 211.152521 
L 148.439373 211.572453 
L 163.830094 211.86376 
L 179.220815 211.595901 
L 194.611536 214.680744 
L 210.002257 217.318282 
L 225.392978 220.755109 
L 240.783699 224.333786 
L 256.17442 227.806794 
L 271.565141 230.76899 
L 286.955862 234.35527 
L 302.346583 237.902779 
L 317.737304 240.858175 
L 333.128025 244.329147 
L 348.518746 247.895012 
L 363.909467 251.940179 
L 379.300188 254.547259 
L 394.690909 258.476539 
" clip-path="url(#p5bd11c4e9d)" style="fill: none; stroke: #ffd92f; stroke-width: 1.5; stroke-linecap: round"/>
    <g clip-path="url(#p5bd11c4e9d)">
     <use xlink:href="#m72fd83df2a" x="102.26721" y="211.711531" style="fill: #ffd92f; stroke: #ffd92f"/>
     <use xlink:href="#m72fd83df2a" x="117.657931" y="210.929585" style="fill: #ffd92f; stroke: #ffd92f"/>
     <use xlink:href="#m72fd83df2a" x="133.048652" y="211.152521" style="fill: #ffd92f; stroke: #ffd92f"/>
     <use xlink:href="#m72fd83df2a" x="148.439373" y="211.572453" style="fill: #ffd92f; stroke: #ffd92f"/>
     <use xlink:href="#m72fd83df2a" x="163.830094" y="211.86376" style="fill: #ffd92f; stroke: #ffd92f"/>
     <use xlink:href="#m72fd83df2a" x="179.220815" y="211.595901" style="fill: #ffd92f; stroke: #ffd92f"/>
     <use xlink:href="#m72fd83df2a" x="194.611536" y="214.680744" style="fill: #ffd92f; stroke: #ffd92f"/>
     <use xlink:href="#m72fd83df2a" x="210.002257" y="217.318282" style="fill: #ffd92f; stroke: #ffd92f"/>
     <use xlink:href="#m72fd83df2a" x="225.392978" y="220.755109" style="fill: #ffd92f; stroke: #ffd92f"/>
     <use xlink:href="#m72fd83df2a" x="240.783699" y="224.333786" style="fill: #ffd92f; stroke: #ffd92f"/>
     <use xlink:href="#m72fd83df2a" x="256.17442" y="227.806794" style="fill: #ffd92f; stroke: #ffd92f"/>
     <use xlink:href="#m72fd83df2a" x="271.565141" y="230.76899" style="fill: #ffd92f; stroke: #ffd92f"/>
     <use xlink:href="#m72fd83df2a" x="286.955862" y="234.35527" style="fill: #ffd92f; stroke: #ffd92f"/>
     <use xlink:href="#m72fd83df2a" x="302.346583" y="237.902779" style="fill: #ffd92f; stroke: #ffd92f"/>
     <use xlink:href="#m72fd83df2a" x="317.737304" y="240.858175" style="fill: #ffd92f; stroke: #ffd92f"/>
     <use xlink:href="#m72fd83df2a" x="333.128025" y="244.329147" style="fill: #ffd92f; stroke: #ffd92f"/>
     <use xlink:href="#m72fd83df2a" x="348.518746" y="247.895012" style="fill: #ffd92f; stroke: #ffd92f"/>
     <use xlink:href="#m72fd83df2a" x="363.909467" y="251.940179" style="fill: #ffd92f; stroke: #ffd92f"/>
     <use xlink:href="#m72fd83df2a" x="379.300188" y="254.547259" style="fill: #ffd92f; stroke: #ffd92f"/>
     <use xlink:href="#m72fd83df2a" x="394.690909" y="258.476539" style="fill: #ffd92f; stroke: #ffd92f"/>
    </g>
   </g>
   <g id="line2d_42">
    <path d="M 102.26721 217.71013 
L 117.657931 218.180485 
L 133.048652 217.869683 
L 148.439373 218.502886 
L 163.830094 213.642751 
L 179.220815 217.985436 
L 194.611536 218.346224 
L 210.002257 218.490219 
L 225.392978 217.878659 
L 240.783699 219.231659 
L 256.17442 219.002153 
L 271.565141 292.175927 
L 286.955862 356.601614 
L 302.346583 359.982384 
L 317.737304 364.122102 
L 333.128025 365.054359 
L 348.518746 363.279014 
L 363.909467 363.903915 
L 379.300188 363.884355 
L 394.690909 365.335289 
" clip-path="url(#p5bd11c4e9d)" style="fill: none; stroke: #e5c494; stroke-width: 1.5; stroke-linecap: round"/>
   </g>
   <g id="line2d_43">
    <path d="M 102.26721 217.71013 
L 117.657931 218.180485 
L 133.048652 217.869683 
L 148.439373 218.502886 
L 163.830094 213.642751 
L 179.220815 217.985436 
L 194.611536 218.346224 
L 210.002257 218.490219 
L 225.392978 217.878659 
L 240.783699 219.231659 
L 256.17442 219.002153 
L 271.565141 292.175927 
L 286.955862 356.601614 
L 302.346583 359.982384 
L 317.737304 364.122102 
L 333.128025 365.054359 
L 348.518746 363.279014 
L 363.909467 363.903915 
L 379.300188 363.884355 
L 394.690909 365.335289 
" clip-path="url(#p5bd11c4e9d)" style="fill: none; stroke: #e5c494; stroke-width: 1.5; stroke-linecap: round"/>
    <defs>
     <path id="m8a51f61460" d="M 0 3 
C 0.795609 3 1.55874 2.683901 2.12132 2.12132 
C 2.683901 1.55874 3 0.795609 3 0 
C 3 -0.795609 2.683901 -1.55874 2.12132 -2.12132 
C 1.55874 -2.683901 0.795609 -3 0 -3 
C -0.795609 -3 -1.55874 -2.683901 -2.12132 -2.12132 
C -2.683901 -1.55874 -3 -0.795609 -3 0 
C -3 0.795609 -2.683901 1.55874 -2.12132 2.12132 
C -1.55874 2.683901 -0.795609 3 0 3 
z
" style="stroke: #e5c494"/>
    </defs>
    <g clip-path="url(#p5bd11c4e9d)">
     <use xlink:href="#m8a51f61460" x="102.26721" y="217.71013" style="fill: #e5c494; stroke: #e5c494"/>
     <use xlink:href="#m8a51f61460" x="117.657931" y="218.180485" style="fill: #e5c494; stroke: #e5c494"/>
     <use xlink:href="#m8a51f61460" x="133.048652" y="217.869683" style="fill: #e5c494; stroke: #e5c494"/>
     <use xlink:href="#m8a51f61460" x="148.439373" y="218.502886" style="fill: #e5c494; stroke: #e5c494"/>
     <use xlink:href="#m8a51f61460" x="163.830094" y="213.642751" style="fill: #e5c494; stroke: #e5c494"/>
     <use xlink:href="#m8a51f61460" x="179.220815" y="217.985436" style="fill: #e5c494; stroke: #e5c494"/>
     <use xlink:href="#m8a51f61460" x="194.611536" y="218.346224" style="fill: #e5c494; stroke: #e5c494"/>
     <use xlink:href="#m8a51f61460" x="210.002257" y="218.490219" style="fill: #e5c494; stroke: #e5c494"/>
     <use xlink:href="#m8a51f61460" x="225.392978" y="217.878659" style="fill: #e5c494; stroke: #e5c494"/>
     <use xlink:href="#m8a51f61460" x="240.783699" y="219.231659" style="fill: #e5c494; stroke: #e5c494"/>
     <use xlink:href="#m8a51f61460" x="256.17442" y="219.002153" style="fill: #e5c494; stroke: #e5c494"/>
     <use xlink:href="#m8a51f61460" x="271.565141" y="292.175927" style="fill: #e5c494; stroke: #e5c494"/>
     <use xlink:href="#m8a51f61460" x="286.955862" y="356.601614" style="fill: #e5c494; stroke: #e5c494"/>
     <use xlink:href="#m8a51f61460" x="302.346583" y="359.982384" style="fill: #e5c494; stroke: #e5c494"/>
     <use xlink:href="#m8a51f61460" x="317.737304" y="364.122102" style="fill: #e5c494; stroke: #e5c494"/>
     <use xlink:href="#m8a51f61460" x="333.128025" y="365.054359" style="fill: #e5c494; stroke: #e5c494"/>
     <use xlink:href="#m8a51f61460" x="348.518746" y="363.279014" style="fill: #e5c494; stroke: #e5c494"/>
     <use xlink:href="#m8a51f61460" x="363.909467" y="363.903915" style="fill: #e5c494; stroke: #e5c494"/>
     <use xlink:href="#m8a51f61460" x="379.300188" y="363.884355" style="fill: #e5c494; stroke: #e5c494"/>
     <use xlink:href="#m8a51f61460" x="394.690909" y="365.335289" style="fill: #e5c494; stroke: #e5c494"/>
    </g>
   </g>
   <g id="line2d_44">
    <path d="M 80.509091 221.707058 
L 82.799419 221.02653 
L 85.089748 221.489312 
L 87.380076 227.642171 
L 89.670404 224.673377 
L 91.960733 239.123335 
L 94.251061 225.929951 
L 96.541389 223.915099 
L 98.831718 229.285106 
L 101.122046 226.005867 
L 103.412374 218.34177 
L 105.702703 226.754699 
L 107.993031 225.669996 
L 110.283359 232.974441 
L 112.573688 226.826917 
L 114.864016 223.700044 
L 117.154344 228.742357 
L 119.444673 226.048786 
L 121.735001 212.910543 
L 124.025329 226.345636 
" clip-path="url(#p5bd11c4e9d)" style="fill: none; stroke: #66c2a5; stroke-width: 1.5; stroke-linecap: round"/>
   </g>
   <g id="line2d_45">
    <path d="M 80.509091 221.707058 
L 82.799419 221.02653 
L 85.089748 221.489312 
L 87.380076 227.642171 
L 89.670404 224.673377 
L 91.960733 239.123335 
L 94.251061 225.929951 
L 96.541389 223.915099 
L 98.831718 229.285106 
L 101.122046 226.005867 
L 103.412374 218.34177 
L 105.702703 226.754699 
L 107.993031 225.669996 
L 110.283359 232.974441 
L 112.573688 226.826917 
L 114.864016 223.700044 
L 117.154344 228.742357 
L 119.444673 226.048786 
L 121.735001 212.910543 
L 124.025329 226.345636 
" clip-path="url(#p5bd11c4e9d)" style="fill: none; stroke: #66c2a5; stroke-width: 1.5; stroke-linecap: round"/>
    <g clip-path="url(#p5bd11c4e9d)">
     <use xlink:href="#m3832bb8e53" x="80.509091" y="221.707058" style="fill: #66c2a5; stroke: #66c2a5"/>
     <use xlink:href="#m3832bb8e53" x="82.799419" y="221.02653" style="fill: #66c2a5; stroke: #66c2a5"/>
     <use xlink:href="#m3832bb8e53" x="85.089748" y="221.489312" style="fill: #66c2a5; stroke: #66c2a5"/>
     <use xlink:href="#m3832bb8e53" x="87.380076" y="227.642171" style="fill: #66c2a5; stroke: #66c2a5"/>
     <use xlink:href="#m3832bb8e53" x="89.670404" y="224.673377" style="fill: #66c2a5; stroke: #66c2a5"/>
     <use xlink:href="#m3832bb8e53" x="91.960733" y="239.123335" style="fill: #66c2a5; stroke: #66c2a5"/>
     <use xlink:href="#m3832bb8e53" x="94.251061" y="225.929951" style="fill: #66c2a5; stroke: #66c2a5"/>
     <use xlink:href="#m3832bb8e53" x="96.541389" y="223.915099" style="fill: #66c2a5; stroke: #66c2a5"/>
     <use xlink:href="#m3832bb8e53" x="98.831718" y="229.285106" style="fill: #66c2a5; stroke: #66c2a5"/>
     <use xlink:href="#m3832bb8e53" x="101.122046" y="226.005867" style="fill: #66c2a5; stroke: #66c2a5"/>
     <use xlink:href="#m3832bb8e53" x="103.412374" y="218.34177" style="fill: #66c2a5; stroke: #66c2a5"/>
     <use xlink:href="#m3832bb8e53" x="105.702703" y="226.754699" style="fill: #66c2a5; stroke: #66c2a5"/>
     <use xlink:href="#m3832bb8e53" x="107.993031" y="225.669996" style="fill: #66c2a5; stroke: #66c2a5"/>
     <use xlink:href="#m3832bb8e53" x="110.283359" y="232.974441" style="fill: #66c2a5; stroke: #66c2a5"/>
     <use xlink:href="#m3832bb8e53" x="112.573688" y="226.826917" style="fill: #66c2a5; stroke: #66c2a5"/>
     <use xlink:href="#m3832bb8e53" x="114.864016" y="223.700044" style="fill: #66c2a5; stroke: #66c2a5"/>
     <use xlink:href="#m3832bb8e53" x="117.154344" y="228.742357" style="fill: #66c2a5; stroke: #66c2a5"/>
     <use xlink:href="#m3832bb8e53" x="119.444673" y="226.048786" style="fill: #66c2a5; stroke: #66c2a5"/>
     <use xlink:href="#m3832bb8e53" x="121.735001" y="212.910543" style="fill: #66c2a5; stroke: #66c2a5"/>
     <use xlink:href="#m3832bb8e53" x="124.025329" y="226.345636" style="fill: #66c2a5; stroke: #66c2a5"/>
    </g>
   </g>
   <g id="line2d_46">
    <path d="M 80.509091 221.454841 
L 82.799419 221.583315 
L 85.089748 221.817664 
L 87.380076 221.546956 
L 89.670404 230.338697 
L 91.960733 223.90947 
L 94.251061 222.943411 
L 96.541389 215.276563 
L 98.831718 225.835465 
L 101.122046 224.202814 
L 103.412374 221.363489 
L 105.702703 230.923738 
L 107.993031 224.609394 
L 110.283359 223.521721 
L 112.573688 217.663908 
L 114.864016 225.286093 
L 117.154344 223.624849 
L 119.444673 222.373613 
L 121.735001 231.45232 
L 124.025329 225.166556 
" clip-path="url(#p5bd11c4e9d)" style="fill: none; stroke: #66c2a5; stroke-width: 1.5; stroke-linecap: round"/>
   </g>
   <g id="line2d_47">
    <path d="M 80.509091 221.454841 
L 82.799419 221.583315 
L 85.089748 221.817664 
L 87.380076 221.546956 
L 89.670404 230.338697 
L 91.960733 223.90947 
L 94.251061 222.943411 
L 96.541389 215.276563 
L 98.831718 225.835465 
L 101.122046 224.202814 
L 103.412374 221.363489 
L 105.702703 230.923738 
L 107.993031 224.609394 
L 110.283359 223.521721 
L 112.573688 217.663908 
L 114.864016 225.286093 
L 117.154344 223.624849 
L 119.444673 222.373613 
L 121.735001 231.45232 
L 124.025329 225.166556 
" clip-path="url(#p5bd11c4e9d)" style="fill: none; stroke: #66c2a5; stroke-width: 1.5; stroke-linecap: round"/>
    <g clip-path="url(#p5bd11c4e9d)">
     <use xlink:href="#m3832bb8e53" x="80.509091" y="221.454841" style="fill: #66c2a5; stroke: #66c2a5"/>
     <use xlink:href="#m3832bb8e53" x="82.799419" y="221.583315" style="fill: #66c2a5; stroke: #66c2a5"/>
     <use xlink:href="#m3832bb8e53" x="85.089748" y="221.817664" style="fill: #66c2a5; stroke: #66c2a5"/>
     <use xlink:href="#m3832bb8e53" x="87.380076" y="221.546956" style="fill: #66c2a5; stroke: #66c2a5"/>
     <use xlink:href="#m3832bb8e53" x="89.670404" y="230.338697" style="fill: #66c2a5; stroke: #66c2a5"/>
     <use xlink:href="#m3832bb8e53" x="91.960733" y="223.90947" style="fill: #66c2a5; stroke: #66c2a5"/>
     <use xlink:href="#m3832bb8e53" x="94.251061" y="222.943411" style="fill: #66c2a5; stroke: #66c2a5"/>
     <use xlink:href="#m3832bb8e53" x="96.541389" y="215.276563" style="fill: #66c2a5; stroke: #66c2a5"/>
     <use xlink:href="#m3832bb8e53" x="98.831718" y="225.835465" style="fill: #66c2a5; stroke: #66c2a5"/>
     <use xlink:href="#m3832bb8e53" x="101.122046" y="224.202814" style="fill: #66c2a5; stroke: #66c2a5"/>
     <use xlink:href="#m3832bb8e53" x="103.412374" y="221.363489" style="fill: #66c2a5; stroke: #66c2a5"/>
     <use xlink:href="#m3832bb8e53" x="105.702703" y="230.923738" style="fill: #66c2a5; stroke: #66c2a5"/>
     <use xlink:href="#m3832bb8e53" x="107.993031" y="224.609394" style="fill: #66c2a5; stroke: #66c2a5"/>
     <use xlink:href="#m3832bb8e53" x="110.283359" y="223.521721" style="fill: #66c2a5; stroke: #66c2a5"/>
     <use xlink:href="#m3832bb8e53" x="112.573688" y="217.663908" style="fill: #66c2a5; stroke: #66c2a5"/>
     <use xlink:href="#m3832bb8e53" x="114.864016" y="225.286093" style="fill: #66c2a5; stroke: #66c2a5"/>
     <use xlink:href="#m3832bb8e53" x="117.154344" y="223.624849" style="fill: #66c2a5; stroke: #66c2a5"/>
     <use xlink:href="#m3832bb8e53" x="119.444673" y="222.373613" style="fill: #66c2a5; stroke: #66c2a5"/>
     <use xlink:href="#m3832bb8e53" x="121.735001" y="231.45232" style="fill: #66c2a5; stroke: #66c2a5"/>
     <use xlink:href="#m3832bb8e53" x="124.025329" y="225.166556" style="fill: #66c2a5; stroke: #66c2a5"/>
    </g>
   </g>
   <g id="line2d_48">
    <path d="M 99.707431 194.392312 
L 113.55693 194.998517 
L 127.406428 207.755926 
L 141.255926 218.326618 
L 155.105425 222.191118 
L 168.954923 230.321573 
L 182.804421 238.997852 
L 196.65392 242.255337 
L 210.503418 244.571535 
L 224.352916 245.865466 
L 238.202415 247.477925 
L 252.051913 253.912146 
L 265.901411 259.103716 
L 279.75091 261.001814 
L 293.600408 262.673368 
L 307.449906 264.268968 
L 321.299405 266.265682 
L 335.148903 267.907124 
L 348.998401 269.029067 
L 362.8479 271.233535 
" clip-path="url(#p5bd11c4e9d)" style="fill: none; stroke-dasharray: 24,6; stroke-dashoffset: 0; stroke: #000000; stroke-width: 3"/>
   </g>
   <g id="patch_3">
    <path d="M 64.8 460.8 
L 64.8 86.4 
" style="fill: none; stroke: #cccccc; stroke-width: 1.25; stroke-linejoin: miter; stroke-linecap: square"/>
   </g>
   <g id="patch_4">
    <path d="M 410.4 460.8 
L 410.4 86.4 
" style="fill: none; stroke: #cccccc; stroke-width: 1.25; stroke-linejoin: miter; stroke-linecap: square"/>
   </g>
   <g id="patch_5">
    <path d="M 64.8 460.8 
L 410.4 460.8 
" style="fill: none; stroke: #cccccc; stroke-width: 1.25; stroke-linejoin: miter; stroke-linecap: square"/>
   </g>
   <g id="patch_6">
    <path d="M 64.8 86.4 
L 410.4 86.4 
" style="fill: none; stroke: #cccccc; stroke-width: 1.25; stroke-linejoin: miter; stroke-linecap: square"/>
   </g>
   <g id="text_14">
    <!-- Cluster 0 -->
    <g style="fill: #262626" transform="translate(210.580313 53.52525) scale(0.12 -0.12)">
     <defs>
      <path id="DejaVuSans-43" d="M 4122 4306 
L 4122 3641 
Q 3803 3938 3442 4084 
Q 3081 4231 2675 4231 
Q 1875 4231 1450 3742 
Q 1025 3253 1025 2328 
Q 1025 1406 1450 917 
Q 1875 428 2675 428 
Q 3081 428 3442 575 
Q 3803 722 4122 1019 
L 4122 359 
Q 3791 134 3420 21 
Q 3050 -91 2638 -91 
Q 1578 -91 968 557 
Q 359 1206 359 2328 
Q 359 3453 968 4101 
Q 1578 4750 2638 4750 
Q 3056 4750 3426 4639 
Q 3797 4528 4122 4306 
z
" transform="scale(0.015625)"/>
      <path id="DejaVuSans-6c" d="M 603 4863 
L 1178 4863 
L 1178 0 
L 603 0 
L 603 4863 
z
" transform="scale(0.015625)"/>
      <path id="DejaVuSans-75" d="M 544 1381 
L 544 3500 
L 1119 3500 
L 1119 1403 
Q 1119 906 1312 657 
Q 1506 409 1894 409 
Q 2359 409 2629 706 
Q 2900 1003 2900 1516 
L 2900 3500 
L 3475 3500 
L 3475 0 
L 2900 0 
L 2900 538 
Q 2691 219 2414 64 
Q 2138 -91 1772 -91 
Q 1169 -91 856 284 
Q 544 659 544 1381 
z
M 1991 3584 
L 1991 3584 
z
" transform="scale(0.015625)"/>
      <path id="DejaVuSans-73" d="M 2834 3397 
L 2834 2853 
Q 2591 2978 2328 3040 
Q 2066 3103 1784 3103 
Q 1356 3103 1142 2972 
Q 928 2841 928 2578 
Q 928 2378 1081 2264 
Q 1234 2150 1697 2047 
L 1894 2003 
Q 2506 1872 2764 1633 
Q 3022 1394 3022 966 
Q 3022 478 2636 193 
Q 2250 -91 1575 -91 
Q 1294 -91 989 -36 
Q 684 19 347 128 
L 347 722 
Q 666 556 975 473 
Q 1284 391 1588 391 
Q 1994 391 2212 530 
Q 2431 669 2431 922 
Q 2431 1156 2273 1281 
Q 2116 1406 1581 1522 
L 1381 1569 
Q 847 1681 609 1914 
Q 372 2147 372 2553 
Q 372 3047 722 3315 
Q 1072 3584 1716 3584 
Q 2034 3584 2315 3537 
Q 2597 3491 2834 3397 
z
" transform="scale(0.015625)"/>
      <path id="DejaVuSans-74" d="M 1172 4494 
L 1172 3500 
L 2356 3500 
L 2356 3053 
L 1172 3053 
L 1172 1153 
Q 1172 725 1289 603 
Q 1406 481 1766 481 
L 2356 481 
L 2356 0 
L 1766 0 
Q 1100 0 847 248 
Q 594 497 594 1153 
L 594 3053 
L 172 3053 
L 172 3500 
L 594 3500 
L 594 4494 
L 1172 4494 
z
" transform="scale(0.015625)"/>
      <path id="DejaVuSans-65" d="M 3597 1894 
L 3597 1613 
L 953 1613 
Q 991 1019 1311 708 
Q 1631 397 2203 397 
Q 2534 397 2845 478 
Q 3156 559 3463 722 
L 3463 178 
Q 3153 47 2828 -22 
Q 2503 -91 2169 -91 
Q 1331 -91 842 396 
Q 353 884 353 1716 
Q 353 2575 817 3079 
Q 1281 3584 2069 3584 
Q 2775 3584 3186 3129 
Q 3597 2675 3597 1894 
z
M 3022 2063 
Q 3016 2534 2758 2815 
Q 2500 3097 2075 3097 
Q 1594 3097 1305 2825 
Q 1016 2553 972 2059 
L 3022 2063 
z
" transform="scale(0.015625)"/>
      <path id="DejaVuSans-72" d="M 2631 2963 
Q 2534 3019 2420 3045 
Q 2306 3072 2169 3072 
Q 1681 3072 1420 2755 
Q 1159 2438 1159 1844 
L 1159 0 
L 581 0 
L 581 3500 
L 1159 3500 
L 1159 2956 
Q 1341 3275 1631 3429 
Q 1922 3584 2338 3584 
Q 2397 3584 2469 3576 
Q 2541 3569 2628 3553 
L 2631 2963 
z
" transform="scale(0.015625)"/>
      <path id="DejaVuSans-20" transform="scale(0.015625)"/>
     </defs>
     <use xlink:href="#DejaVuSans-43"/>
     <use xlink:href="#DejaVuSans-6c" transform="translate(69.824219 0)"/>
     <use xlink:href="#DejaVuSans-75" transform="translate(97.607422 0)"/>
     <use xlink:href="#DejaVuSans-73" transform="translate(160.986328 0)"/>
     <use xlink:href="#DejaVuSans-74" transform="translate(213.085938 0)"/>
     <use xlink:href="#DejaVuSans-65" transform="translate(252.294922 0)"/>
     <use xlink:href="#DejaVuSans-72" transform="translate(313.818359 0)"/>
     <use xlink:href="#DejaVuSans-20" transform="translate(354.931641 0)"/>
     <use xlink:href="#DejaVuSans-30" transform="translate(386.71875 0)"/>
    </g>
    <!-- 17 Trajectories  -->
    <g style="fill: #262626" transform="translate(191.595938 66.962625) scale(0.12 -0.12)">
     <defs>
      <path id="DejaVuSans-54" d="M -19 4666 
L 3928 4666 
L 3928 4134 
L 2272 4134 
L 2272 0 
L 1638 0 
L 1638 4134 
L -19 4134 
L -19 4666 
z
" transform="scale(0.015625)"/>
      <path id="DejaVuSans-61" d="M 2194 1759 
Q 1497 1759 1228 1600 
Q 959 1441 959 1056 
Q 959 750 1161 570 
Q 1363 391 1709 391 
Q 2188 391 2477 730 
Q 2766 1069 2766 1631 
L 2766 1759 
L 2194 1759 
z
M 3341 1997 
L 3341 0 
L 2766 0 
L 2766 531 
Q 2569 213 2275 61 
Q 1981 -91 1556 -91 
Q 1019 -91 701 211 
Q 384 513 384 1019 
Q 384 1609 779 1909 
Q 1175 2209 1959 2209 
L 2766 2209 
L 2766 2266 
Q 2766 2663 2505 2880 
Q 2244 3097 1772 3097 
Q 1472 3097 1187 3025 
Q 903 2953 641 2809 
L 641 3341 
Q 956 3463 1253 3523 
Q 1550 3584 1831 3584 
Q 2591 3584 2966 3190 
Q 3341 2797 3341 1997 
z
" transform="scale(0.015625)"/>
      <path id="DejaVuSans-6a" d="M 603 3500 
L 1178 3500 
L 1178 -63 
Q 1178 -731 923 -1031 
Q 669 -1331 103 -1331 
L -116 -1331 
L -116 -844 
L 38 -844 
Q 366 -844 484 -692 
Q 603 -541 603 -63 
L 603 3500 
z
M 603 4863 
L 1178 4863 
L 1178 4134 
L 603 4134 
L 603 4863 
z
" transform="scale(0.015625)"/>
      <path id="DejaVuSans-63" d="M 3122 3366 
L 3122 2828 
Q 2878 2963 2633 3030 
Q 2388 3097 2138 3097 
Q 1578 3097 1268 2742 
Q 959 2388 959 1747 
Q 959 1106 1268 751 
Q 1578 397 2138 397 
Q 2388 397 2633 464 
Q 2878 531 3122 666 
L 3122 134 
Q 2881 22 2623 -34 
Q 2366 -91 2075 -91 
Q 1284 -91 818 406 
Q 353 903 353 1747 
Q 353 2603 823 3093 
Q 1294 3584 2113 3584 
Q 2378 3584 2631 3529 
Q 2884 3475 3122 3366 
z
" transform="scale(0.015625)"/>
      <path id="DejaVuSans-6f" d="M 1959 3097 
Q 1497 3097 1228 2736 
Q 959 2375 959 1747 
Q 959 1119 1226 758 
Q 1494 397 1959 397 
Q 2419 397 2687 759 
Q 2956 1122 2956 1747 
Q 2956 2369 2687 2733 
Q 2419 3097 1959 3097 
z
M 1959 3584 
Q 2709 3584 3137 3096 
Q 3566 2609 3566 1747 
Q 3566 888 3137 398 
Q 2709 -91 1959 -91 
Q 1206 -91 779 398 
Q 353 888 353 1747 
Q 353 2609 779 3096 
Q 1206 3584 1959 3584 
z
" transform="scale(0.015625)"/>
      <path id="DejaVuSans-69" d="M 603 3500 
L 1178 3500 
L 1178 0 
L 603 0 
L 603 3500 
z
M 603 4863 
L 1178 4863 
L 1178 4134 
L 603 4134 
L 603 4863 
z
" transform="scale(0.015625)"/>
     </defs>
     <use xlink:href="#DejaVuSans-31"/>
     <use xlink:href="#DejaVuSans-37" transform="translate(63.623047 0)"/>
     <use xlink:href="#DejaVuSans-20" transform="translate(127.246094 0)"/>
     <use xlink:href="#DejaVuSans-54" transform="translate(159.033203 0)"/>
     <use xlink:href="#DejaVuSans-72" transform="translate(205.367188 0)"/>
     <use xlink:href="#DejaVuSans-61" transform="translate(246.480469 0)"/>
     <use xlink:href="#DejaVuSans-6a" transform="translate(307.759766 0)"/>
     <use xlink:href="#DejaVuSans-65" transform="translate(335.542969 0)"/>
     <use xlink:href="#DejaVuSans-63" transform="translate(397.066406 0)"/>
     <use xlink:href="#DejaVuSans-74" transform="translate(452.046875 0)"/>
     <use xlink:href="#DejaVuSans-6f" transform="translate(491.255859 0)"/>
     <use xlink:href="#DejaVuSans-72" transform="translate(552.4375 0)"/>
     <use xlink:href="#DejaVuSans-69" transform="translate(593.550781 0)"/>
     <use xlink:href="#DejaVuSans-65" transform="translate(621.333984 0)"/>
     <use xlink:href="#DejaVuSans-73" transform="translate(682.857422 0)"/>
     <use xlink:href="#DejaVuSans-20" transform="translate(734.957031 0)"/>
    </g>
    <!--  Colored by: func_old -->
    <g style="fill: #262626" transform="translate(174.737813 80.4) scale(0.12 -0.12)">
     <defs>
      <path id="DejaVuSans-64" d="M 2906 2969 
L 2906 4863 
L 3481 4863 
L 3481 0 
L 2906 0 
L 2906 525 
Q 2725 213 2448 61 
Q 2172 -91 1784 -91 
Q 1150 -91 751 415 
Q 353 922 353 1747 
Q 353 2572 751 3078 
Q 1150 3584 1784 3584 
Q 2172 3584 2448 3432 
Q 2725 3281 2906 2969 
z
M 947 1747 
Q 947 1113 1208 752 
Q 1469 391 1925 391 
Q 2381 391 2643 752 
Q 2906 1113 2906 1747 
Q 2906 2381 2643 2742 
Q 2381 3103 1925 3103 
Q 1469 3103 1208 2742 
Q 947 2381 947 1747 
z
" transform="scale(0.015625)"/>
      <path id="DejaVuSans-62" d="M 3116 1747 
Q 3116 2381 2855 2742 
Q 2594 3103 2138 3103 
Q 1681 3103 1420 2742 
Q 1159 2381 1159 1747 
Q 1159 1113 1420 752 
Q 1681 391 2138 391 
Q 2594 391 2855 752 
Q 3116 1113 3116 1747 
z
M 1159 2969 
Q 1341 3281 1617 3432 
Q 1894 3584 2278 3584 
Q 2916 3584 3314 3078 
Q 3713 2572 3713 1747 
Q 3713 922 3314 415 
Q 2916 -91 2278 -91 
Q 1894 -91 1617 61 
Q 1341 213 1159 525 
L 1159 0 
L 581 0 
L 581 4863 
L 1159 4863 
L 1159 2969 
z
" transform="scale(0.015625)"/>
      <path id="DejaVuSans-79" d="M 2059 -325 
Q 1816 -950 1584 -1140 
Q 1353 -1331 966 -1331 
L 506 -1331 
L 506 -850 
L 844 -850 
Q 1081 -850 1212 -737 
Q 1344 -625 1503 -206 
L 1606 56 
L 191 3500 
L 800 3500 
L 1894 763 
L 2988 3500 
L 3597 3500 
L 2059 -325 
z
" transform="scale(0.015625)"/>
      <path id="DejaVuSans-3a" d="M 750 794 
L 1409 794 
L 1409 0 
L 750 0 
L 750 794 
z
M 750 3309 
L 1409 3309 
L 1409 2516 
L 750 2516 
L 750 3309 
z
" transform="scale(0.015625)"/>
      <path id="DejaVuSans-66" d="M 2375 4863 
L 2375 4384 
L 1825 4384 
Q 1516 4384 1395 4259 
Q 1275 4134 1275 3809 
L 1275 3500 
L 2222 3500 
L 2222 3053 
L 1275 3053 
L 1275 0 
L 697 0 
L 697 3053 
L 147 3053 
L 147 3500 
L 697 3500 
L 697 3744 
Q 697 4328 969 4595 
Q 1241 4863 1831 4863 
L 2375 4863 
z
" transform="scale(0.015625)"/>
      <path id="DejaVuSans-6e" d="M 3513 2113 
L 3513 0 
L 2938 0 
L 2938 2094 
Q 2938 2591 2744 2837 
Q 2550 3084 2163 3084 
Q 1697 3084 1428 2787 
Q 1159 2491 1159 1978 
L 1159 0 
L 581 0 
L 581 3500 
L 1159 3500 
L 1159 2956 
Q 1366 3272 1645 3428 
Q 1925 3584 2291 3584 
Q 2894 3584 3203 3211 
Q 3513 2838 3513 2113 
z
" transform="scale(0.015625)"/>
      <path id="DejaVuSans-5f" d="M 3263 -1063 
L 3263 -1509 
L -63 -1509 
L -63 -1063 
L 3263 -1063 
z
" transform="scale(0.015625)"/>
     </defs>
     <use xlink:href="#DejaVuSans-20"/>
     <use xlink:href="#DejaVuSans-43" transform="translate(31.787109 0)"/>
     <use xlink:href="#DejaVuSans-6f" transform="translate(101.611328 0)"/>
     <use xlink:href="#DejaVuSans-6c" transform="translate(162.792969 0)"/>
     <use xlink:href="#DejaVuSans-6f" transform="translate(190.576172 0)"/>
     <use xlink:href="#DejaVuSans-72" transform="translate(251.757812 0)"/>
     <use xlink:href="#DejaVuSans-65" transform="translate(290.621094 0)"/>
     <use xlink:href="#DejaVuSans-64" transform="translate(352.144531 0)"/>
     <use xlink:href="#DejaVuSans-20" transform="translate(415.621094 0)"/>
     <use xlink:href="#DejaVuSans-62" transform="translate(447.408203 0)"/>
     <use xlink:href="#DejaVuSans-79" transform="translate(510.884766 0)"/>
     <use xlink:href="#DejaVuSans-3a" transform="translate(562.814453 0)"/>
     <use xlink:href="#DejaVuSans-20" transform="translate(596.505859 0)"/>
     <use xlink:href="#DejaVuSans-66" transform="translate(628.292969 0)"/>
     <use xlink:href="#DejaVuSans-75" transform="translate(663.498047 0)"/>
     <use xlink:href="#DejaVuSans-6e" transform="translate(726.876953 0)"/>
     <use xlink:href="#DejaVuSans-63" transform="translate(790.255859 0)"/>
     <use xlink:href="#DejaVuSans-5f" transform="translate(845.236328 0)"/>
     <use xlink:href="#DejaVuSans-6f" transform="translate(895.236328 0)"/>
     <use xlink:href="#DejaVuSans-6c" transform="translate(956.417969 0)"/>
     <use xlink:href="#DejaVuSans-64" transform="translate(984.201172 0)"/>
    </g>
   </g>
   <g id="legend_1">
    <g id="patch_7">
     <path d="M 302.823438 192.075625 
L 402.7 192.075625 
Q 404.9 192.075625 404.9 189.875625 
L 404.9 94.1 
Q 404.9 91.9 402.7 91.9 
L 302.823438 91.9 
Q 300.623438 91.9 300.623438 94.1 
L 300.623438 189.875625 
Q 300.623438 192.075625 302.823438 192.075625 
z
" style="fill: #ffffff; opacity: 0.8; stroke: #cccccc; stroke-linejoin: miter"/>
    </g>
    <g id="line2d_49">
     <path d="M 305.023438 100.808281 
L 316.023438 100.808281 
L 327.023438 100.808281 
" style="fill: none; stroke: #66c2a5; stroke-width: 1.5; stroke-linecap: round"/>
    </g>
    <g id="text_15">
     <!-- exponential -->
     <g style="fill: #262626" transform="translate(335.823438 104.658281) scale(0.11 -0.11)">
      <defs>
       <path id="DejaVuSans-78" d="M 3513 3500 
L 2247 1797 
L 3578 0 
L 2900 0 
L 1881 1375 
L 863 0 
L 184 0 
L 1544 1831 
L 300 3500 
L 978 3500 
L 1906 2253 
L 2834 3500 
L 3513 3500 
z
" transform="scale(0.015625)"/>
       <path id="DejaVuSans-70" d="M 1159 525 
L 1159 -1331 
L 581 -1331 
L 581 3500 
L 1159 3500 
L 1159 2969 
Q 1341 3281 1617 3432 
Q 1894 3584 2278 3584 
Q 2916 3584 3314 3078 
Q 3713 2572 3713 1747 
Q 3713 922 3314 415 
Q 2916 -91 2278 -91 
Q 1894 -91 1617 61 
Q 1341 213 1159 525 
z
M 3116 1747 
Q 3116 2381 2855 2742 
Q 2594 3103 2138 3103 
Q 1681 3103 1420 2742 
Q 1159 2381 1159 1747 
Q 1159 1113 1420 752 
Q 1681 391 2138 391 
Q 2594 391 2855 752 
Q 3116 1113 3116 1747 
z
" transform="scale(0.015625)"/>
      </defs>
      <use xlink:href="#DejaVuSans-65"/>
      <use xlink:href="#DejaVuSans-78" transform="translate(59.773438 0)"/>
      <use xlink:href="#DejaVuSans-70" transform="translate(118.953125 0)"/>
      <use xlink:href="#DejaVuSans-6f" transform="translate(182.429688 0)"/>
      <use xlink:href="#DejaVuSans-6e" transform="translate(243.611328 0)"/>
      <use xlink:href="#DejaVuSans-65" transform="translate(306.990234 0)"/>
      <use xlink:href="#DejaVuSans-6e" transform="translate(368.513672 0)"/>
      <use xlink:href="#DejaVuSans-74" transform="translate(431.892578 0)"/>
      <use xlink:href="#DejaVuSans-69" transform="translate(471.101562 0)"/>
      <use xlink:href="#DejaVuSans-61" transform="translate(498.884766 0)"/>
      <use xlink:href="#DejaVuSans-6c" transform="translate(560.164062 0)"/>
     </g>
    </g>
    <g id="line2d_50">
     <path d="M 305.023438 116.954219 
L 316.023438 116.954219 
L 327.023438 116.954219 
" style="fill: none; stroke: #e78ac3; stroke-width: 1.5; stroke-linecap: round"/>
    </g>
    <g id="text_16">
     <!-- linear -->
     <g style="fill: #262626" transform="translate(335.823438 120.804219) scale(0.11 -0.11)">
      <use xlink:href="#DejaVuSans-6c"/>
      <use xlink:href="#DejaVuSans-69" transform="translate(27.783203 0)"/>
      <use xlink:href="#DejaVuSans-6e" transform="translate(55.566406 0)"/>
      <use xlink:href="#DejaVuSans-65" transform="translate(118.945312 0)"/>
      <use xlink:href="#DejaVuSans-61" transform="translate(180.46875 0)"/>
      <use xlink:href="#DejaVuSans-72" transform="translate(241.748047 0)"/>
     </g>
    </g>
    <g id="line2d_51">
     <path d="M 305.023438 133.100156 
L 316.023438 133.100156 
L 327.023438 133.100156 
" style="fill: none; stroke: #ffd92f; stroke-width: 1.5; stroke-linecap: round"/>
    </g>
    <g id="text_17">
     <!-- poly -->
     <g style="fill: #262626" transform="translate(335.823438 136.950156) scale(0.11 -0.11)">
      <use xlink:href="#DejaVuSans-70"/>
      <use xlink:href="#DejaVuSans-6f" transform="translate(63.476562 0)"/>
      <use xlink:href="#DejaVuSans-6c" transform="translate(124.658203 0)"/>
      <use xlink:href="#DejaVuSans-79" transform="translate(152.441406 0)"/>
     </g>
    </g>
    <g id="line2d_52">
     <path d="M 305.023438 149.246094 
L 316.023438 149.246094 
L 327.023438 149.246094 
" style="fill: none; stroke: #e5c494; stroke-width: 1.5; stroke-linecap: round"/>
    </g>
    <g id="text_18">
     <!-- scurve -->
     <g style="fill: #262626" transform="translate(335.823438 153.096094) scale(0.11 -0.11)">
      <defs>
       <path id="DejaVuSans-76" d="M 191 3500 
L 800 3500 
L 1894 563 
L 2988 3500 
L 3597 3500 
L 2284 0 
L 1503 0 
L 191 3500 
z
" transform="scale(0.015625)"/>
      </defs>
      <use xlink:href="#DejaVuSans-73"/>
      <use xlink:href="#DejaVuSans-63" transform="translate(52.099609 0)"/>
      <use xlink:href="#DejaVuSans-75" transform="translate(107.080078 0)"/>
      <use xlink:href="#DejaVuSans-72" transform="translate(170.458984 0)"/>
      <use xlink:href="#DejaVuSans-76" transform="translate(211.572266 0)"/>
      <use xlink:href="#DejaVuSans-65" transform="translate(270.751953 0)"/>
     </g>
    </g>
    <g id="line2d_53">
     <path d="M 305.023438 165.392031 
L 316.023438 165.392031 
L 327.023438 165.392031 
" style="fill: none; stroke: #66c2a5; stroke-width: 1.5; stroke-linecap: round"/>
    </g>
    <g id="text_19">
     <!-- tan -->
     <g style="fill: #262626" transform="translate(335.823438 169.242031) scale(0.11 -0.11)">
      <use xlink:href="#DejaVuSans-74"/>
      <use xlink:href="#DejaVuSans-61" transform="translate(39.208984 0)"/>
      <use xlink:href="#DejaVuSans-6e" transform="translate(100.488281 0)"/>
     </g>
    </g>
    <g id="line2d_54">
     <path d="M 305.023438 181.537969 
L 316.023438 181.537969 
L 327.023438 181.537969 
" style="fill: none; stroke-dasharray: 24,6; stroke-dashoffset: 0; stroke: #000000; stroke-width: 3"/>
    </g>
    <g id="text_20">
     <!-- Mean -->
     <g style="fill: #262626" transform="translate(335.823438 185.387969) scale(0.11 -0.11)">
      <defs>
       <path id="DejaVuSans-4d" d="M 628 4666 
L 1569 4666 
L 2759 1491 
L 3956 4666 
L 4897 4666 
L 4897 0 
L 4281 0 
L 4281 4097 
L 3078 897 
L 2444 897 
L 1241 4097 
L 1241 0 
L 628 0 
L 628 4666 
z
" transform="scale(0.015625)"/>
      </defs>
      <use xlink:href="#DejaVuSans-4d"/>
      <use xlink:href="#DejaVuSans-65" transform="translate(86.279297 0)"/>
      <use xlink:href="#DejaVuSans-61" transform="translate(147.802734 0)"/>
      <use xlink:href="#DejaVuSans-6e" transform="translate(209.082031 0)"/>
     </g>
    </g>
   </g>
  </g>
 </g>
 <defs>
  <clipPath id="p5bd11c4e9d">
   <rect x="64.8" y="86.4" width="345.6" height="374.4"/>
  </clipPath>
 </defs>
</svg>
