<?xml version="1.0" encoding="utf-8" standalone="no"?>
<!DOCTYPE svg PUBLIC "-//W3C//DTD SVG 1.1//EN"
  "http://www.w3.org/Graphics/SVG/1.1/DTD/svg11.dtd">
<svg xmlns:xlink="http://www.w3.org/1999/xlink" width="432pt" height="576pt" viewBox="0 0 432 576" xmlns="http://www.w3.org/2000/svg" version="1.1">
 <metadata>
  <rdf:RDF xmlns:dc="http://purl.org/dc/elements/1.1/" xmlns:cc="http://creativecommons.org/ns#" xmlns:rdf="http://www.w3.org/1999/02/22-rdf-syntax-ns#">
   <cc:Work>
    <dc:type rdf:resource="http://purl.org/dc/dcmitype/StillImage"/>
    <dc:date>2023-11-02T18:54:10.615946</dc:date>
    <dc:format>image/svg+xml</dc:format>
    <dc:creator>
     <cc:Agent>
      <dc:title>Matplotlib v3.5.3, https://matplotlib.org/</dc:title>
     </cc:Agent>
    </dc:creator>
   </cc:Work>
  </rdf:RDF>
 </metadata>
 <defs>
  <style type="text/css">*{stroke-linejoin: round; stroke-linecap: butt}</style>
 </defs>
 <g id="figure_1">
  <g id="patch_1">
   <path d="M 0 576 
L 432 576 
L 432 0 
L 0 0 
z
" style="fill: #ffffff"/>
  </g>
  <g id="axes_1">
   <g id="patch_2">
    <path d="M 64.8 460.8 
L 410.4 460.8 
L 410.4 86.4 
L 64.8 86.4 
z
" style="fill: #ffffff"/>
   </g>
   <g id="matplotlib.axis_1">
    <g id="xtick_1">
     <g id="line2d_1">
      <path d="M 80.509091 460.8 
L 80.509091 86.4 
" clip-path="url(#paeb1127574)" style="fill: none; stroke: #cccccc; stroke-linecap: round"/>
     </g>
     <g id="text_1">
      <!-- 0 -->
      <g style="fill: #262626" transform="translate(77.009716 478.658281)scale(0.11 -0.11)">
       <defs>
        <path id="DejaVuSans-30" d="M 2034 4250 
Q 1547 4250 1301 3770 
Q 1056 3291 1056 2328 
Q 1056 1369 1301 889 
Q 1547 409 2034 409 
Q 2525 409 2770 889 
Q 3016 1369 3016 2328 
Q 3016 3291 2770 3770 
Q 2525 4250 2034 4250 
z
M 2034 4750 
Q 2819 4750 3233 4129 
Q 3647 3509 3647 2328 
Q 3647 1150 3233 529 
Q 2819 -91 2034 -91 
Q 1250 -91 836 529 
Q 422 1150 422 2328 
Q 422 3509 836 4129 
Q 1250 4750 2034 4750 
z
" transform="scale(0.015625)"/>
       </defs>
       <use xlink:href="#DejaVuSans-30"/>
      </g>
     </g>
    </g>
    <g id="xtick_2">
     <g id="line2d_2">
      <path d="M 130.379221 460.8 
L 130.379221 86.4 
" clip-path="url(#paeb1127574)" style="fill: none; stroke: #cccccc; stroke-linecap: round"/>
     </g>
     <g id="text_2">
      <!-- 2 -->
      <g style="fill: #262626" transform="translate(126.879846 478.658281)scale(0.11 -0.11)">
       <defs>
        <path id="DejaVuSans-32" d="M 1228 531 
L 3431 531 
L 3431 0 
L 469 0 
L 469 531 
Q 828 903 1448 1529 
Q 2069 2156 2228 2338 
Q 2531 2678 2651 2914 
Q 2772 3150 2772 3378 
Q 2772 3750 2511 3984 
Q 2250 4219 1831 4219 
Q 1534 4219 1204 4116 
Q 875 4013 500 3803 
L 500 4441 
Q 881 4594 1212 4672 
Q 1544 4750 1819 4750 
Q 2544 4750 2975 4387 
Q 3406 4025 3406 3419 
Q 3406 3131 3298 2873 
Q 3191 2616 2906 2266 
Q 2828 2175 2409 1742 
Q 1991 1309 1228 531 
z
" transform="scale(0.015625)"/>
       </defs>
       <use xlink:href="#DejaVuSans-32"/>
      </g>
     </g>
    </g>
    <g id="xtick_3">
     <g id="line2d_3">
      <path d="M 180.249351 460.8 
L 180.249351 86.4 
" clip-path="url(#paeb1127574)" style="fill: none; stroke: #cccccc; stroke-linecap: round"/>
     </g>
     <g id="text_3">
      <!-- 4 -->
      <g style="fill: #262626" transform="translate(176.749976 478.658281)scale(0.11 -0.11)">
       <defs>
        <path id="DejaVuSans-34" d="M 2419 4116 
L 825 1625 
L 2419 1625 
L 2419 4116 
z
M 2253 4666 
L 3047 4666 
L 3047 1625 
L 3713 1625 
L 3713 1100 
L 3047 1100 
L 3047 0 
L 2419 0 
L 2419 1100 
L 313 1100 
L 313 1709 
L 2253 4666 
z
" transform="scale(0.015625)"/>
       </defs>
       <use xlink:href="#DejaVuSans-34"/>
      </g>
     </g>
    </g>
    <g id="xtick_4">
     <g id="line2d_4">
      <path d="M 230.119481 460.8 
L 230.119481 86.4 
" clip-path="url(#paeb1127574)" style="fill: none; stroke: #cccccc; stroke-linecap: round"/>
     </g>
     <g id="text_4">
      <!-- 6 -->
      <g style="fill: #262626" transform="translate(226.620106 478.658281)scale(0.11 -0.11)">
       <defs>
        <path id="DejaVuSans-36" d="M 2113 2584 
Q 1688 2584 1439 2293 
Q 1191 2003 1191 1497 
Q 1191 994 1439 701 
Q 1688 409 2113 409 
Q 2538 409 2786 701 
Q 3034 994 3034 1497 
Q 3034 2003 2786 2293 
Q 2538 2584 2113 2584 
z
M 3366 4563 
L 3366 3988 
Q 3128 4100 2886 4159 
Q 2644 4219 2406 4219 
Q 1781 4219 1451 3797 
Q 1122 3375 1075 2522 
Q 1259 2794 1537 2939 
Q 1816 3084 2150 3084 
Q 2853 3084 3261 2657 
Q 3669 2231 3669 1497 
Q 3669 778 3244 343 
Q 2819 -91 2113 -91 
Q 1303 -91 875 529 
Q 447 1150 447 2328 
Q 447 3434 972 4092 
Q 1497 4750 2381 4750 
Q 2619 4750 2861 4703 
Q 3103 4656 3366 4563 
z
" transform="scale(0.015625)"/>
       </defs>
       <use xlink:href="#DejaVuSans-36"/>
      </g>
     </g>
    </g>
    <g id="xtick_5">
     <g id="line2d_5">
      <path d="M 279.98961 460.8 
L 279.98961 86.4 
" clip-path="url(#paeb1127574)" style="fill: none; stroke: #cccccc; stroke-linecap: round"/>
     </g>
     <g id="text_5">
      <!-- 8 -->
      <g style="fill: #262626" transform="translate(276.490235 478.658281)scale(0.11 -0.11)">
       <defs>
        <path id="DejaVuSans-38" d="M 2034 2216 
Q 1584 2216 1326 1975 
Q 1069 1734 1069 1313 
Q 1069 891 1326 650 
Q 1584 409 2034 409 
Q 2484 409 2743 651 
Q 3003 894 3003 1313 
Q 3003 1734 2745 1975 
Q 2488 2216 2034 2216 
z
M 1403 2484 
Q 997 2584 770 2862 
Q 544 3141 544 3541 
Q 544 4100 942 4425 
Q 1341 4750 2034 4750 
Q 2731 4750 3128 4425 
Q 3525 4100 3525 3541 
Q 3525 3141 3298 2862 
Q 3072 2584 2669 2484 
Q 3125 2378 3379 2068 
Q 3634 1759 3634 1313 
Q 3634 634 3220 271 
Q 2806 -91 2034 -91 
Q 1263 -91 848 271 
Q 434 634 434 1313 
Q 434 1759 690 2068 
Q 947 2378 1403 2484 
z
M 1172 3481 
Q 1172 3119 1398 2916 
Q 1625 2713 2034 2713 
Q 2441 2713 2670 2916 
Q 2900 3119 2900 3481 
Q 2900 3844 2670 4047 
Q 2441 4250 2034 4250 
Q 1625 4250 1398 4047 
Q 1172 3844 1172 3481 
z
" transform="scale(0.015625)"/>
       </defs>
       <use xlink:href="#DejaVuSans-38"/>
      </g>
     </g>
    </g>
    <g id="xtick_6">
     <g id="line2d_6">
      <path d="M 329.85974 460.8 
L 329.85974 86.4 
" clip-path="url(#paeb1127574)" style="fill: none; stroke: #cccccc; stroke-linecap: round"/>
     </g>
     <g id="text_6">
      <!-- 10 -->
      <g style="fill: #262626" transform="translate(322.86099 478.658281)scale(0.11 -0.11)">
       <defs>
        <path id="DejaVuSans-31" d="M 794 531 
L 1825 531 
L 1825 4091 
L 703 3866 
L 703 4441 
L 1819 4666 
L 2450 4666 
L 2450 531 
L 3481 531 
L 3481 0 
L 794 0 
L 794 531 
z
" transform="scale(0.015625)"/>
       </defs>
       <use xlink:href="#DejaVuSans-31"/>
       <use xlink:href="#DejaVuSans-30" x="63.623047"/>
      </g>
     </g>
    </g>
    <g id="xtick_7">
     <g id="line2d_7">
      <path d="M 379.72987 460.8 
L 379.72987 86.4 
" clip-path="url(#paeb1127574)" style="fill: none; stroke: #cccccc; stroke-linecap: round"/>
     </g>
     <g id="text_7">
      <!-- 12 -->
      <g style="fill: #262626" transform="translate(372.73112 478.658281)scale(0.11 -0.11)">
       <use xlink:href="#DejaVuSans-31"/>
       <use xlink:href="#DejaVuSans-32" x="63.623047"/>
      </g>
     </g>
    </g>
   </g>
   <g id="matplotlib.axis_2">
    <g id="ytick_1">
     <g id="line2d_8">
      <path d="M 64.8 443.781818 
L 410.4 443.781818 
" clip-path="url(#paeb1127574)" style="fill: none; stroke: #cccccc; stroke-linecap: round"/>
     </g>
     <g id="text_8">
      <!-- 0.0 -->
      <g style="fill: #262626" transform="translate(37.806562 447.960959)scale(0.11 -0.11)">
       <defs>
        <path id="DejaVuSans-2e" d="M 684 794 
L 1344 794 
L 1344 0 
L 684 0 
L 684 794 
z
" transform="scale(0.015625)"/>
       </defs>
       <use xlink:href="#DejaVuSans-30"/>
       <use xlink:href="#DejaVuSans-2e" x="63.623047"/>
       <use xlink:href="#DejaVuSans-30" x="95.410156"/>
      </g>
     </g>
    </g>
    <g id="ytick_2">
     <g id="line2d_9">
      <path d="M 64.8 373.47715 
L 410.4 373.47715 
" clip-path="url(#paeb1127574)" style="fill: none; stroke: #cccccc; stroke-linecap: round"/>
     </g>
     <g id="text_9">
      <!-- 0.1 -->
      <g style="fill: #262626" transform="translate(37.806562 377.656291)scale(0.11 -0.11)">
       <use xlink:href="#DejaVuSans-30"/>
       <use xlink:href="#DejaVuSans-2e" x="63.623047"/>
       <use xlink:href="#DejaVuSans-31" x="95.410156"/>
      </g>
     </g>
    </g>
    <g id="ytick_3">
     <g id="line2d_10">
      <path d="M 64.8 303.172482 
L 410.4 303.172482 
" clip-path="url(#paeb1127574)" style="fill: none; stroke: #cccccc; stroke-linecap: round"/>
     </g>
     <g id="text_10">
      <!-- 0.2 -->
      <g style="fill: #262626" transform="translate(37.806562 307.351622)scale(0.11 -0.11)">
       <use xlink:href="#DejaVuSans-30"/>
       <use xlink:href="#DejaVuSans-2e" x="63.623047"/>
       <use xlink:href="#DejaVuSans-32" x="95.410156"/>
      </g>
     </g>
    </g>
    <g id="ytick_4">
     <g id="line2d_11">
      <path d="M 64.8 232.867814 
L 410.4 232.867814 
" clip-path="url(#paeb1127574)" style="fill: none; stroke: #cccccc; stroke-linecap: round"/>
     </g>
     <g id="text_11">
      <!-- 0.3 -->
      <g style="fill: #262626" transform="translate(37.806562 237.046954)scale(0.11 -0.11)">
       <defs>
        <path id="DejaVuSans-33" d="M 2597 2516 
Q 3050 2419 3304 2112 
Q 3559 1806 3559 1356 
Q 3559 666 3084 287 
Q 2609 -91 1734 -91 
Q 1441 -91 1130 -33 
Q 819 25 488 141 
L 488 750 
Q 750 597 1062 519 
Q 1375 441 1716 441 
Q 2309 441 2620 675 
Q 2931 909 2931 1356 
Q 2931 1769 2642 2001 
Q 2353 2234 1838 2234 
L 1294 2234 
L 1294 2753 
L 1863 2753 
Q 2328 2753 2575 2939 
Q 2822 3125 2822 3475 
Q 2822 3834 2567 4026 
Q 2313 4219 1838 4219 
Q 1578 4219 1281 4162 
Q 984 4106 628 3988 
L 628 4550 
Q 988 4650 1302 4700 
Q 1616 4750 1894 4750 
Q 2613 4750 3031 4423 
Q 3450 4097 3450 3541 
Q 3450 3153 3228 2886 
Q 3006 2619 2597 2516 
z
" transform="scale(0.015625)"/>
       </defs>
       <use xlink:href="#DejaVuSans-30"/>
       <use xlink:href="#DejaVuSans-2e" x="63.623047"/>
       <use xlink:href="#DejaVuSans-33" x="95.410156"/>
      </g>
     </g>
    </g>
    <g id="ytick_5">
     <g id="line2d_12">
      <path d="M 64.8 162.563145 
L 410.4 162.563145 
" clip-path="url(#paeb1127574)" style="fill: none; stroke: #cccccc; stroke-linecap: round"/>
     </g>
     <g id="text_12">
      <!-- 0.4 -->
      <g style="fill: #262626" transform="translate(37.806562 166.742286)scale(0.11 -0.11)">
       <use xlink:href="#DejaVuSans-30"/>
       <use xlink:href="#DejaVuSans-2e" x="63.623047"/>
       <use xlink:href="#DejaVuSans-34" x="95.410156"/>
      </g>
     </g>
    </g>
    <g id="ytick_6">
     <g id="line2d_13">
      <path d="M 64.8 92.258477 
L 410.4 92.258477 
" clip-path="url(#paeb1127574)" style="fill: none; stroke: #cccccc; stroke-linecap: round"/>
     </g>
     <g id="text_13">
      <!-- 0.5 -->
      <g style="fill: #262626" transform="translate(37.806562 96.437618)scale(0.11 -0.11)">
       <defs>
        <path id="DejaVuSans-35" d="M 691 4666 
L 3169 4666 
L 3169 4134 
L 1269 4134 
L 1269 2991 
Q 1406 3038 1543 3061 
Q 1681 3084 1819 3084 
Q 2600 3084 3056 2656 
Q 3513 2228 3513 1497 
Q 3513 744 3044 326 
Q 2575 -91 1722 -91 
Q 1428 -91 1123 -41 
Q 819 9 494 109 
L 494 744 
Q 775 591 1075 516 
Q 1375 441 1709 441 
Q 2250 441 2565 725 
Q 2881 1009 2881 1497 
Q 2881 1984 2565 2268 
Q 2250 2553 1709 2553 
Q 1456 2553 1204 2497 
Q 953 2441 691 2322 
L 691 4666 
z
" transform="scale(0.015625)"/>
       </defs>
       <use xlink:href="#DejaVuSans-30"/>
       <use xlink:href="#DejaVuSans-2e" x="63.623047"/>
       <use xlink:href="#DejaVuSans-35" x="95.410156"/>
      </g>
     </g>
    </g>
   </g>
   <g id="line2d_14">
    <path d="M 80.509091 249.948624 
L 83.002597 259.040129 
L 85.496104 272.301256 
L 87.98961 290.448878 
L 90.483117 313.23014 
L 92.976623 338.921531 
L 105.444156 427.978079 
L 107.937662 433.971153 
L 109.071074 435.930419 
L 110.431169 437.80184 
L 112.924675 440.208065 
L 115.418182 441.699788 
L 117.911688 442.605912 
L 120.405195 443.129343 
L 122.898701 443.39947 
L 125.392208 443.512931 
L 127.885714 443.546118 
L 130.379221 443.547868 
L 132.872727 443.539686 
L 135.366234 443.525424 
L 137.633058 443.501115 
L 137.85974 443.497594 
L 140.353247 443.434104 
L 142.846753 443.280834 
L 152.820779 434.366936 
L 155.314286 421.823645 
L 157.807792 394.625105 
L 160.301299 343.871082 
L 162.794805 271.152845 
L 166.195041 177.016765 
L 177.755844 103.418182 
L 180.249351 104.809406 
L 182.742857 108.357094 
L 185.236364 114.788618 
L 187.72987 125.547138 
L 194.757025 196.874294 
L 202.690909 339.621222 
L 205.184416 375.388759 
L 207.677922 401.279189 
L 210.171429 418.506767 
L 212.664935 429.314891 
L 215.158442 435.816957 
L 217.651948 439.592552 
L 223.319008 443.005836 
L 230.119481 443.712787 
L 232.612987 443.752083 
L 235.106494 443.766092 
L 237.6 443.77077 
L 242.587013 443.772781 
L 245.080519 443.773128 
L 251.880992 443.774689 
L 255.054545 443.775783 
L 257.548052 443.77672 
L 260.041558 443.777662 
L 262.535065 443.77856 
L 265.028571 443.779383 
L 272.509091 443.781162 
L 277.496104 443.781646 
L 279.98961 443.78173 
L 280.442975 443.781737 
L 282.483117 443.781749 
L 284.976623 443.781703 
L 287.47013 443.781544 
L 289.963636 443.781134 
L 294.950649 443.777858 
L 302.431169 443.740737 
L 307.418182 443.620057 
L 309.004959 443.538373 
L 309.911688 443.476096 
L 312.405195 443.223013 
L 314.898701 442.800702 
L 317.392208 442.148432 
L 319.885714 441.247786 
L 324.872727 439.103265 
L 329.85974 437.540223 
L 332.353247 437.108208 
L 334.846753 436.84143 
L 337.34026 436.67595 
L 337.566942 436.663978 
L 339.833766 436.556615 
L 342.327273 436.426916 
L 357.288312 414.761493 
L 359.781818 398.88826 
L 362.275325 383.015316 
L 364.768831 371.939552 
L 366.128926 368.17955 
L 367.262338 366.004693 
L 369.755844 363.267742 
L 372.249351 362.093259 
L 382.223377 361.289451 
L 384.716883 361.275904 
L 387.21039 361.270395 
L 389.703896 361.268155 
L 392.197403 361.267244 
L 394.690909 361.266874 
" clip-path="url(#paeb1127574)" style="fill: none; stroke: #ffd92f; stroke-width: 1.5; stroke-linecap: round"/>
   </g>
   <g id="line2d_15">
    <path d="M 80.509091 249.948624 
L 83.002597 259.040129 
L 85.496104 272.301256 
L 87.98961 290.448878 
L 90.483117 313.23014 
L 92.976623 338.921531 
L 105.444156 427.978079 
L 107.937662 433.971153 
L 109.071074 435.930419 
L 110.431169 437.80184 
L 112.924675 440.208065 
L 115.418182 441.699788 
L 117.911688 442.605912 
L 120.405195 443.129343 
L 122.898701 443.39947 
L 125.392208 443.512931 
L 127.885714 443.546118 
L 130.379221 443.547868 
L 132.872727 443.539686 
L 135.366234 443.525424 
L 137.633058 443.501115 
L 137.85974 443.497594 
L 140.353247 443.434104 
L 142.846753 443.280834 
L 152.820779 434.366936 
L 155.314286 421.823645 
L 157.807792 394.625105 
L 160.301299 343.871082 
L 162.794805 271.152845 
L 166.195041 177.016765 
L 177.755844 103.418182 
L 180.249351 104.809406 
L 182.742857 108.357094 
L 185.236364 114.788618 
L 187.72987 125.547138 
L 194.757025 196.874294 
L 202.690909 339.621222 
L 205.184416 375.388759 
L 207.677922 401.279189 
L 210.171429 418.506767 
L 212.664935 429.314891 
L 215.158442 435.816957 
L 217.651948 439.592552 
L 223.319008 443.005836 
L 230.119481 443.712787 
L 232.612987 443.752083 
L 235.106494 443.766092 
L 237.6 443.77077 
L 242.587013 443.772781 
L 245.080519 443.773128 
L 251.880992 443.774689 
L 255.054545 443.775783 
L 257.548052 443.77672 
L 260.041558 443.777662 
L 262.535065 443.77856 
L 265.028571 443.779383 
L 272.509091 443.781162 
L 277.496104 443.781646 
L 279.98961 443.78173 
L 280.442975 443.781737 
L 282.483117 443.781749 
L 284.976623 443.781703 
L 287.47013 443.781544 
L 289.963636 443.781134 
L 294.950649 443.777858 
L 302.431169 443.740737 
L 307.418182 443.620057 
L 309.004959 443.538373 
L 309.911688 443.476096 
L 312.405195 443.223013 
L 314.898701 442.800702 
L 317.392208 442.148432 
L 319.885714 441.247786 
L 324.872727 439.103265 
L 329.85974 437.540223 
L 332.353247 437.108208 
L 334.846753 436.84143 
L 337.34026 436.67595 
L 337.566942 436.663978 
L 339.833766 436.556615 
L 342.327273 436.426916 
L 357.288312 414.761493 
L 359.781818 398.88826 
L 362.275325 383.015316 
L 364.768831 371.939552 
L 366.128926 368.17955 
L 367.262338 366.004693 
L 369.755844 363.267742 
L 372.249351 362.093259 
L 382.223377 361.289451 
L 384.716883 361.275904 
L 387.21039 361.270395 
L 389.703896 361.268155 
L 392.197403 361.267244 
L 394.690909 361.266874 
" clip-path="url(#paeb1127574)" style="fill: none; stroke: #ffd92f; stroke-width: 1.5; stroke-linecap: round"/>
    <defs>
     <path id="m2c6947eb15" d="M 0 3 
C 0.795609 3 1.55874 2.683901 2.12132 2.12132 
C 2.683901 1.55874 3 0.795609 3 0 
C 3 -0.795609 2.683901 -1.55874 2.12132 -2.12132 
C 1.55874 -2.683901 0.795609 -3 0 -3 
C -0.795609 -3 -1.55874 -2.683901 -2.12132 -2.12132 
C -2.683901 -1.55874 -3 -0.795609 -3 0 
C -3 0.795609 -2.683901 1.55874 -2.12132 2.12132 
C -1.55874 2.683901 -0.795609 3 0 3 
z
" style="stroke: #ffd92f"/>
    </defs>
    <g clip-path="url(#paeb1127574)">
     <use xlink:href="#m2c6947eb15" x="80.509091" y="249.948624" style="fill: #ffd92f; stroke: #ffd92f"/>
     <use xlink:href="#m2c6947eb15" x="83.002597" y="259.040129" style="fill: #ffd92f; stroke: #ffd92f"/>
     <use xlink:href="#m2c6947eb15" x="85.496104" y="272.301256" style="fill: #ffd92f; stroke: #ffd92f"/>
     <use xlink:href="#m2c6947eb15" x="87.98961" y="290.448878" style="fill: #ffd92f; stroke: #ffd92f"/>
     <use xlink:href="#m2c6947eb15" x="90.483117" y="313.23014" style="fill: #ffd92f; stroke: #ffd92f"/>
     <use xlink:href="#m2c6947eb15" x="92.976623" y="338.921531" style="fill: #ffd92f; stroke: #ffd92f"/>
     <use xlink:href="#m2c6947eb15" x="105.444156" y="427.978079" style="fill: #ffd92f; stroke: #ffd92f"/>
     <use xlink:href="#m2c6947eb15" x="107.937662" y="433.971153" style="fill: #ffd92f; stroke: #ffd92f"/>
     <use xlink:href="#m2c6947eb15" x="109.071074" y="435.930419" style="fill: #ffd92f; stroke: #ffd92f"/>
     <use xlink:href="#m2c6947eb15" x="110.431169" y="437.80184" style="fill: #ffd92f; stroke: #ffd92f"/>
     <use xlink:href="#m2c6947eb15" x="112.924675" y="440.208065" style="fill: #ffd92f; stroke: #ffd92f"/>
     <use xlink:href="#m2c6947eb15" x="115.418182" y="441.699788" style="fill: #ffd92f; stroke: #ffd92f"/>
     <use xlink:href="#m2c6947eb15" x="117.911688" y="442.605912" style="fill: #ffd92f; stroke: #ffd92f"/>
     <use xlink:href="#m2c6947eb15" x="120.405195" y="443.129343" style="fill: #ffd92f; stroke: #ffd92f"/>
     <use xlink:href="#m2c6947eb15" x="122.898701" y="443.39947" style="fill: #ffd92f; stroke: #ffd92f"/>
     <use xlink:href="#m2c6947eb15" x="125.392208" y="443.512931" style="fill: #ffd92f; stroke: #ffd92f"/>
     <use xlink:href="#m2c6947eb15" x="127.885714" y="443.546118" style="fill: #ffd92f; stroke: #ffd92f"/>
     <use xlink:href="#m2c6947eb15" x="130.379221" y="443.547868" style="fill: #ffd92f; stroke: #ffd92f"/>
     <use xlink:href="#m2c6947eb15" x="132.872727" y="443.539686" style="fill: #ffd92f; stroke: #ffd92f"/>
     <use xlink:href="#m2c6947eb15" x="135.366234" y="443.525424" style="fill: #ffd92f; stroke: #ffd92f"/>
     <use xlink:href="#m2c6947eb15" x="137.633058" y="443.501115" style="fill: #ffd92f; stroke: #ffd92f"/>
     <use xlink:href="#m2c6947eb15" x="137.85974" y="443.497594" style="fill: #ffd92f; stroke: #ffd92f"/>
     <use xlink:href="#m2c6947eb15" x="140.353247" y="443.434104" style="fill: #ffd92f; stroke: #ffd92f"/>
     <use xlink:href="#m2c6947eb15" x="142.846753" y="443.280834" style="fill: #ffd92f; stroke: #ffd92f"/>
     <use xlink:href="#m2c6947eb15" x="152.820779" y="434.366936" style="fill: #ffd92f; stroke: #ffd92f"/>
     <use xlink:href="#m2c6947eb15" x="155.314286" y="421.823645" style="fill: #ffd92f; stroke: #ffd92f"/>
     <use xlink:href="#m2c6947eb15" x="157.807792" y="394.625105" style="fill: #ffd92f; stroke: #ffd92f"/>
     <use xlink:href="#m2c6947eb15" x="160.301299" y="343.871082" style="fill: #ffd92f; stroke: #ffd92f"/>
     <use xlink:href="#m2c6947eb15" x="162.794805" y="271.152845" style="fill: #ffd92f; stroke: #ffd92f"/>
     <use xlink:href="#m2c6947eb15" x="166.195041" y="177.016765" style="fill: #ffd92f; stroke: #ffd92f"/>
     <use xlink:href="#m2c6947eb15" x="177.755844" y="103.418182" style="fill: #ffd92f; stroke: #ffd92f"/>
     <use xlink:href="#m2c6947eb15" x="180.249351" y="104.809406" style="fill: #ffd92f; stroke: #ffd92f"/>
     <use xlink:href="#m2c6947eb15" x="182.742857" y="108.357094" style="fill: #ffd92f; stroke: #ffd92f"/>
     <use xlink:href="#m2c6947eb15" x="185.236364" y="114.788618" style="fill: #ffd92f; stroke: #ffd92f"/>
     <use xlink:href="#m2c6947eb15" x="187.72987" y="125.547138" style="fill: #ffd92f; stroke: #ffd92f"/>
     <use xlink:href="#m2c6947eb15" x="194.757025" y="196.874294" style="fill: #ffd92f; stroke: #ffd92f"/>
     <use xlink:href="#m2c6947eb15" x="202.690909" y="339.621222" style="fill: #ffd92f; stroke: #ffd92f"/>
     <use xlink:href="#m2c6947eb15" x="205.184416" y="375.388759" style="fill: #ffd92f; stroke: #ffd92f"/>
     <use xlink:href="#m2c6947eb15" x="207.677922" y="401.279189" style="fill: #ffd92f; stroke: #ffd92f"/>
     <use xlink:href="#m2c6947eb15" x="210.171429" y="418.506767" style="fill: #ffd92f; stroke: #ffd92f"/>
     <use xlink:href="#m2c6947eb15" x="212.664935" y="429.314891" style="fill: #ffd92f; stroke: #ffd92f"/>
     <use xlink:href="#m2c6947eb15" x="215.158442" y="435.816957" style="fill: #ffd92f; stroke: #ffd92f"/>
     <use xlink:href="#m2c6947eb15" x="217.651948" y="439.592552" style="fill: #ffd92f; stroke: #ffd92f"/>
     <use xlink:href="#m2c6947eb15" x="223.319008" y="443.005836" style="fill: #ffd92f; stroke: #ffd92f"/>
     <use xlink:href="#m2c6947eb15" x="230.119481" y="443.712787" style="fill: #ffd92f; stroke: #ffd92f"/>
     <use xlink:href="#m2c6947eb15" x="232.612987" y="443.752083" style="fill: #ffd92f; stroke: #ffd92f"/>
     <use xlink:href="#m2c6947eb15" x="235.106494" y="443.766092" style="fill: #ffd92f; stroke: #ffd92f"/>
     <use xlink:href="#m2c6947eb15" x="237.6" y="443.77077" style="fill: #ffd92f; stroke: #ffd92f"/>
     <use xlink:href="#m2c6947eb15" x="242.587013" y="443.772781" style="fill: #ffd92f; stroke: #ffd92f"/>
     <use xlink:href="#m2c6947eb15" x="245.080519" y="443.773128" style="fill: #ffd92f; stroke: #ffd92f"/>
     <use xlink:href="#m2c6947eb15" x="251.880992" y="443.774689" style="fill: #ffd92f; stroke: #ffd92f"/>
     <use xlink:href="#m2c6947eb15" x="255.054545" y="443.775783" style="fill: #ffd92f; stroke: #ffd92f"/>
     <use xlink:href="#m2c6947eb15" x="257.548052" y="443.77672" style="fill: #ffd92f; stroke: #ffd92f"/>
     <use xlink:href="#m2c6947eb15" x="260.041558" y="443.777662" style="fill: #ffd92f; stroke: #ffd92f"/>
     <use xlink:href="#m2c6947eb15" x="262.535065" y="443.77856" style="fill: #ffd92f; stroke: #ffd92f"/>
     <use xlink:href="#m2c6947eb15" x="265.028571" y="443.779383" style="fill: #ffd92f; stroke: #ffd92f"/>
     <use xlink:href="#m2c6947eb15" x="272.509091" y="443.781162" style="fill: #ffd92f; stroke: #ffd92f"/>
     <use xlink:href="#m2c6947eb15" x="277.496104" y="443.781646" style="fill: #ffd92f; stroke: #ffd92f"/>
     <use xlink:href="#m2c6947eb15" x="279.98961" y="443.78173" style="fill: #ffd92f; stroke: #ffd92f"/>
     <use xlink:href="#m2c6947eb15" x="280.442975" y="443.781737" style="fill: #ffd92f; stroke: #ffd92f"/>
     <use xlink:href="#m2c6947eb15" x="282.483117" y="443.781749" style="fill: #ffd92f; stroke: #ffd92f"/>
     <use xlink:href="#m2c6947eb15" x="284.976623" y="443.781703" style="fill: #ffd92f; stroke: #ffd92f"/>
     <use xlink:href="#m2c6947eb15" x="287.47013" y="443.781544" style="fill: #ffd92f; stroke: #ffd92f"/>
     <use xlink:href="#m2c6947eb15" x="289.963636" y="443.781134" style="fill: #ffd92f; stroke: #ffd92f"/>
     <use xlink:href="#m2c6947eb15" x="294.950649" y="443.777858" style="fill: #ffd92f; stroke: #ffd92f"/>
     <use xlink:href="#m2c6947eb15" x="302.431169" y="443.740737" style="fill: #ffd92f; stroke: #ffd92f"/>
     <use xlink:href="#m2c6947eb15" x="307.418182" y="443.620057" style="fill: #ffd92f; stroke: #ffd92f"/>
     <use xlink:href="#m2c6947eb15" x="309.004959" y="443.538373" style="fill: #ffd92f; stroke: #ffd92f"/>
     <use xlink:href="#m2c6947eb15" x="309.911688" y="443.476096" style="fill: #ffd92f; stroke: #ffd92f"/>
     <use xlink:href="#m2c6947eb15" x="312.405195" y="443.223013" style="fill: #ffd92f; stroke: #ffd92f"/>
     <use xlink:href="#m2c6947eb15" x="314.898701" y="442.800702" style="fill: #ffd92f; stroke: #ffd92f"/>
     <use xlink:href="#m2c6947eb15" x="317.392208" y="442.148432" style="fill: #ffd92f; stroke: #ffd92f"/>
     <use xlink:href="#m2c6947eb15" x="319.885714" y="441.247786" style="fill: #ffd92f; stroke: #ffd92f"/>
     <use xlink:href="#m2c6947eb15" x="324.872727" y="439.103265" style="fill: #ffd92f; stroke: #ffd92f"/>
     <use xlink:href="#m2c6947eb15" x="329.85974" y="437.540223" style="fill: #ffd92f; stroke: #ffd92f"/>
     <use xlink:href="#m2c6947eb15" x="332.353247" y="437.108208" style="fill: #ffd92f; stroke: #ffd92f"/>
     <use xlink:href="#m2c6947eb15" x="334.846753" y="436.84143" style="fill: #ffd92f; stroke: #ffd92f"/>
     <use xlink:href="#m2c6947eb15" x="337.34026" y="436.67595" style="fill: #ffd92f; stroke: #ffd92f"/>
     <use xlink:href="#m2c6947eb15" x="337.566942" y="436.663978" style="fill: #ffd92f; stroke: #ffd92f"/>
     <use xlink:href="#m2c6947eb15" x="339.833766" y="436.556615" style="fill: #ffd92f; stroke: #ffd92f"/>
     <use xlink:href="#m2c6947eb15" x="342.327273" y="436.426916" style="fill: #ffd92f; stroke: #ffd92f"/>
     <use xlink:href="#m2c6947eb15" x="357.288312" y="414.761493" style="fill: #ffd92f; stroke: #ffd92f"/>
     <use xlink:href="#m2c6947eb15" x="359.781818" y="398.88826" style="fill: #ffd92f; stroke: #ffd92f"/>
     <use xlink:href="#m2c6947eb15" x="362.275325" y="383.015316" style="fill: #ffd92f; stroke: #ffd92f"/>
     <use xlink:href="#m2c6947eb15" x="364.768831" y="371.939552" style="fill: #ffd92f; stroke: #ffd92f"/>
     <use xlink:href="#m2c6947eb15" x="366.128926" y="368.17955" style="fill: #ffd92f; stroke: #ffd92f"/>
     <use xlink:href="#m2c6947eb15" x="367.262338" y="366.004693" style="fill: #ffd92f; stroke: #ffd92f"/>
     <use xlink:href="#m2c6947eb15" x="369.755844" y="363.267742" style="fill: #ffd92f; stroke: #ffd92f"/>
     <use xlink:href="#m2c6947eb15" x="372.249351" y="362.093259" style="fill: #ffd92f; stroke: #ffd92f"/>
     <use xlink:href="#m2c6947eb15" x="382.223377" y="361.289451" style="fill: #ffd92f; stroke: #ffd92f"/>
     <use xlink:href="#m2c6947eb15" x="384.716883" y="361.275904" style="fill: #ffd92f; stroke: #ffd92f"/>
     <use xlink:href="#m2c6947eb15" x="387.21039" y="361.270395" style="fill: #ffd92f; stroke: #ffd92f"/>
     <use xlink:href="#m2c6947eb15" x="389.703896" y="361.268155" style="fill: #ffd92f; stroke: #ffd92f"/>
     <use xlink:href="#m2c6947eb15" x="392.197403" y="361.267244" style="fill: #ffd92f; stroke: #ffd92f"/>
     <use xlink:href="#m2c6947eb15" x="394.690909" y="361.266874" style="fill: #ffd92f; stroke: #ffd92f"/>
    </g>
   </g>
   <g id="line2d_16">
    <path d="M 80.509091 443.735162 
L 83.002597 443.735731 
L 85.496104 443.736707 
L 87.98961 443.738311 
L 90.483117 443.740764 
L 92.976623 443.744134 
L 105.444156 443.760046 
L 107.937662 443.761387 
L 109.071074 443.761914 
L 110.431169 443.762528 
L 112.924675 443.763722 
L 115.418182 443.765173 
L 117.911688 443.767012 
L 120.405195 443.769249 
L 122.898701 443.77174 
L 125.392208 443.774216 
L 127.885714 443.776406 
L 130.379221 443.778149 
L 132.872727 443.779421 
L 135.366234 443.780293 
L 137.633058 443.780823 
L 137.85974 443.780865 
L 140.353247 443.78123 
L 142.846753 443.781458 
L 152.820779 443.781776 
L 155.314286 443.781797 
L 157.807792 443.781809 
L 160.301299 443.781815 
L 162.794805 443.781817 
L 166.195041 443.781818 
L 177.755844 443.781818 
L 180.249351 443.781818 
L 182.742857 443.781818 
L 185.236364 443.781818 
L 187.72987 443.781818 
L 194.757025 443.781818 
L 202.690909 443.781818 
L 205.184416 443.781817 
L 207.677922 443.781814 
L 210.171429 443.781808 
L 212.664935 443.781795 
L 215.158442 443.781765 
L 217.651948 443.781701 
L 223.319008 443.781245 
L 230.119481 443.779345 
L 232.612987 443.778004 
L 235.106494 443.776187 
L 237.6 443.773835 
L 242.587013 443.767609 
L 245.080519 443.764031 
L 251.880992 443.755255 
L 255.054545 443.752579 
L 257.548052 443.751272 
L 260.041558 443.750559 
L 262.535065 443.75 
L 265.028571 443.748319 
L 272.509091 443.694401 
L 277.496104 443.536049 
L 279.98961 443.382892 
L 280.442975 443.347575 
L 282.483117 443.153241 
L 284.976623 442.819143 
L 287.47013 442.350483 
L 289.963636 441.724878 
L 294.950649 440.046728 
L 302.431169 437.54551 
L 307.418182 436.820388 
L 309.004959 436.807343 
L 309.911688 436.849823 
L 312.405195 437.15868 
L 314.898701 437.747426 
L 317.392208 438.581715 
L 319.885714 439.572219 
L 324.872727 441.495369 
L 329.85974 442.758135 
L 332.353247 443.125703 
L 334.846753 443.367957 
L 337.34026 443.523485 
L 337.566942 443.534426 
L 339.833766 443.621987 
L 342.327273 443.684065 
L 357.288312 443.778613 
L 359.781818 443.780096 
L 362.275325 443.7809 
L 364.768831 443.781334 
L 366.128926 443.781479 
L 367.262338 443.781568 
L 369.755844 443.781693 
L 372.249351 443.781759 
L 382.223377 443.781817 
L 384.716883 443.781818 
L 387.21039 443.781818 
L 389.703896 443.781818 
L 392.197403 443.781818 
L 394.690909 443.781818 
" clip-path="url(#paeb1127574)" style="fill: none; stroke: #ffd92f; stroke-width: 1.5; stroke-linecap: round"/>
   </g>
   <g id="line2d_17">
    <path d="M 80.509091 443.735162 
L 83.002597 443.735731 
L 85.496104 443.736707 
L 87.98961 443.738311 
L 90.483117 443.740764 
L 92.976623 443.744134 
L 105.444156 443.760046 
L 107.937662 443.761387 
L 109.071074 443.761914 
L 110.431169 443.762528 
L 112.924675 443.763722 
L 115.418182 443.765173 
L 117.911688 443.767012 
L 120.405195 443.769249 
L 122.898701 443.77174 
L 125.392208 443.774216 
L 127.885714 443.776406 
L 130.379221 443.778149 
L 132.872727 443.779421 
L 135.366234 443.780293 
L 137.633058 443.780823 
L 137.85974 443.780865 
L 140.353247 443.78123 
L 142.846753 443.781458 
L 152.820779 443.781776 
L 155.314286 443.781797 
L 157.807792 443.781809 
L 160.301299 443.781815 
L 162.794805 443.781817 
L 166.195041 443.781818 
L 177.755844 443.781818 
L 180.249351 443.781818 
L 182.742857 443.781818 
L 185.236364 443.781818 
L 187.72987 443.781818 
L 194.757025 443.781818 
L 202.690909 443.781818 
L 205.184416 443.781817 
L 207.677922 443.781814 
L 210.171429 443.781808 
L 212.664935 443.781795 
L 215.158442 443.781765 
L 217.651948 443.781701 
L 223.319008 443.781245 
L 230.119481 443.779345 
L 232.612987 443.778004 
L 235.106494 443.776187 
L 237.6 443.773835 
L 242.587013 443.767609 
L 245.080519 443.764031 
L 251.880992 443.755255 
L 255.054545 443.752579 
L 257.548052 443.751272 
L 260.041558 443.750559 
L 262.535065 443.75 
L 265.028571 443.748319 
L 272.509091 443.694401 
L 277.496104 443.536049 
L 279.98961 443.382892 
L 280.442975 443.347575 
L 282.483117 443.153241 
L 284.976623 442.819143 
L 287.47013 442.350483 
L 289.963636 441.724878 
L 294.950649 440.046728 
L 302.431169 437.54551 
L 307.418182 436.820388 
L 309.004959 436.807343 
L 309.911688 436.849823 
L 312.405195 437.15868 
L 314.898701 437.747426 
L 317.392208 438.581715 
L 319.885714 439.572219 
L 324.872727 441.495369 
L 329.85974 442.758135 
L 332.353247 443.125703 
L 334.846753 443.367957 
L 337.34026 443.523485 
L 337.566942 443.534426 
L 339.833766 443.621987 
L 342.327273 443.684065 
L 357.288312 443.778613 
L 359.781818 443.780096 
L 362.275325 443.7809 
L 364.768831 443.781334 
L 366.128926 443.781479 
L 367.262338 443.781568 
L 369.755844 443.781693 
L 372.249351 443.781759 
L 382.223377 443.781817 
L 384.716883 443.781818 
L 387.21039 443.781818 
L 389.703896 443.781818 
L 392.197403 443.781818 
L 394.690909 443.781818 
" clip-path="url(#paeb1127574)" style="fill: none; stroke: #ffd92f; stroke-width: 1.5; stroke-linecap: round"/>
    <g clip-path="url(#paeb1127574)">
     <use xlink:href="#m2c6947eb15" x="80.509091" y="443.735162" style="fill: #ffd92f; stroke: #ffd92f"/>
     <use xlink:href="#m2c6947eb15" x="83.002597" y="443.735731" style="fill: #ffd92f; stroke: #ffd92f"/>
     <use xlink:href="#m2c6947eb15" x="85.496104" y="443.736707" style="fill: #ffd92f; stroke: #ffd92f"/>
     <use xlink:href="#m2c6947eb15" x="87.98961" y="443.738311" style="fill: #ffd92f; stroke: #ffd92f"/>
     <use xlink:href="#m2c6947eb15" x="90.483117" y="443.740764" style="fill: #ffd92f; stroke: #ffd92f"/>
     <use xlink:href="#m2c6947eb15" x="92.976623" y="443.744134" style="fill: #ffd92f; stroke: #ffd92f"/>
     <use xlink:href="#m2c6947eb15" x="105.444156" y="443.760046" style="fill: #ffd92f; stroke: #ffd92f"/>
     <use xlink:href="#m2c6947eb15" x="107.937662" y="443.761387" style="fill: #ffd92f; stroke: #ffd92f"/>
     <use xlink:href="#m2c6947eb15" x="109.071074" y="443.761914" style="fill: #ffd92f; stroke: #ffd92f"/>
     <use xlink:href="#m2c6947eb15" x="110.431169" y="443.762528" style="fill: #ffd92f; stroke: #ffd92f"/>
     <use xlink:href="#m2c6947eb15" x="112.924675" y="443.763722" style="fill: #ffd92f; stroke: #ffd92f"/>
     <use xlink:href="#m2c6947eb15" x="115.418182" y="443.765173" style="fill: #ffd92f; stroke: #ffd92f"/>
     <use xlink:href="#m2c6947eb15" x="117.911688" y="443.767012" style="fill: #ffd92f; stroke: #ffd92f"/>
     <use xlink:href="#m2c6947eb15" x="120.405195" y="443.769249" style="fill: #ffd92f; stroke: #ffd92f"/>
     <use xlink:href="#m2c6947eb15" x="122.898701" y="443.77174" style="fill: #ffd92f; stroke: #ffd92f"/>
     <use xlink:href="#m2c6947eb15" x="125.392208" y="443.774216" style="fill: #ffd92f; stroke: #ffd92f"/>
     <use xlink:href="#m2c6947eb15" x="127.885714" y="443.776406" style="fill: #ffd92f; stroke: #ffd92f"/>
     <use xlink:href="#m2c6947eb15" x="130.379221" y="443.778149" style="fill: #ffd92f; stroke: #ffd92f"/>
     <use xlink:href="#m2c6947eb15" x="132.872727" y="443.779421" style="fill: #ffd92f; stroke: #ffd92f"/>
     <use xlink:href="#m2c6947eb15" x="135.366234" y="443.780293" style="fill: #ffd92f; stroke: #ffd92f"/>
     <use xlink:href="#m2c6947eb15" x="137.633058" y="443.780823" style="fill: #ffd92f; stroke: #ffd92f"/>
     <use xlink:href="#m2c6947eb15" x="137.85974" y="443.780865" style="fill: #ffd92f; stroke: #ffd92f"/>
     <use xlink:href="#m2c6947eb15" x="140.353247" y="443.78123" style="fill: #ffd92f; stroke: #ffd92f"/>
     <use xlink:href="#m2c6947eb15" x="142.846753" y="443.781458" style="fill: #ffd92f; stroke: #ffd92f"/>
     <use xlink:href="#m2c6947eb15" x="152.820779" y="443.781776" style="fill: #ffd92f; stroke: #ffd92f"/>
     <use xlink:href="#m2c6947eb15" x="155.314286" y="443.781797" style="fill: #ffd92f; stroke: #ffd92f"/>
     <use xlink:href="#m2c6947eb15" x="157.807792" y="443.781809" style="fill: #ffd92f; stroke: #ffd92f"/>
     <use xlink:href="#m2c6947eb15" x="160.301299" y="443.781815" style="fill: #ffd92f; stroke: #ffd92f"/>
     <use xlink:href="#m2c6947eb15" x="162.794805" y="443.781817" style="fill: #ffd92f; stroke: #ffd92f"/>
     <use xlink:href="#m2c6947eb15" x="166.195041" y="443.781818" style="fill: #ffd92f; stroke: #ffd92f"/>
     <use xlink:href="#m2c6947eb15" x="177.755844" y="443.781818" style="fill: #ffd92f; stroke: #ffd92f"/>
     <use xlink:href="#m2c6947eb15" x="180.249351" y="443.781818" style="fill: #ffd92f; stroke: #ffd92f"/>
     <use xlink:href="#m2c6947eb15" x="182.742857" y="443.781818" style="fill: #ffd92f; stroke: #ffd92f"/>
     <use xlink:href="#m2c6947eb15" x="185.236364" y="443.781818" style="fill: #ffd92f; stroke: #ffd92f"/>
     <use xlink:href="#m2c6947eb15" x="187.72987" y="443.781818" style="fill: #ffd92f; stroke: #ffd92f"/>
     <use xlink:href="#m2c6947eb15" x="194.757025" y="443.781818" style="fill: #ffd92f; stroke: #ffd92f"/>
     <use xlink:href="#m2c6947eb15" x="202.690909" y="443.781818" style="fill: #ffd92f; stroke: #ffd92f"/>
     <use xlink:href="#m2c6947eb15" x="205.184416" y="443.781817" style="fill: #ffd92f; stroke: #ffd92f"/>
     <use xlink:href="#m2c6947eb15" x="207.677922" y="443.781814" style="fill: #ffd92f; stroke: #ffd92f"/>
     <use xlink:href="#m2c6947eb15" x="210.171429" y="443.781808" style="fill: #ffd92f; stroke: #ffd92f"/>
     <use xlink:href="#m2c6947eb15" x="212.664935" y="443.781795" style="fill: #ffd92f; stroke: #ffd92f"/>
     <use xlink:href="#m2c6947eb15" x="215.158442" y="443.781765" style="fill: #ffd92f; stroke: #ffd92f"/>
     <use xlink:href="#m2c6947eb15" x="217.651948" y="443.781701" style="fill: #ffd92f; stroke: #ffd92f"/>
     <use xlink:href="#m2c6947eb15" x="223.319008" y="443.781245" style="fill: #ffd92f; stroke: #ffd92f"/>
     <use xlink:href="#m2c6947eb15" x="230.119481" y="443.779345" style="fill: #ffd92f; stroke: #ffd92f"/>
     <use xlink:href="#m2c6947eb15" x="232.612987" y="443.778004" style="fill: #ffd92f; stroke: #ffd92f"/>
     <use xlink:href="#m2c6947eb15" x="235.106494" y="443.776187" style="fill: #ffd92f; stroke: #ffd92f"/>
     <use xlink:href="#m2c6947eb15" x="237.6" y="443.773835" style="fill: #ffd92f; stroke: #ffd92f"/>
     <use xlink:href="#m2c6947eb15" x="242.587013" y="443.767609" style="fill: #ffd92f; stroke: #ffd92f"/>
     <use xlink:href="#m2c6947eb15" x="245.080519" y="443.764031" style="fill: #ffd92f; stroke: #ffd92f"/>
     <use xlink:href="#m2c6947eb15" x="251.880992" y="443.755255" style="fill: #ffd92f; stroke: #ffd92f"/>
     <use xlink:href="#m2c6947eb15" x="255.054545" y="443.752579" style="fill: #ffd92f; stroke: #ffd92f"/>
     <use xlink:href="#m2c6947eb15" x="257.548052" y="443.751272" style="fill: #ffd92f; stroke: #ffd92f"/>
     <use xlink:href="#m2c6947eb15" x="260.041558" y="443.750559" style="fill: #ffd92f; stroke: #ffd92f"/>
     <use xlink:href="#m2c6947eb15" x="262.535065" y="443.75" style="fill: #ffd92f; stroke: #ffd92f"/>
     <use xlink:href="#m2c6947eb15" x="265.028571" y="443.748319" style="fill: #ffd92f; stroke: #ffd92f"/>
     <use xlink:href="#m2c6947eb15" x="272.509091" y="443.694401" style="fill: #ffd92f; stroke: #ffd92f"/>
     <use xlink:href="#m2c6947eb15" x="277.496104" y="443.536049" style="fill: #ffd92f; stroke: #ffd92f"/>
     <use xlink:href="#m2c6947eb15" x="279.98961" y="443.382892" style="fill: #ffd92f; stroke: #ffd92f"/>
     <use xlink:href="#m2c6947eb15" x="280.442975" y="443.347575" style="fill: #ffd92f; stroke: #ffd92f"/>
     <use xlink:href="#m2c6947eb15" x="282.483117" y="443.153241" style="fill: #ffd92f; stroke: #ffd92f"/>
     <use xlink:href="#m2c6947eb15" x="284.976623" y="442.819143" style="fill: #ffd92f; stroke: #ffd92f"/>
     <use xlink:href="#m2c6947eb15" x="287.47013" y="442.350483" style="fill: #ffd92f; stroke: #ffd92f"/>
     <use xlink:href="#m2c6947eb15" x="289.963636" y="441.724878" style="fill: #ffd92f; stroke: #ffd92f"/>
     <use xlink:href="#m2c6947eb15" x="294.950649" y="440.046728" style="fill: #ffd92f; stroke: #ffd92f"/>
     <use xlink:href="#m2c6947eb15" x="302.431169" y="437.54551" style="fill: #ffd92f; stroke: #ffd92f"/>
     <use xlink:href="#m2c6947eb15" x="307.418182" y="436.820388" style="fill: #ffd92f; stroke: #ffd92f"/>
     <use xlink:href="#m2c6947eb15" x="309.004959" y="436.807343" style="fill: #ffd92f; stroke: #ffd92f"/>
     <use xlink:href="#m2c6947eb15" x="309.911688" y="436.849823" style="fill: #ffd92f; stroke: #ffd92f"/>
     <use xlink:href="#m2c6947eb15" x="312.405195" y="437.15868" style="fill: #ffd92f; stroke: #ffd92f"/>
     <use xlink:href="#m2c6947eb15" x="314.898701" y="437.747426" style="fill: #ffd92f; stroke: #ffd92f"/>
     <use xlink:href="#m2c6947eb15" x="317.392208" y="438.581715" style="fill: #ffd92f; stroke: #ffd92f"/>
     <use xlink:href="#m2c6947eb15" x="319.885714" y="439.572219" style="fill: #ffd92f; stroke: #ffd92f"/>
     <use xlink:href="#m2c6947eb15" x="324.872727" y="441.495369" style="fill: #ffd92f; stroke: #ffd92f"/>
     <use xlink:href="#m2c6947eb15" x="329.85974" y="442.758135" style="fill: #ffd92f; stroke: #ffd92f"/>
     <use xlink:href="#m2c6947eb15" x="332.353247" y="443.125703" style="fill: #ffd92f; stroke: #ffd92f"/>
     <use xlink:href="#m2c6947eb15" x="334.846753" y="443.367957" style="fill: #ffd92f; stroke: #ffd92f"/>
     <use xlink:href="#m2c6947eb15" x="337.34026" y="443.523485" style="fill: #ffd92f; stroke: #ffd92f"/>
     <use xlink:href="#m2c6947eb15" x="337.566942" y="443.534426" style="fill: #ffd92f; stroke: #ffd92f"/>
     <use xlink:href="#m2c6947eb15" x="339.833766" y="443.621987" style="fill: #ffd92f; stroke: #ffd92f"/>
     <use xlink:href="#m2c6947eb15" x="342.327273" y="443.684065" style="fill: #ffd92f; stroke: #ffd92f"/>
     <use xlink:href="#m2c6947eb15" x="357.288312" y="443.778613" style="fill: #ffd92f; stroke: #ffd92f"/>
     <use xlink:href="#m2c6947eb15" x="359.781818" y="443.780096" style="fill: #ffd92f; stroke: #ffd92f"/>
     <use xlink:href="#m2c6947eb15" x="362.275325" y="443.7809" style="fill: #ffd92f; stroke: #ffd92f"/>
     <use xlink:href="#m2c6947eb15" x="364.768831" y="443.781334" style="fill: #ffd92f; stroke: #ffd92f"/>
     <use xlink:href="#m2c6947eb15" x="366.128926" y="443.781479" style="fill: #ffd92f; stroke: #ffd92f"/>
     <use xlink:href="#m2c6947eb15" x="367.262338" y="443.781568" style="fill: #ffd92f; stroke: #ffd92f"/>
     <use xlink:href="#m2c6947eb15" x="369.755844" y="443.781693" style="fill: #ffd92f; stroke: #ffd92f"/>
     <use xlink:href="#m2c6947eb15" x="372.249351" y="443.781759" style="fill: #ffd92f; stroke: #ffd92f"/>
     <use xlink:href="#m2c6947eb15" x="382.223377" y="443.781817" style="fill: #ffd92f; stroke: #ffd92f"/>
     <use xlink:href="#m2c6947eb15" x="384.716883" y="443.781818" style="fill: #ffd92f; stroke: #ffd92f"/>
     <use xlink:href="#m2c6947eb15" x="387.21039" y="443.781818" style="fill: #ffd92f; stroke: #ffd92f"/>
     <use xlink:href="#m2c6947eb15" x="389.703896" y="443.781818" style="fill: #ffd92f; stroke: #ffd92f"/>
     <use xlink:href="#m2c6947eb15" x="392.197403" y="443.781818" style="fill: #ffd92f; stroke: #ffd92f"/>
     <use xlink:href="#m2c6947eb15" x="394.690909" y="443.781818" style="fill: #ffd92f; stroke: #ffd92f"/>
    </g>
   </g>
   <g id="line2d_18">
    <path d="M 80.509091 443.45736 
L 83.002597 443.460481 
L 85.496104 443.464395 
L 87.98961 443.469271 
L 90.483117 443.475301 
L 92.976623 443.482688 
L 105.444156 443.545472 
L 107.937662 443.563164 
L 109.071074 443.571575 
L 110.431169 443.581861 
L 112.924675 443.600879 
L 115.418182 443.619391 
L 117.911688 443.636521 
L 120.405195 443.651482 
L 122.898701 443.663718 
L 125.392208 443.672994 
L 127.885714 443.679401 
L 130.379221 443.683269 
L 132.872727 443.685015 
L 135.366234 443.685002 
L 137.633058 443.683652 
L 137.85974 443.68345 
L 140.353247 443.680447 
L 142.846753 443.676106 
L 152.820779 443.657701 
L 155.314286 443.656632 
L 157.807792 443.657614 
L 160.301299 443.660713 
L 162.794805 443.666051 
L 166.195041 443.677088 
L 177.755844 443.728344 
L 180.249351 443.735638 
L 182.742857 443.740366 
L 185.236364 443.742589 
L 187.72987 443.742452 
L 194.757025 443.731843 
L 202.690909 443.716705 
L 205.184416 443.71427 
L 207.677922 443.713143 
L 210.171429 443.713252 
L 212.664935 443.71455 
L 215.158442 443.71699 
L 217.651948 443.720419 
L 223.319008 443.729837 
L 230.119481 443.738883 
L 232.612987 443.741513 
L 235.106494 443.744254 
L 237.6 443.747461 
L 242.587013 443.756077 
L 245.080519 443.76123 
L 251.880992 443.773483 
L 255.054545 443.776946 
L 257.548052 443.778719 
L 260.041558 443.779881 
L 262.535065 443.780621 
L 265.028571 443.781084 
L 272.509091 443.781652 
L 277.496104 443.781757 
L 279.98961 443.781781 
L 280.442975 443.781784 
L 282.483117 443.781796 
L 284.976623 443.781804 
L 287.47013 443.78181 
L 289.963636 443.781813 
L 294.950649 443.781816 
L 302.431169 443.781818 
L 307.418182 443.781818 
L 309.004959 443.781818 
L 309.911688 443.781818 
L 312.405195 443.781818 
L 314.898701 443.781818 
L 317.392208 443.781818 
L 319.885714 443.781818 
L 324.872727 443.781818 
L 329.85974 443.781818 
L 332.353247 443.781818 
L 334.846753 443.781818 
L 337.34026 443.781818 
L 337.566942 443.781818 
L 339.833766 443.781818 
L 342.327273 443.781818 
L 357.288312 443.781818 
L 359.781818 443.781818 
L 362.275325 443.781818 
L 364.768831 443.781818 
L 366.128926 443.781818 
L 367.262338 443.781818 
L 369.755844 443.781818 
L 372.249351 443.781818 
L 382.223377 443.781818 
L 384.716883 443.781818 
L 387.21039 443.781818 
L 389.703896 443.781818 
L 392.197403 443.781818 
L 394.690909 443.781818 
" clip-path="url(#paeb1127574)" style="fill: none; stroke: #ffd92f; stroke-width: 1.5; stroke-linecap: round"/>
   </g>
   <g id="line2d_19">
    <path d="M 80.509091 443.45736 
L 83.002597 443.460481 
L 85.496104 443.464395 
L 87.98961 443.469271 
L 90.483117 443.475301 
L 92.976623 443.482688 
L 105.444156 443.545472 
L 107.937662 443.563164 
L 109.071074 443.571575 
L 110.431169 443.581861 
L 112.924675 443.600879 
L 115.418182 443.619391 
L 117.911688 443.636521 
L 120.405195 443.651482 
L 122.898701 443.663718 
L 125.392208 443.672994 
L 127.885714 443.679401 
L 130.379221 443.683269 
L 132.872727 443.685015 
L 135.366234 443.685002 
L 137.633058 443.683652 
L 137.85974 443.68345 
L 140.353247 443.680447 
L 142.846753 443.676106 
L 152.820779 443.657701 
L 155.314286 443.656632 
L 157.807792 443.657614 
L 160.301299 443.660713 
L 162.794805 443.666051 
L 166.195041 443.677088 
L 177.755844 443.728344 
L 180.249351 443.735638 
L 182.742857 443.740366 
L 185.236364 443.742589 
L 187.72987 443.742452 
L 194.757025 443.731843 
L 202.690909 443.716705 
L 205.184416 443.71427 
L 207.677922 443.713143 
L 210.171429 443.713252 
L 212.664935 443.71455 
L 215.158442 443.71699 
L 217.651948 443.720419 
L 223.319008 443.729837 
L 230.119481 443.738883 
L 232.612987 443.741513 
L 235.106494 443.744254 
L 237.6 443.747461 
L 242.587013 443.756077 
L 245.080519 443.76123 
L 251.880992 443.773483 
L 255.054545 443.776946 
L 257.548052 443.778719 
L 260.041558 443.779881 
L 262.535065 443.780621 
L 265.028571 443.781084 
L 272.509091 443.781652 
L 277.496104 443.781757 
L 279.98961 443.781781 
L 280.442975 443.781784 
L 282.483117 443.781796 
L 284.976623 443.781804 
L 287.47013 443.78181 
L 289.963636 443.781813 
L 294.950649 443.781816 
L 302.431169 443.781818 
L 307.418182 443.781818 
L 309.004959 443.781818 
L 309.911688 443.781818 
L 312.405195 443.781818 
L 314.898701 443.781818 
L 317.392208 443.781818 
L 319.885714 443.781818 
L 324.872727 443.781818 
L 329.85974 443.781818 
L 332.353247 443.781818 
L 334.846753 443.781818 
L 337.34026 443.781818 
L 337.566942 443.781818 
L 339.833766 443.781818 
L 342.327273 443.781818 
L 357.288312 443.781818 
L 359.781818 443.781818 
L 362.275325 443.781818 
L 364.768831 443.781818 
L 366.128926 443.781818 
L 367.262338 443.781818 
L 369.755844 443.781818 
L 372.249351 443.781818 
L 382.223377 443.781818 
L 384.716883 443.781818 
L 387.21039 443.781818 
L 389.703896 443.781818 
L 392.197403 443.781818 
L 394.690909 443.781818 
" clip-path="url(#paeb1127574)" style="fill: none; stroke: #ffd92f; stroke-width: 1.5; stroke-linecap: round"/>
    <g clip-path="url(#paeb1127574)">
     <use xlink:href="#m2c6947eb15" x="80.509091" y="443.45736" style="fill: #ffd92f; stroke: #ffd92f"/>
     <use xlink:href="#m2c6947eb15" x="83.002597" y="443.460481" style="fill: #ffd92f; stroke: #ffd92f"/>
     <use xlink:href="#m2c6947eb15" x="85.496104" y="443.464395" style="fill: #ffd92f; stroke: #ffd92f"/>
     <use xlink:href="#m2c6947eb15" x="87.98961" y="443.469271" style="fill: #ffd92f; stroke: #ffd92f"/>
     <use xlink:href="#m2c6947eb15" x="90.483117" y="443.475301" style="fill: #ffd92f; stroke: #ffd92f"/>
     <use xlink:href="#m2c6947eb15" x="92.976623" y="443.482688" style="fill: #ffd92f; stroke: #ffd92f"/>
     <use xlink:href="#m2c6947eb15" x="105.444156" y="443.545472" style="fill: #ffd92f; stroke: #ffd92f"/>
     <use xlink:href="#m2c6947eb15" x="107.937662" y="443.563164" style="fill: #ffd92f; stroke: #ffd92f"/>
     <use xlink:href="#m2c6947eb15" x="109.071074" y="443.571575" style="fill: #ffd92f; stroke: #ffd92f"/>
     <use xlink:href="#m2c6947eb15" x="110.431169" y="443.581861" style="fill: #ffd92f; stroke: #ffd92f"/>
     <use xlink:href="#m2c6947eb15" x="112.924675" y="443.600879" style="fill: #ffd92f; stroke: #ffd92f"/>
     <use xlink:href="#m2c6947eb15" x="115.418182" y="443.619391" style="fill: #ffd92f; stroke: #ffd92f"/>
     <use xlink:href="#m2c6947eb15" x="117.911688" y="443.636521" style="fill: #ffd92f; stroke: #ffd92f"/>
     <use xlink:href="#m2c6947eb15" x="120.405195" y="443.651482" style="fill: #ffd92f; stroke: #ffd92f"/>
     <use xlink:href="#m2c6947eb15" x="122.898701" y="443.663718" style="fill: #ffd92f; stroke: #ffd92f"/>
     <use xlink:href="#m2c6947eb15" x="125.392208" y="443.672994" style="fill: #ffd92f; stroke: #ffd92f"/>
     <use xlink:href="#m2c6947eb15" x="127.885714" y="443.679401" style="fill: #ffd92f; stroke: #ffd92f"/>
     <use xlink:href="#m2c6947eb15" x="130.379221" y="443.683269" style="fill: #ffd92f; stroke: #ffd92f"/>
     <use xlink:href="#m2c6947eb15" x="132.872727" y="443.685015" style="fill: #ffd92f; stroke: #ffd92f"/>
     <use xlink:href="#m2c6947eb15" x="135.366234" y="443.685002" style="fill: #ffd92f; stroke: #ffd92f"/>
     <use xlink:href="#m2c6947eb15" x="137.633058" y="443.683652" style="fill: #ffd92f; stroke: #ffd92f"/>
     <use xlink:href="#m2c6947eb15" x="137.85974" y="443.68345" style="fill: #ffd92f; stroke: #ffd92f"/>
     <use xlink:href="#m2c6947eb15" x="140.353247" y="443.680447" style="fill: #ffd92f; stroke: #ffd92f"/>
     <use xlink:href="#m2c6947eb15" x="142.846753" y="443.676106" style="fill: #ffd92f; stroke: #ffd92f"/>
     <use xlink:href="#m2c6947eb15" x="152.820779" y="443.657701" style="fill: #ffd92f; stroke: #ffd92f"/>
     <use xlink:href="#m2c6947eb15" x="155.314286" y="443.656632" style="fill: #ffd92f; stroke: #ffd92f"/>
     <use xlink:href="#m2c6947eb15" x="157.807792" y="443.657614" style="fill: #ffd92f; stroke: #ffd92f"/>
     <use xlink:href="#m2c6947eb15" x="160.301299" y="443.660713" style="fill: #ffd92f; stroke: #ffd92f"/>
     <use xlink:href="#m2c6947eb15" x="162.794805" y="443.666051" style="fill: #ffd92f; stroke: #ffd92f"/>
     <use xlink:href="#m2c6947eb15" x="166.195041" y="443.677088" style="fill: #ffd92f; stroke: #ffd92f"/>
     <use xlink:href="#m2c6947eb15" x="177.755844" y="443.728344" style="fill: #ffd92f; stroke: #ffd92f"/>
     <use xlink:href="#m2c6947eb15" x="180.249351" y="443.735638" style="fill: #ffd92f; stroke: #ffd92f"/>
     <use xlink:href="#m2c6947eb15" x="182.742857" y="443.740366" style="fill: #ffd92f; stroke: #ffd92f"/>
     <use xlink:href="#m2c6947eb15" x="185.236364" y="443.742589" style="fill: #ffd92f; stroke: #ffd92f"/>
     <use xlink:href="#m2c6947eb15" x="187.72987" y="443.742452" style="fill: #ffd92f; stroke: #ffd92f"/>
     <use xlink:href="#m2c6947eb15" x="194.757025" y="443.731843" style="fill: #ffd92f; stroke: #ffd92f"/>
     <use xlink:href="#m2c6947eb15" x="202.690909" y="443.716705" style="fill: #ffd92f; stroke: #ffd92f"/>
     <use xlink:href="#m2c6947eb15" x="205.184416" y="443.71427" style="fill: #ffd92f; stroke: #ffd92f"/>
     <use xlink:href="#m2c6947eb15" x="207.677922" y="443.713143" style="fill: #ffd92f; stroke: #ffd92f"/>
     <use xlink:href="#m2c6947eb15" x="210.171429" y="443.713252" style="fill: #ffd92f; stroke: #ffd92f"/>
     <use xlink:href="#m2c6947eb15" x="212.664935" y="443.71455" style="fill: #ffd92f; stroke: #ffd92f"/>
     <use xlink:href="#m2c6947eb15" x="215.158442" y="443.71699" style="fill: #ffd92f; stroke: #ffd92f"/>
     <use xlink:href="#m2c6947eb15" x="217.651948" y="443.720419" style="fill: #ffd92f; stroke: #ffd92f"/>
     <use xlink:href="#m2c6947eb15" x="223.319008" y="443.729837" style="fill: #ffd92f; stroke: #ffd92f"/>
     <use xlink:href="#m2c6947eb15" x="230.119481" y="443.738883" style="fill: #ffd92f; stroke: #ffd92f"/>
     <use xlink:href="#m2c6947eb15" x="232.612987" y="443.741513" style="fill: #ffd92f; stroke: #ffd92f"/>
     <use xlink:href="#m2c6947eb15" x="235.106494" y="443.744254" style="fill: #ffd92f; stroke: #ffd92f"/>
     <use xlink:href="#m2c6947eb15" x="237.6" y="443.747461" style="fill: #ffd92f; stroke: #ffd92f"/>
     <use xlink:href="#m2c6947eb15" x="242.587013" y="443.756077" style="fill: #ffd92f; stroke: #ffd92f"/>
     <use xlink:href="#m2c6947eb15" x="245.080519" y="443.76123" style="fill: #ffd92f; stroke: #ffd92f"/>
     <use xlink:href="#m2c6947eb15" x="251.880992" y="443.773483" style="fill: #ffd92f; stroke: #ffd92f"/>
     <use xlink:href="#m2c6947eb15" x="255.054545" y="443.776946" style="fill: #ffd92f; stroke: #ffd92f"/>
     <use xlink:href="#m2c6947eb15" x="257.548052" y="443.778719" style="fill: #ffd92f; stroke: #ffd92f"/>
     <use xlink:href="#m2c6947eb15" x="260.041558" y="443.779881" style="fill: #ffd92f; stroke: #ffd92f"/>
     <use xlink:href="#m2c6947eb15" x="262.535065" y="443.780621" style="fill: #ffd92f; stroke: #ffd92f"/>
     <use xlink:href="#m2c6947eb15" x="265.028571" y="443.781084" style="fill: #ffd92f; stroke: #ffd92f"/>
     <use xlink:href="#m2c6947eb15" x="272.509091" y="443.781652" style="fill: #ffd92f; stroke: #ffd92f"/>
     <use xlink:href="#m2c6947eb15" x="277.496104" y="443.781757" style="fill: #ffd92f; stroke: #ffd92f"/>
     <use xlink:href="#m2c6947eb15" x="279.98961" y="443.781781" style="fill: #ffd92f; stroke: #ffd92f"/>
     <use xlink:href="#m2c6947eb15" x="280.442975" y="443.781784" style="fill: #ffd92f; stroke: #ffd92f"/>
     <use xlink:href="#m2c6947eb15" x="282.483117" y="443.781796" style="fill: #ffd92f; stroke: #ffd92f"/>
     <use xlink:href="#m2c6947eb15" x="284.976623" y="443.781804" style="fill: #ffd92f; stroke: #ffd92f"/>
     <use xlink:href="#m2c6947eb15" x="287.47013" y="443.78181" style="fill: #ffd92f; stroke: #ffd92f"/>
     <use xlink:href="#m2c6947eb15" x="289.963636" y="443.781813" style="fill: #ffd92f; stroke: #ffd92f"/>
     <use xlink:href="#m2c6947eb15" x="294.950649" y="443.781816" style="fill: #ffd92f; stroke: #ffd92f"/>
     <use xlink:href="#m2c6947eb15" x="302.431169" y="443.781818" style="fill: #ffd92f; stroke: #ffd92f"/>
     <use xlink:href="#m2c6947eb15" x="307.418182" y="443.781818" style="fill: #ffd92f; stroke: #ffd92f"/>
     <use xlink:href="#m2c6947eb15" x="309.004959" y="443.781818" style="fill: #ffd92f; stroke: #ffd92f"/>
     <use xlink:href="#m2c6947eb15" x="309.911688" y="443.781818" style="fill: #ffd92f; stroke: #ffd92f"/>
     <use xlink:href="#m2c6947eb15" x="312.405195" y="443.781818" style="fill: #ffd92f; stroke: #ffd92f"/>
     <use xlink:href="#m2c6947eb15" x="314.898701" y="443.781818" style="fill: #ffd92f; stroke: #ffd92f"/>
     <use xlink:href="#m2c6947eb15" x="317.392208" y="443.781818" style="fill: #ffd92f; stroke: #ffd92f"/>
     <use xlink:href="#m2c6947eb15" x="319.885714" y="443.781818" style="fill: #ffd92f; stroke: #ffd92f"/>
     <use xlink:href="#m2c6947eb15" x="324.872727" y="443.781818" style="fill: #ffd92f; stroke: #ffd92f"/>
     <use xlink:href="#m2c6947eb15" x="329.85974" y="443.781818" style="fill: #ffd92f; stroke: #ffd92f"/>
     <use xlink:href="#m2c6947eb15" x="332.353247" y="443.781818" style="fill: #ffd92f; stroke: #ffd92f"/>
     <use xlink:href="#m2c6947eb15" x="334.846753" y="443.781818" style="fill: #ffd92f; stroke: #ffd92f"/>
     <use xlink:href="#m2c6947eb15" x="337.34026" y="443.781818" style="fill: #ffd92f; stroke: #ffd92f"/>
     <use xlink:href="#m2c6947eb15" x="337.566942" y="443.781818" style="fill: #ffd92f; stroke: #ffd92f"/>
     <use xlink:href="#m2c6947eb15" x="339.833766" y="443.781818" style="fill: #ffd92f; stroke: #ffd92f"/>
     <use xlink:href="#m2c6947eb15" x="342.327273" y="443.781818" style="fill: #ffd92f; stroke: #ffd92f"/>
     <use xlink:href="#m2c6947eb15" x="357.288312" y="443.781818" style="fill: #ffd92f; stroke: #ffd92f"/>
     <use xlink:href="#m2c6947eb15" x="359.781818" y="443.781818" style="fill: #ffd92f; stroke: #ffd92f"/>
     <use xlink:href="#m2c6947eb15" x="362.275325" y="443.781818" style="fill: #ffd92f; stroke: #ffd92f"/>
     <use xlink:href="#m2c6947eb15" x="364.768831" y="443.781818" style="fill: #ffd92f; stroke: #ffd92f"/>
     <use xlink:href="#m2c6947eb15" x="366.128926" y="443.781818" style="fill: #ffd92f; stroke: #ffd92f"/>
     <use xlink:href="#m2c6947eb15" x="367.262338" y="443.781818" style="fill: #ffd92f; stroke: #ffd92f"/>
     <use xlink:href="#m2c6947eb15" x="369.755844" y="443.781818" style="fill: #ffd92f; stroke: #ffd92f"/>
     <use xlink:href="#m2c6947eb15" x="372.249351" y="443.781818" style="fill: #ffd92f; stroke: #ffd92f"/>
     <use xlink:href="#m2c6947eb15" x="382.223377" y="443.781818" style="fill: #ffd92f; stroke: #ffd92f"/>
     <use xlink:href="#m2c6947eb15" x="384.716883" y="443.781818" style="fill: #ffd92f; stroke: #ffd92f"/>
     <use xlink:href="#m2c6947eb15" x="387.21039" y="443.781818" style="fill: #ffd92f; stroke: #ffd92f"/>
     <use xlink:href="#m2c6947eb15" x="389.703896" y="443.781818" style="fill: #ffd92f; stroke: #ffd92f"/>
     <use xlink:href="#m2c6947eb15" x="392.197403" y="443.781818" style="fill: #ffd92f; stroke: #ffd92f"/>
     <use xlink:href="#m2c6947eb15" x="394.690909" y="443.781818" style="fill: #ffd92f; stroke: #ffd92f"/>
    </g>
   </g>
   <g id="line2d_20">
    <path d="M 80.509091 443.159011 
L 83.002597 443.159035 
L 85.496104 443.159075 
L 87.98961 443.159145 
L 90.483117 443.159267 
L 92.976623 443.159477 
L 105.444156 443.166456 
L 107.937662 443.171535 
L 109.071074 443.174771 
L 110.431169 443.179626 
L 112.924675 443.191847 
L 115.418182 443.208912 
L 117.911688 443.230364 
L 120.405195 443.254209 
L 122.898701 443.277755 
L 125.392208 443.299241 
L 127.885714 443.318764 
L 130.379221 443.337993 
L 132.872727 443.359358 
L 135.366234 443.385332 
L 137.633058 443.414525 
L 137.85974 443.417766 
L 140.353247 443.457143 
L 142.846753 443.501939 
L 152.820779 443.661256 
L 155.314286 443.683355 
L 157.807792 443.69822 
L 160.301299 443.706911 
L 162.794805 443.71022 
L 166.195041 443.706954 
L 177.755844 443.670229 
L 180.249351 443.666758 
L 182.742857 443.665365 
L 185.236364 443.665713 
L 187.72987 443.667673 
L 194.757025 443.682137 
L 202.690909 443.706092 
L 205.184416 443.711642 
L 207.677922 443.7157 
L 210.171429 443.718483 
L 212.664935 443.720312 
L 215.158442 443.721487 
L 217.651948 443.722247 
L 223.319008 443.723487 
L 230.119481 443.730252 
L 232.612987 443.739095 
L 235.106494 443.752687 
L 237.6 443.766205 
L 242.587013 443.778973 
L 245.080519 443.78057 
L 251.880992 443.780978 
L 255.054545 443.780509 
L 257.548052 443.779928 
L 260.041558 443.77914 
L 262.535065 443.778131 
L 265.028571 443.776916 
L 272.509091 443.772597 
L 277.496104 443.769783 
L 279.98961 443.768471 
L 280.442975 443.768237 
L 282.483117 443.767187 
L 284.976623 443.765868 
L 287.47013 443.764429 
L 289.963636 443.762768 
L 294.950649 443.758525 
L 302.431169 443.751983 
L 307.418182 443.749814 
L 309.004959 443.749459 
L 309.911688 443.749305 
L 312.405195 443.749013 
L 314.898701 443.74885 
L 317.392208 443.74876 
L 319.885714 443.748711 
L 324.872727 443.74867 
L 329.85974 443.748658 
L 332.353247 443.748655 
L 334.846753 443.748654 
L 337.34026 443.748653 
L 337.566942 443.748653 
L 339.833766 443.748653 
L 342.327273 443.748653 
L 357.288312 443.748652 
L 359.781818 443.748652 
L 362.275325 443.748652 
L 364.768831 443.748652 
L 366.128926 443.748652 
L 367.262338 443.748652 
L 369.755844 443.748652 
L 372.249351 443.748652 
L 382.223377 443.748652 
L 384.716883 443.748652 
L 387.21039 443.748652 
L 389.703896 443.748652 
L 392.197403 443.748652 
L 394.690909 443.748652 
" clip-path="url(#paeb1127574)" style="fill: none; stroke: #ffd92f; stroke-width: 1.5; stroke-linecap: round"/>
   </g>
   <g id="line2d_21">
    <path d="M 80.509091 443.159011 
L 83.002597 443.159035 
L 85.496104 443.159075 
L 87.98961 443.159145 
L 90.483117 443.159267 
L 92.976623 443.159477 
L 105.444156 443.166456 
L 107.937662 443.171535 
L 109.071074 443.174771 
L 110.431169 443.179626 
L 112.924675 443.191847 
L 115.418182 443.208912 
L 117.911688 443.230364 
L 120.405195 443.254209 
L 122.898701 443.277755 
L 125.392208 443.299241 
L 127.885714 443.318764 
L 130.379221 443.337993 
L 132.872727 443.359358 
L 135.366234 443.385332 
L 137.633058 443.414525 
L 137.85974 443.417766 
L 140.353247 443.457143 
L 142.846753 443.501939 
L 152.820779 443.661256 
L 155.314286 443.683355 
L 157.807792 443.69822 
L 160.301299 443.706911 
L 162.794805 443.71022 
L 166.195041 443.706954 
L 177.755844 443.670229 
L 180.249351 443.666758 
L 182.742857 443.665365 
L 185.236364 443.665713 
L 187.72987 443.667673 
L 194.757025 443.682137 
L 202.690909 443.706092 
L 205.184416 443.711642 
L 207.677922 443.7157 
L 210.171429 443.718483 
L 212.664935 443.720312 
L 215.158442 443.721487 
L 217.651948 443.722247 
L 223.319008 443.723487 
L 230.119481 443.730252 
L 232.612987 443.739095 
L 235.106494 443.752687 
L 237.6 443.766205 
L 242.587013 443.778973 
L 245.080519 443.78057 
L 251.880992 443.780978 
L 255.054545 443.780509 
L 257.548052 443.779928 
L 260.041558 443.77914 
L 262.535065 443.778131 
L 265.028571 443.776916 
L 272.509091 443.772597 
L 277.496104 443.769783 
L 279.98961 443.768471 
L 280.442975 443.768237 
L 282.483117 443.767187 
L 284.976623 443.765868 
L 287.47013 443.764429 
L 289.963636 443.762768 
L 294.950649 443.758525 
L 302.431169 443.751983 
L 307.418182 443.749814 
L 309.004959 443.749459 
L 309.911688 443.749305 
L 312.405195 443.749013 
L 314.898701 443.74885 
L 317.392208 443.74876 
L 319.885714 443.748711 
L 324.872727 443.74867 
L 329.85974 443.748658 
L 332.353247 443.748655 
L 334.846753 443.748654 
L 337.34026 443.748653 
L 337.566942 443.748653 
L 339.833766 443.748653 
L 342.327273 443.748653 
L 357.288312 443.748652 
L 359.781818 443.748652 
L 362.275325 443.748652 
L 364.768831 443.748652 
L 366.128926 443.748652 
L 367.262338 443.748652 
L 369.755844 443.748652 
L 372.249351 443.748652 
L 382.223377 443.748652 
L 384.716883 443.748652 
L 387.21039 443.748652 
L 389.703896 443.748652 
L 392.197403 443.748652 
L 394.690909 443.748652 
" clip-path="url(#paeb1127574)" style="fill: none; stroke: #ffd92f; stroke-width: 1.5; stroke-linecap: round"/>
    <g clip-path="url(#paeb1127574)">
     <use xlink:href="#m2c6947eb15" x="80.509091" y="443.159011" style="fill: #ffd92f; stroke: #ffd92f"/>
     <use xlink:href="#m2c6947eb15" x="83.002597" y="443.159035" style="fill: #ffd92f; stroke: #ffd92f"/>
     <use xlink:href="#m2c6947eb15" x="85.496104" y="443.159075" style="fill: #ffd92f; stroke: #ffd92f"/>
     <use xlink:href="#m2c6947eb15" x="87.98961" y="443.159145" style="fill: #ffd92f; stroke: #ffd92f"/>
     <use xlink:href="#m2c6947eb15" x="90.483117" y="443.159267" style="fill: #ffd92f; stroke: #ffd92f"/>
     <use xlink:href="#m2c6947eb15" x="92.976623" y="443.159477" style="fill: #ffd92f; stroke: #ffd92f"/>
     <use xlink:href="#m2c6947eb15" x="105.444156" y="443.166456" style="fill: #ffd92f; stroke: #ffd92f"/>
     <use xlink:href="#m2c6947eb15" x="107.937662" y="443.171535" style="fill: #ffd92f; stroke: #ffd92f"/>
     <use xlink:href="#m2c6947eb15" x="109.071074" y="443.174771" style="fill: #ffd92f; stroke: #ffd92f"/>
     <use xlink:href="#m2c6947eb15" x="110.431169" y="443.179626" style="fill: #ffd92f; stroke: #ffd92f"/>
     <use xlink:href="#m2c6947eb15" x="112.924675" y="443.191847" style="fill: #ffd92f; stroke: #ffd92f"/>
     <use xlink:href="#m2c6947eb15" x="115.418182" y="443.208912" style="fill: #ffd92f; stroke: #ffd92f"/>
     <use xlink:href="#m2c6947eb15" x="117.911688" y="443.230364" style="fill: #ffd92f; stroke: #ffd92f"/>
     <use xlink:href="#m2c6947eb15" x="120.405195" y="443.254209" style="fill: #ffd92f; stroke: #ffd92f"/>
     <use xlink:href="#m2c6947eb15" x="122.898701" y="443.277755" style="fill: #ffd92f; stroke: #ffd92f"/>
     <use xlink:href="#m2c6947eb15" x="125.392208" y="443.299241" style="fill: #ffd92f; stroke: #ffd92f"/>
     <use xlink:href="#m2c6947eb15" x="127.885714" y="443.318764" style="fill: #ffd92f; stroke: #ffd92f"/>
     <use xlink:href="#m2c6947eb15" x="130.379221" y="443.337993" style="fill: #ffd92f; stroke: #ffd92f"/>
     <use xlink:href="#m2c6947eb15" x="132.872727" y="443.359358" style="fill: #ffd92f; stroke: #ffd92f"/>
     <use xlink:href="#m2c6947eb15" x="135.366234" y="443.385332" style="fill: #ffd92f; stroke: #ffd92f"/>
     <use xlink:href="#m2c6947eb15" x="137.633058" y="443.414525" style="fill: #ffd92f; stroke: #ffd92f"/>
     <use xlink:href="#m2c6947eb15" x="137.85974" y="443.417766" style="fill: #ffd92f; stroke: #ffd92f"/>
     <use xlink:href="#m2c6947eb15" x="140.353247" y="443.457143" style="fill: #ffd92f; stroke: #ffd92f"/>
     <use xlink:href="#m2c6947eb15" x="142.846753" y="443.501939" style="fill: #ffd92f; stroke: #ffd92f"/>
     <use xlink:href="#m2c6947eb15" x="152.820779" y="443.661256" style="fill: #ffd92f; stroke: #ffd92f"/>
     <use xlink:href="#m2c6947eb15" x="155.314286" y="443.683355" style="fill: #ffd92f; stroke: #ffd92f"/>
     <use xlink:href="#m2c6947eb15" x="157.807792" y="443.69822" style="fill: #ffd92f; stroke: #ffd92f"/>
     <use xlink:href="#m2c6947eb15" x="160.301299" y="443.706911" style="fill: #ffd92f; stroke: #ffd92f"/>
     <use xlink:href="#m2c6947eb15" x="162.794805" y="443.71022" style="fill: #ffd92f; stroke: #ffd92f"/>
     <use xlink:href="#m2c6947eb15" x="166.195041" y="443.706954" style="fill: #ffd92f; stroke: #ffd92f"/>
     <use xlink:href="#m2c6947eb15" x="177.755844" y="443.670229" style="fill: #ffd92f; stroke: #ffd92f"/>
     <use xlink:href="#m2c6947eb15" x="180.249351" y="443.666758" style="fill: #ffd92f; stroke: #ffd92f"/>
     <use xlink:href="#m2c6947eb15" x="182.742857" y="443.665365" style="fill: #ffd92f; stroke: #ffd92f"/>
     <use xlink:href="#m2c6947eb15" x="185.236364" y="443.665713" style="fill: #ffd92f; stroke: #ffd92f"/>
     <use xlink:href="#m2c6947eb15" x="187.72987" y="443.667673" style="fill: #ffd92f; stroke: #ffd92f"/>
     <use xlink:href="#m2c6947eb15" x="194.757025" y="443.682137" style="fill: #ffd92f; stroke: #ffd92f"/>
     <use xlink:href="#m2c6947eb15" x="202.690909" y="443.706092" style="fill: #ffd92f; stroke: #ffd92f"/>
     <use xlink:href="#m2c6947eb15" x="205.184416" y="443.711642" style="fill: #ffd92f; stroke: #ffd92f"/>
     <use xlink:href="#m2c6947eb15" x="207.677922" y="443.7157" style="fill: #ffd92f; stroke: #ffd92f"/>
     <use xlink:href="#m2c6947eb15" x="210.171429" y="443.718483" style="fill: #ffd92f; stroke: #ffd92f"/>
     <use xlink:href="#m2c6947eb15" x="212.664935" y="443.720312" style="fill: #ffd92f; stroke: #ffd92f"/>
     <use xlink:href="#m2c6947eb15" x="215.158442" y="443.721487" style="fill: #ffd92f; stroke: #ffd92f"/>
     <use xlink:href="#m2c6947eb15" x="217.651948" y="443.722247" style="fill: #ffd92f; stroke: #ffd92f"/>
     <use xlink:href="#m2c6947eb15" x="223.319008" y="443.723487" style="fill: #ffd92f; stroke: #ffd92f"/>
     <use xlink:href="#m2c6947eb15" x="230.119481" y="443.730252" style="fill: #ffd92f; stroke: #ffd92f"/>
     <use xlink:href="#m2c6947eb15" x="232.612987" y="443.739095" style="fill: #ffd92f; stroke: #ffd92f"/>
     <use xlink:href="#m2c6947eb15" x="235.106494" y="443.752687" style="fill: #ffd92f; stroke: #ffd92f"/>
     <use xlink:href="#m2c6947eb15" x="237.6" y="443.766205" style="fill: #ffd92f; stroke: #ffd92f"/>
     <use xlink:href="#m2c6947eb15" x="242.587013" y="443.778973" style="fill: #ffd92f; stroke: #ffd92f"/>
     <use xlink:href="#m2c6947eb15" x="245.080519" y="443.78057" style="fill: #ffd92f; stroke: #ffd92f"/>
     <use xlink:href="#m2c6947eb15" x="251.880992" y="443.780978" style="fill: #ffd92f; stroke: #ffd92f"/>
     <use xlink:href="#m2c6947eb15" x="255.054545" y="443.780509" style="fill: #ffd92f; stroke: #ffd92f"/>
     <use xlink:href="#m2c6947eb15" x="257.548052" y="443.779928" style="fill: #ffd92f; stroke: #ffd92f"/>
     <use xlink:href="#m2c6947eb15" x="260.041558" y="443.77914" style="fill: #ffd92f; stroke: #ffd92f"/>
     <use xlink:href="#m2c6947eb15" x="262.535065" y="443.778131" style="fill: #ffd92f; stroke: #ffd92f"/>
     <use xlink:href="#m2c6947eb15" x="265.028571" y="443.776916" style="fill: #ffd92f; stroke: #ffd92f"/>
     <use xlink:href="#m2c6947eb15" x="272.509091" y="443.772597" style="fill: #ffd92f; stroke: #ffd92f"/>
     <use xlink:href="#m2c6947eb15" x="277.496104" y="443.769783" style="fill: #ffd92f; stroke: #ffd92f"/>
     <use xlink:href="#m2c6947eb15" x="279.98961" y="443.768471" style="fill: #ffd92f; stroke: #ffd92f"/>
     <use xlink:href="#m2c6947eb15" x="280.442975" y="443.768237" style="fill: #ffd92f; stroke: #ffd92f"/>
     <use xlink:href="#m2c6947eb15" x="282.483117" y="443.767187" style="fill: #ffd92f; stroke: #ffd92f"/>
     <use xlink:href="#m2c6947eb15" x="284.976623" y="443.765868" style="fill: #ffd92f; stroke: #ffd92f"/>
     <use xlink:href="#m2c6947eb15" x="287.47013" y="443.764429" style="fill: #ffd92f; stroke: #ffd92f"/>
     <use xlink:href="#m2c6947eb15" x="289.963636" y="443.762768" style="fill: #ffd92f; stroke: #ffd92f"/>
     <use xlink:href="#m2c6947eb15" x="294.950649" y="443.758525" style="fill: #ffd92f; stroke: #ffd92f"/>
     <use xlink:href="#m2c6947eb15" x="302.431169" y="443.751983" style="fill: #ffd92f; stroke: #ffd92f"/>
     <use xlink:href="#m2c6947eb15" x="307.418182" y="443.749814" style="fill: #ffd92f; stroke: #ffd92f"/>
     <use xlink:href="#m2c6947eb15" x="309.004959" y="443.749459" style="fill: #ffd92f; stroke: #ffd92f"/>
     <use xlink:href="#m2c6947eb15" x="309.911688" y="443.749305" style="fill: #ffd92f; stroke: #ffd92f"/>
     <use xlink:href="#m2c6947eb15" x="312.405195" y="443.749013" style="fill: #ffd92f; stroke: #ffd92f"/>
     <use xlink:href="#m2c6947eb15" x="314.898701" y="443.74885" style="fill: #ffd92f; stroke: #ffd92f"/>
     <use xlink:href="#m2c6947eb15" x="317.392208" y="443.74876" style="fill: #ffd92f; stroke: #ffd92f"/>
     <use xlink:href="#m2c6947eb15" x="319.885714" y="443.748711" style="fill: #ffd92f; stroke: #ffd92f"/>
     <use xlink:href="#m2c6947eb15" x="324.872727" y="443.74867" style="fill: #ffd92f; stroke: #ffd92f"/>
     <use xlink:href="#m2c6947eb15" x="329.85974" y="443.748658" style="fill: #ffd92f; stroke: #ffd92f"/>
     <use xlink:href="#m2c6947eb15" x="332.353247" y="443.748655" style="fill: #ffd92f; stroke: #ffd92f"/>
     <use xlink:href="#m2c6947eb15" x="334.846753" y="443.748654" style="fill: #ffd92f; stroke: #ffd92f"/>
     <use xlink:href="#m2c6947eb15" x="337.34026" y="443.748653" style="fill: #ffd92f; stroke: #ffd92f"/>
     <use xlink:href="#m2c6947eb15" x="337.566942" y="443.748653" style="fill: #ffd92f; stroke: #ffd92f"/>
     <use xlink:href="#m2c6947eb15" x="339.833766" y="443.748653" style="fill: #ffd92f; stroke: #ffd92f"/>
     <use xlink:href="#m2c6947eb15" x="342.327273" y="443.748653" style="fill: #ffd92f; stroke: #ffd92f"/>
     <use xlink:href="#m2c6947eb15" x="357.288312" y="443.748652" style="fill: #ffd92f; stroke: #ffd92f"/>
     <use xlink:href="#m2c6947eb15" x="359.781818" y="443.748652" style="fill: #ffd92f; stroke: #ffd92f"/>
     <use xlink:href="#m2c6947eb15" x="362.275325" y="443.748652" style="fill: #ffd92f; stroke: #ffd92f"/>
     <use xlink:href="#m2c6947eb15" x="364.768831" y="443.748652" style="fill: #ffd92f; stroke: #ffd92f"/>
     <use xlink:href="#m2c6947eb15" x="366.128926" y="443.748652" style="fill: #ffd92f; stroke: #ffd92f"/>
     <use xlink:href="#m2c6947eb15" x="367.262338" y="443.748652" style="fill: #ffd92f; stroke: #ffd92f"/>
     <use xlink:href="#m2c6947eb15" x="369.755844" y="443.748652" style="fill: #ffd92f; stroke: #ffd92f"/>
     <use xlink:href="#m2c6947eb15" x="372.249351" y="443.748652" style="fill: #ffd92f; stroke: #ffd92f"/>
     <use xlink:href="#m2c6947eb15" x="382.223377" y="443.748652" style="fill: #ffd92f; stroke: #ffd92f"/>
     <use xlink:href="#m2c6947eb15" x="384.716883" y="443.748652" style="fill: #ffd92f; stroke: #ffd92f"/>
     <use xlink:href="#m2c6947eb15" x="387.21039" y="443.748652" style="fill: #ffd92f; stroke: #ffd92f"/>
     <use xlink:href="#m2c6947eb15" x="389.703896" y="443.748652" style="fill: #ffd92f; stroke: #ffd92f"/>
     <use xlink:href="#m2c6947eb15" x="392.197403" y="443.748652" style="fill: #ffd92f; stroke: #ffd92f"/>
     <use xlink:href="#m2c6947eb15" x="394.690909" y="443.748652" style="fill: #ffd92f; stroke: #ffd92f"/>
    </g>
   </g>
   <g id="line2d_22">
    <path d="M 80.509091 395.075039 
L 83.002597 397.348844 
L 85.496104 400.665358 
L 87.98961 405.203901 
L 90.483117 410.901368 
L 92.976623 417.326958 
L 105.444156 439.612513 
L 107.937662 441.11681 
L 109.071074 441.60967 
L 110.431169 442.081464 
L 112.924675 442.691128 
L 115.418182 443.073316 
L 117.911688 443.309952 
L 120.405195 443.451071 
L 122.898701 443.528171 
L 125.392208 443.564845 
L 127.885714 443.580172 
L 130.379221 443.58682 
L 132.872727 443.59087 
L 135.366234 443.594013 
L 137.633058 443.595029 
L 137.85974 443.594919 
L 140.353247 443.588231 
L 142.846753 443.560084 
L 152.820779 441.366917 
L 155.314286 438.236357 
L 157.807792 431.440687 
L 160.301299 418.75513 
L 162.794805 400.577733 
L 166.195041 377.045656 
L 177.755844 358.649643 
L 180.249351 358.998405 
L 182.742857 359.886161 
L 185.236364 361.494684 
L 187.72987 364.18477 
L 194.757025 382.017523 
L 202.690909 417.706459 
L 205.184416 426.649122 
L 207.677922 433.122462 
L 210.171429 437.430078 
L 212.664935 440.132887 
L 215.158442 441.7593 
L 217.651948 442.70423 
L 223.319008 443.560101 
L 230.119481 443.740317 
L 232.612987 443.752674 
L 235.106494 443.759805 
L 237.6 443.764568 
L 242.587013 443.76886 
L 245.080519 443.76974 
L 251.880992 443.771102 
L 255.054545 443.771454 
L 257.548052 443.77166 
L 260.041558 443.77181 
L 262.535065 443.771828 
L 265.028571 443.771425 
L 272.509091 443.757453 
L 277.496104 443.717308 
L 279.98961 443.678718 
L 280.442975 443.669833 
L 282.483117 443.620993 
L 284.976623 443.53713 
L 287.47013 443.419567 
L 289.963636 443.262648 
L 294.950649 442.841232 
L 302.431169 442.205012 
L 307.418182 441.993019 
L 309.004959 441.969248 
L 309.911688 441.964261 
L 312.405195 441.978131 
L 314.898701 442.019699 
L 317.392208 442.065181 
L 319.885714 442.087634 
L 324.872727 442.032281 
L 329.85974 441.957208 
L 332.353247 441.941096 
L 334.846753 441.934965 
L 337.34026 441.932477 
L 337.566942 441.932219 
L 339.833766 441.927268 
L 342.327273 441.910363 
L 357.288312 436.517644 
L 359.781818 432.549707 
L 362.275325 428.581672 
L 364.768831 425.812839 
L 366.128926 424.872875 
L 367.262338 424.329183 
L 369.755844 423.644976 
L 372.249351 423.351372 
L 382.223377 423.150435 
L 384.716883 423.147048 
L 387.21039 423.145671 
L 389.703896 423.145111 
L 392.197403 423.144883 
L 394.690909 423.144791 
" clip-path="url(#paeb1127574)" style="fill: none; stroke-dasharray: 24,6; stroke-dashoffset: 0; stroke: #000000; stroke-width: 3"/>
   </g>
   <g id="patch_3">
    <path d="M 64.8 460.8 
L 64.8 86.4 
" style="fill: none; stroke: #cccccc; stroke-width: 1.25; stroke-linejoin: miter; stroke-linecap: square"/>
   </g>
   <g id="patch_4">
    <path d="M 410.4 460.8 
L 410.4 86.4 
" style="fill: none; stroke: #cccccc; stroke-width: 1.25; stroke-linejoin: miter; stroke-linecap: square"/>
   </g>
   <g id="patch_5">
    <path d="M 64.8 460.8 
L 410.4 460.8 
" style="fill: none; stroke: #cccccc; stroke-width: 1.25; stroke-linejoin: miter; stroke-linecap: square"/>
   </g>
   <g id="patch_6">
    <path d="M 64.8 86.4 
L 410.4 86.4 
" style="fill: none; stroke: #cccccc; stroke-width: 1.25; stroke-linejoin: miter; stroke-linecap: square"/>
   </g>
   <g id="text_14">
    <!-- Cluster 5 -->
    <g style="fill: #262626" transform="translate(210.580313 53.52525)scale(0.12 -0.12)">
     <defs>
      <path id="DejaVuSans-43" d="M 4122 4306 
L 4122 3641 
Q 3803 3938 3442 4084 
Q 3081 4231 2675 4231 
Q 1875 4231 1450 3742 
Q 1025 3253 1025 2328 
Q 1025 1406 1450 917 
Q 1875 428 2675 428 
Q 3081 428 3442 575 
Q 3803 722 4122 1019 
L 4122 359 
Q 3791 134 3420 21 
Q 3050 -91 2638 -91 
Q 1578 -91 968 557 
Q 359 1206 359 2328 
Q 359 3453 968 4101 
Q 1578 4750 2638 4750 
Q 3056 4750 3426 4639 
Q 3797 4528 4122 4306 
z
" transform="scale(0.015625)"/>
      <path id="DejaVuSans-6c" d="M 603 4863 
L 1178 4863 
L 1178 0 
L 603 0 
L 603 4863 
z
" transform="scale(0.015625)"/>
      <path id="DejaVuSans-75" d="M 544 1381 
L 544 3500 
L 1119 3500 
L 1119 1403 
Q 1119 906 1312 657 
Q 1506 409 1894 409 
Q 2359 409 2629 706 
Q 2900 1003 2900 1516 
L 2900 3500 
L 3475 3500 
L 3475 0 
L 2900 0 
L 2900 538 
Q 2691 219 2414 64 
Q 2138 -91 1772 -91 
Q 1169 -91 856 284 
Q 544 659 544 1381 
z
M 1991 3584 
L 1991 3584 
z
" transform="scale(0.015625)"/>
      <path id="DejaVuSans-73" d="M 2834 3397 
L 2834 2853 
Q 2591 2978 2328 3040 
Q 2066 3103 1784 3103 
Q 1356 3103 1142 2972 
Q 928 2841 928 2578 
Q 928 2378 1081 2264 
Q 1234 2150 1697 2047 
L 1894 2003 
Q 2506 1872 2764 1633 
Q 3022 1394 3022 966 
Q 3022 478 2636 193 
Q 2250 -91 1575 -91 
Q 1294 -91 989 -36 
Q 684 19 347 128 
L 347 722 
Q 666 556 975 473 
Q 1284 391 1588 391 
Q 1994 391 2212 530 
Q 2431 669 2431 922 
Q 2431 1156 2273 1281 
Q 2116 1406 1581 1522 
L 1381 1569 
Q 847 1681 609 1914 
Q 372 2147 372 2553 
Q 372 3047 722 3315 
Q 1072 3584 1716 3584 
Q 2034 3584 2315 3537 
Q 2597 3491 2834 3397 
z
" transform="scale(0.015625)"/>
      <path id="DejaVuSans-74" d="M 1172 4494 
L 1172 3500 
L 2356 3500 
L 2356 3053 
L 1172 3053 
L 1172 1153 
Q 1172 725 1289 603 
Q 1406 481 1766 481 
L 2356 481 
L 2356 0 
L 1766 0 
Q 1100 0 847 248 
Q 594 497 594 1153 
L 594 3053 
L 172 3053 
L 172 3500 
L 594 3500 
L 594 4494 
L 1172 4494 
z
" transform="scale(0.015625)"/>
      <path id="DejaVuSans-65" d="M 3597 1894 
L 3597 1613 
L 953 1613 
Q 991 1019 1311 708 
Q 1631 397 2203 397 
Q 2534 397 2845 478 
Q 3156 559 3463 722 
L 3463 178 
Q 3153 47 2828 -22 
Q 2503 -91 2169 -91 
Q 1331 -91 842 396 
Q 353 884 353 1716 
Q 353 2575 817 3079 
Q 1281 3584 2069 3584 
Q 2775 3584 3186 3129 
Q 3597 2675 3597 1894 
z
M 3022 2063 
Q 3016 2534 2758 2815 
Q 2500 3097 2075 3097 
Q 1594 3097 1305 2825 
Q 1016 2553 972 2059 
L 3022 2063 
z
" transform="scale(0.015625)"/>
      <path id="DejaVuSans-72" d="M 2631 2963 
Q 2534 3019 2420 3045 
Q 2306 3072 2169 3072 
Q 1681 3072 1420 2755 
Q 1159 2438 1159 1844 
L 1159 0 
L 581 0 
L 581 3500 
L 1159 3500 
L 1159 2956 
Q 1341 3275 1631 3429 
Q 1922 3584 2338 3584 
Q 2397 3584 2469 3576 
Q 2541 3569 2628 3553 
L 2631 2963 
z
" transform="scale(0.015625)"/>
      <path id="DejaVuSans-20" transform="scale(0.015625)"/>
     </defs>
     <use xlink:href="#DejaVuSans-43"/>
     <use xlink:href="#DejaVuSans-6c" x="69.824219"/>
     <use xlink:href="#DejaVuSans-75" x="97.607422"/>
     <use xlink:href="#DejaVuSans-73" x="160.986328"/>
     <use xlink:href="#DejaVuSans-74" x="213.085938"/>
     <use xlink:href="#DejaVuSans-65" x="252.294922"/>
     <use xlink:href="#DejaVuSans-72" x="313.818359"/>
     <use xlink:href="#DejaVuSans-20" x="354.931641"/>
     <use xlink:href="#DejaVuSans-35" x="386.71875"/>
    </g>
    <!-- 4 Trajectories  -->
    <g style="fill: #262626" transform="translate(195.413438 66.962625)scale(0.12 -0.12)">
     <defs>
      <path id="DejaVuSans-54" d="M -19 4666 
L 3928 4666 
L 3928 4134 
L 2272 4134 
L 2272 0 
L 1638 0 
L 1638 4134 
L -19 4134 
L -19 4666 
z
" transform="scale(0.015625)"/>
      <path id="DejaVuSans-61" d="M 2194 1759 
Q 1497 1759 1228 1600 
Q 959 1441 959 1056 
Q 959 750 1161 570 
Q 1363 391 1709 391 
Q 2188 391 2477 730 
Q 2766 1069 2766 1631 
L 2766 1759 
L 2194 1759 
z
M 3341 1997 
L 3341 0 
L 2766 0 
L 2766 531 
Q 2569 213 2275 61 
Q 1981 -91 1556 -91 
Q 1019 -91 701 211 
Q 384 513 384 1019 
Q 384 1609 779 1909 
Q 1175 2209 1959 2209 
L 2766 2209 
L 2766 2266 
Q 2766 2663 2505 2880 
Q 2244 3097 1772 3097 
Q 1472 3097 1187 3025 
Q 903 2953 641 2809 
L 641 3341 
Q 956 3463 1253 3523 
Q 1550 3584 1831 3584 
Q 2591 3584 2966 3190 
Q 3341 2797 3341 1997 
z
" transform="scale(0.015625)"/>
      <path id="DejaVuSans-6a" d="M 603 3500 
L 1178 3500 
L 1178 -63 
Q 1178 -731 923 -1031 
Q 669 -1331 103 -1331 
L -116 -1331 
L -116 -844 
L 38 -844 
Q 366 -844 484 -692 
Q 603 -541 603 -63 
L 603 3500 
z
M 603 4863 
L 1178 4863 
L 1178 4134 
L 603 4134 
L 603 4863 
z
" transform="scale(0.015625)"/>
      <path id="DejaVuSans-63" d="M 3122 3366 
L 3122 2828 
Q 2878 2963 2633 3030 
Q 2388 3097 2138 3097 
Q 1578 3097 1268 2742 
Q 959 2388 959 1747 
Q 959 1106 1268 751 
Q 1578 397 2138 397 
Q 2388 397 2633 464 
Q 2878 531 3122 666 
L 3122 134 
Q 2881 22 2623 -34 
Q 2366 -91 2075 -91 
Q 1284 -91 818 406 
Q 353 903 353 1747 
Q 353 2603 823 3093 
Q 1294 3584 2113 3584 
Q 2378 3584 2631 3529 
Q 2884 3475 3122 3366 
z
" transform="scale(0.015625)"/>
      <path id="DejaVuSans-6f" d="M 1959 3097 
Q 1497 3097 1228 2736 
Q 959 2375 959 1747 
Q 959 1119 1226 758 
Q 1494 397 1959 397 
Q 2419 397 2687 759 
Q 2956 1122 2956 1747 
Q 2956 2369 2687 2733 
Q 2419 3097 1959 3097 
z
M 1959 3584 
Q 2709 3584 3137 3096 
Q 3566 2609 3566 1747 
Q 3566 888 3137 398 
Q 2709 -91 1959 -91 
Q 1206 -91 779 398 
Q 353 888 353 1747 
Q 353 2609 779 3096 
Q 1206 3584 1959 3584 
z
" transform="scale(0.015625)"/>
      <path id="DejaVuSans-69" d="M 603 3500 
L 1178 3500 
L 1178 0 
L 603 0 
L 603 3500 
z
M 603 4863 
L 1178 4863 
L 1178 4134 
L 603 4134 
L 603 4863 
z
" transform="scale(0.015625)"/>
     </defs>
     <use xlink:href="#DejaVuSans-34"/>
     <use xlink:href="#DejaVuSans-20" x="63.623047"/>
     <use xlink:href="#DejaVuSans-54" x="95.410156"/>
     <use xlink:href="#DejaVuSans-72" x="141.744141"/>
     <use xlink:href="#DejaVuSans-61" x="182.857422"/>
     <use xlink:href="#DejaVuSans-6a" x="244.136719"/>
     <use xlink:href="#DejaVuSans-65" x="271.919922"/>
     <use xlink:href="#DejaVuSans-63" x="333.443359"/>
     <use xlink:href="#DejaVuSans-74" x="388.423828"/>
     <use xlink:href="#DejaVuSans-6f" x="427.632812"/>
     <use xlink:href="#DejaVuSans-72" x="488.814453"/>
     <use xlink:href="#DejaVuSans-69" x="529.927734"/>
     <use xlink:href="#DejaVuSans-65" x="557.710938"/>
     <use xlink:href="#DejaVuSans-73" x="619.234375"/>
     <use xlink:href="#DejaVuSans-20" x="671.333984"/>
    </g>
    <!--  Colored by: original_trajectory_old -->
    <g style="fill: #262626" transform="translate(133.1325 80.4)scale(0.12 -0.12)">
     <defs>
      <path id="DejaVuSans-64" d="M 2906 2969 
L 2906 4863 
L 3481 4863 
L 3481 0 
L 2906 0 
L 2906 525 
Q 2725 213 2448 61 
Q 2172 -91 1784 -91 
Q 1150 -91 751 415 
Q 353 922 353 1747 
Q 353 2572 751 3078 
Q 1150 3584 1784 3584 
Q 2172 3584 2448 3432 
Q 2725 3281 2906 2969 
z
M 947 1747 
Q 947 1113 1208 752 
Q 1469 391 1925 391 
Q 2381 391 2643 752 
Q 2906 1113 2906 1747 
Q 2906 2381 2643 2742 
Q 2381 3103 1925 3103 
Q 1469 3103 1208 2742 
Q 947 2381 947 1747 
z
" transform="scale(0.015625)"/>
      <path id="DejaVuSans-62" d="M 3116 1747 
Q 3116 2381 2855 2742 
Q 2594 3103 2138 3103 
Q 1681 3103 1420 2742 
Q 1159 2381 1159 1747 
Q 1159 1113 1420 752 
Q 1681 391 2138 391 
Q 2594 391 2855 752 
Q 3116 1113 3116 1747 
z
M 1159 2969 
Q 1341 3281 1617 3432 
Q 1894 3584 2278 3584 
Q 2916 3584 3314 3078 
Q 3713 2572 3713 1747 
Q 3713 922 3314 415 
Q 2916 -91 2278 -91 
Q 1894 -91 1617 61 
Q 1341 213 1159 525 
L 1159 0 
L 581 0 
L 581 4863 
L 1159 4863 
L 1159 2969 
z
" transform="scale(0.015625)"/>
      <path id="DejaVuSans-79" d="M 2059 -325 
Q 1816 -950 1584 -1140 
Q 1353 -1331 966 -1331 
L 506 -1331 
L 506 -850 
L 844 -850 
Q 1081 -850 1212 -737 
Q 1344 -625 1503 -206 
L 1606 56 
L 191 3500 
L 800 3500 
L 1894 763 
L 2988 3500 
L 3597 3500 
L 2059 -325 
z
" transform="scale(0.015625)"/>
      <path id="DejaVuSans-3a" d="M 750 794 
L 1409 794 
L 1409 0 
L 750 0 
L 750 794 
z
M 750 3309 
L 1409 3309 
L 1409 2516 
L 750 2516 
L 750 3309 
z
" transform="scale(0.015625)"/>
      <path id="DejaVuSans-67" d="M 2906 1791 
Q 2906 2416 2648 2759 
Q 2391 3103 1925 3103 
Q 1463 3103 1205 2759 
Q 947 2416 947 1791 
Q 947 1169 1205 825 
Q 1463 481 1925 481 
Q 2391 481 2648 825 
Q 2906 1169 2906 1791 
z
M 3481 434 
Q 3481 -459 3084 -895 
Q 2688 -1331 1869 -1331 
Q 1566 -1331 1297 -1286 
Q 1028 -1241 775 -1147 
L 775 -588 
Q 1028 -725 1275 -790 
Q 1522 -856 1778 -856 
Q 2344 -856 2625 -561 
Q 2906 -266 2906 331 
L 2906 616 
Q 2728 306 2450 153 
Q 2172 0 1784 0 
Q 1141 0 747 490 
Q 353 981 353 1791 
Q 353 2603 747 3093 
Q 1141 3584 1784 3584 
Q 2172 3584 2450 3431 
Q 2728 3278 2906 2969 
L 2906 3500 
L 3481 3500 
L 3481 434 
z
" transform="scale(0.015625)"/>
      <path id="DejaVuSans-6e" d="M 3513 2113 
L 3513 0 
L 2938 0 
L 2938 2094 
Q 2938 2591 2744 2837 
Q 2550 3084 2163 3084 
Q 1697 3084 1428 2787 
Q 1159 2491 1159 1978 
L 1159 0 
L 581 0 
L 581 3500 
L 1159 3500 
L 1159 2956 
Q 1366 3272 1645 3428 
Q 1925 3584 2291 3584 
Q 2894 3584 3203 3211 
Q 3513 2838 3513 2113 
z
" transform="scale(0.015625)"/>
      <path id="DejaVuSans-5f" d="M 3263 -1063 
L 3263 -1509 
L -63 -1509 
L -63 -1063 
L 3263 -1063 
z
" transform="scale(0.015625)"/>
     </defs>
     <use xlink:href="#DejaVuSans-20"/>
     <use xlink:href="#DejaVuSans-43" x="31.787109"/>
     <use xlink:href="#DejaVuSans-6f" x="101.611328"/>
     <use xlink:href="#DejaVuSans-6c" x="162.792969"/>
     <use xlink:href="#DejaVuSans-6f" x="190.576172"/>
     <use xlink:href="#DejaVuSans-72" x="251.757812"/>
     <use xlink:href="#DejaVuSans-65" x="290.621094"/>
     <use xlink:href="#DejaVuSans-64" x="352.144531"/>
     <use xlink:href="#DejaVuSans-20" x="415.621094"/>
     <use xlink:href="#DejaVuSans-62" x="447.408203"/>
     <use xlink:href="#DejaVuSans-79" x="510.884766"/>
     <use xlink:href="#DejaVuSans-3a" x="562.814453"/>
     <use xlink:href="#DejaVuSans-20" x="596.505859"/>
     <use xlink:href="#DejaVuSans-6f" x="628.292969"/>
     <use xlink:href="#DejaVuSans-72" x="689.474609"/>
     <use xlink:href="#DejaVuSans-69" x="730.587891"/>
     <use xlink:href="#DejaVuSans-67" x="758.371094"/>
     <use xlink:href="#DejaVuSans-69" x="821.847656"/>
     <use xlink:href="#DejaVuSans-6e" x="849.630859"/>
     <use xlink:href="#DejaVuSans-61" x="913.009766"/>
     <use xlink:href="#DejaVuSans-6c" x="974.289062"/>
     <use xlink:href="#DejaVuSans-5f" x="1002.072266"/>
     <use xlink:href="#DejaVuSans-74" x="1052.072266"/>
     <use xlink:href="#DejaVuSans-72" x="1091.28125"/>
     <use xlink:href="#DejaVuSans-61" x="1132.394531"/>
     <use xlink:href="#DejaVuSans-6a" x="1193.673828"/>
     <use xlink:href="#DejaVuSans-65" x="1221.457031"/>
     <use xlink:href="#DejaVuSans-63" x="1282.980469"/>
     <use xlink:href="#DejaVuSans-74" x="1337.960938"/>
     <use xlink:href="#DejaVuSans-6f" x="1377.169922"/>
     <use xlink:href="#DejaVuSans-72" x="1438.351562"/>
     <use xlink:href="#DejaVuSans-79" x="1479.464844"/>
     <use xlink:href="#DejaVuSans-5f" x="1538.644531"/>
     <use xlink:href="#DejaVuSans-6f" x="1588.644531"/>
     <use xlink:href="#DejaVuSans-6c" x="1649.826172"/>
     <use xlink:href="#DejaVuSans-64" x="1677.609375"/>
    </g>
   </g>
   <g id="legend_1">
    <g id="patch_7">
     <path d="M 337.528437 127.491875 
L 402.7 127.491875 
Q 404.9 127.491875 404.9 125.291875 
L 404.9 94.1 
Q 404.9 91.9 402.7 91.9 
L 337.528437 91.9 
Q 335.328438 91.9 335.328438 94.1 
L 335.328438 125.291875 
Q 335.328438 127.491875 337.528437 127.491875 
z
" style="fill: #ffffff; opacity: 0.8; stroke: #cccccc; stroke-linejoin: miter"/>
    </g>
    <g id="line2d_23">
     <path d="M 339.728437 100.808281 
L 350.728437 100.808281 
L 361.728437 100.808281 
" style="fill: none; stroke: #ffd92f; stroke-width: 1.5; stroke-linecap: round"/>
    </g>
    <g id="text_15">
     <!-- 5 -->
     <g style="fill: #262626" transform="translate(370.528437 104.658281)scale(0.11 -0.11)">
      <use xlink:href="#DejaVuSans-35"/>
     </g>
    </g>
    <g id="line2d_24">
     <path d="M 339.728437 116.954219 
L 350.728437 116.954219 
L 361.728437 116.954219 
" style="fill: none; stroke-dasharray: 24,6; stroke-dashoffset: 0; stroke: #000000; stroke-width: 3"/>
    </g>
    <g id="text_16">
     <!-- Mean -->
     <g style="fill: #262626" transform="translate(370.528437 120.804219)scale(0.11 -0.11)">
      <defs>
       <path id="DejaVuSans-4d" d="M 628 4666 
L 1569 4666 
L 2759 1491 
L 3956 4666 
L 4897 4666 
L 4897 0 
L 4281 0 
L 4281 4097 
L 3078 897 
L 2444 897 
L 1241 4097 
L 1241 0 
L 628 0 
L 628 4666 
z
" transform="scale(0.015625)"/>
      </defs>
      <use xlink:href="#DejaVuSans-4d"/>
      <use xlink:href="#DejaVuSans-65" x="86.279297"/>
      <use xlink:href="#DejaVuSans-61" x="147.802734"/>
      <use xlink:href="#DejaVuSans-6e" x="209.082031"/>
     </g>
    </g>
   </g>
  </g>
 </g>
 <defs>
  <clipPath id="paeb1127574">
   <rect x="64.8" y="86.4" width="345.6" height="374.4"/>
  </clipPath>
 </defs>
</svg>
