<?xml version="1.0" encoding="utf-8" standalone="no"?>
<!DOCTYPE svg PUBLIC "-//W3C//DTD SVG 1.1//EN"
  "http://www.w3.org/Graphics/SVG/1.1/DTD/svg11.dtd">
<svg xmlns:xlink="http://www.w3.org/1999/xlink" width="432pt" height="576pt" viewBox="0 0 432 576" xmlns="http://www.w3.org/2000/svg" version="1.1">
 <metadata>
  <rdf:RDF xmlns:dc="http://purl.org/dc/elements/1.1/" xmlns:cc="http://creativecommons.org/ns#" xmlns:rdf="http://www.w3.org/1999/02/22-rdf-syntax-ns#">
   <cc:Work>
    <dc:type rdf:resource="http://purl.org/dc/dcmitype/StillImage"/>
    <dc:date>2025-10-08T18:59:07.496703</dc:date>
    <dc:format>image/svg+xml</dc:format>
    <dc:creator>
     <cc:Agent>
      <dc:title>Matplotlib v3.10.3, https://matplotlib.org/</dc:title>
     </cc:Agent>
    </dc:creator>
   </cc:Work>
  </rdf:RDF>
 </metadata>
 <defs>
  <style type="text/css">*{stroke-linejoin: round; stroke-linecap: butt}</style>
 </defs>
 <g id="figure_1">
  <g id="patch_1">
   <path d="M 0 576 
L 432 576 
L 432 0 
L 0 0 
z
" style="fill: #ffffff"/>
  </g>
  <g id="axes_1">
   <g id="patch_2">
    <path d="M 64.8 460.8 
L 410.4 460.8 
L 410.4 86.4 
L 64.8 86.4 
z
" style="fill: #ffffff"/>
   </g>
   <g id="matplotlib.axis_1">
    <g id="xtick_1">
     <g id="line2d_1">
      <path d="M 80.509091 460.8 
L 80.509091 86.4 
" clip-path="url(#pc286a2765a)" style="fill: none; stroke: #cccccc; stroke-linecap: round"/>
     </g>
     <g id="text_1">
      <!-- 0.0 -->
      <g style="fill: #262626" transform="translate(71.762372 478.658281) scale(0.11 -0.11)">
       <defs>
        <path id="DejaVuSans-30" d="M 2034 4250 
Q 1547 4250 1301 3770 
Q 1056 3291 1056 2328 
Q 1056 1369 1301 889 
Q 1547 409 2034 409 
Q 2525 409 2770 889 
Q 3016 1369 3016 2328 
Q 3016 3291 2770 3770 
Q 2525 4250 2034 4250 
z
M 2034 4750 
Q 2819 4750 3233 4129 
Q 3647 3509 3647 2328 
Q 3647 1150 3233 529 
Q 2819 -91 2034 -91 
Q 1250 -91 836 529 
Q 422 1150 422 2328 
Q 422 3509 836 4129 
Q 1250 4750 2034 4750 
z
" transform="scale(0.015625)"/>
        <path id="DejaVuSans-2e" d="M 684 794 
L 1344 794 
L 1344 0 
L 684 0 
L 684 794 
z
" transform="scale(0.015625)"/>
       </defs>
       <use xlink:href="#DejaVuSans-30"/>
       <use xlink:href="#DejaVuSans-2e" transform="translate(63.623047 0)"/>
       <use xlink:href="#DejaVuSans-30" transform="translate(95.410156 0)"/>
      </g>
     </g>
    </g>
    <g id="xtick_2">
     <g id="line2d_2">
      <path d="M 121.848804 460.8 
L 121.848804 86.4 
" clip-path="url(#pc286a2765a)" style="fill: none; stroke: #cccccc; stroke-linecap: round"/>
     </g>
     <g id="text_2">
      <!-- 2.5 -->
      <g style="fill: #262626" transform="translate(113.102085 478.658281) scale(0.11 -0.11)">
       <defs>
        <path id="DejaVuSans-32" d="M 1228 531 
L 3431 531 
L 3431 0 
L 469 0 
L 469 531 
Q 828 903 1448 1529 
Q 2069 2156 2228 2338 
Q 2531 2678 2651 2914 
Q 2772 3150 2772 3378 
Q 2772 3750 2511 3984 
Q 2250 4219 1831 4219 
Q 1534 4219 1204 4116 
Q 875 4013 500 3803 
L 500 4441 
Q 881 4594 1212 4672 
Q 1544 4750 1819 4750 
Q 2544 4750 2975 4387 
Q 3406 4025 3406 3419 
Q 3406 3131 3298 2873 
Q 3191 2616 2906 2266 
Q 2828 2175 2409 1742 
Q 1991 1309 1228 531 
z
" transform="scale(0.015625)"/>
        <path id="DejaVuSans-35" d="M 691 4666 
L 3169 4666 
L 3169 4134 
L 1269 4134 
L 1269 2991 
Q 1406 3038 1543 3061 
Q 1681 3084 1819 3084 
Q 2600 3084 3056 2656 
Q 3513 2228 3513 1497 
Q 3513 744 3044 326 
Q 2575 -91 1722 -91 
Q 1428 -91 1123 -41 
Q 819 9 494 109 
L 494 744 
Q 775 591 1075 516 
Q 1375 441 1709 441 
Q 2250 441 2565 725 
Q 2881 1009 2881 1497 
Q 2881 1984 2565 2268 
Q 2250 2553 1709 2553 
Q 1456 2553 1204 2497 
Q 953 2441 691 2322 
L 691 4666 
z
" transform="scale(0.015625)"/>
       </defs>
       <use xlink:href="#DejaVuSans-32"/>
       <use xlink:href="#DejaVuSans-2e" transform="translate(63.623047 0)"/>
       <use xlink:href="#DejaVuSans-35" transform="translate(95.410156 0)"/>
      </g>
     </g>
    </g>
    <g id="xtick_3">
     <g id="line2d_3">
      <path d="M 163.188517 460.8 
L 163.188517 86.4 
" clip-path="url(#pc286a2765a)" style="fill: none; stroke: #cccccc; stroke-linecap: round"/>
     </g>
     <g id="text_3">
      <!-- 5.0 -->
      <g style="fill: #262626" transform="translate(154.441798 478.658281) scale(0.11 -0.11)">
       <use xlink:href="#DejaVuSans-35"/>
       <use xlink:href="#DejaVuSans-2e" transform="translate(63.623047 0)"/>
       <use xlink:href="#DejaVuSans-30" transform="translate(95.410156 0)"/>
      </g>
     </g>
    </g>
    <g id="xtick_4">
     <g id="line2d_4">
      <path d="M 204.52823 460.8 
L 204.52823 86.4 
" clip-path="url(#pc286a2765a)" style="fill: none; stroke: #cccccc; stroke-linecap: round"/>
     </g>
     <g id="text_4">
      <!-- 7.5 -->
      <g style="fill: #262626" transform="translate(195.781511 478.658281) scale(0.11 -0.11)">
       <defs>
        <path id="DejaVuSans-37" d="M 525 4666 
L 3525 4666 
L 3525 4397 
L 1831 0 
L 1172 0 
L 2766 4134 
L 525 4134 
L 525 4666 
z
" transform="scale(0.015625)"/>
       </defs>
       <use xlink:href="#DejaVuSans-37"/>
       <use xlink:href="#DejaVuSans-2e" transform="translate(63.623047 0)"/>
       <use xlink:href="#DejaVuSans-35" transform="translate(95.410156 0)"/>
      </g>
     </g>
    </g>
    <g id="xtick_5">
     <g id="line2d_5">
      <path d="M 245.867943 460.8 
L 245.867943 86.4 
" clip-path="url(#pc286a2765a)" style="fill: none; stroke: #cccccc; stroke-linecap: round"/>
     </g>
     <g id="text_5">
      <!-- 10.0 -->
      <g style="fill: #262626" transform="translate(233.621849 478.658281) scale(0.11 -0.11)">
       <defs>
        <path id="DejaVuSans-31" d="M 794 531 
L 1825 531 
L 1825 4091 
L 703 3866 
L 703 4441 
L 1819 4666 
L 2450 4666 
L 2450 531 
L 3481 531 
L 3481 0 
L 794 0 
L 794 531 
z
" transform="scale(0.015625)"/>
       </defs>
       <use xlink:href="#DejaVuSans-31"/>
       <use xlink:href="#DejaVuSans-30" transform="translate(63.623047 0)"/>
       <use xlink:href="#DejaVuSans-2e" transform="translate(127.246094 0)"/>
       <use xlink:href="#DejaVuSans-30" transform="translate(159.033203 0)"/>
      </g>
     </g>
    </g>
    <g id="xtick_6">
     <g id="line2d_6">
      <path d="M 287.207656 460.8 
L 287.207656 86.4 
" clip-path="url(#pc286a2765a)" style="fill: none; stroke: #cccccc; stroke-linecap: round"/>
     </g>
     <g id="text_6">
      <!-- 12.5 -->
      <g style="fill: #262626" transform="translate(274.961562 478.658281) scale(0.11 -0.11)">
       <use xlink:href="#DejaVuSans-31"/>
       <use xlink:href="#DejaVuSans-32" transform="translate(63.623047 0)"/>
       <use xlink:href="#DejaVuSans-2e" transform="translate(127.246094 0)"/>
       <use xlink:href="#DejaVuSans-35" transform="translate(159.033203 0)"/>
      </g>
     </g>
    </g>
    <g id="xtick_7">
     <g id="line2d_7">
      <path d="M 328.547368 460.8 
L 328.547368 86.4 
" clip-path="url(#pc286a2765a)" style="fill: none; stroke: #cccccc; stroke-linecap: round"/>
     </g>
     <g id="text_7">
      <!-- 15.0 -->
      <g style="fill: #262626" transform="translate(316.301275 478.658281) scale(0.11 -0.11)">
       <use xlink:href="#DejaVuSans-31"/>
       <use xlink:href="#DejaVuSans-35" transform="translate(63.623047 0)"/>
       <use xlink:href="#DejaVuSans-2e" transform="translate(127.246094 0)"/>
       <use xlink:href="#DejaVuSans-30" transform="translate(159.033203 0)"/>
      </g>
     </g>
    </g>
    <g id="xtick_8">
     <g id="line2d_8">
      <path d="M 369.887081 460.8 
L 369.887081 86.4 
" clip-path="url(#pc286a2765a)" style="fill: none; stroke: #cccccc; stroke-linecap: round"/>
     </g>
     <g id="text_8">
      <!-- 17.5 -->
      <g style="fill: #262626" transform="translate(357.640988 478.658281) scale(0.11 -0.11)">
       <use xlink:href="#DejaVuSans-31"/>
       <use xlink:href="#DejaVuSans-37" transform="translate(63.623047 0)"/>
       <use xlink:href="#DejaVuSans-2e" transform="translate(127.246094 0)"/>
       <use xlink:href="#DejaVuSans-35" transform="translate(159.033203 0)"/>
      </g>
     </g>
    </g>
   </g>
   <g id="matplotlib.axis_2">
    <g id="ytick_1">
     <g id="line2d_9">
      <path d="M 64.8 423.87816 
L 410.4 423.87816 
" clip-path="url(#pc286a2765a)" style="fill: none; stroke: #cccccc; stroke-linecap: round"/>
     </g>
     <g id="text_9">
      <!-- −200 -->
      <g style="fill: #262626" transform="translate(25.086094 428.057301) scale(0.11 -0.11)">
       <defs>
        <path id="DejaVuSans-2212" d="M 678 2272 
L 4684 2272 
L 4684 1741 
L 678 1741 
L 678 2272 
z
" transform="scale(0.015625)"/>
       </defs>
       <use xlink:href="#DejaVuSans-2212"/>
       <use xlink:href="#DejaVuSans-32" transform="translate(83.789062 0)"/>
       <use xlink:href="#DejaVuSans-30" transform="translate(147.412109 0)"/>
       <use xlink:href="#DejaVuSans-30" transform="translate(211.035156 0)"/>
      </g>
     </g>
    </g>
    <g id="ytick_2">
     <g id="line2d_10">
      <path d="M 64.8 379.231275 
L 410.4 379.231275 
" clip-path="url(#pc286a2765a)" style="fill: none; stroke: #cccccc; stroke-linecap: round"/>
     </g>
     <g id="text_10">
      <!-- 0 -->
      <g style="fill: #262626" transform="translate(48.30125 383.410416) scale(0.11 -0.11)">
       <use xlink:href="#DejaVuSans-30"/>
      </g>
     </g>
    </g>
    <g id="ytick_3">
     <g id="line2d_11">
      <path d="M 64.8 334.58439 
L 410.4 334.58439 
" clip-path="url(#pc286a2765a)" style="fill: none; stroke: #cccccc; stroke-linecap: round"/>
     </g>
     <g id="text_11">
      <!-- 200 -->
      <g style="fill: #262626" transform="translate(34.30375 338.76353) scale(0.11 -0.11)">
       <use xlink:href="#DejaVuSans-32"/>
       <use xlink:href="#DejaVuSans-30" transform="translate(63.623047 0)"/>
       <use xlink:href="#DejaVuSans-30" transform="translate(127.246094 0)"/>
      </g>
     </g>
    </g>
    <g id="ytick_4">
     <g id="line2d_12">
      <path d="M 64.8 289.937504 
L 410.4 289.937504 
" clip-path="url(#pc286a2765a)" style="fill: none; stroke: #cccccc; stroke-linecap: round"/>
     </g>
     <g id="text_12">
      <!-- 400 -->
      <g style="fill: #262626" transform="translate(34.30375 294.116645) scale(0.11 -0.11)">
       <defs>
        <path id="DejaVuSans-34" d="M 2419 4116 
L 825 1625 
L 2419 1625 
L 2419 4116 
z
M 2253 4666 
L 3047 4666 
L 3047 1625 
L 3713 1625 
L 3713 1100 
L 3047 1100 
L 3047 0 
L 2419 0 
L 2419 1100 
L 313 1100 
L 313 1709 
L 2253 4666 
z
" transform="scale(0.015625)"/>
       </defs>
       <use xlink:href="#DejaVuSans-34"/>
       <use xlink:href="#DejaVuSans-30" transform="translate(63.623047 0)"/>
       <use xlink:href="#DejaVuSans-30" transform="translate(127.246094 0)"/>
      </g>
     </g>
    </g>
    <g id="ytick_5">
     <g id="line2d_13">
      <path d="M 64.8 245.290619 
L 410.4 245.290619 
" clip-path="url(#pc286a2765a)" style="fill: none; stroke: #cccccc; stroke-linecap: round"/>
     </g>
     <g id="text_13">
      <!-- 600 -->
      <g style="fill: #262626" transform="translate(34.30375 249.469759) scale(0.11 -0.11)">
       <defs>
        <path id="DejaVuSans-36" d="M 2113 2584 
Q 1688 2584 1439 2293 
Q 1191 2003 1191 1497 
Q 1191 994 1439 701 
Q 1688 409 2113 409 
Q 2538 409 2786 701 
Q 3034 994 3034 1497 
Q 3034 2003 2786 2293 
Q 2538 2584 2113 2584 
z
M 3366 4563 
L 3366 3988 
Q 3128 4100 2886 4159 
Q 2644 4219 2406 4219 
Q 1781 4219 1451 3797 
Q 1122 3375 1075 2522 
Q 1259 2794 1537 2939 
Q 1816 3084 2150 3084 
Q 2853 3084 3261 2657 
Q 3669 2231 3669 1497 
Q 3669 778 3244 343 
Q 2819 -91 2113 -91 
Q 1303 -91 875 529 
Q 447 1150 447 2328 
Q 447 3434 972 4092 
Q 1497 4750 2381 4750 
Q 2619 4750 2861 4703 
Q 3103 4656 3366 4563 
z
" transform="scale(0.015625)"/>
       </defs>
       <use xlink:href="#DejaVuSans-36"/>
       <use xlink:href="#DejaVuSans-30" transform="translate(63.623047 0)"/>
       <use xlink:href="#DejaVuSans-30" transform="translate(127.246094 0)"/>
      </g>
     </g>
    </g>
    <g id="ytick_6">
     <g id="line2d_14">
      <path d="M 64.8 200.643733 
L 410.4 200.643733 
" clip-path="url(#pc286a2765a)" style="fill: none; stroke: #cccccc; stroke-linecap: round"/>
     </g>
     <g id="text_14">
      <!-- 800 -->
      <g style="fill: #262626" transform="translate(34.30375 204.822874) scale(0.11 -0.11)">
       <defs>
        <path id="DejaVuSans-38" d="M 2034 2216 
Q 1584 2216 1326 1975 
Q 1069 1734 1069 1313 
Q 1069 891 1326 650 
Q 1584 409 2034 409 
Q 2484 409 2743 651 
Q 3003 894 3003 1313 
Q 3003 1734 2745 1975 
Q 2488 2216 2034 2216 
z
M 1403 2484 
Q 997 2584 770 2862 
Q 544 3141 544 3541 
Q 544 4100 942 4425 
Q 1341 4750 2034 4750 
Q 2731 4750 3128 4425 
Q 3525 4100 3525 3541 
Q 3525 3141 3298 2862 
Q 3072 2584 2669 2484 
Q 3125 2378 3379 2068 
Q 3634 1759 3634 1313 
Q 3634 634 3220 271 
Q 2806 -91 2034 -91 
Q 1263 -91 848 271 
Q 434 634 434 1313 
Q 434 1759 690 2068 
Q 947 2378 1403 2484 
z
M 1172 3481 
Q 1172 3119 1398 2916 
Q 1625 2713 2034 2713 
Q 2441 2713 2670 2916 
Q 2900 3119 2900 3481 
Q 2900 3844 2670 4047 
Q 2441 4250 2034 4250 
Q 1625 4250 1398 4047 
Q 1172 3844 1172 3481 
z
" transform="scale(0.015625)"/>
       </defs>
       <use xlink:href="#DejaVuSans-38"/>
       <use xlink:href="#DejaVuSans-30" transform="translate(63.623047 0)"/>
       <use xlink:href="#DejaVuSans-30" transform="translate(127.246094 0)"/>
      </g>
     </g>
    </g>
    <g id="ytick_7">
     <g id="line2d_15">
      <path d="M 64.8 155.996848 
L 410.4 155.996848 
" clip-path="url(#pc286a2765a)" style="fill: none; stroke: #cccccc; stroke-linecap: round"/>
     </g>
     <g id="text_15">
      <!-- 1000 -->
      <g style="fill: #262626" transform="translate(27.305 160.175988) scale(0.11 -0.11)">
       <use xlink:href="#DejaVuSans-31"/>
       <use xlink:href="#DejaVuSans-30" transform="translate(63.623047 0)"/>
       <use xlink:href="#DejaVuSans-30" transform="translate(127.246094 0)"/>
       <use xlink:href="#DejaVuSans-30" transform="translate(190.869141 0)"/>
      </g>
     </g>
    </g>
    <g id="ytick_8">
     <g id="line2d_16">
      <path d="M 64.8 111.349962 
L 410.4 111.349962 
" clip-path="url(#pc286a2765a)" style="fill: none; stroke: #cccccc; stroke-linecap: round"/>
     </g>
     <g id="text_16">
      <!-- 1200 -->
      <g style="fill: #262626" transform="translate(27.305 115.529103) scale(0.11 -0.11)">
       <use xlink:href="#DejaVuSans-31"/>
       <use xlink:href="#DejaVuSans-32" transform="translate(63.623047 0)"/>
       <use xlink:href="#DejaVuSans-30" transform="translate(127.246094 0)"/>
       <use xlink:href="#DejaVuSans-30" transform="translate(190.869141 0)"/>
      </g>
     </g>
    </g>
   </g>
   <g id="line2d_17">
    <path d="M 80.509091 393.279829 
L 97.044976 392.928848 
L 113.580861 393.01644 
L 130.116746 393.690903 
L 146.652632 377.748484 
L 163.188517 374.537486 
L 179.724402 373.969011 
L 196.260287 374.039477 
L 212.796172 373.71199 
L 229.332057 374.126014 
L 245.867943 373.867988 
L 262.403828 373.852648 
L 278.939713 373.455444 
L 295.475598 373.517345 
L 312.011483 374.003725 
L 328.547368 373.815356 
L 345.083254 374.071017 
L 361.619139 373.488137 
L 378.155024 373.521578 
L 394.690909 373.975885 
" clip-path="url(#pc286a2765a)" style="fill: none; stroke: #66c2a5; stroke-width: 1.5; stroke-linecap: round"/>
   </g>
   <g id="line2d_18">
    <path d="M 80.509091 393.279829 
L 97.044976 392.928848 
L 113.580861 393.01644 
L 130.116746 393.690903 
L 146.652632 377.748484 
L 163.188517 374.537486 
L 179.724402 373.969011 
L 196.260287 374.039477 
L 212.796172 373.71199 
L 229.332057 374.126014 
L 245.867943 373.867988 
L 262.403828 373.852648 
L 278.939713 373.455444 
L 295.475598 373.517345 
L 312.011483 374.003725 
L 328.547368 373.815356 
L 345.083254 374.071017 
L 361.619139 373.488137 
L 378.155024 373.521578 
L 394.690909 373.975885 
" clip-path="url(#pc286a2765a)" style="fill: none; stroke: #66c2a5; stroke-width: 1.5; stroke-linecap: round"/>
    <defs>
     <path id="mff169d2bd0" d="M 0 3 
C 0.795609 3 1.55874 2.683901 2.12132 2.12132 
C 2.683901 1.55874 3 0.795609 3 0 
C 3 -0.795609 2.683901 -1.55874 2.12132 -2.12132 
C 1.55874 -2.683901 0.795609 -3 0 -3 
C -0.795609 -3 -1.55874 -2.683901 -2.12132 -2.12132 
C -2.683901 -1.55874 -3 -0.795609 -3 0 
C -3 0.795609 -2.683901 1.55874 -2.12132 2.12132 
C -1.55874 2.683901 -0.795609 3 0 3 
z
" style="stroke: #66c2a5"/>
    </defs>
    <g clip-path="url(#pc286a2765a)">
     <use xlink:href="#mff169d2bd0" x="80.509091" y="393.279829" style="fill: #66c2a5; stroke: #66c2a5"/>
     <use xlink:href="#mff169d2bd0" x="97.044976" y="392.928848" style="fill: #66c2a5; stroke: #66c2a5"/>
     <use xlink:href="#mff169d2bd0" x="113.580861" y="393.01644" style="fill: #66c2a5; stroke: #66c2a5"/>
     <use xlink:href="#mff169d2bd0" x="130.116746" y="393.690903" style="fill: #66c2a5; stroke: #66c2a5"/>
     <use xlink:href="#mff169d2bd0" x="146.652632" y="377.748484" style="fill: #66c2a5; stroke: #66c2a5"/>
     <use xlink:href="#mff169d2bd0" x="163.188517" y="374.537486" style="fill: #66c2a5; stroke: #66c2a5"/>
     <use xlink:href="#mff169d2bd0" x="179.724402" y="373.969011" style="fill: #66c2a5; stroke: #66c2a5"/>
     <use xlink:href="#mff169d2bd0" x="196.260287" y="374.039477" style="fill: #66c2a5; stroke: #66c2a5"/>
     <use xlink:href="#mff169d2bd0" x="212.796172" y="373.71199" style="fill: #66c2a5; stroke: #66c2a5"/>
     <use xlink:href="#mff169d2bd0" x="229.332057" y="374.126014" style="fill: #66c2a5; stroke: #66c2a5"/>
     <use xlink:href="#mff169d2bd0" x="245.867943" y="373.867988" style="fill: #66c2a5; stroke: #66c2a5"/>
     <use xlink:href="#mff169d2bd0" x="262.403828" y="373.852648" style="fill: #66c2a5; stroke: #66c2a5"/>
     <use xlink:href="#mff169d2bd0" x="278.939713" y="373.455444" style="fill: #66c2a5; stroke: #66c2a5"/>
     <use xlink:href="#mff169d2bd0" x="295.475598" y="373.517345" style="fill: #66c2a5; stroke: #66c2a5"/>
     <use xlink:href="#mff169d2bd0" x="312.011483" y="374.003725" style="fill: #66c2a5; stroke: #66c2a5"/>
     <use xlink:href="#mff169d2bd0" x="328.547368" y="373.815356" style="fill: #66c2a5; stroke: #66c2a5"/>
     <use xlink:href="#mff169d2bd0" x="345.083254" y="374.071017" style="fill: #66c2a5; stroke: #66c2a5"/>
     <use xlink:href="#mff169d2bd0" x="361.619139" y="373.488137" style="fill: #66c2a5; stroke: #66c2a5"/>
     <use xlink:href="#mff169d2bd0" x="378.155024" y="373.521578" style="fill: #66c2a5; stroke: #66c2a5"/>
     <use xlink:href="#mff169d2bd0" x="394.690909" y="373.975885" style="fill: #66c2a5; stroke: #66c2a5"/>
    </g>
   </g>
   <g id="line2d_19">
    <path d="M 80.509091 380.225575 
L 97.044976 380.133352 
L 113.580861 380.312287 
L 130.116746 378.30508 
L 146.652632 377.931946 
L 163.188517 378.030437 
L 179.724402 377.892322 
L 196.260287 377.914548 
L 212.796172 378.03175 
L 229.332057 378.014065 
L 245.867943 377.866189 
L 262.403828 377.981993 
L 278.939713 377.943918 
L 295.475598 377.927136 
L 312.011483 377.841309 
L 328.547368 377.832847 
L 345.083254 377.998056 
L 361.619139 378.034439 
L 378.155024 377.947499 
L 394.690909 377.827456 
" clip-path="url(#pc286a2765a)" style="fill: none; stroke: #66c2a5; stroke-width: 1.5; stroke-linecap: round"/>
   </g>
   <g id="line2d_20">
    <path d="M 80.509091 380.225575 
L 97.044976 380.133352 
L 113.580861 380.312287 
L 130.116746 378.30508 
L 146.652632 377.931946 
L 163.188517 378.030437 
L 179.724402 377.892322 
L 196.260287 377.914548 
L 212.796172 378.03175 
L 229.332057 378.014065 
L 245.867943 377.866189 
L 262.403828 377.981993 
L 278.939713 377.943918 
L 295.475598 377.927136 
L 312.011483 377.841309 
L 328.547368 377.832847 
L 345.083254 377.998056 
L 361.619139 378.034439 
L 378.155024 377.947499 
L 394.690909 377.827456 
" clip-path="url(#pc286a2765a)" style="fill: none; stroke: #66c2a5; stroke-width: 1.5; stroke-linecap: round"/>
    <g clip-path="url(#pc286a2765a)">
     <use xlink:href="#mff169d2bd0" x="80.509091" y="380.225575" style="fill: #66c2a5; stroke: #66c2a5"/>
     <use xlink:href="#mff169d2bd0" x="97.044976" y="380.133352" style="fill: #66c2a5; stroke: #66c2a5"/>
     <use xlink:href="#mff169d2bd0" x="113.580861" y="380.312287" style="fill: #66c2a5; stroke: #66c2a5"/>
     <use xlink:href="#mff169d2bd0" x="130.116746" y="378.30508" style="fill: #66c2a5; stroke: #66c2a5"/>
     <use xlink:href="#mff169d2bd0" x="146.652632" y="377.931946" style="fill: #66c2a5; stroke: #66c2a5"/>
     <use xlink:href="#mff169d2bd0" x="163.188517" y="378.030437" style="fill: #66c2a5; stroke: #66c2a5"/>
     <use xlink:href="#mff169d2bd0" x="179.724402" y="377.892322" style="fill: #66c2a5; stroke: #66c2a5"/>
     <use xlink:href="#mff169d2bd0" x="196.260287" y="377.914548" style="fill: #66c2a5; stroke: #66c2a5"/>
     <use xlink:href="#mff169d2bd0" x="212.796172" y="378.03175" style="fill: #66c2a5; stroke: #66c2a5"/>
     <use xlink:href="#mff169d2bd0" x="229.332057" y="378.014065" style="fill: #66c2a5; stroke: #66c2a5"/>
     <use xlink:href="#mff169d2bd0" x="245.867943" y="377.866189" style="fill: #66c2a5; stroke: #66c2a5"/>
     <use xlink:href="#mff169d2bd0" x="262.403828" y="377.981993" style="fill: #66c2a5; stroke: #66c2a5"/>
     <use xlink:href="#mff169d2bd0" x="278.939713" y="377.943918" style="fill: #66c2a5; stroke: #66c2a5"/>
     <use xlink:href="#mff169d2bd0" x="295.475598" y="377.927136" style="fill: #66c2a5; stroke: #66c2a5"/>
     <use xlink:href="#mff169d2bd0" x="312.011483" y="377.841309" style="fill: #66c2a5; stroke: #66c2a5"/>
     <use xlink:href="#mff169d2bd0" x="328.547368" y="377.832847" style="fill: #66c2a5; stroke: #66c2a5"/>
     <use xlink:href="#mff169d2bd0" x="345.083254" y="377.998056" style="fill: #66c2a5; stroke: #66c2a5"/>
     <use xlink:href="#mff169d2bd0" x="361.619139" y="378.034439" style="fill: #66c2a5; stroke: #66c2a5"/>
     <use xlink:href="#mff169d2bd0" x="378.155024" y="377.947499" style="fill: #66c2a5; stroke: #66c2a5"/>
     <use xlink:href="#mff169d2bd0" x="394.690909" y="377.827456" style="fill: #66c2a5; stroke: #66c2a5"/>
    </g>
   </g>
   <g id="line2d_21">
    <path d="M 80.509091 338.207777 
L 97.044976 338.537175 
L 113.580861 338.266544 
L 130.116746 331.117257 
L 146.652632 324.519692 
L 163.188517 320.796789 
L 179.724402 315.792696 
L 196.260287 313.015592 
L 212.796172 309.672271 
L 229.332057 306.521385 
L 245.867943 304.755349 
L 262.403828 302.616615 
L 278.939713 300.010967 
L 295.475598 299.430076 
L 312.011483 297.258954 
L 328.547368 294.973976 
L 345.083254 293.703744 
L 361.619139 294.05495 
L 378.155024 292.750986 
L 394.690909 291.674498 
" clip-path="url(#pc286a2765a)" style="fill: none; stroke: #fc8d62; stroke-width: 1.5; stroke-linecap: round"/>
   </g>
   <g id="line2d_22">
    <path d="M 80.509091 338.207777 
L 97.044976 338.537175 
L 113.580861 338.266544 
L 130.116746 331.117257 
L 146.652632 324.519692 
L 163.188517 320.796789 
L 179.724402 315.792696 
L 196.260287 313.015592 
L 212.796172 309.672271 
L 229.332057 306.521385 
L 245.867943 304.755349 
L 262.403828 302.616615 
L 278.939713 300.010967 
L 295.475598 299.430076 
L 312.011483 297.258954 
L 328.547368 294.973976 
L 345.083254 293.703744 
L 361.619139 294.05495 
L 378.155024 292.750986 
L 394.690909 291.674498 
" clip-path="url(#pc286a2765a)" style="fill: none; stroke: #fc8d62; stroke-width: 1.5; stroke-linecap: round"/>
    <defs>
     <path id="m80b5cfad2b" d="M 0 3 
C 0.795609 3 1.55874 2.683901 2.12132 2.12132 
C 2.683901 1.55874 3 0.795609 3 0 
C 3 -0.795609 2.683901 -1.55874 2.12132 -2.12132 
C 1.55874 -2.683901 0.795609 -3 0 -3 
C -0.795609 -3 -1.55874 -2.683901 -2.12132 -2.12132 
C -2.683901 -1.55874 -3 -0.795609 -3 0 
C -3 0.795609 -2.683901 1.55874 -2.12132 2.12132 
C -1.55874 2.683901 -0.795609 3 0 3 
z
" style="stroke: #fc8d62"/>
    </defs>
    <g clip-path="url(#pc286a2765a)">
     <use xlink:href="#m80b5cfad2b" x="80.509091" y="338.207777" style="fill: #fc8d62; stroke: #fc8d62"/>
     <use xlink:href="#m80b5cfad2b" x="97.044976" y="338.537175" style="fill: #fc8d62; stroke: #fc8d62"/>
     <use xlink:href="#m80b5cfad2b" x="113.580861" y="338.266544" style="fill: #fc8d62; stroke: #fc8d62"/>
     <use xlink:href="#m80b5cfad2b" x="130.116746" y="331.117257" style="fill: #fc8d62; stroke: #fc8d62"/>
     <use xlink:href="#m80b5cfad2b" x="146.652632" y="324.519692" style="fill: #fc8d62; stroke: #fc8d62"/>
     <use xlink:href="#m80b5cfad2b" x="163.188517" y="320.796789" style="fill: #fc8d62; stroke: #fc8d62"/>
     <use xlink:href="#m80b5cfad2b" x="179.724402" y="315.792696" style="fill: #fc8d62; stroke: #fc8d62"/>
     <use xlink:href="#m80b5cfad2b" x="196.260287" y="313.015592" style="fill: #fc8d62; stroke: #fc8d62"/>
     <use xlink:href="#m80b5cfad2b" x="212.796172" y="309.672271" style="fill: #fc8d62; stroke: #fc8d62"/>
     <use xlink:href="#m80b5cfad2b" x="229.332057" y="306.521385" style="fill: #fc8d62; stroke: #fc8d62"/>
     <use xlink:href="#m80b5cfad2b" x="245.867943" y="304.755349" style="fill: #fc8d62; stroke: #fc8d62"/>
     <use xlink:href="#m80b5cfad2b" x="262.403828" y="302.616615" style="fill: #fc8d62; stroke: #fc8d62"/>
     <use xlink:href="#m80b5cfad2b" x="278.939713" y="300.010967" style="fill: #fc8d62; stroke: #fc8d62"/>
     <use xlink:href="#m80b5cfad2b" x="295.475598" y="299.430076" style="fill: #fc8d62; stroke: #fc8d62"/>
     <use xlink:href="#m80b5cfad2b" x="312.011483" y="297.258954" style="fill: #fc8d62; stroke: #fc8d62"/>
     <use xlink:href="#m80b5cfad2b" x="328.547368" y="294.973976" style="fill: #fc8d62; stroke: #fc8d62"/>
     <use xlink:href="#m80b5cfad2b" x="345.083254" y="293.703744" style="fill: #fc8d62; stroke: #fc8d62"/>
     <use xlink:href="#m80b5cfad2b" x="361.619139" y="294.05495" style="fill: #fc8d62; stroke: #fc8d62"/>
     <use xlink:href="#m80b5cfad2b" x="378.155024" y="292.750986" style="fill: #fc8d62; stroke: #fc8d62"/>
     <use xlink:href="#m80b5cfad2b" x="394.690909" y="291.674498" style="fill: #fc8d62; stroke: #fc8d62"/>
    </g>
   </g>
   <g id="line2d_23">
    <path d="M 80.509091 443.781818 
L 97.044976 440.843948 
L 113.580861 421.123777 
L 130.116746 404.990638 
L 146.652632 389.626162 
L 163.188517 379.486391 
L 179.724402 372.384844 
L 196.260287 360.296386 
L 212.796172 355.059451 
L 229.332057 346.881363 
L 245.867943 339.828534 
L 262.403828 338.092761 
L 278.939713 333.470351 
L 295.475598 329.254596 
L 312.011483 323.453205 
L 328.547368 321.150279 
L 345.083254 316.477713 
L 361.619139 313.020154 
L 378.155024 312.516594 
L 394.690909 308.111809 
" clip-path="url(#pc286a2765a)" style="fill: none; stroke: #fc8d62; stroke-width: 1.5; stroke-linecap: round"/>
   </g>
   <g id="line2d_24">
    <path d="M 80.509091 443.781818 
L 97.044976 440.843948 
L 113.580861 421.123777 
L 130.116746 404.990638 
L 146.652632 389.626162 
L 163.188517 379.486391 
L 179.724402 372.384844 
L 196.260287 360.296386 
L 212.796172 355.059451 
L 229.332057 346.881363 
L 245.867943 339.828534 
L 262.403828 338.092761 
L 278.939713 333.470351 
L 295.475598 329.254596 
L 312.011483 323.453205 
L 328.547368 321.150279 
L 345.083254 316.477713 
L 361.619139 313.020154 
L 378.155024 312.516594 
L 394.690909 308.111809 
" clip-path="url(#pc286a2765a)" style="fill: none; stroke: #fc8d62; stroke-width: 1.5; stroke-linecap: round"/>
    <g clip-path="url(#pc286a2765a)">
     <use xlink:href="#m80b5cfad2b" x="80.509091" y="443.781818" style="fill: #fc8d62; stroke: #fc8d62"/>
     <use xlink:href="#m80b5cfad2b" x="97.044976" y="440.843948" style="fill: #fc8d62; stroke: #fc8d62"/>
     <use xlink:href="#m80b5cfad2b" x="113.580861" y="421.123777" style="fill: #fc8d62; stroke: #fc8d62"/>
     <use xlink:href="#m80b5cfad2b" x="130.116746" y="404.990638" style="fill: #fc8d62; stroke: #fc8d62"/>
     <use xlink:href="#m80b5cfad2b" x="146.652632" y="389.626162" style="fill: #fc8d62; stroke: #fc8d62"/>
     <use xlink:href="#m80b5cfad2b" x="163.188517" y="379.486391" style="fill: #fc8d62; stroke: #fc8d62"/>
     <use xlink:href="#m80b5cfad2b" x="179.724402" y="372.384844" style="fill: #fc8d62; stroke: #fc8d62"/>
     <use xlink:href="#m80b5cfad2b" x="196.260287" y="360.296386" style="fill: #fc8d62; stroke: #fc8d62"/>
     <use xlink:href="#m80b5cfad2b" x="212.796172" y="355.059451" style="fill: #fc8d62; stroke: #fc8d62"/>
     <use xlink:href="#m80b5cfad2b" x="229.332057" y="346.881363" style="fill: #fc8d62; stroke: #fc8d62"/>
     <use xlink:href="#m80b5cfad2b" x="245.867943" y="339.828534" style="fill: #fc8d62; stroke: #fc8d62"/>
     <use xlink:href="#m80b5cfad2b" x="262.403828" y="338.092761" style="fill: #fc8d62; stroke: #fc8d62"/>
     <use xlink:href="#m80b5cfad2b" x="278.939713" y="333.470351" style="fill: #fc8d62; stroke: #fc8d62"/>
     <use xlink:href="#m80b5cfad2b" x="295.475598" y="329.254596" style="fill: #fc8d62; stroke: #fc8d62"/>
     <use xlink:href="#m80b5cfad2b" x="312.011483" y="323.453205" style="fill: #fc8d62; stroke: #fc8d62"/>
     <use xlink:href="#m80b5cfad2b" x="328.547368" y="321.150279" style="fill: #fc8d62; stroke: #fc8d62"/>
     <use xlink:href="#m80b5cfad2b" x="345.083254" y="316.477713" style="fill: #fc8d62; stroke: #fc8d62"/>
     <use xlink:href="#m80b5cfad2b" x="361.619139" y="313.020154" style="fill: #fc8d62; stroke: #fc8d62"/>
     <use xlink:href="#m80b5cfad2b" x="378.155024" y="312.516594" style="fill: #fc8d62; stroke: #fc8d62"/>
     <use xlink:href="#m80b5cfad2b" x="394.690909" y="308.111809" style="fill: #fc8d62; stroke: #fc8d62"/>
    </g>
   </g>
   <g id="line2d_25">
    <path d="M 80.509091 258.76283 
L 97.044976 256.76908 
L 113.580861 257.653152 
L 130.116746 259.296977 
L 146.652632 254.677435 
L 163.188517 220.784792 
L 179.724402 198.422661 
L 196.260287 177.16274 
L 212.796172 164.064202 
L 229.332057 153.452022 
L 245.867943 146.69631 
L 262.403828 138.590325 
L 278.939713 127.213892 
L 295.475598 121.512476 
L 312.011483 118.842196 
L 328.547368 112.883684 
L 345.083254 110.681398 
L 361.619139 109.992363 
L 378.155024 107.162971 
L 394.690909 103.418182 
" clip-path="url(#pc286a2765a)" style="fill: none; stroke: #fc8d62; stroke-width: 1.5; stroke-linecap: round"/>
   </g>
   <g id="line2d_26">
    <path d="M 80.509091 258.76283 
L 97.044976 256.76908 
L 113.580861 257.653152 
L 130.116746 259.296977 
L 146.652632 254.677435 
L 163.188517 220.784792 
L 179.724402 198.422661 
L 196.260287 177.16274 
L 212.796172 164.064202 
L 229.332057 153.452022 
L 245.867943 146.69631 
L 262.403828 138.590325 
L 278.939713 127.213892 
L 295.475598 121.512476 
L 312.011483 118.842196 
L 328.547368 112.883684 
L 345.083254 110.681398 
L 361.619139 109.992363 
L 378.155024 107.162971 
L 394.690909 103.418182 
" clip-path="url(#pc286a2765a)" style="fill: none; stroke: #fc8d62; stroke-width: 1.5; stroke-linecap: round"/>
    <g clip-path="url(#pc286a2765a)">
     <use xlink:href="#m80b5cfad2b" x="80.509091" y="258.76283" style="fill: #fc8d62; stroke: #fc8d62"/>
     <use xlink:href="#m80b5cfad2b" x="97.044976" y="256.76908" style="fill: #fc8d62; stroke: #fc8d62"/>
     <use xlink:href="#m80b5cfad2b" x="113.580861" y="257.653152" style="fill: #fc8d62; stroke: #fc8d62"/>
     <use xlink:href="#m80b5cfad2b" x="130.116746" y="259.296977" style="fill: #fc8d62; stroke: #fc8d62"/>
     <use xlink:href="#m80b5cfad2b" x="146.652632" y="254.677435" style="fill: #fc8d62; stroke: #fc8d62"/>
     <use xlink:href="#m80b5cfad2b" x="163.188517" y="220.784792" style="fill: #fc8d62; stroke: #fc8d62"/>
     <use xlink:href="#m80b5cfad2b" x="179.724402" y="198.422661" style="fill: #fc8d62; stroke: #fc8d62"/>
     <use xlink:href="#m80b5cfad2b" x="196.260287" y="177.16274" style="fill: #fc8d62; stroke: #fc8d62"/>
     <use xlink:href="#m80b5cfad2b" x="212.796172" y="164.064202" style="fill: #fc8d62; stroke: #fc8d62"/>
     <use xlink:href="#m80b5cfad2b" x="229.332057" y="153.452022" style="fill: #fc8d62; stroke: #fc8d62"/>
     <use xlink:href="#m80b5cfad2b" x="245.867943" y="146.69631" style="fill: #fc8d62; stroke: #fc8d62"/>
     <use xlink:href="#m80b5cfad2b" x="262.403828" y="138.590325" style="fill: #fc8d62; stroke: #fc8d62"/>
     <use xlink:href="#m80b5cfad2b" x="278.939713" y="127.213892" style="fill: #fc8d62; stroke: #fc8d62"/>
     <use xlink:href="#m80b5cfad2b" x="295.475598" y="121.512476" style="fill: #fc8d62; stroke: #fc8d62"/>
     <use xlink:href="#m80b5cfad2b" x="312.011483" y="118.842196" style="fill: #fc8d62; stroke: #fc8d62"/>
     <use xlink:href="#m80b5cfad2b" x="328.547368" y="112.883684" style="fill: #fc8d62; stroke: #fc8d62"/>
     <use xlink:href="#m80b5cfad2b" x="345.083254" y="110.681398" style="fill: #fc8d62; stroke: #fc8d62"/>
     <use xlink:href="#m80b5cfad2b" x="361.619139" y="109.992363" style="fill: #fc8d62; stroke: #fc8d62"/>
     <use xlink:href="#m80b5cfad2b" x="378.155024" y="107.162971" style="fill: #fc8d62; stroke: #fc8d62"/>
     <use xlink:href="#m80b5cfad2b" x="394.690909" y="103.418182" style="fill: #fc8d62; stroke: #fc8d62"/>
    </g>
   </g>
   <g id="line2d_27">
    <path d="M 80.509091 440.134782 
L 97.044976 439.942185 
L 113.580861 440.658499 
L 130.116746 437.352049 
L 146.652632 436.844267 
L 163.188517 417.388408 
L 179.724402 398.928829 
L 196.260287 386.967981 
L 212.796172 371.327277 
L 229.332057 361.619531 
L 245.867943 352.484661 
L 262.403828 345.850488 
L 278.939713 338.996343 
L 295.475598 337.436373 
L 312.011483 328.859335 
L 328.547368 326.269176 
L 345.083254 319.239984 
L 361.619139 316.152636 
L 378.155024 312.474103 
L 394.690909 309.651782 
" clip-path="url(#pc286a2765a)" style="fill: none; stroke: #fc8d62; stroke-width: 1.5; stroke-linecap: round"/>
   </g>
   <g id="line2d_28">
    <path d="M 80.509091 440.134782 
L 97.044976 439.942185 
L 113.580861 440.658499 
L 130.116746 437.352049 
L 146.652632 436.844267 
L 163.188517 417.388408 
L 179.724402 398.928829 
L 196.260287 386.967981 
L 212.796172 371.327277 
L 229.332057 361.619531 
L 245.867943 352.484661 
L 262.403828 345.850488 
L 278.939713 338.996343 
L 295.475598 337.436373 
L 312.011483 328.859335 
L 328.547368 326.269176 
L 345.083254 319.239984 
L 361.619139 316.152636 
L 378.155024 312.474103 
L 394.690909 309.651782 
" clip-path="url(#pc286a2765a)" style="fill: none; stroke: #fc8d62; stroke-width: 1.5; stroke-linecap: round"/>
    <g clip-path="url(#pc286a2765a)">
     <use xlink:href="#m80b5cfad2b" x="80.509091" y="440.134782" style="fill: #fc8d62; stroke: #fc8d62"/>
     <use xlink:href="#m80b5cfad2b" x="97.044976" y="439.942185" style="fill: #fc8d62; stroke: #fc8d62"/>
     <use xlink:href="#m80b5cfad2b" x="113.580861" y="440.658499" style="fill: #fc8d62; stroke: #fc8d62"/>
     <use xlink:href="#m80b5cfad2b" x="130.116746" y="437.352049" style="fill: #fc8d62; stroke: #fc8d62"/>
     <use xlink:href="#m80b5cfad2b" x="146.652632" y="436.844267" style="fill: #fc8d62; stroke: #fc8d62"/>
     <use xlink:href="#m80b5cfad2b" x="163.188517" y="417.388408" style="fill: #fc8d62; stroke: #fc8d62"/>
     <use xlink:href="#m80b5cfad2b" x="179.724402" y="398.928829" style="fill: #fc8d62; stroke: #fc8d62"/>
     <use xlink:href="#m80b5cfad2b" x="196.260287" y="386.967981" style="fill: #fc8d62; stroke: #fc8d62"/>
     <use xlink:href="#m80b5cfad2b" x="212.796172" y="371.327277" style="fill: #fc8d62; stroke: #fc8d62"/>
     <use xlink:href="#m80b5cfad2b" x="229.332057" y="361.619531" style="fill: #fc8d62; stroke: #fc8d62"/>
     <use xlink:href="#m80b5cfad2b" x="245.867943" y="352.484661" style="fill: #fc8d62; stroke: #fc8d62"/>
     <use xlink:href="#m80b5cfad2b" x="262.403828" y="345.850488" style="fill: #fc8d62; stroke: #fc8d62"/>
     <use xlink:href="#m80b5cfad2b" x="278.939713" y="338.996343" style="fill: #fc8d62; stroke: #fc8d62"/>
     <use xlink:href="#m80b5cfad2b" x="295.475598" y="337.436373" style="fill: #fc8d62; stroke: #fc8d62"/>
     <use xlink:href="#m80b5cfad2b" x="312.011483" y="328.859335" style="fill: #fc8d62; stroke: #fc8d62"/>
     <use xlink:href="#m80b5cfad2b" x="328.547368" y="326.269176" style="fill: #fc8d62; stroke: #fc8d62"/>
     <use xlink:href="#m80b5cfad2b" x="345.083254" y="319.239984" style="fill: #fc8d62; stroke: #fc8d62"/>
     <use xlink:href="#m80b5cfad2b" x="361.619139" y="316.152636" style="fill: #fc8d62; stroke: #fc8d62"/>
     <use xlink:href="#m80b5cfad2b" x="378.155024" y="312.474103" style="fill: #fc8d62; stroke: #fc8d62"/>
     <use xlink:href="#m80b5cfad2b" x="394.690909" y="309.651782" style="fill: #fc8d62; stroke: #fc8d62"/>
    </g>
   </g>
   <g id="line2d_29">
    <path d="M 80.509091 397.40126 
L 97.044976 398.10476 
L 113.580861 397.447714 
L 130.116746 397.841711 
L 146.652632 398.013243 
L 163.188517 392.508131 
L 179.724402 389.178214 
L 196.260287 386.173915 
L 212.796172 383.300721 
L 229.332057 380.882746 
L 245.867943 378.348394 
L 262.403828 376.554556 
L 278.939713 375.846403 
L 295.475598 374.151052 
L 312.011483 373.268679 
L 328.547368 371.597722 
L 345.083254 371.165267 
L 361.619139 369.883675 
L 378.155024 370.035305 
L 394.690909 368.396662 
" clip-path="url(#pc286a2765a)" style="fill: none; stroke: #fc8d62; stroke-width: 1.5; stroke-linecap: round"/>
   </g>
   <g id="line2d_30">
    <path d="M 80.509091 397.40126 
L 97.044976 398.10476 
L 113.580861 397.447714 
L 130.116746 397.841711 
L 146.652632 398.013243 
L 163.188517 392.508131 
L 179.724402 389.178214 
L 196.260287 386.173915 
L 212.796172 383.300721 
L 229.332057 380.882746 
L 245.867943 378.348394 
L 262.403828 376.554556 
L 278.939713 375.846403 
L 295.475598 374.151052 
L 312.011483 373.268679 
L 328.547368 371.597722 
L 345.083254 371.165267 
L 361.619139 369.883675 
L 378.155024 370.035305 
L 394.690909 368.396662 
" clip-path="url(#pc286a2765a)" style="fill: none; stroke: #fc8d62; stroke-width: 1.5; stroke-linecap: round"/>
    <g clip-path="url(#pc286a2765a)">
     <use xlink:href="#m80b5cfad2b" x="80.509091" y="397.40126" style="fill: #fc8d62; stroke: #fc8d62"/>
     <use xlink:href="#m80b5cfad2b" x="97.044976" y="398.10476" style="fill: #fc8d62; stroke: #fc8d62"/>
     <use xlink:href="#m80b5cfad2b" x="113.580861" y="397.447714" style="fill: #fc8d62; stroke: #fc8d62"/>
     <use xlink:href="#m80b5cfad2b" x="130.116746" y="397.841711" style="fill: #fc8d62; stroke: #fc8d62"/>
     <use xlink:href="#m80b5cfad2b" x="146.652632" y="398.013243" style="fill: #fc8d62; stroke: #fc8d62"/>
     <use xlink:href="#m80b5cfad2b" x="163.188517" y="392.508131" style="fill: #fc8d62; stroke: #fc8d62"/>
     <use xlink:href="#m80b5cfad2b" x="179.724402" y="389.178214" style="fill: #fc8d62; stroke: #fc8d62"/>
     <use xlink:href="#m80b5cfad2b" x="196.260287" y="386.173915" style="fill: #fc8d62; stroke: #fc8d62"/>
     <use xlink:href="#m80b5cfad2b" x="212.796172" y="383.300721" style="fill: #fc8d62; stroke: #fc8d62"/>
     <use xlink:href="#m80b5cfad2b" x="229.332057" y="380.882746" style="fill: #fc8d62; stroke: #fc8d62"/>
     <use xlink:href="#m80b5cfad2b" x="245.867943" y="378.348394" style="fill: #fc8d62; stroke: #fc8d62"/>
     <use xlink:href="#m80b5cfad2b" x="262.403828" y="376.554556" style="fill: #fc8d62; stroke: #fc8d62"/>
     <use xlink:href="#m80b5cfad2b" x="278.939713" y="375.846403" style="fill: #fc8d62; stroke: #fc8d62"/>
     <use xlink:href="#m80b5cfad2b" x="295.475598" y="374.151052" style="fill: #fc8d62; stroke: #fc8d62"/>
     <use xlink:href="#m80b5cfad2b" x="312.011483" y="373.268679" style="fill: #fc8d62; stroke: #fc8d62"/>
     <use xlink:href="#m80b5cfad2b" x="328.547368" y="371.597722" style="fill: #fc8d62; stroke: #fc8d62"/>
     <use xlink:href="#m80b5cfad2b" x="345.083254" y="371.165267" style="fill: #fc8d62; stroke: #fc8d62"/>
     <use xlink:href="#m80b5cfad2b" x="361.619139" y="369.883675" style="fill: #fc8d62; stroke: #fc8d62"/>
     <use xlink:href="#m80b5cfad2b" x="378.155024" y="370.035305" style="fill: #fc8d62; stroke: #fc8d62"/>
     <use xlink:href="#m80b5cfad2b" x="394.690909" y="368.396662" style="fill: #fc8d62; stroke: #fc8d62"/>
    </g>
   </g>
   <g id="line2d_31">
    <path d="M 80.509091 344.375067 
L 97.044976 336.817916 
L 113.580861 331.538449 
L 130.116746 326.142385 
L 146.652632 322.049802 
L 163.188517 318.582817 
L 179.724402 315.111909 
L 196.260287 312.786566 
L 212.796172 309.627033 
L 229.332057 308.458741 
L 245.867943 305.094437 
L 262.403828 303.870232 
L 278.939713 301.968757 
L 295.475598 300.446926 
L 312.011483 299.190454 
L 328.547368 298.393744 
L 345.083254 297.676673 
L 361.619139 295.726805 
L 378.155024 295.232786 
L 394.690909 294.336062 
" clip-path="url(#pc286a2765a)" style="fill: none; stroke: #fc8d62; stroke-width: 1.5; stroke-linecap: round"/>
   </g>
   <g id="line2d_32">
    <path d="M 80.509091 344.375067 
L 97.044976 336.817916 
L 113.580861 331.538449 
L 130.116746 326.142385 
L 146.652632 322.049802 
L 163.188517 318.582817 
L 179.724402 315.111909 
L 196.260287 312.786566 
L 212.796172 309.627033 
L 229.332057 308.458741 
L 245.867943 305.094437 
L 262.403828 303.870232 
L 278.939713 301.968757 
L 295.475598 300.446926 
L 312.011483 299.190454 
L 328.547368 298.393744 
L 345.083254 297.676673 
L 361.619139 295.726805 
L 378.155024 295.232786 
L 394.690909 294.336062 
" clip-path="url(#pc286a2765a)" style="fill: none; stroke: #fc8d62; stroke-width: 1.5; stroke-linecap: round"/>
    <g clip-path="url(#pc286a2765a)">
     <use xlink:href="#m80b5cfad2b" x="80.509091" y="344.375067" style="fill: #fc8d62; stroke: #fc8d62"/>
     <use xlink:href="#m80b5cfad2b" x="97.044976" y="336.817916" style="fill: #fc8d62; stroke: #fc8d62"/>
     <use xlink:href="#m80b5cfad2b" x="113.580861" y="331.538449" style="fill: #fc8d62; stroke: #fc8d62"/>
     <use xlink:href="#m80b5cfad2b" x="130.116746" y="326.142385" style="fill: #fc8d62; stroke: #fc8d62"/>
     <use xlink:href="#m80b5cfad2b" x="146.652632" y="322.049802" style="fill: #fc8d62; stroke: #fc8d62"/>
     <use xlink:href="#m80b5cfad2b" x="163.188517" y="318.582817" style="fill: #fc8d62; stroke: #fc8d62"/>
     <use xlink:href="#m80b5cfad2b" x="179.724402" y="315.111909" style="fill: #fc8d62; stroke: #fc8d62"/>
     <use xlink:href="#m80b5cfad2b" x="196.260287" y="312.786566" style="fill: #fc8d62; stroke: #fc8d62"/>
     <use xlink:href="#m80b5cfad2b" x="212.796172" y="309.627033" style="fill: #fc8d62; stroke: #fc8d62"/>
     <use xlink:href="#m80b5cfad2b" x="229.332057" y="308.458741" style="fill: #fc8d62; stroke: #fc8d62"/>
     <use xlink:href="#m80b5cfad2b" x="245.867943" y="305.094437" style="fill: #fc8d62; stroke: #fc8d62"/>
     <use xlink:href="#m80b5cfad2b" x="262.403828" y="303.870232" style="fill: #fc8d62; stroke: #fc8d62"/>
     <use xlink:href="#m80b5cfad2b" x="278.939713" y="301.968757" style="fill: #fc8d62; stroke: #fc8d62"/>
     <use xlink:href="#m80b5cfad2b" x="295.475598" y="300.446926" style="fill: #fc8d62; stroke: #fc8d62"/>
     <use xlink:href="#m80b5cfad2b" x="312.011483" y="299.190454" style="fill: #fc8d62; stroke: #fc8d62"/>
     <use xlink:href="#m80b5cfad2b" x="328.547368" y="298.393744" style="fill: #fc8d62; stroke: #fc8d62"/>
     <use xlink:href="#m80b5cfad2b" x="345.083254" y="297.676673" style="fill: #fc8d62; stroke: #fc8d62"/>
     <use xlink:href="#m80b5cfad2b" x="361.619139" y="295.726805" style="fill: #fc8d62; stroke: #fc8d62"/>
     <use xlink:href="#m80b5cfad2b" x="378.155024" y="295.232786" style="fill: #fc8d62; stroke: #fc8d62"/>
     <use xlink:href="#m80b5cfad2b" x="394.690909" y="294.336062" style="fill: #fc8d62; stroke: #fc8d62"/>
    </g>
   </g>
   <g id="line2d_33">
    <path d="M 80.509091 332.027234 
L 97.044976 332.038692 
L 113.580861 322.1591 
L 130.116746 314.590024 
L 146.652632 307.686127 
L 163.188517 301.481656 
L 179.724402 297.62856 
L 196.260287 293.501507 
L 212.796172 290.87554 
L 229.332057 288.719588 
L 245.867943 285.830408 
L 262.403828 284.741445 
L 278.939713 282.29252 
L 295.475598 280.316093 
L 312.011483 278.494688 
L 328.547368 276.962177 
L 345.083254 276.060485 
L 361.619139 274.948711 
L 378.155024 274.325606 
L 394.690909 272.853672 
" clip-path="url(#pc286a2765a)" style="fill: none; stroke: #fc8d62; stroke-width: 1.5; stroke-linecap: round"/>
   </g>
   <g id="line2d_34">
    <path d="M 80.509091 332.027234 
L 97.044976 332.038692 
L 113.580861 322.1591 
L 130.116746 314.590024 
L 146.652632 307.686127 
L 163.188517 301.481656 
L 179.724402 297.62856 
L 196.260287 293.501507 
L 212.796172 290.87554 
L 229.332057 288.719588 
L 245.867943 285.830408 
L 262.403828 284.741445 
L 278.939713 282.29252 
L 295.475598 280.316093 
L 312.011483 278.494688 
L 328.547368 276.962177 
L 345.083254 276.060485 
L 361.619139 274.948711 
L 378.155024 274.325606 
L 394.690909 272.853672 
" clip-path="url(#pc286a2765a)" style="fill: none; stroke: #fc8d62; stroke-width: 1.5; stroke-linecap: round"/>
    <g clip-path="url(#pc286a2765a)">
     <use xlink:href="#m80b5cfad2b" x="80.509091" y="332.027234" style="fill: #fc8d62; stroke: #fc8d62"/>
     <use xlink:href="#m80b5cfad2b" x="97.044976" y="332.038692" style="fill: #fc8d62; stroke: #fc8d62"/>
     <use xlink:href="#m80b5cfad2b" x="113.580861" y="322.1591" style="fill: #fc8d62; stroke: #fc8d62"/>
     <use xlink:href="#m80b5cfad2b" x="130.116746" y="314.590024" style="fill: #fc8d62; stroke: #fc8d62"/>
     <use xlink:href="#m80b5cfad2b" x="146.652632" y="307.686127" style="fill: #fc8d62; stroke: #fc8d62"/>
     <use xlink:href="#m80b5cfad2b" x="163.188517" y="301.481656" style="fill: #fc8d62; stroke: #fc8d62"/>
     <use xlink:href="#m80b5cfad2b" x="179.724402" y="297.62856" style="fill: #fc8d62; stroke: #fc8d62"/>
     <use xlink:href="#m80b5cfad2b" x="196.260287" y="293.501507" style="fill: #fc8d62; stroke: #fc8d62"/>
     <use xlink:href="#m80b5cfad2b" x="212.796172" y="290.87554" style="fill: #fc8d62; stroke: #fc8d62"/>
     <use xlink:href="#m80b5cfad2b" x="229.332057" y="288.719588" style="fill: #fc8d62; stroke: #fc8d62"/>
     <use xlink:href="#m80b5cfad2b" x="245.867943" y="285.830408" style="fill: #fc8d62; stroke: #fc8d62"/>
     <use xlink:href="#m80b5cfad2b" x="262.403828" y="284.741445" style="fill: #fc8d62; stroke: #fc8d62"/>
     <use xlink:href="#m80b5cfad2b" x="278.939713" y="282.29252" style="fill: #fc8d62; stroke: #fc8d62"/>
     <use xlink:href="#m80b5cfad2b" x="295.475598" y="280.316093" style="fill: #fc8d62; stroke: #fc8d62"/>
     <use xlink:href="#m80b5cfad2b" x="312.011483" y="278.494688" style="fill: #fc8d62; stroke: #fc8d62"/>
     <use xlink:href="#m80b5cfad2b" x="328.547368" y="276.962177" style="fill: #fc8d62; stroke: #fc8d62"/>
     <use xlink:href="#m80b5cfad2b" x="345.083254" y="276.060485" style="fill: #fc8d62; stroke: #fc8d62"/>
     <use xlink:href="#m80b5cfad2b" x="361.619139" y="274.948711" style="fill: #fc8d62; stroke: #fc8d62"/>
     <use xlink:href="#m80b5cfad2b" x="378.155024" y="274.325606" style="fill: #fc8d62; stroke: #fc8d62"/>
     <use xlink:href="#m80b5cfad2b" x="394.690909" y="272.853672" style="fill: #fc8d62; stroke: #fc8d62"/>
    </g>
   </g>
   <g id="line2d_35">
    <path d="M 80.509091 317.675366 
L 97.044976 297.790618 
L 113.580861 278.477927 
L 130.116746 266.798328 
L 146.652632 257.532485 
L 163.188517 247.565135 
L 179.724402 237.489078 
L 196.260287 232.151916 
L 212.796172 224.97213 
L 229.332057 220.273662 
L 245.867943 214.493455 
L 262.403828 211.838609 
L 278.939713 206.849457 
L 295.475598 203.743077 
L 312.011483 201.757516 
L 328.547368 198.61849 
L 345.083254 196.897245 
L 361.619139 193.388578 
L 378.155024 192.304732 
L 394.690909 189.050551 
" clip-path="url(#pc286a2765a)" style="fill: none; stroke: #fc8d62; stroke-width: 1.5; stroke-linecap: round"/>
   </g>
   <g id="line2d_36">
    <path d="M 80.509091 317.675366 
L 97.044976 297.790618 
L 113.580861 278.477927 
L 130.116746 266.798328 
L 146.652632 257.532485 
L 163.188517 247.565135 
L 179.724402 237.489078 
L 196.260287 232.151916 
L 212.796172 224.97213 
L 229.332057 220.273662 
L 245.867943 214.493455 
L 262.403828 211.838609 
L 278.939713 206.849457 
L 295.475598 203.743077 
L 312.011483 201.757516 
L 328.547368 198.61849 
L 345.083254 196.897245 
L 361.619139 193.388578 
L 378.155024 192.304732 
L 394.690909 189.050551 
" clip-path="url(#pc286a2765a)" style="fill: none; stroke: #fc8d62; stroke-width: 1.5; stroke-linecap: round"/>
    <g clip-path="url(#pc286a2765a)">
     <use xlink:href="#m80b5cfad2b" x="80.509091" y="317.675366" style="fill: #fc8d62; stroke: #fc8d62"/>
     <use xlink:href="#m80b5cfad2b" x="97.044976" y="297.790618" style="fill: #fc8d62; stroke: #fc8d62"/>
     <use xlink:href="#m80b5cfad2b" x="113.580861" y="278.477927" style="fill: #fc8d62; stroke: #fc8d62"/>
     <use xlink:href="#m80b5cfad2b" x="130.116746" y="266.798328" style="fill: #fc8d62; stroke: #fc8d62"/>
     <use xlink:href="#m80b5cfad2b" x="146.652632" y="257.532485" style="fill: #fc8d62; stroke: #fc8d62"/>
     <use xlink:href="#m80b5cfad2b" x="163.188517" y="247.565135" style="fill: #fc8d62; stroke: #fc8d62"/>
     <use xlink:href="#m80b5cfad2b" x="179.724402" y="237.489078" style="fill: #fc8d62; stroke: #fc8d62"/>
     <use xlink:href="#m80b5cfad2b" x="196.260287" y="232.151916" style="fill: #fc8d62; stroke: #fc8d62"/>
     <use xlink:href="#m80b5cfad2b" x="212.796172" y="224.97213" style="fill: #fc8d62; stroke: #fc8d62"/>
     <use xlink:href="#m80b5cfad2b" x="229.332057" y="220.273662" style="fill: #fc8d62; stroke: #fc8d62"/>
     <use xlink:href="#m80b5cfad2b" x="245.867943" y="214.493455" style="fill: #fc8d62; stroke: #fc8d62"/>
     <use xlink:href="#m80b5cfad2b" x="262.403828" y="211.838609" style="fill: #fc8d62; stroke: #fc8d62"/>
     <use xlink:href="#m80b5cfad2b" x="278.939713" y="206.849457" style="fill: #fc8d62; stroke: #fc8d62"/>
     <use xlink:href="#m80b5cfad2b" x="295.475598" y="203.743077" style="fill: #fc8d62; stroke: #fc8d62"/>
     <use xlink:href="#m80b5cfad2b" x="312.011483" y="201.757516" style="fill: #fc8d62; stroke: #fc8d62"/>
     <use xlink:href="#m80b5cfad2b" x="328.547368" y="198.61849" style="fill: #fc8d62; stroke: #fc8d62"/>
     <use xlink:href="#m80b5cfad2b" x="345.083254" y="196.897245" style="fill: #fc8d62; stroke: #fc8d62"/>
     <use xlink:href="#m80b5cfad2b" x="361.619139" y="193.388578" style="fill: #fc8d62; stroke: #fc8d62"/>
     <use xlink:href="#m80b5cfad2b" x="378.155024" y="192.304732" style="fill: #fc8d62; stroke: #fc8d62"/>
     <use xlink:href="#m80b5cfad2b" x="394.690909" y="189.050551" style="fill: #fc8d62; stroke: #fc8d62"/>
    </g>
   </g>
   <g id="line2d_37">
    <path d="M 80.509091 331.304264 
L 97.044976 331.063004 
L 113.580861 318.577237 
L 130.116746 309.270358 
L 146.652632 303.176491 
L 163.188517 298.335743 
L 179.724402 293.801317 
L 196.260287 290.456224 
L 212.796172 287.568422 
L 229.332057 284.794895 
L 245.867943 283.535903 
L 262.403828 281.618984 
L 278.939713 279.227134 
L 295.475598 277.864491 
L 312.011483 277.885233 
L 328.547368 276.177322 
L 345.083254 274.969178 
L 361.619139 274.345954 
L 378.155024 273.956575 
L 394.690909 272.841089 
" clip-path="url(#pc286a2765a)" style="fill: none; stroke: #fc8d62; stroke-width: 1.5; stroke-linecap: round"/>
   </g>
   <g id="line2d_38">
    <path d="M 80.509091 331.304264 
L 97.044976 331.063004 
L 113.580861 318.577237 
L 130.116746 309.270358 
L 146.652632 303.176491 
L 163.188517 298.335743 
L 179.724402 293.801317 
L 196.260287 290.456224 
L 212.796172 287.568422 
L 229.332057 284.794895 
L 245.867943 283.535903 
L 262.403828 281.618984 
L 278.939713 279.227134 
L 295.475598 277.864491 
L 312.011483 277.885233 
L 328.547368 276.177322 
L 345.083254 274.969178 
L 361.619139 274.345954 
L 378.155024 273.956575 
L 394.690909 272.841089 
" clip-path="url(#pc286a2765a)" style="fill: none; stroke: #fc8d62; stroke-width: 1.5; stroke-linecap: round"/>
    <g clip-path="url(#pc286a2765a)">
     <use xlink:href="#m80b5cfad2b" x="80.509091" y="331.304264" style="fill: #fc8d62; stroke: #fc8d62"/>
     <use xlink:href="#m80b5cfad2b" x="97.044976" y="331.063004" style="fill: #fc8d62; stroke: #fc8d62"/>
     <use xlink:href="#m80b5cfad2b" x="113.580861" y="318.577237" style="fill: #fc8d62; stroke: #fc8d62"/>
     <use xlink:href="#m80b5cfad2b" x="130.116746" y="309.270358" style="fill: #fc8d62; stroke: #fc8d62"/>
     <use xlink:href="#m80b5cfad2b" x="146.652632" y="303.176491" style="fill: #fc8d62; stroke: #fc8d62"/>
     <use xlink:href="#m80b5cfad2b" x="163.188517" y="298.335743" style="fill: #fc8d62; stroke: #fc8d62"/>
     <use xlink:href="#m80b5cfad2b" x="179.724402" y="293.801317" style="fill: #fc8d62; stroke: #fc8d62"/>
     <use xlink:href="#m80b5cfad2b" x="196.260287" y="290.456224" style="fill: #fc8d62; stroke: #fc8d62"/>
     <use xlink:href="#m80b5cfad2b" x="212.796172" y="287.568422" style="fill: #fc8d62; stroke: #fc8d62"/>
     <use xlink:href="#m80b5cfad2b" x="229.332057" y="284.794895" style="fill: #fc8d62; stroke: #fc8d62"/>
     <use xlink:href="#m80b5cfad2b" x="245.867943" y="283.535903" style="fill: #fc8d62; stroke: #fc8d62"/>
     <use xlink:href="#m80b5cfad2b" x="262.403828" y="281.618984" style="fill: #fc8d62; stroke: #fc8d62"/>
     <use xlink:href="#m80b5cfad2b" x="278.939713" y="279.227134" style="fill: #fc8d62; stroke: #fc8d62"/>
     <use xlink:href="#m80b5cfad2b" x="295.475598" y="277.864491" style="fill: #fc8d62; stroke: #fc8d62"/>
     <use xlink:href="#m80b5cfad2b" x="312.011483" y="277.885233" style="fill: #fc8d62; stroke: #fc8d62"/>
     <use xlink:href="#m80b5cfad2b" x="328.547368" y="276.177322" style="fill: #fc8d62; stroke: #fc8d62"/>
     <use xlink:href="#m80b5cfad2b" x="345.083254" y="274.969178" style="fill: #fc8d62; stroke: #fc8d62"/>
     <use xlink:href="#m80b5cfad2b" x="361.619139" y="274.345954" style="fill: #fc8d62; stroke: #fc8d62"/>
     <use xlink:href="#m80b5cfad2b" x="378.155024" y="273.956575" style="fill: #fc8d62; stroke: #fc8d62"/>
     <use xlink:href="#m80b5cfad2b" x="394.690909" y="272.841089" style="fill: #fc8d62; stroke: #fc8d62"/>
    </g>
   </g>
   <g id="line2d_39">
    <path d="M 80.509091 379.103413 
L 97.044976 379.087307 
L 113.580861 379.103916 
L 130.116746 379.010929 
L 146.652632 378.960456 
L 163.188517 379.089848 
L 179.724402 379.083007 
L 196.260287 379.023164 
L 212.796172 378.969436 
L 229.332057 378.913074 
L 245.867943 379.014321 
L 262.403828 379.068443 
L 278.939713 379.109288 
L 295.475598 379.088289 
L 312.011483 379.080747 
L 328.547368 379.091406 
L 345.083254 379.128292 
L 361.619139 379.011703 
L 378.155024 379.069702 
L 394.690909 378.912755 
" clip-path="url(#pc286a2765a)" style="fill: none; stroke: #8da0cb; stroke-width: 1.5; stroke-linecap: round"/>
   </g>
   <g id="line2d_40">
    <path d="M 80.509091 379.103413 
L 97.044976 379.087307 
L 113.580861 379.103916 
L 130.116746 379.010929 
L 146.652632 378.960456 
L 163.188517 379.089848 
L 179.724402 379.083007 
L 196.260287 379.023164 
L 212.796172 378.969436 
L 229.332057 378.913074 
L 245.867943 379.014321 
L 262.403828 379.068443 
L 278.939713 379.109288 
L 295.475598 379.088289 
L 312.011483 379.080747 
L 328.547368 379.091406 
L 345.083254 379.128292 
L 361.619139 379.011703 
L 378.155024 379.069702 
L 394.690909 378.912755 
" clip-path="url(#pc286a2765a)" style="fill: none; stroke: #8da0cb; stroke-width: 1.5; stroke-linecap: round"/>
    <defs>
     <path id="m3a6b15c3fa" d="M 0 3 
C 0.795609 3 1.55874 2.683901 2.12132 2.12132 
C 2.683901 1.55874 3 0.795609 3 0 
C 3 -0.795609 2.683901 -1.55874 2.12132 -2.12132 
C 1.55874 -2.683901 0.795609 -3 0 -3 
C -0.795609 -3 -1.55874 -2.683901 -2.12132 -2.12132 
C -2.683901 -1.55874 -3 -0.795609 -3 0 
C -3 0.795609 -2.683901 1.55874 -2.12132 2.12132 
C -1.55874 2.683901 -0.795609 3 0 3 
z
" style="stroke: #8da0cb"/>
    </defs>
    <g clip-path="url(#pc286a2765a)">
     <use xlink:href="#m3a6b15c3fa" x="80.509091" y="379.103413" style="fill: #8da0cb; stroke: #8da0cb"/>
     <use xlink:href="#m3a6b15c3fa" x="97.044976" y="379.087307" style="fill: #8da0cb; stroke: #8da0cb"/>
     <use xlink:href="#m3a6b15c3fa" x="113.580861" y="379.103916" style="fill: #8da0cb; stroke: #8da0cb"/>
     <use xlink:href="#m3a6b15c3fa" x="130.116746" y="379.010929" style="fill: #8da0cb; stroke: #8da0cb"/>
     <use xlink:href="#m3a6b15c3fa" x="146.652632" y="378.960456" style="fill: #8da0cb; stroke: #8da0cb"/>
     <use xlink:href="#m3a6b15c3fa" x="163.188517" y="379.089848" style="fill: #8da0cb; stroke: #8da0cb"/>
     <use xlink:href="#m3a6b15c3fa" x="179.724402" y="379.083007" style="fill: #8da0cb; stroke: #8da0cb"/>
     <use xlink:href="#m3a6b15c3fa" x="196.260287" y="379.023164" style="fill: #8da0cb; stroke: #8da0cb"/>
     <use xlink:href="#m3a6b15c3fa" x="212.796172" y="378.969436" style="fill: #8da0cb; stroke: #8da0cb"/>
     <use xlink:href="#m3a6b15c3fa" x="229.332057" y="378.913074" style="fill: #8da0cb; stroke: #8da0cb"/>
     <use xlink:href="#m3a6b15c3fa" x="245.867943" y="379.014321" style="fill: #8da0cb; stroke: #8da0cb"/>
     <use xlink:href="#m3a6b15c3fa" x="262.403828" y="379.068443" style="fill: #8da0cb; stroke: #8da0cb"/>
     <use xlink:href="#m3a6b15c3fa" x="278.939713" y="379.109288" style="fill: #8da0cb; stroke: #8da0cb"/>
     <use xlink:href="#m3a6b15c3fa" x="295.475598" y="379.088289" style="fill: #8da0cb; stroke: #8da0cb"/>
     <use xlink:href="#m3a6b15c3fa" x="312.011483" y="379.080747" style="fill: #8da0cb; stroke: #8da0cb"/>
     <use xlink:href="#m3a6b15c3fa" x="328.547368" y="379.091406" style="fill: #8da0cb; stroke: #8da0cb"/>
     <use xlink:href="#m3a6b15c3fa" x="345.083254" y="379.128292" style="fill: #8da0cb; stroke: #8da0cb"/>
     <use xlink:href="#m3a6b15c3fa" x="361.619139" y="379.011703" style="fill: #8da0cb; stroke: #8da0cb"/>
     <use xlink:href="#m3a6b15c3fa" x="378.155024" y="379.069702" style="fill: #8da0cb; stroke: #8da0cb"/>
     <use xlink:href="#m3a6b15c3fa" x="394.690909" y="378.912755" style="fill: #8da0cb; stroke: #8da0cb"/>
    </g>
   </g>
   <g id="line2d_41">
    <path d="M 80.509091 378.688108 
L 97.044976 378.708333 
L 113.580861 378.64741 
L 130.116746 378.603886 
L 146.652632 378.622504 
L 163.188517 378.470981 
L 179.724402 378.619868 
L 196.260287 378.473696 
L 212.796172 378.632546 
L 229.332057 378.636237 
L 245.867943 378.534997 
L 262.403828 378.511711 
L 278.939713 378.484662 
L 295.475598 378.603543 
L 312.011483 378.456741 
L 328.547368 378.428389 
L 345.083254 378.626035 
L 361.619139 378.595293 
L 378.155024 378.533129 
L 394.690909 378.573464 
" clip-path="url(#pc286a2765a)" style="fill: none; stroke: #8da0cb; stroke-width: 1.5; stroke-linecap: round"/>
   </g>
   <g id="line2d_42">
    <path d="M 80.509091 378.688108 
L 97.044976 378.708333 
L 113.580861 378.64741 
L 130.116746 378.603886 
L 146.652632 378.622504 
L 163.188517 378.470981 
L 179.724402 378.619868 
L 196.260287 378.473696 
L 212.796172 378.632546 
L 229.332057 378.636237 
L 245.867943 378.534997 
L 262.403828 378.511711 
L 278.939713 378.484662 
L 295.475598 378.603543 
L 312.011483 378.456741 
L 328.547368 378.428389 
L 345.083254 378.626035 
L 361.619139 378.595293 
L 378.155024 378.533129 
L 394.690909 378.573464 
" clip-path="url(#pc286a2765a)" style="fill: none; stroke: #8da0cb; stroke-width: 1.5; stroke-linecap: round"/>
    <g clip-path="url(#pc286a2765a)">
     <use xlink:href="#m3a6b15c3fa" x="80.509091" y="378.688108" style="fill: #8da0cb; stroke: #8da0cb"/>
     <use xlink:href="#m3a6b15c3fa" x="97.044976" y="378.708333" style="fill: #8da0cb; stroke: #8da0cb"/>
     <use xlink:href="#m3a6b15c3fa" x="113.580861" y="378.64741" style="fill: #8da0cb; stroke: #8da0cb"/>
     <use xlink:href="#m3a6b15c3fa" x="130.116746" y="378.603886" style="fill: #8da0cb; stroke: #8da0cb"/>
     <use xlink:href="#m3a6b15c3fa" x="146.652632" y="378.622504" style="fill: #8da0cb; stroke: #8da0cb"/>
     <use xlink:href="#m3a6b15c3fa" x="163.188517" y="378.470981" style="fill: #8da0cb; stroke: #8da0cb"/>
     <use xlink:href="#m3a6b15c3fa" x="179.724402" y="378.619868" style="fill: #8da0cb; stroke: #8da0cb"/>
     <use xlink:href="#m3a6b15c3fa" x="196.260287" y="378.473696" style="fill: #8da0cb; stroke: #8da0cb"/>
     <use xlink:href="#m3a6b15c3fa" x="212.796172" y="378.632546" style="fill: #8da0cb; stroke: #8da0cb"/>
     <use xlink:href="#m3a6b15c3fa" x="229.332057" y="378.636237" style="fill: #8da0cb; stroke: #8da0cb"/>
     <use xlink:href="#m3a6b15c3fa" x="245.867943" y="378.534997" style="fill: #8da0cb; stroke: #8da0cb"/>
     <use xlink:href="#m3a6b15c3fa" x="262.403828" y="378.511711" style="fill: #8da0cb; stroke: #8da0cb"/>
     <use xlink:href="#m3a6b15c3fa" x="278.939713" y="378.484662" style="fill: #8da0cb; stroke: #8da0cb"/>
     <use xlink:href="#m3a6b15c3fa" x="295.475598" y="378.603543" style="fill: #8da0cb; stroke: #8da0cb"/>
     <use xlink:href="#m3a6b15c3fa" x="312.011483" y="378.456741" style="fill: #8da0cb; stroke: #8da0cb"/>
     <use xlink:href="#m3a6b15c3fa" x="328.547368" y="378.428389" style="fill: #8da0cb; stroke: #8da0cb"/>
     <use xlink:href="#m3a6b15c3fa" x="345.083254" y="378.626035" style="fill: #8da0cb; stroke: #8da0cb"/>
     <use xlink:href="#m3a6b15c3fa" x="361.619139" y="378.595293" style="fill: #8da0cb; stroke: #8da0cb"/>
     <use xlink:href="#m3a6b15c3fa" x="378.155024" y="378.533129" style="fill: #8da0cb; stroke: #8da0cb"/>
     <use xlink:href="#m3a6b15c3fa" x="394.690909" y="378.573464" style="fill: #8da0cb; stroke: #8da0cb"/>
    </g>
   </g>
   <g id="line2d_43">
    <path d="M 80.509091 364.228256 
L 97.044976 361.751171 
L 113.580861 356.690958 
L 130.116746 352.077733 
L 146.652632 346.722238 
L 163.188517 339.004509 
L 179.724402 332.946332 
L 196.260287 327.843363 
L 212.796172 323.524059 
L 229.332057 320.099486 
L 245.867943 316.950073 
L 262.403828 314.860678 
L 278.939713 311.91301 
L 295.475598 310.25319 
L 312.011483 308.337906 
L 328.547368 306.630351 
L 345.083254 305.130391 
L 361.619139 303.895646 
L 378.155024 303.063967 
L 394.690909 301.509528 
" clip-path="url(#pc286a2765a)" style="fill: none; stroke-dasharray: 24,6; stroke-dashoffset: 0; stroke: #000000; stroke-width: 3"/>
   </g>
   <g id="patch_3">
    <path d="M 64.8 460.8 
L 64.8 86.4 
" style="fill: none; stroke: #cccccc; stroke-width: 1.25; stroke-linejoin: miter; stroke-linecap: square"/>
   </g>
   <g id="patch_4">
    <path d="M 410.4 460.8 
L 410.4 86.4 
" style="fill: none; stroke: #cccccc; stroke-width: 1.25; stroke-linejoin: miter; stroke-linecap: square"/>
   </g>
   <g id="patch_5">
    <path d="M 64.8 460.8 
L 410.4 460.8 
" style="fill: none; stroke: #cccccc; stroke-width: 1.25; stroke-linejoin: miter; stroke-linecap: square"/>
   </g>
   <g id="patch_6">
    <path d="M 64.8 86.4 
L 410.4 86.4 
" style="fill: none; stroke: #cccccc; stroke-width: 1.25; stroke-linejoin: miter; stroke-linecap: square"/>
   </g>
   <g id="text_17">
    <!-- Cluster 2 -->
    <g style="fill: #262626" transform="translate(210.580313 53.52525) scale(0.12 -0.12)">
     <defs>
      <path id="DejaVuSans-43" d="M 4122 4306 
L 4122 3641 
Q 3803 3938 3442 4084 
Q 3081 4231 2675 4231 
Q 1875 4231 1450 3742 
Q 1025 3253 1025 2328 
Q 1025 1406 1450 917 
Q 1875 428 2675 428 
Q 3081 428 3442 575 
Q 3803 722 4122 1019 
L 4122 359 
Q 3791 134 3420 21 
Q 3050 -91 2638 -91 
Q 1578 -91 968 557 
Q 359 1206 359 2328 
Q 359 3453 968 4101 
Q 1578 4750 2638 4750 
Q 3056 4750 3426 4639 
Q 3797 4528 4122 4306 
z
" transform="scale(0.015625)"/>
      <path id="DejaVuSans-6c" d="M 603 4863 
L 1178 4863 
L 1178 0 
L 603 0 
L 603 4863 
z
" transform="scale(0.015625)"/>
      <path id="DejaVuSans-75" d="M 544 1381 
L 544 3500 
L 1119 3500 
L 1119 1403 
Q 1119 906 1312 657 
Q 1506 409 1894 409 
Q 2359 409 2629 706 
Q 2900 1003 2900 1516 
L 2900 3500 
L 3475 3500 
L 3475 0 
L 2900 0 
L 2900 538 
Q 2691 219 2414 64 
Q 2138 -91 1772 -91 
Q 1169 -91 856 284 
Q 544 659 544 1381 
z
M 1991 3584 
L 1991 3584 
z
" transform="scale(0.015625)"/>
      <path id="DejaVuSans-73" d="M 2834 3397 
L 2834 2853 
Q 2591 2978 2328 3040 
Q 2066 3103 1784 3103 
Q 1356 3103 1142 2972 
Q 928 2841 928 2578 
Q 928 2378 1081 2264 
Q 1234 2150 1697 2047 
L 1894 2003 
Q 2506 1872 2764 1633 
Q 3022 1394 3022 966 
Q 3022 478 2636 193 
Q 2250 -91 1575 -91 
Q 1294 -91 989 -36 
Q 684 19 347 128 
L 347 722 
Q 666 556 975 473 
Q 1284 391 1588 391 
Q 1994 391 2212 530 
Q 2431 669 2431 922 
Q 2431 1156 2273 1281 
Q 2116 1406 1581 1522 
L 1381 1569 
Q 847 1681 609 1914 
Q 372 2147 372 2553 
Q 372 3047 722 3315 
Q 1072 3584 1716 3584 
Q 2034 3584 2315 3537 
Q 2597 3491 2834 3397 
z
" transform="scale(0.015625)"/>
      <path id="DejaVuSans-74" d="M 1172 4494 
L 1172 3500 
L 2356 3500 
L 2356 3053 
L 1172 3053 
L 1172 1153 
Q 1172 725 1289 603 
Q 1406 481 1766 481 
L 2356 481 
L 2356 0 
L 1766 0 
Q 1100 0 847 248 
Q 594 497 594 1153 
L 594 3053 
L 172 3053 
L 172 3500 
L 594 3500 
L 594 4494 
L 1172 4494 
z
" transform="scale(0.015625)"/>
      <path id="DejaVuSans-65" d="M 3597 1894 
L 3597 1613 
L 953 1613 
Q 991 1019 1311 708 
Q 1631 397 2203 397 
Q 2534 397 2845 478 
Q 3156 559 3463 722 
L 3463 178 
Q 3153 47 2828 -22 
Q 2503 -91 2169 -91 
Q 1331 -91 842 396 
Q 353 884 353 1716 
Q 353 2575 817 3079 
Q 1281 3584 2069 3584 
Q 2775 3584 3186 3129 
Q 3597 2675 3597 1894 
z
M 3022 2063 
Q 3016 2534 2758 2815 
Q 2500 3097 2075 3097 
Q 1594 3097 1305 2825 
Q 1016 2553 972 2059 
L 3022 2063 
z
" transform="scale(0.015625)"/>
      <path id="DejaVuSans-72" d="M 2631 2963 
Q 2534 3019 2420 3045 
Q 2306 3072 2169 3072 
Q 1681 3072 1420 2755 
Q 1159 2438 1159 1844 
L 1159 0 
L 581 0 
L 581 3500 
L 1159 3500 
L 1159 2956 
Q 1341 3275 1631 3429 
Q 1922 3584 2338 3584 
Q 2397 3584 2469 3576 
Q 2541 3569 2628 3553 
L 2631 2963 
z
" transform="scale(0.015625)"/>
      <path id="DejaVuSans-20" transform="scale(0.015625)"/>
     </defs>
     <use xlink:href="#DejaVuSans-43"/>
     <use xlink:href="#DejaVuSans-6c" transform="translate(69.824219 0)"/>
     <use xlink:href="#DejaVuSans-75" transform="translate(97.607422 0)"/>
     <use xlink:href="#DejaVuSans-73" transform="translate(160.986328 0)"/>
     <use xlink:href="#DejaVuSans-74" transform="translate(213.085938 0)"/>
     <use xlink:href="#DejaVuSans-65" transform="translate(252.294922 0)"/>
     <use xlink:href="#DejaVuSans-72" transform="translate(313.818359 0)"/>
     <use xlink:href="#DejaVuSans-20" transform="translate(354.931641 0)"/>
     <use xlink:href="#DejaVuSans-32" transform="translate(386.71875 0)"/>
    </g>
    <!-- 13 Trajectories  -->
    <g style="fill: #262626" transform="translate(191.595938 66.962625) scale(0.12 -0.12)">
     <defs>
      <path id="DejaVuSans-33" d="M 2597 2516 
Q 3050 2419 3304 2112 
Q 3559 1806 3559 1356 
Q 3559 666 3084 287 
Q 2609 -91 1734 -91 
Q 1441 -91 1130 -33 
Q 819 25 488 141 
L 488 750 
Q 750 597 1062 519 
Q 1375 441 1716 441 
Q 2309 441 2620 675 
Q 2931 909 2931 1356 
Q 2931 1769 2642 2001 
Q 2353 2234 1838 2234 
L 1294 2234 
L 1294 2753 
L 1863 2753 
Q 2328 2753 2575 2939 
Q 2822 3125 2822 3475 
Q 2822 3834 2567 4026 
Q 2313 4219 1838 4219 
Q 1578 4219 1281 4162 
Q 984 4106 628 3988 
L 628 4550 
Q 988 4650 1302 4700 
Q 1616 4750 1894 4750 
Q 2613 4750 3031 4423 
Q 3450 4097 3450 3541 
Q 3450 3153 3228 2886 
Q 3006 2619 2597 2516 
z
" transform="scale(0.015625)"/>
      <path id="DejaVuSans-54" d="M -19 4666 
L 3928 4666 
L 3928 4134 
L 2272 4134 
L 2272 0 
L 1638 0 
L 1638 4134 
L -19 4134 
L -19 4666 
z
" transform="scale(0.015625)"/>
      <path id="DejaVuSans-61" d="M 2194 1759 
Q 1497 1759 1228 1600 
Q 959 1441 959 1056 
Q 959 750 1161 570 
Q 1363 391 1709 391 
Q 2188 391 2477 730 
Q 2766 1069 2766 1631 
L 2766 1759 
L 2194 1759 
z
M 3341 1997 
L 3341 0 
L 2766 0 
L 2766 531 
Q 2569 213 2275 61 
Q 1981 -91 1556 -91 
Q 1019 -91 701 211 
Q 384 513 384 1019 
Q 384 1609 779 1909 
Q 1175 2209 1959 2209 
L 2766 2209 
L 2766 2266 
Q 2766 2663 2505 2880 
Q 2244 3097 1772 3097 
Q 1472 3097 1187 3025 
Q 903 2953 641 2809 
L 641 3341 
Q 956 3463 1253 3523 
Q 1550 3584 1831 3584 
Q 2591 3584 2966 3190 
Q 3341 2797 3341 1997 
z
" transform="scale(0.015625)"/>
      <path id="DejaVuSans-6a" d="M 603 3500 
L 1178 3500 
L 1178 -63 
Q 1178 -731 923 -1031 
Q 669 -1331 103 -1331 
L -116 -1331 
L -116 -844 
L 38 -844 
Q 366 -844 484 -692 
Q 603 -541 603 -63 
L 603 3500 
z
M 603 4863 
L 1178 4863 
L 1178 4134 
L 603 4134 
L 603 4863 
z
" transform="scale(0.015625)"/>
      <path id="DejaVuSans-63" d="M 3122 3366 
L 3122 2828 
Q 2878 2963 2633 3030 
Q 2388 3097 2138 3097 
Q 1578 3097 1268 2742 
Q 959 2388 959 1747 
Q 959 1106 1268 751 
Q 1578 397 2138 397 
Q 2388 397 2633 464 
Q 2878 531 3122 666 
L 3122 134 
Q 2881 22 2623 -34 
Q 2366 -91 2075 -91 
Q 1284 -91 818 406 
Q 353 903 353 1747 
Q 353 2603 823 3093 
Q 1294 3584 2113 3584 
Q 2378 3584 2631 3529 
Q 2884 3475 3122 3366 
z
" transform="scale(0.015625)"/>
      <path id="DejaVuSans-6f" d="M 1959 3097 
Q 1497 3097 1228 2736 
Q 959 2375 959 1747 
Q 959 1119 1226 758 
Q 1494 397 1959 397 
Q 2419 397 2687 759 
Q 2956 1122 2956 1747 
Q 2956 2369 2687 2733 
Q 2419 3097 1959 3097 
z
M 1959 3584 
Q 2709 3584 3137 3096 
Q 3566 2609 3566 1747 
Q 3566 888 3137 398 
Q 2709 -91 1959 -91 
Q 1206 -91 779 398 
Q 353 888 353 1747 
Q 353 2609 779 3096 
Q 1206 3584 1959 3584 
z
" transform="scale(0.015625)"/>
      <path id="DejaVuSans-69" d="M 603 3500 
L 1178 3500 
L 1178 0 
L 603 0 
L 603 3500 
z
M 603 4863 
L 1178 4863 
L 1178 4134 
L 603 4134 
L 603 4863 
z
" transform="scale(0.015625)"/>
     </defs>
     <use xlink:href="#DejaVuSans-31"/>
     <use xlink:href="#DejaVuSans-33" transform="translate(63.623047 0)"/>
     <use xlink:href="#DejaVuSans-20" transform="translate(127.246094 0)"/>
     <use xlink:href="#DejaVuSans-54" transform="translate(159.033203 0)"/>
     <use xlink:href="#DejaVuSans-72" transform="translate(205.367188 0)"/>
     <use xlink:href="#DejaVuSans-61" transform="translate(246.480469 0)"/>
     <use xlink:href="#DejaVuSans-6a" transform="translate(307.759766 0)"/>
     <use xlink:href="#DejaVuSans-65" transform="translate(335.542969 0)"/>
     <use xlink:href="#DejaVuSans-63" transform="translate(397.066406 0)"/>
     <use xlink:href="#DejaVuSans-74" transform="translate(452.046875 0)"/>
     <use xlink:href="#DejaVuSans-6f" transform="translate(491.255859 0)"/>
     <use xlink:href="#DejaVuSans-72" transform="translate(552.4375 0)"/>
     <use xlink:href="#DejaVuSans-69" transform="translate(593.550781 0)"/>
     <use xlink:href="#DejaVuSans-65" transform="translate(621.333984 0)"/>
     <use xlink:href="#DejaVuSans-73" transform="translate(682.857422 0)"/>
     <use xlink:href="#DejaVuSans-20" transform="translate(734.957031 0)"/>
    </g>
    <!--  Colored by: func_old -->
    <g style="fill: #262626" transform="translate(174.737813 80.4) scale(0.12 -0.12)">
     <defs>
      <path id="DejaVuSans-64" d="M 2906 2969 
L 2906 4863 
L 3481 4863 
L 3481 0 
L 2906 0 
L 2906 525 
Q 2725 213 2448 61 
Q 2172 -91 1784 -91 
Q 1150 -91 751 415 
Q 353 922 353 1747 
Q 353 2572 751 3078 
Q 1150 3584 1784 3584 
Q 2172 3584 2448 3432 
Q 2725 3281 2906 2969 
z
M 947 1747 
Q 947 1113 1208 752 
Q 1469 391 1925 391 
Q 2381 391 2643 752 
Q 2906 1113 2906 1747 
Q 2906 2381 2643 2742 
Q 2381 3103 1925 3103 
Q 1469 3103 1208 2742 
Q 947 2381 947 1747 
z
" transform="scale(0.015625)"/>
      <path id="DejaVuSans-62" d="M 3116 1747 
Q 3116 2381 2855 2742 
Q 2594 3103 2138 3103 
Q 1681 3103 1420 2742 
Q 1159 2381 1159 1747 
Q 1159 1113 1420 752 
Q 1681 391 2138 391 
Q 2594 391 2855 752 
Q 3116 1113 3116 1747 
z
M 1159 2969 
Q 1341 3281 1617 3432 
Q 1894 3584 2278 3584 
Q 2916 3584 3314 3078 
Q 3713 2572 3713 1747 
Q 3713 922 3314 415 
Q 2916 -91 2278 -91 
Q 1894 -91 1617 61 
Q 1341 213 1159 525 
L 1159 0 
L 581 0 
L 581 4863 
L 1159 4863 
L 1159 2969 
z
" transform="scale(0.015625)"/>
      <path id="DejaVuSans-79" d="M 2059 -325 
Q 1816 -950 1584 -1140 
Q 1353 -1331 966 -1331 
L 506 -1331 
L 506 -850 
L 844 -850 
Q 1081 -850 1212 -737 
Q 1344 -625 1503 -206 
L 1606 56 
L 191 3500 
L 800 3500 
L 1894 763 
L 2988 3500 
L 3597 3500 
L 2059 -325 
z
" transform="scale(0.015625)"/>
      <path id="DejaVuSans-3a" d="M 750 794 
L 1409 794 
L 1409 0 
L 750 0 
L 750 794 
z
M 750 3309 
L 1409 3309 
L 1409 2516 
L 750 2516 
L 750 3309 
z
" transform="scale(0.015625)"/>
      <path id="DejaVuSans-66" d="M 2375 4863 
L 2375 4384 
L 1825 4384 
Q 1516 4384 1395 4259 
Q 1275 4134 1275 3809 
L 1275 3500 
L 2222 3500 
L 2222 3053 
L 1275 3053 
L 1275 0 
L 697 0 
L 697 3053 
L 147 3053 
L 147 3500 
L 697 3500 
L 697 3744 
Q 697 4328 969 4595 
Q 1241 4863 1831 4863 
L 2375 4863 
z
" transform="scale(0.015625)"/>
      <path id="DejaVuSans-6e" d="M 3513 2113 
L 3513 0 
L 2938 0 
L 2938 2094 
Q 2938 2591 2744 2837 
Q 2550 3084 2163 3084 
Q 1697 3084 1428 2787 
Q 1159 2491 1159 1978 
L 1159 0 
L 581 0 
L 581 3500 
L 1159 3500 
L 1159 2956 
Q 1366 3272 1645 3428 
Q 1925 3584 2291 3584 
Q 2894 3584 3203 3211 
Q 3513 2838 3513 2113 
z
" transform="scale(0.015625)"/>
      <path id="DejaVuSans-5f" d="M 3263 -1063 
L 3263 -1509 
L -63 -1509 
L -63 -1063 
L 3263 -1063 
z
" transform="scale(0.015625)"/>
     </defs>
     <use xlink:href="#DejaVuSans-20"/>
     <use xlink:href="#DejaVuSans-43" transform="translate(31.787109 0)"/>
     <use xlink:href="#DejaVuSans-6f" transform="translate(101.611328 0)"/>
     <use xlink:href="#DejaVuSans-6c" transform="translate(162.792969 0)"/>
     <use xlink:href="#DejaVuSans-6f" transform="translate(190.576172 0)"/>
     <use xlink:href="#DejaVuSans-72" transform="translate(251.757812 0)"/>
     <use xlink:href="#DejaVuSans-65" transform="translate(290.621094 0)"/>
     <use xlink:href="#DejaVuSans-64" transform="translate(352.144531 0)"/>
     <use xlink:href="#DejaVuSans-20" transform="translate(415.621094 0)"/>
     <use xlink:href="#DejaVuSans-62" transform="translate(447.408203 0)"/>
     <use xlink:href="#DejaVuSans-79" transform="translate(510.884766 0)"/>
     <use xlink:href="#DejaVuSans-3a" transform="translate(562.814453 0)"/>
     <use xlink:href="#DejaVuSans-20" transform="translate(596.505859 0)"/>
     <use xlink:href="#DejaVuSans-66" transform="translate(628.292969 0)"/>
     <use xlink:href="#DejaVuSans-75" transform="translate(663.498047 0)"/>
     <use xlink:href="#DejaVuSans-6e" transform="translate(726.876953 0)"/>
     <use xlink:href="#DejaVuSans-63" transform="translate(790.255859 0)"/>
     <use xlink:href="#DejaVuSans-5f" transform="translate(845.236328 0)"/>
     <use xlink:href="#DejaVuSans-6f" transform="translate(895.236328 0)"/>
     <use xlink:href="#DejaVuSans-6c" transform="translate(956.417969 0)"/>
     <use xlink:href="#DejaVuSans-64" transform="translate(984.201172 0)"/>
    </g>
   </g>
   <g id="legend_1">
    <g id="patch_7">
     <path d="M 72.5 159.78375 
L 172.376563 159.78375 
Q 174.576563 159.78375 174.576563 157.58375 
L 174.576563 94.1 
Q 174.576563 91.9 172.376563 91.9 
L 72.5 91.9 
Q 70.3 91.9 70.3 94.1 
L 70.3 157.58375 
Q 70.3 159.78375 72.5 159.78375 
z
" style="fill: #ffffff; opacity: 0.8; stroke: #cccccc; stroke-linejoin: miter"/>
    </g>
    <g id="line2d_44">
     <path d="M 74.7 100.808281 
L 85.7 100.808281 
L 96.7 100.808281 
" style="fill: none; stroke: #66c2a5; stroke-width: 1.5; stroke-linecap: round"/>
    </g>
    <g id="text_18">
     <!-- exponential -->
     <g style="fill: #262626" transform="translate(105.5 104.658281) scale(0.11 -0.11)">
      <defs>
       <path id="DejaVuSans-78" d="M 3513 3500 
L 2247 1797 
L 3578 0 
L 2900 0 
L 1881 1375 
L 863 0 
L 184 0 
L 1544 1831 
L 300 3500 
L 978 3500 
L 1906 2253 
L 2834 3500 
L 3513 3500 
z
" transform="scale(0.015625)"/>
       <path id="DejaVuSans-70" d="M 1159 525 
L 1159 -1331 
L 581 -1331 
L 581 3500 
L 1159 3500 
L 1159 2969 
Q 1341 3281 1617 3432 
Q 1894 3584 2278 3584 
Q 2916 3584 3314 3078 
Q 3713 2572 3713 1747 
Q 3713 922 3314 415 
Q 2916 -91 2278 -91 
Q 1894 -91 1617 61 
Q 1341 213 1159 525 
z
M 3116 1747 
Q 3116 2381 2855 2742 
Q 2594 3103 2138 3103 
Q 1681 3103 1420 2742 
Q 1159 2381 1159 1747 
Q 1159 1113 1420 752 
Q 1681 391 2138 391 
Q 2594 391 2855 752 
Q 3116 1113 3116 1747 
z
" transform="scale(0.015625)"/>
      </defs>
      <use xlink:href="#DejaVuSans-65"/>
      <use xlink:href="#DejaVuSans-78" transform="translate(59.773438 0)"/>
      <use xlink:href="#DejaVuSans-70" transform="translate(118.953125 0)"/>
      <use xlink:href="#DejaVuSans-6f" transform="translate(182.429688 0)"/>
      <use xlink:href="#DejaVuSans-6e" transform="translate(243.611328 0)"/>
      <use xlink:href="#DejaVuSans-65" transform="translate(306.990234 0)"/>
      <use xlink:href="#DejaVuSans-6e" transform="translate(368.513672 0)"/>
      <use xlink:href="#DejaVuSans-74" transform="translate(431.892578 0)"/>
      <use xlink:href="#DejaVuSans-69" transform="translate(471.101562 0)"/>
      <use xlink:href="#DejaVuSans-61" transform="translate(498.884766 0)"/>
      <use xlink:href="#DejaVuSans-6c" transform="translate(560.164062 0)"/>
     </g>
    </g>
    <g id="line2d_45">
     <path d="M 74.7 116.954219 
L 85.7 116.954219 
L 96.7 116.954219 
" style="fill: none; stroke: #fc8d62; stroke-width: 1.5; stroke-linecap: round"/>
    </g>
    <g id="text_19">
     <!-- hyperbolic -->
     <g style="fill: #262626" transform="translate(105.5 120.804219) scale(0.11 -0.11)">
      <defs>
       <path id="DejaVuSans-68" d="M 3513 2113 
L 3513 0 
L 2938 0 
L 2938 2094 
Q 2938 2591 2744 2837 
Q 2550 3084 2163 3084 
Q 1697 3084 1428 2787 
Q 1159 2491 1159 1978 
L 1159 0 
L 581 0 
L 581 4863 
L 1159 4863 
L 1159 2956 
Q 1366 3272 1645 3428 
Q 1925 3584 2291 3584 
Q 2894 3584 3203 3211 
Q 3513 2838 3513 2113 
z
" transform="scale(0.015625)"/>
      </defs>
      <use xlink:href="#DejaVuSans-68"/>
      <use xlink:href="#DejaVuSans-79" transform="translate(63.378906 0)"/>
      <use xlink:href="#DejaVuSans-70" transform="translate(122.558594 0)"/>
      <use xlink:href="#DejaVuSans-65" transform="translate(186.035156 0)"/>
      <use xlink:href="#DejaVuSans-72" transform="translate(247.558594 0)"/>
      <use xlink:href="#DejaVuSans-62" transform="translate(288.671875 0)"/>
      <use xlink:href="#DejaVuSans-6f" transform="translate(352.148438 0)"/>
      <use xlink:href="#DejaVuSans-6c" transform="translate(413.330078 0)"/>
      <use xlink:href="#DejaVuSans-69" transform="translate(441.113281 0)"/>
      <use xlink:href="#DejaVuSans-63" transform="translate(468.896484 0)"/>
     </g>
    </g>
    <g id="line2d_46">
     <path d="M 74.7 133.100156 
L 85.7 133.100156 
L 96.7 133.100156 
" style="fill: none; stroke: #8da0cb; stroke-width: 1.5; stroke-linecap: round"/>
    </g>
    <g id="text_20">
     <!-- norm -->
     <g style="fill: #262626" transform="translate(105.5 136.950156) scale(0.11 -0.11)">
      <defs>
       <path id="DejaVuSans-6d" d="M 3328 2828 
Q 3544 3216 3844 3400 
Q 4144 3584 4550 3584 
Q 5097 3584 5394 3201 
Q 5691 2819 5691 2113 
L 5691 0 
L 5113 0 
L 5113 2094 
Q 5113 2597 4934 2840 
Q 4756 3084 4391 3084 
Q 3944 3084 3684 2787 
Q 3425 2491 3425 1978 
L 3425 0 
L 2847 0 
L 2847 2094 
Q 2847 2600 2669 2842 
Q 2491 3084 2119 3084 
Q 1678 3084 1418 2786 
Q 1159 2488 1159 1978 
L 1159 0 
L 581 0 
L 581 3500 
L 1159 3500 
L 1159 2956 
Q 1356 3278 1631 3431 
Q 1906 3584 2284 3584 
Q 2666 3584 2933 3390 
Q 3200 3197 3328 2828 
z
" transform="scale(0.015625)"/>
      </defs>
      <use xlink:href="#DejaVuSans-6e"/>
      <use xlink:href="#DejaVuSans-6f" transform="translate(63.378906 0)"/>
      <use xlink:href="#DejaVuSans-72" transform="translate(124.560547 0)"/>
      <use xlink:href="#DejaVuSans-6d" transform="translate(163.923828 0)"/>
     </g>
    </g>
    <g id="line2d_47">
     <path d="M 74.7 149.246094 
L 85.7 149.246094 
L 96.7 149.246094 
" style="fill: none; stroke-dasharray: 24,6; stroke-dashoffset: 0; stroke: #000000; stroke-width: 3"/>
    </g>
    <g id="text_21">
     <!-- Mean -->
     <g style="fill: #262626" transform="translate(105.5 153.096094) scale(0.11 -0.11)">
      <defs>
       <path id="DejaVuSans-4d" d="M 628 4666 
L 1569 4666 
L 2759 1491 
L 3956 4666 
L 4897 4666 
L 4897 0 
L 4281 0 
L 4281 4097 
L 3078 897 
L 2444 897 
L 1241 4097 
L 1241 0 
L 628 0 
L 628 4666 
z
" transform="scale(0.015625)"/>
      </defs>
      <use xlink:href="#DejaVuSans-4d"/>
      <use xlink:href="#DejaVuSans-65" transform="translate(86.279297 0)"/>
      <use xlink:href="#DejaVuSans-61" transform="translate(147.802734 0)"/>
      <use xlink:href="#DejaVuSans-6e" transform="translate(209.082031 0)"/>
     </g>
    </g>
   </g>
  </g>
 </g>
 <defs>
  <clipPath id="pc286a2765a">
   <rect x="64.8" y="86.4" width="345.6" height="374.4"/>
  </clipPath>
 </defs>
</svg>
