<?xml version="1.0" encoding="utf-8" standalone="no"?>
<!DOCTYPE svg PUBLIC "-//W3C//DTD SVG 1.1//EN"
  "http://www.w3.org/Graphics/SVG/1.1/DTD/svg11.dtd">
<svg xmlns:xlink="http://www.w3.org/1999/xlink" width="432pt" height="576pt" viewBox="0 0 432 576" xmlns="http://www.w3.org/2000/svg" version="1.1">
 <metadata>
  <rdf:RDF xmlns:dc="http://purl.org/dc/elements/1.1/" xmlns:cc="http://creativecommons.org/ns#" xmlns:rdf="http://www.w3.org/1999/02/22-rdf-syntax-ns#">
   <cc:Work>
    <dc:type rdf:resource="http://purl.org/dc/dcmitype/StillImage"/>
    <dc:date>2025-10-08T19:13:08.489722</dc:date>
    <dc:format>image/svg+xml</dc:format>
    <dc:creator>
     <cc:Agent>
      <dc:title>Matplotlib v3.10.3, https://matplotlib.org/</dc:title>
     </cc:Agent>
    </dc:creator>
   </cc:Work>
  </rdf:RDF>
 </metadata>
 <defs>
  <style type="text/css">*{stroke-linejoin: round; stroke-linecap: butt}</style>
 </defs>
 <g id="figure_1">
  <g id="patch_1">
   <path d="M 0 576 
L 432 576 
L 432 0 
L 0 0 
z
" style="fill: #ffffff"/>
  </g>
  <g id="axes_1">
   <g id="patch_2">
    <path d="M 64.8 460.8 
L 410.4 460.8 
L 410.4 86.4 
L 64.8 86.4 
z
" style="fill: #ffffff"/>
   </g>
   <g id="matplotlib.axis_1">
    <g id="xtick_1">
     <g id="line2d_1">
      <path d="M 102.26721 460.8 
L 102.26721 86.4 
" clip-path="url(#p2e9c2be445)" style="fill: none; stroke: #cccccc; stroke-linecap: round"/>
     </g>
     <g id="text_1">
      <!-- 0.0 -->
      <g style="fill: #262626" transform="translate(93.520491 478.658281) scale(0.11 -0.11)">
       <defs>
        <path id="DejaVuSans-30" d="M 2034 4250 
Q 1547 4250 1301 3770 
Q 1056 3291 1056 2328 
Q 1056 1369 1301 889 
Q 1547 409 2034 409 
Q 2525 409 2770 889 
Q 3016 1369 3016 2328 
Q 3016 3291 2770 3770 
Q 2525 4250 2034 4250 
z
M 2034 4750 
Q 2819 4750 3233 4129 
Q 3647 3509 3647 2328 
Q 3647 1150 3233 529 
Q 2819 -91 2034 -91 
Q 1250 -91 836 529 
Q 422 1150 422 2328 
Q 422 3509 836 4129 
Q 1250 4750 2034 4750 
z
" transform="scale(0.015625)"/>
        <path id="DejaVuSans-2e" d="M 684 794 
L 1344 794 
L 1344 0 
L 684 0 
L 684 794 
z
" transform="scale(0.015625)"/>
       </defs>
       <use xlink:href="#DejaVuSans-30"/>
       <use xlink:href="#DejaVuSans-2e" transform="translate(63.623047 0)"/>
       <use xlink:href="#DejaVuSans-30" transform="translate(95.410156 0)"/>
      </g>
     </g>
    </g>
    <g id="xtick_2">
     <g id="line2d_2">
      <path d="M 140.744013 460.8 
L 140.744013 86.4 
" clip-path="url(#p2e9c2be445)" style="fill: none; stroke: #cccccc; stroke-linecap: round"/>
     </g>
     <g id="text_2">
      <!-- 2.5 -->
      <g style="fill: #262626" transform="translate(131.997294 478.658281) scale(0.11 -0.11)">
       <defs>
        <path id="DejaVuSans-32" d="M 1228 531 
L 3431 531 
L 3431 0 
L 469 0 
L 469 531 
Q 828 903 1448 1529 
Q 2069 2156 2228 2338 
Q 2531 2678 2651 2914 
Q 2772 3150 2772 3378 
Q 2772 3750 2511 3984 
Q 2250 4219 1831 4219 
Q 1534 4219 1204 4116 
Q 875 4013 500 3803 
L 500 4441 
Q 881 4594 1212 4672 
Q 1544 4750 1819 4750 
Q 2544 4750 2975 4387 
Q 3406 4025 3406 3419 
Q 3406 3131 3298 2873 
Q 3191 2616 2906 2266 
Q 2828 2175 2409 1742 
Q 1991 1309 1228 531 
z
" transform="scale(0.015625)"/>
        <path id="DejaVuSans-35" d="M 691 4666 
L 3169 4666 
L 3169 4134 
L 1269 4134 
L 1269 2991 
Q 1406 3038 1543 3061 
Q 1681 3084 1819 3084 
Q 2600 3084 3056 2656 
Q 3513 2228 3513 1497 
Q 3513 744 3044 326 
Q 2575 -91 1722 -91 
Q 1428 -91 1123 -41 
Q 819 9 494 109 
L 494 744 
Q 775 591 1075 516 
Q 1375 441 1709 441 
Q 2250 441 2565 725 
Q 2881 1009 2881 1497 
Q 2881 1984 2565 2268 
Q 2250 2553 1709 2553 
Q 1456 2553 1204 2497 
Q 953 2441 691 2322 
L 691 4666 
z
" transform="scale(0.015625)"/>
       </defs>
       <use xlink:href="#DejaVuSans-32"/>
       <use xlink:href="#DejaVuSans-2e" transform="translate(63.623047 0)"/>
       <use xlink:href="#DejaVuSans-35" transform="translate(95.410156 0)"/>
      </g>
     </g>
    </g>
    <g id="xtick_3">
     <g id="line2d_3">
      <path d="M 179.220815 460.8 
L 179.220815 86.4 
" clip-path="url(#p2e9c2be445)" style="fill: none; stroke: #cccccc; stroke-linecap: round"/>
     </g>
     <g id="text_3">
      <!-- 5.0 -->
      <g style="fill: #262626" transform="translate(170.474096 478.658281) scale(0.11 -0.11)">
       <use xlink:href="#DejaVuSans-35"/>
       <use xlink:href="#DejaVuSans-2e" transform="translate(63.623047 0)"/>
       <use xlink:href="#DejaVuSans-30" transform="translate(95.410156 0)"/>
      </g>
     </g>
    </g>
    <g id="xtick_4">
     <g id="line2d_4">
      <path d="M 217.697618 460.8 
L 217.697618 86.4 
" clip-path="url(#p2e9c2be445)" style="fill: none; stroke: #cccccc; stroke-linecap: round"/>
     </g>
     <g id="text_4">
      <!-- 7.5 -->
      <g style="fill: #262626" transform="translate(208.950899 478.658281) scale(0.11 -0.11)">
       <defs>
        <path id="DejaVuSans-37" d="M 525 4666 
L 3525 4666 
L 3525 4397 
L 1831 0 
L 1172 0 
L 2766 4134 
L 525 4134 
L 525 4666 
z
" transform="scale(0.015625)"/>
       </defs>
       <use xlink:href="#DejaVuSans-37"/>
       <use xlink:href="#DejaVuSans-2e" transform="translate(63.623047 0)"/>
       <use xlink:href="#DejaVuSans-35" transform="translate(95.410156 0)"/>
      </g>
     </g>
    </g>
    <g id="xtick_5">
     <g id="line2d_5">
      <path d="M 256.17442 460.8 
L 256.17442 86.4 
" clip-path="url(#p2e9c2be445)" style="fill: none; stroke: #cccccc; stroke-linecap: round"/>
     </g>
     <g id="text_5">
      <!-- 10.0 -->
      <g style="fill: #262626" transform="translate(243.928326 478.658281) scale(0.11 -0.11)">
       <defs>
        <path id="DejaVuSans-31" d="M 794 531 
L 1825 531 
L 1825 4091 
L 703 3866 
L 703 4441 
L 1819 4666 
L 2450 4666 
L 2450 531 
L 3481 531 
L 3481 0 
L 794 0 
L 794 531 
z
" transform="scale(0.015625)"/>
       </defs>
       <use xlink:href="#DejaVuSans-31"/>
       <use xlink:href="#DejaVuSans-30" transform="translate(63.623047 0)"/>
       <use xlink:href="#DejaVuSans-2e" transform="translate(127.246094 0)"/>
       <use xlink:href="#DejaVuSans-30" transform="translate(159.033203 0)"/>
      </g>
     </g>
    </g>
    <g id="xtick_6">
     <g id="line2d_6">
      <path d="M 294.651223 460.8 
L 294.651223 86.4 
" clip-path="url(#p2e9c2be445)" style="fill: none; stroke: #cccccc; stroke-linecap: round"/>
     </g>
     <g id="text_6">
      <!-- 12.5 -->
      <g style="fill: #262626" transform="translate(282.405129 478.658281) scale(0.11 -0.11)">
       <use xlink:href="#DejaVuSans-31"/>
       <use xlink:href="#DejaVuSans-32" transform="translate(63.623047 0)"/>
       <use xlink:href="#DejaVuSans-2e" transform="translate(127.246094 0)"/>
       <use xlink:href="#DejaVuSans-35" transform="translate(159.033203 0)"/>
      </g>
     </g>
    </g>
    <g id="xtick_7">
     <g id="line2d_7">
      <path d="M 333.128025 460.8 
L 333.128025 86.4 
" clip-path="url(#p2e9c2be445)" style="fill: none; stroke: #cccccc; stroke-linecap: round"/>
     </g>
     <g id="text_7">
      <!-- 15.0 -->
      <g style="fill: #262626" transform="translate(320.881931 478.658281) scale(0.11 -0.11)">
       <use xlink:href="#DejaVuSans-31"/>
       <use xlink:href="#DejaVuSans-35" transform="translate(63.623047 0)"/>
       <use xlink:href="#DejaVuSans-2e" transform="translate(127.246094 0)"/>
       <use xlink:href="#DejaVuSans-30" transform="translate(159.033203 0)"/>
      </g>
     </g>
    </g>
    <g id="xtick_8">
     <g id="line2d_8">
      <path d="M 371.604828 460.8 
L 371.604828 86.4 
" clip-path="url(#p2e9c2be445)" style="fill: none; stroke: #cccccc; stroke-linecap: round"/>
     </g>
     <g id="text_8">
      <!-- 17.5 -->
      <g style="fill: #262626" transform="translate(359.358734 478.658281) scale(0.11 -0.11)">
       <use xlink:href="#DejaVuSans-31"/>
       <use xlink:href="#DejaVuSans-37" transform="translate(63.623047 0)"/>
       <use xlink:href="#DejaVuSans-2e" transform="translate(127.246094 0)"/>
       <use xlink:href="#DejaVuSans-35" transform="translate(159.033203 0)"/>
      </g>
     </g>
    </g>
    <g id="xtick_9">
     <g id="line2d_9">
      <path d="M 410.08163 460.8 
L 410.08163 86.4 
" clip-path="url(#p2e9c2be445)" style="fill: none; stroke: #cccccc; stroke-linecap: round"/>
     </g>
     <g id="text_9">
      <!-- 20.0 -->
      <g style="fill: #262626" transform="translate(397.835536 478.658281) scale(0.11 -0.11)">
       <use xlink:href="#DejaVuSans-32"/>
       <use xlink:href="#DejaVuSans-30" transform="translate(63.623047 0)"/>
       <use xlink:href="#DejaVuSans-2e" transform="translate(127.246094 0)"/>
       <use xlink:href="#DejaVuSans-30" transform="translate(159.033203 0)"/>
      </g>
     </g>
    </g>
   </g>
   <g id="matplotlib.axis_2">
    <g id="ytick_1">
     <g id="line2d_10">
      <path d="M 64.8 399.138804 
L 410.4 399.138804 
" clip-path="url(#p2e9c2be445)" style="fill: none; stroke: #cccccc; stroke-linecap: round"/>
     </g>
     <g id="text_10">
      <!-- −60 -->
      <g style="fill: #262626" transform="translate(32.084844 403.317945) scale(0.11 -0.11)">
       <defs>
        <path id="DejaVuSans-2212" d="M 678 2272 
L 4684 2272 
L 4684 1741 
L 678 1741 
L 678 2272 
z
" transform="scale(0.015625)"/>
        <path id="DejaVuSans-36" d="M 2113 2584 
Q 1688 2584 1439 2293 
Q 1191 2003 1191 1497 
Q 1191 994 1439 701 
Q 1688 409 2113 409 
Q 2538 409 2786 701 
Q 3034 994 3034 1497 
Q 3034 2003 2786 2293 
Q 2538 2584 2113 2584 
z
M 3366 4563 
L 3366 3988 
Q 3128 4100 2886 4159 
Q 2644 4219 2406 4219 
Q 1781 4219 1451 3797 
Q 1122 3375 1075 2522 
Q 1259 2794 1537 2939 
Q 1816 3084 2150 3084 
Q 2853 3084 3261 2657 
Q 3669 2231 3669 1497 
Q 3669 778 3244 343 
Q 2819 -91 2113 -91 
Q 1303 -91 875 529 
Q 447 1150 447 2328 
Q 447 3434 972 4092 
Q 1497 4750 2381 4750 
Q 2619 4750 2861 4703 
Q 3103 4656 3366 4563 
z
" transform="scale(0.015625)"/>
       </defs>
       <use xlink:href="#DejaVuSans-2212"/>
       <use xlink:href="#DejaVuSans-36" transform="translate(83.789062 0)"/>
       <use xlink:href="#DejaVuSans-30" transform="translate(147.412109 0)"/>
      </g>
     </g>
    </g>
    <g id="ytick_2">
     <g id="line2d_11">
      <path d="M 64.8 336.239471 
L 410.4 336.239471 
" clip-path="url(#p2e9c2be445)" style="fill: none; stroke: #cccccc; stroke-linecap: round"/>
     </g>
     <g id="text_11">
      <!-- −40 -->
      <g style="fill: #262626" transform="translate(32.084844 340.418611) scale(0.11 -0.11)">
       <defs>
        <path id="DejaVuSans-34" d="M 2419 4116 
L 825 1625 
L 2419 1625 
L 2419 4116 
z
M 2253 4666 
L 3047 4666 
L 3047 1625 
L 3713 1625 
L 3713 1100 
L 3047 1100 
L 3047 0 
L 2419 0 
L 2419 1100 
L 313 1100 
L 313 1709 
L 2253 4666 
z
" transform="scale(0.015625)"/>
       </defs>
       <use xlink:href="#DejaVuSans-2212"/>
       <use xlink:href="#DejaVuSans-34" transform="translate(83.789062 0)"/>
       <use xlink:href="#DejaVuSans-30" transform="translate(147.412109 0)"/>
      </g>
     </g>
    </g>
    <g id="ytick_3">
     <g id="line2d_12">
      <path d="M 64.8 273.340137 
L 410.4 273.340137 
" clip-path="url(#p2e9c2be445)" style="fill: none; stroke: #cccccc; stroke-linecap: round"/>
     </g>
     <g id="text_12">
      <!-- −20 -->
      <g style="fill: #262626" transform="translate(32.084844 277.519277) scale(0.11 -0.11)">
       <use xlink:href="#DejaVuSans-2212"/>
       <use xlink:href="#DejaVuSans-32" transform="translate(83.789062 0)"/>
       <use xlink:href="#DejaVuSans-30" transform="translate(147.412109 0)"/>
      </g>
     </g>
    </g>
    <g id="ytick_4">
     <g id="line2d_13">
      <path d="M 64.8 210.440803 
L 410.4 210.440803 
" clip-path="url(#p2e9c2be445)" style="fill: none; stroke: #cccccc; stroke-linecap: round"/>
     </g>
     <g id="text_13">
      <!-- 0 -->
      <g style="fill: #262626" transform="translate(48.30125 214.619944) scale(0.11 -0.11)">
       <use xlink:href="#DejaVuSans-30"/>
      </g>
     </g>
    </g>
    <g id="ytick_5">
     <g id="line2d_14">
      <path d="M 64.8 147.541469 
L 410.4 147.541469 
" clip-path="url(#p2e9c2be445)" style="fill: none; stroke: #cccccc; stroke-linecap: round"/>
     </g>
     <g id="text_14">
      <!-- 20 -->
      <g style="fill: #262626" transform="translate(41.3025 151.72061) scale(0.11 -0.11)">
       <use xlink:href="#DejaVuSans-32"/>
       <use xlink:href="#DejaVuSans-30" transform="translate(63.623047 0)"/>
      </g>
     </g>
    </g>
   </g>
   <g id="line2d_15">
    <path d="M 102.26721 148.837131 
L 117.657931 146.711023 
L 133.048652 149.716814 
L 148.439373 148.509666 
L 163.830094 235.433097 
L 179.220815 245.728117 
L 194.611536 247.244198 
L 210.002257 245.342336 
L 225.392978 247.161355 
L 240.783699 246.995408 
L 256.17442 245.723436 
L 271.565141 244.734672 
L 286.955862 246.642792 
L 302.346583 244.826745 
L 317.737304 245.221703 
L 333.128025 243.757773 
L 348.518746 244.213824 
L 363.909467 243.489639 
L 379.300188 246.024038 
L 394.690909 243.914051 
" clip-path="url(#p2e9c2be445)" style="fill: none; stroke: #66c2a5; stroke-width: 1.5; stroke-linecap: round"/>
   </g>
   <g id="line2d_16">
    <path d="M 102.26721 148.837131 
L 117.657931 146.711023 
L 133.048652 149.716814 
L 148.439373 148.509666 
L 163.830094 235.433097 
L 179.220815 245.728117 
L 194.611536 247.244198 
L 210.002257 245.342336 
L 225.392978 247.161355 
L 240.783699 246.995408 
L 256.17442 245.723436 
L 271.565141 244.734672 
L 286.955862 246.642792 
L 302.346583 244.826745 
L 317.737304 245.221703 
L 333.128025 243.757773 
L 348.518746 244.213824 
L 363.909467 243.489639 
L 379.300188 246.024038 
L 394.690909 243.914051 
" clip-path="url(#p2e9c2be445)" style="fill: none; stroke: #66c2a5; stroke-width: 1.5; stroke-linecap: round"/>
    <defs>
     <path id="ma4c355399c" d="M 0 3 
C 0.795609 3 1.55874 2.683901 2.12132 2.12132 
C 2.683901 1.55874 3 0.795609 3 0 
C 3 -0.795609 2.683901 -1.55874 2.12132 -2.12132 
C 1.55874 -2.683901 0.795609 -3 0 -3 
C -0.795609 -3 -1.55874 -2.683901 -2.12132 -2.12132 
C -2.683901 -1.55874 -3 -0.795609 -3 0 
C -3 0.795609 -2.683901 1.55874 -2.12132 2.12132 
C -1.55874 2.683901 -0.795609 3 0 3 
z
" style="stroke: #66c2a5"/>
    </defs>
    <g clip-path="url(#p2e9c2be445)">
     <use xlink:href="#ma4c355399c" x="102.26721" y="148.837131" style="fill: #66c2a5; stroke: #66c2a5"/>
     <use xlink:href="#ma4c355399c" x="117.657931" y="146.711023" style="fill: #66c2a5; stroke: #66c2a5"/>
     <use xlink:href="#ma4c355399c" x="133.048652" y="149.716814" style="fill: #66c2a5; stroke: #66c2a5"/>
     <use xlink:href="#ma4c355399c" x="148.439373" y="148.509666" style="fill: #66c2a5; stroke: #66c2a5"/>
     <use xlink:href="#ma4c355399c" x="163.830094" y="235.433097" style="fill: #66c2a5; stroke: #66c2a5"/>
     <use xlink:href="#ma4c355399c" x="179.220815" y="245.728117" style="fill: #66c2a5; stroke: #66c2a5"/>
     <use xlink:href="#ma4c355399c" x="194.611536" y="247.244198" style="fill: #66c2a5; stroke: #66c2a5"/>
     <use xlink:href="#ma4c355399c" x="210.002257" y="245.342336" style="fill: #66c2a5; stroke: #66c2a5"/>
     <use xlink:href="#ma4c355399c" x="225.392978" y="247.161355" style="fill: #66c2a5; stroke: #66c2a5"/>
     <use xlink:href="#ma4c355399c" x="240.783699" y="246.995408" style="fill: #66c2a5; stroke: #66c2a5"/>
     <use xlink:href="#ma4c355399c" x="256.17442" y="245.723436" style="fill: #66c2a5; stroke: #66c2a5"/>
     <use xlink:href="#ma4c355399c" x="271.565141" y="244.734672" style="fill: #66c2a5; stroke: #66c2a5"/>
     <use xlink:href="#ma4c355399c" x="286.955862" y="246.642792" style="fill: #66c2a5; stroke: #66c2a5"/>
     <use xlink:href="#ma4c355399c" x="302.346583" y="244.826745" style="fill: #66c2a5; stroke: #66c2a5"/>
     <use xlink:href="#ma4c355399c" x="317.737304" y="245.221703" style="fill: #66c2a5; stroke: #66c2a5"/>
     <use xlink:href="#ma4c355399c" x="333.128025" y="243.757773" style="fill: #66c2a5; stroke: #66c2a5"/>
     <use xlink:href="#ma4c355399c" x="348.518746" y="244.213824" style="fill: #66c2a5; stroke: #66c2a5"/>
     <use xlink:href="#ma4c355399c" x="363.909467" y="243.489639" style="fill: #66c2a5; stroke: #66c2a5"/>
     <use xlink:href="#ma4c355399c" x="379.300188" y="246.024038" style="fill: #66c2a5; stroke: #66c2a5"/>
     <use xlink:href="#ma4c355399c" x="394.690909" y="243.914051" style="fill: #66c2a5; stroke: #66c2a5"/>
    </g>
   </g>
   <g id="line2d_17">
    <path d="M 102.26721 143.474306 
L 117.657931 149.741055 
L 133.048652 145.204461 
L 148.439373 149.898201 
L 163.830094 295.529288 
L 179.220815 322.935158 
L 194.611536 328.526928 
L 210.002257 331.457715 
L 225.392978 335.511384 
L 240.783699 332.192026 
L 256.17442 333.413272 
L 271.565141 333.619703 
L 286.955862 336.708139 
L 302.346583 329.869129 
L 317.737304 334.864921 
L 333.128025 334.383194 
L 348.518746 332.091819 
L 363.909467 331.369011 
L 379.300188 332.467917 
L 394.690909 332.948688 
" clip-path="url(#p2e9c2be445)" style="fill: none; stroke: #66c2a5; stroke-width: 1.5; stroke-linecap: round"/>
   </g>
   <g id="line2d_18">
    <path d="M 102.26721 143.474306 
L 117.657931 149.741055 
L 133.048652 145.204461 
L 148.439373 149.898201 
L 163.830094 295.529288 
L 179.220815 322.935158 
L 194.611536 328.526928 
L 210.002257 331.457715 
L 225.392978 335.511384 
L 240.783699 332.192026 
L 256.17442 333.413272 
L 271.565141 333.619703 
L 286.955862 336.708139 
L 302.346583 329.869129 
L 317.737304 334.864921 
L 333.128025 334.383194 
L 348.518746 332.091819 
L 363.909467 331.369011 
L 379.300188 332.467917 
L 394.690909 332.948688 
" clip-path="url(#p2e9c2be445)" style="fill: none; stroke: #66c2a5; stroke-width: 1.5; stroke-linecap: round"/>
    <g clip-path="url(#p2e9c2be445)">
     <use xlink:href="#ma4c355399c" x="102.26721" y="143.474306" style="fill: #66c2a5; stroke: #66c2a5"/>
     <use xlink:href="#ma4c355399c" x="117.657931" y="149.741055" style="fill: #66c2a5; stroke: #66c2a5"/>
     <use xlink:href="#ma4c355399c" x="133.048652" y="145.204461" style="fill: #66c2a5; stroke: #66c2a5"/>
     <use xlink:href="#ma4c355399c" x="148.439373" y="149.898201" style="fill: #66c2a5; stroke: #66c2a5"/>
     <use xlink:href="#ma4c355399c" x="163.830094" y="295.529288" style="fill: #66c2a5; stroke: #66c2a5"/>
     <use xlink:href="#ma4c355399c" x="179.220815" y="322.935158" style="fill: #66c2a5; stroke: #66c2a5"/>
     <use xlink:href="#ma4c355399c" x="194.611536" y="328.526928" style="fill: #66c2a5; stroke: #66c2a5"/>
     <use xlink:href="#ma4c355399c" x="210.002257" y="331.457715" style="fill: #66c2a5; stroke: #66c2a5"/>
     <use xlink:href="#ma4c355399c" x="225.392978" y="335.511384" style="fill: #66c2a5; stroke: #66c2a5"/>
     <use xlink:href="#ma4c355399c" x="240.783699" y="332.192026" style="fill: #66c2a5; stroke: #66c2a5"/>
     <use xlink:href="#ma4c355399c" x="256.17442" y="333.413272" style="fill: #66c2a5; stroke: #66c2a5"/>
     <use xlink:href="#ma4c355399c" x="271.565141" y="333.619703" style="fill: #66c2a5; stroke: #66c2a5"/>
     <use xlink:href="#ma4c355399c" x="286.955862" y="336.708139" style="fill: #66c2a5; stroke: #66c2a5"/>
     <use xlink:href="#ma4c355399c" x="302.346583" y="329.869129" style="fill: #66c2a5; stroke: #66c2a5"/>
     <use xlink:href="#ma4c355399c" x="317.737304" y="334.864921" style="fill: #66c2a5; stroke: #66c2a5"/>
     <use xlink:href="#ma4c355399c" x="333.128025" y="334.383194" style="fill: #66c2a5; stroke: #66c2a5"/>
     <use xlink:href="#ma4c355399c" x="348.518746" y="332.091819" style="fill: #66c2a5; stroke: #66c2a5"/>
     <use xlink:href="#ma4c355399c" x="363.909467" y="331.369011" style="fill: #66c2a5; stroke: #66c2a5"/>
     <use xlink:href="#ma4c355399c" x="379.300188" y="332.467917" style="fill: #66c2a5; stroke: #66c2a5"/>
     <use xlink:href="#ma4c355399c" x="394.690909" y="332.948688" style="fill: #66c2a5; stroke: #66c2a5"/>
    </g>
   </g>
   <g id="line2d_19">
    <path d="M 102.26721 189.643282 
L 117.657931 185.036593 
L 133.048652 187.814667 
L 148.439373 195.821462 
L 163.830094 192.106045 
L 179.220815 192.541897 
L 194.611536 386.264746 
L 210.002257 429.840175 
L 225.392978 435.846739 
L 240.783699 438.515419 
L 256.17442 434.928828 
L 271.565141 442.532817 
L 286.955862 442.446154 
L 302.346583 442.55241 
L 317.737304 434.936189 
L 333.128025 441.892032 
L 348.518746 434.388996 
L 363.909467 435.065999 
L 379.300188 437.157739 
L 394.690909 443.781818 
" clip-path="url(#p2e9c2be445)" style="fill: none; stroke: #66c2a5; stroke-width: 1.5; stroke-linecap: round"/>
   </g>
   <g id="line2d_20">
    <path d="M 102.26721 189.643282 
L 117.657931 185.036593 
L 133.048652 187.814667 
L 148.439373 195.821462 
L 163.830094 192.106045 
L 179.220815 192.541897 
L 194.611536 386.264746 
L 210.002257 429.840175 
L 225.392978 435.846739 
L 240.783699 438.515419 
L 256.17442 434.928828 
L 271.565141 442.532817 
L 286.955862 442.446154 
L 302.346583 442.55241 
L 317.737304 434.936189 
L 333.128025 441.892032 
L 348.518746 434.388996 
L 363.909467 435.065999 
L 379.300188 437.157739 
L 394.690909 443.781818 
" clip-path="url(#p2e9c2be445)" style="fill: none; stroke: #66c2a5; stroke-width: 1.5; stroke-linecap: round"/>
    <g clip-path="url(#p2e9c2be445)">
     <use xlink:href="#ma4c355399c" x="102.26721" y="189.643282" style="fill: #66c2a5; stroke: #66c2a5"/>
     <use xlink:href="#ma4c355399c" x="117.657931" y="185.036593" style="fill: #66c2a5; stroke: #66c2a5"/>
     <use xlink:href="#ma4c355399c" x="133.048652" y="187.814667" style="fill: #66c2a5; stroke: #66c2a5"/>
     <use xlink:href="#ma4c355399c" x="148.439373" y="195.821462" style="fill: #66c2a5; stroke: #66c2a5"/>
     <use xlink:href="#ma4c355399c" x="163.830094" y="192.106045" style="fill: #66c2a5; stroke: #66c2a5"/>
     <use xlink:href="#ma4c355399c" x="179.220815" y="192.541897" style="fill: #66c2a5; stroke: #66c2a5"/>
     <use xlink:href="#ma4c355399c" x="194.611536" y="386.264746" style="fill: #66c2a5; stroke: #66c2a5"/>
     <use xlink:href="#ma4c355399c" x="210.002257" y="429.840175" style="fill: #66c2a5; stroke: #66c2a5"/>
     <use xlink:href="#ma4c355399c" x="225.392978" y="435.846739" style="fill: #66c2a5; stroke: #66c2a5"/>
     <use xlink:href="#ma4c355399c" x="240.783699" y="438.515419" style="fill: #66c2a5; stroke: #66c2a5"/>
     <use xlink:href="#ma4c355399c" x="256.17442" y="434.928828" style="fill: #66c2a5; stroke: #66c2a5"/>
     <use xlink:href="#ma4c355399c" x="271.565141" y="442.532817" style="fill: #66c2a5; stroke: #66c2a5"/>
     <use xlink:href="#ma4c355399c" x="286.955862" y="442.446154" style="fill: #66c2a5; stroke: #66c2a5"/>
     <use xlink:href="#ma4c355399c" x="302.346583" y="442.55241" style="fill: #66c2a5; stroke: #66c2a5"/>
     <use xlink:href="#ma4c355399c" x="317.737304" y="434.936189" style="fill: #66c2a5; stroke: #66c2a5"/>
     <use xlink:href="#ma4c355399c" x="333.128025" y="441.892032" style="fill: #66c2a5; stroke: #66c2a5"/>
     <use xlink:href="#ma4c355399c" x="348.518746" y="434.388996" style="fill: #66c2a5; stroke: #66c2a5"/>
     <use xlink:href="#ma4c355399c" x="363.909467" y="435.065999" style="fill: #66c2a5; stroke: #66c2a5"/>
     <use xlink:href="#ma4c355399c" x="379.300188" y="437.157739" style="fill: #66c2a5; stroke: #66c2a5"/>
     <use xlink:href="#ma4c355399c" x="394.690909" y="443.781818" style="fill: #66c2a5; stroke: #66c2a5"/>
    </g>
   </g>
   <g id="line2d_21">
    <path d="M 102.26721 210.18622 
L 117.657931 210.794401 
L 133.048652 210.626975 
L 148.439373 211.04045 
L 163.830094 208.343923 
L 179.220815 220.936712 
L 194.611536 227.903568 
L 210.002257 233.827019 
L 225.392978 234.596105 
L 240.783699 238.184631 
L 256.17442 240.271239 
L 271.565141 241.31534 
L 286.955862 240.712961 
L 302.346583 239.823601 
L 317.737304 240.135984 
L 333.128025 242.754011 
L 348.518746 240.533949 
L 363.909467 242.664908 
L 379.300188 240.598993 
L 394.690909 242.605058 
" clip-path="url(#p2e9c2be445)" style="fill: none; stroke: #66c2a5; stroke-width: 1.5; stroke-linecap: round"/>
   </g>
   <g id="line2d_22">
    <path d="M 102.26721 210.18622 
L 117.657931 210.794401 
L 133.048652 210.626975 
L 148.439373 211.04045 
L 163.830094 208.343923 
L 179.220815 220.936712 
L 194.611536 227.903568 
L 210.002257 233.827019 
L 225.392978 234.596105 
L 240.783699 238.184631 
L 256.17442 240.271239 
L 271.565141 241.31534 
L 286.955862 240.712961 
L 302.346583 239.823601 
L 317.737304 240.135984 
L 333.128025 242.754011 
L 348.518746 240.533949 
L 363.909467 242.664908 
L 379.300188 240.598993 
L 394.690909 242.605058 
" clip-path="url(#p2e9c2be445)" style="fill: none; stroke: #66c2a5; stroke-width: 1.5; stroke-linecap: round"/>
    <g clip-path="url(#p2e9c2be445)">
     <use xlink:href="#ma4c355399c" x="102.26721" y="210.18622" style="fill: #66c2a5; stroke: #66c2a5"/>
     <use xlink:href="#ma4c355399c" x="117.657931" y="210.794401" style="fill: #66c2a5; stroke: #66c2a5"/>
     <use xlink:href="#ma4c355399c" x="133.048652" y="210.626975" style="fill: #66c2a5; stroke: #66c2a5"/>
     <use xlink:href="#ma4c355399c" x="148.439373" y="211.04045" style="fill: #66c2a5; stroke: #66c2a5"/>
     <use xlink:href="#ma4c355399c" x="163.830094" y="208.343923" style="fill: #66c2a5; stroke: #66c2a5"/>
     <use xlink:href="#ma4c355399c" x="179.220815" y="220.936712" style="fill: #66c2a5; stroke: #66c2a5"/>
     <use xlink:href="#ma4c355399c" x="194.611536" y="227.903568" style="fill: #66c2a5; stroke: #66c2a5"/>
     <use xlink:href="#ma4c355399c" x="210.002257" y="233.827019" style="fill: #66c2a5; stroke: #66c2a5"/>
     <use xlink:href="#ma4c355399c" x="225.392978" y="234.596105" style="fill: #66c2a5; stroke: #66c2a5"/>
     <use xlink:href="#ma4c355399c" x="240.783699" y="238.184631" style="fill: #66c2a5; stroke: #66c2a5"/>
     <use xlink:href="#ma4c355399c" x="256.17442" y="240.271239" style="fill: #66c2a5; stroke: #66c2a5"/>
     <use xlink:href="#ma4c355399c" x="271.565141" y="241.31534" style="fill: #66c2a5; stroke: #66c2a5"/>
     <use xlink:href="#ma4c355399c" x="286.955862" y="240.712961" style="fill: #66c2a5; stroke: #66c2a5"/>
     <use xlink:href="#ma4c355399c" x="302.346583" y="239.823601" style="fill: #66c2a5; stroke: #66c2a5"/>
     <use xlink:href="#ma4c355399c" x="317.737304" y="240.135984" style="fill: #66c2a5; stroke: #66c2a5"/>
     <use xlink:href="#ma4c355399c" x="333.128025" y="242.754011" style="fill: #66c2a5; stroke: #66c2a5"/>
     <use xlink:href="#ma4c355399c" x="348.518746" y="240.533949" style="fill: #66c2a5; stroke: #66c2a5"/>
     <use xlink:href="#ma4c355399c" x="363.909467" y="242.664908" style="fill: #66c2a5; stroke: #66c2a5"/>
     <use xlink:href="#ma4c355399c" x="379.300188" y="240.598993" style="fill: #66c2a5; stroke: #66c2a5"/>
     <use xlink:href="#ma4c355399c" x="394.690909" y="242.605058" style="fill: #66c2a5; stroke: #66c2a5"/>
    </g>
   </g>
   <g id="line2d_23">
    <path d="M 102.26721 201.800545 
L 117.657931 202.442372 
L 133.048652 200.967367 
L 148.439373 223.749914 
L 163.830094 227.821556 
L 179.220815 227.314797 
L 194.611536 226.786356 
L 210.002257 228.267602 
L 225.392978 228.932417 
L 240.783699 227.800188 
L 256.17442 226.911328 
L 271.565141 229.874241 
L 286.955862 229.342392 
L 302.346583 229.55745 
L 317.737304 228.154046 
L 333.128025 227.319323 
L 348.518746 228.908929 
L 363.909467 227.379628 
L 379.300188 229.918686 
L 394.690909 229.687069 
" clip-path="url(#p2e9c2be445)" style="fill: none; stroke: #66c2a5; stroke-width: 1.5; stroke-linecap: round"/>
   </g>
   <g id="line2d_24">
    <path d="M 102.26721 201.800545 
L 117.657931 202.442372 
L 133.048652 200.967367 
L 148.439373 223.749914 
L 163.830094 227.821556 
L 179.220815 227.314797 
L 194.611536 226.786356 
L 210.002257 228.267602 
L 225.392978 228.932417 
L 240.783699 227.800188 
L 256.17442 226.911328 
L 271.565141 229.874241 
L 286.955862 229.342392 
L 302.346583 229.55745 
L 317.737304 228.154046 
L 333.128025 227.319323 
L 348.518746 228.908929 
L 363.909467 227.379628 
L 379.300188 229.918686 
L 394.690909 229.687069 
" clip-path="url(#p2e9c2be445)" style="fill: none; stroke: #66c2a5; stroke-width: 1.5; stroke-linecap: round"/>
    <g clip-path="url(#p2e9c2be445)">
     <use xlink:href="#ma4c355399c" x="102.26721" y="201.800545" style="fill: #66c2a5; stroke: #66c2a5"/>
     <use xlink:href="#ma4c355399c" x="117.657931" y="202.442372" style="fill: #66c2a5; stroke: #66c2a5"/>
     <use xlink:href="#ma4c355399c" x="133.048652" y="200.967367" style="fill: #66c2a5; stroke: #66c2a5"/>
     <use xlink:href="#ma4c355399c" x="148.439373" y="223.749914" style="fill: #66c2a5; stroke: #66c2a5"/>
     <use xlink:href="#ma4c355399c" x="163.830094" y="227.821556" style="fill: #66c2a5; stroke: #66c2a5"/>
     <use xlink:href="#ma4c355399c" x="179.220815" y="227.314797" style="fill: #66c2a5; stroke: #66c2a5"/>
     <use xlink:href="#ma4c355399c" x="194.611536" y="226.786356" style="fill: #66c2a5; stroke: #66c2a5"/>
     <use xlink:href="#ma4c355399c" x="210.002257" y="228.267602" style="fill: #66c2a5; stroke: #66c2a5"/>
     <use xlink:href="#ma4c355399c" x="225.392978" y="228.932417" style="fill: #66c2a5; stroke: #66c2a5"/>
     <use xlink:href="#ma4c355399c" x="240.783699" y="227.800188" style="fill: #66c2a5; stroke: #66c2a5"/>
     <use xlink:href="#ma4c355399c" x="256.17442" y="226.911328" style="fill: #66c2a5; stroke: #66c2a5"/>
     <use xlink:href="#ma4c355399c" x="271.565141" y="229.874241" style="fill: #66c2a5; stroke: #66c2a5"/>
     <use xlink:href="#ma4c355399c" x="286.955862" y="229.342392" style="fill: #66c2a5; stroke: #66c2a5"/>
     <use xlink:href="#ma4c355399c" x="302.346583" y="229.55745" style="fill: #66c2a5; stroke: #66c2a5"/>
     <use xlink:href="#ma4c355399c" x="317.737304" y="228.154046" style="fill: #66c2a5; stroke: #66c2a5"/>
     <use xlink:href="#ma4c355399c" x="333.128025" y="227.319323" style="fill: #66c2a5; stroke: #66c2a5"/>
     <use xlink:href="#ma4c355399c" x="348.518746" y="228.908929" style="fill: #66c2a5; stroke: #66c2a5"/>
     <use xlink:href="#ma4c355399c" x="363.909467" y="227.379628" style="fill: #66c2a5; stroke: #66c2a5"/>
     <use xlink:href="#ma4c355399c" x="379.300188" y="229.918686" style="fill: #66c2a5; stroke: #66c2a5"/>
     <use xlink:href="#ma4c355399c" x="394.690909" y="229.687069" style="fill: #66c2a5; stroke: #66c2a5"/>
    </g>
   </g>
   <g id="line2d_25">
    <path d="M 102.26721 107.518091 
L 117.657931 103.981406 
L 133.048652 103.418182 
L 148.439373 108.429492 
L 163.830094 104.815187 
L 179.220815 248.660589 
L 194.611536 276.304102 
L 210.002257 279.026235 
L 225.392978 280.507389 
L 240.783699 273.400967 
L 256.17442 273.911248 
L 271.565141 274.033029 
L 286.955862 277.695709 
L 302.346583 274.356285 
L 317.737304 275.687164 
L 333.128025 276.916808 
L 348.518746 275.417898 
L 363.909467 273.847638 
L 379.300188 279.533344 
L 394.690909 278.597086 
" clip-path="url(#p2e9c2be445)" style="fill: none; stroke: #66c2a5; stroke-width: 1.5; stroke-linecap: round"/>
   </g>
   <g id="line2d_26">
    <path d="M 102.26721 107.518091 
L 117.657931 103.981406 
L 133.048652 103.418182 
L 148.439373 108.429492 
L 163.830094 104.815187 
L 179.220815 248.660589 
L 194.611536 276.304102 
L 210.002257 279.026235 
L 225.392978 280.507389 
L 240.783699 273.400967 
L 256.17442 273.911248 
L 271.565141 274.033029 
L 286.955862 277.695709 
L 302.346583 274.356285 
L 317.737304 275.687164 
L 333.128025 276.916808 
L 348.518746 275.417898 
L 363.909467 273.847638 
L 379.300188 279.533344 
L 394.690909 278.597086 
" clip-path="url(#p2e9c2be445)" style="fill: none; stroke: #66c2a5; stroke-width: 1.5; stroke-linecap: round"/>
    <g clip-path="url(#p2e9c2be445)">
     <use xlink:href="#ma4c355399c" x="102.26721" y="107.518091" style="fill: #66c2a5; stroke: #66c2a5"/>
     <use xlink:href="#ma4c355399c" x="117.657931" y="103.981406" style="fill: #66c2a5; stroke: #66c2a5"/>
     <use xlink:href="#ma4c355399c" x="133.048652" y="103.418182" style="fill: #66c2a5; stroke: #66c2a5"/>
     <use xlink:href="#ma4c355399c" x="148.439373" y="108.429492" style="fill: #66c2a5; stroke: #66c2a5"/>
     <use xlink:href="#ma4c355399c" x="163.830094" y="104.815187" style="fill: #66c2a5; stroke: #66c2a5"/>
     <use xlink:href="#ma4c355399c" x="179.220815" y="248.660589" style="fill: #66c2a5; stroke: #66c2a5"/>
     <use xlink:href="#ma4c355399c" x="194.611536" y="276.304102" style="fill: #66c2a5; stroke: #66c2a5"/>
     <use xlink:href="#ma4c355399c" x="210.002257" y="279.026235" style="fill: #66c2a5; stroke: #66c2a5"/>
     <use xlink:href="#ma4c355399c" x="225.392978" y="280.507389" style="fill: #66c2a5; stroke: #66c2a5"/>
     <use xlink:href="#ma4c355399c" x="240.783699" y="273.400967" style="fill: #66c2a5; stroke: #66c2a5"/>
     <use xlink:href="#ma4c355399c" x="256.17442" y="273.911248" style="fill: #66c2a5; stroke: #66c2a5"/>
     <use xlink:href="#ma4c355399c" x="271.565141" y="274.033029" style="fill: #66c2a5; stroke: #66c2a5"/>
     <use xlink:href="#ma4c355399c" x="286.955862" y="277.695709" style="fill: #66c2a5; stroke: #66c2a5"/>
     <use xlink:href="#ma4c355399c" x="302.346583" y="274.356285" style="fill: #66c2a5; stroke: #66c2a5"/>
     <use xlink:href="#ma4c355399c" x="317.737304" y="275.687164" style="fill: #66c2a5; stroke: #66c2a5"/>
     <use xlink:href="#ma4c355399c" x="333.128025" y="276.916808" style="fill: #66c2a5; stroke: #66c2a5"/>
     <use xlink:href="#ma4c355399c" x="348.518746" y="275.417898" style="fill: #66c2a5; stroke: #66c2a5"/>
     <use xlink:href="#ma4c355399c" x="363.909467" y="273.847638" style="fill: #66c2a5; stroke: #66c2a5"/>
     <use xlink:href="#ma4c355399c" x="379.300188" y="279.533344" style="fill: #66c2a5; stroke: #66c2a5"/>
     <use xlink:href="#ma4c355399c" x="394.690909" y="278.597086" style="fill: #66c2a5; stroke: #66c2a5"/>
    </g>
   </g>
   <g id="line2d_27">
    <path d="M 102.26721 195.532468 
L 117.657931 194.701729 
L 133.048652 196.049168 
L 148.439373 194.860546 
L 163.830094 202.486144 
L 179.220815 207.201827 
L 194.611536 216.372878 
L 210.002257 219.717263 
L 225.392978 226.425103 
L 240.783699 233.485136 
L 256.17442 241.112601 
L 271.565141 246.425688 
L 286.955862 251.770058 
L 302.346583 259.849173 
L 317.737304 263.939933 
L 333.128025 271.839969 
L 348.518746 277.466935 
L 363.909467 283.084067 
L 379.300188 292.041096 
L 394.690909 297.685193 
" clip-path="url(#p2e9c2be445)" style="fill: none; stroke: #e78ac3; stroke-width: 1.5; stroke-linecap: round"/>
   </g>
   <g id="line2d_28">
    <path d="M 102.26721 195.532468 
L 117.657931 194.701729 
L 133.048652 196.049168 
L 148.439373 194.860546 
L 163.830094 202.486144 
L 179.220815 207.201827 
L 194.611536 216.372878 
L 210.002257 219.717263 
L 225.392978 226.425103 
L 240.783699 233.485136 
L 256.17442 241.112601 
L 271.565141 246.425688 
L 286.955862 251.770058 
L 302.346583 259.849173 
L 317.737304 263.939933 
L 333.128025 271.839969 
L 348.518746 277.466935 
L 363.909467 283.084067 
L 379.300188 292.041096 
L 394.690909 297.685193 
" clip-path="url(#p2e9c2be445)" style="fill: none; stroke: #e78ac3; stroke-width: 1.5; stroke-linecap: round"/>
    <defs>
     <path id="ma9b47c5a4f" d="M 0 3 
C 0.795609 3 1.55874 2.683901 2.12132 2.12132 
C 2.683901 1.55874 3 0.795609 3 0 
C 3 -0.795609 2.683901 -1.55874 2.12132 -2.12132 
C 1.55874 -2.683901 0.795609 -3 0 -3 
C -0.795609 -3 -1.55874 -2.683901 -2.12132 -2.12132 
C -2.683901 -1.55874 -3 -0.795609 -3 0 
C -3 0.795609 -2.683901 1.55874 -2.12132 2.12132 
C -1.55874 2.683901 -0.795609 3 0 3 
z
" style="stroke: #e78ac3"/>
    </defs>
    <g clip-path="url(#p2e9c2be445)">
     <use xlink:href="#ma9b47c5a4f" x="102.26721" y="195.532468" style="fill: #e78ac3; stroke: #e78ac3"/>
     <use xlink:href="#ma9b47c5a4f" x="117.657931" y="194.701729" style="fill: #e78ac3; stroke: #e78ac3"/>
     <use xlink:href="#ma9b47c5a4f" x="133.048652" y="196.049168" style="fill: #e78ac3; stroke: #e78ac3"/>
     <use xlink:href="#ma9b47c5a4f" x="148.439373" y="194.860546" style="fill: #e78ac3; stroke: #e78ac3"/>
     <use xlink:href="#ma9b47c5a4f" x="163.830094" y="202.486144" style="fill: #e78ac3; stroke: #e78ac3"/>
     <use xlink:href="#ma9b47c5a4f" x="179.220815" y="207.201827" style="fill: #e78ac3; stroke: #e78ac3"/>
     <use xlink:href="#ma9b47c5a4f" x="194.611536" y="216.372878" style="fill: #e78ac3; stroke: #e78ac3"/>
     <use xlink:href="#ma9b47c5a4f" x="210.002257" y="219.717263" style="fill: #e78ac3; stroke: #e78ac3"/>
     <use xlink:href="#ma9b47c5a4f" x="225.392978" y="226.425103" style="fill: #e78ac3; stroke: #e78ac3"/>
     <use xlink:href="#ma9b47c5a4f" x="240.783699" y="233.485136" style="fill: #e78ac3; stroke: #e78ac3"/>
     <use xlink:href="#ma9b47c5a4f" x="256.17442" y="241.112601" style="fill: #e78ac3; stroke: #e78ac3"/>
     <use xlink:href="#ma9b47c5a4f" x="271.565141" y="246.425688" style="fill: #e78ac3; stroke: #e78ac3"/>
     <use xlink:href="#ma9b47c5a4f" x="286.955862" y="251.770058" style="fill: #e78ac3; stroke: #e78ac3"/>
     <use xlink:href="#ma9b47c5a4f" x="302.346583" y="259.849173" style="fill: #e78ac3; stroke: #e78ac3"/>
     <use xlink:href="#ma9b47c5a4f" x="317.737304" y="263.939933" style="fill: #e78ac3; stroke: #e78ac3"/>
     <use xlink:href="#ma9b47c5a4f" x="333.128025" y="271.839969" style="fill: #e78ac3; stroke: #e78ac3"/>
     <use xlink:href="#ma9b47c5a4f" x="348.518746" y="277.466935" style="fill: #e78ac3; stroke: #e78ac3"/>
     <use xlink:href="#ma9b47c5a4f" x="363.909467" y="283.084067" style="fill: #e78ac3; stroke: #e78ac3"/>
     <use xlink:href="#ma9b47c5a4f" x="379.300188" y="292.041096" style="fill: #e78ac3; stroke: #e78ac3"/>
     <use xlink:href="#ma9b47c5a4f" x="394.690909" y="297.685193" style="fill: #e78ac3; stroke: #e78ac3"/>
    </g>
   </g>
   <g id="line2d_29">
    <path d="M 102.26721 207.059977 
L 117.657931 205.588229 
L 133.048652 216.382569 
L 148.439373 222.869136 
L 163.830094 232.971864 
L 179.220815 240.741577 
L 194.611536 250.628392 
L 210.002257 257.231194 
L 225.392978 266.760027 
L 240.783699 273.90281 
L 256.17442 283.397453 
L 271.565141 290.358186 
L 286.955862 296.33531 
L 302.346583 304.010447 
L 317.737304 313.74578 
L 333.128025 320.442312 
L 348.518746 333.316382 
L 363.909467 340.184061 
L 379.300188 346.188577 
L 394.690909 354.965728 
" clip-path="url(#p2e9c2be445)" style="fill: none; stroke: #ffd92f; stroke-width: 1.5; stroke-linecap: round"/>
   </g>
   <g id="line2d_30">
    <path d="M 102.26721 207.059977 
L 117.657931 205.588229 
L 133.048652 216.382569 
L 148.439373 222.869136 
L 163.830094 232.971864 
L 179.220815 240.741577 
L 194.611536 250.628392 
L 210.002257 257.231194 
L 225.392978 266.760027 
L 240.783699 273.90281 
L 256.17442 283.397453 
L 271.565141 290.358186 
L 286.955862 296.33531 
L 302.346583 304.010447 
L 317.737304 313.74578 
L 333.128025 320.442312 
L 348.518746 333.316382 
L 363.909467 340.184061 
L 379.300188 346.188577 
L 394.690909 354.965728 
" clip-path="url(#p2e9c2be445)" style="fill: none; stroke: #ffd92f; stroke-width: 1.5; stroke-linecap: round"/>
    <defs>
     <path id="mba70595cd9" d="M 0 3 
C 0.795609 3 1.55874 2.683901 2.12132 2.12132 
C 2.683901 1.55874 3 0.795609 3 0 
C 3 -0.795609 2.683901 -1.55874 2.12132 -2.12132 
C 1.55874 -2.683901 0.795609 -3 0 -3 
C -0.795609 -3 -1.55874 -2.683901 -2.12132 -2.12132 
C -2.683901 -1.55874 -3 -0.795609 -3 0 
C -3 0.795609 -2.683901 1.55874 -2.12132 2.12132 
C -1.55874 2.683901 -0.795609 3 0 3 
z
" style="stroke: #ffd92f"/>
    </defs>
    <g clip-path="url(#p2e9c2be445)">
     <use xlink:href="#mba70595cd9" x="102.26721" y="207.059977" style="fill: #ffd92f; stroke: #ffd92f"/>
     <use xlink:href="#mba70595cd9" x="117.657931" y="205.588229" style="fill: #ffd92f; stroke: #ffd92f"/>
     <use xlink:href="#mba70595cd9" x="133.048652" y="216.382569" style="fill: #ffd92f; stroke: #ffd92f"/>
     <use xlink:href="#mba70595cd9" x="148.439373" y="222.869136" style="fill: #ffd92f; stroke: #ffd92f"/>
     <use xlink:href="#mba70595cd9" x="163.830094" y="232.971864" style="fill: #ffd92f; stroke: #ffd92f"/>
     <use xlink:href="#mba70595cd9" x="179.220815" y="240.741577" style="fill: #ffd92f; stroke: #ffd92f"/>
     <use xlink:href="#mba70595cd9" x="194.611536" y="250.628392" style="fill: #ffd92f; stroke: #ffd92f"/>
     <use xlink:href="#mba70595cd9" x="210.002257" y="257.231194" style="fill: #ffd92f; stroke: #ffd92f"/>
     <use xlink:href="#mba70595cd9" x="225.392978" y="266.760027" style="fill: #ffd92f; stroke: #ffd92f"/>
     <use xlink:href="#mba70595cd9" x="240.783699" y="273.90281" style="fill: #ffd92f; stroke: #ffd92f"/>
     <use xlink:href="#mba70595cd9" x="256.17442" y="283.397453" style="fill: #ffd92f; stroke: #ffd92f"/>
     <use xlink:href="#mba70595cd9" x="271.565141" y="290.358186" style="fill: #ffd92f; stroke: #ffd92f"/>
     <use xlink:href="#mba70595cd9" x="286.955862" y="296.33531" style="fill: #ffd92f; stroke: #ffd92f"/>
     <use xlink:href="#mba70595cd9" x="302.346583" y="304.010447" style="fill: #ffd92f; stroke: #ffd92f"/>
     <use xlink:href="#mba70595cd9" x="317.737304" y="313.74578" style="fill: #ffd92f; stroke: #ffd92f"/>
     <use xlink:href="#mba70595cd9" x="333.128025" y="320.442312" style="fill: #ffd92f; stroke: #ffd92f"/>
     <use xlink:href="#mba70595cd9" x="348.518746" y="333.316382" style="fill: #ffd92f; stroke: #ffd92f"/>
     <use xlink:href="#mba70595cd9" x="363.909467" y="340.184061" style="fill: #ffd92f; stroke: #ffd92f"/>
     <use xlink:href="#mba70595cd9" x="379.300188" y="346.188577" style="fill: #ffd92f; stroke: #ffd92f"/>
     <use xlink:href="#mba70595cd9" x="394.690909" y="354.965728" style="fill: #ffd92f; stroke: #ffd92f"/>
    </g>
   </g>
   <g id="line2d_31">
    <path d="M 102.26721 180.612194 
L 117.657931 181.204173 
L 133.048652 181.592271 
L 148.439373 178.274598 
L 163.830094 181.123655 
L 179.220815 186.639503 
L 194.611536 193.594674 
L 210.002257 199.553859 
L 225.392978 205.381197 
L 240.783699 213.283622 
L 256.17442 221.154627 
L 271.565141 226.28364 
L 286.955862 233.354111 
L 302.346583 240.467138 
L 317.737304 247.86166 
L 333.128025 253.506074 
L 348.518746 260.70289 
L 363.909467 266.680514 
L 379.300188 274.316561 
L 394.690909 283.262517 
" clip-path="url(#p2e9c2be445)" style="fill: none; stroke: #ffd92f; stroke-width: 1.5; stroke-linecap: round"/>
   </g>
   <g id="line2d_32">
    <path d="M 102.26721 180.612194 
L 117.657931 181.204173 
L 133.048652 181.592271 
L 148.439373 178.274598 
L 163.830094 181.123655 
L 179.220815 186.639503 
L 194.611536 193.594674 
L 210.002257 199.553859 
L 225.392978 205.381197 
L 240.783699 213.283622 
L 256.17442 221.154627 
L 271.565141 226.28364 
L 286.955862 233.354111 
L 302.346583 240.467138 
L 317.737304 247.86166 
L 333.128025 253.506074 
L 348.518746 260.70289 
L 363.909467 266.680514 
L 379.300188 274.316561 
L 394.690909 283.262517 
" clip-path="url(#p2e9c2be445)" style="fill: none; stroke: #ffd92f; stroke-width: 1.5; stroke-linecap: round"/>
    <g clip-path="url(#p2e9c2be445)">
     <use xlink:href="#mba70595cd9" x="102.26721" y="180.612194" style="fill: #ffd92f; stroke: #ffd92f"/>
     <use xlink:href="#mba70595cd9" x="117.657931" y="181.204173" style="fill: #ffd92f; stroke: #ffd92f"/>
     <use xlink:href="#mba70595cd9" x="133.048652" y="181.592271" style="fill: #ffd92f; stroke: #ffd92f"/>
     <use xlink:href="#mba70595cd9" x="148.439373" y="178.274598" style="fill: #ffd92f; stroke: #ffd92f"/>
     <use xlink:href="#mba70595cd9" x="163.830094" y="181.123655" style="fill: #ffd92f; stroke: #ffd92f"/>
     <use xlink:href="#mba70595cd9" x="179.220815" y="186.639503" style="fill: #ffd92f; stroke: #ffd92f"/>
     <use xlink:href="#mba70595cd9" x="194.611536" y="193.594674" style="fill: #ffd92f; stroke: #ffd92f"/>
     <use xlink:href="#mba70595cd9" x="210.002257" y="199.553859" style="fill: #ffd92f; stroke: #ffd92f"/>
     <use xlink:href="#mba70595cd9" x="225.392978" y="205.381197" style="fill: #ffd92f; stroke: #ffd92f"/>
     <use xlink:href="#mba70595cd9" x="240.783699" y="213.283622" style="fill: #ffd92f; stroke: #ffd92f"/>
     <use xlink:href="#mba70595cd9" x="256.17442" y="221.154627" style="fill: #ffd92f; stroke: #ffd92f"/>
     <use xlink:href="#mba70595cd9" x="271.565141" y="226.28364" style="fill: #ffd92f; stroke: #ffd92f"/>
     <use xlink:href="#mba70595cd9" x="286.955862" y="233.354111" style="fill: #ffd92f; stroke: #ffd92f"/>
     <use xlink:href="#mba70595cd9" x="302.346583" y="240.467138" style="fill: #ffd92f; stroke: #ffd92f"/>
     <use xlink:href="#mba70595cd9" x="317.737304" y="247.86166" style="fill: #ffd92f; stroke: #ffd92f"/>
     <use xlink:href="#mba70595cd9" x="333.128025" y="253.506074" style="fill: #ffd92f; stroke: #ffd92f"/>
     <use xlink:href="#mba70595cd9" x="348.518746" y="260.70289" style="fill: #ffd92f; stroke: #ffd92f"/>
     <use xlink:href="#mba70595cd9" x="363.909467" y="266.680514" style="fill: #ffd92f; stroke: #ffd92f"/>
     <use xlink:href="#mba70595cd9" x="379.300188" y="274.316561" style="fill: #ffd92f; stroke: #ffd92f"/>
     <use xlink:href="#mba70595cd9" x="394.690909" y="283.262517" style="fill: #ffd92f; stroke: #ffd92f"/>
    </g>
   </g>
   <g id="line2d_33">
    <path d="M 102.26721 189.969817 
L 117.657931 189.372061 
L 133.048652 189.238956 
L 148.439373 188.033545 
L 163.830094 191.373469 
L 179.220815 197.658798 
L 194.611536 201.303953 
L 210.002257 203.837029 
L 225.392978 209.961668 
L 240.783699 212.384352 
L 256.17442 217.412278 
L 271.565141 221.268248 
L 286.955862 225.706729 
L 302.346583 229.629112 
L 317.737304 233.604534 
L 333.128025 239.428565 
L 348.518746 243.825541 
L 363.909467 246.756668 
L 379.300188 251.901909 
L 394.690909 253.926833 
" clip-path="url(#p2e9c2be445)" style="fill: none; stroke: #ffd92f; stroke-width: 1.5; stroke-linecap: round"/>
   </g>
   <g id="line2d_34">
    <path d="M 102.26721 189.969817 
L 117.657931 189.372061 
L 133.048652 189.238956 
L 148.439373 188.033545 
L 163.830094 191.373469 
L 179.220815 197.658798 
L 194.611536 201.303953 
L 210.002257 203.837029 
L 225.392978 209.961668 
L 240.783699 212.384352 
L 256.17442 217.412278 
L 271.565141 221.268248 
L 286.955862 225.706729 
L 302.346583 229.629112 
L 317.737304 233.604534 
L 333.128025 239.428565 
L 348.518746 243.825541 
L 363.909467 246.756668 
L 379.300188 251.901909 
L 394.690909 253.926833 
" clip-path="url(#p2e9c2be445)" style="fill: none; stroke: #ffd92f; stroke-width: 1.5; stroke-linecap: round"/>
    <g clip-path="url(#p2e9c2be445)">
     <use xlink:href="#mba70595cd9" x="102.26721" y="189.969817" style="fill: #ffd92f; stroke: #ffd92f"/>
     <use xlink:href="#mba70595cd9" x="117.657931" y="189.372061" style="fill: #ffd92f; stroke: #ffd92f"/>
     <use xlink:href="#mba70595cd9" x="133.048652" y="189.238956" style="fill: #ffd92f; stroke: #ffd92f"/>
     <use xlink:href="#mba70595cd9" x="148.439373" y="188.033545" style="fill: #ffd92f; stroke: #ffd92f"/>
     <use xlink:href="#mba70595cd9" x="163.830094" y="191.373469" style="fill: #ffd92f; stroke: #ffd92f"/>
     <use xlink:href="#mba70595cd9" x="179.220815" y="197.658798" style="fill: #ffd92f; stroke: #ffd92f"/>
     <use xlink:href="#mba70595cd9" x="194.611536" y="201.303953" style="fill: #ffd92f; stroke: #ffd92f"/>
     <use xlink:href="#mba70595cd9" x="210.002257" y="203.837029" style="fill: #ffd92f; stroke: #ffd92f"/>
     <use xlink:href="#mba70595cd9" x="225.392978" y="209.961668" style="fill: #ffd92f; stroke: #ffd92f"/>
     <use xlink:href="#mba70595cd9" x="240.783699" y="212.384352" style="fill: #ffd92f; stroke: #ffd92f"/>
     <use xlink:href="#mba70595cd9" x="256.17442" y="217.412278" style="fill: #ffd92f; stroke: #ffd92f"/>
     <use xlink:href="#mba70595cd9" x="271.565141" y="221.268248" style="fill: #ffd92f; stroke: #ffd92f"/>
     <use xlink:href="#mba70595cd9" x="286.955862" y="225.706729" style="fill: #ffd92f; stroke: #ffd92f"/>
     <use xlink:href="#mba70595cd9" x="302.346583" y="229.629112" style="fill: #ffd92f; stroke: #ffd92f"/>
     <use xlink:href="#mba70595cd9" x="317.737304" y="233.604534" style="fill: #ffd92f; stroke: #ffd92f"/>
     <use xlink:href="#mba70595cd9" x="333.128025" y="239.428565" style="fill: #ffd92f; stroke: #ffd92f"/>
     <use xlink:href="#mba70595cd9" x="348.518746" y="243.825541" style="fill: #ffd92f; stroke: #ffd92f"/>
     <use xlink:href="#mba70595cd9" x="363.909467" y="246.756668" style="fill: #ffd92f; stroke: #ffd92f"/>
     <use xlink:href="#mba70595cd9" x="379.300188" y="251.901909" style="fill: #ffd92f; stroke: #ffd92f"/>
     <use xlink:href="#mba70595cd9" x="394.690909" y="253.926833" style="fill: #ffd92f; stroke: #ffd92f"/>
    </g>
   </g>
   <g id="line2d_35">
    <path d="M 102.26721 174.026076 
L 117.657931 173.721789 
L 133.048652 180.532871 
L 148.439373 187.704838 
L 163.830094 191.061494 
L 179.220815 198.142557 
L 194.611536 202.500068 
L 210.002257 210.736429 
L 225.392978 216.120053 
L 240.783699 221.657621 
L 256.17442 228.051687 
L 271.565141 232.109298 
L 286.955862 237.868012 
L 302.346583 244.283613 
L 317.737304 250.475917 
L 333.128025 256.526885 
L 348.518746 260.879749 
L 363.909467 267.222155 
L 379.300188 273.374094 
L 394.690909 280.018864 
" clip-path="url(#p2e9c2be445)" style="fill: none; stroke: #ffd92f; stroke-width: 1.5; stroke-linecap: round"/>
   </g>
   <g id="line2d_36">
    <path d="M 102.26721 174.026076 
L 117.657931 173.721789 
L 133.048652 180.532871 
L 148.439373 187.704838 
L 163.830094 191.061494 
L 179.220815 198.142557 
L 194.611536 202.500068 
L 210.002257 210.736429 
L 225.392978 216.120053 
L 240.783699 221.657621 
L 256.17442 228.051687 
L 271.565141 232.109298 
L 286.955862 237.868012 
L 302.346583 244.283613 
L 317.737304 250.475917 
L 333.128025 256.526885 
L 348.518746 260.879749 
L 363.909467 267.222155 
L 379.300188 273.374094 
L 394.690909 280.018864 
" clip-path="url(#p2e9c2be445)" style="fill: none; stroke: #ffd92f; stroke-width: 1.5; stroke-linecap: round"/>
    <g clip-path="url(#p2e9c2be445)">
     <use xlink:href="#mba70595cd9" x="102.26721" y="174.026076" style="fill: #ffd92f; stroke: #ffd92f"/>
     <use xlink:href="#mba70595cd9" x="117.657931" y="173.721789" style="fill: #ffd92f; stroke: #ffd92f"/>
     <use xlink:href="#mba70595cd9" x="133.048652" y="180.532871" style="fill: #ffd92f; stroke: #ffd92f"/>
     <use xlink:href="#mba70595cd9" x="148.439373" y="187.704838" style="fill: #ffd92f; stroke: #ffd92f"/>
     <use xlink:href="#mba70595cd9" x="163.830094" y="191.061494" style="fill: #ffd92f; stroke: #ffd92f"/>
     <use xlink:href="#mba70595cd9" x="179.220815" y="198.142557" style="fill: #ffd92f; stroke: #ffd92f"/>
     <use xlink:href="#mba70595cd9" x="194.611536" y="202.500068" style="fill: #ffd92f; stroke: #ffd92f"/>
     <use xlink:href="#mba70595cd9" x="210.002257" y="210.736429" style="fill: #ffd92f; stroke: #ffd92f"/>
     <use xlink:href="#mba70595cd9" x="225.392978" y="216.120053" style="fill: #ffd92f; stroke: #ffd92f"/>
     <use xlink:href="#mba70595cd9" x="240.783699" y="221.657621" style="fill: #ffd92f; stroke: #ffd92f"/>
     <use xlink:href="#mba70595cd9" x="256.17442" y="228.051687" style="fill: #ffd92f; stroke: #ffd92f"/>
     <use xlink:href="#mba70595cd9" x="271.565141" y="232.109298" style="fill: #ffd92f; stroke: #ffd92f"/>
     <use xlink:href="#mba70595cd9" x="286.955862" y="237.868012" style="fill: #ffd92f; stroke: #ffd92f"/>
     <use xlink:href="#mba70595cd9" x="302.346583" y="244.283613" style="fill: #ffd92f; stroke: #ffd92f"/>
     <use xlink:href="#mba70595cd9" x="317.737304" y="250.475917" style="fill: #ffd92f; stroke: #ffd92f"/>
     <use xlink:href="#mba70595cd9" x="333.128025" y="256.526885" style="fill: #ffd92f; stroke: #ffd92f"/>
     <use xlink:href="#mba70595cd9" x="348.518746" y="260.879749" style="fill: #ffd92f; stroke: #ffd92f"/>
     <use xlink:href="#mba70595cd9" x="363.909467" y="267.222155" style="fill: #ffd92f; stroke: #ffd92f"/>
     <use xlink:href="#mba70595cd9" x="379.300188" y="273.374094" style="fill: #ffd92f; stroke: #ffd92f"/>
     <use xlink:href="#mba70595cd9" x="394.690909" y="280.018864" style="fill: #ffd92f; stroke: #ffd92f"/>
    </g>
   </g>
   <g id="line2d_37">
    <path d="M 102.26721 192.879412 
L 117.657931 201.735161 
L 133.048652 211.689194 
L 148.439373 217.250989 
L 163.830094 227.699975 
L 179.220815 234.766109 
L 194.611536 246.196684 
L 210.002257 252.460939 
L 225.392978 261.003918 
L 240.783699 270.235801 
L 256.17442 276.15771 
L 271.565141 282.979036 
L 286.955862 291.965729 
L 302.346583 299.825174 
L 317.737304 309.522069 
L 333.128025 316.136583 
L 348.518746 326.466529 
L 363.909467 335.085145 
L 379.300188 340.887187 
L 394.690909 351.078235 
" clip-path="url(#p2e9c2be445)" style="fill: none; stroke: #ffd92f; stroke-width: 1.5; stroke-linecap: round"/>
   </g>
   <g id="line2d_38">
    <path d="M 102.26721 192.879412 
L 117.657931 201.735161 
L 133.048652 211.689194 
L 148.439373 217.250989 
L 163.830094 227.699975 
L 179.220815 234.766109 
L 194.611536 246.196684 
L 210.002257 252.460939 
L 225.392978 261.003918 
L 240.783699 270.235801 
L 256.17442 276.15771 
L 271.565141 282.979036 
L 286.955862 291.965729 
L 302.346583 299.825174 
L 317.737304 309.522069 
L 333.128025 316.136583 
L 348.518746 326.466529 
L 363.909467 335.085145 
L 379.300188 340.887187 
L 394.690909 351.078235 
" clip-path="url(#p2e9c2be445)" style="fill: none; stroke: #ffd92f; stroke-width: 1.5; stroke-linecap: round"/>
    <g clip-path="url(#p2e9c2be445)">
     <use xlink:href="#mba70595cd9" x="102.26721" y="192.879412" style="fill: #ffd92f; stroke: #ffd92f"/>
     <use xlink:href="#mba70595cd9" x="117.657931" y="201.735161" style="fill: #ffd92f; stroke: #ffd92f"/>
     <use xlink:href="#mba70595cd9" x="133.048652" y="211.689194" style="fill: #ffd92f; stroke: #ffd92f"/>
     <use xlink:href="#mba70595cd9" x="148.439373" y="217.250989" style="fill: #ffd92f; stroke: #ffd92f"/>
     <use xlink:href="#mba70595cd9" x="163.830094" y="227.699975" style="fill: #ffd92f; stroke: #ffd92f"/>
     <use xlink:href="#mba70595cd9" x="179.220815" y="234.766109" style="fill: #ffd92f; stroke: #ffd92f"/>
     <use xlink:href="#mba70595cd9" x="194.611536" y="246.196684" style="fill: #ffd92f; stroke: #ffd92f"/>
     <use xlink:href="#mba70595cd9" x="210.002257" y="252.460939" style="fill: #ffd92f; stroke: #ffd92f"/>
     <use xlink:href="#mba70595cd9" x="225.392978" y="261.003918" style="fill: #ffd92f; stroke: #ffd92f"/>
     <use xlink:href="#mba70595cd9" x="240.783699" y="270.235801" style="fill: #ffd92f; stroke: #ffd92f"/>
     <use xlink:href="#mba70595cd9" x="256.17442" y="276.15771" style="fill: #ffd92f; stroke: #ffd92f"/>
     <use xlink:href="#mba70595cd9" x="271.565141" y="282.979036" style="fill: #ffd92f; stroke: #ffd92f"/>
     <use xlink:href="#mba70595cd9" x="286.955862" y="291.965729" style="fill: #ffd92f; stroke: #ffd92f"/>
     <use xlink:href="#mba70595cd9" x="302.346583" y="299.825174" style="fill: #ffd92f; stroke: #ffd92f"/>
     <use xlink:href="#mba70595cd9" x="317.737304" y="309.522069" style="fill: #ffd92f; stroke: #ffd92f"/>
     <use xlink:href="#mba70595cd9" x="333.128025" y="316.136583" style="fill: #ffd92f; stroke: #ffd92f"/>
     <use xlink:href="#mba70595cd9" x="348.518746" y="326.466529" style="fill: #ffd92f; stroke: #ffd92f"/>
     <use xlink:href="#mba70595cd9" x="363.909467" y="335.085145" style="fill: #ffd92f; stroke: #ffd92f"/>
     <use xlink:href="#mba70595cd9" x="379.300188" y="340.887187" style="fill: #ffd92f; stroke: #ffd92f"/>
     <use xlink:href="#mba70595cd9" x="394.690909" y="351.078235" style="fill: #ffd92f; stroke: #ffd92f"/>
    </g>
   </g>
   <g id="line2d_39">
    <path d="M 102.26721 205.287784 
L 117.657931 206.300679 
L 133.048652 209.068113 
L 148.439373 205.938062 
L 163.830094 209.617176 
L 179.220815 206.678983 
L 194.611536 210.938123 
L 210.002257 207.42771 
L 225.392978 207.892707 
L 240.783699 212.345873 
L 256.17442 285.141132 
L 271.565141 364.844128 
L 286.955862 368.516812 
L 302.346583 368.010533 
L 317.737304 367.211238 
L 333.128025 369.766363 
L 348.518746 365.711516 
L 363.909467 371.42236 
L 379.300188 371.393248 
L 394.690909 365.905724 
" clip-path="url(#p2e9c2be445)" style="fill: none; stroke: #e5c494; stroke-width: 1.5; stroke-linecap: round"/>
   </g>
   <g id="line2d_40">
    <path d="M 102.26721 205.287784 
L 117.657931 206.300679 
L 133.048652 209.068113 
L 148.439373 205.938062 
L 163.830094 209.617176 
L 179.220815 206.678983 
L 194.611536 210.938123 
L 210.002257 207.42771 
L 225.392978 207.892707 
L 240.783699 212.345873 
L 256.17442 285.141132 
L 271.565141 364.844128 
L 286.955862 368.516812 
L 302.346583 368.010533 
L 317.737304 367.211238 
L 333.128025 369.766363 
L 348.518746 365.711516 
L 363.909467 371.42236 
L 379.300188 371.393248 
L 394.690909 365.905724 
" clip-path="url(#p2e9c2be445)" style="fill: none; stroke: #e5c494; stroke-width: 1.5; stroke-linecap: round"/>
    <defs>
     <path id="m5c104f7938" d="M 0 3 
C 0.795609 3 1.55874 2.683901 2.12132 2.12132 
C 2.683901 1.55874 3 0.795609 3 0 
C 3 -0.795609 2.683901 -1.55874 2.12132 -2.12132 
C 1.55874 -2.683901 0.795609 -3 0 -3 
C -0.795609 -3 -1.55874 -2.683901 -2.12132 -2.12132 
C -2.683901 -1.55874 -3 -0.795609 -3 0 
C -3 0.795609 -2.683901 1.55874 -2.12132 2.12132 
C -1.55874 2.683901 -0.795609 3 0 3 
z
" style="stroke: #e5c494"/>
    </defs>
    <g clip-path="url(#p2e9c2be445)">
     <use xlink:href="#m5c104f7938" x="102.26721" y="205.287784" style="fill: #e5c494; stroke: #e5c494"/>
     <use xlink:href="#m5c104f7938" x="117.657931" y="206.300679" style="fill: #e5c494; stroke: #e5c494"/>
     <use xlink:href="#m5c104f7938" x="133.048652" y="209.068113" style="fill: #e5c494; stroke: #e5c494"/>
     <use xlink:href="#m5c104f7938" x="148.439373" y="205.938062" style="fill: #e5c494; stroke: #e5c494"/>
     <use xlink:href="#m5c104f7938" x="163.830094" y="209.617176" style="fill: #e5c494; stroke: #e5c494"/>
     <use xlink:href="#m5c104f7938" x="179.220815" y="206.678983" style="fill: #e5c494; stroke: #e5c494"/>
     <use xlink:href="#m5c104f7938" x="194.611536" y="210.938123" style="fill: #e5c494; stroke: #e5c494"/>
     <use xlink:href="#m5c104f7938" x="210.002257" y="207.42771" style="fill: #e5c494; stroke: #e5c494"/>
     <use xlink:href="#m5c104f7938" x="225.392978" y="207.892707" style="fill: #e5c494; stroke: #e5c494"/>
     <use xlink:href="#m5c104f7938" x="240.783699" y="212.345873" style="fill: #e5c494; stroke: #e5c494"/>
     <use xlink:href="#m5c104f7938" x="256.17442" y="285.141132" style="fill: #e5c494; stroke: #e5c494"/>
     <use xlink:href="#m5c104f7938" x="271.565141" y="364.844128" style="fill: #e5c494; stroke: #e5c494"/>
     <use xlink:href="#m5c104f7938" x="286.955862" y="368.516812" style="fill: #e5c494; stroke: #e5c494"/>
     <use xlink:href="#m5c104f7938" x="302.346583" y="368.010533" style="fill: #e5c494; stroke: #e5c494"/>
     <use xlink:href="#m5c104f7938" x="317.737304" y="367.211238" style="fill: #e5c494; stroke: #e5c494"/>
     <use xlink:href="#m5c104f7938" x="333.128025" y="369.766363" style="fill: #e5c494; stroke: #e5c494"/>
     <use xlink:href="#m5c104f7938" x="348.518746" y="365.711516" style="fill: #e5c494; stroke: #e5c494"/>
     <use xlink:href="#m5c104f7938" x="363.909467" y="371.42236" style="fill: #e5c494; stroke: #e5c494"/>
     <use xlink:href="#m5c104f7938" x="379.300188" y="371.393248" style="fill: #e5c494; stroke: #e5c494"/>
     <use xlink:href="#m5c104f7938" x="394.690909" y="365.905724" style="fill: #e5c494; stroke: #e5c494"/>
    </g>
   </g>
   <g id="line2d_41">
    <path d="M 80.509091 206.884702 
L 82.799419 208.907491 
L 85.089748 207.786879 
L 87.380076 207.592444 
L 89.670404 223.824103 
L 91.960733 213.600242 
L 94.251061 210.167611 
L 96.541389 198.703382 
L 98.831718 215.824548 
L 101.122046 214.229531 
L 103.412374 207.875712 
L 105.702703 226.851431 
L 107.993031 213.018073 
L 110.283359 210.548656 
L 112.573688 198.803771 
L 114.864016 215.854008 
L 117.154344 211.583857 
L 119.444673 210.379417 
L 121.735001 228.986934 
L 124.025329 215.356668 
" clip-path="url(#p2e9c2be445)" style="fill: none; stroke: #66c2a5; stroke-width: 1.5; stroke-linecap: round"/>
   </g>
   <g id="line2d_42">
    <path d="M 80.509091 206.884702 
L 82.799419 208.907491 
L 85.089748 207.786879 
L 87.380076 207.592444 
L 89.670404 223.824103 
L 91.960733 213.600242 
L 94.251061 210.167611 
L 96.541389 198.703382 
L 98.831718 215.824548 
L 101.122046 214.229531 
L 103.412374 207.875712 
L 105.702703 226.851431 
L 107.993031 213.018073 
L 110.283359 210.548656 
L 112.573688 198.803771 
L 114.864016 215.854008 
L 117.154344 211.583857 
L 119.444673 210.379417 
L 121.735001 228.986934 
L 124.025329 215.356668 
" clip-path="url(#p2e9c2be445)" style="fill: none; stroke: #66c2a5; stroke-width: 1.5; stroke-linecap: round"/>
    <g clip-path="url(#p2e9c2be445)">
     <use xlink:href="#ma4c355399c" x="80.509091" y="206.884702" style="fill: #66c2a5; stroke: #66c2a5"/>
     <use xlink:href="#ma4c355399c" x="82.799419" y="208.907491" style="fill: #66c2a5; stroke: #66c2a5"/>
     <use xlink:href="#ma4c355399c" x="85.089748" y="207.786879" style="fill: #66c2a5; stroke: #66c2a5"/>
     <use xlink:href="#ma4c355399c" x="87.380076" y="207.592444" style="fill: #66c2a5; stroke: #66c2a5"/>
     <use xlink:href="#ma4c355399c" x="89.670404" y="223.824103" style="fill: #66c2a5; stroke: #66c2a5"/>
     <use xlink:href="#ma4c355399c" x="91.960733" y="213.600242" style="fill: #66c2a5; stroke: #66c2a5"/>
     <use xlink:href="#ma4c355399c" x="94.251061" y="210.167611" style="fill: #66c2a5; stroke: #66c2a5"/>
     <use xlink:href="#ma4c355399c" x="96.541389" y="198.703382" style="fill: #66c2a5; stroke: #66c2a5"/>
     <use xlink:href="#ma4c355399c" x="98.831718" y="215.824548" style="fill: #66c2a5; stroke: #66c2a5"/>
     <use xlink:href="#ma4c355399c" x="101.122046" y="214.229531" style="fill: #66c2a5; stroke: #66c2a5"/>
     <use xlink:href="#ma4c355399c" x="103.412374" y="207.875712" style="fill: #66c2a5; stroke: #66c2a5"/>
     <use xlink:href="#ma4c355399c" x="105.702703" y="226.851431" style="fill: #66c2a5; stroke: #66c2a5"/>
     <use xlink:href="#ma4c355399c" x="107.993031" y="213.018073" style="fill: #66c2a5; stroke: #66c2a5"/>
     <use xlink:href="#ma4c355399c" x="110.283359" y="210.548656" style="fill: #66c2a5; stroke: #66c2a5"/>
     <use xlink:href="#ma4c355399c" x="112.573688" y="198.803771" style="fill: #66c2a5; stroke: #66c2a5"/>
     <use xlink:href="#ma4c355399c" x="114.864016" y="215.854008" style="fill: #66c2a5; stroke: #66c2a5"/>
     <use xlink:href="#ma4c355399c" x="117.154344" y="211.583857" style="fill: #66c2a5; stroke: #66c2a5"/>
     <use xlink:href="#ma4c355399c" x="119.444673" y="210.379417" style="fill: #66c2a5; stroke: #66c2a5"/>
     <use xlink:href="#ma4c355399c" x="121.735001" y="228.986934" style="fill: #66c2a5; stroke: #66c2a5"/>
     <use xlink:href="#ma4c355399c" x="124.025329" y="215.356668" style="fill: #66c2a5; stroke: #66c2a5"/>
    </g>
   </g>
   <g id="line2d_43">
    <path d="M 100.713059 182.408 
L 115.168037 182.874155 
L 129.623016 185.00632 
L 144.077995 188.569525 
L 158.532973 208.871927 
L 172.987952 224.539062 
L 187.442931 244.623734 
L 201.897909 249.816349 
L 216.352888 255.137472 
L 230.807867 257.758099 
L 245.262845 265.390182 
L 259.717824 275.51639 
L 274.172803 278.005927 
L 288.627781 279.829248 
L 303.08276 281.726065 
L 317.537739 286.465993 
L 331.992717 288.25063 
L 346.447696 291.045086 
L 360.902675 296.056452 
L 375.357653 298.123824 
" clip-path="url(#p2e9c2be445)" style="fill: none; stroke-dasharray: 24,6; stroke-dashoffset: 0; stroke: #000000; stroke-width: 3"/>
   </g>
   <g id="patch_3">
    <path d="M 64.8 460.8 
L 64.8 86.4 
" style="fill: none; stroke: #cccccc; stroke-width: 1.25; stroke-linejoin: miter; stroke-linecap: square"/>
   </g>
   <g id="patch_4">
    <path d="M 410.4 460.8 
L 410.4 86.4 
" style="fill: none; stroke: #cccccc; stroke-width: 1.25; stroke-linejoin: miter; stroke-linecap: square"/>
   </g>
   <g id="patch_5">
    <path d="M 64.8 460.8 
L 410.4 460.8 
" style="fill: none; stroke: #cccccc; stroke-width: 1.25; stroke-linejoin: miter; stroke-linecap: square"/>
   </g>
   <g id="patch_6">
    <path d="M 64.8 86.4 
L 410.4 86.4 
" style="fill: none; stroke: #cccccc; stroke-width: 1.25; stroke-linejoin: miter; stroke-linecap: square"/>
   </g>
   <g id="text_15">
    <!-- Cluster 4 -->
    <g style="fill: #262626" transform="translate(210.580313 53.52525) scale(0.12 -0.12)">
     <defs>
      <path id="DejaVuSans-43" d="M 4122 4306 
L 4122 3641 
Q 3803 3938 3442 4084 
Q 3081 4231 2675 4231 
Q 1875 4231 1450 3742 
Q 1025 3253 1025 2328 
Q 1025 1406 1450 917 
Q 1875 428 2675 428 
Q 3081 428 3442 575 
Q 3803 722 4122 1019 
L 4122 359 
Q 3791 134 3420 21 
Q 3050 -91 2638 -91 
Q 1578 -91 968 557 
Q 359 1206 359 2328 
Q 359 3453 968 4101 
Q 1578 4750 2638 4750 
Q 3056 4750 3426 4639 
Q 3797 4528 4122 4306 
z
" transform="scale(0.015625)"/>
      <path id="DejaVuSans-6c" d="M 603 4863 
L 1178 4863 
L 1178 0 
L 603 0 
L 603 4863 
z
" transform="scale(0.015625)"/>
      <path id="DejaVuSans-75" d="M 544 1381 
L 544 3500 
L 1119 3500 
L 1119 1403 
Q 1119 906 1312 657 
Q 1506 409 1894 409 
Q 2359 409 2629 706 
Q 2900 1003 2900 1516 
L 2900 3500 
L 3475 3500 
L 3475 0 
L 2900 0 
L 2900 538 
Q 2691 219 2414 64 
Q 2138 -91 1772 -91 
Q 1169 -91 856 284 
Q 544 659 544 1381 
z
M 1991 3584 
L 1991 3584 
z
" transform="scale(0.015625)"/>
      <path id="DejaVuSans-73" d="M 2834 3397 
L 2834 2853 
Q 2591 2978 2328 3040 
Q 2066 3103 1784 3103 
Q 1356 3103 1142 2972 
Q 928 2841 928 2578 
Q 928 2378 1081 2264 
Q 1234 2150 1697 2047 
L 1894 2003 
Q 2506 1872 2764 1633 
Q 3022 1394 3022 966 
Q 3022 478 2636 193 
Q 2250 -91 1575 -91 
Q 1294 -91 989 -36 
Q 684 19 347 128 
L 347 722 
Q 666 556 975 473 
Q 1284 391 1588 391 
Q 1994 391 2212 530 
Q 2431 669 2431 922 
Q 2431 1156 2273 1281 
Q 2116 1406 1581 1522 
L 1381 1569 
Q 847 1681 609 1914 
Q 372 2147 372 2553 
Q 372 3047 722 3315 
Q 1072 3584 1716 3584 
Q 2034 3584 2315 3537 
Q 2597 3491 2834 3397 
z
" transform="scale(0.015625)"/>
      <path id="DejaVuSans-74" d="M 1172 4494 
L 1172 3500 
L 2356 3500 
L 2356 3053 
L 1172 3053 
L 1172 1153 
Q 1172 725 1289 603 
Q 1406 481 1766 481 
L 2356 481 
L 2356 0 
L 1766 0 
Q 1100 0 847 248 
Q 594 497 594 1153 
L 594 3053 
L 172 3053 
L 172 3500 
L 594 3500 
L 594 4494 
L 1172 4494 
z
" transform="scale(0.015625)"/>
      <path id="DejaVuSans-65" d="M 3597 1894 
L 3597 1613 
L 953 1613 
Q 991 1019 1311 708 
Q 1631 397 2203 397 
Q 2534 397 2845 478 
Q 3156 559 3463 722 
L 3463 178 
Q 3153 47 2828 -22 
Q 2503 -91 2169 -91 
Q 1331 -91 842 396 
Q 353 884 353 1716 
Q 353 2575 817 3079 
Q 1281 3584 2069 3584 
Q 2775 3584 3186 3129 
Q 3597 2675 3597 1894 
z
M 3022 2063 
Q 3016 2534 2758 2815 
Q 2500 3097 2075 3097 
Q 1594 3097 1305 2825 
Q 1016 2553 972 2059 
L 3022 2063 
z
" transform="scale(0.015625)"/>
      <path id="DejaVuSans-72" d="M 2631 2963 
Q 2534 3019 2420 3045 
Q 2306 3072 2169 3072 
Q 1681 3072 1420 2755 
Q 1159 2438 1159 1844 
L 1159 0 
L 581 0 
L 581 3500 
L 1159 3500 
L 1159 2956 
Q 1341 3275 1631 3429 
Q 1922 3584 2338 3584 
Q 2397 3584 2469 3576 
Q 2541 3569 2628 3553 
L 2631 2963 
z
" transform="scale(0.015625)"/>
      <path id="DejaVuSans-20" transform="scale(0.015625)"/>
     </defs>
     <use xlink:href="#DejaVuSans-43"/>
     <use xlink:href="#DejaVuSans-6c" transform="translate(69.824219 0)"/>
     <use xlink:href="#DejaVuSans-75" transform="translate(97.607422 0)"/>
     <use xlink:href="#DejaVuSans-73" transform="translate(160.986328 0)"/>
     <use xlink:href="#DejaVuSans-74" transform="translate(213.085938 0)"/>
     <use xlink:href="#DejaVuSans-65" transform="translate(252.294922 0)"/>
     <use xlink:href="#DejaVuSans-72" transform="translate(313.818359 0)"/>
     <use xlink:href="#DejaVuSans-20" transform="translate(354.931641 0)"/>
     <use xlink:href="#DejaVuSans-34" transform="translate(386.71875 0)"/>
    </g>
    <!-- 14 Trajectories  -->
    <g style="fill: #262626" transform="translate(191.595938 66.962625) scale(0.12 -0.12)">
     <defs>
      <path id="DejaVuSans-54" d="M -19 4666 
L 3928 4666 
L 3928 4134 
L 2272 4134 
L 2272 0 
L 1638 0 
L 1638 4134 
L -19 4134 
L -19 4666 
z
" transform="scale(0.015625)"/>
      <path id="DejaVuSans-61" d="M 2194 1759 
Q 1497 1759 1228 1600 
Q 959 1441 959 1056 
Q 959 750 1161 570 
Q 1363 391 1709 391 
Q 2188 391 2477 730 
Q 2766 1069 2766 1631 
L 2766 1759 
L 2194 1759 
z
M 3341 1997 
L 3341 0 
L 2766 0 
L 2766 531 
Q 2569 213 2275 61 
Q 1981 -91 1556 -91 
Q 1019 -91 701 211 
Q 384 513 384 1019 
Q 384 1609 779 1909 
Q 1175 2209 1959 2209 
L 2766 2209 
L 2766 2266 
Q 2766 2663 2505 2880 
Q 2244 3097 1772 3097 
Q 1472 3097 1187 3025 
Q 903 2953 641 2809 
L 641 3341 
Q 956 3463 1253 3523 
Q 1550 3584 1831 3584 
Q 2591 3584 2966 3190 
Q 3341 2797 3341 1997 
z
" transform="scale(0.015625)"/>
      <path id="DejaVuSans-6a" d="M 603 3500 
L 1178 3500 
L 1178 -63 
Q 1178 -731 923 -1031 
Q 669 -1331 103 -1331 
L -116 -1331 
L -116 -844 
L 38 -844 
Q 366 -844 484 -692 
Q 603 -541 603 -63 
L 603 3500 
z
M 603 4863 
L 1178 4863 
L 1178 4134 
L 603 4134 
L 603 4863 
z
" transform="scale(0.015625)"/>
      <path id="DejaVuSans-63" d="M 3122 3366 
L 3122 2828 
Q 2878 2963 2633 3030 
Q 2388 3097 2138 3097 
Q 1578 3097 1268 2742 
Q 959 2388 959 1747 
Q 959 1106 1268 751 
Q 1578 397 2138 397 
Q 2388 397 2633 464 
Q 2878 531 3122 666 
L 3122 134 
Q 2881 22 2623 -34 
Q 2366 -91 2075 -91 
Q 1284 -91 818 406 
Q 353 903 353 1747 
Q 353 2603 823 3093 
Q 1294 3584 2113 3584 
Q 2378 3584 2631 3529 
Q 2884 3475 3122 3366 
z
" transform="scale(0.015625)"/>
      <path id="DejaVuSans-6f" d="M 1959 3097 
Q 1497 3097 1228 2736 
Q 959 2375 959 1747 
Q 959 1119 1226 758 
Q 1494 397 1959 397 
Q 2419 397 2687 759 
Q 2956 1122 2956 1747 
Q 2956 2369 2687 2733 
Q 2419 3097 1959 3097 
z
M 1959 3584 
Q 2709 3584 3137 3096 
Q 3566 2609 3566 1747 
Q 3566 888 3137 398 
Q 2709 -91 1959 -91 
Q 1206 -91 779 398 
Q 353 888 353 1747 
Q 353 2609 779 3096 
Q 1206 3584 1959 3584 
z
" transform="scale(0.015625)"/>
      <path id="DejaVuSans-69" d="M 603 3500 
L 1178 3500 
L 1178 0 
L 603 0 
L 603 3500 
z
M 603 4863 
L 1178 4863 
L 1178 4134 
L 603 4134 
L 603 4863 
z
" transform="scale(0.015625)"/>
     </defs>
     <use xlink:href="#DejaVuSans-31"/>
     <use xlink:href="#DejaVuSans-34" transform="translate(63.623047 0)"/>
     <use xlink:href="#DejaVuSans-20" transform="translate(127.246094 0)"/>
     <use xlink:href="#DejaVuSans-54" transform="translate(159.033203 0)"/>
     <use xlink:href="#DejaVuSans-72" transform="translate(205.367188 0)"/>
     <use xlink:href="#DejaVuSans-61" transform="translate(246.480469 0)"/>
     <use xlink:href="#DejaVuSans-6a" transform="translate(307.759766 0)"/>
     <use xlink:href="#DejaVuSans-65" transform="translate(335.542969 0)"/>
     <use xlink:href="#DejaVuSans-63" transform="translate(397.066406 0)"/>
     <use xlink:href="#DejaVuSans-74" transform="translate(452.046875 0)"/>
     <use xlink:href="#DejaVuSans-6f" transform="translate(491.255859 0)"/>
     <use xlink:href="#DejaVuSans-72" transform="translate(552.4375 0)"/>
     <use xlink:href="#DejaVuSans-69" transform="translate(593.550781 0)"/>
     <use xlink:href="#DejaVuSans-65" transform="translate(621.333984 0)"/>
     <use xlink:href="#DejaVuSans-73" transform="translate(682.857422 0)"/>
     <use xlink:href="#DejaVuSans-20" transform="translate(734.957031 0)"/>
    </g>
    <!--  Colored by: func_old -->
    <g style="fill: #262626" transform="translate(174.737813 80.4) scale(0.12 -0.12)">
     <defs>
      <path id="DejaVuSans-64" d="M 2906 2969 
L 2906 4863 
L 3481 4863 
L 3481 0 
L 2906 0 
L 2906 525 
Q 2725 213 2448 61 
Q 2172 -91 1784 -91 
Q 1150 -91 751 415 
Q 353 922 353 1747 
Q 353 2572 751 3078 
Q 1150 3584 1784 3584 
Q 2172 3584 2448 3432 
Q 2725 3281 2906 2969 
z
M 947 1747 
Q 947 1113 1208 752 
Q 1469 391 1925 391 
Q 2381 391 2643 752 
Q 2906 1113 2906 1747 
Q 2906 2381 2643 2742 
Q 2381 3103 1925 3103 
Q 1469 3103 1208 2742 
Q 947 2381 947 1747 
z
" transform="scale(0.015625)"/>
      <path id="DejaVuSans-62" d="M 3116 1747 
Q 3116 2381 2855 2742 
Q 2594 3103 2138 3103 
Q 1681 3103 1420 2742 
Q 1159 2381 1159 1747 
Q 1159 1113 1420 752 
Q 1681 391 2138 391 
Q 2594 391 2855 752 
Q 3116 1113 3116 1747 
z
M 1159 2969 
Q 1341 3281 1617 3432 
Q 1894 3584 2278 3584 
Q 2916 3584 3314 3078 
Q 3713 2572 3713 1747 
Q 3713 922 3314 415 
Q 2916 -91 2278 -91 
Q 1894 -91 1617 61 
Q 1341 213 1159 525 
L 1159 0 
L 581 0 
L 581 4863 
L 1159 4863 
L 1159 2969 
z
" transform="scale(0.015625)"/>
      <path id="DejaVuSans-79" d="M 2059 -325 
Q 1816 -950 1584 -1140 
Q 1353 -1331 966 -1331 
L 506 -1331 
L 506 -850 
L 844 -850 
Q 1081 -850 1212 -737 
Q 1344 -625 1503 -206 
L 1606 56 
L 191 3500 
L 800 3500 
L 1894 763 
L 2988 3500 
L 3597 3500 
L 2059 -325 
z
" transform="scale(0.015625)"/>
      <path id="DejaVuSans-3a" d="M 750 794 
L 1409 794 
L 1409 0 
L 750 0 
L 750 794 
z
M 750 3309 
L 1409 3309 
L 1409 2516 
L 750 2516 
L 750 3309 
z
" transform="scale(0.015625)"/>
      <path id="DejaVuSans-66" d="M 2375 4863 
L 2375 4384 
L 1825 4384 
Q 1516 4384 1395 4259 
Q 1275 4134 1275 3809 
L 1275 3500 
L 2222 3500 
L 2222 3053 
L 1275 3053 
L 1275 0 
L 697 0 
L 697 3053 
L 147 3053 
L 147 3500 
L 697 3500 
L 697 3744 
Q 697 4328 969 4595 
Q 1241 4863 1831 4863 
L 2375 4863 
z
" transform="scale(0.015625)"/>
      <path id="DejaVuSans-6e" d="M 3513 2113 
L 3513 0 
L 2938 0 
L 2938 2094 
Q 2938 2591 2744 2837 
Q 2550 3084 2163 3084 
Q 1697 3084 1428 2787 
Q 1159 2491 1159 1978 
L 1159 0 
L 581 0 
L 581 3500 
L 1159 3500 
L 1159 2956 
Q 1366 3272 1645 3428 
Q 1925 3584 2291 3584 
Q 2894 3584 3203 3211 
Q 3513 2838 3513 2113 
z
" transform="scale(0.015625)"/>
      <path id="DejaVuSans-5f" d="M 3263 -1063 
L 3263 -1509 
L -63 -1509 
L -63 -1063 
L 3263 -1063 
z
" transform="scale(0.015625)"/>
     </defs>
     <use xlink:href="#DejaVuSans-20"/>
     <use xlink:href="#DejaVuSans-43" transform="translate(31.787109 0)"/>
     <use xlink:href="#DejaVuSans-6f" transform="translate(101.611328 0)"/>
     <use xlink:href="#DejaVuSans-6c" transform="translate(162.792969 0)"/>
     <use xlink:href="#DejaVuSans-6f" transform="translate(190.576172 0)"/>
     <use xlink:href="#DejaVuSans-72" transform="translate(251.757812 0)"/>
     <use xlink:href="#DejaVuSans-65" transform="translate(290.621094 0)"/>
     <use xlink:href="#DejaVuSans-64" transform="translate(352.144531 0)"/>
     <use xlink:href="#DejaVuSans-20" transform="translate(415.621094 0)"/>
     <use xlink:href="#DejaVuSans-62" transform="translate(447.408203 0)"/>
     <use xlink:href="#DejaVuSans-79" transform="translate(510.884766 0)"/>
     <use xlink:href="#DejaVuSans-3a" transform="translate(562.814453 0)"/>
     <use xlink:href="#DejaVuSans-20" transform="translate(596.505859 0)"/>
     <use xlink:href="#DejaVuSans-66" transform="translate(628.292969 0)"/>
     <use xlink:href="#DejaVuSans-75" transform="translate(663.498047 0)"/>
     <use xlink:href="#DejaVuSans-6e" transform="translate(726.876953 0)"/>
     <use xlink:href="#DejaVuSans-63" transform="translate(790.255859 0)"/>
     <use xlink:href="#DejaVuSans-5f" transform="translate(845.236328 0)"/>
     <use xlink:href="#DejaVuSans-6f" transform="translate(895.236328 0)"/>
     <use xlink:href="#DejaVuSans-6c" transform="translate(956.417969 0)"/>
     <use xlink:href="#DejaVuSans-64" transform="translate(984.201172 0)"/>
    </g>
   </g>
   <g id="legend_1">
    <g id="patch_7">
     <path d="M 302.823438 192.075625 
L 402.7 192.075625 
Q 404.9 192.075625 404.9 189.875625 
L 404.9 94.1 
Q 404.9 91.9 402.7 91.9 
L 302.823438 91.9 
Q 300.623438 91.9 300.623438 94.1 
L 300.623438 189.875625 
Q 300.623438 192.075625 302.823438 192.075625 
z
" style="fill: #ffffff; opacity: 0.8; stroke: #cccccc; stroke-linejoin: miter"/>
    </g>
    <g id="line2d_44">
     <path d="M 305.023438 100.808281 
L 316.023438 100.808281 
L 327.023438 100.808281 
" style="fill: none; stroke: #66c2a5; stroke-width: 1.5; stroke-linecap: round"/>
    </g>
    <g id="text_16">
     <!-- exponential -->
     <g style="fill: #262626" transform="translate(335.823438 104.658281) scale(0.11 -0.11)">
      <defs>
       <path id="DejaVuSans-78" d="M 3513 3500 
L 2247 1797 
L 3578 0 
L 2900 0 
L 1881 1375 
L 863 0 
L 184 0 
L 1544 1831 
L 300 3500 
L 978 3500 
L 1906 2253 
L 2834 3500 
L 3513 3500 
z
" transform="scale(0.015625)"/>
       <path id="DejaVuSans-70" d="M 1159 525 
L 1159 -1331 
L 581 -1331 
L 581 3500 
L 1159 3500 
L 1159 2969 
Q 1341 3281 1617 3432 
Q 1894 3584 2278 3584 
Q 2916 3584 3314 3078 
Q 3713 2572 3713 1747 
Q 3713 922 3314 415 
Q 2916 -91 2278 -91 
Q 1894 -91 1617 61 
Q 1341 213 1159 525 
z
M 3116 1747 
Q 3116 2381 2855 2742 
Q 2594 3103 2138 3103 
Q 1681 3103 1420 2742 
Q 1159 2381 1159 1747 
Q 1159 1113 1420 752 
Q 1681 391 2138 391 
Q 2594 391 2855 752 
Q 3116 1113 3116 1747 
z
" transform="scale(0.015625)"/>
      </defs>
      <use xlink:href="#DejaVuSans-65"/>
      <use xlink:href="#DejaVuSans-78" transform="translate(59.773438 0)"/>
      <use xlink:href="#DejaVuSans-70" transform="translate(118.953125 0)"/>
      <use xlink:href="#DejaVuSans-6f" transform="translate(182.429688 0)"/>
      <use xlink:href="#DejaVuSans-6e" transform="translate(243.611328 0)"/>
      <use xlink:href="#DejaVuSans-65" transform="translate(306.990234 0)"/>
      <use xlink:href="#DejaVuSans-6e" transform="translate(368.513672 0)"/>
      <use xlink:href="#DejaVuSans-74" transform="translate(431.892578 0)"/>
      <use xlink:href="#DejaVuSans-69" transform="translate(471.101562 0)"/>
      <use xlink:href="#DejaVuSans-61" transform="translate(498.884766 0)"/>
      <use xlink:href="#DejaVuSans-6c" transform="translate(560.164062 0)"/>
     </g>
    </g>
    <g id="line2d_45">
     <path d="M 305.023438 116.954219 
L 316.023438 116.954219 
L 327.023438 116.954219 
" style="fill: none; stroke: #e78ac3; stroke-width: 1.5; stroke-linecap: round"/>
    </g>
    <g id="text_17">
     <!-- linear -->
     <g style="fill: #262626" transform="translate(335.823438 120.804219) scale(0.11 -0.11)">
      <use xlink:href="#DejaVuSans-6c"/>
      <use xlink:href="#DejaVuSans-69" transform="translate(27.783203 0)"/>
      <use xlink:href="#DejaVuSans-6e" transform="translate(55.566406 0)"/>
      <use xlink:href="#DejaVuSans-65" transform="translate(118.945312 0)"/>
      <use xlink:href="#DejaVuSans-61" transform="translate(180.46875 0)"/>
      <use xlink:href="#DejaVuSans-72" transform="translate(241.748047 0)"/>
     </g>
    </g>
    <g id="line2d_46">
     <path d="M 305.023438 133.100156 
L 316.023438 133.100156 
L 327.023438 133.100156 
" style="fill: none; stroke: #ffd92f; stroke-width: 1.5; stroke-linecap: round"/>
    </g>
    <g id="text_18">
     <!-- poly -->
     <g style="fill: #262626" transform="translate(335.823438 136.950156) scale(0.11 -0.11)">
      <use xlink:href="#DejaVuSans-70"/>
      <use xlink:href="#DejaVuSans-6f" transform="translate(63.476562 0)"/>
      <use xlink:href="#DejaVuSans-6c" transform="translate(124.658203 0)"/>
      <use xlink:href="#DejaVuSans-79" transform="translate(152.441406 0)"/>
     </g>
    </g>
    <g id="line2d_47">
     <path d="M 305.023438 149.246094 
L 316.023438 149.246094 
L 327.023438 149.246094 
" style="fill: none; stroke: #e5c494; stroke-width: 1.5; stroke-linecap: round"/>
    </g>
    <g id="text_19">
     <!-- scurve -->
     <g style="fill: #262626" transform="translate(335.823438 153.096094) scale(0.11 -0.11)">
      <defs>
       <path id="DejaVuSans-76" d="M 191 3500 
L 800 3500 
L 1894 563 
L 2988 3500 
L 3597 3500 
L 2284 0 
L 1503 0 
L 191 3500 
z
" transform="scale(0.015625)"/>
      </defs>
      <use xlink:href="#DejaVuSans-73"/>
      <use xlink:href="#DejaVuSans-63" transform="translate(52.099609 0)"/>
      <use xlink:href="#DejaVuSans-75" transform="translate(107.080078 0)"/>
      <use xlink:href="#DejaVuSans-72" transform="translate(170.458984 0)"/>
      <use xlink:href="#DejaVuSans-76" transform="translate(211.572266 0)"/>
      <use xlink:href="#DejaVuSans-65" transform="translate(270.751953 0)"/>
     </g>
    </g>
    <g id="line2d_48">
     <path d="M 305.023438 165.392031 
L 316.023438 165.392031 
L 327.023438 165.392031 
" style="fill: none; stroke: #66c2a5; stroke-width: 1.5; stroke-linecap: round"/>
    </g>
    <g id="text_20">
     <!-- tan -->
     <g style="fill: #262626" transform="translate(335.823438 169.242031) scale(0.11 -0.11)">
      <use xlink:href="#DejaVuSans-74"/>
      <use xlink:href="#DejaVuSans-61" transform="translate(39.208984 0)"/>
      <use xlink:href="#DejaVuSans-6e" transform="translate(100.488281 0)"/>
     </g>
    </g>
    <g id="line2d_49">
     <path d="M 305.023438 181.537969 
L 316.023438 181.537969 
L 327.023438 181.537969 
" style="fill: none; stroke-dasharray: 24,6; stroke-dashoffset: 0; stroke: #000000; stroke-width: 3"/>
    </g>
    <g id="text_21">
     <!-- Mean -->
     <g style="fill: #262626" transform="translate(335.823438 185.387969) scale(0.11 -0.11)">
      <defs>
       <path id="DejaVuSans-4d" d="M 628 4666 
L 1569 4666 
L 2759 1491 
L 3956 4666 
L 4897 4666 
L 4897 0 
L 4281 0 
L 4281 4097 
L 3078 897 
L 2444 897 
L 1241 4097 
L 1241 0 
L 628 0 
L 628 4666 
z
" transform="scale(0.015625)"/>
      </defs>
      <use xlink:href="#DejaVuSans-4d"/>
      <use xlink:href="#DejaVuSans-65" transform="translate(86.279297 0)"/>
      <use xlink:href="#DejaVuSans-61" transform="translate(147.802734 0)"/>
      <use xlink:href="#DejaVuSans-6e" transform="translate(209.082031 0)"/>
     </g>
    </g>
   </g>
  </g>
 </g>
 <defs>
  <clipPath id="p2e9c2be445">
   <rect x="64.8" y="86.4" width="345.6" height="374.4"/>
  </clipPath>
 </defs>
</svg>
