<?xml version="1.0" encoding="utf-8" standalone="no"?>
<!DOCTYPE svg PUBLIC "-//W3C//DTD SVG 1.1//EN"
  "http://www.w3.org/Graphics/SVG/1.1/DTD/svg11.dtd">
<svg xmlns:xlink="http://www.w3.org/1999/xlink" width="432pt" height="576pt" viewBox="0 0 432 576" xmlns="http://www.w3.org/2000/svg" version="1.1">
 <metadata>
  <rdf:RDF xmlns:dc="http://purl.org/dc/elements/1.1/" xmlns:cc="http://creativecommons.org/ns#" xmlns:rdf="http://www.w3.org/1999/02/22-rdf-syntax-ns#">
   <cc:Work>
    <dc:type rdf:resource="http://purl.org/dc/dcmitype/StillImage"/>
    <dc:date>2025-10-08T19:08:19.616977</dc:date>
    <dc:format>image/svg+xml</dc:format>
    <dc:creator>
     <cc:Agent>
      <dc:title>Matplotlib v3.10.3, https://matplotlib.org/</dc:title>
     </cc:Agent>
    </dc:creator>
   </cc:Work>
  </rdf:RDF>
 </metadata>
 <defs>
  <style type="text/css">*{stroke-linejoin: round; stroke-linecap: butt}</style>
 </defs>
 <g id="figure_1">
  <g id="patch_1">
   <path d="M 0 576 
L 432 576 
L 432 0 
L 0 0 
z
" style="fill: #ffffff"/>
  </g>
  <g id="axes_1">
   <g id="patch_2">
    <path d="M 64.8 460.8 
L 410.4 460.8 
L 410.4 86.4 
L 64.8 86.4 
z
" style="fill: #ffffff"/>
   </g>
   <g id="matplotlib.axis_1">
    <g id="xtick_1">
     <g id="line2d_1">
      <path d="M 102.26721 460.8 
L 102.26721 86.4 
" clip-path="url(#p6d19443a54)" style="fill: none; stroke: #cccccc; stroke-linecap: round"/>
     </g>
     <g id="text_1">
      <!-- 0.0 -->
      <g style="fill: #262626" transform="translate(93.520491 478.658281) scale(0.11 -0.11)">
       <defs>
        <path id="DejaVuSans-30" d="M 2034 4250 
Q 1547 4250 1301 3770 
Q 1056 3291 1056 2328 
Q 1056 1369 1301 889 
Q 1547 409 2034 409 
Q 2525 409 2770 889 
Q 3016 1369 3016 2328 
Q 3016 3291 2770 3770 
Q 2525 4250 2034 4250 
z
M 2034 4750 
Q 2819 4750 3233 4129 
Q 3647 3509 3647 2328 
Q 3647 1150 3233 529 
Q 2819 -91 2034 -91 
Q 1250 -91 836 529 
Q 422 1150 422 2328 
Q 422 3509 836 4129 
Q 1250 4750 2034 4750 
z
" transform="scale(0.015625)"/>
        <path id="DejaVuSans-2e" d="M 684 794 
L 1344 794 
L 1344 0 
L 684 0 
L 684 794 
z
" transform="scale(0.015625)"/>
       </defs>
       <use xlink:href="#DejaVuSans-30"/>
       <use xlink:href="#DejaVuSans-2e" transform="translate(63.623047 0)"/>
       <use xlink:href="#DejaVuSans-30" transform="translate(95.410156 0)"/>
      </g>
     </g>
    </g>
    <g id="xtick_2">
     <g id="line2d_2">
      <path d="M 140.744013 460.8 
L 140.744013 86.4 
" clip-path="url(#p6d19443a54)" style="fill: none; stroke: #cccccc; stroke-linecap: round"/>
     </g>
     <g id="text_2">
      <!-- 2.5 -->
      <g style="fill: #262626" transform="translate(131.997294 478.658281) scale(0.11 -0.11)">
       <defs>
        <path id="DejaVuSans-32" d="M 1228 531 
L 3431 531 
L 3431 0 
L 469 0 
L 469 531 
Q 828 903 1448 1529 
Q 2069 2156 2228 2338 
Q 2531 2678 2651 2914 
Q 2772 3150 2772 3378 
Q 2772 3750 2511 3984 
Q 2250 4219 1831 4219 
Q 1534 4219 1204 4116 
Q 875 4013 500 3803 
L 500 4441 
Q 881 4594 1212 4672 
Q 1544 4750 1819 4750 
Q 2544 4750 2975 4387 
Q 3406 4025 3406 3419 
Q 3406 3131 3298 2873 
Q 3191 2616 2906 2266 
Q 2828 2175 2409 1742 
Q 1991 1309 1228 531 
z
" transform="scale(0.015625)"/>
        <path id="DejaVuSans-35" d="M 691 4666 
L 3169 4666 
L 3169 4134 
L 1269 4134 
L 1269 2991 
Q 1406 3038 1543 3061 
Q 1681 3084 1819 3084 
Q 2600 3084 3056 2656 
Q 3513 2228 3513 1497 
Q 3513 744 3044 326 
Q 2575 -91 1722 -91 
Q 1428 -91 1123 -41 
Q 819 9 494 109 
L 494 744 
Q 775 591 1075 516 
Q 1375 441 1709 441 
Q 2250 441 2565 725 
Q 2881 1009 2881 1497 
Q 2881 1984 2565 2268 
Q 2250 2553 1709 2553 
Q 1456 2553 1204 2497 
Q 953 2441 691 2322 
L 691 4666 
z
" transform="scale(0.015625)"/>
       </defs>
       <use xlink:href="#DejaVuSans-32"/>
       <use xlink:href="#DejaVuSans-2e" transform="translate(63.623047 0)"/>
       <use xlink:href="#DejaVuSans-35" transform="translate(95.410156 0)"/>
      </g>
     </g>
    </g>
    <g id="xtick_3">
     <g id="line2d_3">
      <path d="M 179.220815 460.8 
L 179.220815 86.4 
" clip-path="url(#p6d19443a54)" style="fill: none; stroke: #cccccc; stroke-linecap: round"/>
     </g>
     <g id="text_3">
      <!-- 5.0 -->
      <g style="fill: #262626" transform="translate(170.474096 478.658281) scale(0.11 -0.11)">
       <use xlink:href="#DejaVuSans-35"/>
       <use xlink:href="#DejaVuSans-2e" transform="translate(63.623047 0)"/>
       <use xlink:href="#DejaVuSans-30" transform="translate(95.410156 0)"/>
      </g>
     </g>
    </g>
    <g id="xtick_4">
     <g id="line2d_4">
      <path d="M 217.697618 460.8 
L 217.697618 86.4 
" clip-path="url(#p6d19443a54)" style="fill: none; stroke: #cccccc; stroke-linecap: round"/>
     </g>
     <g id="text_4">
      <!-- 7.5 -->
      <g style="fill: #262626" transform="translate(208.950899 478.658281) scale(0.11 -0.11)">
       <defs>
        <path id="DejaVuSans-37" d="M 525 4666 
L 3525 4666 
L 3525 4397 
L 1831 0 
L 1172 0 
L 2766 4134 
L 525 4134 
L 525 4666 
z
" transform="scale(0.015625)"/>
       </defs>
       <use xlink:href="#DejaVuSans-37"/>
       <use xlink:href="#DejaVuSans-2e" transform="translate(63.623047 0)"/>
       <use xlink:href="#DejaVuSans-35" transform="translate(95.410156 0)"/>
      </g>
     </g>
    </g>
    <g id="xtick_5">
     <g id="line2d_5">
      <path d="M 256.17442 460.8 
L 256.17442 86.4 
" clip-path="url(#p6d19443a54)" style="fill: none; stroke: #cccccc; stroke-linecap: round"/>
     </g>
     <g id="text_5">
      <!-- 10.0 -->
      <g style="fill: #262626" transform="translate(243.928326 478.658281) scale(0.11 -0.11)">
       <defs>
        <path id="DejaVuSans-31" d="M 794 531 
L 1825 531 
L 1825 4091 
L 703 3866 
L 703 4441 
L 1819 4666 
L 2450 4666 
L 2450 531 
L 3481 531 
L 3481 0 
L 794 0 
L 794 531 
z
" transform="scale(0.015625)"/>
       </defs>
       <use xlink:href="#DejaVuSans-31"/>
       <use xlink:href="#DejaVuSans-30" transform="translate(63.623047 0)"/>
       <use xlink:href="#DejaVuSans-2e" transform="translate(127.246094 0)"/>
       <use xlink:href="#DejaVuSans-30" transform="translate(159.033203 0)"/>
      </g>
     </g>
    </g>
    <g id="xtick_6">
     <g id="line2d_6">
      <path d="M 294.651223 460.8 
L 294.651223 86.4 
" clip-path="url(#p6d19443a54)" style="fill: none; stroke: #cccccc; stroke-linecap: round"/>
     </g>
     <g id="text_6">
      <!-- 12.5 -->
      <g style="fill: #262626" transform="translate(282.405129 478.658281) scale(0.11 -0.11)">
       <use xlink:href="#DejaVuSans-31"/>
       <use xlink:href="#DejaVuSans-32" transform="translate(63.623047 0)"/>
       <use xlink:href="#DejaVuSans-2e" transform="translate(127.246094 0)"/>
       <use xlink:href="#DejaVuSans-35" transform="translate(159.033203 0)"/>
      </g>
     </g>
    </g>
    <g id="xtick_7">
     <g id="line2d_7">
      <path d="M 333.128025 460.8 
L 333.128025 86.4 
" clip-path="url(#p6d19443a54)" style="fill: none; stroke: #cccccc; stroke-linecap: round"/>
     </g>
     <g id="text_7">
      <!-- 15.0 -->
      <g style="fill: #262626" transform="translate(320.881931 478.658281) scale(0.11 -0.11)">
       <use xlink:href="#DejaVuSans-31"/>
       <use xlink:href="#DejaVuSans-35" transform="translate(63.623047 0)"/>
       <use xlink:href="#DejaVuSans-2e" transform="translate(127.246094 0)"/>
       <use xlink:href="#DejaVuSans-30" transform="translate(159.033203 0)"/>
      </g>
     </g>
    </g>
    <g id="xtick_8">
     <g id="line2d_8">
      <path d="M 371.604828 460.8 
L 371.604828 86.4 
" clip-path="url(#p6d19443a54)" style="fill: none; stroke: #cccccc; stroke-linecap: round"/>
     </g>
     <g id="text_8">
      <!-- 17.5 -->
      <g style="fill: #262626" transform="translate(359.358734 478.658281) scale(0.11 -0.11)">
       <use xlink:href="#DejaVuSans-31"/>
       <use xlink:href="#DejaVuSans-37" transform="translate(63.623047 0)"/>
       <use xlink:href="#DejaVuSans-2e" transform="translate(127.246094 0)"/>
       <use xlink:href="#DejaVuSans-35" transform="translate(159.033203 0)"/>
      </g>
     </g>
    </g>
    <g id="xtick_9">
     <g id="line2d_9">
      <path d="M 410.08163 460.8 
L 410.08163 86.4 
" clip-path="url(#p6d19443a54)" style="fill: none; stroke: #cccccc; stroke-linecap: round"/>
     </g>
     <g id="text_9">
      <!-- 20.0 -->
      <g style="fill: #262626" transform="translate(397.835536 478.658281) scale(0.11 -0.11)">
       <use xlink:href="#DejaVuSans-32"/>
       <use xlink:href="#DejaVuSans-30" transform="translate(63.623047 0)"/>
       <use xlink:href="#DejaVuSans-2e" transform="translate(127.246094 0)"/>
       <use xlink:href="#DejaVuSans-30" transform="translate(159.033203 0)"/>
      </g>
     </g>
    </g>
   </g>
   <g id="matplotlib.axis_2">
    <g id="ytick_1">
     <g id="line2d_10">
      <path d="M 64.8 414.774765 
L 410.4 414.774765 
" clip-path="url(#p6d19443a54)" style="fill: none; stroke: #cccccc; stroke-linecap: round"/>
     </g>
     <g id="text_10">
      <!-- −75 -->
      <g style="fill: #262626" transform="translate(32.084844 418.953905) scale(0.11 -0.11)">
       <defs>
        <path id="DejaVuSans-2212" d="M 678 2272 
L 4684 2272 
L 4684 1741 
L 678 1741 
L 678 2272 
z
" transform="scale(0.015625)"/>
       </defs>
       <use xlink:href="#DejaVuSans-2212"/>
       <use xlink:href="#DejaVuSans-37" transform="translate(83.789062 0)"/>
       <use xlink:href="#DejaVuSans-35" transform="translate(147.412109 0)"/>
      </g>
     </g>
    </g>
    <g id="ytick_2">
     <g id="line2d_11">
      <path d="M 64.8 362.976455 
L 410.4 362.976455 
" clip-path="url(#p6d19443a54)" style="fill: none; stroke: #cccccc; stroke-linecap: round"/>
     </g>
     <g id="text_11">
      <!-- −50 -->
      <g style="fill: #262626" transform="translate(32.084844 367.155596) scale(0.11 -0.11)">
       <use xlink:href="#DejaVuSans-2212"/>
       <use xlink:href="#DejaVuSans-35" transform="translate(83.789062 0)"/>
       <use xlink:href="#DejaVuSans-30" transform="translate(147.412109 0)"/>
      </g>
     </g>
    </g>
    <g id="ytick_3">
     <g id="line2d_12">
      <path d="M 64.8 311.178146 
L 410.4 311.178146 
" clip-path="url(#p6d19443a54)" style="fill: none; stroke: #cccccc; stroke-linecap: round"/>
     </g>
     <g id="text_12">
      <!-- −25 -->
      <g style="fill: #262626" transform="translate(32.084844 315.357286) scale(0.11 -0.11)">
       <use xlink:href="#DejaVuSans-2212"/>
       <use xlink:href="#DejaVuSans-32" transform="translate(83.789062 0)"/>
       <use xlink:href="#DejaVuSans-35" transform="translate(147.412109 0)"/>
      </g>
     </g>
    </g>
    <g id="ytick_4">
     <g id="line2d_13">
      <path d="M 64.8 259.379836 
L 410.4 259.379836 
" clip-path="url(#p6d19443a54)" style="fill: none; stroke: #cccccc; stroke-linecap: round"/>
     </g>
     <g id="text_13">
      <!-- 0 -->
      <g style="fill: #262626" transform="translate(48.30125 263.558977) scale(0.11 -0.11)">
       <use xlink:href="#DejaVuSans-30"/>
      </g>
     </g>
    </g>
    <g id="ytick_5">
     <g id="line2d_14">
      <path d="M 64.8 207.581527 
L 410.4 207.581527 
" clip-path="url(#p6d19443a54)" style="fill: none; stroke: #cccccc; stroke-linecap: round"/>
     </g>
     <g id="text_14">
      <!-- 25 -->
      <g style="fill: #262626" transform="translate(41.3025 211.760667) scale(0.11 -0.11)">
       <use xlink:href="#DejaVuSans-32"/>
       <use xlink:href="#DejaVuSans-35" transform="translate(63.623047 0)"/>
      </g>
     </g>
    </g>
    <g id="ytick_6">
     <g id="line2d_15">
      <path d="M 64.8 155.783217 
L 410.4 155.783217 
" clip-path="url(#p6d19443a54)" style="fill: none; stroke: #cccccc; stroke-linecap: round"/>
     </g>
     <g id="text_15">
      <!-- 50 -->
      <g style="fill: #262626" transform="translate(41.3025 159.962358) scale(0.11 -0.11)">
       <use xlink:href="#DejaVuSans-35"/>
       <use xlink:href="#DejaVuSans-30" transform="translate(63.623047 0)"/>
      </g>
     </g>
    </g>
    <g id="ytick_7">
     <g id="line2d_16">
      <path d="M 64.8 103.984908 
L 410.4 103.984908 
" clip-path="url(#p6d19443a54)" style="fill: none; stroke: #cccccc; stroke-linecap: round"/>
     </g>
     <g id="text_16">
      <!-- 75 -->
      <g style="fill: #262626" transform="translate(41.3025 108.164048) scale(0.11 -0.11)">
       <use xlink:href="#DejaVuSans-37"/>
       <use xlink:href="#DejaVuSans-35" transform="translate(63.623047 0)"/>
      </g>
     </g>
    </g>
   </g>
   <g id="line2d_17">
    <path d="M 102.26721 164.43279 
L 117.657931 164.43279 
L 133.048652 164.43279 
L 148.439373 164.43279 
L 163.830094 226.513919 
L 179.220815 248.0033 
L 194.611536 255.441848 
L 210.002257 258.016702 
L 225.392978 258.907987 
L 240.783699 259.216506 
L 256.17442 259.323299 
L 271.565141 259.360266 
L 286.955862 259.373062 
L 302.346583 259.377491 
L 317.737304 259.379025 
L 333.128025 259.379555 
L 348.518746 259.379739 
L 363.909467 259.379803 
L 379.300188 259.379825 
L 394.690909 259.379832 
" clip-path="url(#p6d19443a54)" style="fill: none; stroke: #66c2a5; stroke-width: 1.5; stroke-linecap: round"/>
   </g>
   <g id="line2d_18">
    <path d="M 102.26721 164.43279 
L 117.657931 164.43279 
L 133.048652 164.43279 
L 148.439373 164.43279 
L 163.830094 226.513919 
L 179.220815 248.0033 
L 194.611536 255.441848 
L 210.002257 258.016702 
L 225.392978 258.907987 
L 240.783699 259.216506 
L 256.17442 259.323299 
L 271.565141 259.360266 
L 286.955862 259.373062 
L 302.346583 259.377491 
L 317.737304 259.379025 
L 333.128025 259.379555 
L 348.518746 259.379739 
L 363.909467 259.379803 
L 379.300188 259.379825 
L 394.690909 259.379832 
" clip-path="url(#p6d19443a54)" style="fill: none; stroke: #66c2a5; stroke-width: 1.5; stroke-linecap: round"/>
    <defs>
     <path id="mcfa67afdae" d="M 0 3 
C 0.795609 3 1.55874 2.683901 2.12132 2.12132 
C 2.683901 1.55874 3 0.795609 3 0 
C 3 -0.795609 2.683901 -1.55874 2.12132 -2.12132 
C 1.55874 -2.683901 0.795609 -3 0 -3 
C -0.795609 -3 -1.55874 -2.683901 -2.12132 -2.12132 
C -2.683901 -1.55874 -3 -0.795609 -3 0 
C -3 0.795609 -2.683901 1.55874 -2.12132 2.12132 
C -1.55874 2.683901 -0.795609 3 0 3 
z
" style="stroke: #66c2a5"/>
    </defs>
    <g clip-path="url(#p6d19443a54)">
     <use xlink:href="#mcfa67afdae" x="102.26721" y="164.43279" style="fill: #66c2a5; stroke: #66c2a5"/>
     <use xlink:href="#mcfa67afdae" x="117.657931" y="164.43279" style="fill: #66c2a5; stroke: #66c2a5"/>
     <use xlink:href="#mcfa67afdae" x="133.048652" y="164.43279" style="fill: #66c2a5; stroke: #66c2a5"/>
     <use xlink:href="#mcfa67afdae" x="148.439373" y="164.43279" style="fill: #66c2a5; stroke: #66c2a5"/>
     <use xlink:href="#mcfa67afdae" x="163.830094" y="226.513919" style="fill: #66c2a5; stroke: #66c2a5"/>
     <use xlink:href="#mcfa67afdae" x="179.220815" y="248.0033" style="fill: #66c2a5; stroke: #66c2a5"/>
     <use xlink:href="#mcfa67afdae" x="194.611536" y="255.441848" style="fill: #66c2a5; stroke: #66c2a5"/>
     <use xlink:href="#mcfa67afdae" x="210.002257" y="258.016702" style="fill: #66c2a5; stroke: #66c2a5"/>
     <use xlink:href="#mcfa67afdae" x="225.392978" y="258.907987" style="fill: #66c2a5; stroke: #66c2a5"/>
     <use xlink:href="#mcfa67afdae" x="240.783699" y="259.216506" style="fill: #66c2a5; stroke: #66c2a5"/>
     <use xlink:href="#mcfa67afdae" x="256.17442" y="259.323299" style="fill: #66c2a5; stroke: #66c2a5"/>
     <use xlink:href="#mcfa67afdae" x="271.565141" y="259.360266" style="fill: #66c2a5; stroke: #66c2a5"/>
     <use xlink:href="#mcfa67afdae" x="286.955862" y="259.373062" style="fill: #66c2a5; stroke: #66c2a5"/>
     <use xlink:href="#mcfa67afdae" x="302.346583" y="259.377491" style="fill: #66c2a5; stroke: #66c2a5"/>
     <use xlink:href="#mcfa67afdae" x="317.737304" y="259.379025" style="fill: #66c2a5; stroke: #66c2a5"/>
     <use xlink:href="#mcfa67afdae" x="333.128025" y="259.379555" style="fill: #66c2a5; stroke: #66c2a5"/>
     <use xlink:href="#mcfa67afdae" x="348.518746" y="259.379739" style="fill: #66c2a5; stroke: #66c2a5"/>
     <use xlink:href="#mcfa67afdae" x="363.909467" y="259.379803" style="fill: #66c2a5; stroke: #66c2a5"/>
     <use xlink:href="#mcfa67afdae" x="379.300188" y="259.379825" style="fill: #66c2a5; stroke: #66c2a5"/>
     <use xlink:href="#mcfa67afdae" x="394.690909" y="259.379832" style="fill: #66c2a5; stroke: #66c2a5"/>
    </g>
   </g>
   <g id="line2d_19">
    <path d="M 102.26721 103.418182 
L 117.657931 103.418182 
L 133.048652 103.418182 
L 148.439373 103.418182 
L 163.830094 103.418182 
L 179.220815 103.418182 
L 194.611536 222.021622 
L 210.002257 250.431251 
L 225.392978 257.23634 
L 240.783699 258.866395 
L 256.17442 259.256849 
L 271.565141 259.350377 
L 286.955862 259.37278 
L 302.346583 259.378146 
L 317.737304 259.379431 
L 333.128025 259.379739 
L 348.518746 259.379813 
L 363.909467 259.379831 
L 379.300188 259.379835 
L 394.690909 259.379836 
" clip-path="url(#p6d19443a54)" style="fill: none; stroke: #66c2a5; stroke-width: 1.5; stroke-linecap: round"/>
   </g>
   <g id="line2d_20">
    <path d="M 102.26721 103.418182 
L 117.657931 103.418182 
L 133.048652 103.418182 
L 148.439373 103.418182 
L 163.830094 103.418182 
L 179.220815 103.418182 
L 194.611536 222.021622 
L 210.002257 250.431251 
L 225.392978 257.23634 
L 240.783699 258.866395 
L 256.17442 259.256849 
L 271.565141 259.350377 
L 286.955862 259.37278 
L 302.346583 259.378146 
L 317.737304 259.379431 
L 333.128025 259.379739 
L 348.518746 259.379813 
L 363.909467 259.379831 
L 379.300188 259.379835 
L 394.690909 259.379836 
" clip-path="url(#p6d19443a54)" style="fill: none; stroke: #66c2a5; stroke-width: 1.5; stroke-linecap: round"/>
    <g clip-path="url(#p6d19443a54)">
     <use xlink:href="#mcfa67afdae" x="102.26721" y="103.418182" style="fill: #66c2a5; stroke: #66c2a5"/>
     <use xlink:href="#mcfa67afdae" x="117.657931" y="103.418182" style="fill: #66c2a5; stroke: #66c2a5"/>
     <use xlink:href="#mcfa67afdae" x="133.048652" y="103.418182" style="fill: #66c2a5; stroke: #66c2a5"/>
     <use xlink:href="#mcfa67afdae" x="148.439373" y="103.418182" style="fill: #66c2a5; stroke: #66c2a5"/>
     <use xlink:href="#mcfa67afdae" x="163.830094" y="103.418182" style="fill: #66c2a5; stroke: #66c2a5"/>
     <use xlink:href="#mcfa67afdae" x="179.220815" y="103.418182" style="fill: #66c2a5; stroke: #66c2a5"/>
     <use xlink:href="#mcfa67afdae" x="194.611536" y="222.021622" style="fill: #66c2a5; stroke: #66c2a5"/>
     <use xlink:href="#mcfa67afdae" x="210.002257" y="250.431251" style="fill: #66c2a5; stroke: #66c2a5"/>
     <use xlink:href="#mcfa67afdae" x="225.392978" y="257.23634" style="fill: #66c2a5; stroke: #66c2a5"/>
     <use xlink:href="#mcfa67afdae" x="240.783699" y="258.866395" style="fill: #66c2a5; stroke: #66c2a5"/>
     <use xlink:href="#mcfa67afdae" x="256.17442" y="259.256849" style="fill: #66c2a5; stroke: #66c2a5"/>
     <use xlink:href="#mcfa67afdae" x="271.565141" y="259.350377" style="fill: #66c2a5; stroke: #66c2a5"/>
     <use xlink:href="#mcfa67afdae" x="286.955862" y="259.37278" style="fill: #66c2a5; stroke: #66c2a5"/>
     <use xlink:href="#mcfa67afdae" x="302.346583" y="259.378146" style="fill: #66c2a5; stroke: #66c2a5"/>
     <use xlink:href="#mcfa67afdae" x="317.737304" y="259.379431" style="fill: #66c2a5; stroke: #66c2a5"/>
     <use xlink:href="#mcfa67afdae" x="333.128025" y="259.379739" style="fill: #66c2a5; stroke: #66c2a5"/>
     <use xlink:href="#mcfa67afdae" x="348.518746" y="259.379813" style="fill: #66c2a5; stroke: #66c2a5"/>
     <use xlink:href="#mcfa67afdae" x="363.909467" y="259.379831" style="fill: #66c2a5; stroke: #66c2a5"/>
     <use xlink:href="#mcfa67afdae" x="379.300188" y="259.379835" style="fill: #66c2a5; stroke: #66c2a5"/>
     <use xlink:href="#mcfa67afdae" x="394.690909" y="259.379836" style="fill: #66c2a5; stroke: #66c2a5"/>
    </g>
   </g>
   <g id="line2d_21">
    <path d="M 102.26721 215.869256 
L 117.657931 215.869256 
L 133.048652 215.869256 
L 148.439373 215.869256 
L 163.830094 215.869256 
L 179.220815 215.869256 
L 194.611536 228.300851 
L 210.002257 240.732445 
L 225.392978 253.164039 
L 240.783699 265.595633 
L 256.17442 278.027228 
L 271.565141 290.458822 
L 286.955862 302.890416 
L 302.346583 315.322011 
L 317.737304 327.753605 
L 333.128025 340.185199 
L 348.518746 352.616793 
L 363.909467 365.048388 
L 379.300188 377.479982 
L 394.690909 389.911576 
" clip-path="url(#p6d19443a54)" style="fill: none; stroke: #e78ac3; stroke-width: 1.5; stroke-linecap: round"/>
   </g>
   <g id="line2d_22">
    <path d="M 102.26721 215.869256 
L 117.657931 215.869256 
L 133.048652 215.869256 
L 148.439373 215.869256 
L 163.830094 215.869256 
L 179.220815 215.869256 
L 194.611536 228.300851 
L 210.002257 240.732445 
L 225.392978 253.164039 
L 240.783699 265.595633 
L 256.17442 278.027228 
L 271.565141 290.458822 
L 286.955862 302.890416 
L 302.346583 315.322011 
L 317.737304 327.753605 
L 333.128025 340.185199 
L 348.518746 352.616793 
L 363.909467 365.048388 
L 379.300188 377.479982 
L 394.690909 389.911576 
" clip-path="url(#p6d19443a54)" style="fill: none; stroke: #e78ac3; stroke-width: 1.5; stroke-linecap: round"/>
    <defs>
     <path id="mb5967de4bc" d="M 0 3 
C 0.795609 3 1.55874 2.683901 2.12132 2.12132 
C 2.683901 1.55874 3 0.795609 3 0 
C 3 -0.795609 2.683901 -1.55874 2.12132 -2.12132 
C 1.55874 -2.683901 0.795609 -3 0 -3 
C -0.795609 -3 -1.55874 -2.683901 -2.12132 -2.12132 
C -2.683901 -1.55874 -3 -0.795609 -3 0 
C -3 0.795609 -2.683901 1.55874 -2.12132 2.12132 
C -1.55874 2.683901 -0.795609 3 0 3 
z
" style="stroke: #e78ac3"/>
    </defs>
    <g clip-path="url(#p6d19443a54)">
     <use xlink:href="#mb5967de4bc" x="102.26721" y="215.869256" style="fill: #e78ac3; stroke: #e78ac3"/>
     <use xlink:href="#mb5967de4bc" x="117.657931" y="215.869256" style="fill: #e78ac3; stroke: #e78ac3"/>
     <use xlink:href="#mb5967de4bc" x="133.048652" y="215.869256" style="fill: #e78ac3; stroke: #e78ac3"/>
     <use xlink:href="#mb5967de4bc" x="148.439373" y="215.869256" style="fill: #e78ac3; stroke: #e78ac3"/>
     <use xlink:href="#mb5967de4bc" x="163.830094" y="215.869256" style="fill: #e78ac3; stroke: #e78ac3"/>
     <use xlink:href="#mb5967de4bc" x="179.220815" y="215.869256" style="fill: #e78ac3; stroke: #e78ac3"/>
     <use xlink:href="#mb5967de4bc" x="194.611536" y="228.300851" style="fill: #e78ac3; stroke: #e78ac3"/>
     <use xlink:href="#mb5967de4bc" x="210.002257" y="240.732445" style="fill: #e78ac3; stroke: #e78ac3"/>
     <use xlink:href="#mb5967de4bc" x="225.392978" y="253.164039" style="fill: #e78ac3; stroke: #e78ac3"/>
     <use xlink:href="#mb5967de4bc" x="240.783699" y="265.595633" style="fill: #e78ac3; stroke: #e78ac3"/>
     <use xlink:href="#mb5967de4bc" x="256.17442" y="278.027228" style="fill: #e78ac3; stroke: #e78ac3"/>
     <use xlink:href="#mb5967de4bc" x="271.565141" y="290.458822" style="fill: #e78ac3; stroke: #e78ac3"/>
     <use xlink:href="#mb5967de4bc" x="286.955862" y="302.890416" style="fill: #e78ac3; stroke: #e78ac3"/>
     <use xlink:href="#mb5967de4bc" x="302.346583" y="315.322011" style="fill: #e78ac3; stroke: #e78ac3"/>
     <use xlink:href="#mb5967de4bc" x="317.737304" y="327.753605" style="fill: #e78ac3; stroke: #e78ac3"/>
     <use xlink:href="#mb5967de4bc" x="333.128025" y="340.185199" style="fill: #e78ac3; stroke: #e78ac3"/>
     <use xlink:href="#mb5967de4bc" x="348.518746" y="352.616793" style="fill: #e78ac3; stroke: #e78ac3"/>
     <use xlink:href="#mb5967de4bc" x="363.909467" y="365.048388" style="fill: #e78ac3; stroke: #e78ac3"/>
     <use xlink:href="#mb5967de4bc" x="379.300188" y="377.479982" style="fill: #e78ac3; stroke: #e78ac3"/>
     <use xlink:href="#mb5967de4bc" x="394.690909" y="389.911576" style="fill: #e78ac3; stroke: #e78ac3"/>
    </g>
   </g>
   <g id="line2d_23">
    <path d="M 102.26721 168.214812 
L 117.657931 168.214812 
L 133.048652 182.718338 
L 148.439373 197.221865 
L 163.830094 211.725392 
L 179.220815 226.228918 
L 194.611536 240.732445 
L 210.002257 255.235972 
L 225.392978 269.739498 
L 240.783699 284.243025 
L 256.17442 298.746552 
L 271.565141 313.250078 
L 286.955862 327.753605 
L 302.346583 342.257132 
L 317.737304 356.760658 
L 333.128025 371.264185 
L 348.518746 385.767712 
L 363.909467 400.271238 
L 379.300188 414.774765 
L 394.690909 429.278292 
" clip-path="url(#p6d19443a54)" style="fill: none; stroke: #e78ac3; stroke-width: 1.5; stroke-linecap: round"/>
   </g>
   <g id="line2d_24">
    <path d="M 102.26721 168.214812 
L 117.657931 168.214812 
L 133.048652 182.718338 
L 148.439373 197.221865 
L 163.830094 211.725392 
L 179.220815 226.228918 
L 194.611536 240.732445 
L 210.002257 255.235972 
L 225.392978 269.739498 
L 240.783699 284.243025 
L 256.17442 298.746552 
L 271.565141 313.250078 
L 286.955862 327.753605 
L 302.346583 342.257132 
L 317.737304 356.760658 
L 333.128025 371.264185 
L 348.518746 385.767712 
L 363.909467 400.271238 
L 379.300188 414.774765 
L 394.690909 429.278292 
" clip-path="url(#p6d19443a54)" style="fill: none; stroke: #e78ac3; stroke-width: 1.5; stroke-linecap: round"/>
    <g clip-path="url(#p6d19443a54)">
     <use xlink:href="#mb5967de4bc" x="102.26721" y="168.214812" style="fill: #e78ac3; stroke: #e78ac3"/>
     <use xlink:href="#mb5967de4bc" x="117.657931" y="168.214812" style="fill: #e78ac3; stroke: #e78ac3"/>
     <use xlink:href="#mb5967de4bc" x="133.048652" y="182.718338" style="fill: #e78ac3; stroke: #e78ac3"/>
     <use xlink:href="#mb5967de4bc" x="148.439373" y="197.221865" style="fill: #e78ac3; stroke: #e78ac3"/>
     <use xlink:href="#mb5967de4bc" x="163.830094" y="211.725392" style="fill: #e78ac3; stroke: #e78ac3"/>
     <use xlink:href="#mb5967de4bc" x="179.220815" y="226.228918" style="fill: #e78ac3; stroke: #e78ac3"/>
     <use xlink:href="#mb5967de4bc" x="194.611536" y="240.732445" style="fill: #e78ac3; stroke: #e78ac3"/>
     <use xlink:href="#mb5967de4bc" x="210.002257" y="255.235972" style="fill: #e78ac3; stroke: #e78ac3"/>
     <use xlink:href="#mb5967de4bc" x="225.392978" y="269.739498" style="fill: #e78ac3; stroke: #e78ac3"/>
     <use xlink:href="#mb5967de4bc" x="240.783699" y="284.243025" style="fill: #e78ac3; stroke: #e78ac3"/>
     <use xlink:href="#mb5967de4bc" x="256.17442" y="298.746552" style="fill: #e78ac3; stroke: #e78ac3"/>
     <use xlink:href="#mb5967de4bc" x="271.565141" y="313.250078" style="fill: #e78ac3; stroke: #e78ac3"/>
     <use xlink:href="#mb5967de4bc" x="286.955862" y="327.753605" style="fill: #e78ac3; stroke: #e78ac3"/>
     <use xlink:href="#mb5967de4bc" x="302.346583" y="342.257132" style="fill: #e78ac3; stroke: #e78ac3"/>
     <use xlink:href="#mb5967de4bc" x="317.737304" y="356.760658" style="fill: #e78ac3; stroke: #e78ac3"/>
     <use xlink:href="#mb5967de4bc" x="333.128025" y="371.264185" style="fill: #e78ac3; stroke: #e78ac3"/>
     <use xlink:href="#mb5967de4bc" x="348.518746" y="385.767712" style="fill: #e78ac3; stroke: #e78ac3"/>
     <use xlink:href="#mb5967de4bc" x="363.909467" y="400.271238" style="fill: #e78ac3; stroke: #e78ac3"/>
     <use xlink:href="#mb5967de4bc" x="379.300188" y="414.774765" style="fill: #e78ac3; stroke: #e78ac3"/>
     <use xlink:href="#mb5967de4bc" x="394.690909" y="429.278292" style="fill: #e78ac3; stroke: #e78ac3"/>
    </g>
   </g>
   <g id="line2d_25">
    <path d="M 102.26721 168.214812 
L 117.657931 182.718338 
L 133.048652 197.221865 
L 148.439373 211.725392 
L 163.830094 226.228918 
L 179.220815 240.732445 
L 194.611536 255.235972 
L 210.002257 269.739498 
L 225.392978 284.243025 
L 240.783699 298.746552 
L 256.17442 313.250078 
L 271.565141 327.753605 
L 286.955862 342.257132 
L 302.346583 356.760658 
L 317.737304 371.264185 
L 333.128025 385.767712 
L 348.518746 400.271238 
L 363.909467 414.774765 
L 379.300188 429.278292 
L 394.690909 443.781818 
" clip-path="url(#p6d19443a54)" style="fill: none; stroke: #e78ac3; stroke-width: 1.5; stroke-linecap: round"/>
   </g>
   <g id="line2d_26">
    <path d="M 102.26721 168.214812 
L 117.657931 182.718338 
L 133.048652 197.221865 
L 148.439373 211.725392 
L 163.830094 226.228918 
L 179.220815 240.732445 
L 194.611536 255.235972 
L 210.002257 269.739498 
L 225.392978 284.243025 
L 240.783699 298.746552 
L 256.17442 313.250078 
L 271.565141 327.753605 
L 286.955862 342.257132 
L 302.346583 356.760658 
L 317.737304 371.264185 
L 333.128025 385.767712 
L 348.518746 400.271238 
L 363.909467 414.774765 
L 379.300188 429.278292 
L 394.690909 443.781818 
" clip-path="url(#p6d19443a54)" style="fill: none; stroke: #e78ac3; stroke-width: 1.5; stroke-linecap: round"/>
    <g clip-path="url(#p6d19443a54)">
     <use xlink:href="#mb5967de4bc" x="102.26721" y="168.214812" style="fill: #e78ac3; stroke: #e78ac3"/>
     <use xlink:href="#mb5967de4bc" x="117.657931" y="182.718338" style="fill: #e78ac3; stroke: #e78ac3"/>
     <use xlink:href="#mb5967de4bc" x="133.048652" y="197.221865" style="fill: #e78ac3; stroke: #e78ac3"/>
     <use xlink:href="#mb5967de4bc" x="148.439373" y="211.725392" style="fill: #e78ac3; stroke: #e78ac3"/>
     <use xlink:href="#mb5967de4bc" x="163.830094" y="226.228918" style="fill: #e78ac3; stroke: #e78ac3"/>
     <use xlink:href="#mb5967de4bc" x="179.220815" y="240.732445" style="fill: #e78ac3; stroke: #e78ac3"/>
     <use xlink:href="#mb5967de4bc" x="194.611536" y="255.235972" style="fill: #e78ac3; stroke: #e78ac3"/>
     <use xlink:href="#mb5967de4bc" x="210.002257" y="269.739498" style="fill: #e78ac3; stroke: #e78ac3"/>
     <use xlink:href="#mb5967de4bc" x="225.392978" y="284.243025" style="fill: #e78ac3; stroke: #e78ac3"/>
     <use xlink:href="#mb5967de4bc" x="240.783699" y="298.746552" style="fill: #e78ac3; stroke: #e78ac3"/>
     <use xlink:href="#mb5967de4bc" x="256.17442" y="313.250078" style="fill: #e78ac3; stroke: #e78ac3"/>
     <use xlink:href="#mb5967de4bc" x="271.565141" y="327.753605" style="fill: #e78ac3; stroke: #e78ac3"/>
     <use xlink:href="#mb5967de4bc" x="286.955862" y="342.257132" style="fill: #e78ac3; stroke: #e78ac3"/>
     <use xlink:href="#mb5967de4bc" x="302.346583" y="356.760658" style="fill: #e78ac3; stroke: #e78ac3"/>
     <use xlink:href="#mb5967de4bc" x="317.737304" y="371.264185" style="fill: #e78ac3; stroke: #e78ac3"/>
     <use xlink:href="#mb5967de4bc" x="333.128025" y="385.767712" style="fill: #e78ac3; stroke: #e78ac3"/>
     <use xlink:href="#mb5967de4bc" x="348.518746" y="400.271238" style="fill: #e78ac3; stroke: #e78ac3"/>
     <use xlink:href="#mb5967de4bc" x="363.909467" y="414.774765" style="fill: #e78ac3; stroke: #e78ac3"/>
     <use xlink:href="#mb5967de4bc" x="379.300188" y="429.278292" style="fill: #e78ac3; stroke: #e78ac3"/>
     <use xlink:href="#mb5967de4bc" x="394.690909" y="443.781818" style="fill: #e78ac3; stroke: #e78ac3"/>
    </g>
   </g>
   <g id="line2d_27">
    <path d="M 102.26721 258.09051 
L 117.657931 258.09051 
L 133.048652 263.984766 
L 148.439373 269.879021 
L 163.830094 275.773276 
L 179.220815 281.667532 
L 194.611536 287.561787 
L 210.002257 293.456042 
L 225.392978 299.350297 
L 240.783699 305.244553 
L 256.17442 311.138808 
L 271.565141 317.033063 
L 286.955862 322.927319 
L 302.346583 328.821574 
L 317.737304 334.715829 
L 333.128025 340.610085 
L 348.518746 346.50434 
L 363.909467 352.398595 
L 379.300188 358.29285 
L 394.690909 364.187106 
" clip-path="url(#p6d19443a54)" style="fill: none; stroke: #ffd92f; stroke-width: 1.5; stroke-linecap: round"/>
   </g>
   <g id="line2d_28">
    <path d="M 102.26721 258.09051 
L 117.657931 258.09051 
L 133.048652 263.984766 
L 148.439373 269.879021 
L 163.830094 275.773276 
L 179.220815 281.667532 
L 194.611536 287.561787 
L 210.002257 293.456042 
L 225.392978 299.350297 
L 240.783699 305.244553 
L 256.17442 311.138808 
L 271.565141 317.033063 
L 286.955862 322.927319 
L 302.346583 328.821574 
L 317.737304 334.715829 
L 333.128025 340.610085 
L 348.518746 346.50434 
L 363.909467 352.398595 
L 379.300188 358.29285 
L 394.690909 364.187106 
" clip-path="url(#p6d19443a54)" style="fill: none; stroke: #ffd92f; stroke-width: 1.5; stroke-linecap: round"/>
    <defs>
     <path id="m141bb1aed8" d="M 0 3 
C 0.795609 3 1.55874 2.683901 2.12132 2.12132 
C 2.683901 1.55874 3 0.795609 3 0 
C 3 -0.795609 2.683901 -1.55874 2.12132 -2.12132 
C 1.55874 -2.683901 0.795609 -3 0 -3 
C -0.795609 -3 -1.55874 -2.683901 -2.12132 -2.12132 
C -2.683901 -1.55874 -3 -0.795609 -3 0 
C -3 0.795609 -2.683901 1.55874 -2.12132 2.12132 
C -1.55874 2.683901 -0.795609 3 0 3 
z
" style="stroke: #ffd92f"/>
    </defs>
    <g clip-path="url(#p6d19443a54)">
     <use xlink:href="#m141bb1aed8" x="102.26721" y="258.09051" style="fill: #ffd92f; stroke: #ffd92f"/>
     <use xlink:href="#m141bb1aed8" x="117.657931" y="258.09051" style="fill: #ffd92f; stroke: #ffd92f"/>
     <use xlink:href="#m141bb1aed8" x="133.048652" y="263.984766" style="fill: #ffd92f; stroke: #ffd92f"/>
     <use xlink:href="#m141bb1aed8" x="148.439373" y="269.879021" style="fill: #ffd92f; stroke: #ffd92f"/>
     <use xlink:href="#m141bb1aed8" x="163.830094" y="275.773276" style="fill: #ffd92f; stroke: #ffd92f"/>
     <use xlink:href="#m141bb1aed8" x="179.220815" y="281.667532" style="fill: #ffd92f; stroke: #ffd92f"/>
     <use xlink:href="#m141bb1aed8" x="194.611536" y="287.561787" style="fill: #ffd92f; stroke: #ffd92f"/>
     <use xlink:href="#m141bb1aed8" x="210.002257" y="293.456042" style="fill: #ffd92f; stroke: #ffd92f"/>
     <use xlink:href="#m141bb1aed8" x="225.392978" y="299.350297" style="fill: #ffd92f; stroke: #ffd92f"/>
     <use xlink:href="#m141bb1aed8" x="240.783699" y="305.244553" style="fill: #ffd92f; stroke: #ffd92f"/>
     <use xlink:href="#m141bb1aed8" x="256.17442" y="311.138808" style="fill: #ffd92f; stroke: #ffd92f"/>
     <use xlink:href="#m141bb1aed8" x="271.565141" y="317.033063" style="fill: #ffd92f; stroke: #ffd92f"/>
     <use xlink:href="#m141bb1aed8" x="286.955862" y="322.927319" style="fill: #ffd92f; stroke: #ffd92f"/>
     <use xlink:href="#m141bb1aed8" x="302.346583" y="328.821574" style="fill: #ffd92f; stroke: #ffd92f"/>
     <use xlink:href="#m141bb1aed8" x="317.737304" y="334.715829" style="fill: #ffd92f; stroke: #ffd92f"/>
     <use xlink:href="#m141bb1aed8" x="333.128025" y="340.610085" style="fill: #ffd92f; stroke: #ffd92f"/>
     <use xlink:href="#m141bb1aed8" x="348.518746" y="346.50434" style="fill: #ffd92f; stroke: #ffd92f"/>
     <use xlink:href="#m141bb1aed8" x="363.909467" y="352.398595" style="fill: #ffd92f; stroke: #ffd92f"/>
     <use xlink:href="#m141bb1aed8" x="379.300188" y="358.29285" style="fill: #ffd92f; stroke: #ffd92f"/>
     <use xlink:href="#m141bb1aed8" x="394.690909" y="364.187106" style="fill: #ffd92f; stroke: #ffd92f"/>
    </g>
   </g>
   <g id="line2d_29">
    <path d="M 102.26721 258.296759 
L 117.657931 258.296759 
L 133.048652 258.296759 
L 148.439373 258.296759 
L 163.830094 258.296759 
L 179.220815 258.296759 
L 194.611536 264.254657 
L 210.002257 270.212555 
L 225.392978 276.170453 
L 240.783699 282.128352 
L 256.17442 288.08625 
L 271.565141 294.044148 
L 286.955862 300.002046 
L 302.346583 305.959944 
L 317.737304 311.917842 
L 333.128025 317.87574 
L 348.518746 323.833638 
L 363.909467 329.791536 
L 379.300188 335.749434 
L 394.690909 341.707332 
" clip-path="url(#p6d19443a54)" style="fill: none; stroke: #ffd92f; stroke-width: 1.5; stroke-linecap: round"/>
   </g>
   <g id="line2d_30">
    <path d="M 102.26721 258.296759 
L 117.657931 258.296759 
L 133.048652 258.296759 
L 148.439373 258.296759 
L 163.830094 258.296759 
L 179.220815 258.296759 
L 194.611536 264.254657 
L 210.002257 270.212555 
L 225.392978 276.170453 
L 240.783699 282.128352 
L 256.17442 288.08625 
L 271.565141 294.044148 
L 286.955862 300.002046 
L 302.346583 305.959944 
L 317.737304 311.917842 
L 333.128025 317.87574 
L 348.518746 323.833638 
L 363.909467 329.791536 
L 379.300188 335.749434 
L 394.690909 341.707332 
" clip-path="url(#p6d19443a54)" style="fill: none; stroke: #ffd92f; stroke-width: 1.5; stroke-linecap: round"/>
    <g clip-path="url(#p6d19443a54)">
     <use xlink:href="#m141bb1aed8" x="102.26721" y="258.296759" style="fill: #ffd92f; stroke: #ffd92f"/>
     <use xlink:href="#m141bb1aed8" x="117.657931" y="258.296759" style="fill: #ffd92f; stroke: #ffd92f"/>
     <use xlink:href="#m141bb1aed8" x="133.048652" y="258.296759" style="fill: #ffd92f; stroke: #ffd92f"/>
     <use xlink:href="#m141bb1aed8" x="148.439373" y="258.296759" style="fill: #ffd92f; stroke: #ffd92f"/>
     <use xlink:href="#m141bb1aed8" x="163.830094" y="258.296759" style="fill: #ffd92f; stroke: #ffd92f"/>
     <use xlink:href="#m141bb1aed8" x="179.220815" y="258.296759" style="fill: #ffd92f; stroke: #ffd92f"/>
     <use xlink:href="#m141bb1aed8" x="194.611536" y="264.254657" style="fill: #ffd92f; stroke: #ffd92f"/>
     <use xlink:href="#m141bb1aed8" x="210.002257" y="270.212555" style="fill: #ffd92f; stroke: #ffd92f"/>
     <use xlink:href="#m141bb1aed8" x="225.392978" y="276.170453" style="fill: #ffd92f; stroke: #ffd92f"/>
     <use xlink:href="#m141bb1aed8" x="240.783699" y="282.128352" style="fill: #ffd92f; stroke: #ffd92f"/>
     <use xlink:href="#m141bb1aed8" x="256.17442" y="288.08625" style="fill: #ffd92f; stroke: #ffd92f"/>
     <use xlink:href="#m141bb1aed8" x="271.565141" y="294.044148" style="fill: #ffd92f; stroke: #ffd92f"/>
     <use xlink:href="#m141bb1aed8" x="286.955862" y="300.002046" style="fill: #ffd92f; stroke: #ffd92f"/>
     <use xlink:href="#m141bb1aed8" x="302.346583" y="305.959944" style="fill: #ffd92f; stroke: #ffd92f"/>
     <use xlink:href="#m141bb1aed8" x="317.737304" y="311.917842" style="fill: #ffd92f; stroke: #ffd92f"/>
     <use xlink:href="#m141bb1aed8" x="333.128025" y="317.87574" style="fill: #ffd92f; stroke: #ffd92f"/>
     <use xlink:href="#m141bb1aed8" x="348.518746" y="323.833638" style="fill: #ffd92f; stroke: #ffd92f"/>
     <use xlink:href="#m141bb1aed8" x="363.909467" y="329.791536" style="fill: #ffd92f; stroke: #ffd92f"/>
     <use xlink:href="#m141bb1aed8" x="379.300188" y="335.749434" style="fill: #ffd92f; stroke: #ffd92f"/>
     <use xlink:href="#m141bb1aed8" x="394.690909" y="341.707332" style="fill: #ffd92f; stroke: #ffd92f"/>
    </g>
   </g>
   <g id="line2d_31">
    <path d="M 102.26721 256.972164 
L 117.657931 256.972164 
L 133.048652 256.972164 
L 148.439373 256.972164 
L 163.830094 259.604954 
L 179.220815 262.237745 
L 194.611536 264.870535 
L 210.002257 267.503326 
L 225.392978 270.136116 
L 240.783699 272.768906 
L 256.17442 275.401697 
L 271.565141 278.034487 
L 286.955862 280.667278 
L 302.346583 283.300068 
L 317.737304 285.932859 
L 333.128025 288.565649 
L 348.518746 291.19844 
L 363.909467 293.83123 
L 379.300188 296.46402 
L 394.690909 299.096811 
" clip-path="url(#p6d19443a54)" style="fill: none; stroke: #ffd92f; stroke-width: 1.5; stroke-linecap: round"/>
   </g>
   <g id="line2d_32">
    <path d="M 102.26721 256.972164 
L 117.657931 256.972164 
L 133.048652 256.972164 
L 148.439373 256.972164 
L 163.830094 259.604954 
L 179.220815 262.237745 
L 194.611536 264.870535 
L 210.002257 267.503326 
L 225.392978 270.136116 
L 240.783699 272.768906 
L 256.17442 275.401697 
L 271.565141 278.034487 
L 286.955862 280.667278 
L 302.346583 283.300068 
L 317.737304 285.932859 
L 333.128025 288.565649 
L 348.518746 291.19844 
L 363.909467 293.83123 
L 379.300188 296.46402 
L 394.690909 299.096811 
" clip-path="url(#p6d19443a54)" style="fill: none; stroke: #ffd92f; stroke-width: 1.5; stroke-linecap: round"/>
    <g clip-path="url(#p6d19443a54)">
     <use xlink:href="#m141bb1aed8" x="102.26721" y="256.972164" style="fill: #ffd92f; stroke: #ffd92f"/>
     <use xlink:href="#m141bb1aed8" x="117.657931" y="256.972164" style="fill: #ffd92f; stroke: #ffd92f"/>
     <use xlink:href="#m141bb1aed8" x="133.048652" y="256.972164" style="fill: #ffd92f; stroke: #ffd92f"/>
     <use xlink:href="#m141bb1aed8" x="148.439373" y="256.972164" style="fill: #ffd92f; stroke: #ffd92f"/>
     <use xlink:href="#m141bb1aed8" x="163.830094" y="259.604954" style="fill: #ffd92f; stroke: #ffd92f"/>
     <use xlink:href="#m141bb1aed8" x="179.220815" y="262.237745" style="fill: #ffd92f; stroke: #ffd92f"/>
     <use xlink:href="#m141bb1aed8" x="194.611536" y="264.870535" style="fill: #ffd92f; stroke: #ffd92f"/>
     <use xlink:href="#m141bb1aed8" x="210.002257" y="267.503326" style="fill: #ffd92f; stroke: #ffd92f"/>
     <use xlink:href="#m141bb1aed8" x="225.392978" y="270.136116" style="fill: #ffd92f; stroke: #ffd92f"/>
     <use xlink:href="#m141bb1aed8" x="240.783699" y="272.768906" style="fill: #ffd92f; stroke: #ffd92f"/>
     <use xlink:href="#m141bb1aed8" x="256.17442" y="275.401697" style="fill: #ffd92f; stroke: #ffd92f"/>
     <use xlink:href="#m141bb1aed8" x="271.565141" y="278.034487" style="fill: #ffd92f; stroke: #ffd92f"/>
     <use xlink:href="#m141bb1aed8" x="286.955862" y="280.667278" style="fill: #ffd92f; stroke: #ffd92f"/>
     <use xlink:href="#m141bb1aed8" x="302.346583" y="283.300068" style="fill: #ffd92f; stroke: #ffd92f"/>
     <use xlink:href="#m141bb1aed8" x="317.737304" y="285.932859" style="fill: #ffd92f; stroke: #ffd92f"/>
     <use xlink:href="#m141bb1aed8" x="333.128025" y="288.565649" style="fill: #ffd92f; stroke: #ffd92f"/>
     <use xlink:href="#m141bb1aed8" x="348.518746" y="291.19844" style="fill: #ffd92f; stroke: #ffd92f"/>
     <use xlink:href="#m141bb1aed8" x="363.909467" y="293.83123" style="fill: #ffd92f; stroke: #ffd92f"/>
     <use xlink:href="#m141bb1aed8" x="379.300188" y="296.46402" style="fill: #ffd92f; stroke: #ffd92f"/>
     <use xlink:href="#m141bb1aed8" x="394.690909" y="299.096811" style="fill: #ffd92f; stroke: #ffd92f"/>
    </g>
   </g>
   <g id="line2d_33">
    <path d="M 102.26721 253.534691 
L 117.657931 253.534691 
L 133.048652 253.534691 
L 148.439373 253.534691 
L 163.830094 253.534691 
L 179.220815 254.725947 
L 194.611536 255.917204 
L 210.002257 257.108461 
L 225.392978 258.299718 
L 240.783699 259.490975 
L 256.17442 260.682231 
L 271.565141 261.873488 
L 286.955862 263.064745 
L 302.346583 264.256002 
L 317.737304 265.447259 
L 333.128025 266.638515 
L 348.518746 267.829772 
L 363.909467 269.021029 
L 379.300188 270.212286 
L 394.690909 271.403543 
" clip-path="url(#p6d19443a54)" style="fill: none; stroke: #ffd92f; stroke-width: 1.5; stroke-linecap: round"/>
   </g>
   <g id="line2d_34">
    <path d="M 102.26721 253.534691 
L 117.657931 253.534691 
L 133.048652 253.534691 
L 148.439373 253.534691 
L 163.830094 253.534691 
L 179.220815 254.725947 
L 194.611536 255.917204 
L 210.002257 257.108461 
L 225.392978 258.299718 
L 240.783699 259.490975 
L 256.17442 260.682231 
L 271.565141 261.873488 
L 286.955862 263.064745 
L 302.346583 264.256002 
L 317.737304 265.447259 
L 333.128025 266.638515 
L 348.518746 267.829772 
L 363.909467 269.021029 
L 379.300188 270.212286 
L 394.690909 271.403543 
" clip-path="url(#p6d19443a54)" style="fill: none; stroke: #ffd92f; stroke-width: 1.5; stroke-linecap: round"/>
    <g clip-path="url(#p6d19443a54)">
     <use xlink:href="#m141bb1aed8" x="102.26721" y="253.534691" style="fill: #ffd92f; stroke: #ffd92f"/>
     <use xlink:href="#m141bb1aed8" x="117.657931" y="253.534691" style="fill: #ffd92f; stroke: #ffd92f"/>
     <use xlink:href="#m141bb1aed8" x="133.048652" y="253.534691" style="fill: #ffd92f; stroke: #ffd92f"/>
     <use xlink:href="#m141bb1aed8" x="148.439373" y="253.534691" style="fill: #ffd92f; stroke: #ffd92f"/>
     <use xlink:href="#m141bb1aed8" x="163.830094" y="253.534691" style="fill: #ffd92f; stroke: #ffd92f"/>
     <use xlink:href="#m141bb1aed8" x="179.220815" y="254.725947" style="fill: #ffd92f; stroke: #ffd92f"/>
     <use xlink:href="#m141bb1aed8" x="194.611536" y="255.917204" style="fill: #ffd92f; stroke: #ffd92f"/>
     <use xlink:href="#m141bb1aed8" x="210.002257" y="257.108461" style="fill: #ffd92f; stroke: #ffd92f"/>
     <use xlink:href="#m141bb1aed8" x="225.392978" y="258.299718" style="fill: #ffd92f; stroke: #ffd92f"/>
     <use xlink:href="#m141bb1aed8" x="240.783699" y="259.490975" style="fill: #ffd92f; stroke: #ffd92f"/>
     <use xlink:href="#m141bb1aed8" x="256.17442" y="260.682231" style="fill: #ffd92f; stroke: #ffd92f"/>
     <use xlink:href="#m141bb1aed8" x="271.565141" y="261.873488" style="fill: #ffd92f; stroke: #ffd92f"/>
     <use xlink:href="#m141bb1aed8" x="286.955862" y="263.064745" style="fill: #ffd92f; stroke: #ffd92f"/>
     <use xlink:href="#m141bb1aed8" x="302.346583" y="264.256002" style="fill: #ffd92f; stroke: #ffd92f"/>
     <use xlink:href="#m141bb1aed8" x="317.737304" y="265.447259" style="fill: #ffd92f; stroke: #ffd92f"/>
     <use xlink:href="#m141bb1aed8" x="333.128025" y="266.638515" style="fill: #ffd92f; stroke: #ffd92f"/>
     <use xlink:href="#m141bb1aed8" x="348.518746" y="267.829772" style="fill: #ffd92f; stroke: #ffd92f"/>
     <use xlink:href="#m141bb1aed8" x="363.909467" y="269.021029" style="fill: #ffd92f; stroke: #ffd92f"/>
     <use xlink:href="#m141bb1aed8" x="379.300188" y="270.212286" style="fill: #ffd92f; stroke: #ffd92f"/>
     <use xlink:href="#m141bb1aed8" x="394.690909" y="271.403543" style="fill: #ffd92f; stroke: #ffd92f"/>
    </g>
   </g>
   <g id="line2d_35">
    <path d="M 102.26721 255.340473 
L 117.657931 255.340473 
L 133.048652 255.340473 
L 148.439373 255.340473 
L 163.830094 255.340473 
L 179.220815 261.541961 
L 194.611536 267.743448 
L 210.002257 273.944936 
L 225.392978 280.146423 
L 240.783699 286.347911 
L 256.17442 292.549398 
L 271.565141 298.750886 
L 286.955862 304.952373 
L 302.346583 311.153861 
L 317.737304 317.355349 
L 333.128025 323.556836 
L 348.518746 329.758324 
L 363.909467 335.959811 
L 379.300188 342.161299 
L 394.690909 348.362786 
" clip-path="url(#p6d19443a54)" style="fill: none; stroke: #ffd92f; stroke-width: 1.5; stroke-linecap: round"/>
   </g>
   <g id="line2d_36">
    <path d="M 102.26721 255.340473 
L 117.657931 255.340473 
L 133.048652 255.340473 
L 148.439373 255.340473 
L 163.830094 255.340473 
L 179.220815 261.541961 
L 194.611536 267.743448 
L 210.002257 273.944936 
L 225.392978 280.146423 
L 240.783699 286.347911 
L 256.17442 292.549398 
L 271.565141 298.750886 
L 286.955862 304.952373 
L 302.346583 311.153861 
L 317.737304 317.355349 
L 333.128025 323.556836 
L 348.518746 329.758324 
L 363.909467 335.959811 
L 379.300188 342.161299 
L 394.690909 348.362786 
" clip-path="url(#p6d19443a54)" style="fill: none; stroke: #ffd92f; stroke-width: 1.5; stroke-linecap: round"/>
    <g clip-path="url(#p6d19443a54)">
     <use xlink:href="#m141bb1aed8" x="102.26721" y="255.340473" style="fill: #ffd92f; stroke: #ffd92f"/>
     <use xlink:href="#m141bb1aed8" x="117.657931" y="255.340473" style="fill: #ffd92f; stroke: #ffd92f"/>
     <use xlink:href="#m141bb1aed8" x="133.048652" y="255.340473" style="fill: #ffd92f; stroke: #ffd92f"/>
     <use xlink:href="#m141bb1aed8" x="148.439373" y="255.340473" style="fill: #ffd92f; stroke: #ffd92f"/>
     <use xlink:href="#m141bb1aed8" x="163.830094" y="255.340473" style="fill: #ffd92f; stroke: #ffd92f"/>
     <use xlink:href="#m141bb1aed8" x="179.220815" y="261.541961" style="fill: #ffd92f; stroke: #ffd92f"/>
     <use xlink:href="#m141bb1aed8" x="194.611536" y="267.743448" style="fill: #ffd92f; stroke: #ffd92f"/>
     <use xlink:href="#m141bb1aed8" x="210.002257" y="273.944936" style="fill: #ffd92f; stroke: #ffd92f"/>
     <use xlink:href="#m141bb1aed8" x="225.392978" y="280.146423" style="fill: #ffd92f; stroke: #ffd92f"/>
     <use xlink:href="#m141bb1aed8" x="240.783699" y="286.347911" style="fill: #ffd92f; stroke: #ffd92f"/>
     <use xlink:href="#m141bb1aed8" x="256.17442" y="292.549398" style="fill: #ffd92f; stroke: #ffd92f"/>
     <use xlink:href="#m141bb1aed8" x="271.565141" y="298.750886" style="fill: #ffd92f; stroke: #ffd92f"/>
     <use xlink:href="#m141bb1aed8" x="286.955862" y="304.952373" style="fill: #ffd92f; stroke: #ffd92f"/>
     <use xlink:href="#m141bb1aed8" x="302.346583" y="311.153861" style="fill: #ffd92f; stroke: #ffd92f"/>
     <use xlink:href="#m141bb1aed8" x="317.737304" y="317.355349" style="fill: #ffd92f; stroke: #ffd92f"/>
     <use xlink:href="#m141bb1aed8" x="333.128025" y="323.556836" style="fill: #ffd92f; stroke: #ffd92f"/>
     <use xlink:href="#m141bb1aed8" x="348.518746" y="329.758324" style="fill: #ffd92f; stroke: #ffd92f"/>
     <use xlink:href="#m141bb1aed8" x="363.909467" y="335.959811" style="fill: #ffd92f; stroke: #ffd92f"/>
     <use xlink:href="#m141bb1aed8" x="379.300188" y="342.161299" style="fill: #ffd92f; stroke: #ffd92f"/>
     <use xlink:href="#m141bb1aed8" x="394.690909" y="348.362786" style="fill: #ffd92f; stroke: #ffd92f"/>
    </g>
   </g>
   <g id="line2d_37">
    <path d="M 102.26721 256.771901 
L 117.657931 259.124579 
L 133.048652 261.477256 
L 148.439373 263.829934 
L 163.830094 266.182611 
L 179.220815 268.535289 
L 194.611536 270.887966 
L 210.002257 273.240644 
L 225.392978 275.593321 
L 240.783699 277.945999 
L 256.17442 280.298676 
L 271.565141 282.651354 
L 286.955862 285.004031 
L 302.346583 287.356709 
L 317.737304 289.709386 
L 333.128025 292.062064 
L 348.518746 294.414741 
L 363.909467 296.767419 
L 379.300188 299.120096 
L 394.690909 301.472774 
" clip-path="url(#p6d19443a54)" style="fill: none; stroke: #ffd92f; stroke-width: 1.5; stroke-linecap: round"/>
   </g>
   <g id="line2d_38">
    <path d="M 102.26721 256.771901 
L 117.657931 259.124579 
L 133.048652 261.477256 
L 148.439373 263.829934 
L 163.830094 266.182611 
L 179.220815 268.535289 
L 194.611536 270.887966 
L 210.002257 273.240644 
L 225.392978 275.593321 
L 240.783699 277.945999 
L 256.17442 280.298676 
L 271.565141 282.651354 
L 286.955862 285.004031 
L 302.346583 287.356709 
L 317.737304 289.709386 
L 333.128025 292.062064 
L 348.518746 294.414741 
L 363.909467 296.767419 
L 379.300188 299.120096 
L 394.690909 301.472774 
" clip-path="url(#p6d19443a54)" style="fill: none; stroke: #ffd92f; stroke-width: 1.5; stroke-linecap: round"/>
    <g clip-path="url(#p6d19443a54)">
     <use xlink:href="#m141bb1aed8" x="102.26721" y="256.771901" style="fill: #ffd92f; stroke: #ffd92f"/>
     <use xlink:href="#m141bb1aed8" x="117.657931" y="259.124579" style="fill: #ffd92f; stroke: #ffd92f"/>
     <use xlink:href="#m141bb1aed8" x="133.048652" y="261.477256" style="fill: #ffd92f; stroke: #ffd92f"/>
     <use xlink:href="#m141bb1aed8" x="148.439373" y="263.829934" style="fill: #ffd92f; stroke: #ffd92f"/>
     <use xlink:href="#m141bb1aed8" x="163.830094" y="266.182611" style="fill: #ffd92f; stroke: #ffd92f"/>
     <use xlink:href="#m141bb1aed8" x="179.220815" y="268.535289" style="fill: #ffd92f; stroke: #ffd92f"/>
     <use xlink:href="#m141bb1aed8" x="194.611536" y="270.887966" style="fill: #ffd92f; stroke: #ffd92f"/>
     <use xlink:href="#m141bb1aed8" x="210.002257" y="273.240644" style="fill: #ffd92f; stroke: #ffd92f"/>
     <use xlink:href="#m141bb1aed8" x="225.392978" y="275.593321" style="fill: #ffd92f; stroke: #ffd92f"/>
     <use xlink:href="#m141bb1aed8" x="240.783699" y="277.945999" style="fill: #ffd92f; stroke: #ffd92f"/>
     <use xlink:href="#m141bb1aed8" x="256.17442" y="280.298676" style="fill: #ffd92f; stroke: #ffd92f"/>
     <use xlink:href="#m141bb1aed8" x="271.565141" y="282.651354" style="fill: #ffd92f; stroke: #ffd92f"/>
     <use xlink:href="#m141bb1aed8" x="286.955862" y="285.004031" style="fill: #ffd92f; stroke: #ffd92f"/>
     <use xlink:href="#m141bb1aed8" x="302.346583" y="287.356709" style="fill: #ffd92f; stroke: #ffd92f"/>
     <use xlink:href="#m141bb1aed8" x="317.737304" y="289.709386" style="fill: #ffd92f; stroke: #ffd92f"/>
     <use xlink:href="#m141bb1aed8" x="333.128025" y="292.062064" style="fill: #ffd92f; stroke: #ffd92f"/>
     <use xlink:href="#m141bb1aed8" x="348.518746" y="294.414741" style="fill: #ffd92f; stroke: #ffd92f"/>
     <use xlink:href="#m141bb1aed8" x="363.909467" y="296.767419" style="fill: #ffd92f; stroke: #ffd92f"/>
     <use xlink:href="#m141bb1aed8" x="379.300188" y="299.120096" style="fill: #ffd92f; stroke: #ffd92f"/>
     <use xlink:href="#m141bb1aed8" x="394.690909" y="301.472774" style="fill: #ffd92f; stroke: #ffd92f"/>
    </g>
   </g>
   <g id="line2d_39">
    <path d="M 102.26721 256.826242 
L 117.657931 256.826242 
L 133.048652 256.826242 
L 148.439373 256.826242 
L 163.830094 257.876832 
L 179.220815 258.927422 
L 194.611536 259.978012 
L 210.002257 261.028601 
L 225.392978 262.079191 
L 240.783699 263.129781 
L 256.17442 264.180371 
L 271.565141 265.23096 
L 286.955862 266.28155 
L 302.346583 267.33214 
L 317.737304 268.38273 
L 333.128025 269.433319 
L 348.518746 270.483909 
L 363.909467 271.534499 
L 379.300188 272.585089 
L 394.690909 273.635679 
" clip-path="url(#p6d19443a54)" style="fill: none; stroke: #ffd92f; stroke-width: 1.5; stroke-linecap: round"/>
   </g>
   <g id="line2d_40">
    <path d="M 102.26721 256.826242 
L 117.657931 256.826242 
L 133.048652 256.826242 
L 148.439373 256.826242 
L 163.830094 257.876832 
L 179.220815 258.927422 
L 194.611536 259.978012 
L 210.002257 261.028601 
L 225.392978 262.079191 
L 240.783699 263.129781 
L 256.17442 264.180371 
L 271.565141 265.23096 
L 286.955862 266.28155 
L 302.346583 267.33214 
L 317.737304 268.38273 
L 333.128025 269.433319 
L 348.518746 270.483909 
L 363.909467 271.534499 
L 379.300188 272.585089 
L 394.690909 273.635679 
" clip-path="url(#p6d19443a54)" style="fill: none; stroke: #ffd92f; stroke-width: 1.5; stroke-linecap: round"/>
    <g clip-path="url(#p6d19443a54)">
     <use xlink:href="#m141bb1aed8" x="102.26721" y="256.826242" style="fill: #ffd92f; stroke: #ffd92f"/>
     <use xlink:href="#m141bb1aed8" x="117.657931" y="256.826242" style="fill: #ffd92f; stroke: #ffd92f"/>
     <use xlink:href="#m141bb1aed8" x="133.048652" y="256.826242" style="fill: #ffd92f; stroke: #ffd92f"/>
     <use xlink:href="#m141bb1aed8" x="148.439373" y="256.826242" style="fill: #ffd92f; stroke: #ffd92f"/>
     <use xlink:href="#m141bb1aed8" x="163.830094" y="257.876832" style="fill: #ffd92f; stroke: #ffd92f"/>
     <use xlink:href="#m141bb1aed8" x="179.220815" y="258.927422" style="fill: #ffd92f; stroke: #ffd92f"/>
     <use xlink:href="#m141bb1aed8" x="194.611536" y="259.978012" style="fill: #ffd92f; stroke: #ffd92f"/>
     <use xlink:href="#m141bb1aed8" x="210.002257" y="261.028601" style="fill: #ffd92f; stroke: #ffd92f"/>
     <use xlink:href="#m141bb1aed8" x="225.392978" y="262.079191" style="fill: #ffd92f; stroke: #ffd92f"/>
     <use xlink:href="#m141bb1aed8" x="240.783699" y="263.129781" style="fill: #ffd92f; stroke: #ffd92f"/>
     <use xlink:href="#m141bb1aed8" x="256.17442" y="264.180371" style="fill: #ffd92f; stroke: #ffd92f"/>
     <use xlink:href="#m141bb1aed8" x="271.565141" y="265.23096" style="fill: #ffd92f; stroke: #ffd92f"/>
     <use xlink:href="#m141bb1aed8" x="286.955862" y="266.28155" style="fill: #ffd92f; stroke: #ffd92f"/>
     <use xlink:href="#m141bb1aed8" x="302.346583" y="267.33214" style="fill: #ffd92f; stroke: #ffd92f"/>
     <use xlink:href="#m141bb1aed8" x="317.737304" y="268.38273" style="fill: #ffd92f; stroke: #ffd92f"/>
     <use xlink:href="#m141bb1aed8" x="333.128025" y="269.433319" style="fill: #ffd92f; stroke: #ffd92f"/>
     <use xlink:href="#m141bb1aed8" x="348.518746" y="270.483909" style="fill: #ffd92f; stroke: #ffd92f"/>
     <use xlink:href="#m141bb1aed8" x="363.909467" y="271.534499" style="fill: #ffd92f; stroke: #ffd92f"/>
     <use xlink:href="#m141bb1aed8" x="379.300188" y="272.585089" style="fill: #ffd92f; stroke: #ffd92f"/>
     <use xlink:href="#m141bb1aed8" x="394.690909" y="273.635679" style="fill: #ffd92f; stroke: #ffd92f"/>
    </g>
   </g>
   <g id="line2d_41">
    <path d="M 102.26721 253.40963 
L 117.657931 253.40963 
L 133.048652 253.40963 
L 148.439373 253.40963 
L 163.830094 253.40963 
L 179.220815 256.595463 
L 194.611536 259.781297 
L 210.002257 262.96713 
L 225.392978 266.152963 
L 240.783699 269.338797 
L 256.17442 272.52463 
L 271.565141 275.710464 
L 286.955862 278.896297 
L 302.346583 282.08213 
L 317.737304 285.267964 
L 333.128025 288.453797 
L 348.518746 291.639631 
L 363.909467 294.825464 
L 379.300188 298.011298 
L 394.690909 301.197131 
" clip-path="url(#p6d19443a54)" style="fill: none; stroke: #ffd92f; stroke-width: 1.5; stroke-linecap: round"/>
   </g>
   <g id="line2d_42">
    <path d="M 102.26721 253.40963 
L 117.657931 253.40963 
L 133.048652 253.40963 
L 148.439373 253.40963 
L 163.830094 253.40963 
L 179.220815 256.595463 
L 194.611536 259.781297 
L 210.002257 262.96713 
L 225.392978 266.152963 
L 240.783699 269.338797 
L 256.17442 272.52463 
L 271.565141 275.710464 
L 286.955862 278.896297 
L 302.346583 282.08213 
L 317.737304 285.267964 
L 333.128025 288.453797 
L 348.518746 291.639631 
L 363.909467 294.825464 
L 379.300188 298.011298 
L 394.690909 301.197131 
" clip-path="url(#p6d19443a54)" style="fill: none; stroke: #ffd92f; stroke-width: 1.5; stroke-linecap: round"/>
    <g clip-path="url(#p6d19443a54)">
     <use xlink:href="#m141bb1aed8" x="102.26721" y="253.40963" style="fill: #ffd92f; stroke: #ffd92f"/>
     <use xlink:href="#m141bb1aed8" x="117.657931" y="253.40963" style="fill: #ffd92f; stroke: #ffd92f"/>
     <use xlink:href="#m141bb1aed8" x="133.048652" y="253.40963" style="fill: #ffd92f; stroke: #ffd92f"/>
     <use xlink:href="#m141bb1aed8" x="148.439373" y="253.40963" style="fill: #ffd92f; stroke: #ffd92f"/>
     <use xlink:href="#m141bb1aed8" x="163.830094" y="253.40963" style="fill: #ffd92f; stroke: #ffd92f"/>
     <use xlink:href="#m141bb1aed8" x="179.220815" y="256.595463" style="fill: #ffd92f; stroke: #ffd92f"/>
     <use xlink:href="#m141bb1aed8" x="194.611536" y="259.781297" style="fill: #ffd92f; stroke: #ffd92f"/>
     <use xlink:href="#m141bb1aed8" x="210.002257" y="262.96713" style="fill: #ffd92f; stroke: #ffd92f"/>
     <use xlink:href="#m141bb1aed8" x="225.392978" y="266.152963" style="fill: #ffd92f; stroke: #ffd92f"/>
     <use xlink:href="#m141bb1aed8" x="240.783699" y="269.338797" style="fill: #ffd92f; stroke: #ffd92f"/>
     <use xlink:href="#m141bb1aed8" x="256.17442" y="272.52463" style="fill: #ffd92f; stroke: #ffd92f"/>
     <use xlink:href="#m141bb1aed8" x="271.565141" y="275.710464" style="fill: #ffd92f; stroke: #ffd92f"/>
     <use xlink:href="#m141bb1aed8" x="286.955862" y="278.896297" style="fill: #ffd92f; stroke: #ffd92f"/>
     <use xlink:href="#m141bb1aed8" x="302.346583" y="282.08213" style="fill: #ffd92f; stroke: #ffd92f"/>
     <use xlink:href="#m141bb1aed8" x="317.737304" y="285.267964" style="fill: #ffd92f; stroke: #ffd92f"/>
     <use xlink:href="#m141bb1aed8" x="333.128025" y="288.453797" style="fill: #ffd92f; stroke: #ffd92f"/>
     <use xlink:href="#m141bb1aed8" x="348.518746" y="291.639631" style="fill: #ffd92f; stroke: #ffd92f"/>
     <use xlink:href="#m141bb1aed8" x="363.909467" y="294.825464" style="fill: #ffd92f; stroke: #ffd92f"/>
     <use xlink:href="#m141bb1aed8" x="379.300188" y="298.011298" style="fill: #ffd92f; stroke: #ffd92f"/>
     <use xlink:href="#m141bb1aed8" x="394.690909" y="301.197131" style="fill: #ffd92f; stroke: #ffd92f"/>
    </g>
   </g>
   <g id="line2d_43">
    <path d="M 102.26721 255.394895 
L 117.657931 255.394895 
L 133.048652 255.394895 
L 148.439373 258.094553 
L 163.830094 260.794211 
L 179.220815 263.493868 
L 194.611536 266.193526 
L 210.002257 268.893184 
L 225.392978 271.592841 
L 240.783699 274.292499 
L 256.17442 276.992157 
L 271.565141 279.691814 
L 286.955862 282.391472 
L 302.346583 285.091129 
L 317.737304 287.790787 
L 333.128025 290.490445 
L 348.518746 293.190102 
L 363.909467 295.88976 
L 379.300188 298.589418 
L 394.690909 301.289075 
" clip-path="url(#p6d19443a54)" style="fill: none; stroke: #ffd92f; stroke-width: 1.5; stroke-linecap: round"/>
   </g>
   <g id="line2d_44">
    <path d="M 102.26721 255.394895 
L 117.657931 255.394895 
L 133.048652 255.394895 
L 148.439373 258.094553 
L 163.830094 260.794211 
L 179.220815 263.493868 
L 194.611536 266.193526 
L 210.002257 268.893184 
L 225.392978 271.592841 
L 240.783699 274.292499 
L 256.17442 276.992157 
L 271.565141 279.691814 
L 286.955862 282.391472 
L 302.346583 285.091129 
L 317.737304 287.790787 
L 333.128025 290.490445 
L 348.518746 293.190102 
L 363.909467 295.88976 
L 379.300188 298.589418 
L 394.690909 301.289075 
" clip-path="url(#p6d19443a54)" style="fill: none; stroke: #ffd92f; stroke-width: 1.5; stroke-linecap: round"/>
    <g clip-path="url(#p6d19443a54)">
     <use xlink:href="#m141bb1aed8" x="102.26721" y="255.394895" style="fill: #ffd92f; stroke: #ffd92f"/>
     <use xlink:href="#m141bb1aed8" x="117.657931" y="255.394895" style="fill: #ffd92f; stroke: #ffd92f"/>
     <use xlink:href="#m141bb1aed8" x="133.048652" y="255.394895" style="fill: #ffd92f; stroke: #ffd92f"/>
     <use xlink:href="#m141bb1aed8" x="148.439373" y="258.094553" style="fill: #ffd92f; stroke: #ffd92f"/>
     <use xlink:href="#m141bb1aed8" x="163.830094" y="260.794211" style="fill: #ffd92f; stroke: #ffd92f"/>
     <use xlink:href="#m141bb1aed8" x="179.220815" y="263.493868" style="fill: #ffd92f; stroke: #ffd92f"/>
     <use xlink:href="#m141bb1aed8" x="194.611536" y="266.193526" style="fill: #ffd92f; stroke: #ffd92f"/>
     <use xlink:href="#m141bb1aed8" x="210.002257" y="268.893184" style="fill: #ffd92f; stroke: #ffd92f"/>
     <use xlink:href="#m141bb1aed8" x="225.392978" y="271.592841" style="fill: #ffd92f; stroke: #ffd92f"/>
     <use xlink:href="#m141bb1aed8" x="240.783699" y="274.292499" style="fill: #ffd92f; stroke: #ffd92f"/>
     <use xlink:href="#m141bb1aed8" x="256.17442" y="276.992157" style="fill: #ffd92f; stroke: #ffd92f"/>
     <use xlink:href="#m141bb1aed8" x="271.565141" y="279.691814" style="fill: #ffd92f; stroke: #ffd92f"/>
     <use xlink:href="#m141bb1aed8" x="286.955862" y="282.391472" style="fill: #ffd92f; stroke: #ffd92f"/>
     <use xlink:href="#m141bb1aed8" x="302.346583" y="285.091129" style="fill: #ffd92f; stroke: #ffd92f"/>
     <use xlink:href="#m141bb1aed8" x="317.737304" y="287.790787" style="fill: #ffd92f; stroke: #ffd92f"/>
     <use xlink:href="#m141bb1aed8" x="333.128025" y="290.490445" style="fill: #ffd92f; stroke: #ffd92f"/>
     <use xlink:href="#m141bb1aed8" x="348.518746" y="293.190102" style="fill: #ffd92f; stroke: #ffd92f"/>
     <use xlink:href="#m141bb1aed8" x="363.909467" y="295.88976" style="fill: #ffd92f; stroke: #ffd92f"/>
     <use xlink:href="#m141bb1aed8" x="379.300188" y="298.589418" style="fill: #ffd92f; stroke: #ffd92f"/>
     <use xlink:href="#m141bb1aed8" x="394.690909" y="301.289075" style="fill: #ffd92f; stroke: #ffd92f"/>
    </g>
   </g>
   <g id="line2d_45">
    <path d="M 102.26721 253.403041 
L 117.657931 253.403041 
L 133.048652 253.403041 
L 148.439373 253.403041 
L 163.830094 256.650105 
L 179.220815 259.897168 
L 194.611536 263.144232 
L 210.002257 266.391295 
L 225.392978 269.638359 
L 240.783699 272.885422 
L 256.17442 276.132486 
L 271.565141 279.379549 
L 286.955862 282.626613 
L 302.346583 285.873676 
L 317.737304 289.12074 
L 333.128025 292.367803 
L 348.518746 295.614867 
L 363.909467 298.86193 
L 379.300188 302.108994 
L 394.690909 305.356057 
" clip-path="url(#p6d19443a54)" style="fill: none; stroke: #ffd92f; stroke-width: 1.5; stroke-linecap: round"/>
   </g>
   <g id="line2d_46">
    <path d="M 102.26721 253.403041 
L 117.657931 253.403041 
L 133.048652 253.403041 
L 148.439373 253.403041 
L 163.830094 256.650105 
L 179.220815 259.897168 
L 194.611536 263.144232 
L 210.002257 266.391295 
L 225.392978 269.638359 
L 240.783699 272.885422 
L 256.17442 276.132486 
L 271.565141 279.379549 
L 286.955862 282.626613 
L 302.346583 285.873676 
L 317.737304 289.12074 
L 333.128025 292.367803 
L 348.518746 295.614867 
L 363.909467 298.86193 
L 379.300188 302.108994 
L 394.690909 305.356057 
" clip-path="url(#p6d19443a54)" style="fill: none; stroke: #ffd92f; stroke-width: 1.5; stroke-linecap: round"/>
    <g clip-path="url(#p6d19443a54)">
     <use xlink:href="#m141bb1aed8" x="102.26721" y="253.403041" style="fill: #ffd92f; stroke: #ffd92f"/>
     <use xlink:href="#m141bb1aed8" x="117.657931" y="253.403041" style="fill: #ffd92f; stroke: #ffd92f"/>
     <use xlink:href="#m141bb1aed8" x="133.048652" y="253.403041" style="fill: #ffd92f; stroke: #ffd92f"/>
     <use xlink:href="#m141bb1aed8" x="148.439373" y="253.403041" style="fill: #ffd92f; stroke: #ffd92f"/>
     <use xlink:href="#m141bb1aed8" x="163.830094" y="256.650105" style="fill: #ffd92f; stroke: #ffd92f"/>
     <use xlink:href="#m141bb1aed8" x="179.220815" y="259.897168" style="fill: #ffd92f; stroke: #ffd92f"/>
     <use xlink:href="#m141bb1aed8" x="194.611536" y="263.144232" style="fill: #ffd92f; stroke: #ffd92f"/>
     <use xlink:href="#m141bb1aed8" x="210.002257" y="266.391295" style="fill: #ffd92f; stroke: #ffd92f"/>
     <use xlink:href="#m141bb1aed8" x="225.392978" y="269.638359" style="fill: #ffd92f; stroke: #ffd92f"/>
     <use xlink:href="#m141bb1aed8" x="240.783699" y="272.885422" style="fill: #ffd92f; stroke: #ffd92f"/>
     <use xlink:href="#m141bb1aed8" x="256.17442" y="276.132486" style="fill: #ffd92f; stroke: #ffd92f"/>
     <use xlink:href="#m141bb1aed8" x="271.565141" y="279.379549" style="fill: #ffd92f; stroke: #ffd92f"/>
     <use xlink:href="#m141bb1aed8" x="286.955862" y="282.626613" style="fill: #ffd92f; stroke: #ffd92f"/>
     <use xlink:href="#m141bb1aed8" x="302.346583" y="285.873676" style="fill: #ffd92f; stroke: #ffd92f"/>
     <use xlink:href="#m141bb1aed8" x="317.737304" y="289.12074" style="fill: #ffd92f; stroke: #ffd92f"/>
     <use xlink:href="#m141bb1aed8" x="333.128025" y="292.367803" style="fill: #ffd92f; stroke: #ffd92f"/>
     <use xlink:href="#m141bb1aed8" x="348.518746" y="295.614867" style="fill: #ffd92f; stroke: #ffd92f"/>
     <use xlink:href="#m141bb1aed8" x="363.909467" y="298.86193" style="fill: #ffd92f; stroke: #ffd92f"/>
     <use xlink:href="#m141bb1aed8" x="379.300188" y="302.108994" style="fill: #ffd92f; stroke: #ffd92f"/>
     <use xlink:href="#m141bb1aed8" x="394.690909" y="305.356057" style="fill: #ffd92f; stroke: #ffd92f"/>
    </g>
   </g>
   <g id="line2d_47">
    <path d="M 102.26721 256.614505 
L 117.657931 256.614505 
L 133.048652 256.614505 
L 148.439373 256.614505 
L 163.830094 256.614505 
L 179.220815 256.614505 
L 194.611536 257.733614 
L 210.002257 258.852723 
L 225.392978 259.971833 
L 240.783699 261.090942 
L 256.17442 262.210051 
L 271.565141 263.329161 
L 286.955862 264.44827 
L 302.346583 265.567379 
L 317.737304 266.686488 
L 333.128025 267.805598 
L 348.518746 268.924707 
L 363.909467 270.043816 
L 379.300188 271.162925 
L 394.690909 272.282035 
" clip-path="url(#p6d19443a54)" style="fill: none; stroke: #ffd92f; stroke-width: 1.5; stroke-linecap: round"/>
   </g>
   <g id="line2d_48">
    <path d="M 102.26721 256.614505 
L 117.657931 256.614505 
L 133.048652 256.614505 
L 148.439373 256.614505 
L 163.830094 256.614505 
L 179.220815 256.614505 
L 194.611536 257.733614 
L 210.002257 258.852723 
L 225.392978 259.971833 
L 240.783699 261.090942 
L 256.17442 262.210051 
L 271.565141 263.329161 
L 286.955862 264.44827 
L 302.346583 265.567379 
L 317.737304 266.686488 
L 333.128025 267.805598 
L 348.518746 268.924707 
L 363.909467 270.043816 
L 379.300188 271.162925 
L 394.690909 272.282035 
" clip-path="url(#p6d19443a54)" style="fill: none; stroke: #ffd92f; stroke-width: 1.5; stroke-linecap: round"/>
    <g clip-path="url(#p6d19443a54)">
     <use xlink:href="#m141bb1aed8" x="102.26721" y="256.614505" style="fill: #ffd92f; stroke: #ffd92f"/>
     <use xlink:href="#m141bb1aed8" x="117.657931" y="256.614505" style="fill: #ffd92f; stroke: #ffd92f"/>
     <use xlink:href="#m141bb1aed8" x="133.048652" y="256.614505" style="fill: #ffd92f; stroke: #ffd92f"/>
     <use xlink:href="#m141bb1aed8" x="148.439373" y="256.614505" style="fill: #ffd92f; stroke: #ffd92f"/>
     <use xlink:href="#m141bb1aed8" x="163.830094" y="256.614505" style="fill: #ffd92f; stroke: #ffd92f"/>
     <use xlink:href="#m141bb1aed8" x="179.220815" y="256.614505" style="fill: #ffd92f; stroke: #ffd92f"/>
     <use xlink:href="#m141bb1aed8" x="194.611536" y="257.733614" style="fill: #ffd92f; stroke: #ffd92f"/>
     <use xlink:href="#m141bb1aed8" x="210.002257" y="258.852723" style="fill: #ffd92f; stroke: #ffd92f"/>
     <use xlink:href="#m141bb1aed8" x="225.392978" y="259.971833" style="fill: #ffd92f; stroke: #ffd92f"/>
     <use xlink:href="#m141bb1aed8" x="240.783699" y="261.090942" style="fill: #ffd92f; stroke: #ffd92f"/>
     <use xlink:href="#m141bb1aed8" x="256.17442" y="262.210051" style="fill: #ffd92f; stroke: #ffd92f"/>
     <use xlink:href="#m141bb1aed8" x="271.565141" y="263.329161" style="fill: #ffd92f; stroke: #ffd92f"/>
     <use xlink:href="#m141bb1aed8" x="286.955862" y="264.44827" style="fill: #ffd92f; stroke: #ffd92f"/>
     <use xlink:href="#m141bb1aed8" x="302.346583" y="265.567379" style="fill: #ffd92f; stroke: #ffd92f"/>
     <use xlink:href="#m141bb1aed8" x="317.737304" y="266.686488" style="fill: #ffd92f; stroke: #ffd92f"/>
     <use xlink:href="#m141bb1aed8" x="333.128025" y="267.805598" style="fill: #ffd92f; stroke: #ffd92f"/>
     <use xlink:href="#m141bb1aed8" x="348.518746" y="268.924707" style="fill: #ffd92f; stroke: #ffd92f"/>
     <use xlink:href="#m141bb1aed8" x="363.909467" y="270.043816" style="fill: #ffd92f; stroke: #ffd92f"/>
     <use xlink:href="#m141bb1aed8" x="379.300188" y="271.162925" style="fill: #ffd92f; stroke: #ffd92f"/>
     <use xlink:href="#m141bb1aed8" x="394.690909" y="272.282035" style="fill: #ffd92f; stroke: #ffd92f"/>
    </g>
   </g>
   <g id="line2d_49">
    <path d="M 102.26721 253.537524 
L 117.657931 253.537524 
L 133.048652 253.537524 
L 148.439373 258.823087 
L 163.830094 264.10865 
L 179.220815 269.394212 
L 194.611536 274.679775 
L 210.002257 279.965338 
L 225.392978 285.2509 
L 240.783699 290.536463 
L 256.17442 295.822026 
L 271.565141 301.107589 
L 286.955862 306.393151 
L 302.346583 311.678714 
L 317.737304 316.964277 
L 333.128025 322.249839 
L 348.518746 327.535402 
L 363.909467 332.820965 
L 379.300188 338.106528 
L 394.690909 343.39209 
" clip-path="url(#p6d19443a54)" style="fill: none; stroke: #ffd92f; stroke-width: 1.5; stroke-linecap: round"/>
   </g>
   <g id="line2d_50">
    <path d="M 102.26721 253.537524 
L 117.657931 253.537524 
L 133.048652 253.537524 
L 148.439373 258.823087 
L 163.830094 264.10865 
L 179.220815 269.394212 
L 194.611536 274.679775 
L 210.002257 279.965338 
L 225.392978 285.2509 
L 240.783699 290.536463 
L 256.17442 295.822026 
L 271.565141 301.107589 
L 286.955862 306.393151 
L 302.346583 311.678714 
L 317.737304 316.964277 
L 333.128025 322.249839 
L 348.518746 327.535402 
L 363.909467 332.820965 
L 379.300188 338.106528 
L 394.690909 343.39209 
" clip-path="url(#p6d19443a54)" style="fill: none; stroke: #ffd92f; stroke-width: 1.5; stroke-linecap: round"/>
    <g clip-path="url(#p6d19443a54)">
     <use xlink:href="#m141bb1aed8" x="102.26721" y="253.537524" style="fill: #ffd92f; stroke: #ffd92f"/>
     <use xlink:href="#m141bb1aed8" x="117.657931" y="253.537524" style="fill: #ffd92f; stroke: #ffd92f"/>
     <use xlink:href="#m141bb1aed8" x="133.048652" y="253.537524" style="fill: #ffd92f; stroke: #ffd92f"/>
     <use xlink:href="#m141bb1aed8" x="148.439373" y="258.823087" style="fill: #ffd92f; stroke: #ffd92f"/>
     <use xlink:href="#m141bb1aed8" x="163.830094" y="264.10865" style="fill: #ffd92f; stroke: #ffd92f"/>
     <use xlink:href="#m141bb1aed8" x="179.220815" y="269.394212" style="fill: #ffd92f; stroke: #ffd92f"/>
     <use xlink:href="#m141bb1aed8" x="194.611536" y="274.679775" style="fill: #ffd92f; stroke: #ffd92f"/>
     <use xlink:href="#m141bb1aed8" x="210.002257" y="279.965338" style="fill: #ffd92f; stroke: #ffd92f"/>
     <use xlink:href="#m141bb1aed8" x="225.392978" y="285.2509" style="fill: #ffd92f; stroke: #ffd92f"/>
     <use xlink:href="#m141bb1aed8" x="240.783699" y="290.536463" style="fill: #ffd92f; stroke: #ffd92f"/>
     <use xlink:href="#m141bb1aed8" x="256.17442" y="295.822026" style="fill: #ffd92f; stroke: #ffd92f"/>
     <use xlink:href="#m141bb1aed8" x="271.565141" y="301.107589" style="fill: #ffd92f; stroke: #ffd92f"/>
     <use xlink:href="#m141bb1aed8" x="286.955862" y="306.393151" style="fill: #ffd92f; stroke: #ffd92f"/>
     <use xlink:href="#m141bb1aed8" x="302.346583" y="311.678714" style="fill: #ffd92f; stroke: #ffd92f"/>
     <use xlink:href="#m141bb1aed8" x="317.737304" y="316.964277" style="fill: #ffd92f; stroke: #ffd92f"/>
     <use xlink:href="#m141bb1aed8" x="333.128025" y="322.249839" style="fill: #ffd92f; stroke: #ffd92f"/>
     <use xlink:href="#m141bb1aed8" x="348.518746" y="327.535402" style="fill: #ffd92f; stroke: #ffd92f"/>
     <use xlink:href="#m141bb1aed8" x="363.909467" y="332.820965" style="fill: #ffd92f; stroke: #ffd92f"/>
     <use xlink:href="#m141bb1aed8" x="379.300188" y="338.106528" style="fill: #ffd92f; stroke: #ffd92f"/>
     <use xlink:href="#m141bb1aed8" x="394.690909" y="343.39209" style="fill: #ffd92f; stroke: #ffd92f"/>
    </g>
   </g>
   <g id="line2d_51">
    <path d="M 102.26721 254.91264 
L 117.657931 254.91264 
L 133.048652 254.91264 
L 148.439373 256.404315 
L 163.830094 257.895989 
L 179.220815 259.387664 
L 194.611536 260.879338 
L 210.002257 262.371012 
L 225.392978 263.862687 
L 240.783699 265.354361 
L 256.17442 266.846036 
L 271.565141 268.33771 
L 286.955862 269.829385 
L 302.346583 271.321059 
L 317.737304 272.812734 
L 333.128025 274.304408 
L 348.518746 275.796083 
L 363.909467 277.287757 
L 379.300188 278.779432 
L 394.690909 280.271106 
" clip-path="url(#p6d19443a54)" style="fill: none; stroke: #ffd92f; stroke-width: 1.5; stroke-linecap: round"/>
   </g>
   <g id="line2d_52">
    <path d="M 102.26721 254.91264 
L 117.657931 254.91264 
L 133.048652 254.91264 
L 148.439373 256.404315 
L 163.830094 257.895989 
L 179.220815 259.387664 
L 194.611536 260.879338 
L 210.002257 262.371012 
L 225.392978 263.862687 
L 240.783699 265.354361 
L 256.17442 266.846036 
L 271.565141 268.33771 
L 286.955862 269.829385 
L 302.346583 271.321059 
L 317.737304 272.812734 
L 333.128025 274.304408 
L 348.518746 275.796083 
L 363.909467 277.287757 
L 379.300188 278.779432 
L 394.690909 280.271106 
" clip-path="url(#p6d19443a54)" style="fill: none; stroke: #ffd92f; stroke-width: 1.5; stroke-linecap: round"/>
    <g clip-path="url(#p6d19443a54)">
     <use xlink:href="#m141bb1aed8" x="102.26721" y="254.91264" style="fill: #ffd92f; stroke: #ffd92f"/>
     <use xlink:href="#m141bb1aed8" x="117.657931" y="254.91264" style="fill: #ffd92f; stroke: #ffd92f"/>
     <use xlink:href="#m141bb1aed8" x="133.048652" y="254.91264" style="fill: #ffd92f; stroke: #ffd92f"/>
     <use xlink:href="#m141bb1aed8" x="148.439373" y="256.404315" style="fill: #ffd92f; stroke: #ffd92f"/>
     <use xlink:href="#m141bb1aed8" x="163.830094" y="257.895989" style="fill: #ffd92f; stroke: #ffd92f"/>
     <use xlink:href="#m141bb1aed8" x="179.220815" y="259.387664" style="fill: #ffd92f; stroke: #ffd92f"/>
     <use xlink:href="#m141bb1aed8" x="194.611536" y="260.879338" style="fill: #ffd92f; stroke: #ffd92f"/>
     <use xlink:href="#m141bb1aed8" x="210.002257" y="262.371012" style="fill: #ffd92f; stroke: #ffd92f"/>
     <use xlink:href="#m141bb1aed8" x="225.392978" y="263.862687" style="fill: #ffd92f; stroke: #ffd92f"/>
     <use xlink:href="#m141bb1aed8" x="240.783699" y="265.354361" style="fill: #ffd92f; stroke: #ffd92f"/>
     <use xlink:href="#m141bb1aed8" x="256.17442" y="266.846036" style="fill: #ffd92f; stroke: #ffd92f"/>
     <use xlink:href="#m141bb1aed8" x="271.565141" y="268.33771" style="fill: #ffd92f; stroke: #ffd92f"/>
     <use xlink:href="#m141bb1aed8" x="286.955862" y="269.829385" style="fill: #ffd92f; stroke: #ffd92f"/>
     <use xlink:href="#m141bb1aed8" x="302.346583" y="271.321059" style="fill: #ffd92f; stroke: #ffd92f"/>
     <use xlink:href="#m141bb1aed8" x="317.737304" y="272.812734" style="fill: #ffd92f; stroke: #ffd92f"/>
     <use xlink:href="#m141bb1aed8" x="333.128025" y="274.304408" style="fill: #ffd92f; stroke: #ffd92f"/>
     <use xlink:href="#m141bb1aed8" x="348.518746" y="275.796083" style="fill: #ffd92f; stroke: #ffd92f"/>
     <use xlink:href="#m141bb1aed8" x="363.909467" y="277.287757" style="fill: #ffd92f; stroke: #ffd92f"/>
     <use xlink:href="#m141bb1aed8" x="379.300188" y="278.779432" style="fill: #ffd92f; stroke: #ffd92f"/>
     <use xlink:href="#m141bb1aed8" x="394.690909" y="280.271106" style="fill: #ffd92f; stroke: #ffd92f"/>
    </g>
   </g>
   <g id="line2d_53">
    <path d="M 80.509091 253.003084 
L 82.799419 261.10546 
L 85.089748 258.258563 
L 87.380076 277.200991 
L 89.670404 259.941133 
L 91.960733 256.625028 
L 94.251061 262.792508 
L 96.541389 259.034092 
L 98.831718 249.889662 
L 101.122046 260.782918 
L 103.412374 257.976755 
L 105.702703 268.87001 
L 107.993031 259.725581 
L 110.283359 255.967165 
L 112.573688 262.134645 
L 114.864016 258.818539 
L 117.154344 241.558681 
L 119.444673 260.50111 
L 121.735001 257.654212 
L 124.025329 265.756588 
" clip-path="url(#p6d19443a54)" style="fill: none; stroke: #66c2a5; stroke-width: 1.5; stroke-linecap: round"/>
   </g>
   <g id="line2d_54">
    <path d="M 80.509091 253.003084 
L 82.799419 261.10546 
L 85.089748 258.258563 
L 87.380076 277.200991 
L 89.670404 259.941133 
L 91.960733 256.625028 
L 94.251061 262.792508 
L 96.541389 259.034092 
L 98.831718 249.889662 
L 101.122046 260.782918 
L 103.412374 257.976755 
L 105.702703 268.87001 
L 107.993031 259.725581 
L 110.283359 255.967165 
L 112.573688 262.134645 
L 114.864016 258.818539 
L 117.154344 241.558681 
L 119.444673 260.50111 
L 121.735001 257.654212 
L 124.025329 265.756588 
" clip-path="url(#p6d19443a54)" style="fill: none; stroke: #66c2a5; stroke-width: 1.5; stroke-linecap: round"/>
    <g clip-path="url(#p6d19443a54)">
     <use xlink:href="#mcfa67afdae" x="80.509091" y="253.003084" style="fill: #66c2a5; stroke: #66c2a5"/>
     <use xlink:href="#mcfa67afdae" x="82.799419" y="261.10546" style="fill: #66c2a5; stroke: #66c2a5"/>
     <use xlink:href="#mcfa67afdae" x="85.089748" y="258.258563" style="fill: #66c2a5; stroke: #66c2a5"/>
     <use xlink:href="#mcfa67afdae" x="87.380076" y="277.200991" style="fill: #66c2a5; stroke: #66c2a5"/>
     <use xlink:href="#mcfa67afdae" x="89.670404" y="259.941133" style="fill: #66c2a5; stroke: #66c2a5"/>
     <use xlink:href="#mcfa67afdae" x="91.960733" y="256.625028" style="fill: #66c2a5; stroke: #66c2a5"/>
     <use xlink:href="#mcfa67afdae" x="94.251061" y="262.792508" style="fill: #66c2a5; stroke: #66c2a5"/>
     <use xlink:href="#mcfa67afdae" x="96.541389" y="259.034092" style="fill: #66c2a5; stroke: #66c2a5"/>
     <use xlink:href="#mcfa67afdae" x="98.831718" y="249.889662" style="fill: #66c2a5; stroke: #66c2a5"/>
     <use xlink:href="#mcfa67afdae" x="101.122046" y="260.782918" style="fill: #66c2a5; stroke: #66c2a5"/>
     <use xlink:href="#mcfa67afdae" x="103.412374" y="257.976755" style="fill: #66c2a5; stroke: #66c2a5"/>
     <use xlink:href="#mcfa67afdae" x="105.702703" y="268.87001" style="fill: #66c2a5; stroke: #66c2a5"/>
     <use xlink:href="#mcfa67afdae" x="107.993031" y="259.725581" style="fill: #66c2a5; stroke: #66c2a5"/>
     <use xlink:href="#mcfa67afdae" x="110.283359" y="255.967165" style="fill: #66c2a5; stroke: #66c2a5"/>
     <use xlink:href="#mcfa67afdae" x="112.573688" y="262.134645" style="fill: #66c2a5; stroke: #66c2a5"/>
     <use xlink:href="#mcfa67afdae" x="114.864016" y="258.818539" style="fill: #66c2a5; stroke: #66c2a5"/>
     <use xlink:href="#mcfa67afdae" x="117.154344" y="241.558681" style="fill: #66c2a5; stroke: #66c2a5"/>
     <use xlink:href="#mcfa67afdae" x="119.444673" y="260.50111" style="fill: #66c2a5; stroke: #66c2a5"/>
     <use xlink:href="#mcfa67afdae" x="121.735001" y="257.654212" style="fill: #66c2a5; stroke: #66c2a5"/>
     <use xlink:href="#mcfa67afdae" x="124.025329" y="265.756588" style="fill: #66c2a5; stroke: #66c2a5"/>
    </g>
   </g>
   <g id="line2d_55">
    <path d="M 101.122046 231.381995 
L 115.823273 232.695605 
L 130.524499 234.506504 
L 145.225726 237.962994 
L 159.926953 243.146289 
L 174.628179 247.483824 
L 189.329406 258.850033 
L 204.030632 264.6908 
L 218.731859 269.022403 
L 233.433086 274.105578 
L 248.134312 278.391873 
L 262.835539 283.379886 
L 277.536766 287.308269 
L 292.237992 291.518789 
L 306.939219 296.251357 
L 321.640446 300.484686 
L 336.341672 303.984102 
L 351.042899 309.388892 
L 365.744126 313.646873 
L 380.445352 318.48113 
" clip-path="url(#p6d19443a54)" style="fill: none; stroke-dasharray: 24,6; stroke-dashoffset: 0; stroke: #000000; stroke-width: 3"/>
   </g>
   <g id="patch_3">
    <path d="M 64.8 460.8 
L 64.8 86.4 
" style="fill: none; stroke: #cccccc; stroke-width: 1.25; stroke-linejoin: miter; stroke-linecap: square"/>
   </g>
   <g id="patch_4">
    <path d="M 410.4 460.8 
L 410.4 86.4 
" style="fill: none; stroke: #cccccc; stroke-width: 1.25; stroke-linejoin: miter; stroke-linecap: square"/>
   </g>
   <g id="patch_5">
    <path d="M 64.8 460.8 
L 410.4 460.8 
" style="fill: none; stroke: #cccccc; stroke-width: 1.25; stroke-linejoin: miter; stroke-linecap: square"/>
   </g>
   <g id="patch_6">
    <path d="M 64.8 86.4 
L 410.4 86.4 
" style="fill: none; stroke: #cccccc; stroke-width: 1.25; stroke-linejoin: miter; stroke-linecap: square"/>
   </g>
   <g id="text_17">
    <!-- Cluster 2 -->
    <g style="fill: #262626" transform="translate(210.580313 53.52525) scale(0.12 -0.12)">
     <defs>
      <path id="DejaVuSans-43" d="M 4122 4306 
L 4122 3641 
Q 3803 3938 3442 4084 
Q 3081 4231 2675 4231 
Q 1875 4231 1450 3742 
Q 1025 3253 1025 2328 
Q 1025 1406 1450 917 
Q 1875 428 2675 428 
Q 3081 428 3442 575 
Q 3803 722 4122 1019 
L 4122 359 
Q 3791 134 3420 21 
Q 3050 -91 2638 -91 
Q 1578 -91 968 557 
Q 359 1206 359 2328 
Q 359 3453 968 4101 
Q 1578 4750 2638 4750 
Q 3056 4750 3426 4639 
Q 3797 4528 4122 4306 
z
" transform="scale(0.015625)"/>
      <path id="DejaVuSans-6c" d="M 603 4863 
L 1178 4863 
L 1178 0 
L 603 0 
L 603 4863 
z
" transform="scale(0.015625)"/>
      <path id="DejaVuSans-75" d="M 544 1381 
L 544 3500 
L 1119 3500 
L 1119 1403 
Q 1119 906 1312 657 
Q 1506 409 1894 409 
Q 2359 409 2629 706 
Q 2900 1003 2900 1516 
L 2900 3500 
L 3475 3500 
L 3475 0 
L 2900 0 
L 2900 538 
Q 2691 219 2414 64 
Q 2138 -91 1772 -91 
Q 1169 -91 856 284 
Q 544 659 544 1381 
z
M 1991 3584 
L 1991 3584 
z
" transform="scale(0.015625)"/>
      <path id="DejaVuSans-73" d="M 2834 3397 
L 2834 2853 
Q 2591 2978 2328 3040 
Q 2066 3103 1784 3103 
Q 1356 3103 1142 2972 
Q 928 2841 928 2578 
Q 928 2378 1081 2264 
Q 1234 2150 1697 2047 
L 1894 2003 
Q 2506 1872 2764 1633 
Q 3022 1394 3022 966 
Q 3022 478 2636 193 
Q 2250 -91 1575 -91 
Q 1294 -91 989 -36 
Q 684 19 347 128 
L 347 722 
Q 666 556 975 473 
Q 1284 391 1588 391 
Q 1994 391 2212 530 
Q 2431 669 2431 922 
Q 2431 1156 2273 1281 
Q 2116 1406 1581 1522 
L 1381 1569 
Q 847 1681 609 1914 
Q 372 2147 372 2553 
Q 372 3047 722 3315 
Q 1072 3584 1716 3584 
Q 2034 3584 2315 3537 
Q 2597 3491 2834 3397 
z
" transform="scale(0.015625)"/>
      <path id="DejaVuSans-74" d="M 1172 4494 
L 1172 3500 
L 2356 3500 
L 2356 3053 
L 1172 3053 
L 1172 1153 
Q 1172 725 1289 603 
Q 1406 481 1766 481 
L 2356 481 
L 2356 0 
L 1766 0 
Q 1100 0 847 248 
Q 594 497 594 1153 
L 594 3053 
L 172 3053 
L 172 3500 
L 594 3500 
L 594 4494 
L 1172 4494 
z
" transform="scale(0.015625)"/>
      <path id="DejaVuSans-65" d="M 3597 1894 
L 3597 1613 
L 953 1613 
Q 991 1019 1311 708 
Q 1631 397 2203 397 
Q 2534 397 2845 478 
Q 3156 559 3463 722 
L 3463 178 
Q 3153 47 2828 -22 
Q 2503 -91 2169 -91 
Q 1331 -91 842 396 
Q 353 884 353 1716 
Q 353 2575 817 3079 
Q 1281 3584 2069 3584 
Q 2775 3584 3186 3129 
Q 3597 2675 3597 1894 
z
M 3022 2063 
Q 3016 2534 2758 2815 
Q 2500 3097 2075 3097 
Q 1594 3097 1305 2825 
Q 1016 2553 972 2059 
L 3022 2063 
z
" transform="scale(0.015625)"/>
      <path id="DejaVuSans-72" d="M 2631 2963 
Q 2534 3019 2420 3045 
Q 2306 3072 2169 3072 
Q 1681 3072 1420 2755 
Q 1159 2438 1159 1844 
L 1159 0 
L 581 0 
L 581 3500 
L 1159 3500 
L 1159 2956 
Q 1341 3275 1631 3429 
Q 1922 3584 2338 3584 
Q 2397 3584 2469 3576 
Q 2541 3569 2628 3553 
L 2631 2963 
z
" transform="scale(0.015625)"/>
      <path id="DejaVuSans-20" transform="scale(0.015625)"/>
     </defs>
     <use xlink:href="#DejaVuSans-43"/>
     <use xlink:href="#DejaVuSans-6c" transform="translate(69.824219 0)"/>
     <use xlink:href="#DejaVuSans-75" transform="translate(97.607422 0)"/>
     <use xlink:href="#DejaVuSans-73" transform="translate(160.986328 0)"/>
     <use xlink:href="#DejaVuSans-74" transform="translate(213.085938 0)"/>
     <use xlink:href="#DejaVuSans-65" transform="translate(252.294922 0)"/>
     <use xlink:href="#DejaVuSans-72" transform="translate(313.818359 0)"/>
     <use xlink:href="#DejaVuSans-20" transform="translate(354.931641 0)"/>
     <use xlink:href="#DejaVuSans-32" transform="translate(386.71875 0)"/>
    </g>
    <!-- 19 Trajectories  -->
    <g style="fill: #262626" transform="translate(191.595938 66.962625) scale(0.12 -0.12)">
     <defs>
      <path id="DejaVuSans-39" d="M 703 97 
L 703 672 
Q 941 559 1184 500 
Q 1428 441 1663 441 
Q 2288 441 2617 861 
Q 2947 1281 2994 2138 
Q 2813 1869 2534 1725 
Q 2256 1581 1919 1581 
Q 1219 1581 811 2004 
Q 403 2428 403 3163 
Q 403 3881 828 4315 
Q 1253 4750 1959 4750 
Q 2769 4750 3195 4129 
Q 3622 3509 3622 2328 
Q 3622 1225 3098 567 
Q 2575 -91 1691 -91 
Q 1453 -91 1209 -44 
Q 966 3 703 97 
z
M 1959 2075 
Q 2384 2075 2632 2365 
Q 2881 2656 2881 3163 
Q 2881 3666 2632 3958 
Q 2384 4250 1959 4250 
Q 1534 4250 1286 3958 
Q 1038 3666 1038 3163 
Q 1038 2656 1286 2365 
Q 1534 2075 1959 2075 
z
" transform="scale(0.015625)"/>
      <path id="DejaVuSans-54" d="M -19 4666 
L 3928 4666 
L 3928 4134 
L 2272 4134 
L 2272 0 
L 1638 0 
L 1638 4134 
L -19 4134 
L -19 4666 
z
" transform="scale(0.015625)"/>
      <path id="DejaVuSans-61" d="M 2194 1759 
Q 1497 1759 1228 1600 
Q 959 1441 959 1056 
Q 959 750 1161 570 
Q 1363 391 1709 391 
Q 2188 391 2477 730 
Q 2766 1069 2766 1631 
L 2766 1759 
L 2194 1759 
z
M 3341 1997 
L 3341 0 
L 2766 0 
L 2766 531 
Q 2569 213 2275 61 
Q 1981 -91 1556 -91 
Q 1019 -91 701 211 
Q 384 513 384 1019 
Q 384 1609 779 1909 
Q 1175 2209 1959 2209 
L 2766 2209 
L 2766 2266 
Q 2766 2663 2505 2880 
Q 2244 3097 1772 3097 
Q 1472 3097 1187 3025 
Q 903 2953 641 2809 
L 641 3341 
Q 956 3463 1253 3523 
Q 1550 3584 1831 3584 
Q 2591 3584 2966 3190 
Q 3341 2797 3341 1997 
z
" transform="scale(0.015625)"/>
      <path id="DejaVuSans-6a" d="M 603 3500 
L 1178 3500 
L 1178 -63 
Q 1178 -731 923 -1031 
Q 669 -1331 103 -1331 
L -116 -1331 
L -116 -844 
L 38 -844 
Q 366 -844 484 -692 
Q 603 -541 603 -63 
L 603 3500 
z
M 603 4863 
L 1178 4863 
L 1178 4134 
L 603 4134 
L 603 4863 
z
" transform="scale(0.015625)"/>
      <path id="DejaVuSans-63" d="M 3122 3366 
L 3122 2828 
Q 2878 2963 2633 3030 
Q 2388 3097 2138 3097 
Q 1578 3097 1268 2742 
Q 959 2388 959 1747 
Q 959 1106 1268 751 
Q 1578 397 2138 397 
Q 2388 397 2633 464 
Q 2878 531 3122 666 
L 3122 134 
Q 2881 22 2623 -34 
Q 2366 -91 2075 -91 
Q 1284 -91 818 406 
Q 353 903 353 1747 
Q 353 2603 823 3093 
Q 1294 3584 2113 3584 
Q 2378 3584 2631 3529 
Q 2884 3475 3122 3366 
z
" transform="scale(0.015625)"/>
      <path id="DejaVuSans-6f" d="M 1959 3097 
Q 1497 3097 1228 2736 
Q 959 2375 959 1747 
Q 959 1119 1226 758 
Q 1494 397 1959 397 
Q 2419 397 2687 759 
Q 2956 1122 2956 1747 
Q 2956 2369 2687 2733 
Q 2419 3097 1959 3097 
z
M 1959 3584 
Q 2709 3584 3137 3096 
Q 3566 2609 3566 1747 
Q 3566 888 3137 398 
Q 2709 -91 1959 -91 
Q 1206 -91 779 398 
Q 353 888 353 1747 
Q 353 2609 779 3096 
Q 1206 3584 1959 3584 
z
" transform="scale(0.015625)"/>
      <path id="DejaVuSans-69" d="M 603 3500 
L 1178 3500 
L 1178 0 
L 603 0 
L 603 3500 
z
M 603 4863 
L 1178 4863 
L 1178 4134 
L 603 4134 
L 603 4863 
z
" transform="scale(0.015625)"/>
     </defs>
     <use xlink:href="#DejaVuSans-31"/>
     <use xlink:href="#DejaVuSans-39" transform="translate(63.623047 0)"/>
     <use xlink:href="#DejaVuSans-20" transform="translate(127.246094 0)"/>
     <use xlink:href="#DejaVuSans-54" transform="translate(159.033203 0)"/>
     <use xlink:href="#DejaVuSans-72" transform="translate(205.367188 0)"/>
     <use xlink:href="#DejaVuSans-61" transform="translate(246.480469 0)"/>
     <use xlink:href="#DejaVuSans-6a" transform="translate(307.759766 0)"/>
     <use xlink:href="#DejaVuSans-65" transform="translate(335.542969 0)"/>
     <use xlink:href="#DejaVuSans-63" transform="translate(397.066406 0)"/>
     <use xlink:href="#DejaVuSans-74" transform="translate(452.046875 0)"/>
     <use xlink:href="#DejaVuSans-6f" transform="translate(491.255859 0)"/>
     <use xlink:href="#DejaVuSans-72" transform="translate(552.4375 0)"/>
     <use xlink:href="#DejaVuSans-69" transform="translate(593.550781 0)"/>
     <use xlink:href="#DejaVuSans-65" transform="translate(621.333984 0)"/>
     <use xlink:href="#DejaVuSans-73" transform="translate(682.857422 0)"/>
     <use xlink:href="#DejaVuSans-20" transform="translate(734.957031 0)"/>
    </g>
    <!--  Colored by: func_old -->
    <g style="fill: #262626" transform="translate(174.737813 80.4) scale(0.12 -0.12)">
     <defs>
      <path id="DejaVuSans-64" d="M 2906 2969 
L 2906 4863 
L 3481 4863 
L 3481 0 
L 2906 0 
L 2906 525 
Q 2725 213 2448 61 
Q 2172 -91 1784 -91 
Q 1150 -91 751 415 
Q 353 922 353 1747 
Q 353 2572 751 3078 
Q 1150 3584 1784 3584 
Q 2172 3584 2448 3432 
Q 2725 3281 2906 2969 
z
M 947 1747 
Q 947 1113 1208 752 
Q 1469 391 1925 391 
Q 2381 391 2643 752 
Q 2906 1113 2906 1747 
Q 2906 2381 2643 2742 
Q 2381 3103 1925 3103 
Q 1469 3103 1208 2742 
Q 947 2381 947 1747 
z
" transform="scale(0.015625)"/>
      <path id="DejaVuSans-62" d="M 3116 1747 
Q 3116 2381 2855 2742 
Q 2594 3103 2138 3103 
Q 1681 3103 1420 2742 
Q 1159 2381 1159 1747 
Q 1159 1113 1420 752 
Q 1681 391 2138 391 
Q 2594 391 2855 752 
Q 3116 1113 3116 1747 
z
M 1159 2969 
Q 1341 3281 1617 3432 
Q 1894 3584 2278 3584 
Q 2916 3584 3314 3078 
Q 3713 2572 3713 1747 
Q 3713 922 3314 415 
Q 2916 -91 2278 -91 
Q 1894 -91 1617 61 
Q 1341 213 1159 525 
L 1159 0 
L 581 0 
L 581 4863 
L 1159 4863 
L 1159 2969 
z
" transform="scale(0.015625)"/>
      <path id="DejaVuSans-79" d="M 2059 -325 
Q 1816 -950 1584 -1140 
Q 1353 -1331 966 -1331 
L 506 -1331 
L 506 -850 
L 844 -850 
Q 1081 -850 1212 -737 
Q 1344 -625 1503 -206 
L 1606 56 
L 191 3500 
L 800 3500 
L 1894 763 
L 2988 3500 
L 3597 3500 
L 2059 -325 
z
" transform="scale(0.015625)"/>
      <path id="DejaVuSans-3a" d="M 750 794 
L 1409 794 
L 1409 0 
L 750 0 
L 750 794 
z
M 750 3309 
L 1409 3309 
L 1409 2516 
L 750 2516 
L 750 3309 
z
" transform="scale(0.015625)"/>
      <path id="DejaVuSans-66" d="M 2375 4863 
L 2375 4384 
L 1825 4384 
Q 1516 4384 1395 4259 
Q 1275 4134 1275 3809 
L 1275 3500 
L 2222 3500 
L 2222 3053 
L 1275 3053 
L 1275 0 
L 697 0 
L 697 3053 
L 147 3053 
L 147 3500 
L 697 3500 
L 697 3744 
Q 697 4328 969 4595 
Q 1241 4863 1831 4863 
L 2375 4863 
z
" transform="scale(0.015625)"/>
      <path id="DejaVuSans-6e" d="M 3513 2113 
L 3513 0 
L 2938 0 
L 2938 2094 
Q 2938 2591 2744 2837 
Q 2550 3084 2163 3084 
Q 1697 3084 1428 2787 
Q 1159 2491 1159 1978 
L 1159 0 
L 581 0 
L 581 3500 
L 1159 3500 
L 1159 2956 
Q 1366 3272 1645 3428 
Q 1925 3584 2291 3584 
Q 2894 3584 3203 3211 
Q 3513 2838 3513 2113 
z
" transform="scale(0.015625)"/>
      <path id="DejaVuSans-5f" d="M 3263 -1063 
L 3263 -1509 
L -63 -1509 
L -63 -1063 
L 3263 -1063 
z
" transform="scale(0.015625)"/>
     </defs>
     <use xlink:href="#DejaVuSans-20"/>
     <use xlink:href="#DejaVuSans-43" transform="translate(31.787109 0)"/>
     <use xlink:href="#DejaVuSans-6f" transform="translate(101.611328 0)"/>
     <use xlink:href="#DejaVuSans-6c" transform="translate(162.792969 0)"/>
     <use xlink:href="#DejaVuSans-6f" transform="translate(190.576172 0)"/>
     <use xlink:href="#DejaVuSans-72" transform="translate(251.757812 0)"/>
     <use xlink:href="#DejaVuSans-65" transform="translate(290.621094 0)"/>
     <use xlink:href="#DejaVuSans-64" transform="translate(352.144531 0)"/>
     <use xlink:href="#DejaVuSans-20" transform="translate(415.621094 0)"/>
     <use xlink:href="#DejaVuSans-62" transform="translate(447.408203 0)"/>
     <use xlink:href="#DejaVuSans-79" transform="translate(510.884766 0)"/>
     <use xlink:href="#DejaVuSans-3a" transform="translate(562.814453 0)"/>
     <use xlink:href="#DejaVuSans-20" transform="translate(596.505859 0)"/>
     <use xlink:href="#DejaVuSans-66" transform="translate(628.292969 0)"/>
     <use xlink:href="#DejaVuSans-75" transform="translate(663.498047 0)"/>
     <use xlink:href="#DejaVuSans-6e" transform="translate(726.876953 0)"/>
     <use xlink:href="#DejaVuSans-63" transform="translate(790.255859 0)"/>
     <use xlink:href="#DejaVuSans-5f" transform="translate(845.236328 0)"/>
     <use xlink:href="#DejaVuSans-6f" transform="translate(895.236328 0)"/>
     <use xlink:href="#DejaVuSans-6c" transform="translate(956.417969 0)"/>
     <use xlink:href="#DejaVuSans-64" transform="translate(984.201172 0)"/>
    </g>
   </g>
   <g id="legend_1">
    <g id="patch_7">
     <path d="M 302.823438 175.929688 
L 402.7 175.929688 
Q 404.9 175.929688 404.9 173.729688 
L 404.9 94.1 
Q 404.9 91.9 402.7 91.9 
L 302.823438 91.9 
Q 300.623438 91.9 300.623438 94.1 
L 300.623438 173.729688 
Q 300.623438 175.929688 302.823438 175.929688 
z
" style="fill: #ffffff; opacity: 0.8; stroke: #cccccc; stroke-linejoin: miter"/>
    </g>
    <g id="line2d_56">
     <path d="M 305.023438 100.808281 
L 316.023438 100.808281 
L 327.023438 100.808281 
" style="fill: none; stroke: #66c2a5; stroke-width: 1.5; stroke-linecap: round"/>
    </g>
    <g id="text_18">
     <!-- exponential -->
     <g style="fill: #262626" transform="translate(335.823438 104.658281) scale(0.11 -0.11)">
      <defs>
       <path id="DejaVuSans-78" d="M 3513 3500 
L 2247 1797 
L 3578 0 
L 2900 0 
L 1881 1375 
L 863 0 
L 184 0 
L 1544 1831 
L 300 3500 
L 978 3500 
L 1906 2253 
L 2834 3500 
L 3513 3500 
z
" transform="scale(0.015625)"/>
       <path id="DejaVuSans-70" d="M 1159 525 
L 1159 -1331 
L 581 -1331 
L 581 3500 
L 1159 3500 
L 1159 2969 
Q 1341 3281 1617 3432 
Q 1894 3584 2278 3584 
Q 2916 3584 3314 3078 
Q 3713 2572 3713 1747 
Q 3713 922 3314 415 
Q 2916 -91 2278 -91 
Q 1894 -91 1617 61 
Q 1341 213 1159 525 
z
M 3116 1747 
Q 3116 2381 2855 2742 
Q 2594 3103 2138 3103 
Q 1681 3103 1420 2742 
Q 1159 2381 1159 1747 
Q 1159 1113 1420 752 
Q 1681 391 2138 391 
Q 2594 391 2855 752 
Q 3116 1113 3116 1747 
z
" transform="scale(0.015625)"/>
      </defs>
      <use xlink:href="#DejaVuSans-65"/>
      <use xlink:href="#DejaVuSans-78" transform="translate(59.773438 0)"/>
      <use xlink:href="#DejaVuSans-70" transform="translate(118.953125 0)"/>
      <use xlink:href="#DejaVuSans-6f" transform="translate(182.429688 0)"/>
      <use xlink:href="#DejaVuSans-6e" transform="translate(243.611328 0)"/>
      <use xlink:href="#DejaVuSans-65" transform="translate(306.990234 0)"/>
      <use xlink:href="#DejaVuSans-6e" transform="translate(368.513672 0)"/>
      <use xlink:href="#DejaVuSans-74" transform="translate(431.892578 0)"/>
      <use xlink:href="#DejaVuSans-69" transform="translate(471.101562 0)"/>
      <use xlink:href="#DejaVuSans-61" transform="translate(498.884766 0)"/>
      <use xlink:href="#DejaVuSans-6c" transform="translate(560.164062 0)"/>
     </g>
    </g>
    <g id="line2d_57">
     <path d="M 305.023438 116.954219 
L 316.023438 116.954219 
L 327.023438 116.954219 
" style="fill: none; stroke: #e78ac3; stroke-width: 1.5; stroke-linecap: round"/>
    </g>
    <g id="text_19">
     <!-- linear -->
     <g style="fill: #262626" transform="translate(335.823438 120.804219) scale(0.11 -0.11)">
      <use xlink:href="#DejaVuSans-6c"/>
      <use xlink:href="#DejaVuSans-69" transform="translate(27.783203 0)"/>
      <use xlink:href="#DejaVuSans-6e" transform="translate(55.566406 0)"/>
      <use xlink:href="#DejaVuSans-65" transform="translate(118.945312 0)"/>
      <use xlink:href="#DejaVuSans-61" transform="translate(180.46875 0)"/>
      <use xlink:href="#DejaVuSans-72" transform="translate(241.748047 0)"/>
     </g>
    </g>
    <g id="line2d_58">
     <path d="M 305.023438 133.100156 
L 316.023438 133.100156 
L 327.023438 133.100156 
" style="fill: none; stroke: #ffd92f; stroke-width: 1.5; stroke-linecap: round"/>
    </g>
    <g id="text_20">
     <!-- poly -->
     <g style="fill: #262626" transform="translate(335.823438 136.950156) scale(0.11 -0.11)">
      <use xlink:href="#DejaVuSans-70"/>
      <use xlink:href="#DejaVuSans-6f" transform="translate(63.476562 0)"/>
      <use xlink:href="#DejaVuSans-6c" transform="translate(124.658203 0)"/>
      <use xlink:href="#DejaVuSans-79" transform="translate(152.441406 0)"/>
     </g>
    </g>
    <g id="line2d_59">
     <path d="M 305.023438 149.246094 
L 316.023438 149.246094 
L 327.023438 149.246094 
" style="fill: none; stroke: #66c2a5; stroke-width: 1.5; stroke-linecap: round"/>
    </g>
    <g id="text_21">
     <!-- tan -->
     <g style="fill: #262626" transform="translate(335.823438 153.096094) scale(0.11 -0.11)">
      <use xlink:href="#DejaVuSans-74"/>
      <use xlink:href="#DejaVuSans-61" transform="translate(39.208984 0)"/>
      <use xlink:href="#DejaVuSans-6e" transform="translate(100.488281 0)"/>
     </g>
    </g>
    <g id="line2d_60">
     <path d="M 305.023438 165.392031 
L 316.023438 165.392031 
L 327.023438 165.392031 
" style="fill: none; stroke-dasharray: 24,6; stroke-dashoffset: 0; stroke: #000000; stroke-width: 3"/>
    </g>
    <g id="text_22">
     <!-- Mean -->
     <g style="fill: #262626" transform="translate(335.823438 169.242031) scale(0.11 -0.11)">
      <defs>
       <path id="DejaVuSans-4d" d="M 628 4666 
L 1569 4666 
L 2759 1491 
L 3956 4666 
L 4897 4666 
L 4897 0 
L 4281 0 
L 4281 4097 
L 3078 897 
L 2444 897 
L 1241 4097 
L 1241 0 
L 628 0 
L 628 4666 
z
" transform="scale(0.015625)"/>
      </defs>
      <use xlink:href="#DejaVuSans-4d"/>
      <use xlink:href="#DejaVuSans-65" transform="translate(86.279297 0)"/>
      <use xlink:href="#DejaVuSans-61" transform="translate(147.802734 0)"/>
      <use xlink:href="#DejaVuSans-6e" transform="translate(209.082031 0)"/>
     </g>
    </g>
   </g>
  </g>
 </g>
 <defs>
  <clipPath id="p6d19443a54">
   <rect x="64.8" y="86.4" width="345.6" height="374.4"/>
  </clipPath>
 </defs>
</svg>
