<?xml version="1.0" encoding="utf-8" standalone="no"?>
<!DOCTYPE svg PUBLIC "-//W3C//DTD SVG 1.1//EN"
  "http://www.w3.org/Graphics/SVG/1.1/DTD/svg11.dtd">
<svg xmlns:xlink="http://www.w3.org/1999/xlink" width="432pt" height="576pt" viewBox="0 0 432 576" xmlns="http://www.w3.org/2000/svg" version="1.1">
 <metadata>
  <rdf:RDF xmlns:dc="http://purl.org/dc/elements/1.1/" xmlns:cc="http://creativecommons.org/ns#" xmlns:rdf="http://www.w3.org/1999/02/22-rdf-syntax-ns#">
   <cc:Work>
    <dc:type rdf:resource="http://purl.org/dc/dcmitype/StillImage"/>
    <dc:date>2025-10-08T19:06:52.480146</dc:date>
    <dc:format>image/svg+xml</dc:format>
    <dc:creator>
     <cc:Agent>
      <dc:title>Matplotlib v3.10.3, https://matplotlib.org/</dc:title>
     </cc:Agent>
    </dc:creator>
   </cc:Work>
  </rdf:RDF>
 </metadata>
 <defs>
  <style type="text/css">*{stroke-linejoin: round; stroke-linecap: butt}</style>
 </defs>
 <g id="figure_1">
  <g id="patch_1">
   <path d="M 0 576 
L 432 576 
L 432 0 
L 0 0 
z
" style="fill: #ffffff"/>
  </g>
  <g id="axes_1">
   <g id="patch_2">
    <path d="M 64.8 460.8 
L 410.4 460.8 
L 410.4 86.4 
L 64.8 86.4 
z
" style="fill: #ffffff"/>
   </g>
   <g id="matplotlib.axis_1">
    <g id="xtick_1">
     <g id="line2d_1">
      <path d="M 80.509091 460.8 
L 80.509091 86.4 
" clip-path="url(#p37970ff4b0)" style="fill: none; stroke: #cccccc; stroke-linecap: round"/>
     </g>
     <g id="text_1">
      <!-- 0.0 -->
      <g style="fill: #262626" transform="translate(71.762372 478.658281) scale(0.11 -0.11)">
       <defs>
        <path id="DejaVuSans-30" d="M 2034 4250 
Q 1547 4250 1301 3770 
Q 1056 3291 1056 2328 
Q 1056 1369 1301 889 
Q 1547 409 2034 409 
Q 2525 409 2770 889 
Q 3016 1369 3016 2328 
Q 3016 3291 2770 3770 
Q 2525 4250 2034 4250 
z
M 2034 4750 
Q 2819 4750 3233 4129 
Q 3647 3509 3647 2328 
Q 3647 1150 3233 529 
Q 2819 -91 2034 -91 
Q 1250 -91 836 529 
Q 422 1150 422 2328 
Q 422 3509 836 4129 
Q 1250 4750 2034 4750 
z
" transform="scale(0.015625)"/>
        <path id="DejaVuSans-2e" d="M 684 794 
L 1344 794 
L 1344 0 
L 684 0 
L 684 794 
z
" transform="scale(0.015625)"/>
       </defs>
       <use xlink:href="#DejaVuSans-30"/>
       <use xlink:href="#DejaVuSans-2e" transform="translate(63.623047 0)"/>
       <use xlink:href="#DejaVuSans-30" transform="translate(95.410156 0)"/>
      </g>
     </g>
    </g>
    <g id="xtick_2">
     <g id="line2d_2">
      <path d="M 121.848804 460.8 
L 121.848804 86.4 
" clip-path="url(#p37970ff4b0)" style="fill: none; stroke: #cccccc; stroke-linecap: round"/>
     </g>
     <g id="text_2">
      <!-- 2.5 -->
      <g style="fill: #262626" transform="translate(113.102085 478.658281) scale(0.11 -0.11)">
       <defs>
        <path id="DejaVuSans-32" d="M 1228 531 
L 3431 531 
L 3431 0 
L 469 0 
L 469 531 
Q 828 903 1448 1529 
Q 2069 2156 2228 2338 
Q 2531 2678 2651 2914 
Q 2772 3150 2772 3378 
Q 2772 3750 2511 3984 
Q 2250 4219 1831 4219 
Q 1534 4219 1204 4116 
Q 875 4013 500 3803 
L 500 4441 
Q 881 4594 1212 4672 
Q 1544 4750 1819 4750 
Q 2544 4750 2975 4387 
Q 3406 4025 3406 3419 
Q 3406 3131 3298 2873 
Q 3191 2616 2906 2266 
Q 2828 2175 2409 1742 
Q 1991 1309 1228 531 
z
" transform="scale(0.015625)"/>
        <path id="DejaVuSans-35" d="M 691 4666 
L 3169 4666 
L 3169 4134 
L 1269 4134 
L 1269 2991 
Q 1406 3038 1543 3061 
Q 1681 3084 1819 3084 
Q 2600 3084 3056 2656 
Q 3513 2228 3513 1497 
Q 3513 744 3044 326 
Q 2575 -91 1722 -91 
Q 1428 -91 1123 -41 
Q 819 9 494 109 
L 494 744 
Q 775 591 1075 516 
Q 1375 441 1709 441 
Q 2250 441 2565 725 
Q 2881 1009 2881 1497 
Q 2881 1984 2565 2268 
Q 2250 2553 1709 2553 
Q 1456 2553 1204 2497 
Q 953 2441 691 2322 
L 691 4666 
z
" transform="scale(0.015625)"/>
       </defs>
       <use xlink:href="#DejaVuSans-32"/>
       <use xlink:href="#DejaVuSans-2e" transform="translate(63.623047 0)"/>
       <use xlink:href="#DejaVuSans-35" transform="translate(95.410156 0)"/>
      </g>
     </g>
    </g>
    <g id="xtick_3">
     <g id="line2d_3">
      <path d="M 163.188517 460.8 
L 163.188517 86.4 
" clip-path="url(#p37970ff4b0)" style="fill: none; stroke: #cccccc; stroke-linecap: round"/>
     </g>
     <g id="text_3">
      <!-- 5.0 -->
      <g style="fill: #262626" transform="translate(154.441798 478.658281) scale(0.11 -0.11)">
       <use xlink:href="#DejaVuSans-35"/>
       <use xlink:href="#DejaVuSans-2e" transform="translate(63.623047 0)"/>
       <use xlink:href="#DejaVuSans-30" transform="translate(95.410156 0)"/>
      </g>
     </g>
    </g>
    <g id="xtick_4">
     <g id="line2d_4">
      <path d="M 204.52823 460.8 
L 204.52823 86.4 
" clip-path="url(#p37970ff4b0)" style="fill: none; stroke: #cccccc; stroke-linecap: round"/>
     </g>
     <g id="text_4">
      <!-- 7.5 -->
      <g style="fill: #262626" transform="translate(195.781511 478.658281) scale(0.11 -0.11)">
       <defs>
        <path id="DejaVuSans-37" d="M 525 4666 
L 3525 4666 
L 3525 4397 
L 1831 0 
L 1172 0 
L 2766 4134 
L 525 4134 
L 525 4666 
z
" transform="scale(0.015625)"/>
       </defs>
       <use xlink:href="#DejaVuSans-37"/>
       <use xlink:href="#DejaVuSans-2e" transform="translate(63.623047 0)"/>
       <use xlink:href="#DejaVuSans-35" transform="translate(95.410156 0)"/>
      </g>
     </g>
    </g>
    <g id="xtick_5">
     <g id="line2d_5">
      <path d="M 245.867943 460.8 
L 245.867943 86.4 
" clip-path="url(#p37970ff4b0)" style="fill: none; stroke: #cccccc; stroke-linecap: round"/>
     </g>
     <g id="text_5">
      <!-- 10.0 -->
      <g style="fill: #262626" transform="translate(233.621849 478.658281) scale(0.11 -0.11)">
       <defs>
        <path id="DejaVuSans-31" d="M 794 531 
L 1825 531 
L 1825 4091 
L 703 3866 
L 703 4441 
L 1819 4666 
L 2450 4666 
L 2450 531 
L 3481 531 
L 3481 0 
L 794 0 
L 794 531 
z
" transform="scale(0.015625)"/>
       </defs>
       <use xlink:href="#DejaVuSans-31"/>
       <use xlink:href="#DejaVuSans-30" transform="translate(63.623047 0)"/>
       <use xlink:href="#DejaVuSans-2e" transform="translate(127.246094 0)"/>
       <use xlink:href="#DejaVuSans-30" transform="translate(159.033203 0)"/>
      </g>
     </g>
    </g>
    <g id="xtick_6">
     <g id="line2d_6">
      <path d="M 287.207656 460.8 
L 287.207656 86.4 
" clip-path="url(#p37970ff4b0)" style="fill: none; stroke: #cccccc; stroke-linecap: round"/>
     </g>
     <g id="text_6">
      <!-- 12.5 -->
      <g style="fill: #262626" transform="translate(274.961562 478.658281) scale(0.11 -0.11)">
       <use xlink:href="#DejaVuSans-31"/>
       <use xlink:href="#DejaVuSans-32" transform="translate(63.623047 0)"/>
       <use xlink:href="#DejaVuSans-2e" transform="translate(127.246094 0)"/>
       <use xlink:href="#DejaVuSans-35" transform="translate(159.033203 0)"/>
      </g>
     </g>
    </g>
    <g id="xtick_7">
     <g id="line2d_7">
      <path d="M 328.547368 460.8 
L 328.547368 86.4 
" clip-path="url(#p37970ff4b0)" style="fill: none; stroke: #cccccc; stroke-linecap: round"/>
     </g>
     <g id="text_7">
      <!-- 15.0 -->
      <g style="fill: #262626" transform="translate(316.301275 478.658281) scale(0.11 -0.11)">
       <use xlink:href="#DejaVuSans-31"/>
       <use xlink:href="#DejaVuSans-35" transform="translate(63.623047 0)"/>
       <use xlink:href="#DejaVuSans-2e" transform="translate(127.246094 0)"/>
       <use xlink:href="#DejaVuSans-30" transform="translate(159.033203 0)"/>
      </g>
     </g>
    </g>
    <g id="xtick_8">
     <g id="line2d_8">
      <path d="M 369.887081 460.8 
L 369.887081 86.4 
" clip-path="url(#p37970ff4b0)" style="fill: none; stroke: #cccccc; stroke-linecap: round"/>
     </g>
     <g id="text_8">
      <!-- 17.5 -->
      <g style="fill: #262626" transform="translate(357.640988 478.658281) scale(0.11 -0.11)">
       <use xlink:href="#DejaVuSans-31"/>
       <use xlink:href="#DejaVuSans-37" transform="translate(63.623047 0)"/>
       <use xlink:href="#DejaVuSans-2e" transform="translate(127.246094 0)"/>
       <use xlink:href="#DejaVuSans-35" transform="translate(159.033203 0)"/>
      </g>
     </g>
    </g>
   </g>
   <g id="matplotlib.axis_2">
    <g id="ytick_1">
     <g id="line2d_9">
      <path d="M 64.8 401.4567 
L 410.4 401.4567 
" clip-path="url(#p37970ff4b0)" style="fill: none; stroke: #cccccc; stroke-linecap: round"/>
     </g>
     <g id="text_9">
      <!-- −20 -->
      <g style="fill: #262626" transform="translate(32.084844 405.635841) scale(0.11 -0.11)">
       <defs>
        <path id="DejaVuSans-2212" d="M 678 2272 
L 4684 2272 
L 4684 1741 
L 678 1741 
L 678 2272 
z
" transform="scale(0.015625)"/>
       </defs>
       <use xlink:href="#DejaVuSans-2212"/>
       <use xlink:href="#DejaVuSans-32" transform="translate(83.789062 0)"/>
       <use xlink:href="#DejaVuSans-30" transform="translate(147.412109 0)"/>
      </g>
     </g>
    </g>
    <g id="ytick_2">
     <g id="line2d_10">
      <path d="M 64.8 339.373623 
L 410.4 339.373623 
" clip-path="url(#p37970ff4b0)" style="fill: none; stroke: #cccccc; stroke-linecap: round"/>
     </g>
     <g id="text_10">
      <!-- −10 -->
      <g style="fill: #262626" transform="translate(32.084844 343.552764) scale(0.11 -0.11)">
       <use xlink:href="#DejaVuSans-2212"/>
       <use xlink:href="#DejaVuSans-31" transform="translate(83.789062 0)"/>
       <use xlink:href="#DejaVuSans-30" transform="translate(147.412109 0)"/>
      </g>
     </g>
    </g>
    <g id="ytick_3">
     <g id="line2d_11">
      <path d="M 64.8 277.290546 
L 410.4 277.290546 
" clip-path="url(#p37970ff4b0)" style="fill: none; stroke: #cccccc; stroke-linecap: round"/>
     </g>
     <g id="text_11">
      <!-- 0 -->
      <g style="fill: #262626" transform="translate(48.30125 281.469687) scale(0.11 -0.11)">
       <use xlink:href="#DejaVuSans-30"/>
      </g>
     </g>
    </g>
    <g id="ytick_4">
     <g id="line2d_12">
      <path d="M 64.8 215.207469 
L 410.4 215.207469 
" clip-path="url(#p37970ff4b0)" style="fill: none; stroke: #cccccc; stroke-linecap: round"/>
     </g>
     <g id="text_12">
      <!-- 10 -->
      <g style="fill: #262626" transform="translate(41.3025 219.386609) scale(0.11 -0.11)">
       <use xlink:href="#DejaVuSans-31"/>
       <use xlink:href="#DejaVuSans-30" transform="translate(63.623047 0)"/>
      </g>
     </g>
    </g>
    <g id="ytick_5">
     <g id="line2d_13">
      <path d="M 64.8 153.124392 
L 410.4 153.124392 
" clip-path="url(#p37970ff4b0)" style="fill: none; stroke: #cccccc; stroke-linecap: round"/>
     </g>
     <g id="text_13">
      <!-- 20 -->
      <g style="fill: #262626" transform="translate(41.3025 157.303532) scale(0.11 -0.11)">
       <use xlink:href="#DejaVuSans-32"/>
       <use xlink:href="#DejaVuSans-30" transform="translate(63.623047 0)"/>
      </g>
     </g>
    </g>
    <g id="ytick_6">
     <g id="line2d_14">
      <path d="M 64.8 91.041315 
L 410.4 91.041315 
" clip-path="url(#p37970ff4b0)" style="fill: none; stroke: #cccccc; stroke-linecap: round"/>
     </g>
     <g id="text_14">
      <!-- 30 -->
      <g style="fill: #262626" transform="translate(41.3025 95.220455) scale(0.11 -0.11)">
       <defs>
        <path id="DejaVuSans-33" d="M 2597 2516 
Q 3050 2419 3304 2112 
Q 3559 1806 3559 1356 
Q 3559 666 3084 287 
Q 2609 -91 1734 -91 
Q 1441 -91 1130 -33 
Q 819 25 488 141 
L 488 750 
Q 750 597 1062 519 
Q 1375 441 1716 441 
Q 2309 441 2620 675 
Q 2931 909 2931 1356 
Q 2931 1769 2642 2001 
Q 2353 2234 1838 2234 
L 1294 2234 
L 1294 2753 
L 1863 2753 
Q 2328 2753 2575 2939 
Q 2822 3125 2822 3475 
Q 2822 3834 2567 4026 
Q 2313 4219 1838 4219 
Q 1578 4219 1281 4162 
Q 984 4106 628 3988 
L 628 4550 
Q 988 4650 1302 4700 
Q 1616 4750 1894 4750 
Q 2613 4750 3031 4423 
Q 3450 4097 3450 3541 
Q 3450 3153 3228 2886 
Q 3006 2619 2597 2516 
z
" transform="scale(0.015625)"/>
       </defs>
       <use xlink:href="#DejaVuSans-33"/>
       <use xlink:href="#DejaVuSans-30" transform="translate(63.623047 0)"/>
      </g>
     </g>
    </g>
   </g>
   <g id="line2d_15">
    <path d="M 80.509091 350.352176 
L 97.044976 336.830495 
L 113.580861 304.718843 
L 130.116746 256.656075 
L 146.652632 208.810736 
L 163.188517 175.135766 
L 179.724402 152.807769 
L 196.260287 137.494259 
L 212.796172 124.596879 
L 229.332057 114.034426 
L 245.867943 112.230212 
L 262.403828 108.094983 
L 278.939713 106.034433 
L 295.475598 113.277553 
L 312.011483 155.294897 
L 328.547368 210.470933 
L 345.083254 256.692066 
L 361.619139 306.898112 
L 378.155024 357.678227 
L 394.690909 358.495995 
" clip-path="url(#p37970ff4b0)" style="fill: none; stroke: #fc8d62; stroke-width: 1.5; stroke-linecap: round"/>
   </g>
   <g id="line2d_16">
    <path d="M 80.509091 350.352176 
L 97.044976 336.830495 
L 113.580861 304.718843 
L 130.116746 256.656075 
L 146.652632 208.810736 
L 163.188517 175.135766 
L 179.724402 152.807769 
L 196.260287 137.494259 
L 212.796172 124.596879 
L 229.332057 114.034426 
L 245.867943 112.230212 
L 262.403828 108.094983 
L 278.939713 106.034433 
L 295.475598 113.277553 
L 312.011483 155.294897 
L 328.547368 210.470933 
L 345.083254 256.692066 
L 361.619139 306.898112 
L 378.155024 357.678227 
L 394.690909 358.495995 
" clip-path="url(#p37970ff4b0)" style="fill: none; stroke: #fc8d62; stroke-width: 1.5; stroke-linecap: round"/>
    <defs>
     <path id="m96907b8ee8" d="M 0 3 
C 0.795609 3 1.55874 2.683901 2.12132 2.12132 
C 2.683901 1.55874 3 0.795609 3 0 
C 3 -0.795609 2.683901 -1.55874 2.12132 -2.12132 
C 1.55874 -2.683901 0.795609 -3 0 -3 
C -0.795609 -3 -1.55874 -2.683901 -2.12132 -2.12132 
C -2.683901 -1.55874 -3 -0.795609 -3 0 
C -3 0.795609 -2.683901 1.55874 -2.12132 2.12132 
C -1.55874 2.683901 -0.795609 3 0 3 
z
" style="stroke: #fc8d62"/>
    </defs>
    <g clip-path="url(#p37970ff4b0)">
     <use xlink:href="#m96907b8ee8" x="80.509091" y="350.352176" style="fill: #fc8d62; stroke: #fc8d62"/>
     <use xlink:href="#m96907b8ee8" x="97.044976" y="336.830495" style="fill: #fc8d62; stroke: #fc8d62"/>
     <use xlink:href="#m96907b8ee8" x="113.580861" y="304.718843" style="fill: #fc8d62; stroke: #fc8d62"/>
     <use xlink:href="#m96907b8ee8" x="130.116746" y="256.656075" style="fill: #fc8d62; stroke: #fc8d62"/>
     <use xlink:href="#m96907b8ee8" x="146.652632" y="208.810736" style="fill: #fc8d62; stroke: #fc8d62"/>
     <use xlink:href="#m96907b8ee8" x="163.188517" y="175.135766" style="fill: #fc8d62; stroke: #fc8d62"/>
     <use xlink:href="#m96907b8ee8" x="179.724402" y="152.807769" style="fill: #fc8d62; stroke: #fc8d62"/>
     <use xlink:href="#m96907b8ee8" x="196.260287" y="137.494259" style="fill: #fc8d62; stroke: #fc8d62"/>
     <use xlink:href="#m96907b8ee8" x="212.796172" y="124.596879" style="fill: #fc8d62; stroke: #fc8d62"/>
     <use xlink:href="#m96907b8ee8" x="229.332057" y="114.034426" style="fill: #fc8d62; stroke: #fc8d62"/>
     <use xlink:href="#m96907b8ee8" x="245.867943" y="112.230212" style="fill: #fc8d62; stroke: #fc8d62"/>
     <use xlink:href="#m96907b8ee8" x="262.403828" y="108.094983" style="fill: #fc8d62; stroke: #fc8d62"/>
     <use xlink:href="#m96907b8ee8" x="278.939713" y="106.034433" style="fill: #fc8d62; stroke: #fc8d62"/>
     <use xlink:href="#m96907b8ee8" x="295.475598" y="113.277553" style="fill: #fc8d62; stroke: #fc8d62"/>
     <use xlink:href="#m96907b8ee8" x="312.011483" y="155.294897" style="fill: #fc8d62; stroke: #fc8d62"/>
     <use xlink:href="#m96907b8ee8" x="328.547368" y="210.470933" style="fill: #fc8d62; stroke: #fc8d62"/>
     <use xlink:href="#m96907b8ee8" x="345.083254" y="256.692066" style="fill: #fc8d62; stroke: #fc8d62"/>
     <use xlink:href="#m96907b8ee8" x="361.619139" y="306.898112" style="fill: #fc8d62; stroke: #fc8d62"/>
     <use xlink:href="#m96907b8ee8" x="378.155024" y="357.678227" style="fill: #fc8d62; stroke: #fc8d62"/>
     <use xlink:href="#m96907b8ee8" x="394.690909" y="358.495995" style="fill: #fc8d62; stroke: #fc8d62"/>
    </g>
   </g>
   <g id="line2d_17">
    <path d="M 80.509091 414.245577 
L 97.044976 414.808294 
L 113.580861 414.432883 
L 130.116746 399.272018 
L 146.652632 357.152942 
L 163.188517 304.963661 
L 179.724402 277.659138 
L 196.260287 267.094992 
L 212.796172 261.55727 
L 229.332057 258.40832 
L 245.867943 257.65946 
L 262.403828 256.854125 
L 278.939713 259.051145 
L 295.475598 257.657838 
L 312.011483 258.211886 
L 328.547368 257.410336 
L 345.083254 257.853437 
L 361.619139 256.211567 
L 378.155024 310.876083 
L 394.690909 367.648192 
" clip-path="url(#p37970ff4b0)" style="fill: none; stroke: #fc8d62; stroke-width: 1.5; stroke-linecap: round"/>
   </g>
   <g id="line2d_18">
    <path d="M 80.509091 414.245577 
L 97.044976 414.808294 
L 113.580861 414.432883 
L 130.116746 399.272018 
L 146.652632 357.152942 
L 163.188517 304.963661 
L 179.724402 277.659138 
L 196.260287 267.094992 
L 212.796172 261.55727 
L 229.332057 258.40832 
L 245.867943 257.65946 
L 262.403828 256.854125 
L 278.939713 259.051145 
L 295.475598 257.657838 
L 312.011483 258.211886 
L 328.547368 257.410336 
L 345.083254 257.853437 
L 361.619139 256.211567 
L 378.155024 310.876083 
L 394.690909 367.648192 
" clip-path="url(#p37970ff4b0)" style="fill: none; stroke: #fc8d62; stroke-width: 1.5; stroke-linecap: round"/>
    <g clip-path="url(#p37970ff4b0)">
     <use xlink:href="#m96907b8ee8" x="80.509091" y="414.245577" style="fill: #fc8d62; stroke: #fc8d62"/>
     <use xlink:href="#m96907b8ee8" x="97.044976" y="414.808294" style="fill: #fc8d62; stroke: #fc8d62"/>
     <use xlink:href="#m96907b8ee8" x="113.580861" y="414.432883" style="fill: #fc8d62; stroke: #fc8d62"/>
     <use xlink:href="#m96907b8ee8" x="130.116746" y="399.272018" style="fill: #fc8d62; stroke: #fc8d62"/>
     <use xlink:href="#m96907b8ee8" x="146.652632" y="357.152942" style="fill: #fc8d62; stroke: #fc8d62"/>
     <use xlink:href="#m96907b8ee8" x="163.188517" y="304.963661" style="fill: #fc8d62; stroke: #fc8d62"/>
     <use xlink:href="#m96907b8ee8" x="179.724402" y="277.659138" style="fill: #fc8d62; stroke: #fc8d62"/>
     <use xlink:href="#m96907b8ee8" x="196.260287" y="267.094992" style="fill: #fc8d62; stroke: #fc8d62"/>
     <use xlink:href="#m96907b8ee8" x="212.796172" y="261.55727" style="fill: #fc8d62; stroke: #fc8d62"/>
     <use xlink:href="#m96907b8ee8" x="229.332057" y="258.40832" style="fill: #fc8d62; stroke: #fc8d62"/>
     <use xlink:href="#m96907b8ee8" x="245.867943" y="257.65946" style="fill: #fc8d62; stroke: #fc8d62"/>
     <use xlink:href="#m96907b8ee8" x="262.403828" y="256.854125" style="fill: #fc8d62; stroke: #fc8d62"/>
     <use xlink:href="#m96907b8ee8" x="278.939713" y="259.051145" style="fill: #fc8d62; stroke: #fc8d62"/>
     <use xlink:href="#m96907b8ee8" x="295.475598" y="257.657838" style="fill: #fc8d62; stroke: #fc8d62"/>
     <use xlink:href="#m96907b8ee8" x="312.011483" y="258.211886" style="fill: #fc8d62; stroke: #fc8d62"/>
     <use xlink:href="#m96907b8ee8" x="328.547368" y="257.410336" style="fill: #fc8d62; stroke: #fc8d62"/>
     <use xlink:href="#m96907b8ee8" x="345.083254" y="257.853437" style="fill: #fc8d62; stroke: #fc8d62"/>
     <use xlink:href="#m96907b8ee8" x="361.619139" y="256.211567" style="fill: #fc8d62; stroke: #fc8d62"/>
     <use xlink:href="#m96907b8ee8" x="378.155024" y="310.876083" style="fill: #fc8d62; stroke: #fc8d62"/>
     <use xlink:href="#m96907b8ee8" x="394.690909" y="367.648192" style="fill: #fc8d62; stroke: #fc8d62"/>
    </g>
   </g>
   <g id="line2d_19">
    <path d="M 80.509091 351.084066 
L 97.044976 347.703334 
L 113.580861 348.506544 
L 130.116746 345.861148 
L 146.652632 311.230801 
L 163.188517 281.702193 
L 179.724402 268.924068 
L 196.260287 262.465519 
L 212.796172 259.247998 
L 229.332057 254.917186 
L 245.867943 256.453536 
L 262.403828 255.259414 
L 278.939713 256.473561 
L 295.475598 290.099893 
L 312.011483 320.036535 
L 328.547368 350.99519 
L 345.083254 352.573219 
L 361.619139 350.25616 
L 378.155024 347.926663 
L 394.690909 350.023954 
" clip-path="url(#p37970ff4b0)" style="fill: none; stroke: #fc8d62; stroke-width: 1.5; stroke-linecap: round"/>
   </g>
   <g id="line2d_20">
    <path d="M 80.509091 351.084066 
L 97.044976 347.703334 
L 113.580861 348.506544 
L 130.116746 345.861148 
L 146.652632 311.230801 
L 163.188517 281.702193 
L 179.724402 268.924068 
L 196.260287 262.465519 
L 212.796172 259.247998 
L 229.332057 254.917186 
L 245.867943 256.453536 
L 262.403828 255.259414 
L 278.939713 256.473561 
L 295.475598 290.099893 
L 312.011483 320.036535 
L 328.547368 350.99519 
L 345.083254 352.573219 
L 361.619139 350.25616 
L 378.155024 347.926663 
L 394.690909 350.023954 
" clip-path="url(#p37970ff4b0)" style="fill: none; stroke: #fc8d62; stroke-width: 1.5; stroke-linecap: round"/>
    <g clip-path="url(#p37970ff4b0)">
     <use xlink:href="#m96907b8ee8" x="80.509091" y="351.084066" style="fill: #fc8d62; stroke: #fc8d62"/>
     <use xlink:href="#m96907b8ee8" x="97.044976" y="347.703334" style="fill: #fc8d62; stroke: #fc8d62"/>
     <use xlink:href="#m96907b8ee8" x="113.580861" y="348.506544" style="fill: #fc8d62; stroke: #fc8d62"/>
     <use xlink:href="#m96907b8ee8" x="130.116746" y="345.861148" style="fill: #fc8d62; stroke: #fc8d62"/>
     <use xlink:href="#m96907b8ee8" x="146.652632" y="311.230801" style="fill: #fc8d62; stroke: #fc8d62"/>
     <use xlink:href="#m96907b8ee8" x="163.188517" y="281.702193" style="fill: #fc8d62; stroke: #fc8d62"/>
     <use xlink:href="#m96907b8ee8" x="179.724402" y="268.924068" style="fill: #fc8d62; stroke: #fc8d62"/>
     <use xlink:href="#m96907b8ee8" x="196.260287" y="262.465519" style="fill: #fc8d62; stroke: #fc8d62"/>
     <use xlink:href="#m96907b8ee8" x="212.796172" y="259.247998" style="fill: #fc8d62; stroke: #fc8d62"/>
     <use xlink:href="#m96907b8ee8" x="229.332057" y="254.917186" style="fill: #fc8d62; stroke: #fc8d62"/>
     <use xlink:href="#m96907b8ee8" x="245.867943" y="256.453536" style="fill: #fc8d62; stroke: #fc8d62"/>
     <use xlink:href="#m96907b8ee8" x="262.403828" y="255.259414" style="fill: #fc8d62; stroke: #fc8d62"/>
     <use xlink:href="#m96907b8ee8" x="278.939713" y="256.473561" style="fill: #fc8d62; stroke: #fc8d62"/>
     <use xlink:href="#m96907b8ee8" x="295.475598" y="290.099893" style="fill: #fc8d62; stroke: #fc8d62"/>
     <use xlink:href="#m96907b8ee8" x="312.011483" y="320.036535" style="fill: #fc8d62; stroke: #fc8d62"/>
     <use xlink:href="#m96907b8ee8" x="328.547368" y="350.99519" style="fill: #fc8d62; stroke: #fc8d62"/>
     <use xlink:href="#m96907b8ee8" x="345.083254" y="352.573219" style="fill: #fc8d62; stroke: #fc8d62"/>
     <use xlink:href="#m96907b8ee8" x="361.619139" y="350.25616" style="fill: #fc8d62; stroke: #fc8d62"/>
     <use xlink:href="#m96907b8ee8" x="378.155024" y="347.926663" style="fill: #fc8d62; stroke: #fc8d62"/>
     <use xlink:href="#m96907b8ee8" x="394.690909" y="350.023954" style="fill: #fc8d62; stroke: #fc8d62"/>
    </g>
   </g>
   <g id="line2d_21">
    <path d="M 80.509091 369.922675 
L 97.044976 364.657514 
L 113.580861 365.748037 
L 130.116746 357.567382 
L 146.652632 337.773382 
L 163.188517 303.493371 
L 179.724402 281.569455 
L 196.260287 263.137697 
L 212.796172 255.347571 
L 229.332057 251.159971 
L 245.867943 244.501019 
L 262.403828 246.219601 
L 278.939713 246.675196 
L 295.475598 240.988708 
L 312.011483 245.034526 
L 328.547368 244.89565 
L 345.083254 245.673841 
L 361.619139 244.216714 
L 378.155024 305.402533 
L 394.690909 366.172782 
" clip-path="url(#p37970ff4b0)" style="fill: none; stroke: #fc8d62; stroke-width: 1.5; stroke-linecap: round"/>
   </g>
   <g id="line2d_22">
    <path d="M 80.509091 369.922675 
L 97.044976 364.657514 
L 113.580861 365.748037 
L 130.116746 357.567382 
L 146.652632 337.773382 
L 163.188517 303.493371 
L 179.724402 281.569455 
L 196.260287 263.137697 
L 212.796172 255.347571 
L 229.332057 251.159971 
L 245.867943 244.501019 
L 262.403828 246.219601 
L 278.939713 246.675196 
L 295.475598 240.988708 
L 312.011483 245.034526 
L 328.547368 244.89565 
L 345.083254 245.673841 
L 361.619139 244.216714 
L 378.155024 305.402533 
L 394.690909 366.172782 
" clip-path="url(#p37970ff4b0)" style="fill: none; stroke: #fc8d62; stroke-width: 1.5; stroke-linecap: round"/>
    <g clip-path="url(#p37970ff4b0)">
     <use xlink:href="#m96907b8ee8" x="80.509091" y="369.922675" style="fill: #fc8d62; stroke: #fc8d62"/>
     <use xlink:href="#m96907b8ee8" x="97.044976" y="364.657514" style="fill: #fc8d62; stroke: #fc8d62"/>
     <use xlink:href="#m96907b8ee8" x="113.580861" y="365.748037" style="fill: #fc8d62; stroke: #fc8d62"/>
     <use xlink:href="#m96907b8ee8" x="130.116746" y="357.567382" style="fill: #fc8d62; stroke: #fc8d62"/>
     <use xlink:href="#m96907b8ee8" x="146.652632" y="337.773382" style="fill: #fc8d62; stroke: #fc8d62"/>
     <use xlink:href="#m96907b8ee8" x="163.188517" y="303.493371" style="fill: #fc8d62; stroke: #fc8d62"/>
     <use xlink:href="#m96907b8ee8" x="179.724402" y="281.569455" style="fill: #fc8d62; stroke: #fc8d62"/>
     <use xlink:href="#m96907b8ee8" x="196.260287" y="263.137697" style="fill: #fc8d62; stroke: #fc8d62"/>
     <use xlink:href="#m96907b8ee8" x="212.796172" y="255.347571" style="fill: #fc8d62; stroke: #fc8d62"/>
     <use xlink:href="#m96907b8ee8" x="229.332057" y="251.159971" style="fill: #fc8d62; stroke: #fc8d62"/>
     <use xlink:href="#m96907b8ee8" x="245.867943" y="244.501019" style="fill: #fc8d62; stroke: #fc8d62"/>
     <use xlink:href="#m96907b8ee8" x="262.403828" y="246.219601" style="fill: #fc8d62; stroke: #fc8d62"/>
     <use xlink:href="#m96907b8ee8" x="278.939713" y="246.675196" style="fill: #fc8d62; stroke: #fc8d62"/>
     <use xlink:href="#m96907b8ee8" x="295.475598" y="240.988708" style="fill: #fc8d62; stroke: #fc8d62"/>
     <use xlink:href="#m96907b8ee8" x="312.011483" y="245.034526" style="fill: #fc8d62; stroke: #fc8d62"/>
     <use xlink:href="#m96907b8ee8" x="328.547368" y="244.89565" style="fill: #fc8d62; stroke: #fc8d62"/>
     <use xlink:href="#m96907b8ee8" x="345.083254" y="245.673841" style="fill: #fc8d62; stroke: #fc8d62"/>
     <use xlink:href="#m96907b8ee8" x="361.619139" y="244.216714" style="fill: #fc8d62; stroke: #fc8d62"/>
     <use xlink:href="#m96907b8ee8" x="378.155024" y="305.402533" style="fill: #fc8d62; stroke: #fc8d62"/>
     <use xlink:href="#m96907b8ee8" x="394.690909" y="366.172782" style="fill: #fc8d62; stroke: #fc8d62"/>
    </g>
   </g>
   <g id="line2d_23">
    <path d="M 80.509091 439.418968 
L 97.044976 430.403484 
L 113.580861 381.261112 
L 130.116746 323.716419 
L 146.652632 282.9493 
L 163.188517 266.484106 
L 179.724402 260.302996 
L 196.260287 256.089027 
L 212.796172 255.391166 
L 229.332057 254.347526 
L 245.867943 253.156668 
L 262.403828 256.508782 
L 278.939713 256.249589 
L 295.475598 252.32146 
L 312.011483 294.86039 
L 328.547368 344.421393 
L 345.083254 385.063327 
L 361.619139 426.538028 
L 378.155024 443.781818 
L 394.690909 440.031479 
" clip-path="url(#p37970ff4b0)" style="fill: none; stroke: #fc8d62; stroke-width: 1.5; stroke-linecap: round"/>
   </g>
   <g id="line2d_24">
    <path d="M 80.509091 439.418968 
L 97.044976 430.403484 
L 113.580861 381.261112 
L 130.116746 323.716419 
L 146.652632 282.9493 
L 163.188517 266.484106 
L 179.724402 260.302996 
L 196.260287 256.089027 
L 212.796172 255.391166 
L 229.332057 254.347526 
L 245.867943 253.156668 
L 262.403828 256.508782 
L 278.939713 256.249589 
L 295.475598 252.32146 
L 312.011483 294.86039 
L 328.547368 344.421393 
L 345.083254 385.063327 
L 361.619139 426.538028 
L 378.155024 443.781818 
L 394.690909 440.031479 
" clip-path="url(#p37970ff4b0)" style="fill: none; stroke: #fc8d62; stroke-width: 1.5; stroke-linecap: round"/>
    <g clip-path="url(#p37970ff4b0)">
     <use xlink:href="#m96907b8ee8" x="80.509091" y="439.418968" style="fill: #fc8d62; stroke: #fc8d62"/>
     <use xlink:href="#m96907b8ee8" x="97.044976" y="430.403484" style="fill: #fc8d62; stroke: #fc8d62"/>
     <use xlink:href="#m96907b8ee8" x="113.580861" y="381.261112" style="fill: #fc8d62; stroke: #fc8d62"/>
     <use xlink:href="#m96907b8ee8" x="130.116746" y="323.716419" style="fill: #fc8d62; stroke: #fc8d62"/>
     <use xlink:href="#m96907b8ee8" x="146.652632" y="282.9493" style="fill: #fc8d62; stroke: #fc8d62"/>
     <use xlink:href="#m96907b8ee8" x="163.188517" y="266.484106" style="fill: #fc8d62; stroke: #fc8d62"/>
     <use xlink:href="#m96907b8ee8" x="179.724402" y="260.302996" style="fill: #fc8d62; stroke: #fc8d62"/>
     <use xlink:href="#m96907b8ee8" x="196.260287" y="256.089027" style="fill: #fc8d62; stroke: #fc8d62"/>
     <use xlink:href="#m96907b8ee8" x="212.796172" y="255.391166" style="fill: #fc8d62; stroke: #fc8d62"/>
     <use xlink:href="#m96907b8ee8" x="229.332057" y="254.347526" style="fill: #fc8d62; stroke: #fc8d62"/>
     <use xlink:href="#m96907b8ee8" x="245.867943" y="253.156668" style="fill: #fc8d62; stroke: #fc8d62"/>
     <use xlink:href="#m96907b8ee8" x="262.403828" y="256.508782" style="fill: #fc8d62; stroke: #fc8d62"/>
     <use xlink:href="#m96907b8ee8" x="278.939713" y="256.249589" style="fill: #fc8d62; stroke: #fc8d62"/>
     <use xlink:href="#m96907b8ee8" x="295.475598" y="252.32146" style="fill: #fc8d62; stroke: #fc8d62"/>
     <use xlink:href="#m96907b8ee8" x="312.011483" y="294.86039" style="fill: #fc8d62; stroke: #fc8d62"/>
     <use xlink:href="#m96907b8ee8" x="328.547368" y="344.421393" style="fill: #fc8d62; stroke: #fc8d62"/>
     <use xlink:href="#m96907b8ee8" x="345.083254" y="385.063327" style="fill: #fc8d62; stroke: #fc8d62"/>
     <use xlink:href="#m96907b8ee8" x="361.619139" y="426.538028" style="fill: #fc8d62; stroke: #fc8d62"/>
     <use xlink:href="#m96907b8ee8" x="378.155024" y="443.781818" style="fill: #fc8d62; stroke: #fc8d62"/>
     <use xlink:href="#m96907b8ee8" x="394.690909" y="440.031479" style="fill: #fc8d62; stroke: #fc8d62"/>
    </g>
   </g>
   <g id="line2d_25">
    <path d="M 80.509091 318.672577 
L 97.044976 309.543719 
L 113.580861 269.165743 
L 130.116746 215.318762 
L 146.652632 171.083915 
L 163.188517 138.406308 
L 179.724402 121.650715 
L 196.260287 111.216031 
L 212.796172 111.791571 
L 229.332057 105.280909 
L 245.867943 107.879896 
L 262.403828 103.418182 
L 278.939713 138.693214 
L 295.475598 172.081305 
L 312.011483 195.673439 
L 328.547368 227.42959 
L 345.083254 264.647576 
L 361.619139 289.606809 
L 378.155024 326.834039 
L 394.690909 319.533066 
" clip-path="url(#p37970ff4b0)" style="fill: none; stroke: #fc8d62; stroke-width: 1.5; stroke-linecap: round"/>
   </g>
   <g id="line2d_26">
    <path d="M 80.509091 318.672577 
L 97.044976 309.543719 
L 113.580861 269.165743 
L 130.116746 215.318762 
L 146.652632 171.083915 
L 163.188517 138.406308 
L 179.724402 121.650715 
L 196.260287 111.216031 
L 212.796172 111.791571 
L 229.332057 105.280909 
L 245.867943 107.879896 
L 262.403828 103.418182 
L 278.939713 138.693214 
L 295.475598 172.081305 
L 312.011483 195.673439 
L 328.547368 227.42959 
L 345.083254 264.647576 
L 361.619139 289.606809 
L 378.155024 326.834039 
L 394.690909 319.533066 
" clip-path="url(#p37970ff4b0)" style="fill: none; stroke: #fc8d62; stroke-width: 1.5; stroke-linecap: round"/>
    <g clip-path="url(#p37970ff4b0)">
     <use xlink:href="#m96907b8ee8" x="80.509091" y="318.672577" style="fill: #fc8d62; stroke: #fc8d62"/>
     <use xlink:href="#m96907b8ee8" x="97.044976" y="309.543719" style="fill: #fc8d62; stroke: #fc8d62"/>
     <use xlink:href="#m96907b8ee8" x="113.580861" y="269.165743" style="fill: #fc8d62; stroke: #fc8d62"/>
     <use xlink:href="#m96907b8ee8" x="130.116746" y="215.318762" style="fill: #fc8d62; stroke: #fc8d62"/>
     <use xlink:href="#m96907b8ee8" x="146.652632" y="171.083915" style="fill: #fc8d62; stroke: #fc8d62"/>
     <use xlink:href="#m96907b8ee8" x="163.188517" y="138.406308" style="fill: #fc8d62; stroke: #fc8d62"/>
     <use xlink:href="#m96907b8ee8" x="179.724402" y="121.650715" style="fill: #fc8d62; stroke: #fc8d62"/>
     <use xlink:href="#m96907b8ee8" x="196.260287" y="111.216031" style="fill: #fc8d62; stroke: #fc8d62"/>
     <use xlink:href="#m96907b8ee8" x="212.796172" y="111.791571" style="fill: #fc8d62; stroke: #fc8d62"/>
     <use xlink:href="#m96907b8ee8" x="229.332057" y="105.280909" style="fill: #fc8d62; stroke: #fc8d62"/>
     <use xlink:href="#m96907b8ee8" x="245.867943" y="107.879896" style="fill: #fc8d62; stroke: #fc8d62"/>
     <use xlink:href="#m96907b8ee8" x="262.403828" y="103.418182" style="fill: #fc8d62; stroke: #fc8d62"/>
     <use xlink:href="#m96907b8ee8" x="278.939713" y="138.693214" style="fill: #fc8d62; stroke: #fc8d62"/>
     <use xlink:href="#m96907b8ee8" x="295.475598" y="172.081305" style="fill: #fc8d62; stroke: #fc8d62"/>
     <use xlink:href="#m96907b8ee8" x="312.011483" y="195.673439" style="fill: #fc8d62; stroke: #fc8d62"/>
     <use xlink:href="#m96907b8ee8" x="328.547368" y="227.42959" style="fill: #fc8d62; stroke: #fc8d62"/>
     <use xlink:href="#m96907b8ee8" x="345.083254" y="264.647576" style="fill: #fc8d62; stroke: #fc8d62"/>
     <use xlink:href="#m96907b8ee8" x="361.619139" y="289.606809" style="fill: #fc8d62; stroke: #fc8d62"/>
     <use xlink:href="#m96907b8ee8" x="378.155024" y="326.834039" style="fill: #fc8d62; stroke: #fc8d62"/>
     <use xlink:href="#m96907b8ee8" x="394.690909" y="319.533066" style="fill: #fc8d62; stroke: #fc8d62"/>
    </g>
   </g>
   <g id="line2d_27">
    <path d="M 80.509091 377.496144 
L 97.044976 366.154059 
L 113.580861 326.572828 
L 130.116746 283.917325 
L 146.652632 247.830784 
L 163.188517 236.903256 
L 179.724402 225.534197 
L 196.260287 224.565085 
L 212.796172 223.24374 
L 229.332057 221.475559 
L 245.867943 220.957578 
L 262.403828 224.481142 
L 278.939713 220.458761 
L 295.475598 219.760121 
L 312.011483 222.645213 
L 328.547368 223.312836 
L 345.083254 224.173483 
L 361.619139 259.669395 
L 378.155024 296.701379 
L 394.690909 333.057224 
" clip-path="url(#p37970ff4b0)" style="fill: none; stroke: #fc8d62; stroke-width: 1.5; stroke-linecap: round"/>
   </g>
   <g id="line2d_28">
    <path d="M 80.509091 377.496144 
L 97.044976 366.154059 
L 113.580861 326.572828 
L 130.116746 283.917325 
L 146.652632 247.830784 
L 163.188517 236.903256 
L 179.724402 225.534197 
L 196.260287 224.565085 
L 212.796172 223.24374 
L 229.332057 221.475559 
L 245.867943 220.957578 
L 262.403828 224.481142 
L 278.939713 220.458761 
L 295.475598 219.760121 
L 312.011483 222.645213 
L 328.547368 223.312836 
L 345.083254 224.173483 
L 361.619139 259.669395 
L 378.155024 296.701379 
L 394.690909 333.057224 
" clip-path="url(#p37970ff4b0)" style="fill: none; stroke: #fc8d62; stroke-width: 1.5; stroke-linecap: round"/>
    <g clip-path="url(#p37970ff4b0)">
     <use xlink:href="#m96907b8ee8" x="80.509091" y="377.496144" style="fill: #fc8d62; stroke: #fc8d62"/>
     <use xlink:href="#m96907b8ee8" x="97.044976" y="366.154059" style="fill: #fc8d62; stroke: #fc8d62"/>
     <use xlink:href="#m96907b8ee8" x="113.580861" y="326.572828" style="fill: #fc8d62; stroke: #fc8d62"/>
     <use xlink:href="#m96907b8ee8" x="130.116746" y="283.917325" style="fill: #fc8d62; stroke: #fc8d62"/>
     <use xlink:href="#m96907b8ee8" x="146.652632" y="247.830784" style="fill: #fc8d62; stroke: #fc8d62"/>
     <use xlink:href="#m96907b8ee8" x="163.188517" y="236.903256" style="fill: #fc8d62; stroke: #fc8d62"/>
     <use xlink:href="#m96907b8ee8" x="179.724402" y="225.534197" style="fill: #fc8d62; stroke: #fc8d62"/>
     <use xlink:href="#m96907b8ee8" x="196.260287" y="224.565085" style="fill: #fc8d62; stroke: #fc8d62"/>
     <use xlink:href="#m96907b8ee8" x="212.796172" y="223.24374" style="fill: #fc8d62; stroke: #fc8d62"/>
     <use xlink:href="#m96907b8ee8" x="229.332057" y="221.475559" style="fill: #fc8d62; stroke: #fc8d62"/>
     <use xlink:href="#m96907b8ee8" x="245.867943" y="220.957578" style="fill: #fc8d62; stroke: #fc8d62"/>
     <use xlink:href="#m96907b8ee8" x="262.403828" y="224.481142" style="fill: #fc8d62; stroke: #fc8d62"/>
     <use xlink:href="#m96907b8ee8" x="278.939713" y="220.458761" style="fill: #fc8d62; stroke: #fc8d62"/>
     <use xlink:href="#m96907b8ee8" x="295.475598" y="219.760121" style="fill: #fc8d62; stroke: #fc8d62"/>
     <use xlink:href="#m96907b8ee8" x="312.011483" y="222.645213" style="fill: #fc8d62; stroke: #fc8d62"/>
     <use xlink:href="#m96907b8ee8" x="328.547368" y="223.312836" style="fill: #fc8d62; stroke: #fc8d62"/>
     <use xlink:href="#m96907b8ee8" x="345.083254" y="224.173483" style="fill: #fc8d62; stroke: #fc8d62"/>
     <use xlink:href="#m96907b8ee8" x="361.619139" y="259.669395" style="fill: #fc8d62; stroke: #fc8d62"/>
     <use xlink:href="#m96907b8ee8" x="378.155024" y="296.701379" style="fill: #fc8d62; stroke: #fc8d62"/>
     <use xlink:href="#m96907b8ee8" x="394.690909" y="333.057224" style="fill: #fc8d62; stroke: #fc8d62"/>
    </g>
   </g>
   <g id="line2d_29">
    <path d="M 80.509091 382.542243 
L 97.044976 384.45134 
L 113.580861 374.467999 
L 130.116746 336.756191 
L 146.652632 301.208384 
L 163.188517 275.166778 
L 179.724402 266.167472 
L 196.260287 260.284676 
L 212.796172 258.433506 
L 229.332057 259.486378 
L 245.867943 257.528055 
L 262.403828 259.795742 
L 278.939713 261.077721 
L 295.475598 308.196917 
L 312.011483 360.114889 
L 328.547368 380.55213 
L 345.083254 379.92342 
L 361.619139 380.129463 
L 378.155024 382.827739 
L 394.690909 380.865343 
" clip-path="url(#p37970ff4b0)" style="fill: none; stroke: #fc8d62; stroke-width: 1.5; stroke-linecap: round"/>
   </g>
   <g id="line2d_30">
    <path d="M 80.509091 382.542243 
L 97.044976 384.45134 
L 113.580861 374.467999 
L 130.116746 336.756191 
L 146.652632 301.208384 
L 163.188517 275.166778 
L 179.724402 266.167472 
L 196.260287 260.284676 
L 212.796172 258.433506 
L 229.332057 259.486378 
L 245.867943 257.528055 
L 262.403828 259.795742 
L 278.939713 261.077721 
L 295.475598 308.196917 
L 312.011483 360.114889 
L 328.547368 380.55213 
L 345.083254 379.92342 
L 361.619139 380.129463 
L 378.155024 382.827739 
L 394.690909 380.865343 
" clip-path="url(#p37970ff4b0)" style="fill: none; stroke: #fc8d62; stroke-width: 1.5; stroke-linecap: round"/>
    <g clip-path="url(#p37970ff4b0)">
     <use xlink:href="#m96907b8ee8" x="80.509091" y="382.542243" style="fill: #fc8d62; stroke: #fc8d62"/>
     <use xlink:href="#m96907b8ee8" x="97.044976" y="384.45134" style="fill: #fc8d62; stroke: #fc8d62"/>
     <use xlink:href="#m96907b8ee8" x="113.580861" y="374.467999" style="fill: #fc8d62; stroke: #fc8d62"/>
     <use xlink:href="#m96907b8ee8" x="130.116746" y="336.756191" style="fill: #fc8d62; stroke: #fc8d62"/>
     <use xlink:href="#m96907b8ee8" x="146.652632" y="301.208384" style="fill: #fc8d62; stroke: #fc8d62"/>
     <use xlink:href="#m96907b8ee8" x="163.188517" y="275.166778" style="fill: #fc8d62; stroke: #fc8d62"/>
     <use xlink:href="#m96907b8ee8" x="179.724402" y="266.167472" style="fill: #fc8d62; stroke: #fc8d62"/>
     <use xlink:href="#m96907b8ee8" x="196.260287" y="260.284676" style="fill: #fc8d62; stroke: #fc8d62"/>
     <use xlink:href="#m96907b8ee8" x="212.796172" y="258.433506" style="fill: #fc8d62; stroke: #fc8d62"/>
     <use xlink:href="#m96907b8ee8" x="229.332057" y="259.486378" style="fill: #fc8d62; stroke: #fc8d62"/>
     <use xlink:href="#m96907b8ee8" x="245.867943" y="257.528055" style="fill: #fc8d62; stroke: #fc8d62"/>
     <use xlink:href="#m96907b8ee8" x="262.403828" y="259.795742" style="fill: #fc8d62; stroke: #fc8d62"/>
     <use xlink:href="#m96907b8ee8" x="278.939713" y="261.077721" style="fill: #fc8d62; stroke: #fc8d62"/>
     <use xlink:href="#m96907b8ee8" x="295.475598" y="308.196917" style="fill: #fc8d62; stroke: #fc8d62"/>
     <use xlink:href="#m96907b8ee8" x="312.011483" y="360.114889" style="fill: #fc8d62; stroke: #fc8d62"/>
     <use xlink:href="#m96907b8ee8" x="328.547368" y="380.55213" style="fill: #fc8d62; stroke: #fc8d62"/>
     <use xlink:href="#m96907b8ee8" x="345.083254" y="379.92342" style="fill: #fc8d62; stroke: #fc8d62"/>
     <use xlink:href="#m96907b8ee8" x="361.619139" y="380.129463" style="fill: #fc8d62; stroke: #fc8d62"/>
     <use xlink:href="#m96907b8ee8" x="378.155024" y="382.827739" style="fill: #fc8d62; stroke: #fc8d62"/>
     <use xlink:href="#m96907b8ee8" x="394.690909" y="380.865343" style="fill: #fc8d62; stroke: #fc8d62"/>
    </g>
   </g>
   <g id="line2d_31">
    <path d="M 80.509091 282.961536 
L 97.044976 285.608812 
L 113.580861 284.298907 
L 130.116746 283.903165 
L 146.652632 281.253888 
L 163.188517 276.582741 
L 179.724402 245.574533 
L 196.260287 224.715185 
L 212.796172 221.462848 
L 229.332057 221.522755 
L 245.867943 222.374663 
L 262.403828 222.853297 
L 278.939713 219.378593 
L 295.475598 220.505609 
L 312.011483 217.538392 
L 328.547368 221.601775 
L 345.083254 221.133246 
L 361.619139 221.108927 
L 378.155024 278.71685 
L 394.690909 283.444581 
" clip-path="url(#p37970ff4b0)" style="fill: none; stroke: #fc8d62; stroke-width: 1.5; stroke-linecap: round"/>
   </g>
   <g id="line2d_32">
    <path d="M 80.509091 282.961536 
L 97.044976 285.608812 
L 113.580861 284.298907 
L 130.116746 283.903165 
L 146.652632 281.253888 
L 163.188517 276.582741 
L 179.724402 245.574533 
L 196.260287 224.715185 
L 212.796172 221.462848 
L 229.332057 221.522755 
L 245.867943 222.374663 
L 262.403828 222.853297 
L 278.939713 219.378593 
L 295.475598 220.505609 
L 312.011483 217.538392 
L 328.547368 221.601775 
L 345.083254 221.133246 
L 361.619139 221.108927 
L 378.155024 278.71685 
L 394.690909 283.444581 
" clip-path="url(#p37970ff4b0)" style="fill: none; stroke: #fc8d62; stroke-width: 1.5; stroke-linecap: round"/>
    <g clip-path="url(#p37970ff4b0)">
     <use xlink:href="#m96907b8ee8" x="80.509091" y="282.961536" style="fill: #fc8d62; stroke: #fc8d62"/>
     <use xlink:href="#m96907b8ee8" x="97.044976" y="285.608812" style="fill: #fc8d62; stroke: #fc8d62"/>
     <use xlink:href="#m96907b8ee8" x="113.580861" y="284.298907" style="fill: #fc8d62; stroke: #fc8d62"/>
     <use xlink:href="#m96907b8ee8" x="130.116746" y="283.903165" style="fill: #fc8d62; stroke: #fc8d62"/>
     <use xlink:href="#m96907b8ee8" x="146.652632" y="281.253888" style="fill: #fc8d62; stroke: #fc8d62"/>
     <use xlink:href="#m96907b8ee8" x="163.188517" y="276.582741" style="fill: #fc8d62; stroke: #fc8d62"/>
     <use xlink:href="#m96907b8ee8" x="179.724402" y="245.574533" style="fill: #fc8d62; stroke: #fc8d62"/>
     <use xlink:href="#m96907b8ee8" x="196.260287" y="224.715185" style="fill: #fc8d62; stroke: #fc8d62"/>
     <use xlink:href="#m96907b8ee8" x="212.796172" y="221.462848" style="fill: #fc8d62; stroke: #fc8d62"/>
     <use xlink:href="#m96907b8ee8" x="229.332057" y="221.522755" style="fill: #fc8d62; stroke: #fc8d62"/>
     <use xlink:href="#m96907b8ee8" x="245.867943" y="222.374663" style="fill: #fc8d62; stroke: #fc8d62"/>
     <use xlink:href="#m96907b8ee8" x="262.403828" y="222.853297" style="fill: #fc8d62; stroke: #fc8d62"/>
     <use xlink:href="#m96907b8ee8" x="278.939713" y="219.378593" style="fill: #fc8d62; stroke: #fc8d62"/>
     <use xlink:href="#m96907b8ee8" x="295.475598" y="220.505609" style="fill: #fc8d62; stroke: #fc8d62"/>
     <use xlink:href="#m96907b8ee8" x="312.011483" y="217.538392" style="fill: #fc8d62; stroke: #fc8d62"/>
     <use xlink:href="#m96907b8ee8" x="328.547368" y="221.601775" style="fill: #fc8d62; stroke: #fc8d62"/>
     <use xlink:href="#m96907b8ee8" x="345.083254" y="221.133246" style="fill: #fc8d62; stroke: #fc8d62"/>
     <use xlink:href="#m96907b8ee8" x="361.619139" y="221.108927" style="fill: #fc8d62; stroke: #fc8d62"/>
     <use xlink:href="#m96907b8ee8" x="378.155024" y="278.71685" style="fill: #fc8d62; stroke: #fc8d62"/>
     <use xlink:href="#m96907b8ee8" x="394.690909" y="283.444581" style="fill: #fc8d62; stroke: #fc8d62"/>
    </g>
   </g>
   <g id="line2d_33">
    <path d="M 80.509091 365.18844 
L 97.044976 360.017894 
L 113.580861 341.019211 
L 130.116746 311.440943 
L 146.652632 277.699348 
L 163.188517 250.98202 
L 179.724402 233.354482 
L 196.260287 223.006941 
L 212.796172 219.008061 
L 229.332057 215.625892 
L 245.867943 214.74901 
L 262.403828 214.831697 
L 278.939713 218.232468 
L 295.475598 230.543267 
L 312.011483 252.156685 
L 328.547368 273.454426 
L 345.083254 287.525957 
L 361.619139 303.848353 
L 378.155024 338.971703 
L 394.690909 355.474735 
" clip-path="url(#p37970ff4b0)" style="fill: none; stroke-dasharray: 24,6; stroke-dashoffset: 0; stroke: #000000; stroke-width: 3"/>
   </g>
   <g id="patch_3">
    <path d="M 64.8 460.8 
L 64.8 86.4 
" style="fill: none; stroke: #cccccc; stroke-width: 1.25; stroke-linejoin: miter; stroke-linecap: square"/>
   </g>
   <g id="patch_4">
    <path d="M 410.4 460.8 
L 410.4 86.4 
" style="fill: none; stroke: #cccccc; stroke-width: 1.25; stroke-linejoin: miter; stroke-linecap: square"/>
   </g>
   <g id="patch_5">
    <path d="M 64.8 460.8 
L 410.4 460.8 
" style="fill: none; stroke: #cccccc; stroke-width: 1.25; stroke-linejoin: miter; stroke-linecap: square"/>
   </g>
   <g id="patch_6">
    <path d="M 64.8 86.4 
L 410.4 86.4 
" style="fill: none; stroke: #cccccc; stroke-width: 1.25; stroke-linejoin: miter; stroke-linecap: square"/>
   </g>
   <g id="text_15">
    <!-- Cluster 5 -->
    <g style="fill: #262626" transform="translate(210.580313 53.52525) scale(0.12 -0.12)">
     <defs>
      <path id="DejaVuSans-43" d="M 4122 4306 
L 4122 3641 
Q 3803 3938 3442 4084 
Q 3081 4231 2675 4231 
Q 1875 4231 1450 3742 
Q 1025 3253 1025 2328 
Q 1025 1406 1450 917 
Q 1875 428 2675 428 
Q 3081 428 3442 575 
Q 3803 722 4122 1019 
L 4122 359 
Q 3791 134 3420 21 
Q 3050 -91 2638 -91 
Q 1578 -91 968 557 
Q 359 1206 359 2328 
Q 359 3453 968 4101 
Q 1578 4750 2638 4750 
Q 3056 4750 3426 4639 
Q 3797 4528 4122 4306 
z
" transform="scale(0.015625)"/>
      <path id="DejaVuSans-6c" d="M 603 4863 
L 1178 4863 
L 1178 0 
L 603 0 
L 603 4863 
z
" transform="scale(0.015625)"/>
      <path id="DejaVuSans-75" d="M 544 1381 
L 544 3500 
L 1119 3500 
L 1119 1403 
Q 1119 906 1312 657 
Q 1506 409 1894 409 
Q 2359 409 2629 706 
Q 2900 1003 2900 1516 
L 2900 3500 
L 3475 3500 
L 3475 0 
L 2900 0 
L 2900 538 
Q 2691 219 2414 64 
Q 2138 -91 1772 -91 
Q 1169 -91 856 284 
Q 544 659 544 1381 
z
M 1991 3584 
L 1991 3584 
z
" transform="scale(0.015625)"/>
      <path id="DejaVuSans-73" d="M 2834 3397 
L 2834 2853 
Q 2591 2978 2328 3040 
Q 2066 3103 1784 3103 
Q 1356 3103 1142 2972 
Q 928 2841 928 2578 
Q 928 2378 1081 2264 
Q 1234 2150 1697 2047 
L 1894 2003 
Q 2506 1872 2764 1633 
Q 3022 1394 3022 966 
Q 3022 478 2636 193 
Q 2250 -91 1575 -91 
Q 1294 -91 989 -36 
Q 684 19 347 128 
L 347 722 
Q 666 556 975 473 
Q 1284 391 1588 391 
Q 1994 391 2212 530 
Q 2431 669 2431 922 
Q 2431 1156 2273 1281 
Q 2116 1406 1581 1522 
L 1381 1569 
Q 847 1681 609 1914 
Q 372 2147 372 2553 
Q 372 3047 722 3315 
Q 1072 3584 1716 3584 
Q 2034 3584 2315 3537 
Q 2597 3491 2834 3397 
z
" transform="scale(0.015625)"/>
      <path id="DejaVuSans-74" d="M 1172 4494 
L 1172 3500 
L 2356 3500 
L 2356 3053 
L 1172 3053 
L 1172 1153 
Q 1172 725 1289 603 
Q 1406 481 1766 481 
L 2356 481 
L 2356 0 
L 1766 0 
Q 1100 0 847 248 
Q 594 497 594 1153 
L 594 3053 
L 172 3053 
L 172 3500 
L 594 3500 
L 594 4494 
L 1172 4494 
z
" transform="scale(0.015625)"/>
      <path id="DejaVuSans-65" d="M 3597 1894 
L 3597 1613 
L 953 1613 
Q 991 1019 1311 708 
Q 1631 397 2203 397 
Q 2534 397 2845 478 
Q 3156 559 3463 722 
L 3463 178 
Q 3153 47 2828 -22 
Q 2503 -91 2169 -91 
Q 1331 -91 842 396 
Q 353 884 353 1716 
Q 353 2575 817 3079 
Q 1281 3584 2069 3584 
Q 2775 3584 3186 3129 
Q 3597 2675 3597 1894 
z
M 3022 2063 
Q 3016 2534 2758 2815 
Q 2500 3097 2075 3097 
Q 1594 3097 1305 2825 
Q 1016 2553 972 2059 
L 3022 2063 
z
" transform="scale(0.015625)"/>
      <path id="DejaVuSans-72" d="M 2631 2963 
Q 2534 3019 2420 3045 
Q 2306 3072 2169 3072 
Q 1681 3072 1420 2755 
Q 1159 2438 1159 1844 
L 1159 0 
L 581 0 
L 581 3500 
L 1159 3500 
L 1159 2956 
Q 1341 3275 1631 3429 
Q 1922 3584 2338 3584 
Q 2397 3584 2469 3576 
Q 2541 3569 2628 3553 
L 2631 2963 
z
" transform="scale(0.015625)"/>
      <path id="DejaVuSans-20" transform="scale(0.015625)"/>
     </defs>
     <use xlink:href="#DejaVuSans-43"/>
     <use xlink:href="#DejaVuSans-6c" transform="translate(69.824219 0)"/>
     <use xlink:href="#DejaVuSans-75" transform="translate(97.607422 0)"/>
     <use xlink:href="#DejaVuSans-73" transform="translate(160.986328 0)"/>
     <use xlink:href="#DejaVuSans-74" transform="translate(213.085938 0)"/>
     <use xlink:href="#DejaVuSans-65" transform="translate(252.294922 0)"/>
     <use xlink:href="#DejaVuSans-72" transform="translate(313.818359 0)"/>
     <use xlink:href="#DejaVuSans-20" transform="translate(354.931641 0)"/>
     <use xlink:href="#DejaVuSans-35" transform="translate(386.71875 0)"/>
    </g>
    <!-- 9 Trajectories  -->
    <g style="fill: #262626" transform="translate(195.413438 66.962625) scale(0.12 -0.12)">
     <defs>
      <path id="DejaVuSans-39" d="M 703 97 
L 703 672 
Q 941 559 1184 500 
Q 1428 441 1663 441 
Q 2288 441 2617 861 
Q 2947 1281 2994 2138 
Q 2813 1869 2534 1725 
Q 2256 1581 1919 1581 
Q 1219 1581 811 2004 
Q 403 2428 403 3163 
Q 403 3881 828 4315 
Q 1253 4750 1959 4750 
Q 2769 4750 3195 4129 
Q 3622 3509 3622 2328 
Q 3622 1225 3098 567 
Q 2575 -91 1691 -91 
Q 1453 -91 1209 -44 
Q 966 3 703 97 
z
M 1959 2075 
Q 2384 2075 2632 2365 
Q 2881 2656 2881 3163 
Q 2881 3666 2632 3958 
Q 2384 4250 1959 4250 
Q 1534 4250 1286 3958 
Q 1038 3666 1038 3163 
Q 1038 2656 1286 2365 
Q 1534 2075 1959 2075 
z
" transform="scale(0.015625)"/>
      <path id="DejaVuSans-54" d="M -19 4666 
L 3928 4666 
L 3928 4134 
L 2272 4134 
L 2272 0 
L 1638 0 
L 1638 4134 
L -19 4134 
L -19 4666 
z
" transform="scale(0.015625)"/>
      <path id="DejaVuSans-61" d="M 2194 1759 
Q 1497 1759 1228 1600 
Q 959 1441 959 1056 
Q 959 750 1161 570 
Q 1363 391 1709 391 
Q 2188 391 2477 730 
Q 2766 1069 2766 1631 
L 2766 1759 
L 2194 1759 
z
M 3341 1997 
L 3341 0 
L 2766 0 
L 2766 531 
Q 2569 213 2275 61 
Q 1981 -91 1556 -91 
Q 1019 -91 701 211 
Q 384 513 384 1019 
Q 384 1609 779 1909 
Q 1175 2209 1959 2209 
L 2766 2209 
L 2766 2266 
Q 2766 2663 2505 2880 
Q 2244 3097 1772 3097 
Q 1472 3097 1187 3025 
Q 903 2953 641 2809 
L 641 3341 
Q 956 3463 1253 3523 
Q 1550 3584 1831 3584 
Q 2591 3584 2966 3190 
Q 3341 2797 3341 1997 
z
" transform="scale(0.015625)"/>
      <path id="DejaVuSans-6a" d="M 603 3500 
L 1178 3500 
L 1178 -63 
Q 1178 -731 923 -1031 
Q 669 -1331 103 -1331 
L -116 -1331 
L -116 -844 
L 38 -844 
Q 366 -844 484 -692 
Q 603 -541 603 -63 
L 603 3500 
z
M 603 4863 
L 1178 4863 
L 1178 4134 
L 603 4134 
L 603 4863 
z
" transform="scale(0.015625)"/>
      <path id="DejaVuSans-63" d="M 3122 3366 
L 3122 2828 
Q 2878 2963 2633 3030 
Q 2388 3097 2138 3097 
Q 1578 3097 1268 2742 
Q 959 2388 959 1747 
Q 959 1106 1268 751 
Q 1578 397 2138 397 
Q 2388 397 2633 464 
Q 2878 531 3122 666 
L 3122 134 
Q 2881 22 2623 -34 
Q 2366 -91 2075 -91 
Q 1284 -91 818 406 
Q 353 903 353 1747 
Q 353 2603 823 3093 
Q 1294 3584 2113 3584 
Q 2378 3584 2631 3529 
Q 2884 3475 3122 3366 
z
" transform="scale(0.015625)"/>
      <path id="DejaVuSans-6f" d="M 1959 3097 
Q 1497 3097 1228 2736 
Q 959 2375 959 1747 
Q 959 1119 1226 758 
Q 1494 397 1959 397 
Q 2419 397 2687 759 
Q 2956 1122 2956 1747 
Q 2956 2369 2687 2733 
Q 2419 3097 1959 3097 
z
M 1959 3584 
Q 2709 3584 3137 3096 
Q 3566 2609 3566 1747 
Q 3566 888 3137 398 
Q 2709 -91 1959 -91 
Q 1206 -91 779 398 
Q 353 888 353 1747 
Q 353 2609 779 3096 
Q 1206 3584 1959 3584 
z
" transform="scale(0.015625)"/>
      <path id="DejaVuSans-69" d="M 603 3500 
L 1178 3500 
L 1178 0 
L 603 0 
L 603 3500 
z
M 603 4863 
L 1178 4863 
L 1178 4134 
L 603 4134 
L 603 4863 
z
" transform="scale(0.015625)"/>
     </defs>
     <use xlink:href="#DejaVuSans-39"/>
     <use xlink:href="#DejaVuSans-20" transform="translate(63.623047 0)"/>
     <use xlink:href="#DejaVuSans-54" transform="translate(95.410156 0)"/>
     <use xlink:href="#DejaVuSans-72" transform="translate(141.744141 0)"/>
     <use xlink:href="#DejaVuSans-61" transform="translate(182.857422 0)"/>
     <use xlink:href="#DejaVuSans-6a" transform="translate(244.136719 0)"/>
     <use xlink:href="#DejaVuSans-65" transform="translate(271.919922 0)"/>
     <use xlink:href="#DejaVuSans-63" transform="translate(333.443359 0)"/>
     <use xlink:href="#DejaVuSans-74" transform="translate(388.423828 0)"/>
     <use xlink:href="#DejaVuSans-6f" transform="translate(427.632812 0)"/>
     <use xlink:href="#DejaVuSans-72" transform="translate(488.814453 0)"/>
     <use xlink:href="#DejaVuSans-69" transform="translate(529.927734 0)"/>
     <use xlink:href="#DejaVuSans-65" transform="translate(557.710938 0)"/>
     <use xlink:href="#DejaVuSans-73" transform="translate(619.234375 0)"/>
     <use xlink:href="#DejaVuSans-20" transform="translate(671.333984 0)"/>
    </g>
    <!--  Colored by: func_old -->
    <g style="fill: #262626" transform="translate(174.737813 80.4) scale(0.12 -0.12)">
     <defs>
      <path id="DejaVuSans-64" d="M 2906 2969 
L 2906 4863 
L 3481 4863 
L 3481 0 
L 2906 0 
L 2906 525 
Q 2725 213 2448 61 
Q 2172 -91 1784 -91 
Q 1150 -91 751 415 
Q 353 922 353 1747 
Q 353 2572 751 3078 
Q 1150 3584 1784 3584 
Q 2172 3584 2448 3432 
Q 2725 3281 2906 2969 
z
M 947 1747 
Q 947 1113 1208 752 
Q 1469 391 1925 391 
Q 2381 391 2643 752 
Q 2906 1113 2906 1747 
Q 2906 2381 2643 2742 
Q 2381 3103 1925 3103 
Q 1469 3103 1208 2742 
Q 947 2381 947 1747 
z
" transform="scale(0.015625)"/>
      <path id="DejaVuSans-62" d="M 3116 1747 
Q 3116 2381 2855 2742 
Q 2594 3103 2138 3103 
Q 1681 3103 1420 2742 
Q 1159 2381 1159 1747 
Q 1159 1113 1420 752 
Q 1681 391 2138 391 
Q 2594 391 2855 752 
Q 3116 1113 3116 1747 
z
M 1159 2969 
Q 1341 3281 1617 3432 
Q 1894 3584 2278 3584 
Q 2916 3584 3314 3078 
Q 3713 2572 3713 1747 
Q 3713 922 3314 415 
Q 2916 -91 2278 -91 
Q 1894 -91 1617 61 
Q 1341 213 1159 525 
L 1159 0 
L 581 0 
L 581 4863 
L 1159 4863 
L 1159 2969 
z
" transform="scale(0.015625)"/>
      <path id="DejaVuSans-79" d="M 2059 -325 
Q 1816 -950 1584 -1140 
Q 1353 -1331 966 -1331 
L 506 -1331 
L 506 -850 
L 844 -850 
Q 1081 -850 1212 -737 
Q 1344 -625 1503 -206 
L 1606 56 
L 191 3500 
L 800 3500 
L 1894 763 
L 2988 3500 
L 3597 3500 
L 2059 -325 
z
" transform="scale(0.015625)"/>
      <path id="DejaVuSans-3a" d="M 750 794 
L 1409 794 
L 1409 0 
L 750 0 
L 750 794 
z
M 750 3309 
L 1409 3309 
L 1409 2516 
L 750 2516 
L 750 3309 
z
" transform="scale(0.015625)"/>
      <path id="DejaVuSans-66" d="M 2375 4863 
L 2375 4384 
L 1825 4384 
Q 1516 4384 1395 4259 
Q 1275 4134 1275 3809 
L 1275 3500 
L 2222 3500 
L 2222 3053 
L 1275 3053 
L 1275 0 
L 697 0 
L 697 3053 
L 147 3053 
L 147 3500 
L 697 3500 
L 697 3744 
Q 697 4328 969 4595 
Q 1241 4863 1831 4863 
L 2375 4863 
z
" transform="scale(0.015625)"/>
      <path id="DejaVuSans-6e" d="M 3513 2113 
L 3513 0 
L 2938 0 
L 2938 2094 
Q 2938 2591 2744 2837 
Q 2550 3084 2163 3084 
Q 1697 3084 1428 2787 
Q 1159 2491 1159 1978 
L 1159 0 
L 581 0 
L 581 3500 
L 1159 3500 
L 1159 2956 
Q 1366 3272 1645 3428 
Q 1925 3584 2291 3584 
Q 2894 3584 3203 3211 
Q 3513 2838 3513 2113 
z
" transform="scale(0.015625)"/>
      <path id="DejaVuSans-5f" d="M 3263 -1063 
L 3263 -1509 
L -63 -1509 
L -63 -1063 
L 3263 -1063 
z
" transform="scale(0.015625)"/>
     </defs>
     <use xlink:href="#DejaVuSans-20"/>
     <use xlink:href="#DejaVuSans-43" transform="translate(31.787109 0)"/>
     <use xlink:href="#DejaVuSans-6f" transform="translate(101.611328 0)"/>
     <use xlink:href="#DejaVuSans-6c" transform="translate(162.792969 0)"/>
     <use xlink:href="#DejaVuSans-6f" transform="translate(190.576172 0)"/>
     <use xlink:href="#DejaVuSans-72" transform="translate(251.757812 0)"/>
     <use xlink:href="#DejaVuSans-65" transform="translate(290.621094 0)"/>
     <use xlink:href="#DejaVuSans-64" transform="translate(352.144531 0)"/>
     <use xlink:href="#DejaVuSans-20" transform="translate(415.621094 0)"/>
     <use xlink:href="#DejaVuSans-62" transform="translate(447.408203 0)"/>
     <use xlink:href="#DejaVuSans-79" transform="translate(510.884766 0)"/>
     <use xlink:href="#DejaVuSans-3a" transform="translate(562.814453 0)"/>
     <use xlink:href="#DejaVuSans-20" transform="translate(596.505859 0)"/>
     <use xlink:href="#DejaVuSans-66" transform="translate(628.292969 0)"/>
     <use xlink:href="#DejaVuSans-75" transform="translate(663.498047 0)"/>
     <use xlink:href="#DejaVuSans-6e" transform="translate(726.876953 0)"/>
     <use xlink:href="#DejaVuSans-63" transform="translate(790.255859 0)"/>
     <use xlink:href="#DejaVuSans-5f" transform="translate(845.236328 0)"/>
     <use xlink:href="#DejaVuSans-6f" transform="translate(895.236328 0)"/>
     <use xlink:href="#DejaVuSans-6c" transform="translate(956.417969 0)"/>
     <use xlink:href="#DejaVuSans-64" transform="translate(984.201172 0)"/>
    </g>
   </g>
   <g id="legend_1">
    <g id="patch_7">
     <path d="M 329.232031 127.491875 
L 402.7 127.491875 
Q 404.9 127.491875 404.9 125.291875 
L 404.9 94.1 
Q 404.9 91.9 402.7 91.9 
L 329.232031 91.9 
Q 327.032031 91.9 327.032031 94.1 
L 327.032031 125.291875 
Q 327.032031 127.491875 329.232031 127.491875 
z
" style="fill: #ffffff; opacity: 0.8; stroke: #cccccc; stroke-linejoin: miter"/>
    </g>
    <g id="line2d_34">
     <path d="M 331.432031 100.808281 
L 342.432031 100.808281 
L 353.432031 100.808281 
" style="fill: none; stroke: #fc8d62; stroke-width: 1.5; stroke-linecap: round"/>
    </g>
    <g id="text_16">
     <!-- growth -->
     <g style="fill: #262626" transform="translate(362.232031 104.658281) scale(0.11 -0.11)">
      <defs>
       <path id="DejaVuSans-67" d="M 2906 1791 
Q 2906 2416 2648 2759 
Q 2391 3103 1925 3103 
Q 1463 3103 1205 2759 
Q 947 2416 947 1791 
Q 947 1169 1205 825 
Q 1463 481 1925 481 
Q 2391 481 2648 825 
Q 2906 1169 2906 1791 
z
M 3481 434 
Q 3481 -459 3084 -895 
Q 2688 -1331 1869 -1331 
Q 1566 -1331 1297 -1286 
Q 1028 -1241 775 -1147 
L 775 -588 
Q 1028 -725 1275 -790 
Q 1522 -856 1778 -856 
Q 2344 -856 2625 -561 
Q 2906 -266 2906 331 
L 2906 616 
Q 2728 306 2450 153 
Q 2172 0 1784 0 
Q 1141 0 747 490 
Q 353 981 353 1791 
Q 353 2603 747 3093 
Q 1141 3584 1784 3584 
Q 2172 3584 2450 3431 
Q 2728 3278 2906 2969 
L 2906 3500 
L 3481 3500 
L 3481 434 
z
" transform="scale(0.015625)"/>
       <path id="DejaVuSans-77" d="M 269 3500 
L 844 3500 
L 1563 769 
L 2278 3500 
L 2956 3500 
L 3675 769 
L 4391 3500 
L 4966 3500 
L 4050 0 
L 3372 0 
L 2619 2869 
L 1863 0 
L 1184 0 
L 269 3500 
z
" transform="scale(0.015625)"/>
       <path id="DejaVuSans-68" d="M 3513 2113 
L 3513 0 
L 2938 0 
L 2938 2094 
Q 2938 2591 2744 2837 
Q 2550 3084 2163 3084 
Q 1697 3084 1428 2787 
Q 1159 2491 1159 1978 
L 1159 0 
L 581 0 
L 581 4863 
L 1159 4863 
L 1159 2956 
Q 1366 3272 1645 3428 
Q 1925 3584 2291 3584 
Q 2894 3584 3203 3211 
Q 3513 2838 3513 2113 
z
" transform="scale(0.015625)"/>
      </defs>
      <use xlink:href="#DejaVuSans-67"/>
      <use xlink:href="#DejaVuSans-72" transform="translate(63.476562 0)"/>
      <use xlink:href="#DejaVuSans-6f" transform="translate(102.339844 0)"/>
      <use xlink:href="#DejaVuSans-77" transform="translate(163.521484 0)"/>
      <use xlink:href="#DejaVuSans-74" transform="translate(245.308594 0)"/>
      <use xlink:href="#DejaVuSans-68" transform="translate(284.517578 0)"/>
     </g>
    </g>
    <g id="line2d_35">
     <path d="M 331.432031 116.954219 
L 342.432031 116.954219 
L 353.432031 116.954219 
" style="fill: none; stroke-dasharray: 24,6; stroke-dashoffset: 0; stroke: #000000; stroke-width: 3"/>
    </g>
    <g id="text_17">
     <!-- Mean -->
     <g style="fill: #262626" transform="translate(362.232031 120.804219) scale(0.11 -0.11)">
      <defs>
       <path id="DejaVuSans-4d" d="M 628 4666 
L 1569 4666 
L 2759 1491 
L 3956 4666 
L 4897 4666 
L 4897 0 
L 4281 0 
L 4281 4097 
L 3078 897 
L 2444 897 
L 1241 4097 
L 1241 0 
L 628 0 
L 628 4666 
z
" transform="scale(0.015625)"/>
      </defs>
      <use xlink:href="#DejaVuSans-4d"/>
      <use xlink:href="#DejaVuSans-65" transform="translate(86.279297 0)"/>
      <use xlink:href="#DejaVuSans-61" transform="translate(147.802734 0)"/>
      <use xlink:href="#DejaVuSans-6e" transform="translate(209.082031 0)"/>
     </g>
    </g>
   </g>
  </g>
 </g>
 <defs>
  <clipPath id="p37970ff4b0">
   <rect x="64.8" y="86.4" width="345.6" height="374.4"/>
  </clipPath>
 </defs>
</svg>
