<?xml version="1.0" encoding="utf-8" standalone="no"?>
<!DOCTYPE svg PUBLIC "-//W3C//DTD SVG 1.1//EN"
  "http://www.w3.org/Graphics/SVG/1.1/DTD/svg11.dtd">
<svg xmlns:xlink="http://www.w3.org/1999/xlink" width="432pt" height="576pt" viewBox="0 0 432 576" xmlns="http://www.w3.org/2000/svg" version="1.1">
 <metadata>
  <rdf:RDF xmlns:dc="http://purl.org/dc/elements/1.1/" xmlns:cc="http://creativecommons.org/ns#" xmlns:rdf="http://www.w3.org/1999/02/22-rdf-syntax-ns#">
   <cc:Work>
    <dc:type rdf:resource="http://purl.org/dc/dcmitype/StillImage"/>
    <dc:date>2025-10-08T19:06:50.545146</dc:date>
    <dc:format>image/svg+xml</dc:format>
    <dc:creator>
     <cc:Agent>
      <dc:title>Matplotlib v3.10.3, https://matplotlib.org/</dc:title>
     </cc:Agent>
    </dc:creator>
   </cc:Work>
  </rdf:RDF>
 </metadata>
 <defs>
  <style type="text/css">*{stroke-linejoin: round; stroke-linecap: butt}</style>
 </defs>
 <g id="figure_1">
  <g id="patch_1">
   <path d="M 0 576 
L 432 576 
L 432 0 
L 0 0 
z
" style="fill: #ffffff"/>
  </g>
  <g id="axes_1">
   <g id="patch_2">
    <path d="M 64.8 460.8 
L 410.4 460.8 
L 410.4 86.4 
L 64.8 86.4 
z
" style="fill: #ffffff"/>
   </g>
   <g id="matplotlib.axis_1">
    <g id="xtick_1">
     <g id="line2d_1">
      <path d="M 80.509091 460.8 
L 80.509091 86.4 
" clip-path="url(#pd3098a1437)" style="fill: none; stroke: #cccccc; stroke-linecap: round"/>
     </g>
     <g id="text_1">
      <!-- 0.0 -->
      <g style="fill: #262626" transform="translate(71.762372 478.658281) scale(0.11 -0.11)">
       <defs>
        <path id="DejaVuSans-30" d="M 2034 4250 
Q 1547 4250 1301 3770 
Q 1056 3291 1056 2328 
Q 1056 1369 1301 889 
Q 1547 409 2034 409 
Q 2525 409 2770 889 
Q 3016 1369 3016 2328 
Q 3016 3291 2770 3770 
Q 2525 4250 2034 4250 
z
M 2034 4750 
Q 2819 4750 3233 4129 
Q 3647 3509 3647 2328 
Q 3647 1150 3233 529 
Q 2819 -91 2034 -91 
Q 1250 -91 836 529 
Q 422 1150 422 2328 
Q 422 3509 836 4129 
Q 1250 4750 2034 4750 
z
" transform="scale(0.015625)"/>
        <path id="DejaVuSans-2e" d="M 684 794 
L 1344 794 
L 1344 0 
L 684 0 
L 684 794 
z
" transform="scale(0.015625)"/>
       </defs>
       <use xlink:href="#DejaVuSans-30"/>
       <use xlink:href="#DejaVuSans-2e" transform="translate(63.623047 0)"/>
       <use xlink:href="#DejaVuSans-30" transform="translate(95.410156 0)"/>
      </g>
     </g>
    </g>
    <g id="xtick_2">
     <g id="line2d_2">
      <path d="M 121.848804 460.8 
L 121.848804 86.4 
" clip-path="url(#pd3098a1437)" style="fill: none; stroke: #cccccc; stroke-linecap: round"/>
     </g>
     <g id="text_2">
      <!-- 2.5 -->
      <g style="fill: #262626" transform="translate(113.102085 478.658281) scale(0.11 -0.11)">
       <defs>
        <path id="DejaVuSans-32" d="M 1228 531 
L 3431 531 
L 3431 0 
L 469 0 
L 469 531 
Q 828 903 1448 1529 
Q 2069 2156 2228 2338 
Q 2531 2678 2651 2914 
Q 2772 3150 2772 3378 
Q 2772 3750 2511 3984 
Q 2250 4219 1831 4219 
Q 1534 4219 1204 4116 
Q 875 4013 500 3803 
L 500 4441 
Q 881 4594 1212 4672 
Q 1544 4750 1819 4750 
Q 2544 4750 2975 4387 
Q 3406 4025 3406 3419 
Q 3406 3131 3298 2873 
Q 3191 2616 2906 2266 
Q 2828 2175 2409 1742 
Q 1991 1309 1228 531 
z
" transform="scale(0.015625)"/>
        <path id="DejaVuSans-35" d="M 691 4666 
L 3169 4666 
L 3169 4134 
L 1269 4134 
L 1269 2991 
Q 1406 3038 1543 3061 
Q 1681 3084 1819 3084 
Q 2600 3084 3056 2656 
Q 3513 2228 3513 1497 
Q 3513 744 3044 326 
Q 2575 -91 1722 -91 
Q 1428 -91 1123 -41 
Q 819 9 494 109 
L 494 744 
Q 775 591 1075 516 
Q 1375 441 1709 441 
Q 2250 441 2565 725 
Q 2881 1009 2881 1497 
Q 2881 1984 2565 2268 
Q 2250 2553 1709 2553 
Q 1456 2553 1204 2497 
Q 953 2441 691 2322 
L 691 4666 
z
" transform="scale(0.015625)"/>
       </defs>
       <use xlink:href="#DejaVuSans-32"/>
       <use xlink:href="#DejaVuSans-2e" transform="translate(63.623047 0)"/>
       <use xlink:href="#DejaVuSans-35" transform="translate(95.410156 0)"/>
      </g>
     </g>
    </g>
    <g id="xtick_3">
     <g id="line2d_3">
      <path d="M 163.188517 460.8 
L 163.188517 86.4 
" clip-path="url(#pd3098a1437)" style="fill: none; stroke: #cccccc; stroke-linecap: round"/>
     </g>
     <g id="text_3">
      <!-- 5.0 -->
      <g style="fill: #262626" transform="translate(154.441798 478.658281) scale(0.11 -0.11)">
       <use xlink:href="#DejaVuSans-35"/>
       <use xlink:href="#DejaVuSans-2e" transform="translate(63.623047 0)"/>
       <use xlink:href="#DejaVuSans-30" transform="translate(95.410156 0)"/>
      </g>
     </g>
    </g>
    <g id="xtick_4">
     <g id="line2d_4">
      <path d="M 204.52823 460.8 
L 204.52823 86.4 
" clip-path="url(#pd3098a1437)" style="fill: none; stroke: #cccccc; stroke-linecap: round"/>
     </g>
     <g id="text_4">
      <!-- 7.5 -->
      <g style="fill: #262626" transform="translate(195.781511 478.658281) scale(0.11 -0.11)">
       <defs>
        <path id="DejaVuSans-37" d="M 525 4666 
L 3525 4666 
L 3525 4397 
L 1831 0 
L 1172 0 
L 2766 4134 
L 525 4134 
L 525 4666 
z
" transform="scale(0.015625)"/>
       </defs>
       <use xlink:href="#DejaVuSans-37"/>
       <use xlink:href="#DejaVuSans-2e" transform="translate(63.623047 0)"/>
       <use xlink:href="#DejaVuSans-35" transform="translate(95.410156 0)"/>
      </g>
     </g>
    </g>
    <g id="xtick_5">
     <g id="line2d_5">
      <path d="M 245.867943 460.8 
L 245.867943 86.4 
" clip-path="url(#pd3098a1437)" style="fill: none; stroke: #cccccc; stroke-linecap: round"/>
     </g>
     <g id="text_5">
      <!-- 10.0 -->
      <g style="fill: #262626" transform="translate(233.621849 478.658281) scale(0.11 -0.11)">
       <defs>
        <path id="DejaVuSans-31" d="M 794 531 
L 1825 531 
L 1825 4091 
L 703 3866 
L 703 4441 
L 1819 4666 
L 2450 4666 
L 2450 531 
L 3481 531 
L 3481 0 
L 794 0 
L 794 531 
z
" transform="scale(0.015625)"/>
       </defs>
       <use xlink:href="#DejaVuSans-31"/>
       <use xlink:href="#DejaVuSans-30" transform="translate(63.623047 0)"/>
       <use xlink:href="#DejaVuSans-2e" transform="translate(127.246094 0)"/>
       <use xlink:href="#DejaVuSans-30" transform="translate(159.033203 0)"/>
      </g>
     </g>
    </g>
    <g id="xtick_6">
     <g id="line2d_6">
      <path d="M 287.207656 460.8 
L 287.207656 86.4 
" clip-path="url(#pd3098a1437)" style="fill: none; stroke: #cccccc; stroke-linecap: round"/>
     </g>
     <g id="text_6">
      <!-- 12.5 -->
      <g style="fill: #262626" transform="translate(274.961562 478.658281) scale(0.11 -0.11)">
       <use xlink:href="#DejaVuSans-31"/>
       <use xlink:href="#DejaVuSans-32" transform="translate(63.623047 0)"/>
       <use xlink:href="#DejaVuSans-2e" transform="translate(127.246094 0)"/>
       <use xlink:href="#DejaVuSans-35" transform="translate(159.033203 0)"/>
      </g>
     </g>
    </g>
    <g id="xtick_7">
     <g id="line2d_7">
      <path d="M 328.547368 460.8 
L 328.547368 86.4 
" clip-path="url(#pd3098a1437)" style="fill: none; stroke: #cccccc; stroke-linecap: round"/>
     </g>
     <g id="text_7">
      <!-- 15.0 -->
      <g style="fill: #262626" transform="translate(316.301275 478.658281) scale(0.11 -0.11)">
       <use xlink:href="#DejaVuSans-31"/>
       <use xlink:href="#DejaVuSans-35" transform="translate(63.623047 0)"/>
       <use xlink:href="#DejaVuSans-2e" transform="translate(127.246094 0)"/>
       <use xlink:href="#DejaVuSans-30" transform="translate(159.033203 0)"/>
      </g>
     </g>
    </g>
    <g id="xtick_8">
     <g id="line2d_8">
      <path d="M 369.887081 460.8 
L 369.887081 86.4 
" clip-path="url(#pd3098a1437)" style="fill: none; stroke: #cccccc; stroke-linecap: round"/>
     </g>
     <g id="text_8">
      <!-- 17.5 -->
      <g style="fill: #262626" transform="translate(357.640988 478.658281) scale(0.11 -0.11)">
       <use xlink:href="#DejaVuSans-31"/>
       <use xlink:href="#DejaVuSans-37" transform="translate(63.623047 0)"/>
       <use xlink:href="#DejaVuSans-2e" transform="translate(127.246094 0)"/>
       <use xlink:href="#DejaVuSans-35" transform="translate(159.033203 0)"/>
      </g>
     </g>
    </g>
   </g>
   <g id="matplotlib.axis_2">
    <g id="ytick_1">
     <g id="line2d_9">
      <path d="M 64.8 381.919474 
L 410.4 381.919474 
" clip-path="url(#pd3098a1437)" style="fill: none; stroke: #cccccc; stroke-linecap: round"/>
     </g>
     <g id="text_9">
      <!-- −100 -->
      <g style="fill: #262626" transform="translate(25.086094 386.098614) scale(0.11 -0.11)">
       <defs>
        <path id="DejaVuSans-2212" d="M 678 2272 
L 4684 2272 
L 4684 1741 
L 678 1741 
L 678 2272 
z
" transform="scale(0.015625)"/>
       </defs>
       <use xlink:href="#DejaVuSans-2212"/>
       <use xlink:href="#DejaVuSans-31" transform="translate(83.789062 0)"/>
       <use xlink:href="#DejaVuSans-30" transform="translate(147.412109 0)"/>
       <use xlink:href="#DejaVuSans-30" transform="translate(211.035156 0)"/>
      </g>
     </g>
    </g>
    <g id="ytick_2">
     <g id="line2d_10">
      <path d="M 64.8 302.988672 
L 410.4 302.988672 
" clip-path="url(#pd3098a1437)" style="fill: none; stroke: #cccccc; stroke-linecap: round"/>
     </g>
     <g id="text_10">
      <!-- −50 -->
      <g style="fill: #262626" transform="translate(32.084844 307.167813) scale(0.11 -0.11)">
       <use xlink:href="#DejaVuSans-2212"/>
       <use xlink:href="#DejaVuSans-35" transform="translate(83.789062 0)"/>
       <use xlink:href="#DejaVuSans-30" transform="translate(147.412109 0)"/>
      </g>
     </g>
    </g>
    <g id="ytick_3">
     <g id="line2d_11">
      <path d="M 64.8 224.057871 
L 410.4 224.057871 
" clip-path="url(#pd3098a1437)" style="fill: none; stroke: #cccccc; stroke-linecap: round"/>
     </g>
     <g id="text_11">
      <!-- 0 -->
      <g style="fill: #262626" transform="translate(48.30125 228.237012) scale(0.11 -0.11)">
       <use xlink:href="#DejaVuSans-30"/>
      </g>
     </g>
    </g>
    <g id="ytick_4">
     <g id="line2d_12">
      <path d="M 64.8 145.12707 
L 410.4 145.12707 
" clip-path="url(#pd3098a1437)" style="fill: none; stroke: #cccccc; stroke-linecap: round"/>
     </g>
     <g id="text_12">
      <!-- 50 -->
      <g style="fill: #262626" transform="translate(41.3025 149.306211) scale(0.11 -0.11)">
       <use xlink:href="#DejaVuSans-35"/>
       <use xlink:href="#DejaVuSans-30" transform="translate(63.623047 0)"/>
      </g>
     </g>
    </g>
   </g>
   <g id="line2d_13">
    <path d="M 80.509091 200.004343 
L 97.044976 200.174697 
L 113.580861 200.234594 
L 130.116746 217.519064 
L 146.652632 228.529985 
L 163.188517 234.702012 
L 179.724402 239.251947 
L 196.260287 241.281076 
L 212.796172 242.299657 
L 229.332057 242.428383 
L 245.867943 242.918213 
L 262.403828 242.915467 
L 278.939713 243.083757 
L 295.475598 243.62382 
L 312.011483 243.625091 
L 328.547368 243.930396 
L 345.083254 242.99139 
L 361.619139 243.179864 
L 378.155024 244.154398 
L 394.690909 243.732552 
" clip-path="url(#pd3098a1437)" style="fill: none; stroke: #66c2a5; stroke-width: 1.5; stroke-linecap: round"/>
   </g>
   <g id="line2d_14">
    <path d="M 80.509091 200.004343 
L 97.044976 200.174697 
L 113.580861 200.234594 
L 130.116746 217.519064 
L 146.652632 228.529985 
L 163.188517 234.702012 
L 179.724402 239.251947 
L 196.260287 241.281076 
L 212.796172 242.299657 
L 229.332057 242.428383 
L 245.867943 242.918213 
L 262.403828 242.915467 
L 278.939713 243.083757 
L 295.475598 243.62382 
L 312.011483 243.625091 
L 328.547368 243.930396 
L 345.083254 242.99139 
L 361.619139 243.179864 
L 378.155024 244.154398 
L 394.690909 243.732552 
" clip-path="url(#pd3098a1437)" style="fill: none; stroke: #66c2a5; stroke-width: 1.5; stroke-linecap: round"/>
    <defs>
     <path id="me00c590a3b" d="M 0 3 
C 0.795609 3 1.55874 2.683901 2.12132 2.12132 
C 2.683901 1.55874 3 0.795609 3 0 
C 3 -0.795609 2.683901 -1.55874 2.12132 -2.12132 
C 1.55874 -2.683901 0.795609 -3 0 -3 
C -0.795609 -3 -1.55874 -2.683901 -2.12132 -2.12132 
C -2.683901 -1.55874 -3 -0.795609 -3 0 
C -3 0.795609 -2.683901 1.55874 -2.12132 2.12132 
C -1.55874 2.683901 -0.795609 3 0 3 
z
" style="stroke: #66c2a5"/>
    </defs>
    <g clip-path="url(#pd3098a1437)">
     <use xlink:href="#me00c590a3b" x="80.509091" y="200.004343" style="fill: #66c2a5; stroke: #66c2a5"/>
     <use xlink:href="#me00c590a3b" x="97.044976" y="200.174697" style="fill: #66c2a5; stroke: #66c2a5"/>
     <use xlink:href="#me00c590a3b" x="113.580861" y="200.234594" style="fill: #66c2a5; stroke: #66c2a5"/>
     <use xlink:href="#me00c590a3b" x="130.116746" y="217.519064" style="fill: #66c2a5; stroke: #66c2a5"/>
     <use xlink:href="#me00c590a3b" x="146.652632" y="228.529985" style="fill: #66c2a5; stroke: #66c2a5"/>
     <use xlink:href="#me00c590a3b" x="163.188517" y="234.702012" style="fill: #66c2a5; stroke: #66c2a5"/>
     <use xlink:href="#me00c590a3b" x="179.724402" y="239.251947" style="fill: #66c2a5; stroke: #66c2a5"/>
     <use xlink:href="#me00c590a3b" x="196.260287" y="241.281076" style="fill: #66c2a5; stroke: #66c2a5"/>
     <use xlink:href="#me00c590a3b" x="212.796172" y="242.299657" style="fill: #66c2a5; stroke: #66c2a5"/>
     <use xlink:href="#me00c590a3b" x="229.332057" y="242.428383" style="fill: #66c2a5; stroke: #66c2a5"/>
     <use xlink:href="#me00c590a3b" x="245.867943" y="242.918213" style="fill: #66c2a5; stroke: #66c2a5"/>
     <use xlink:href="#me00c590a3b" x="262.403828" y="242.915467" style="fill: #66c2a5; stroke: #66c2a5"/>
     <use xlink:href="#me00c590a3b" x="278.939713" y="243.083757" style="fill: #66c2a5; stroke: #66c2a5"/>
     <use xlink:href="#me00c590a3b" x="295.475598" y="243.62382" style="fill: #66c2a5; stroke: #66c2a5"/>
     <use xlink:href="#me00c590a3b" x="312.011483" y="243.625091" style="fill: #66c2a5; stroke: #66c2a5"/>
     <use xlink:href="#me00c590a3b" x="328.547368" y="243.930396" style="fill: #66c2a5; stroke: #66c2a5"/>
     <use xlink:href="#me00c590a3b" x="345.083254" y="242.99139" style="fill: #66c2a5; stroke: #66c2a5"/>
     <use xlink:href="#me00c590a3b" x="361.619139" y="243.179864" style="fill: #66c2a5; stroke: #66c2a5"/>
     <use xlink:href="#me00c590a3b" x="378.155024" y="244.154398" style="fill: #66c2a5; stroke: #66c2a5"/>
     <use xlink:href="#me00c590a3b" x="394.690909" y="243.732552" style="fill: #66c2a5; stroke: #66c2a5"/>
    </g>
   </g>
   <g id="line2d_15">
    <path d="M 80.509091 115.05548 
L 97.044976 112.981589 
L 113.580861 114.562789 
L 130.116746 111.404637 
L 146.652632 114.178028 
L 163.188517 115.358552 
L 179.724402 225.270952 
L 196.260287 240.726215 
L 212.796172 245.291769 
L 229.332057 243.767759 
L 245.867943 241.93016 
L 262.403828 244.974469 
L 278.939713 246.072166 
L 295.475598 241.336165 
L 312.011483 244.306274 
L 328.547368 246.854008 
L 345.083254 247.120536 
L 361.619139 246.739958 
L 378.155024 243.588615 
L 394.690909 242.586647 
" clip-path="url(#pd3098a1437)" style="fill: none; stroke: #66c2a5; stroke-width: 1.5; stroke-linecap: round"/>
   </g>
   <g id="line2d_16">
    <path d="M 80.509091 115.05548 
L 97.044976 112.981589 
L 113.580861 114.562789 
L 130.116746 111.404637 
L 146.652632 114.178028 
L 163.188517 115.358552 
L 179.724402 225.270952 
L 196.260287 240.726215 
L 212.796172 245.291769 
L 229.332057 243.767759 
L 245.867943 241.93016 
L 262.403828 244.974469 
L 278.939713 246.072166 
L 295.475598 241.336165 
L 312.011483 244.306274 
L 328.547368 246.854008 
L 345.083254 247.120536 
L 361.619139 246.739958 
L 378.155024 243.588615 
L 394.690909 242.586647 
" clip-path="url(#pd3098a1437)" style="fill: none; stroke: #66c2a5; stroke-width: 1.5; stroke-linecap: round"/>
    <g clip-path="url(#pd3098a1437)">
     <use xlink:href="#me00c590a3b" x="80.509091" y="115.05548" style="fill: #66c2a5; stroke: #66c2a5"/>
     <use xlink:href="#me00c590a3b" x="97.044976" y="112.981589" style="fill: #66c2a5; stroke: #66c2a5"/>
     <use xlink:href="#me00c590a3b" x="113.580861" y="114.562789" style="fill: #66c2a5; stroke: #66c2a5"/>
     <use xlink:href="#me00c590a3b" x="130.116746" y="111.404637" style="fill: #66c2a5; stroke: #66c2a5"/>
     <use xlink:href="#me00c590a3b" x="146.652632" y="114.178028" style="fill: #66c2a5; stroke: #66c2a5"/>
     <use xlink:href="#me00c590a3b" x="163.188517" y="115.358552" style="fill: #66c2a5; stroke: #66c2a5"/>
     <use xlink:href="#me00c590a3b" x="179.724402" y="225.270952" style="fill: #66c2a5; stroke: #66c2a5"/>
     <use xlink:href="#me00c590a3b" x="196.260287" y="240.726215" style="fill: #66c2a5; stroke: #66c2a5"/>
     <use xlink:href="#me00c590a3b" x="212.796172" y="245.291769" style="fill: #66c2a5; stroke: #66c2a5"/>
     <use xlink:href="#me00c590a3b" x="229.332057" y="243.767759" style="fill: #66c2a5; stroke: #66c2a5"/>
     <use xlink:href="#me00c590a3b" x="245.867943" y="241.93016" style="fill: #66c2a5; stroke: #66c2a5"/>
     <use xlink:href="#me00c590a3b" x="262.403828" y="244.974469" style="fill: #66c2a5; stroke: #66c2a5"/>
     <use xlink:href="#me00c590a3b" x="278.939713" y="246.072166" style="fill: #66c2a5; stroke: #66c2a5"/>
     <use xlink:href="#me00c590a3b" x="295.475598" y="241.336165" style="fill: #66c2a5; stroke: #66c2a5"/>
     <use xlink:href="#me00c590a3b" x="312.011483" y="244.306274" style="fill: #66c2a5; stroke: #66c2a5"/>
     <use xlink:href="#me00c590a3b" x="328.547368" y="246.854008" style="fill: #66c2a5; stroke: #66c2a5"/>
     <use xlink:href="#me00c590a3b" x="345.083254" y="247.120536" style="fill: #66c2a5; stroke: #66c2a5"/>
     <use xlink:href="#me00c590a3b" x="361.619139" y="246.739958" style="fill: #66c2a5; stroke: #66c2a5"/>
     <use xlink:href="#me00c590a3b" x="378.155024" y="243.588615" style="fill: #66c2a5; stroke: #66c2a5"/>
     <use xlink:href="#me00c590a3b" x="394.690909" y="242.586647" style="fill: #66c2a5; stroke: #66c2a5"/>
    </g>
   </g>
   <g id="line2d_17">
    <path d="M 80.509091 193.90238 
L 97.044976 193.674051 
L 113.580861 190.563892 
L 130.116746 191.06197 
L 146.652632 192.40712 
L 163.188517 281.63359 
L 179.724402 304.173969 
L 196.260287 312.984763 
L 212.796172 315.164719 
L 229.332057 316.426691 
L 245.867943 313.793538 
L 262.403828 314.852573 
L 278.939713 312.313889 
L 295.475598 312.28079 
L 312.011483 317.289261 
L 328.547368 313.982305 
L 345.083254 314.296777 
L 361.619139 316.799521 
L 378.155024 314.433876 
L 394.690909 314.605494 
" clip-path="url(#pd3098a1437)" style="fill: none; stroke: #66c2a5; stroke-width: 1.5; stroke-linecap: round"/>
   </g>
   <g id="line2d_18">
    <path d="M 80.509091 193.90238 
L 97.044976 193.674051 
L 113.580861 190.563892 
L 130.116746 191.06197 
L 146.652632 192.40712 
L 163.188517 281.63359 
L 179.724402 304.173969 
L 196.260287 312.984763 
L 212.796172 315.164719 
L 229.332057 316.426691 
L 245.867943 313.793538 
L 262.403828 314.852573 
L 278.939713 312.313889 
L 295.475598 312.28079 
L 312.011483 317.289261 
L 328.547368 313.982305 
L 345.083254 314.296777 
L 361.619139 316.799521 
L 378.155024 314.433876 
L 394.690909 314.605494 
" clip-path="url(#pd3098a1437)" style="fill: none; stroke: #66c2a5; stroke-width: 1.5; stroke-linecap: round"/>
    <g clip-path="url(#pd3098a1437)">
     <use xlink:href="#me00c590a3b" x="80.509091" y="193.90238" style="fill: #66c2a5; stroke: #66c2a5"/>
     <use xlink:href="#me00c590a3b" x="97.044976" y="193.674051" style="fill: #66c2a5; stroke: #66c2a5"/>
     <use xlink:href="#me00c590a3b" x="113.580861" y="190.563892" style="fill: #66c2a5; stroke: #66c2a5"/>
     <use xlink:href="#me00c590a3b" x="130.116746" y="191.06197" style="fill: #66c2a5; stroke: #66c2a5"/>
     <use xlink:href="#me00c590a3b" x="146.652632" y="192.40712" style="fill: #66c2a5; stroke: #66c2a5"/>
     <use xlink:href="#me00c590a3b" x="163.188517" y="281.63359" style="fill: #66c2a5; stroke: #66c2a5"/>
     <use xlink:href="#me00c590a3b" x="179.724402" y="304.173969" style="fill: #66c2a5; stroke: #66c2a5"/>
     <use xlink:href="#me00c590a3b" x="196.260287" y="312.984763" style="fill: #66c2a5; stroke: #66c2a5"/>
     <use xlink:href="#me00c590a3b" x="212.796172" y="315.164719" style="fill: #66c2a5; stroke: #66c2a5"/>
     <use xlink:href="#me00c590a3b" x="229.332057" y="316.426691" style="fill: #66c2a5; stroke: #66c2a5"/>
     <use xlink:href="#me00c590a3b" x="245.867943" y="313.793538" style="fill: #66c2a5; stroke: #66c2a5"/>
     <use xlink:href="#me00c590a3b" x="262.403828" y="314.852573" style="fill: #66c2a5; stroke: #66c2a5"/>
     <use xlink:href="#me00c590a3b" x="278.939713" y="312.313889" style="fill: #66c2a5; stroke: #66c2a5"/>
     <use xlink:href="#me00c590a3b" x="295.475598" y="312.28079" style="fill: #66c2a5; stroke: #66c2a5"/>
     <use xlink:href="#me00c590a3b" x="312.011483" y="317.289261" style="fill: #66c2a5; stroke: #66c2a5"/>
     <use xlink:href="#me00c590a3b" x="328.547368" y="313.982305" style="fill: #66c2a5; stroke: #66c2a5"/>
     <use xlink:href="#me00c590a3b" x="345.083254" y="314.296777" style="fill: #66c2a5; stroke: #66c2a5"/>
     <use xlink:href="#me00c590a3b" x="361.619139" y="316.799521" style="fill: #66c2a5; stroke: #66c2a5"/>
     <use xlink:href="#me00c590a3b" x="378.155024" y="314.433876" style="fill: #66c2a5; stroke: #66c2a5"/>
     <use xlink:href="#me00c590a3b" x="394.690909" y="314.605494" style="fill: #66c2a5; stroke: #66c2a5"/>
    </g>
   </g>
   <g id="line2d_19">
    <path d="M 80.509091 186.05564 
L 97.044976 187.516789 
L 113.580861 297.375372 
L 130.116746 311.018292 
L 146.652632 314.696382 
L 163.188517 311.548579 
L 179.724402 314.366174 
L 196.260287 314.074733 
L 212.796172 312.142241 
L 229.332057 314.710383 
L 245.867943 315.104403 
L 262.403828 311.451291 
L 278.939713 312.903082 
L 295.475598 312.290614 
L 312.011483 313.510262 
L 328.547368 311.83229 
L 345.083254 313.041782 
L 361.619139 312.485959 
L 378.155024 313.788564 
L 394.690909 313.727501 
" clip-path="url(#pd3098a1437)" style="fill: none; stroke: #66c2a5; stroke-width: 1.5; stroke-linecap: round"/>
   </g>
   <g id="line2d_20">
    <path d="M 80.509091 186.05564 
L 97.044976 187.516789 
L 113.580861 297.375372 
L 130.116746 311.018292 
L 146.652632 314.696382 
L 163.188517 311.548579 
L 179.724402 314.366174 
L 196.260287 314.074733 
L 212.796172 312.142241 
L 229.332057 314.710383 
L 245.867943 315.104403 
L 262.403828 311.451291 
L 278.939713 312.903082 
L 295.475598 312.290614 
L 312.011483 313.510262 
L 328.547368 311.83229 
L 345.083254 313.041782 
L 361.619139 312.485959 
L 378.155024 313.788564 
L 394.690909 313.727501 
" clip-path="url(#pd3098a1437)" style="fill: none; stroke: #66c2a5; stroke-width: 1.5; stroke-linecap: round"/>
    <g clip-path="url(#pd3098a1437)">
     <use xlink:href="#me00c590a3b" x="80.509091" y="186.05564" style="fill: #66c2a5; stroke: #66c2a5"/>
     <use xlink:href="#me00c590a3b" x="97.044976" y="187.516789" style="fill: #66c2a5; stroke: #66c2a5"/>
     <use xlink:href="#me00c590a3b" x="113.580861" y="297.375372" style="fill: #66c2a5; stroke: #66c2a5"/>
     <use xlink:href="#me00c590a3b" x="130.116746" y="311.018292" style="fill: #66c2a5; stroke: #66c2a5"/>
     <use xlink:href="#me00c590a3b" x="146.652632" y="314.696382" style="fill: #66c2a5; stroke: #66c2a5"/>
     <use xlink:href="#me00c590a3b" x="163.188517" y="311.548579" style="fill: #66c2a5; stroke: #66c2a5"/>
     <use xlink:href="#me00c590a3b" x="179.724402" y="314.366174" style="fill: #66c2a5; stroke: #66c2a5"/>
     <use xlink:href="#me00c590a3b" x="196.260287" y="314.074733" style="fill: #66c2a5; stroke: #66c2a5"/>
     <use xlink:href="#me00c590a3b" x="212.796172" y="312.142241" style="fill: #66c2a5; stroke: #66c2a5"/>
     <use xlink:href="#me00c590a3b" x="229.332057" y="314.710383" style="fill: #66c2a5; stroke: #66c2a5"/>
     <use xlink:href="#me00c590a3b" x="245.867943" y="315.104403" style="fill: #66c2a5; stroke: #66c2a5"/>
     <use xlink:href="#me00c590a3b" x="262.403828" y="311.451291" style="fill: #66c2a5; stroke: #66c2a5"/>
     <use xlink:href="#me00c590a3b" x="278.939713" y="312.903082" style="fill: #66c2a5; stroke: #66c2a5"/>
     <use xlink:href="#me00c590a3b" x="295.475598" y="312.290614" style="fill: #66c2a5; stroke: #66c2a5"/>
     <use xlink:href="#me00c590a3b" x="312.011483" y="313.510262" style="fill: #66c2a5; stroke: #66c2a5"/>
     <use xlink:href="#me00c590a3b" x="328.547368" y="311.83229" style="fill: #66c2a5; stroke: #66c2a5"/>
     <use xlink:href="#me00c590a3b" x="345.083254" y="313.041782" style="fill: #66c2a5; stroke: #66c2a5"/>
     <use xlink:href="#me00c590a3b" x="361.619139" y="312.485959" style="fill: #66c2a5; stroke: #66c2a5"/>
     <use xlink:href="#me00c590a3b" x="378.155024" y="313.788564" style="fill: #66c2a5; stroke: #66c2a5"/>
     <use xlink:href="#me00c590a3b" x="394.690909" y="313.727501" style="fill: #66c2a5; stroke: #66c2a5"/>
    </g>
   </g>
   <g id="line2d_21">
    <path d="M 80.509091 133.960619 
L 97.044976 135.936069 
L 113.580861 226.880414 
L 130.116746 245.316361 
L 146.652632 249.446448 
L 163.188517 249.355667 
L 179.724402 248.509885 
L 196.260287 250.213756 
L 212.796172 249.861906 
L 229.332057 247.906084 
L 245.867943 250.759215 
L 262.403828 250.512542 
L 278.939713 249.69714 
L 295.475598 250.505614 
L 312.011483 250.290889 
L 328.547368 249.585358 
L 345.083254 249.880284 
L 361.619139 249.406069 
L 378.155024 250.823552 
L 394.690909 248.117432 
" clip-path="url(#pd3098a1437)" style="fill: none; stroke: #66c2a5; stroke-width: 1.5; stroke-linecap: round"/>
   </g>
   <g id="line2d_22">
    <path d="M 80.509091 133.960619 
L 97.044976 135.936069 
L 113.580861 226.880414 
L 130.116746 245.316361 
L 146.652632 249.446448 
L 163.188517 249.355667 
L 179.724402 248.509885 
L 196.260287 250.213756 
L 212.796172 249.861906 
L 229.332057 247.906084 
L 245.867943 250.759215 
L 262.403828 250.512542 
L 278.939713 249.69714 
L 295.475598 250.505614 
L 312.011483 250.290889 
L 328.547368 249.585358 
L 345.083254 249.880284 
L 361.619139 249.406069 
L 378.155024 250.823552 
L 394.690909 248.117432 
" clip-path="url(#pd3098a1437)" style="fill: none; stroke: #66c2a5; stroke-width: 1.5; stroke-linecap: round"/>
    <g clip-path="url(#pd3098a1437)">
     <use xlink:href="#me00c590a3b" x="80.509091" y="133.960619" style="fill: #66c2a5; stroke: #66c2a5"/>
     <use xlink:href="#me00c590a3b" x="97.044976" y="135.936069" style="fill: #66c2a5; stroke: #66c2a5"/>
     <use xlink:href="#me00c590a3b" x="113.580861" y="226.880414" style="fill: #66c2a5; stroke: #66c2a5"/>
     <use xlink:href="#me00c590a3b" x="130.116746" y="245.316361" style="fill: #66c2a5; stroke: #66c2a5"/>
     <use xlink:href="#me00c590a3b" x="146.652632" y="249.446448" style="fill: #66c2a5; stroke: #66c2a5"/>
     <use xlink:href="#me00c590a3b" x="163.188517" y="249.355667" style="fill: #66c2a5; stroke: #66c2a5"/>
     <use xlink:href="#me00c590a3b" x="179.724402" y="248.509885" style="fill: #66c2a5; stroke: #66c2a5"/>
     <use xlink:href="#me00c590a3b" x="196.260287" y="250.213756" style="fill: #66c2a5; stroke: #66c2a5"/>
     <use xlink:href="#me00c590a3b" x="212.796172" y="249.861906" style="fill: #66c2a5; stroke: #66c2a5"/>
     <use xlink:href="#me00c590a3b" x="229.332057" y="247.906084" style="fill: #66c2a5; stroke: #66c2a5"/>
     <use xlink:href="#me00c590a3b" x="245.867943" y="250.759215" style="fill: #66c2a5; stroke: #66c2a5"/>
     <use xlink:href="#me00c590a3b" x="262.403828" y="250.512542" style="fill: #66c2a5; stroke: #66c2a5"/>
     <use xlink:href="#me00c590a3b" x="278.939713" y="249.69714" style="fill: #66c2a5; stroke: #66c2a5"/>
     <use xlink:href="#me00c590a3b" x="295.475598" y="250.505614" style="fill: #66c2a5; stroke: #66c2a5"/>
     <use xlink:href="#me00c590a3b" x="312.011483" y="250.290889" style="fill: #66c2a5; stroke: #66c2a5"/>
     <use xlink:href="#me00c590a3b" x="328.547368" y="249.585358" style="fill: #66c2a5; stroke: #66c2a5"/>
     <use xlink:href="#me00c590a3b" x="345.083254" y="249.880284" style="fill: #66c2a5; stroke: #66c2a5"/>
     <use xlink:href="#me00c590a3b" x="361.619139" y="249.406069" style="fill: #66c2a5; stroke: #66c2a5"/>
     <use xlink:href="#me00c590a3b" x="378.155024" y="250.823552" style="fill: #66c2a5; stroke: #66c2a5"/>
     <use xlink:href="#me00c590a3b" x="394.690909" y="248.117432" style="fill: #66c2a5; stroke: #66c2a5"/>
    </g>
   </g>
   <g id="line2d_23">
    <path d="M 80.509091 218.088836 
L 97.044976 217.87573 
L 113.580861 218.756821 
L 130.116746 218.209479 
L 146.652632 222.574857 
L 163.188517 224.080966 
L 179.724402 223.776661 
L 196.260287 224.705884 
L 212.796172 223.359546 
L 229.332057 223.936707 
L 245.867943 224.521965 
L 262.403828 224.650105 
L 278.939713 224.028658 
L 295.475598 224.026422 
L 312.011483 224.753299 
L 328.547368 223.329688 
L 345.083254 223.4553 
L 361.619139 224.170206 
L 378.155024 224.714889 
L 394.690909 223.583223 
" clip-path="url(#pd3098a1437)" style="fill: none; stroke: #66c2a5; stroke-width: 1.5; stroke-linecap: round"/>
   </g>
   <g id="line2d_24">
    <path d="M 80.509091 218.088836 
L 97.044976 217.87573 
L 113.580861 218.756821 
L 130.116746 218.209479 
L 146.652632 222.574857 
L 163.188517 224.080966 
L 179.724402 223.776661 
L 196.260287 224.705884 
L 212.796172 223.359546 
L 229.332057 223.936707 
L 245.867943 224.521965 
L 262.403828 224.650105 
L 278.939713 224.028658 
L 295.475598 224.026422 
L 312.011483 224.753299 
L 328.547368 223.329688 
L 345.083254 223.4553 
L 361.619139 224.170206 
L 378.155024 224.714889 
L 394.690909 223.583223 
" clip-path="url(#pd3098a1437)" style="fill: none; stroke: #66c2a5; stroke-width: 1.5; stroke-linecap: round"/>
    <g clip-path="url(#pd3098a1437)">
     <use xlink:href="#me00c590a3b" x="80.509091" y="218.088836" style="fill: #66c2a5; stroke: #66c2a5"/>
     <use xlink:href="#me00c590a3b" x="97.044976" y="217.87573" style="fill: #66c2a5; stroke: #66c2a5"/>
     <use xlink:href="#me00c590a3b" x="113.580861" y="218.756821" style="fill: #66c2a5; stroke: #66c2a5"/>
     <use xlink:href="#me00c590a3b" x="130.116746" y="218.209479" style="fill: #66c2a5; stroke: #66c2a5"/>
     <use xlink:href="#me00c590a3b" x="146.652632" y="222.574857" style="fill: #66c2a5; stroke: #66c2a5"/>
     <use xlink:href="#me00c590a3b" x="163.188517" y="224.080966" style="fill: #66c2a5; stroke: #66c2a5"/>
     <use xlink:href="#me00c590a3b" x="179.724402" y="223.776661" style="fill: #66c2a5; stroke: #66c2a5"/>
     <use xlink:href="#me00c590a3b" x="196.260287" y="224.705884" style="fill: #66c2a5; stroke: #66c2a5"/>
     <use xlink:href="#me00c590a3b" x="212.796172" y="223.359546" style="fill: #66c2a5; stroke: #66c2a5"/>
     <use xlink:href="#me00c590a3b" x="229.332057" y="223.936707" style="fill: #66c2a5; stroke: #66c2a5"/>
     <use xlink:href="#me00c590a3b" x="245.867943" y="224.521965" style="fill: #66c2a5; stroke: #66c2a5"/>
     <use xlink:href="#me00c590a3b" x="262.403828" y="224.650105" style="fill: #66c2a5; stroke: #66c2a5"/>
     <use xlink:href="#me00c590a3b" x="278.939713" y="224.028658" style="fill: #66c2a5; stroke: #66c2a5"/>
     <use xlink:href="#me00c590a3b" x="295.475598" y="224.026422" style="fill: #66c2a5; stroke: #66c2a5"/>
     <use xlink:href="#me00c590a3b" x="312.011483" y="224.753299" style="fill: #66c2a5; stroke: #66c2a5"/>
     <use xlink:href="#me00c590a3b" x="328.547368" y="223.329688" style="fill: #66c2a5; stroke: #66c2a5"/>
     <use xlink:href="#me00c590a3b" x="345.083254" y="223.4553" style="fill: #66c2a5; stroke: #66c2a5"/>
     <use xlink:href="#me00c590a3b" x="361.619139" y="224.170206" style="fill: #66c2a5; stroke: #66c2a5"/>
     <use xlink:href="#me00c590a3b" x="378.155024" y="224.714889" style="fill: #66c2a5; stroke: #66c2a5"/>
     <use xlink:href="#me00c590a3b" x="394.690909" y="223.583223" style="fill: #66c2a5; stroke: #66c2a5"/>
    </g>
   </g>
   <g id="line2d_25">
    <path d="M 80.509091 103.418182 
L 97.044976 106.93169 
L 113.580861 105.389521 
L 130.116746 215.628744 
L 146.652632 227.6153 
L 163.188517 232.558577 
L 179.724402 232.464607 
L 196.260287 233.50908 
L 212.796172 230.790762 
L 229.332057 230.373246 
L 245.867943 232.748774 
L 262.403828 232.116395 
L 278.939713 233.182981 
L 295.475598 233.685333 
L 312.011483 230.198535 
L 328.547368 230.058325 
L 345.083254 229.950413 
L 361.619139 233.077778 
L 378.155024 230.40161 
L 394.690909 230.709416 
" clip-path="url(#pd3098a1437)" style="fill: none; stroke: #66c2a5; stroke-width: 1.5; stroke-linecap: round"/>
   </g>
   <g id="line2d_26">
    <path d="M 80.509091 103.418182 
L 97.044976 106.93169 
L 113.580861 105.389521 
L 130.116746 215.628744 
L 146.652632 227.6153 
L 163.188517 232.558577 
L 179.724402 232.464607 
L 196.260287 233.50908 
L 212.796172 230.790762 
L 229.332057 230.373246 
L 245.867943 232.748774 
L 262.403828 232.116395 
L 278.939713 233.182981 
L 295.475598 233.685333 
L 312.011483 230.198535 
L 328.547368 230.058325 
L 345.083254 229.950413 
L 361.619139 233.077778 
L 378.155024 230.40161 
L 394.690909 230.709416 
" clip-path="url(#pd3098a1437)" style="fill: none; stroke: #66c2a5; stroke-width: 1.5; stroke-linecap: round"/>
    <g clip-path="url(#pd3098a1437)">
     <use xlink:href="#me00c590a3b" x="80.509091" y="103.418182" style="fill: #66c2a5; stroke: #66c2a5"/>
     <use xlink:href="#me00c590a3b" x="97.044976" y="106.93169" style="fill: #66c2a5; stroke: #66c2a5"/>
     <use xlink:href="#me00c590a3b" x="113.580861" y="105.389521" style="fill: #66c2a5; stroke: #66c2a5"/>
     <use xlink:href="#me00c590a3b" x="130.116746" y="215.628744" style="fill: #66c2a5; stroke: #66c2a5"/>
     <use xlink:href="#me00c590a3b" x="146.652632" y="227.6153" style="fill: #66c2a5; stroke: #66c2a5"/>
     <use xlink:href="#me00c590a3b" x="163.188517" y="232.558577" style="fill: #66c2a5; stroke: #66c2a5"/>
     <use xlink:href="#me00c590a3b" x="179.724402" y="232.464607" style="fill: #66c2a5; stroke: #66c2a5"/>
     <use xlink:href="#me00c590a3b" x="196.260287" y="233.50908" style="fill: #66c2a5; stroke: #66c2a5"/>
     <use xlink:href="#me00c590a3b" x="212.796172" y="230.790762" style="fill: #66c2a5; stroke: #66c2a5"/>
     <use xlink:href="#me00c590a3b" x="229.332057" y="230.373246" style="fill: #66c2a5; stroke: #66c2a5"/>
     <use xlink:href="#me00c590a3b" x="245.867943" y="232.748774" style="fill: #66c2a5; stroke: #66c2a5"/>
     <use xlink:href="#me00c590a3b" x="262.403828" y="232.116395" style="fill: #66c2a5; stroke: #66c2a5"/>
     <use xlink:href="#me00c590a3b" x="278.939713" y="233.182981" style="fill: #66c2a5; stroke: #66c2a5"/>
     <use xlink:href="#me00c590a3b" x="295.475598" y="233.685333" style="fill: #66c2a5; stroke: #66c2a5"/>
     <use xlink:href="#me00c590a3b" x="312.011483" y="230.198535" style="fill: #66c2a5; stroke: #66c2a5"/>
     <use xlink:href="#me00c590a3b" x="328.547368" y="230.058325" style="fill: #66c2a5; stroke: #66c2a5"/>
     <use xlink:href="#me00c590a3b" x="345.083254" y="229.950413" style="fill: #66c2a5; stroke: #66c2a5"/>
     <use xlink:href="#me00c590a3b" x="361.619139" y="233.077778" style="fill: #66c2a5; stroke: #66c2a5"/>
     <use xlink:href="#me00c590a3b" x="378.155024" y="230.40161" style="fill: #66c2a5; stroke: #66c2a5"/>
     <use xlink:href="#me00c590a3b" x="394.690909" y="230.709416" style="fill: #66c2a5; stroke: #66c2a5"/>
    </g>
   </g>
   <g id="line2d_27">
    <path d="M 80.509091 211.566194 
L 97.044976 216.117586 
L 113.580861 229.328403 
L 130.116746 240.194522 
L 146.652632 252.933387 
L 163.188517 266.32598 
L 179.724402 273.890815 
L 196.260287 292.73168 
L 212.796172 301.955255 
L 229.332057 311.101385 
L 245.867943 330.364956 
L 262.403828 336.42478 
L 278.939713 351.50596 
L 295.475598 362.828141 
L 312.011483 376.553248 
L 328.547368 387.572414 
L 345.083254 404.207651 
L 361.619139 413.223756 
L 378.155024 427.624881 
L 394.690909 443.781818 
" clip-path="url(#pd3098a1437)" style="fill: none; stroke: #e78ac3; stroke-width: 1.5; stroke-linecap: round"/>
   </g>
   <g id="line2d_28">
    <path d="M 80.509091 211.566194 
L 97.044976 216.117586 
L 113.580861 229.328403 
L 130.116746 240.194522 
L 146.652632 252.933387 
L 163.188517 266.32598 
L 179.724402 273.890815 
L 196.260287 292.73168 
L 212.796172 301.955255 
L 229.332057 311.101385 
L 245.867943 330.364956 
L 262.403828 336.42478 
L 278.939713 351.50596 
L 295.475598 362.828141 
L 312.011483 376.553248 
L 328.547368 387.572414 
L 345.083254 404.207651 
L 361.619139 413.223756 
L 378.155024 427.624881 
L 394.690909 443.781818 
" clip-path="url(#pd3098a1437)" style="fill: none; stroke: #e78ac3; stroke-width: 1.5; stroke-linecap: round"/>
    <defs>
     <path id="m5a7c8e74d1" d="M 0 3 
C 0.795609 3 1.55874 2.683901 2.12132 2.12132 
C 2.683901 1.55874 3 0.795609 3 0 
C 3 -0.795609 2.683901 -1.55874 2.12132 -2.12132 
C 1.55874 -2.683901 0.795609 -3 0 -3 
C -0.795609 -3 -1.55874 -2.683901 -2.12132 -2.12132 
C -2.683901 -1.55874 -3 -0.795609 -3 0 
C -3 0.795609 -2.683901 1.55874 -2.12132 2.12132 
C -1.55874 2.683901 -0.795609 3 0 3 
z
" style="stroke: #e78ac3"/>
    </defs>
    <g clip-path="url(#pd3098a1437)">
     <use xlink:href="#m5a7c8e74d1" x="80.509091" y="211.566194" style="fill: #e78ac3; stroke: #e78ac3"/>
     <use xlink:href="#m5a7c8e74d1" x="97.044976" y="216.117586" style="fill: #e78ac3; stroke: #e78ac3"/>
     <use xlink:href="#m5a7c8e74d1" x="113.580861" y="229.328403" style="fill: #e78ac3; stroke: #e78ac3"/>
     <use xlink:href="#m5a7c8e74d1" x="130.116746" y="240.194522" style="fill: #e78ac3; stroke: #e78ac3"/>
     <use xlink:href="#m5a7c8e74d1" x="146.652632" y="252.933387" style="fill: #e78ac3; stroke: #e78ac3"/>
     <use xlink:href="#m5a7c8e74d1" x="163.188517" y="266.32598" style="fill: #e78ac3; stroke: #e78ac3"/>
     <use xlink:href="#m5a7c8e74d1" x="179.724402" y="273.890815" style="fill: #e78ac3; stroke: #e78ac3"/>
     <use xlink:href="#m5a7c8e74d1" x="196.260287" y="292.73168" style="fill: #e78ac3; stroke: #e78ac3"/>
     <use xlink:href="#m5a7c8e74d1" x="212.796172" y="301.955255" style="fill: #e78ac3; stroke: #e78ac3"/>
     <use xlink:href="#m5a7c8e74d1" x="229.332057" y="311.101385" style="fill: #e78ac3; stroke: #e78ac3"/>
     <use xlink:href="#m5a7c8e74d1" x="245.867943" y="330.364956" style="fill: #e78ac3; stroke: #e78ac3"/>
     <use xlink:href="#m5a7c8e74d1" x="262.403828" y="336.42478" style="fill: #e78ac3; stroke: #e78ac3"/>
     <use xlink:href="#m5a7c8e74d1" x="278.939713" y="351.50596" style="fill: #e78ac3; stroke: #e78ac3"/>
     <use xlink:href="#m5a7c8e74d1" x="295.475598" y="362.828141" style="fill: #e78ac3; stroke: #e78ac3"/>
     <use xlink:href="#m5a7c8e74d1" x="312.011483" y="376.553248" style="fill: #e78ac3; stroke: #e78ac3"/>
     <use xlink:href="#m5a7c8e74d1" x="328.547368" y="387.572414" style="fill: #e78ac3; stroke: #e78ac3"/>
     <use xlink:href="#m5a7c8e74d1" x="345.083254" y="404.207651" style="fill: #e78ac3; stroke: #e78ac3"/>
     <use xlink:href="#m5a7c8e74d1" x="361.619139" y="413.223756" style="fill: #e78ac3; stroke: #e78ac3"/>
     <use xlink:href="#m5a7c8e74d1" x="378.155024" y="427.624881" style="fill: #e78ac3; stroke: #e78ac3"/>
     <use xlink:href="#m5a7c8e74d1" x="394.690909" y="443.781818" style="fill: #e78ac3; stroke: #e78ac3"/>
    </g>
   </g>
   <g id="line2d_29">
    <path d="M 80.509091 170.256459 
L 97.044976 171.401025 
L 113.580861 197.886476 
L 130.116746 218.794134 
L 146.652632 225.297688 
L 163.188517 239.44549 
L 179.724402 257.713126 
L 196.260287 263.778398 
L 212.796172 265.108232 
L 229.332057 266.33133 
L 245.867943 269.017653 
L 262.403828 269.737203 
L 278.939713 271.598454 
L 295.475598 272.572112 
L 312.011483 275.065857 
L 328.547368 275.893098 
L 345.083254 278.118017 
L 361.619139 279.885389 
L 378.155024 281.191298 
L 394.690909 282.60551 
" clip-path="url(#pd3098a1437)" style="fill: none; stroke-dasharray: 24,6; stroke-dashoffset: 0; stroke: #000000; stroke-width: 3"/>
   </g>
   <g id="patch_3">
    <path d="M 64.8 460.8 
L 64.8 86.4 
" style="fill: none; stroke: #cccccc; stroke-width: 1.25; stroke-linejoin: miter; stroke-linecap: square"/>
   </g>
   <g id="patch_4">
    <path d="M 410.4 460.8 
L 410.4 86.4 
" style="fill: none; stroke: #cccccc; stroke-width: 1.25; stroke-linejoin: miter; stroke-linecap: square"/>
   </g>
   <g id="patch_5">
    <path d="M 64.8 460.8 
L 410.4 460.8 
" style="fill: none; stroke: #cccccc; stroke-width: 1.25; stroke-linejoin: miter; stroke-linecap: square"/>
   </g>
   <g id="patch_6">
    <path d="M 64.8 86.4 
L 410.4 86.4 
" style="fill: none; stroke: #cccccc; stroke-width: 1.25; stroke-linejoin: miter; stroke-linecap: square"/>
   </g>
   <g id="text_13">
    <!-- Cluster 0 -->
    <g style="fill: #262626" transform="translate(210.580313 53.52525) scale(0.12 -0.12)">
     <defs>
      <path id="DejaVuSans-43" d="M 4122 4306 
L 4122 3641 
Q 3803 3938 3442 4084 
Q 3081 4231 2675 4231 
Q 1875 4231 1450 3742 
Q 1025 3253 1025 2328 
Q 1025 1406 1450 917 
Q 1875 428 2675 428 
Q 3081 428 3442 575 
Q 3803 722 4122 1019 
L 4122 359 
Q 3791 134 3420 21 
Q 3050 -91 2638 -91 
Q 1578 -91 968 557 
Q 359 1206 359 2328 
Q 359 3453 968 4101 
Q 1578 4750 2638 4750 
Q 3056 4750 3426 4639 
Q 3797 4528 4122 4306 
z
" transform="scale(0.015625)"/>
      <path id="DejaVuSans-6c" d="M 603 4863 
L 1178 4863 
L 1178 0 
L 603 0 
L 603 4863 
z
" transform="scale(0.015625)"/>
      <path id="DejaVuSans-75" d="M 544 1381 
L 544 3500 
L 1119 3500 
L 1119 1403 
Q 1119 906 1312 657 
Q 1506 409 1894 409 
Q 2359 409 2629 706 
Q 2900 1003 2900 1516 
L 2900 3500 
L 3475 3500 
L 3475 0 
L 2900 0 
L 2900 538 
Q 2691 219 2414 64 
Q 2138 -91 1772 -91 
Q 1169 -91 856 284 
Q 544 659 544 1381 
z
M 1991 3584 
L 1991 3584 
z
" transform="scale(0.015625)"/>
      <path id="DejaVuSans-73" d="M 2834 3397 
L 2834 2853 
Q 2591 2978 2328 3040 
Q 2066 3103 1784 3103 
Q 1356 3103 1142 2972 
Q 928 2841 928 2578 
Q 928 2378 1081 2264 
Q 1234 2150 1697 2047 
L 1894 2003 
Q 2506 1872 2764 1633 
Q 3022 1394 3022 966 
Q 3022 478 2636 193 
Q 2250 -91 1575 -91 
Q 1294 -91 989 -36 
Q 684 19 347 128 
L 347 722 
Q 666 556 975 473 
Q 1284 391 1588 391 
Q 1994 391 2212 530 
Q 2431 669 2431 922 
Q 2431 1156 2273 1281 
Q 2116 1406 1581 1522 
L 1381 1569 
Q 847 1681 609 1914 
Q 372 2147 372 2553 
Q 372 3047 722 3315 
Q 1072 3584 1716 3584 
Q 2034 3584 2315 3537 
Q 2597 3491 2834 3397 
z
" transform="scale(0.015625)"/>
      <path id="DejaVuSans-74" d="M 1172 4494 
L 1172 3500 
L 2356 3500 
L 2356 3053 
L 1172 3053 
L 1172 1153 
Q 1172 725 1289 603 
Q 1406 481 1766 481 
L 2356 481 
L 2356 0 
L 1766 0 
Q 1100 0 847 248 
Q 594 497 594 1153 
L 594 3053 
L 172 3053 
L 172 3500 
L 594 3500 
L 594 4494 
L 1172 4494 
z
" transform="scale(0.015625)"/>
      <path id="DejaVuSans-65" d="M 3597 1894 
L 3597 1613 
L 953 1613 
Q 991 1019 1311 708 
Q 1631 397 2203 397 
Q 2534 397 2845 478 
Q 3156 559 3463 722 
L 3463 178 
Q 3153 47 2828 -22 
Q 2503 -91 2169 -91 
Q 1331 -91 842 396 
Q 353 884 353 1716 
Q 353 2575 817 3079 
Q 1281 3584 2069 3584 
Q 2775 3584 3186 3129 
Q 3597 2675 3597 1894 
z
M 3022 2063 
Q 3016 2534 2758 2815 
Q 2500 3097 2075 3097 
Q 1594 3097 1305 2825 
Q 1016 2553 972 2059 
L 3022 2063 
z
" transform="scale(0.015625)"/>
      <path id="DejaVuSans-72" d="M 2631 2963 
Q 2534 3019 2420 3045 
Q 2306 3072 2169 3072 
Q 1681 3072 1420 2755 
Q 1159 2438 1159 1844 
L 1159 0 
L 581 0 
L 581 3500 
L 1159 3500 
L 1159 2956 
Q 1341 3275 1631 3429 
Q 1922 3584 2338 3584 
Q 2397 3584 2469 3576 
Q 2541 3569 2628 3553 
L 2631 2963 
z
" transform="scale(0.015625)"/>
      <path id="DejaVuSans-20" transform="scale(0.015625)"/>
     </defs>
     <use xlink:href="#DejaVuSans-43"/>
     <use xlink:href="#DejaVuSans-6c" transform="translate(69.824219 0)"/>
     <use xlink:href="#DejaVuSans-75" transform="translate(97.607422 0)"/>
     <use xlink:href="#DejaVuSans-73" transform="translate(160.986328 0)"/>
     <use xlink:href="#DejaVuSans-74" transform="translate(213.085938 0)"/>
     <use xlink:href="#DejaVuSans-65" transform="translate(252.294922 0)"/>
     <use xlink:href="#DejaVuSans-72" transform="translate(313.818359 0)"/>
     <use xlink:href="#DejaVuSans-20" transform="translate(354.931641 0)"/>
     <use xlink:href="#DejaVuSans-30" transform="translate(386.71875 0)"/>
    </g>
    <!-- 8 Trajectories  -->
    <g style="fill: #262626" transform="translate(195.413438 66.962625) scale(0.12 -0.12)">
     <defs>
      <path id="DejaVuSans-38" d="M 2034 2216 
Q 1584 2216 1326 1975 
Q 1069 1734 1069 1313 
Q 1069 891 1326 650 
Q 1584 409 2034 409 
Q 2484 409 2743 651 
Q 3003 894 3003 1313 
Q 3003 1734 2745 1975 
Q 2488 2216 2034 2216 
z
M 1403 2484 
Q 997 2584 770 2862 
Q 544 3141 544 3541 
Q 544 4100 942 4425 
Q 1341 4750 2034 4750 
Q 2731 4750 3128 4425 
Q 3525 4100 3525 3541 
Q 3525 3141 3298 2862 
Q 3072 2584 2669 2484 
Q 3125 2378 3379 2068 
Q 3634 1759 3634 1313 
Q 3634 634 3220 271 
Q 2806 -91 2034 -91 
Q 1263 -91 848 271 
Q 434 634 434 1313 
Q 434 1759 690 2068 
Q 947 2378 1403 2484 
z
M 1172 3481 
Q 1172 3119 1398 2916 
Q 1625 2713 2034 2713 
Q 2441 2713 2670 2916 
Q 2900 3119 2900 3481 
Q 2900 3844 2670 4047 
Q 2441 4250 2034 4250 
Q 1625 4250 1398 4047 
Q 1172 3844 1172 3481 
z
" transform="scale(0.015625)"/>
      <path id="DejaVuSans-54" d="M -19 4666 
L 3928 4666 
L 3928 4134 
L 2272 4134 
L 2272 0 
L 1638 0 
L 1638 4134 
L -19 4134 
L -19 4666 
z
" transform="scale(0.015625)"/>
      <path id="DejaVuSans-61" d="M 2194 1759 
Q 1497 1759 1228 1600 
Q 959 1441 959 1056 
Q 959 750 1161 570 
Q 1363 391 1709 391 
Q 2188 391 2477 730 
Q 2766 1069 2766 1631 
L 2766 1759 
L 2194 1759 
z
M 3341 1997 
L 3341 0 
L 2766 0 
L 2766 531 
Q 2569 213 2275 61 
Q 1981 -91 1556 -91 
Q 1019 -91 701 211 
Q 384 513 384 1019 
Q 384 1609 779 1909 
Q 1175 2209 1959 2209 
L 2766 2209 
L 2766 2266 
Q 2766 2663 2505 2880 
Q 2244 3097 1772 3097 
Q 1472 3097 1187 3025 
Q 903 2953 641 2809 
L 641 3341 
Q 956 3463 1253 3523 
Q 1550 3584 1831 3584 
Q 2591 3584 2966 3190 
Q 3341 2797 3341 1997 
z
" transform="scale(0.015625)"/>
      <path id="DejaVuSans-6a" d="M 603 3500 
L 1178 3500 
L 1178 -63 
Q 1178 -731 923 -1031 
Q 669 -1331 103 -1331 
L -116 -1331 
L -116 -844 
L 38 -844 
Q 366 -844 484 -692 
Q 603 -541 603 -63 
L 603 3500 
z
M 603 4863 
L 1178 4863 
L 1178 4134 
L 603 4134 
L 603 4863 
z
" transform="scale(0.015625)"/>
      <path id="DejaVuSans-63" d="M 3122 3366 
L 3122 2828 
Q 2878 2963 2633 3030 
Q 2388 3097 2138 3097 
Q 1578 3097 1268 2742 
Q 959 2388 959 1747 
Q 959 1106 1268 751 
Q 1578 397 2138 397 
Q 2388 397 2633 464 
Q 2878 531 3122 666 
L 3122 134 
Q 2881 22 2623 -34 
Q 2366 -91 2075 -91 
Q 1284 -91 818 406 
Q 353 903 353 1747 
Q 353 2603 823 3093 
Q 1294 3584 2113 3584 
Q 2378 3584 2631 3529 
Q 2884 3475 3122 3366 
z
" transform="scale(0.015625)"/>
      <path id="DejaVuSans-6f" d="M 1959 3097 
Q 1497 3097 1228 2736 
Q 959 2375 959 1747 
Q 959 1119 1226 758 
Q 1494 397 1959 397 
Q 2419 397 2687 759 
Q 2956 1122 2956 1747 
Q 2956 2369 2687 2733 
Q 2419 3097 1959 3097 
z
M 1959 3584 
Q 2709 3584 3137 3096 
Q 3566 2609 3566 1747 
Q 3566 888 3137 398 
Q 2709 -91 1959 -91 
Q 1206 -91 779 398 
Q 353 888 353 1747 
Q 353 2609 779 3096 
Q 1206 3584 1959 3584 
z
" transform="scale(0.015625)"/>
      <path id="DejaVuSans-69" d="M 603 3500 
L 1178 3500 
L 1178 0 
L 603 0 
L 603 3500 
z
M 603 4863 
L 1178 4863 
L 1178 4134 
L 603 4134 
L 603 4863 
z
" transform="scale(0.015625)"/>
     </defs>
     <use xlink:href="#DejaVuSans-38"/>
     <use xlink:href="#DejaVuSans-20" transform="translate(63.623047 0)"/>
     <use xlink:href="#DejaVuSans-54" transform="translate(95.410156 0)"/>
     <use xlink:href="#DejaVuSans-72" transform="translate(141.744141 0)"/>
     <use xlink:href="#DejaVuSans-61" transform="translate(182.857422 0)"/>
     <use xlink:href="#DejaVuSans-6a" transform="translate(244.136719 0)"/>
     <use xlink:href="#DejaVuSans-65" transform="translate(271.919922 0)"/>
     <use xlink:href="#DejaVuSans-63" transform="translate(333.443359 0)"/>
     <use xlink:href="#DejaVuSans-74" transform="translate(388.423828 0)"/>
     <use xlink:href="#DejaVuSans-6f" transform="translate(427.632812 0)"/>
     <use xlink:href="#DejaVuSans-72" transform="translate(488.814453 0)"/>
     <use xlink:href="#DejaVuSans-69" transform="translate(529.927734 0)"/>
     <use xlink:href="#DejaVuSans-65" transform="translate(557.710938 0)"/>
     <use xlink:href="#DejaVuSans-73" transform="translate(619.234375 0)"/>
     <use xlink:href="#DejaVuSans-20" transform="translate(671.333984 0)"/>
    </g>
    <!--  Colored by: func_old -->
    <g style="fill: #262626" transform="translate(174.737813 80.4) scale(0.12 -0.12)">
     <defs>
      <path id="DejaVuSans-64" d="M 2906 2969 
L 2906 4863 
L 3481 4863 
L 3481 0 
L 2906 0 
L 2906 525 
Q 2725 213 2448 61 
Q 2172 -91 1784 -91 
Q 1150 -91 751 415 
Q 353 922 353 1747 
Q 353 2572 751 3078 
Q 1150 3584 1784 3584 
Q 2172 3584 2448 3432 
Q 2725 3281 2906 2969 
z
M 947 1747 
Q 947 1113 1208 752 
Q 1469 391 1925 391 
Q 2381 391 2643 752 
Q 2906 1113 2906 1747 
Q 2906 2381 2643 2742 
Q 2381 3103 1925 3103 
Q 1469 3103 1208 2742 
Q 947 2381 947 1747 
z
" transform="scale(0.015625)"/>
      <path id="DejaVuSans-62" d="M 3116 1747 
Q 3116 2381 2855 2742 
Q 2594 3103 2138 3103 
Q 1681 3103 1420 2742 
Q 1159 2381 1159 1747 
Q 1159 1113 1420 752 
Q 1681 391 2138 391 
Q 2594 391 2855 752 
Q 3116 1113 3116 1747 
z
M 1159 2969 
Q 1341 3281 1617 3432 
Q 1894 3584 2278 3584 
Q 2916 3584 3314 3078 
Q 3713 2572 3713 1747 
Q 3713 922 3314 415 
Q 2916 -91 2278 -91 
Q 1894 -91 1617 61 
Q 1341 213 1159 525 
L 1159 0 
L 581 0 
L 581 4863 
L 1159 4863 
L 1159 2969 
z
" transform="scale(0.015625)"/>
      <path id="DejaVuSans-79" d="M 2059 -325 
Q 1816 -950 1584 -1140 
Q 1353 -1331 966 -1331 
L 506 -1331 
L 506 -850 
L 844 -850 
Q 1081 -850 1212 -737 
Q 1344 -625 1503 -206 
L 1606 56 
L 191 3500 
L 800 3500 
L 1894 763 
L 2988 3500 
L 3597 3500 
L 2059 -325 
z
" transform="scale(0.015625)"/>
      <path id="DejaVuSans-3a" d="M 750 794 
L 1409 794 
L 1409 0 
L 750 0 
L 750 794 
z
M 750 3309 
L 1409 3309 
L 1409 2516 
L 750 2516 
L 750 3309 
z
" transform="scale(0.015625)"/>
      <path id="DejaVuSans-66" d="M 2375 4863 
L 2375 4384 
L 1825 4384 
Q 1516 4384 1395 4259 
Q 1275 4134 1275 3809 
L 1275 3500 
L 2222 3500 
L 2222 3053 
L 1275 3053 
L 1275 0 
L 697 0 
L 697 3053 
L 147 3053 
L 147 3500 
L 697 3500 
L 697 3744 
Q 697 4328 969 4595 
Q 1241 4863 1831 4863 
L 2375 4863 
z
" transform="scale(0.015625)"/>
      <path id="DejaVuSans-6e" d="M 3513 2113 
L 3513 0 
L 2938 0 
L 2938 2094 
Q 2938 2591 2744 2837 
Q 2550 3084 2163 3084 
Q 1697 3084 1428 2787 
Q 1159 2491 1159 1978 
L 1159 0 
L 581 0 
L 581 3500 
L 1159 3500 
L 1159 2956 
Q 1366 3272 1645 3428 
Q 1925 3584 2291 3584 
Q 2894 3584 3203 3211 
Q 3513 2838 3513 2113 
z
" transform="scale(0.015625)"/>
      <path id="DejaVuSans-5f" d="M 3263 -1063 
L 3263 -1509 
L -63 -1509 
L -63 -1063 
L 3263 -1063 
z
" transform="scale(0.015625)"/>
     </defs>
     <use xlink:href="#DejaVuSans-20"/>
     <use xlink:href="#DejaVuSans-43" transform="translate(31.787109 0)"/>
     <use xlink:href="#DejaVuSans-6f" transform="translate(101.611328 0)"/>
     <use xlink:href="#DejaVuSans-6c" transform="translate(162.792969 0)"/>
     <use xlink:href="#DejaVuSans-6f" transform="translate(190.576172 0)"/>
     <use xlink:href="#DejaVuSans-72" transform="translate(251.757812 0)"/>
     <use xlink:href="#DejaVuSans-65" transform="translate(290.621094 0)"/>
     <use xlink:href="#DejaVuSans-64" transform="translate(352.144531 0)"/>
     <use xlink:href="#DejaVuSans-20" transform="translate(415.621094 0)"/>
     <use xlink:href="#DejaVuSans-62" transform="translate(447.408203 0)"/>
     <use xlink:href="#DejaVuSans-79" transform="translate(510.884766 0)"/>
     <use xlink:href="#DejaVuSans-3a" transform="translate(562.814453 0)"/>
     <use xlink:href="#DejaVuSans-20" transform="translate(596.505859 0)"/>
     <use xlink:href="#DejaVuSans-66" transform="translate(628.292969 0)"/>
     <use xlink:href="#DejaVuSans-75" transform="translate(663.498047 0)"/>
     <use xlink:href="#DejaVuSans-6e" transform="translate(726.876953 0)"/>
     <use xlink:href="#DejaVuSans-63" transform="translate(790.255859 0)"/>
     <use xlink:href="#DejaVuSans-5f" transform="translate(845.236328 0)"/>
     <use xlink:href="#DejaVuSans-6f" transform="translate(895.236328 0)"/>
     <use xlink:href="#DejaVuSans-6c" transform="translate(956.417969 0)"/>
     <use xlink:href="#DejaVuSans-64" transform="translate(984.201172 0)"/>
    </g>
   </g>
   <g id="legend_1">
    <g id="patch_7">
     <path d="M 302.823438 143.637812 
L 402.7 143.637812 
Q 404.9 143.637812 404.9 141.437813 
L 404.9 94.1 
Q 404.9 91.9 402.7 91.9 
L 302.823438 91.9 
Q 300.623438 91.9 300.623438 94.1 
L 300.623438 141.437813 
Q 300.623438 143.637812 302.823438 143.637812 
z
" style="fill: #ffffff; opacity: 0.8; stroke: #cccccc; stroke-linejoin: miter"/>
    </g>
    <g id="line2d_30">
     <path d="M 305.023438 100.808281 
L 316.023438 100.808281 
L 327.023438 100.808281 
" style="fill: none; stroke: #66c2a5; stroke-width: 1.5; stroke-linecap: round"/>
    </g>
    <g id="text_14">
     <!-- exponential -->
     <g style="fill: #262626" transform="translate(335.823438 104.658281) scale(0.11 -0.11)">
      <defs>
       <path id="DejaVuSans-78" d="M 3513 3500 
L 2247 1797 
L 3578 0 
L 2900 0 
L 1881 1375 
L 863 0 
L 184 0 
L 1544 1831 
L 300 3500 
L 978 3500 
L 1906 2253 
L 2834 3500 
L 3513 3500 
z
" transform="scale(0.015625)"/>
       <path id="DejaVuSans-70" d="M 1159 525 
L 1159 -1331 
L 581 -1331 
L 581 3500 
L 1159 3500 
L 1159 2969 
Q 1341 3281 1617 3432 
Q 1894 3584 2278 3584 
Q 2916 3584 3314 3078 
Q 3713 2572 3713 1747 
Q 3713 922 3314 415 
Q 2916 -91 2278 -91 
Q 1894 -91 1617 61 
Q 1341 213 1159 525 
z
M 3116 1747 
Q 3116 2381 2855 2742 
Q 2594 3103 2138 3103 
Q 1681 3103 1420 2742 
Q 1159 2381 1159 1747 
Q 1159 1113 1420 752 
Q 1681 391 2138 391 
Q 2594 391 2855 752 
Q 3116 1113 3116 1747 
z
" transform="scale(0.015625)"/>
      </defs>
      <use xlink:href="#DejaVuSans-65"/>
      <use xlink:href="#DejaVuSans-78" transform="translate(59.773438 0)"/>
      <use xlink:href="#DejaVuSans-70" transform="translate(118.953125 0)"/>
      <use xlink:href="#DejaVuSans-6f" transform="translate(182.429688 0)"/>
      <use xlink:href="#DejaVuSans-6e" transform="translate(243.611328 0)"/>
      <use xlink:href="#DejaVuSans-65" transform="translate(306.990234 0)"/>
      <use xlink:href="#DejaVuSans-6e" transform="translate(368.513672 0)"/>
      <use xlink:href="#DejaVuSans-74" transform="translate(431.892578 0)"/>
      <use xlink:href="#DejaVuSans-69" transform="translate(471.101562 0)"/>
      <use xlink:href="#DejaVuSans-61" transform="translate(498.884766 0)"/>
      <use xlink:href="#DejaVuSans-6c" transform="translate(560.164062 0)"/>
     </g>
    </g>
    <g id="line2d_31">
     <path d="M 305.023438 116.954219 
L 316.023438 116.954219 
L 327.023438 116.954219 
" style="fill: none; stroke: #e78ac3; stroke-width: 1.5; stroke-linecap: round"/>
    </g>
    <g id="text_15">
     <!-- linear -->
     <g style="fill: #262626" transform="translate(335.823438 120.804219) scale(0.11 -0.11)">
      <use xlink:href="#DejaVuSans-6c"/>
      <use xlink:href="#DejaVuSans-69" transform="translate(27.783203 0)"/>
      <use xlink:href="#DejaVuSans-6e" transform="translate(55.566406 0)"/>
      <use xlink:href="#DejaVuSans-65" transform="translate(118.945312 0)"/>
      <use xlink:href="#DejaVuSans-61" transform="translate(180.46875 0)"/>
      <use xlink:href="#DejaVuSans-72" transform="translate(241.748047 0)"/>
     </g>
    </g>
    <g id="line2d_32">
     <path d="M 305.023438 133.100156 
L 316.023438 133.100156 
L 327.023438 133.100156 
" style="fill: none; stroke-dasharray: 24,6; stroke-dashoffset: 0; stroke: #000000; stroke-width: 3"/>
    </g>
    <g id="text_16">
     <!-- Mean -->
     <g style="fill: #262626" transform="translate(335.823438 136.950156) scale(0.11 -0.11)">
      <defs>
       <path id="DejaVuSans-4d" d="M 628 4666 
L 1569 4666 
L 2759 1491 
L 3956 4666 
L 4897 4666 
L 4897 0 
L 4281 0 
L 4281 4097 
L 3078 897 
L 2444 897 
L 1241 4097 
L 1241 0 
L 628 0 
L 628 4666 
z
" transform="scale(0.015625)"/>
      </defs>
      <use xlink:href="#DejaVuSans-4d"/>
      <use xlink:href="#DejaVuSans-65" transform="translate(86.279297 0)"/>
      <use xlink:href="#DejaVuSans-61" transform="translate(147.802734 0)"/>
      <use xlink:href="#DejaVuSans-6e" transform="translate(209.082031 0)"/>
     </g>
    </g>
   </g>
  </g>
 </g>
 <defs>
  <clipPath id="pd3098a1437">
   <rect x="64.8" y="86.4" width="345.6" height="374.4"/>
  </clipPath>
 </defs>
</svg>
