<?xml version="1.0" encoding="utf-8" standalone="no"?>
<!DOCTYPE svg PUBLIC "-//W3C//DTD SVG 1.1//EN"
  "http://www.w3.org/Graphics/SVG/1.1/DTD/svg11.dtd">
<svg xmlns:xlink="http://www.w3.org/1999/xlink" width="432pt" height="576pt" viewBox="0 0 432 576" xmlns="http://www.w3.org/2000/svg" version="1.1">
 <metadata>
  <rdf:RDF xmlns:dc="http://purl.org/dc/elements/1.1/" xmlns:cc="http://creativecommons.org/ns#" xmlns:rdf="http://www.w3.org/1999/02/22-rdf-syntax-ns#">
   <cc:Work>
    <dc:type rdf:resource="http://purl.org/dc/dcmitype/StillImage"/>
    <dc:date>2025-10-08T19:06:52.194148</dc:date>
    <dc:format>image/svg+xml</dc:format>
    <dc:creator>
     <cc:Agent>
      <dc:title>Matplotlib v3.10.3, https://matplotlib.org/</dc:title>
     </cc:Agent>
    </dc:creator>
   </cc:Work>
  </rdf:RDF>
 </metadata>
 <defs>
  <style type="text/css">*{stroke-linejoin: round; stroke-linecap: butt}</style>
 </defs>
 <g id="figure_1">
  <g id="patch_1">
   <path d="M 0 576 
L 432 576 
L 432 0 
L 0 0 
z
" style="fill: #ffffff"/>
  </g>
  <g id="axes_1">
   <g id="patch_2">
    <path d="M 64.8 460.8 
L 410.4 460.8 
L 410.4 86.4 
L 64.8 86.4 
z
" style="fill: #ffffff"/>
   </g>
   <g id="matplotlib.axis_1">
    <g id="xtick_1">
     <g id="line2d_1">
      <path d="M 125.087243 460.8 
L 125.087243 86.4 
" clip-path="url(#p1c0a5dc84b)" style="fill: none; stroke: #cccccc; stroke-linecap: round"/>
     </g>
     <g id="text_1">
      <!-- 0 -->
      <g style="fill: #262626" transform="translate(121.587868 478.658281) scale(0.11 -0.11)">
       <defs>
        <path id="DejaVuSans-30" d="M 2034 4250 
Q 1547 4250 1301 3770 
Q 1056 3291 1056 2328 
Q 1056 1369 1301 889 
Q 1547 409 2034 409 
Q 2525 409 2770 889 
Q 3016 1369 3016 2328 
Q 3016 3291 2770 3770 
Q 2525 4250 2034 4250 
z
M 2034 4750 
Q 2819 4750 3233 4129 
Q 3647 3509 3647 2328 
Q 3647 1150 3233 529 
Q 2819 -91 2034 -91 
Q 1250 -91 836 529 
Q 422 1150 422 2328 
Q 422 3509 836 4129 
Q 1250 4750 2034 4750 
z
" transform="scale(0.015625)"/>
       </defs>
       <use xlink:href="#DejaVuSans-30"/>
      </g>
     </g>
    </g>
    <g id="xtick_2">
     <g id="line2d_2">
      <path d="M 196.035576 460.8 
L 196.035576 86.4 
" clip-path="url(#p1c0a5dc84b)" style="fill: none; stroke: #cccccc; stroke-linecap: round"/>
     </g>
     <g id="text_2">
      <!-- 5 -->
      <g style="fill: #262626" transform="translate(192.536201 478.658281) scale(0.11 -0.11)">
       <defs>
        <path id="DejaVuSans-35" d="M 691 4666 
L 3169 4666 
L 3169 4134 
L 1269 4134 
L 1269 2991 
Q 1406 3038 1543 3061 
Q 1681 3084 1819 3084 
Q 2600 3084 3056 2656 
Q 3513 2228 3513 1497 
Q 3513 744 3044 326 
Q 2575 -91 1722 -91 
Q 1428 -91 1123 -41 
Q 819 9 494 109 
L 494 744 
Q 775 591 1075 516 
Q 1375 441 1709 441 
Q 2250 441 2565 725 
Q 2881 1009 2881 1497 
Q 2881 1984 2565 2268 
Q 2250 2553 1709 2553 
Q 1456 2553 1204 2497 
Q 953 2441 691 2322 
L 691 4666 
z
" transform="scale(0.015625)"/>
       </defs>
       <use xlink:href="#DejaVuSans-35"/>
      </g>
     </g>
    </g>
    <g id="xtick_3">
     <g id="line2d_3">
      <path d="M 266.98391 460.8 
L 266.98391 86.4 
" clip-path="url(#p1c0a5dc84b)" style="fill: none; stroke: #cccccc; stroke-linecap: round"/>
     </g>
     <g id="text_3">
      <!-- 10 -->
      <g style="fill: #262626" transform="translate(259.98516 478.658281) scale(0.11 -0.11)">
       <defs>
        <path id="DejaVuSans-31" d="M 794 531 
L 1825 531 
L 1825 4091 
L 703 3866 
L 703 4441 
L 1819 4666 
L 2450 4666 
L 2450 531 
L 3481 531 
L 3481 0 
L 794 0 
L 794 531 
z
" transform="scale(0.015625)"/>
       </defs>
       <use xlink:href="#DejaVuSans-31"/>
       <use xlink:href="#DejaVuSans-30" transform="translate(63.623047 0)"/>
      </g>
     </g>
    </g>
    <g id="xtick_4">
     <g id="line2d_4">
      <path d="M 337.932243 460.8 
L 337.932243 86.4 
" clip-path="url(#p1c0a5dc84b)" style="fill: none; stroke: #cccccc; stroke-linecap: round"/>
     </g>
     <g id="text_4">
      <!-- 15 -->
      <g style="fill: #262626" transform="translate(330.933493 478.658281) scale(0.11 -0.11)">
       <use xlink:href="#DejaVuSans-31"/>
       <use xlink:href="#DejaVuSans-35" transform="translate(63.623047 0)"/>
      </g>
     </g>
    </g>
    <g id="xtick_5">
     <g id="line2d_5">
      <path d="M 408.880576 460.8 
L 408.880576 86.4 
" clip-path="url(#p1c0a5dc84b)" style="fill: none; stroke: #cccccc; stroke-linecap: round"/>
     </g>
     <g id="text_5">
      <!-- 20 -->
      <g style="fill: #262626" transform="translate(401.881826 478.658281) scale(0.11 -0.11)">
       <defs>
        <path id="DejaVuSans-32" d="M 1228 531 
L 3431 531 
L 3431 0 
L 469 0 
L 469 531 
Q 828 903 1448 1529 
Q 2069 2156 2228 2338 
Q 2531 2678 2651 2914 
Q 2772 3150 2772 3378 
Q 2772 3750 2511 3984 
Q 2250 4219 1831 4219 
Q 1534 4219 1204 4116 
Q 875 4013 500 3803 
L 500 4441 
Q 881 4594 1212 4672 
Q 1544 4750 1819 4750 
Q 2544 4750 2975 4387 
Q 3406 4025 3406 3419 
Q 3406 3131 3298 2873 
Q 3191 2616 2906 2266 
Q 2828 2175 2409 1742 
Q 1991 1309 1228 531 
z
" transform="scale(0.015625)"/>
       </defs>
       <use xlink:href="#DejaVuSans-32"/>
       <use xlink:href="#DejaVuSans-30" transform="translate(63.623047 0)"/>
      </g>
     </g>
    </g>
   </g>
   <g id="matplotlib.axis_2">
    <g id="ytick_1">
     <g id="line2d_6">
      <path d="M 64.8 413.585501 
L 410.4 413.585501 
" clip-path="url(#p1c0a5dc84b)" style="fill: none; stroke: #cccccc; stroke-linecap: round"/>
     </g>
     <g id="text_6">
      <!-- −500 -->
      <g style="fill: #262626" transform="translate(25.086094 417.764642) scale(0.11 -0.11)">
       <defs>
        <path id="DejaVuSans-2212" d="M 678 2272 
L 4684 2272 
L 4684 1741 
L 678 1741 
L 678 2272 
z
" transform="scale(0.015625)"/>
       </defs>
       <use xlink:href="#DejaVuSans-2212"/>
       <use xlink:href="#DejaVuSans-35" transform="translate(83.789062 0)"/>
       <use xlink:href="#DejaVuSans-30" transform="translate(147.412109 0)"/>
       <use xlink:href="#DejaVuSans-30" transform="translate(211.035156 0)"/>
      </g>
     </g>
    </g>
    <g id="ytick_2">
     <g id="line2d_7">
      <path d="M 64.8 355.111262 
L 410.4 355.111262 
" clip-path="url(#p1c0a5dc84b)" style="fill: none; stroke: #cccccc; stroke-linecap: round"/>
     </g>
     <g id="text_7">
      <!-- −400 -->
      <g style="fill: #262626" transform="translate(25.086094 359.290403) scale(0.11 -0.11)">
       <defs>
        <path id="DejaVuSans-34" d="M 2419 4116 
L 825 1625 
L 2419 1625 
L 2419 4116 
z
M 2253 4666 
L 3047 4666 
L 3047 1625 
L 3713 1625 
L 3713 1100 
L 3047 1100 
L 3047 0 
L 2419 0 
L 2419 1100 
L 313 1100 
L 313 1709 
L 2253 4666 
z
" transform="scale(0.015625)"/>
       </defs>
       <use xlink:href="#DejaVuSans-2212"/>
       <use xlink:href="#DejaVuSans-34" transform="translate(83.789062 0)"/>
       <use xlink:href="#DejaVuSans-30" transform="translate(147.412109 0)"/>
       <use xlink:href="#DejaVuSans-30" transform="translate(211.035156 0)"/>
      </g>
     </g>
    </g>
    <g id="ytick_3">
     <g id="line2d_8">
      <path d="M 64.8 296.637023 
L 410.4 296.637023 
" clip-path="url(#p1c0a5dc84b)" style="fill: none; stroke: #cccccc; stroke-linecap: round"/>
     </g>
     <g id="text_8">
      <!-- −300 -->
      <g style="fill: #262626" transform="translate(25.086094 300.816164) scale(0.11 -0.11)">
       <defs>
        <path id="DejaVuSans-33" d="M 2597 2516 
Q 3050 2419 3304 2112 
Q 3559 1806 3559 1356 
Q 3559 666 3084 287 
Q 2609 -91 1734 -91 
Q 1441 -91 1130 -33 
Q 819 25 488 141 
L 488 750 
Q 750 597 1062 519 
Q 1375 441 1716 441 
Q 2309 441 2620 675 
Q 2931 909 2931 1356 
Q 2931 1769 2642 2001 
Q 2353 2234 1838 2234 
L 1294 2234 
L 1294 2753 
L 1863 2753 
Q 2328 2753 2575 2939 
Q 2822 3125 2822 3475 
Q 2822 3834 2567 4026 
Q 2313 4219 1838 4219 
Q 1578 4219 1281 4162 
Q 984 4106 628 3988 
L 628 4550 
Q 988 4650 1302 4700 
Q 1616 4750 1894 4750 
Q 2613 4750 3031 4423 
Q 3450 4097 3450 3541 
Q 3450 3153 3228 2886 
Q 3006 2619 2597 2516 
z
" transform="scale(0.015625)"/>
       </defs>
       <use xlink:href="#DejaVuSans-2212"/>
       <use xlink:href="#DejaVuSans-33" transform="translate(83.789062 0)"/>
       <use xlink:href="#DejaVuSans-30" transform="translate(147.412109 0)"/>
       <use xlink:href="#DejaVuSans-30" transform="translate(211.035156 0)"/>
      </g>
     </g>
    </g>
    <g id="ytick_4">
     <g id="line2d_9">
      <path d="M 64.8 238.162784 
L 410.4 238.162784 
" clip-path="url(#p1c0a5dc84b)" style="fill: none; stroke: #cccccc; stroke-linecap: round"/>
     </g>
     <g id="text_9">
      <!-- −200 -->
      <g style="fill: #262626" transform="translate(25.086094 242.341925) scale(0.11 -0.11)">
       <use xlink:href="#DejaVuSans-2212"/>
       <use xlink:href="#DejaVuSans-32" transform="translate(83.789062 0)"/>
       <use xlink:href="#DejaVuSans-30" transform="translate(147.412109 0)"/>
       <use xlink:href="#DejaVuSans-30" transform="translate(211.035156 0)"/>
      </g>
     </g>
    </g>
    <g id="ytick_5">
     <g id="line2d_10">
      <path d="M 64.8 179.688545 
L 410.4 179.688545 
" clip-path="url(#p1c0a5dc84b)" style="fill: none; stroke: #cccccc; stroke-linecap: round"/>
     </g>
     <g id="text_10">
      <!-- −100 -->
      <g style="fill: #262626" transform="translate(25.086094 183.867686) scale(0.11 -0.11)">
       <use xlink:href="#DejaVuSans-2212"/>
       <use xlink:href="#DejaVuSans-31" transform="translate(83.789062 0)"/>
       <use xlink:href="#DejaVuSans-30" transform="translate(147.412109 0)"/>
       <use xlink:href="#DejaVuSans-30" transform="translate(211.035156 0)"/>
      </g>
     </g>
    </g>
    <g id="ytick_6">
     <g id="line2d_11">
      <path d="M 64.8 121.214306 
L 410.4 121.214306 
" clip-path="url(#p1c0a5dc84b)" style="fill: none; stroke: #cccccc; stroke-linecap: round"/>
     </g>
     <g id="text_11">
      <!-- 0 -->
      <g style="fill: #262626" transform="translate(48.30125 125.393447) scale(0.11 -0.11)">
       <use xlink:href="#DejaVuSans-30"/>
      </g>
     </g>
    </g>
   </g>
   <g id="line2d_12">
    <path d="M 125.087243 130.673658 
L 139.27691 130.916105 
L 153.466577 130.939908 
L 167.656243 130.709886 
L 181.84591 130.774234 
L 196.035576 122.40426 
L 210.225243 120.291993 
L 224.41491 119.203098 
L 238.604576 119.125362 
L 252.794243 119.238556 
L 266.98391 119.007838 
L 281.173576 118.976491 
L 295.363243 119.167743 
L 309.552909 119.403796 
L 323.742576 119.538227 
L 337.932243 119.118231 
L 352.121909 119.285842 
L 366.311576 119.179672 
L 380.501242 119.024495 
L 394.690909 119.455357 
" clip-path="url(#p1c0a5dc84b)" style="fill: none; stroke: #66c2a5; stroke-width: 1.5; stroke-linecap: round"/>
   </g>
   <g id="line2d_13">
    <path d="M 125.087243 130.673658 
L 139.27691 130.916105 
L 153.466577 130.939908 
L 167.656243 130.709886 
L 181.84591 130.774234 
L 196.035576 122.40426 
L 210.225243 120.291993 
L 224.41491 119.203098 
L 238.604576 119.125362 
L 252.794243 119.238556 
L 266.98391 119.007838 
L 281.173576 118.976491 
L 295.363243 119.167743 
L 309.552909 119.403796 
L 323.742576 119.538227 
L 337.932243 119.118231 
L 352.121909 119.285842 
L 366.311576 119.179672 
L 380.501242 119.024495 
L 394.690909 119.455357 
" clip-path="url(#p1c0a5dc84b)" style="fill: none; stroke: #66c2a5; stroke-width: 1.5; stroke-linecap: round"/>
    <defs>
     <path id="mafb676fa74" d="M 0 3 
C 0.795609 3 1.55874 2.683901 2.12132 2.12132 
C 2.683901 1.55874 3 0.795609 3 0 
C 3 -0.795609 2.683901 -1.55874 2.12132 -2.12132 
C 1.55874 -2.683901 0.795609 -3 0 -3 
C -0.795609 -3 -1.55874 -2.683901 -2.12132 -2.12132 
C -2.683901 -1.55874 -3 -0.795609 -3 0 
C -3 0.795609 -2.683901 1.55874 -2.12132 2.12132 
C -1.55874 2.683901 -0.795609 3 0 3 
z
" style="stroke: #66c2a5"/>
    </defs>
    <g clip-path="url(#p1c0a5dc84b)">
     <use xlink:href="#mafb676fa74" x="125.087243" y="130.673658" style="fill: #66c2a5; stroke: #66c2a5"/>
     <use xlink:href="#mafb676fa74" x="139.27691" y="130.916105" style="fill: #66c2a5; stroke: #66c2a5"/>
     <use xlink:href="#mafb676fa74" x="153.466577" y="130.939908" style="fill: #66c2a5; stroke: #66c2a5"/>
     <use xlink:href="#mafb676fa74" x="167.656243" y="130.709886" style="fill: #66c2a5; stroke: #66c2a5"/>
     <use xlink:href="#mafb676fa74" x="181.84591" y="130.774234" style="fill: #66c2a5; stroke: #66c2a5"/>
     <use xlink:href="#mafb676fa74" x="196.035576" y="122.40426" style="fill: #66c2a5; stroke: #66c2a5"/>
     <use xlink:href="#mafb676fa74" x="210.225243" y="120.291993" style="fill: #66c2a5; stroke: #66c2a5"/>
     <use xlink:href="#mafb676fa74" x="224.41491" y="119.203098" style="fill: #66c2a5; stroke: #66c2a5"/>
     <use xlink:href="#mafb676fa74" x="238.604576" y="119.125362" style="fill: #66c2a5; stroke: #66c2a5"/>
     <use xlink:href="#mafb676fa74" x="252.794243" y="119.238556" style="fill: #66c2a5; stroke: #66c2a5"/>
     <use xlink:href="#mafb676fa74" x="266.98391" y="119.007838" style="fill: #66c2a5; stroke: #66c2a5"/>
     <use xlink:href="#mafb676fa74" x="281.173576" y="118.976491" style="fill: #66c2a5; stroke: #66c2a5"/>
     <use xlink:href="#mafb676fa74" x="295.363243" y="119.167743" style="fill: #66c2a5; stroke: #66c2a5"/>
     <use xlink:href="#mafb676fa74" x="309.552909" y="119.403796" style="fill: #66c2a5; stroke: #66c2a5"/>
     <use xlink:href="#mafb676fa74" x="323.742576" y="119.538227" style="fill: #66c2a5; stroke: #66c2a5"/>
     <use xlink:href="#mafb676fa74" x="337.932243" y="119.118231" style="fill: #66c2a5; stroke: #66c2a5"/>
     <use xlink:href="#mafb676fa74" x="352.121909" y="119.285842" style="fill: #66c2a5; stroke: #66c2a5"/>
     <use xlink:href="#mafb676fa74" x="366.311576" y="119.179672" style="fill: #66c2a5; stroke: #66c2a5"/>
     <use xlink:href="#mafb676fa74" x="380.501242" y="119.024495" style="fill: #66c2a5; stroke: #66c2a5"/>
     <use xlink:href="#mafb676fa74" x="394.690909" y="119.455357" style="fill: #66c2a5; stroke: #66c2a5"/>
    </g>
   </g>
   <g id="line2d_14">
    <path d="M 125.087243 139.469938 
L 139.27691 139.456524 
L 153.466577 138.459308 
L 167.656243 139.284752 
L 181.84591 139.560856 
L 196.035576 107.967138 
L 210.225243 105.777077 
L 224.41491 104.055862 
L 238.604576 105.09591 
L 252.794243 105.112639 
L 266.98391 104.927917 
L 281.173576 105.044009 
L 295.363243 104.301804 
L 309.552909 105.27085 
L 323.742576 105.287507 
L 337.932243 104.105139 
L 352.121909 104.947236 
L 366.311576 104.816297 
L 380.501242 105.044381 
L 394.690909 105.230246 
" clip-path="url(#p1c0a5dc84b)" style="fill: none; stroke: #66c2a5; stroke-width: 1.5; stroke-linecap: round"/>
   </g>
   <g id="line2d_15">
    <path d="M 125.087243 139.469938 
L 139.27691 139.456524 
L 153.466577 138.459308 
L 167.656243 139.284752 
L 181.84591 139.560856 
L 196.035576 107.967138 
L 210.225243 105.777077 
L 224.41491 104.055862 
L 238.604576 105.09591 
L 252.794243 105.112639 
L 266.98391 104.927917 
L 281.173576 105.044009 
L 295.363243 104.301804 
L 309.552909 105.27085 
L 323.742576 105.287507 
L 337.932243 104.105139 
L 352.121909 104.947236 
L 366.311576 104.816297 
L 380.501242 105.044381 
L 394.690909 105.230246 
" clip-path="url(#p1c0a5dc84b)" style="fill: none; stroke: #66c2a5; stroke-width: 1.5; stroke-linecap: round"/>
    <g clip-path="url(#p1c0a5dc84b)">
     <use xlink:href="#mafb676fa74" x="125.087243" y="139.469938" style="fill: #66c2a5; stroke: #66c2a5"/>
     <use xlink:href="#mafb676fa74" x="139.27691" y="139.456524" style="fill: #66c2a5; stroke: #66c2a5"/>
     <use xlink:href="#mafb676fa74" x="153.466577" y="138.459308" style="fill: #66c2a5; stroke: #66c2a5"/>
     <use xlink:href="#mafb676fa74" x="167.656243" y="139.284752" style="fill: #66c2a5; stroke: #66c2a5"/>
     <use xlink:href="#mafb676fa74" x="181.84591" y="139.560856" style="fill: #66c2a5; stroke: #66c2a5"/>
     <use xlink:href="#mafb676fa74" x="196.035576" y="107.967138" style="fill: #66c2a5; stroke: #66c2a5"/>
     <use xlink:href="#mafb676fa74" x="210.225243" y="105.777077" style="fill: #66c2a5; stroke: #66c2a5"/>
     <use xlink:href="#mafb676fa74" x="224.41491" y="104.055862" style="fill: #66c2a5; stroke: #66c2a5"/>
     <use xlink:href="#mafb676fa74" x="238.604576" y="105.09591" style="fill: #66c2a5; stroke: #66c2a5"/>
     <use xlink:href="#mafb676fa74" x="252.794243" y="105.112639" style="fill: #66c2a5; stroke: #66c2a5"/>
     <use xlink:href="#mafb676fa74" x="266.98391" y="104.927917" style="fill: #66c2a5; stroke: #66c2a5"/>
     <use xlink:href="#mafb676fa74" x="281.173576" y="105.044009" style="fill: #66c2a5; stroke: #66c2a5"/>
     <use xlink:href="#mafb676fa74" x="295.363243" y="104.301804" style="fill: #66c2a5; stroke: #66c2a5"/>
     <use xlink:href="#mafb676fa74" x="309.552909" y="105.27085" style="fill: #66c2a5; stroke: #66c2a5"/>
     <use xlink:href="#mafb676fa74" x="323.742576" y="105.287507" style="fill: #66c2a5; stroke: #66c2a5"/>
     <use xlink:href="#mafb676fa74" x="337.932243" y="104.105139" style="fill: #66c2a5; stroke: #66c2a5"/>
     <use xlink:href="#mafb676fa74" x="352.121909" y="104.947236" style="fill: #66c2a5; stroke: #66c2a5"/>
     <use xlink:href="#mafb676fa74" x="366.311576" y="104.816297" style="fill: #66c2a5; stroke: #66c2a5"/>
     <use xlink:href="#mafb676fa74" x="380.501242" y="105.044381" style="fill: #66c2a5; stroke: #66c2a5"/>
     <use xlink:href="#mafb676fa74" x="394.690909" y="105.230246" style="fill: #66c2a5; stroke: #66c2a5"/>
    </g>
   </g>
   <g id="line2d_16">
    <path d="M 125.087243 150.401436 
L 139.27691 150.832383 
L 153.466577 149.539678 
L 167.656243 150.435807 
L 181.84591 150.584189 
L 196.035576 112.997452 
L 210.225243 108.496044 
L 224.41491 106.527471 
L 238.604576 106.117605 
L 252.794243 106.490057 
L 266.98391 106.259556 
L 281.173576 106.352107 
L 295.363243 107.328793 
L 309.552909 106.872038 
L 323.742576 107.302772 
L 337.932243 107.089514 
L 352.121909 106.868283 
L 366.311576 106.940714 
L 380.501242 107.560385 
L 394.690909 106.919908 
" clip-path="url(#p1c0a5dc84b)" style="fill: none; stroke: #66c2a5; stroke-width: 1.5; stroke-linecap: round"/>
   </g>
   <g id="line2d_17">
    <path d="M 125.087243 150.401436 
L 139.27691 150.832383 
L 153.466577 149.539678 
L 167.656243 150.435807 
L 181.84591 150.584189 
L 196.035576 112.997452 
L 210.225243 108.496044 
L 224.41491 106.527471 
L 238.604576 106.117605 
L 252.794243 106.490057 
L 266.98391 106.259556 
L 281.173576 106.352107 
L 295.363243 107.328793 
L 309.552909 106.872038 
L 323.742576 107.302772 
L 337.932243 107.089514 
L 352.121909 106.868283 
L 366.311576 106.940714 
L 380.501242 107.560385 
L 394.690909 106.919908 
" clip-path="url(#p1c0a5dc84b)" style="fill: none; stroke: #66c2a5; stroke-width: 1.5; stroke-linecap: round"/>
    <g clip-path="url(#p1c0a5dc84b)">
     <use xlink:href="#mafb676fa74" x="125.087243" y="150.401436" style="fill: #66c2a5; stroke: #66c2a5"/>
     <use xlink:href="#mafb676fa74" x="139.27691" y="150.832383" style="fill: #66c2a5; stroke: #66c2a5"/>
     <use xlink:href="#mafb676fa74" x="153.466577" y="149.539678" style="fill: #66c2a5; stroke: #66c2a5"/>
     <use xlink:href="#mafb676fa74" x="167.656243" y="150.435807" style="fill: #66c2a5; stroke: #66c2a5"/>
     <use xlink:href="#mafb676fa74" x="181.84591" y="150.584189" style="fill: #66c2a5; stroke: #66c2a5"/>
     <use xlink:href="#mafb676fa74" x="196.035576" y="112.997452" style="fill: #66c2a5; stroke: #66c2a5"/>
     <use xlink:href="#mafb676fa74" x="210.225243" y="108.496044" style="fill: #66c2a5; stroke: #66c2a5"/>
     <use xlink:href="#mafb676fa74" x="224.41491" y="106.527471" style="fill: #66c2a5; stroke: #66c2a5"/>
     <use xlink:href="#mafb676fa74" x="238.604576" y="106.117605" style="fill: #66c2a5; stroke: #66c2a5"/>
     <use xlink:href="#mafb676fa74" x="252.794243" y="106.490057" style="fill: #66c2a5; stroke: #66c2a5"/>
     <use xlink:href="#mafb676fa74" x="266.98391" y="106.259556" style="fill: #66c2a5; stroke: #66c2a5"/>
     <use xlink:href="#mafb676fa74" x="281.173576" y="106.352107" style="fill: #66c2a5; stroke: #66c2a5"/>
     <use xlink:href="#mafb676fa74" x="295.363243" y="107.328793" style="fill: #66c2a5; stroke: #66c2a5"/>
     <use xlink:href="#mafb676fa74" x="309.552909" y="106.872038" style="fill: #66c2a5; stroke: #66c2a5"/>
     <use xlink:href="#mafb676fa74" x="323.742576" y="107.302772" style="fill: #66c2a5; stroke: #66c2a5"/>
     <use xlink:href="#mafb676fa74" x="337.932243" y="107.089514" style="fill: #66c2a5; stroke: #66c2a5"/>
     <use xlink:href="#mafb676fa74" x="352.121909" y="106.868283" style="fill: #66c2a5; stroke: #66c2a5"/>
     <use xlink:href="#mafb676fa74" x="366.311576" y="106.940714" style="fill: #66c2a5; stroke: #66c2a5"/>
     <use xlink:href="#mafb676fa74" x="380.501242" y="107.560385" style="fill: #66c2a5; stroke: #66c2a5"/>
     <use xlink:href="#mafb676fa74" x="394.690909" y="106.919908" style="fill: #66c2a5; stroke: #66c2a5"/>
    </g>
   </g>
   <g id="line2d_18">
    <path d="M 125.087243 146.554725 
L 139.27691 146.853939 
L 153.466577 146.961547 
L 167.656243 146.640695 
L 181.84591 146.202165 
L 196.035576 145.119072 
L 210.225243 141.233679 
L 224.41491 135.867371 
L 238.604576 131.568915 
L 252.794243 126.732092 
L 266.98391 125.052057 
L 281.173576 122.832246 
L 295.363243 121.794162 
L 309.552909 120.631628 
L 323.742576 120.72988 
L 337.932243 120.687639 
L 352.121909 120.471043 
L 366.311576 120.214474 
L 380.501242 125.640076 
L 394.690909 132.257936 
" clip-path="url(#p1c0a5dc84b)" style="fill: none; stroke: #fc8d62; stroke-width: 1.5; stroke-linecap: round"/>
   </g>
   <g id="line2d_19">
    <path d="M 125.087243 146.554725 
L 139.27691 146.853939 
L 153.466577 146.961547 
L 167.656243 146.640695 
L 181.84591 146.202165 
L 196.035576 145.119072 
L 210.225243 141.233679 
L 224.41491 135.867371 
L 238.604576 131.568915 
L 252.794243 126.732092 
L 266.98391 125.052057 
L 281.173576 122.832246 
L 295.363243 121.794162 
L 309.552909 120.631628 
L 323.742576 120.72988 
L 337.932243 120.687639 
L 352.121909 120.471043 
L 366.311576 120.214474 
L 380.501242 125.640076 
L 394.690909 132.257936 
" clip-path="url(#p1c0a5dc84b)" style="fill: none; stroke: #fc8d62; stroke-width: 1.5; stroke-linecap: round"/>
    <defs>
     <path id="m4a542cb45b" d="M 0 3 
C 0.795609 3 1.55874 2.683901 2.12132 2.12132 
C 2.683901 1.55874 3 0.795609 3 0 
C 3 -0.795609 2.683901 -1.55874 2.12132 -2.12132 
C 1.55874 -2.683901 0.795609 -3 0 -3 
C -0.795609 -3 -1.55874 -2.683901 -2.12132 -2.12132 
C -2.683901 -1.55874 -3 -0.795609 -3 0 
C -3 0.795609 -2.683901 1.55874 -2.12132 2.12132 
C -1.55874 2.683901 -0.795609 3 0 3 
z
" style="stroke: #fc8d62"/>
    </defs>
    <g clip-path="url(#p1c0a5dc84b)">
     <use xlink:href="#m4a542cb45b" x="125.087243" y="146.554725" style="fill: #fc8d62; stroke: #fc8d62"/>
     <use xlink:href="#m4a542cb45b" x="139.27691" y="146.853939" style="fill: #fc8d62; stroke: #fc8d62"/>
     <use xlink:href="#m4a542cb45b" x="153.466577" y="146.961547" style="fill: #fc8d62; stroke: #fc8d62"/>
     <use xlink:href="#m4a542cb45b" x="167.656243" y="146.640695" style="fill: #fc8d62; stroke: #fc8d62"/>
     <use xlink:href="#m4a542cb45b" x="181.84591" y="146.202165" style="fill: #fc8d62; stroke: #fc8d62"/>
     <use xlink:href="#m4a542cb45b" x="196.035576" y="145.119072" style="fill: #fc8d62; stroke: #fc8d62"/>
     <use xlink:href="#m4a542cb45b" x="210.225243" y="141.233679" style="fill: #fc8d62; stroke: #fc8d62"/>
     <use xlink:href="#m4a542cb45b" x="224.41491" y="135.867371" style="fill: #fc8d62; stroke: #fc8d62"/>
     <use xlink:href="#m4a542cb45b" x="238.604576" y="131.568915" style="fill: #fc8d62; stroke: #fc8d62"/>
     <use xlink:href="#m4a542cb45b" x="252.794243" y="126.732092" style="fill: #fc8d62; stroke: #fc8d62"/>
     <use xlink:href="#m4a542cb45b" x="266.98391" y="125.052057" style="fill: #fc8d62; stroke: #fc8d62"/>
     <use xlink:href="#m4a542cb45b" x="281.173576" y="122.832246" style="fill: #fc8d62; stroke: #fc8d62"/>
     <use xlink:href="#m4a542cb45b" x="295.363243" y="121.794162" style="fill: #fc8d62; stroke: #fc8d62"/>
     <use xlink:href="#m4a542cb45b" x="309.552909" y="120.631628" style="fill: #fc8d62; stroke: #fc8d62"/>
     <use xlink:href="#m4a542cb45b" x="323.742576" y="120.72988" style="fill: #fc8d62; stroke: #fc8d62"/>
     <use xlink:href="#m4a542cb45b" x="337.932243" y="120.687639" style="fill: #fc8d62; stroke: #fc8d62"/>
     <use xlink:href="#m4a542cb45b" x="352.121909" y="120.471043" style="fill: #fc8d62; stroke: #fc8d62"/>
     <use xlink:href="#m4a542cb45b" x="366.311576" y="120.214474" style="fill: #fc8d62; stroke: #fc8d62"/>
     <use xlink:href="#m4a542cb45b" x="380.501242" y="125.640076" style="fill: #fc8d62; stroke: #fc8d62"/>
     <use xlink:href="#m4a542cb45b" x="394.690909" y="132.257936" style="fill: #fc8d62; stroke: #fc8d62"/>
    </g>
   </g>
   <g id="line2d_20">
    <path d="M 125.087243 441.229789 
L 139.27691 434.222568 
L 153.466577 434.19599 
L 167.656243 443.781818 
L 181.84591 440.512984 
L 196.035576 394.899374 
L 210.225243 346.958201 
L 224.41491 312.632233 
L 238.604576 290.369438 
L 252.794243 257.730247 
L 266.98391 234.095852 
L 281.173576 213.974779 
L 295.363243 200.402529 
L 309.552909 188.830345 
L 323.742576 174.646718 
L 337.932243 160.413755 
L 352.121909 150.450567 
L 366.311576 133.529857 
L 380.501242 124.715199 
L 394.690909 116.681476 
" clip-path="url(#p1c0a5dc84b)" style="fill: none; stroke: #8da0cb; stroke-width: 1.5; stroke-linecap: round"/>
   </g>
   <g id="line2d_21">
    <path d="M 125.087243 441.229789 
L 139.27691 434.222568 
L 153.466577 434.19599 
L 167.656243 443.781818 
L 181.84591 440.512984 
L 196.035576 394.899374 
L 210.225243 346.958201 
L 224.41491 312.632233 
L 238.604576 290.369438 
L 252.794243 257.730247 
L 266.98391 234.095852 
L 281.173576 213.974779 
L 295.363243 200.402529 
L 309.552909 188.830345 
L 323.742576 174.646718 
L 337.932243 160.413755 
L 352.121909 150.450567 
L 366.311576 133.529857 
L 380.501242 124.715199 
L 394.690909 116.681476 
" clip-path="url(#p1c0a5dc84b)" style="fill: none; stroke: #8da0cb; stroke-width: 1.5; stroke-linecap: round"/>
    <defs>
     <path id="m19554d0f5a" d="M 0 3 
C 0.795609 3 1.55874 2.683901 2.12132 2.12132 
C 2.683901 1.55874 3 0.795609 3 0 
C 3 -0.795609 2.683901 -1.55874 2.12132 -2.12132 
C 1.55874 -2.683901 0.795609 -3 0 -3 
C -0.795609 -3 -1.55874 -2.683901 -2.12132 -2.12132 
C -2.683901 -1.55874 -3 -0.795609 -3 0 
C -3 0.795609 -2.683901 1.55874 -2.12132 2.12132 
C -1.55874 2.683901 -0.795609 3 0 3 
z
" style="stroke: #8da0cb"/>
    </defs>
    <g clip-path="url(#p1c0a5dc84b)">
     <use xlink:href="#m19554d0f5a" x="125.087243" y="441.229789" style="fill: #8da0cb; stroke: #8da0cb"/>
     <use xlink:href="#m19554d0f5a" x="139.27691" y="434.222568" style="fill: #8da0cb; stroke: #8da0cb"/>
     <use xlink:href="#m19554d0f5a" x="153.466577" y="434.19599" style="fill: #8da0cb; stroke: #8da0cb"/>
     <use xlink:href="#m19554d0f5a" x="167.656243" y="443.781818" style="fill: #8da0cb; stroke: #8da0cb"/>
     <use xlink:href="#m19554d0f5a" x="181.84591" y="440.512984" style="fill: #8da0cb; stroke: #8da0cb"/>
     <use xlink:href="#m19554d0f5a" x="196.035576" y="394.899374" style="fill: #8da0cb; stroke: #8da0cb"/>
     <use xlink:href="#m19554d0f5a" x="210.225243" y="346.958201" style="fill: #8da0cb; stroke: #8da0cb"/>
     <use xlink:href="#m19554d0f5a" x="224.41491" y="312.632233" style="fill: #8da0cb; stroke: #8da0cb"/>
     <use xlink:href="#m19554d0f5a" x="238.604576" y="290.369438" style="fill: #8da0cb; stroke: #8da0cb"/>
     <use xlink:href="#m19554d0f5a" x="252.794243" y="257.730247" style="fill: #8da0cb; stroke: #8da0cb"/>
     <use xlink:href="#m19554d0f5a" x="266.98391" y="234.095852" style="fill: #8da0cb; stroke: #8da0cb"/>
     <use xlink:href="#m19554d0f5a" x="281.173576" y="213.974779" style="fill: #8da0cb; stroke: #8da0cb"/>
     <use xlink:href="#m19554d0f5a" x="295.363243" y="200.402529" style="fill: #8da0cb; stroke: #8da0cb"/>
     <use xlink:href="#m19554d0f5a" x="309.552909" y="188.830345" style="fill: #8da0cb; stroke: #8da0cb"/>
     <use xlink:href="#m19554d0f5a" x="323.742576" y="174.646718" style="fill: #8da0cb; stroke: #8da0cb"/>
     <use xlink:href="#m19554d0f5a" x="337.932243" y="160.413755" style="fill: #8da0cb; stroke: #8da0cb"/>
     <use xlink:href="#m19554d0f5a" x="352.121909" y="150.450567" style="fill: #8da0cb; stroke: #8da0cb"/>
     <use xlink:href="#m19554d0f5a" x="366.311576" y="133.529857" style="fill: #8da0cb; stroke: #8da0cb"/>
     <use xlink:href="#m19554d0f5a" x="380.501242" y="124.715199" style="fill: #8da0cb; stroke: #8da0cb"/>
     <use xlink:href="#m19554d0f5a" x="394.690909" y="116.681476" style="fill: #8da0cb; stroke: #8da0cb"/>
    </g>
   </g>
   <g id="line2d_22">
    <path d="M 80.509091 110.892852 
L 85.201528 111.93411 
L 89.893965 108.997586 
L 94.586402 113.510909 
L 99.278839 107.316168 
L 103.971276 115.031759 
L 108.663713 106.040341 
L 113.356151 115.833521 
L 118.048588 105.044882 
L 122.741025 116.572145 
L 127.433462 104.596229 
L 132.125899 116.343192 
L 136.818336 105.380252 
L 141.510773 115.832948 
L 146.20321 106.279402 
L 150.895647 114.508384 
L 155.588084 108.015538 
L 160.280522 112.782819 
L 164.972959 109.874561 
L 169.665396 110.513929 
" clip-path="url(#p1c0a5dc84b)" style="fill: none; stroke: #ffd92f; stroke-width: 1.5; stroke-linecap: round"/>
   </g>
   <g id="line2d_23">
    <path d="M 80.509091 110.892852 
L 85.201528 111.93411 
L 89.893965 108.997586 
L 94.586402 113.510909 
L 99.278839 107.316168 
L 103.971276 115.031759 
L 108.663713 106.040341 
L 113.356151 115.833521 
L 118.048588 105.044882 
L 122.741025 116.572145 
L 127.433462 104.596229 
L 132.125899 116.343192 
L 136.818336 105.380252 
L 141.510773 115.832948 
L 146.20321 106.279402 
L 150.895647 114.508384 
L 155.588084 108.015538 
L 160.280522 112.782819 
L 164.972959 109.874561 
L 169.665396 110.513929 
" clip-path="url(#p1c0a5dc84b)" style="fill: none; stroke: #ffd92f; stroke-width: 1.5; stroke-linecap: round"/>
    <defs>
     <path id="mfd31ee4275" d="M 0 3 
C 0.795609 3 1.55874 2.683901 2.12132 2.12132 
C 2.683901 1.55874 3 0.795609 3 0 
C 3 -0.795609 2.683901 -1.55874 2.12132 -2.12132 
C 1.55874 -2.683901 0.795609 -3 0 -3 
C -0.795609 -3 -1.55874 -2.683901 -2.12132 -2.12132 
C -2.683901 -1.55874 -3 -0.795609 -3 0 
C -3 0.795609 -2.683901 1.55874 -2.12132 2.12132 
C -1.55874 2.683901 -0.795609 3 0 3 
z
" style="stroke: #ffd92f"/>
    </defs>
    <g clip-path="url(#p1c0a5dc84b)">
     <use xlink:href="#mfd31ee4275" x="80.509091" y="110.892852" style="fill: #ffd92f; stroke: #ffd92f"/>
     <use xlink:href="#mfd31ee4275" x="85.201528" y="111.93411" style="fill: #ffd92f; stroke: #ffd92f"/>
     <use xlink:href="#mfd31ee4275" x="89.893965" y="108.997586" style="fill: #ffd92f; stroke: #ffd92f"/>
     <use xlink:href="#mfd31ee4275" x="94.586402" y="113.510909" style="fill: #ffd92f; stroke: #ffd92f"/>
     <use xlink:href="#mfd31ee4275" x="99.278839" y="107.316168" style="fill: #ffd92f; stroke: #ffd92f"/>
     <use xlink:href="#mfd31ee4275" x="103.971276" y="115.031759" style="fill: #ffd92f; stroke: #ffd92f"/>
     <use xlink:href="#mfd31ee4275" x="108.663713" y="106.040341" style="fill: #ffd92f; stroke: #ffd92f"/>
     <use xlink:href="#mfd31ee4275" x="113.356151" y="115.833521" style="fill: #ffd92f; stroke: #ffd92f"/>
     <use xlink:href="#mfd31ee4275" x="118.048588" y="105.044882" style="fill: #ffd92f; stroke: #ffd92f"/>
     <use xlink:href="#mfd31ee4275" x="122.741025" y="116.572145" style="fill: #ffd92f; stroke: #ffd92f"/>
     <use xlink:href="#mfd31ee4275" x="127.433462" y="104.596229" style="fill: #ffd92f; stroke: #ffd92f"/>
     <use xlink:href="#mfd31ee4275" x="132.125899" y="116.343192" style="fill: #ffd92f; stroke: #ffd92f"/>
     <use xlink:href="#mfd31ee4275" x="136.818336" y="105.380252" style="fill: #ffd92f; stroke: #ffd92f"/>
     <use xlink:href="#mfd31ee4275" x="141.510773" y="115.832948" style="fill: #ffd92f; stroke: #ffd92f"/>
     <use xlink:href="#mfd31ee4275" x="146.20321" y="106.279402" style="fill: #ffd92f; stroke: #ffd92f"/>
     <use xlink:href="#mfd31ee4275" x="150.895647" y="114.508384" style="fill: #ffd92f; stroke: #ffd92f"/>
     <use xlink:href="#mfd31ee4275" x="155.588084" y="108.015538" style="fill: #ffd92f; stroke: #ffd92f"/>
     <use xlink:href="#mfd31ee4275" x="160.280522" y="112.782819" style="fill: #ffd92f; stroke: #ffd92f"/>
     <use xlink:href="#mfd31ee4275" x="164.972959" y="109.874561" style="fill: #ffd92f; stroke: #ffd92f"/>
     <use xlink:href="#mfd31ee4275" x="169.665396" y="110.513929" style="fill: #ffd92f; stroke: #ffd92f"/>
    </g>
   </g>
   <g id="line2d_24">
    <path d="M 80.509091 114.623302 
L 85.201528 114.933163 
L 89.893965 115.729689 
L 94.586402 113.106284 
L 99.278839 117.186858 
L 103.971276 111.38541 
L 108.663713 118.83096 
L 113.356151 110.408028 
L 118.048588 119.858239 
L 122.741025 109.56604 
L 127.433462 119.804009 
L 132.125899 109.603528 
L 136.818336 119.877326 
L 141.510773 110.288955 
L 146.20321 119.318352 
L 150.895647 111.101076 
L 155.588084 117.906427 
L 160.280522 112.26555 
L 164.972959 116.401058 
L 169.665396 113.695325 
" clip-path="url(#p1c0a5dc84b)" style="fill: none; stroke: #ffd92f; stroke-width: 1.5; stroke-linecap: round"/>
   </g>
   <g id="line2d_25">
    <path d="M 80.509091 114.623302 
L 85.201528 114.933163 
L 89.893965 115.729689 
L 94.586402 113.106284 
L 99.278839 117.186858 
L 103.971276 111.38541 
L 108.663713 118.83096 
L 113.356151 110.408028 
L 118.048588 119.858239 
L 122.741025 109.56604 
L 127.433462 119.804009 
L 132.125899 109.603528 
L 136.818336 119.877326 
L 141.510773 110.288955 
L 146.20321 119.318352 
L 150.895647 111.101076 
L 155.588084 117.906427 
L 160.280522 112.26555 
L 164.972959 116.401058 
L 169.665396 113.695325 
" clip-path="url(#p1c0a5dc84b)" style="fill: none; stroke: #ffd92f; stroke-width: 1.5; stroke-linecap: round"/>
    <g clip-path="url(#p1c0a5dc84b)">
     <use xlink:href="#mfd31ee4275" x="80.509091" y="114.623302" style="fill: #ffd92f; stroke: #ffd92f"/>
     <use xlink:href="#mfd31ee4275" x="85.201528" y="114.933163" style="fill: #ffd92f; stroke: #ffd92f"/>
     <use xlink:href="#mfd31ee4275" x="89.893965" y="115.729689" style="fill: #ffd92f; stroke: #ffd92f"/>
     <use xlink:href="#mfd31ee4275" x="94.586402" y="113.106284" style="fill: #ffd92f; stroke: #ffd92f"/>
     <use xlink:href="#mfd31ee4275" x="99.278839" y="117.186858" style="fill: #ffd92f; stroke: #ffd92f"/>
     <use xlink:href="#mfd31ee4275" x="103.971276" y="111.38541" style="fill: #ffd92f; stroke: #ffd92f"/>
     <use xlink:href="#mfd31ee4275" x="108.663713" y="118.83096" style="fill: #ffd92f; stroke: #ffd92f"/>
     <use xlink:href="#mfd31ee4275" x="113.356151" y="110.408028" style="fill: #ffd92f; stroke: #ffd92f"/>
     <use xlink:href="#mfd31ee4275" x="118.048588" y="119.858239" style="fill: #ffd92f; stroke: #ffd92f"/>
     <use xlink:href="#mfd31ee4275" x="122.741025" y="109.56604" style="fill: #ffd92f; stroke: #ffd92f"/>
     <use xlink:href="#mfd31ee4275" x="127.433462" y="119.804009" style="fill: #ffd92f; stroke: #ffd92f"/>
     <use xlink:href="#mfd31ee4275" x="132.125899" y="109.603528" style="fill: #ffd92f; stroke: #ffd92f"/>
     <use xlink:href="#mfd31ee4275" x="136.818336" y="119.877326" style="fill: #ffd92f; stroke: #ffd92f"/>
     <use xlink:href="#mfd31ee4275" x="141.510773" y="110.288955" style="fill: #ffd92f; stroke: #ffd92f"/>
     <use xlink:href="#mfd31ee4275" x="146.20321" y="119.318352" style="fill: #ffd92f; stroke: #ffd92f"/>
     <use xlink:href="#mfd31ee4275" x="150.895647" y="111.101076" style="fill: #ffd92f; stroke: #ffd92f"/>
     <use xlink:href="#mfd31ee4275" x="155.588084" y="117.906427" style="fill: #ffd92f; stroke: #ffd92f"/>
     <use xlink:href="#mfd31ee4275" x="160.280522" y="112.26555" style="fill: #ffd92f; stroke: #ffd92f"/>
     <use xlink:href="#mfd31ee4275" x="164.972959" y="116.401058" style="fill: #ffd92f; stroke: #ffd92f"/>
     <use xlink:href="#mfd31ee4275" x="169.665396" y="113.695325" style="fill: #ffd92f; stroke: #ffd92f"/>
    </g>
   </g>
   <g id="line2d_26">
    <path d="M 80.509091 107.869676 
L 85.201528 108.03843 
L 89.893965 108.007837 
L 94.586402 107.796654 
L 99.278839 108.746974 
L 103.971276 106.306289 
L 108.663713 110.178419 
L 113.356151 105.263356 
L 118.048588 111.727305 
L 122.741025 104.16827 
L 127.433462 112.380745 
L 132.125899 103.577885 
L 136.818336 112.47532 
L 141.510773 103.418182 
L 146.20321 112.60558 
L 150.895647 103.689881 
L 155.588084 112.030232 
L 160.280522 104.920349 
L 164.972959 111.162404 
L 169.665396 105.826803 
" clip-path="url(#p1c0a5dc84b)" style="fill: none; stroke: #ffd92f; stroke-width: 1.5; stroke-linecap: round"/>
   </g>
   <g id="line2d_27">
    <path d="M 80.509091 107.869676 
L 85.201528 108.03843 
L 89.893965 108.007837 
L 94.586402 107.796654 
L 99.278839 108.746974 
L 103.971276 106.306289 
L 108.663713 110.178419 
L 113.356151 105.263356 
L 118.048588 111.727305 
L 122.741025 104.16827 
L 127.433462 112.380745 
L 132.125899 103.577885 
L 136.818336 112.47532 
L 141.510773 103.418182 
L 146.20321 112.60558 
L 150.895647 103.689881 
L 155.588084 112.030232 
L 160.280522 104.920349 
L 164.972959 111.162404 
L 169.665396 105.826803 
" clip-path="url(#p1c0a5dc84b)" style="fill: none; stroke: #ffd92f; stroke-width: 1.5; stroke-linecap: round"/>
    <g clip-path="url(#p1c0a5dc84b)">
     <use xlink:href="#mfd31ee4275" x="80.509091" y="107.869676" style="fill: #ffd92f; stroke: #ffd92f"/>
     <use xlink:href="#mfd31ee4275" x="85.201528" y="108.03843" style="fill: #ffd92f; stroke: #ffd92f"/>
     <use xlink:href="#mfd31ee4275" x="89.893965" y="108.007837" style="fill: #ffd92f; stroke: #ffd92f"/>
     <use xlink:href="#mfd31ee4275" x="94.586402" y="107.796654" style="fill: #ffd92f; stroke: #ffd92f"/>
     <use xlink:href="#mfd31ee4275" x="99.278839" y="108.746974" style="fill: #ffd92f; stroke: #ffd92f"/>
     <use xlink:href="#mfd31ee4275" x="103.971276" y="106.306289" style="fill: #ffd92f; stroke: #ffd92f"/>
     <use xlink:href="#mfd31ee4275" x="108.663713" y="110.178419" style="fill: #ffd92f; stroke: #ffd92f"/>
     <use xlink:href="#mfd31ee4275" x="113.356151" y="105.263356" style="fill: #ffd92f; stroke: #ffd92f"/>
     <use xlink:href="#mfd31ee4275" x="118.048588" y="111.727305" style="fill: #ffd92f; stroke: #ffd92f"/>
     <use xlink:href="#mfd31ee4275" x="122.741025" y="104.16827" style="fill: #ffd92f; stroke: #ffd92f"/>
     <use xlink:href="#mfd31ee4275" x="127.433462" y="112.380745" style="fill: #ffd92f; stroke: #ffd92f"/>
     <use xlink:href="#mfd31ee4275" x="132.125899" y="103.577885" style="fill: #ffd92f; stroke: #ffd92f"/>
     <use xlink:href="#mfd31ee4275" x="136.818336" y="112.47532" style="fill: #ffd92f; stroke: #ffd92f"/>
     <use xlink:href="#mfd31ee4275" x="141.510773" y="103.418182" style="fill: #ffd92f; stroke: #ffd92f"/>
     <use xlink:href="#mfd31ee4275" x="146.20321" y="112.60558" style="fill: #ffd92f; stroke: #ffd92f"/>
     <use xlink:href="#mfd31ee4275" x="150.895647" y="103.689881" style="fill: #ffd92f; stroke: #ffd92f"/>
     <use xlink:href="#mfd31ee4275" x="155.588084" y="112.030232" style="fill: #ffd92f; stroke: #ffd92f"/>
     <use xlink:href="#mfd31ee4275" x="160.280522" y="104.920349" style="fill: #ffd92f; stroke: #ffd92f"/>
     <use xlink:href="#mfd31ee4275" x="164.972959" y="111.162404" style="fill: #ffd92f; stroke: #ffd92f"/>
     <use xlink:href="#mfd31ee4275" x="169.665396" y="105.826803" style="fill: #ffd92f; stroke: #ffd92f"/>
    </g>
   </g>
   <g id="line2d_28">
    <path d="M 108.370436 167.714422 
L 118.998642 167.148403 
L 129.626847 166.603943 
L 140.255053 168.158351 
L 150.883258 167.610554 
L 161.511464 152.013844 
L 172.139669 144.725839 
L 182.767875 138.723867 
L 193.396081 136.113457 
L 204.024286 130.701256 
L 214.652492 128.265525 
L 225.280697 124.58803 
L 235.908903 123.840991 
L 246.537108 121.318593 
L 257.165314 120.713555 
L 267.793519 117.589202 
L 278.421725 117.496896 
L 289.04993 114.331216 
L 299.678136 114.92782 
L 310.306342 113.822622 
" clip-path="url(#p1c0a5dc84b)" style="fill: none; stroke-dasharray: 24,6; stroke-dashoffset: 0; stroke: #000000; stroke-width: 3"/>
   </g>
   <g id="patch_3">
    <path d="M 64.8 460.8 
L 64.8 86.4 
" style="fill: none; stroke: #cccccc; stroke-width: 1.25; stroke-linejoin: miter; stroke-linecap: square"/>
   </g>
   <g id="patch_4">
    <path d="M 410.4 460.8 
L 410.4 86.4 
" style="fill: none; stroke: #cccccc; stroke-width: 1.25; stroke-linejoin: miter; stroke-linecap: square"/>
   </g>
   <g id="patch_5">
    <path d="M 64.8 460.8 
L 410.4 460.8 
" style="fill: none; stroke: #cccccc; stroke-width: 1.25; stroke-linejoin: miter; stroke-linecap: square"/>
   </g>
   <g id="patch_6">
    <path d="M 64.8 86.4 
L 410.4 86.4 
" style="fill: none; stroke: #cccccc; stroke-width: 1.25; stroke-linejoin: miter; stroke-linecap: square"/>
   </g>
   <g id="text_12">
    <!-- Cluster 4 -->
    <g style="fill: #262626" transform="translate(210.580313 53.52525) scale(0.12 -0.12)">
     <defs>
      <path id="DejaVuSans-43" d="M 4122 4306 
L 4122 3641 
Q 3803 3938 3442 4084 
Q 3081 4231 2675 4231 
Q 1875 4231 1450 3742 
Q 1025 3253 1025 2328 
Q 1025 1406 1450 917 
Q 1875 428 2675 428 
Q 3081 428 3442 575 
Q 3803 722 4122 1019 
L 4122 359 
Q 3791 134 3420 21 
Q 3050 -91 2638 -91 
Q 1578 -91 968 557 
Q 359 1206 359 2328 
Q 359 3453 968 4101 
Q 1578 4750 2638 4750 
Q 3056 4750 3426 4639 
Q 3797 4528 4122 4306 
z
" transform="scale(0.015625)"/>
      <path id="DejaVuSans-6c" d="M 603 4863 
L 1178 4863 
L 1178 0 
L 603 0 
L 603 4863 
z
" transform="scale(0.015625)"/>
      <path id="DejaVuSans-75" d="M 544 1381 
L 544 3500 
L 1119 3500 
L 1119 1403 
Q 1119 906 1312 657 
Q 1506 409 1894 409 
Q 2359 409 2629 706 
Q 2900 1003 2900 1516 
L 2900 3500 
L 3475 3500 
L 3475 0 
L 2900 0 
L 2900 538 
Q 2691 219 2414 64 
Q 2138 -91 1772 -91 
Q 1169 -91 856 284 
Q 544 659 544 1381 
z
M 1991 3584 
L 1991 3584 
z
" transform="scale(0.015625)"/>
      <path id="DejaVuSans-73" d="M 2834 3397 
L 2834 2853 
Q 2591 2978 2328 3040 
Q 2066 3103 1784 3103 
Q 1356 3103 1142 2972 
Q 928 2841 928 2578 
Q 928 2378 1081 2264 
Q 1234 2150 1697 2047 
L 1894 2003 
Q 2506 1872 2764 1633 
Q 3022 1394 3022 966 
Q 3022 478 2636 193 
Q 2250 -91 1575 -91 
Q 1294 -91 989 -36 
Q 684 19 347 128 
L 347 722 
Q 666 556 975 473 
Q 1284 391 1588 391 
Q 1994 391 2212 530 
Q 2431 669 2431 922 
Q 2431 1156 2273 1281 
Q 2116 1406 1581 1522 
L 1381 1569 
Q 847 1681 609 1914 
Q 372 2147 372 2553 
Q 372 3047 722 3315 
Q 1072 3584 1716 3584 
Q 2034 3584 2315 3537 
Q 2597 3491 2834 3397 
z
" transform="scale(0.015625)"/>
      <path id="DejaVuSans-74" d="M 1172 4494 
L 1172 3500 
L 2356 3500 
L 2356 3053 
L 1172 3053 
L 1172 1153 
Q 1172 725 1289 603 
Q 1406 481 1766 481 
L 2356 481 
L 2356 0 
L 1766 0 
Q 1100 0 847 248 
Q 594 497 594 1153 
L 594 3053 
L 172 3053 
L 172 3500 
L 594 3500 
L 594 4494 
L 1172 4494 
z
" transform="scale(0.015625)"/>
      <path id="DejaVuSans-65" d="M 3597 1894 
L 3597 1613 
L 953 1613 
Q 991 1019 1311 708 
Q 1631 397 2203 397 
Q 2534 397 2845 478 
Q 3156 559 3463 722 
L 3463 178 
Q 3153 47 2828 -22 
Q 2503 -91 2169 -91 
Q 1331 -91 842 396 
Q 353 884 353 1716 
Q 353 2575 817 3079 
Q 1281 3584 2069 3584 
Q 2775 3584 3186 3129 
Q 3597 2675 3597 1894 
z
M 3022 2063 
Q 3016 2534 2758 2815 
Q 2500 3097 2075 3097 
Q 1594 3097 1305 2825 
Q 1016 2553 972 2059 
L 3022 2063 
z
" transform="scale(0.015625)"/>
      <path id="DejaVuSans-72" d="M 2631 2963 
Q 2534 3019 2420 3045 
Q 2306 3072 2169 3072 
Q 1681 3072 1420 2755 
Q 1159 2438 1159 1844 
L 1159 0 
L 581 0 
L 581 3500 
L 1159 3500 
L 1159 2956 
Q 1341 3275 1631 3429 
Q 1922 3584 2338 3584 
Q 2397 3584 2469 3576 
Q 2541 3569 2628 3553 
L 2631 2963 
z
" transform="scale(0.015625)"/>
      <path id="DejaVuSans-20" transform="scale(0.015625)"/>
     </defs>
     <use xlink:href="#DejaVuSans-43"/>
     <use xlink:href="#DejaVuSans-6c" transform="translate(69.824219 0)"/>
     <use xlink:href="#DejaVuSans-75" transform="translate(97.607422 0)"/>
     <use xlink:href="#DejaVuSans-73" transform="translate(160.986328 0)"/>
     <use xlink:href="#DejaVuSans-74" transform="translate(213.085938 0)"/>
     <use xlink:href="#DejaVuSans-65" transform="translate(252.294922 0)"/>
     <use xlink:href="#DejaVuSans-72" transform="translate(313.818359 0)"/>
     <use xlink:href="#DejaVuSans-20" transform="translate(354.931641 0)"/>
     <use xlink:href="#DejaVuSans-34" transform="translate(386.71875 0)"/>
    </g>
    <!-- 8 Trajectories  -->
    <g style="fill: #262626" transform="translate(195.413438 66.962625) scale(0.12 -0.12)">
     <defs>
      <path id="DejaVuSans-38" d="M 2034 2216 
Q 1584 2216 1326 1975 
Q 1069 1734 1069 1313 
Q 1069 891 1326 650 
Q 1584 409 2034 409 
Q 2484 409 2743 651 
Q 3003 894 3003 1313 
Q 3003 1734 2745 1975 
Q 2488 2216 2034 2216 
z
M 1403 2484 
Q 997 2584 770 2862 
Q 544 3141 544 3541 
Q 544 4100 942 4425 
Q 1341 4750 2034 4750 
Q 2731 4750 3128 4425 
Q 3525 4100 3525 3541 
Q 3525 3141 3298 2862 
Q 3072 2584 2669 2484 
Q 3125 2378 3379 2068 
Q 3634 1759 3634 1313 
Q 3634 634 3220 271 
Q 2806 -91 2034 -91 
Q 1263 -91 848 271 
Q 434 634 434 1313 
Q 434 1759 690 2068 
Q 947 2378 1403 2484 
z
M 1172 3481 
Q 1172 3119 1398 2916 
Q 1625 2713 2034 2713 
Q 2441 2713 2670 2916 
Q 2900 3119 2900 3481 
Q 2900 3844 2670 4047 
Q 2441 4250 2034 4250 
Q 1625 4250 1398 4047 
Q 1172 3844 1172 3481 
z
" transform="scale(0.015625)"/>
      <path id="DejaVuSans-54" d="M -19 4666 
L 3928 4666 
L 3928 4134 
L 2272 4134 
L 2272 0 
L 1638 0 
L 1638 4134 
L -19 4134 
L -19 4666 
z
" transform="scale(0.015625)"/>
      <path id="DejaVuSans-61" d="M 2194 1759 
Q 1497 1759 1228 1600 
Q 959 1441 959 1056 
Q 959 750 1161 570 
Q 1363 391 1709 391 
Q 2188 391 2477 730 
Q 2766 1069 2766 1631 
L 2766 1759 
L 2194 1759 
z
M 3341 1997 
L 3341 0 
L 2766 0 
L 2766 531 
Q 2569 213 2275 61 
Q 1981 -91 1556 -91 
Q 1019 -91 701 211 
Q 384 513 384 1019 
Q 384 1609 779 1909 
Q 1175 2209 1959 2209 
L 2766 2209 
L 2766 2266 
Q 2766 2663 2505 2880 
Q 2244 3097 1772 3097 
Q 1472 3097 1187 3025 
Q 903 2953 641 2809 
L 641 3341 
Q 956 3463 1253 3523 
Q 1550 3584 1831 3584 
Q 2591 3584 2966 3190 
Q 3341 2797 3341 1997 
z
" transform="scale(0.015625)"/>
      <path id="DejaVuSans-6a" d="M 603 3500 
L 1178 3500 
L 1178 -63 
Q 1178 -731 923 -1031 
Q 669 -1331 103 -1331 
L -116 -1331 
L -116 -844 
L 38 -844 
Q 366 -844 484 -692 
Q 603 -541 603 -63 
L 603 3500 
z
M 603 4863 
L 1178 4863 
L 1178 4134 
L 603 4134 
L 603 4863 
z
" transform="scale(0.015625)"/>
      <path id="DejaVuSans-63" d="M 3122 3366 
L 3122 2828 
Q 2878 2963 2633 3030 
Q 2388 3097 2138 3097 
Q 1578 3097 1268 2742 
Q 959 2388 959 1747 
Q 959 1106 1268 751 
Q 1578 397 2138 397 
Q 2388 397 2633 464 
Q 2878 531 3122 666 
L 3122 134 
Q 2881 22 2623 -34 
Q 2366 -91 2075 -91 
Q 1284 -91 818 406 
Q 353 903 353 1747 
Q 353 2603 823 3093 
Q 1294 3584 2113 3584 
Q 2378 3584 2631 3529 
Q 2884 3475 3122 3366 
z
" transform="scale(0.015625)"/>
      <path id="DejaVuSans-6f" d="M 1959 3097 
Q 1497 3097 1228 2736 
Q 959 2375 959 1747 
Q 959 1119 1226 758 
Q 1494 397 1959 397 
Q 2419 397 2687 759 
Q 2956 1122 2956 1747 
Q 2956 2369 2687 2733 
Q 2419 3097 1959 3097 
z
M 1959 3584 
Q 2709 3584 3137 3096 
Q 3566 2609 3566 1747 
Q 3566 888 3137 398 
Q 2709 -91 1959 -91 
Q 1206 -91 779 398 
Q 353 888 353 1747 
Q 353 2609 779 3096 
Q 1206 3584 1959 3584 
z
" transform="scale(0.015625)"/>
      <path id="DejaVuSans-69" d="M 603 3500 
L 1178 3500 
L 1178 0 
L 603 0 
L 603 3500 
z
M 603 4863 
L 1178 4863 
L 1178 4134 
L 603 4134 
L 603 4863 
z
" transform="scale(0.015625)"/>
     </defs>
     <use xlink:href="#DejaVuSans-38"/>
     <use xlink:href="#DejaVuSans-20" transform="translate(63.623047 0)"/>
     <use xlink:href="#DejaVuSans-54" transform="translate(95.410156 0)"/>
     <use xlink:href="#DejaVuSans-72" transform="translate(141.744141 0)"/>
     <use xlink:href="#DejaVuSans-61" transform="translate(182.857422 0)"/>
     <use xlink:href="#DejaVuSans-6a" transform="translate(244.136719 0)"/>
     <use xlink:href="#DejaVuSans-65" transform="translate(271.919922 0)"/>
     <use xlink:href="#DejaVuSans-63" transform="translate(333.443359 0)"/>
     <use xlink:href="#DejaVuSans-74" transform="translate(388.423828 0)"/>
     <use xlink:href="#DejaVuSans-6f" transform="translate(427.632812 0)"/>
     <use xlink:href="#DejaVuSans-72" transform="translate(488.814453 0)"/>
     <use xlink:href="#DejaVuSans-69" transform="translate(529.927734 0)"/>
     <use xlink:href="#DejaVuSans-65" transform="translate(557.710938 0)"/>
     <use xlink:href="#DejaVuSans-73" transform="translate(619.234375 0)"/>
     <use xlink:href="#DejaVuSans-20" transform="translate(671.333984 0)"/>
    </g>
    <!--  Colored by: func_old -->
    <g style="fill: #262626" transform="translate(174.737813 80.4) scale(0.12 -0.12)">
     <defs>
      <path id="DejaVuSans-64" d="M 2906 2969 
L 2906 4863 
L 3481 4863 
L 3481 0 
L 2906 0 
L 2906 525 
Q 2725 213 2448 61 
Q 2172 -91 1784 -91 
Q 1150 -91 751 415 
Q 353 922 353 1747 
Q 353 2572 751 3078 
Q 1150 3584 1784 3584 
Q 2172 3584 2448 3432 
Q 2725 3281 2906 2969 
z
M 947 1747 
Q 947 1113 1208 752 
Q 1469 391 1925 391 
Q 2381 391 2643 752 
Q 2906 1113 2906 1747 
Q 2906 2381 2643 2742 
Q 2381 3103 1925 3103 
Q 1469 3103 1208 2742 
Q 947 2381 947 1747 
z
" transform="scale(0.015625)"/>
      <path id="DejaVuSans-62" d="M 3116 1747 
Q 3116 2381 2855 2742 
Q 2594 3103 2138 3103 
Q 1681 3103 1420 2742 
Q 1159 2381 1159 1747 
Q 1159 1113 1420 752 
Q 1681 391 2138 391 
Q 2594 391 2855 752 
Q 3116 1113 3116 1747 
z
M 1159 2969 
Q 1341 3281 1617 3432 
Q 1894 3584 2278 3584 
Q 2916 3584 3314 3078 
Q 3713 2572 3713 1747 
Q 3713 922 3314 415 
Q 2916 -91 2278 -91 
Q 1894 -91 1617 61 
Q 1341 213 1159 525 
L 1159 0 
L 581 0 
L 581 4863 
L 1159 4863 
L 1159 2969 
z
" transform="scale(0.015625)"/>
      <path id="DejaVuSans-79" d="M 2059 -325 
Q 1816 -950 1584 -1140 
Q 1353 -1331 966 -1331 
L 506 -1331 
L 506 -850 
L 844 -850 
Q 1081 -850 1212 -737 
Q 1344 -625 1503 -206 
L 1606 56 
L 191 3500 
L 800 3500 
L 1894 763 
L 2988 3500 
L 3597 3500 
L 2059 -325 
z
" transform="scale(0.015625)"/>
      <path id="DejaVuSans-3a" d="M 750 794 
L 1409 794 
L 1409 0 
L 750 0 
L 750 794 
z
M 750 3309 
L 1409 3309 
L 1409 2516 
L 750 2516 
L 750 3309 
z
" transform="scale(0.015625)"/>
      <path id="DejaVuSans-66" d="M 2375 4863 
L 2375 4384 
L 1825 4384 
Q 1516 4384 1395 4259 
Q 1275 4134 1275 3809 
L 1275 3500 
L 2222 3500 
L 2222 3053 
L 1275 3053 
L 1275 0 
L 697 0 
L 697 3053 
L 147 3053 
L 147 3500 
L 697 3500 
L 697 3744 
Q 697 4328 969 4595 
Q 1241 4863 1831 4863 
L 2375 4863 
z
" transform="scale(0.015625)"/>
      <path id="DejaVuSans-6e" d="M 3513 2113 
L 3513 0 
L 2938 0 
L 2938 2094 
Q 2938 2591 2744 2837 
Q 2550 3084 2163 3084 
Q 1697 3084 1428 2787 
Q 1159 2491 1159 1978 
L 1159 0 
L 581 0 
L 581 3500 
L 1159 3500 
L 1159 2956 
Q 1366 3272 1645 3428 
Q 1925 3584 2291 3584 
Q 2894 3584 3203 3211 
Q 3513 2838 3513 2113 
z
" transform="scale(0.015625)"/>
      <path id="DejaVuSans-5f" d="M 3263 -1063 
L 3263 -1509 
L -63 -1509 
L -63 -1063 
L 3263 -1063 
z
" transform="scale(0.015625)"/>
     </defs>
     <use xlink:href="#DejaVuSans-20"/>
     <use xlink:href="#DejaVuSans-43" transform="translate(31.787109 0)"/>
     <use xlink:href="#DejaVuSans-6f" transform="translate(101.611328 0)"/>
     <use xlink:href="#DejaVuSans-6c" transform="translate(162.792969 0)"/>
     <use xlink:href="#DejaVuSans-6f" transform="translate(190.576172 0)"/>
     <use xlink:href="#DejaVuSans-72" transform="translate(251.757812 0)"/>
     <use xlink:href="#DejaVuSans-65" transform="translate(290.621094 0)"/>
     <use xlink:href="#DejaVuSans-64" transform="translate(352.144531 0)"/>
     <use xlink:href="#DejaVuSans-20" transform="translate(415.621094 0)"/>
     <use xlink:href="#DejaVuSans-62" transform="translate(447.408203 0)"/>
     <use xlink:href="#DejaVuSans-79" transform="translate(510.884766 0)"/>
     <use xlink:href="#DejaVuSans-3a" transform="translate(562.814453 0)"/>
     <use xlink:href="#DejaVuSans-20" transform="translate(596.505859 0)"/>
     <use xlink:href="#DejaVuSans-66" transform="translate(628.292969 0)"/>
     <use xlink:href="#DejaVuSans-75" transform="translate(663.498047 0)"/>
     <use xlink:href="#DejaVuSans-6e" transform="translate(726.876953 0)"/>
     <use xlink:href="#DejaVuSans-63" transform="translate(790.255859 0)"/>
     <use xlink:href="#DejaVuSans-5f" transform="translate(845.236328 0)"/>
     <use xlink:href="#DejaVuSans-6f" transform="translate(895.236328 0)"/>
     <use xlink:href="#DejaVuSans-6c" transform="translate(956.417969 0)"/>
     <use xlink:href="#DejaVuSans-64" transform="translate(984.201172 0)"/>
    </g>
   </g>
   <g id="legend_1">
    <g id="patch_7">
     <path d="M 302.823438 455.3 
L 402.7 455.3 
Q 404.9 455.3 404.9 453.1 
L 404.9 373.470312 
Q 404.9 371.270312 402.7 371.270312 
L 302.823438 371.270312 
Q 300.623438 371.270312 300.623438 373.470312 
L 300.623438 453.1 
Q 300.623438 455.3 302.823438 455.3 
z
" style="fill: #ffffff; opacity: 0.8; stroke: #cccccc; stroke-linejoin: miter"/>
    </g>
    <g id="line2d_29">
     <path d="M 305.023438 380.178594 
L 316.023438 380.178594 
L 327.023438 380.178594 
" style="fill: none; stroke: #66c2a5; stroke-width: 1.5; stroke-linecap: round"/>
    </g>
    <g id="text_13">
     <!-- exponential -->
     <g style="fill: #262626" transform="translate(335.823438 384.028594) scale(0.11 -0.11)">
      <defs>
       <path id="DejaVuSans-78" d="M 3513 3500 
L 2247 1797 
L 3578 0 
L 2900 0 
L 1881 1375 
L 863 0 
L 184 0 
L 1544 1831 
L 300 3500 
L 978 3500 
L 1906 2253 
L 2834 3500 
L 3513 3500 
z
" transform="scale(0.015625)"/>
       <path id="DejaVuSans-70" d="M 1159 525 
L 1159 -1331 
L 581 -1331 
L 581 3500 
L 1159 3500 
L 1159 2969 
Q 1341 3281 1617 3432 
Q 1894 3584 2278 3584 
Q 2916 3584 3314 3078 
Q 3713 2572 3713 1747 
Q 3713 922 3314 415 
Q 2916 -91 2278 -91 
Q 1894 -91 1617 61 
Q 1341 213 1159 525 
z
M 3116 1747 
Q 3116 2381 2855 2742 
Q 2594 3103 2138 3103 
Q 1681 3103 1420 2742 
Q 1159 2381 1159 1747 
Q 1159 1113 1420 752 
Q 1681 391 2138 391 
Q 2594 391 2855 752 
Q 3116 1113 3116 1747 
z
" transform="scale(0.015625)"/>
      </defs>
      <use xlink:href="#DejaVuSans-65"/>
      <use xlink:href="#DejaVuSans-78" transform="translate(59.773438 0)"/>
      <use xlink:href="#DejaVuSans-70" transform="translate(118.953125 0)"/>
      <use xlink:href="#DejaVuSans-6f" transform="translate(182.429688 0)"/>
      <use xlink:href="#DejaVuSans-6e" transform="translate(243.611328 0)"/>
      <use xlink:href="#DejaVuSans-65" transform="translate(306.990234 0)"/>
      <use xlink:href="#DejaVuSans-6e" transform="translate(368.513672 0)"/>
      <use xlink:href="#DejaVuSans-74" transform="translate(431.892578 0)"/>
      <use xlink:href="#DejaVuSans-69" transform="translate(471.101562 0)"/>
      <use xlink:href="#DejaVuSans-61" transform="translate(498.884766 0)"/>
      <use xlink:href="#DejaVuSans-6c" transform="translate(560.164062 0)"/>
     </g>
    </g>
    <g id="line2d_30">
     <path d="M 305.023438 396.324531 
L 316.023438 396.324531 
L 327.023438 396.324531 
" style="fill: none; stroke: #fc8d62; stroke-width: 1.5; stroke-linecap: round"/>
    </g>
    <g id="text_14">
     <!-- growth -->
     <g style="fill: #262626" transform="translate(335.823438 400.174531) scale(0.11 -0.11)">
      <defs>
       <path id="DejaVuSans-67" d="M 2906 1791 
Q 2906 2416 2648 2759 
Q 2391 3103 1925 3103 
Q 1463 3103 1205 2759 
Q 947 2416 947 1791 
Q 947 1169 1205 825 
Q 1463 481 1925 481 
Q 2391 481 2648 825 
Q 2906 1169 2906 1791 
z
M 3481 434 
Q 3481 -459 3084 -895 
Q 2688 -1331 1869 -1331 
Q 1566 -1331 1297 -1286 
Q 1028 -1241 775 -1147 
L 775 -588 
Q 1028 -725 1275 -790 
Q 1522 -856 1778 -856 
Q 2344 -856 2625 -561 
Q 2906 -266 2906 331 
L 2906 616 
Q 2728 306 2450 153 
Q 2172 0 1784 0 
Q 1141 0 747 490 
Q 353 981 353 1791 
Q 353 2603 747 3093 
Q 1141 3584 1784 3584 
Q 2172 3584 2450 3431 
Q 2728 3278 2906 2969 
L 2906 3500 
L 3481 3500 
L 3481 434 
z
" transform="scale(0.015625)"/>
       <path id="DejaVuSans-77" d="M 269 3500 
L 844 3500 
L 1563 769 
L 2278 3500 
L 2956 3500 
L 3675 769 
L 4391 3500 
L 4966 3500 
L 4050 0 
L 3372 0 
L 2619 2869 
L 1863 0 
L 1184 0 
L 269 3500 
z
" transform="scale(0.015625)"/>
       <path id="DejaVuSans-68" d="M 3513 2113 
L 3513 0 
L 2938 0 
L 2938 2094 
Q 2938 2591 2744 2837 
Q 2550 3084 2163 3084 
Q 1697 3084 1428 2787 
Q 1159 2491 1159 1978 
L 1159 0 
L 581 0 
L 581 4863 
L 1159 4863 
L 1159 2956 
Q 1366 3272 1645 3428 
Q 1925 3584 2291 3584 
Q 2894 3584 3203 3211 
Q 3513 2838 3513 2113 
z
" transform="scale(0.015625)"/>
      </defs>
      <use xlink:href="#DejaVuSans-67"/>
      <use xlink:href="#DejaVuSans-72" transform="translate(63.476562 0)"/>
      <use xlink:href="#DejaVuSans-6f" transform="translate(102.339844 0)"/>
      <use xlink:href="#DejaVuSans-77" transform="translate(163.521484 0)"/>
      <use xlink:href="#DejaVuSans-74" transform="translate(245.308594 0)"/>
      <use xlink:href="#DejaVuSans-68" transform="translate(284.517578 0)"/>
     </g>
    </g>
    <g id="line2d_31">
     <path d="M 305.023438 412.470469 
L 316.023438 412.470469 
L 327.023438 412.470469 
" style="fill: none; stroke: #8da0cb; stroke-width: 1.5; stroke-linecap: round"/>
    </g>
    <g id="text_15">
     <!-- hyperbolic -->
     <g style="fill: #262626" transform="translate(335.823438 416.320469) scale(0.11 -0.11)">
      <use xlink:href="#DejaVuSans-68"/>
      <use xlink:href="#DejaVuSans-79" transform="translate(63.378906 0)"/>
      <use xlink:href="#DejaVuSans-70" transform="translate(122.558594 0)"/>
      <use xlink:href="#DejaVuSans-65" transform="translate(186.035156 0)"/>
      <use xlink:href="#DejaVuSans-72" transform="translate(247.558594 0)"/>
      <use xlink:href="#DejaVuSans-62" transform="translate(288.671875 0)"/>
      <use xlink:href="#DejaVuSans-6f" transform="translate(352.148438 0)"/>
      <use xlink:href="#DejaVuSans-6c" transform="translate(413.330078 0)"/>
      <use xlink:href="#DejaVuSans-69" transform="translate(441.113281 0)"/>
      <use xlink:href="#DejaVuSans-63" transform="translate(468.896484 0)"/>
     </g>
    </g>
    <g id="line2d_32">
     <path d="M 305.023438 428.616406 
L 316.023438 428.616406 
L 327.023438 428.616406 
" style="fill: none; stroke: #ffd92f; stroke-width: 1.5; stroke-linecap: round"/>
    </g>
    <g id="text_16">
     <!-- sin -->
     <g style="fill: #262626" transform="translate(335.823438 432.466406) scale(0.11 -0.11)">
      <use xlink:href="#DejaVuSans-73"/>
      <use xlink:href="#DejaVuSans-69" transform="translate(52.099609 0)"/>
      <use xlink:href="#DejaVuSans-6e" transform="translate(79.882812 0)"/>
     </g>
    </g>
    <g id="line2d_33">
     <path d="M 305.023438 444.762344 
L 316.023438 444.762344 
L 327.023438 444.762344 
" style="fill: none; stroke-dasharray: 24,6; stroke-dashoffset: 0; stroke: #000000; stroke-width: 3"/>
    </g>
    <g id="text_17">
     <!-- Mean -->
     <g style="fill: #262626" transform="translate(335.823438 448.612344) scale(0.11 -0.11)">
      <defs>
       <path id="DejaVuSans-4d" d="M 628 4666 
L 1569 4666 
L 2759 1491 
L 3956 4666 
L 4897 4666 
L 4897 0 
L 4281 0 
L 4281 4097 
L 3078 897 
L 2444 897 
L 1241 4097 
L 1241 0 
L 628 0 
L 628 4666 
z
" transform="scale(0.015625)"/>
      </defs>
      <use xlink:href="#DejaVuSans-4d"/>
      <use xlink:href="#DejaVuSans-65" transform="translate(86.279297 0)"/>
      <use xlink:href="#DejaVuSans-61" transform="translate(147.802734 0)"/>
      <use xlink:href="#DejaVuSans-6e" transform="translate(209.082031 0)"/>
     </g>
    </g>
   </g>
  </g>
 </g>
 <defs>
  <clipPath id="p1c0a5dc84b">
   <rect x="64.8" y="86.4" width="345.6" height="374.4"/>
  </clipPath>
 </defs>
</svg>
